<svg xmlns="http://www.w3.org/2000/svg" viewBox="0 0 96 120" x="0px" y="0px"><title>Artboard 11</title><path d="M82.2886,53.1054,74.5,37.5274V34a26.03,26.03,0,0,0-26-26c-22.56,0-34,10.0937-34,30,0,7.91,6.0605,22.3514,16,28.8025V86a1.9989,1.9989,0,0,0,2,2h28a1.9989,1.9989,0,0,0,2-2V72h2a10.0117,10.0117,0,0,0,10-10V56h6a2.0007,2.0007,0,0,0,1.7891-2.8945Z"/><text x="0" y="111" fill="#000000" font-size="5px" font-weight="bold" font-family="'Helvetica Neue', Helvetica, Arial-Unicode, Arial, Sans-serif">Created by Deemak Daksina</text><text x="0" y="116" fill="#000000" font-size="5px" font-weight="bold" font-family="'Helvetica Neue', Helvetica, Arial-Unicode, Arial, Sans-serif">from the Noun Project</text></svg>