<?xml version="1.0" encoding="utf-8" ?>
<svg baseProfile="full" height="100%" version="1.1" width="100%" xmlns="http://www.w3.org/2000/svg" xmlns:ev="http://www.w3.org/2001/xml-events" xmlns:xlink="http://www.w3.org/1999/xlink"><defs /><rect fill="white" height="500" width="500" x="0" y="0" /><polyline fill="none" points="0,250.0 5.0,250.0 10.0,256.27905195293135 15.0,262.5333233564304 20.0,268.73813145857247 25.0,274.8689887164855 30.0,280.90169943749476 35.0,286.81245526846783 40.0,292.57792915650725 45.0,298.17536741017153 50.0,303.5826794978997 55.0,308.7785252292473 60.0,313.742398974869 65.0,318.4547105928689 70.0,322.89686274214114 75.0,327.05132427757894 80.0,330.90169943749476 85.0,334.4327925502015 90.0,337.6306680043864 95.0,340.48270524660194 100.0,342.97764858882516 105.0,345.10565162951536 110.0,346.8583161128631 115.0,348.2287250728689 120.0,349.21147013144775 125.0,349.8026728428272 130.0,350.0 135.0,349.8026728428272 140.0,349.21147013144775 145.0,348.2287250728689 150.0,346.8583161128631 155.0,345.10565162951536 160.0,342.9776485888251 165.0,340.48270524660194 170.0,337.63066800438634 175.0,334.4327925502015 180.0,330.90169943749476 185.0,327.05132427757894 190.0,322.89686274214114 195.0,318.4547105928689 200.0,313.74239897486893 205.0,308.7785252292473 210.0,303.5826794978997 215.0,298.17536741017153 220.0,292.57792915650725 225.0,286.8124552684678 230.0,280.9016994374947 235.0,274.8689887164855 240.0,268.73813145857247 245.0,262.5333233564304 250.0,256.2790519529313 255.0,249.99999999999997 260.0,243.72094804706867 265.0,237.46667664356957 270.0,231.26186854142753 275.0,225.1310112835145 280.0,219.09830056250522 285.0,213.18754473153217 290.0,207.42207084349275 295.0,201.82463258982847 300.0,196.41732050210032 305.0,191.22147477075265 310.0,186.257601025131 315.0,181.54528940713112 320.0,177.10313725785886 325.0,172.94867572242106 330.0,169.09830056250527 335.0,165.56720744979847 340.0,162.36933199561363 345.0,159.517294753398 350.0,157.02235141117484 355.0,154.89434837048464 360.0,153.14168388713688 365.0,151.77127492713112 370.0,150.78852986855222 375.0,150.19732715717285 380.0,150.0 385.0,150.19732715717285 390.0,150.78852986855222 395.0,151.77127492713115 400.0,153.14168388713688 405.0,154.89434837048464 410.0,157.0223514111749 415.0,159.51729475339806 420.0,162.36933199561366 425.0,165.5672074497985 430.0,169.0983005625053 435.0,172.94867572242111 440.0,177.10313725785886 445.0,181.54528940713118 450.0,186.25760102513104 455.0,191.22147477075274 460.0,196.41732050210038 465.0,201.82463258982847 470.0,207.42207084349278 475.0,213.18754473153223 480.0,219.09830056250533 485.0,225.13101128351454 490.0,231.26186854142753 495.0,237.46667664356963 500.0,243.72094804706867" stroke="red" stroke-linecap="round" stroke-linejoin="round" stroke-opacity="1" stroke-width="1" /></svg>