<?xml version="1.0" encoding="utf-8" ?>
<svg baseProfile="full" height="100%" version="1.1" width="100%" xmlns="http://www.w3.org/2000/svg" xmlns:ev="http://www.w3.org/2001/xml-events" xmlns:xlink="http://www.w3.org/1999/xlink"><defs /><rect fill="white" height="500" width="200" x="0" y="0" /><polyline fill="none" points="0,250.0 2.0,250.0 4.0,256.27905195293135 6.0,262.5333233564304 8.0,268.73813145857247 10.0,274.8689887164855 12.0,280.90169943749476 14.0,286.81245526846783 16.0,292.57792915650725 18.0,298.17536741017153 20.0,303.5826794978997 22.0,308.7785252292473 24.0,313.742398974869 26.0,318.4547105928689 28.0,322.89686274214114 30.0,327.05132427757894 32.0,330.90169943749476 34.0,334.4327925502015 36.0,337.6306680043864 38.0,340.48270524660194 40.0,342.97764858882516 42.0,345.10565162951536 44.0,346.8583161128631 46.0,348.2287250728689 48.0,349.21147013144775 50.0,349.8026728428272 52.0,350.0 54.0,349.8026728428272 56.0,349.21147013144775 58.0,348.2287250728689 60.0,346.8583161128631 62.0,345.10565162951536 64.0,342.9776485888251 66.0,340.48270524660194 68.0,337.63066800438634 70.0,334.4327925502015 72.0,330.90169943749476 74.0,327.05132427757894 76.0,322.89686274214114 78.0,318.4547105928689 80.0,313.74239897486893 82.0,308.7785252292473 84.0,303.5826794978997 86.0,298.17536741017153 88.0,292.57792915650725 90.0,286.8124552684678 92.0,280.9016994374947 94.0,274.8689887164855 96.0,268.73813145857247 98.0,262.5333233564304 100.0,256.2790519529313 102.0,249.99999999999997 104.0,243.72094804706867 106.0,237.46667664356957 108.0,231.26186854142753 110.0,225.1310112835145 112.0,219.09830056250522 114.0,213.18754473153217 116.0,207.42207084349275 118.0,201.82463258982847 120.0,196.41732050210032 122.0,191.22147477075265 124.0,186.257601025131 126.0,181.54528940713112 128.0,177.10313725785886 130.0,172.94867572242106 132.0,169.09830056250527 134.0,165.56720744979847 136.0,162.36933199561363 138.0,159.517294753398 140.0,157.02235141117484 142.0,154.89434837048464 144.0,153.14168388713688 146.0,151.77127492713112 148.0,150.78852986855222 150.0,150.19732715717285 152.0,150.0 154.0,150.19732715717285 156.0,150.78852986855222 158.0,151.77127492713115 160.0,153.14168388713688 162.0,154.89434837048464 164.0,157.0223514111749 166.0,159.51729475339806 168.0,162.36933199561366 170.0,165.5672074497985 172.0,169.0983005625053 174.0,172.94867572242111 176.0,177.10313725785886 178.0,181.54528940713118 180.0,186.25760102513104 182.0,191.22147477075274 184.0,196.41732050210038 186.0,201.82463258982847 188.0,207.42207084349278 190.0,213.18754473153223 192.0,219.09830056250533 194.0,225.13101128351454 196.0,231.26186854142753 198.0,237.46667664356963 200.0,243.72094804706867" stroke="red" stroke-linecap="round" stroke-linejoin="round" stroke-opacity="1" stroke-width="1" /></svg>