<svg version="1.1" xmlns="http://www.w3.org/2000/svg" xmlns:xlink="http://www.w3.org/1999/xlink" width="600" height="600" viewBox="0 0 600 600"><defs/><g transform="scale(1,1)"><g transform="scale(1,1)"><rect fill="rgb(0,0,0)" stroke="none" x="0" y="0" width="600" height="600" fill-opacity="1"/></g><g><g transform="translate(247.84646740576915,247.84646740576915) rotate(0.7262560644259968,0,0)"><path fill="rgb(255,0,0)" stroke="none" paint-order="stroke fill markers" d=" M 0 0 L 247.84646740576915 0 L 247.84646740576915 247.84646740576915 L 0 247.84646740576915 L 0 0 Z" fill-opacity="0.5882352941176471"/></g><g transform="translate(143.34280348572642,143.34280348572642) rotate(1.2557309862990351,0,0)"><path fill="rgb(255,127,0)" stroke="none" paint-order="stroke fill markers" d=" M 0 0 L 143.34280348572642 0 L 143.34280348572642 143.34280348572642 L 0 143.34280348572642 L 0 0 Z" fill-opacity="0.5882352941176471"/></g><g transform="translate(220.03869211567834,220.03869211567834) rotate(0.8180379471869007,0,0)"><path fill="rgb(255,255,0)" stroke="none" paint-order="stroke fill markers" d=" M 0 0 L 220.03869211567834 0 L 220.03869211567834 220.03869211567834 L 0 220.03869211567834 L 0 0 Z" fill-opacity="0.5882352941176471"/></g><g transform="translate(405.37089987151774,405.37089987151774) rotate(0.4440377936774716,0,0)"><path fill="rgb(0,255,0)" stroke="none" paint-order="stroke fill markers" d=" M 0 0 L 405.37089987151774 0 L 405.37089987151774 405.37089987151774 L 0 405.37089987151774 L 0 0 Z" fill-opacity="0.5882352941176471"/></g><g transform="translate(300.33596737380407,300.33596737380407) rotate(0.599328816904465,0,0)"><path fill="rgb(0,0,255)" stroke="none" paint-order="stroke fill markers" d=" M 0 0 L 300.33596737380407 0 L 300.33596737380407 300.33596737380407 L 0 300.33596737380407 L 0 0 Z" fill-opacity="0.5882352941176471"/></g><g transform="translate(370.19263921235614,370.19263921235614) rotate(0.48623333079495773,0,0)"><path fill="rgb(75,0,130)" stroke="none" paint-order="stroke fill markers" d=" M 0 0 L 370.19263921235614 0 L 370.19263921235614 370.19263921235614 L 0 370.19263921235614 L 0 0 Z" fill-opacity="0.5882352941176471"/></g><g transform="translate(377.1309621792091,377.1309621792091) rotate(0.47728778077485373,0,0)"><path fill="rgb(148,0,211)" stroke="none" paint-order="stroke fill markers" d=" M 0 0 L 377.1309621792091 0 L 377.1309621792091 377.1309621792091 L 0 377.1309621792091 L 0 0 Z" fill-opacity="0.5882352941176471"/></g><g transform="translate(59.28162101982647,59.28162101982647) rotate(3.0363542174361227,0,0)"><path fill="rgb(255,0,0)" stroke="none" paint-order="stroke fill markers" d=" M 0 0 L 59.28162101982647 0 L 59.28162101982647 59.28162101982647 L 0 59.28162101982647 L 0 0 Z" fill-opacity="0.5882352941176471"/></g><g transform="translate(308.48552955911043,308.48552955911043) rotate(0.5834957648005635,0,0)"><path fill="rgb(255,127,0)" stroke="none" paint-order="stroke fill markers" d=" M 0 0 L 308.48552955911043 0 L 308.48552955911043 308.48552955911043 L 0 308.48552955911043 L 0 0 Z" fill-opacity="0.5882352941176471"/></g><g transform="translate(356.9165782024139,356.9165782024139) rotate(0.5043195272871822,0,0)"><path fill="rgb(255,255,0)" stroke="none" paint-order="stroke fill markers" d=" M 0 0 L 356.9165782024139 0 L 356.9165782024139 356.9165782024139 L 0 356.9165782024139 L 0 0 Z" fill-opacity="0.5882352941176471"/></g><g transform="translate(177.6080058549931,177.6080058549931) rotate(1.0134678283982301,0,0)"><path fill="rgb(0,255,0)" stroke="none" paint-order="stroke fill markers" d=" M 0 0 L 177.6080058549931 0 L 177.6080058549931 177.6080058549931 L 0 177.6080058549931 L 0 0 Z" fill-opacity="0.5882352941176471"/></g><g transform="translate(223.34296676312795,223.34296676312795) rotate(0.8059353854240844,0,0)"><path fill="rgb(0,0,255)" stroke="none" paint-order="stroke fill markers" d=" M 0 0 L 223.34296676312795 0 L 223.34296676312795 223.34296676312795 L 0 223.34296676312795 L 0 0 Z" fill-opacity="0.5882352941176471"/></g><g transform="translate(376.23707101073614,376.23707101073614) rotate(0.4784217555076161,0,0)"><path fill="rgb(75,0,130)" stroke="none" paint-order="stroke fill markers" d=" M 0 0 L 376.23707101073614 0 L 376.23707101073614 376.23707101073614 L 0 376.23707101073614 L 0 0 Z" fill-opacity="0.5882352941176471"/></g><g transform="translate(231.29152071458134,231.29152071458134) rotate(0.7782386463796216,0,0)"><path fill="rgb(148,0,211)" stroke="none" paint-order="stroke fill markers" d=" M 0 0 L 231.29152071458134 0 L 231.29152071458134 231.29152071458134 L 0 231.29152071458134 L 0 0 Z" fill-opacity="0.5882352941176471"/></g><g transform="translate(130.99120780743934,130.99120780743934) rotate(1.374138028138537,0,0)"><path fill="rgb(255,0,0)" stroke="none" paint-order="stroke fill markers" d=" M 0 0 L 130.99120780743934 0 L 130.99120780743934 130.99120780743934 L 0 130.99120780743934 L 0 0 Z" fill-opacity="0.5882352941176471"/></g><g transform="translate(99.10047670422215,99.10047670422215) rotate(1.8163383869205059,0,0)"><path fill="rgb(255,127,0)" stroke="none" paint-order="stroke fill markers" d=" M 0 0 L 99.10047670422215 0 L 99.10047670422215 99.10047670422215 L 0 99.10047670422215 L 0 0 Z" fill-opacity="0.5882352941176471"/></g><g transform="translate(324.79000885050147,324.79000885050147) rotate(0.5542042399550927,0,0)"><path fill="rgb(255,255,0)" stroke="none" paint-order="stroke fill markers" d=" M 0 0 L 324.79000885050147 0 L 324.79000885050147 324.79000885050147 L 0 324.79000885050147 L 0 0 Z" fill-opacity="0.5882352941176471"/></g><g transform="translate(247.8339676248798,247.8339676248798) rotate(0.7262926939556852,0,0)"><path fill="rgb(0,255,0)" stroke="none" paint-order="stroke fill markers" d=" M 0 0 L 247.8339676248798 0 L 247.8339676248798 247.8339676248798 L 0 247.8339676248798 L 0 0 Z" fill-opacity="0.5882352941176471"/></g><g transform="translate(324.7561353566685,324.7561353566685) rotate(0.5542620458957987,0,0)"><path fill="rgb(0,0,255)" stroke="none" paint-order="stroke fill markers" d=" M 0 0 L 324.7561353566685 0 L 324.7561353566685 324.7561353566685 L 0 324.7561353566685 L 0 0 Z" fill-opacity="0.5882352941176471"/></g><g transform="translate(246.53213036475955,246.53213036475955) rotate(0.7301279542495286,0,0)"><path fill="rgb(75,0,130)" stroke="none" paint-order="stroke fill markers" d=" M 0 0 L 246.53213036475955 0 L 246.53213036475955 246.53213036475955 L 0 246.53213036475955 L 0 0 Z" fill-opacity="0.5882352941176471"/></g><g transform="translate(333.31837739245833,333.31837739245833) rotate(0.5400242297113519,0,0)"><path fill="rgb(148,0,211)" stroke="none" paint-order="stroke fill markers" d=" M 0 0 L 333.31837739245833 0 L 333.31837739245833 333.31837739245833 L 0 333.31837739245833 L 0 0 Z" fill-opacity="0.5882352941176471"/></g><g transform="translate(141.72163857907944,141.72163857907944) rotate(1.2700953912522086,0,0)"><path fill="rgb(255,0,0)" stroke="none" paint-order="stroke fill markers" d=" M 0 0 L 141.72163857907944 0 L 141.72163857907944 141.72163857907944 L 0 141.72163857907944 L 0 0 Z" fill-opacity="0.5882352941176471"/></g><g transform="translate(318.6846625006815,318.6846625006815) rotate(0.564821659717041,0,0)"><path fill="rgb(255,127,0)" stroke="none" paint-order="stroke fill markers" d=" M 0 0 L 318.6846625006815 0 L 318.6846625006815 318.6846625006815 L 0 318.6846625006815 L 0 0 Z" fill-opacity="0.5882352941176471"/></g><g transform="translate(128.07842190873401,128.07842190873401) rotate(1.405388958713625,0,0)"><path fill="rgb(255,255,0)" stroke="none" paint-order="stroke fill markers" d=" M 0 0 L 128.07842190873401 0 L 128.07842190873401 128.07842190873401 L 0 128.07842190873401 L 0 0 Z" fill-opacity="0.5882352941176471"/></g><g transform="translate(217.57655146742908,217.57655146742908) rotate(0.8272950315004223,0,0)"><path fill="rgb(0,255,0)" stroke="none" paint-order="stroke fill markers" d=" M 0 0 L 217.57655146742908 0 L 217.57655146742908 217.57655146742908 L 0 217.57655146742908 L 0 0 Z" fill-opacity="0.5882352941176471"/></g><g transform="translate(190.19836088477746,190.19836088477746) rotate(0.9463803955126845,0,0)"><path fill="rgb(0,0,255)" stroke="none" paint-order="stroke fill markers" d=" M 0 0 L 190.19836088477746 0 L 190.19836088477746 190.19836088477746 L 0 190.19836088477746 L 0 0 Z" fill-opacity="0.5882352941176471"/></g><g transform="translate(138.60795707368092,138.60795707368092) rotate(1.298626744093169,0,0)"><path fill="rgb(75,0,130)" stroke="none" paint-order="stroke fill markers" d=" M 0 0 L 138.60795707368092 0 L 138.60795707368092 138.60795707368092 L 0 138.60795707368092 L 0 0 Z" fill-opacity="0.5882352941176471"/></g><g transform="translate(166.59711166186128,166.59711166186128) rotate(1.0804509046071715,0,0)"><path fill="rgb(148,0,211)" stroke="none" paint-order="stroke fill markers" d=" M 0 0 L 166.59711166186128 0 L 166.59711166186128 166.59711166186128 L 0 166.59711166186128 L 0 0 Z" fill-opacity="0.5882352941176471"/></g><g transform="translate(264.90749941117724,264.90749941117724) rotate(0.6794824623692978,0,0)"><path fill="rgb(255,0,0)" stroke="none" paint-order="stroke fill markers" d=" M 0 0 L 264.90749941117724 0 L 264.90749941117724 264.90749941117724 L 0 264.90749941117724 L 0 0 Z" fill-opacity="0.5882352941176471"/></g><g transform="translate(265.8636856424246,265.8636856424246) rotate(0.6770386845614274,0,0)"><path fill="rgb(255,127,0)" stroke="none" paint-order="stroke fill markers" d=" M 0 0 L 265.8636856424246 0 L 265.8636856424246 265.8636856424246 L 0 265.8636856424246 L 0 0 Z" fill-opacity="0.5882352941176471"/></g><g transform="translate(107.4422634407426,107.4422634407426) rotate(1.6753183918102679,0,0)"><path fill="rgb(255,255,0)" stroke="none" paint-order="stroke fill markers" d=" M 0 0 L 107.4422634407426 0 L 107.4422634407426 107.4422634407426 L 0 107.4422634407426 L 0 0 Z" fill-opacity="0.5882352941176471"/></g><g transform="translate(233.8608674119499,233.8608674119499) rotate(0.7696884134228705,0,0)"><path fill="rgb(0,255,0)" stroke="none" paint-order="stroke fill markers" d=" M 0 0 L 233.8608674119499 0 L 233.8608674119499 233.8608674119499 L 0 233.8608674119499 L 0 0 Z" fill-opacity="0.5882352941176471"/></g><g transform="translate(281.55019658256714,281.55019658256714) rotate(0.6393176143537637,0,0)"><path fill="rgb(0,0,255)" stroke="none" paint-order="stroke fill markers" d=" M 0 0 L 281.55019658256714 0 L 281.55019658256714 281.55019658256714 L 0 281.55019658256714 L 0 0 Z" fill-opacity="0.5882352941176471"/></g><g transform="translate(222.9440092122721,222.9440092122721) rotate(0.8073776040719545,0,0)"><path fill="rgb(75,0,130)" stroke="none" paint-order="stroke fill markers" d=" M 0 0 L 222.9440092122721 0 L 222.9440092122721 222.9440092122721 L 0 222.9440092122721 L 0 0 Z" fill-opacity="0.5882352941176471"/></g><g transform="translate(245.46344836404202,245.46344836404202) rotate(0.7333067354820402,0,0)"><path fill="rgb(148,0,211)" stroke="none" paint-order="stroke fill markers" d=" M 0 0 L 245.46344836404202 0 L 245.46344836404202 245.46344836404202 L 0 245.46344836404202 L 0 0 Z" fill-opacity="0.5882352941176471"/></g><g transform="translate(187.5279279976484,187.5279279976484) rotate(0.9598570299473325,0,0)"><path fill="rgb(255,0,0)" stroke="none" paint-order="stroke fill markers" d=" M 0 0 L 187.5279279976484 0 L 187.5279279976484 187.5279279976484 L 0 187.5279279976484 L 0 0 Z" fill-opacity="0.5882352941176471"/></g><g transform="translate(294.84290666884925,294.84290666884925) rotate(0.6104945919630541,0,0)"><path fill="rgb(255,127,0)" stroke="none" paint-order="stroke fill markers" d=" M 0 0 L 294.84290666884925 0 L 294.84290666884925 294.84290666884925 L 0 294.84290666884925 L 0 0 Z" fill-opacity="0.5882352941176471"/></g><g transform="translate(271.7014990435824,271.7014990435824) rotate(0.6624917441884522,0,0)"><path fill="rgb(255,255,0)" stroke="none" paint-order="stroke fill markers" d=" M 0 0 L 271.7014990435824 0 L 271.7014990435824 271.7014990435824 L 0 271.7014990435824 L 0 0 Z" fill-opacity="0.5882352941176471"/></g><g transform="translate(276.85449756967137,276.85449756967137) rotate(0.6501610108562617,0,0)"><path fill="rgb(0,255,0)" stroke="none" paint-order="stroke fill markers" d=" M 0 0 L 276.85449756967137 0 L 276.85449756967137 276.85449756967137 L 0 276.85449756967137 L 0 0 Z" fill-opacity="0.5882352941176471"/></g><g transform="translate(74.00693193046217,74.00693193046217) rotate(2.432204596309035,0,0)"><path fill="rgb(0,0,255)" stroke="none" paint-order="stroke fill markers" d=" M 0 0 L 74.00693193046217 0 L 74.00693193046217 74.00693193046217 L 0 74.00693193046217 L 0 0 Z" fill-opacity="0.5882352941176471"/></g><g transform="translate(413.9087115348083,413.9087115348083) rotate(0.4348785009441934,0,0)"><path fill="rgb(75,0,130)" stroke="none" paint-order="stroke fill markers" d=" M 0 0 L 413.9087115348083 0 L 413.9087115348083 413.9087115348083 L 0 413.9087115348083 L 0 0 Z" fill-opacity="0.5882352941176471"/></g><g transform="translate(315.1037284414179,315.1037284414179) rotate(0.5712404638635193,0,0)"><path fill="rgb(148,0,211)" stroke="none" paint-order="stroke fill markers" d=" M 0 0 L 315.1037284414179 0 L 315.1037284414179 315.1037284414179 L 0 315.1037284414179 L 0 0 Z" fill-opacity="0.5882352941176471"/></g><g transform="translate(235.127798782412,235.127798782412) rotate(0.765541126706896,0,0)"><path fill="rgb(255,0,0)" stroke="none" paint-order="stroke fill markers" d=" M 0 0 L 235.127798782412 0 L 235.127798782412 235.127798782412 L 0 235.127798782412 L 0 0 Z" fill-opacity="0.5882352941176471"/></g><g transform="translate(297.7598286422864,297.7598286422864) rotate(0.6045140502019932,0,0)"><path fill="rgb(255,127,0)" stroke="none" paint-order="stroke fill markers" d=" M 0 0 L 297.7598286422864 0 L 297.7598286422864 297.7598286422864 L 0 297.7598286422864 L 0 0 Z" fill-opacity="0.5882352941176471"/></g><g transform="translate(301.67015212375827,301.67015212375827) rotate(0.5966781888522937,0,0)"><path fill="rgb(255,255,0)" stroke="none" paint-order="stroke fill markers" d=" M 0 0 L 301.67015212375827 0 L 301.67015212375827 301.67015212375827 L 0 301.67015212375827 L 0 0 Z" fill-opacity="0.5882352941176471"/></g><g transform="translate(389.3497111495993,389.3497111495993) rotate(0.4623093194766461,0,0)"><path fill="rgb(0,255,0)" stroke="none" paint-order="stroke fill markers" d=" M 0 0 L 389.3497111495993 0 L 389.3497111495993 389.3497111495993 L 0 389.3497111495993 L 0 0 Z" fill-opacity="0.5882352941176471"/></g><g transform="translate(165.3821573774961,165.3821573774961) rotate(1.0883882690509212,0,0)"><path fill="rgb(0,0,255)" stroke="none" paint-order="stroke fill markers" d=" M 0 0 L 165.3821573774961 0 L 165.3821573774961 165.3821573774961 L 0 165.3821573774961 L 0 0 Z" fill-opacity="0.5882352941176471"/></g><g transform="translate(122.8463036155074,122.8463036155074) rotate(1.4652455523885854,0,0)"><path fill="rgb(75,0,130)" stroke="none" paint-order="stroke fill markers" d=" M 0 0 L 122.8463036155074 0 L 122.8463036155074 122.8463036155074 L 0 122.8463036155074 L 0 0 Z" fill-opacity="0.5882352941176471"/></g><g transform="translate(211.0423414686826,211.0423414686826) rotate(0.852909414989176,0,0)"><path fill="rgb(148,0,211)" stroke="none" paint-order="stroke fill markers" d=" M 0 0 L 211.0423414686826 0 L 211.0423414686826 211.0423414686826 L 0 211.0423414686826 L 0 0 Z" fill-opacity="0.5882352941176471"/></g><g transform="translate(342.73692612736215,342.73692612736215) rotate(0.5251841464351332,0,0)"><path fill="rgb(255,0,0)" stroke="none" paint-order="stroke fill markers" d=" M 0 0 L 342.73692612736215 0 L 342.73692612736215 342.73692612736215 L 0 342.73692612736215 L 0 0 Z" fill-opacity="0.5882352941176471"/></g><g transform="translate(170.07833434216522,170.07833434216522) rotate(1.058335858568995,0,0)"><path fill="rgb(255,127,0)" stroke="none" paint-order="stroke fill markers" d=" M 0 0 L 170.07833434216522 0 L 170.07833434216522 170.07833434216522 L 0 170.07833434216522 L 0 0 Z" fill-opacity="0.5882352941176471"/></g><g transform="translate(213.497290976328,213.497290976328) rotate(0.8431020327089673,0,0)"><path fill="rgb(255,255,0)" stroke="none" paint-order="stroke fill markers" d=" M 0 0 L 213.497290976328 0 L 213.497290976328 213.497290976328 L 0 213.497290976328 L 0 0 Z" fill-opacity="0.5882352941176471"/></g><g transform="translate(227.48310742534665,227.48310742534665) rotate(0.7912675452574903,0,0)"><path fill="rgb(0,255,0)" stroke="none" paint-order="stroke fill markers" d=" M 0 0 L 227.48310742534665 0 L 227.48310742534665 227.48310742534665 L 0 227.48310742534665 L 0 0 Z" fill-opacity="0.5882352941176471"/></g><g transform="translate(455.1225573564254,455.1225573564254) rotate(0.3954978655541227,0,0)"><path fill="rgb(0,0,255)" stroke="none" paint-order="stroke fill markers" d=" M 0 0 L 455.1225573564254 0 L 455.1225573564254 455.1225573564254 L 0 455.1225573564254 L 0 0 Z" fill-opacity="0.5882352941176471"/></g><g transform="translate(58.703949892494435,58.703949892494435) rotate(3.0662331977598973,0,0)"><path fill="rgb(75,0,130)" stroke="none" paint-order="stroke fill markers" d=" M 0 0 L 58.703949892494435 0 L 58.703949892494435 58.703949892494435 L 0 58.703949892494435 L 0 0 Z" fill-opacity="0.5882352941176471"/></g><g transform="translate(264.3965321661425,264.3965321661425) rotate(0.6807956160593321,0,0)"><path fill="rgb(148,0,211)" stroke="none" paint-order="stroke fill markers" d=" M 0 0 L 264.3965321661425 0 L 264.3965321661425 264.3965321661425 L 0 264.3965321661425 L 0 0 Z" fill-opacity="0.5882352941176471"/></g><g transform="translate(214.41170019637661,214.41170019637661) rotate(0.8395064254196043,0,0)"><path fill="rgb(255,0,0)" stroke="none" paint-order="stroke fill markers" d=" M 0 0 L 214.41170019637661 0 L 214.41170019637661 214.41170019637661 L 0 214.41170019637661 L 0 0 Z" fill-opacity="0.5882352941176471"/></g><g transform="translate(133.05502537933899,133.05502537933899) rotate(1.3528237621000876,0,0)"><path fill="rgb(255,127,0)" stroke="none" paint-order="stroke fill markers" d=" M 0 0 L 133.05502537933899 0 L 133.05502537933899 133.05502537933899 L 0 133.05502537933899 L 0 0 Z" fill-opacity="0.5882352941176471"/></g><g transform="translate(219.11365511072987,219.11365511072987) rotate(0.8214914762342692,0,0)"><path fill="rgb(255,255,0)" stroke="none" paint-order="stroke fill markers" d=" M 0 0 L 219.11365511072987 0 L 219.11365511072987 219.11365511072987 L 0 219.11365511072987 L 0 0 Z" fill-opacity="0.5882352941176471"/></g><g transform="translate(312.8362661487404,312.8362661487404) rotate(0.5753808604607806,0,0)"><path fill="rgb(0,255,0)" stroke="none" paint-order="stroke fill markers" d=" M 0 0 L 312.8362661487404 0 L 312.8362661487404 312.8362661487404 L 0 312.8362661487404 L 0 0 Z" fill-opacity="0.5882352941176471"/></g><g transform="translate(176.43545071761977,176.43545071761977) rotate(1.0202031352989553,0,0)"><path fill="rgb(0,0,255)" stroke="none" paint-order="stroke fill markers" d=" M 0 0 L 176.43545071761977 0 L 176.43545071761977 176.43545071761977 L 0 176.43545071761977 L 0 0 Z" fill-opacity="0.5882352941176471"/></g><g transform="translate(263.323087906668,263.323087906668) rotate(0.683570899274123,0,0)"><path fill="rgb(75,0,130)" stroke="none" paint-order="stroke fill markers" d=" M 0 0 L 263.323087906668 0 L 263.323087906668 263.323087906668 L 0 263.323087906668 L 0 0 Z" fill-opacity="0.5882352941176471"/></g><g transform="translate(279.4240109776101,279.4240109776101) rotate(0.6441822926034197,0,0)"><path fill="rgb(148,0,211)" stroke="none" paint-order="stroke fill markers" d=" M 0 0 L 279.4240109776101 0 L 279.4240109776101 279.4240109776101 L 0 279.4240109776101 L 0 0 Z" fill-opacity="0.5882352941176471"/></g><g transform="translate(413.8735879906947,413.8735879906947) rotate(0.4349154070784701,0,0)"><path fill="rgb(255,0,0)" stroke="none" paint-order="stroke fill markers" d=" M 0 0 L 413.8735879906947 0 L 413.8735879906947 413.8735879906947 L 0 413.8735879906947 L 0 0 Z" fill-opacity="0.5882352941176471"/></g><g transform="translate(392.64779332340566,392.64779332340566) rotate(0.45842610874357415,0,0)"><path fill="rgb(255,127,0)" stroke="none" paint-order="stroke fill markers" d=" M 0 0 L 392.64779332340566 0 L 392.64779332340566 392.64779332340566 L 0 392.64779332340566 L 0 0 Z" fill-opacity="0.5882352941176471"/></g><g transform="translate(210.09841684776373,210.09841684776373) rotate(0.8567413438932626,0,0)"><path fill="rgb(255,255,0)" stroke="none" paint-order="stroke fill markers" d=" M 0 0 L 210.09841684776373 0 L 210.09841684776373 210.09841684776373 L 0 210.09841684776373 L 0 0 Z" fill-opacity="0.5882352941176471"/></g><g transform="translate(235.60242678262068,235.60242678262068) rotate(0.7639989216498079,0,0)"><path fill="rgb(0,255,0)" stroke="none" paint-order="stroke fill markers" d=" M 0 0 L 235.60242678262068 0 L 235.60242678262068 235.60242678262068 L 0 235.60242678262068 L 0 0 Z" fill-opacity="0.5882352941176471"/></g><g transform="translate(489.1061185912118,489.1061185912118) rotate(0.3680182953312051,0,0)"><path fill="rgb(0,0,255)" stroke="none" paint-order="stroke fill markers" d=" M 0 0 L 489.1061185912118 0 L 489.1061185912118 489.1061185912118 L 0 489.1061185912118 L 0 0 Z" fill-opacity="0.5882352941176471"/></g><g transform="translate(341.1689363317086,341.1689363317086) rotate(0.5275978579274616,0,0)"><path fill="rgb(75,0,130)" stroke="none" paint-order="stroke fill markers" d=" M 0 0 L 341.1689363317086 0 L 341.1689363317086 341.1689363317086 L 0 341.1689363317086 L 0 0 Z" fill-opacity="0.5882352941176471"/></g><g transform="translate(135.37475955476148,135.37475955476148) rotate(1.3296422508302725,0,0)"><path fill="rgb(148,0,211)" stroke="none" paint-order="stroke fill markers" d=" M 0 0 L 135.37475955476148 0 L 135.37475955476148 135.37475955476148 L 0 135.37475955476148 L 0 0 Z" fill-opacity="0.5882352941176471"/></g><g transform="translate(250.88814445892228,250.88814445892228) rotate(0.7174511987730503,0,0)"><path fill="rgb(255,0,0)" stroke="none" paint-order="stroke fill markers" d=" M 0 0 L 250.88814445892228 0 L 250.88814445892228 250.88814445892228 L 0 250.88814445892228 L 0 0 Z" fill-opacity="0.5882352941176471"/></g><g transform="translate(272.41867280645243,272.41867280645243) rotate(0.6607476578078997,0,0)"><path fill="rgb(255,127,0)" stroke="none" paint-order="stroke fill markers" d=" M 0 0 L 272.41867280645243 0 L 272.41867280645243 272.41867280645243 L 0 272.41867280645243 L 0 0 Z" fill-opacity="0.5882352941176471"/></g><g transform="translate(323.3590472568831,323.3590472568831) rotate(0.5566567613523561,0,0)"><path fill="rgb(255,255,0)" stroke="none" paint-order="stroke fill markers" d=" M 0 0 L 323.3590472568831 0 L 323.3590472568831 323.3590472568831 L 0 323.3590472568831 L 0 0 Z" fill-opacity="0.5882352941176471"/></g><g transform="translate(329.4070176728667,329.4070176728667) rotate(0.5464364459252582,0,0)"><path fill="rgb(0,255,0)" stroke="none" paint-order="stroke fill markers" d=" M 0 0 L 329.4070176728667 0 L 329.4070176728667 329.4070176728667 L 0 329.4070176728667 L 0 0 Z" fill-opacity="0.5882352941176471"/></g><g transform="translate(459.54768952092394,459.54768952092394) rotate(0.3916894896972479,0,0)"><path fill="rgb(0,0,255)" stroke="none" paint-order="stroke fill markers" d=" M 0 0 L 459.54768952092394 0 L 459.54768952092394 459.54768952092394 L 0 459.54768952092394 L 0 0 Z" fill-opacity="0.5882352941176471"/></g><g transform="translate(209.23802035284535,209.23802035284535) rotate(0.8602643042428891,0,0)"><path fill="rgb(75,0,130)" stroke="none" paint-order="stroke fill markers" d=" M 0 0 L 209.23802035284535 0 L 209.23802035284535 209.23802035284535 L 0 209.23802035284535 L 0 0 Z" fill-opacity="0.5882352941176471"/></g><g transform="translate(138.65502070144265,138.65502070144265) rotate(1.2981859516474556,0,0)"><path fill="rgb(148,0,211)" stroke="none" paint-order="stroke fill markers" d=" M 0 0 L 138.65502070144265 0 L 138.65502070144265 138.65502070144265 L 0 138.65502070144265 L 0 0 Z" fill-opacity="0.5882352941176471"/></g><g transform="translate(409.19420530199835,409.19420530199835) rotate(0.4398889272323744,0,0)"><path fill="rgb(255,0,0)" stroke="none" paint-order="stroke fill markers" d=" M 0 0 L 409.19420530199835 0 L 409.19420530199835 409.19420530199835 L 0 409.19420530199835 L 0 0 Z" fill-opacity="0.5882352941176471"/></g><g transform="translate(132.11926925558504,132.11926925558504) rotate(1.362405355510933,0,0)"><path fill="rgb(255,127,0)" stroke="none" paint-order="stroke fill markers" d=" M 0 0 L 132.11926925558504 0 L 132.11926925558504 132.11926925558504 L 0 132.11926925558504 L 0 0 Z" fill-opacity="0.5882352941176471"/></g><g transform="translate(409.38482515199,409.38482515199) rotate(0.4396841039068129,0,0)"><path fill="rgb(255,255,0)" stroke="none" paint-order="stroke fill markers" d=" M 0 0 L 409.38482515199 0 L 409.38482515199 409.38482515199 L 0 409.38482515199 L 0 0 Z" fill-opacity="0.5882352941176471"/></g><g transform="translate(392.85884115661054,392.85884115661054) rotate(0.45817983749599317,0,0)"><path fill="rgb(0,255,0)" stroke="none" paint-order="stroke fill markers" d=" M 0 0 L 392.85884115661054 0 L 392.85884115661054 392.85884115661054 L 0 392.85884115661054 L 0 0 Z" fill-opacity="0.5882352941176471"/></g><g transform="translate(326.38961042012795,326.38961042012795) rotate(0.5514881425554705,0,0)"><path fill="rgb(0,0,255)" stroke="none" paint-order="stroke fill markers" d=" M 0 0 L 326.38961042012795 0 L 326.38961042012795 326.38961042012795 L 0 326.38961042012795 L 0 0 Z" fill-opacity="0.5882352941176471"/></g><g transform="translate(310.65962766865493,310.65962766865493) rotate(0.57941226979125,0,0)"><path fill="rgb(75,0,130)" stroke="none" paint-order="stroke fill markers" d=" M 0 0 L 310.65962766865493 0 L 310.65962766865493 310.65962766865493 L 0 310.65962766865493 L 0 0 Z" fill-opacity="0.5882352941176471"/></g><g transform="translate(325.1450385032714,325.1450385032714) rotate(0.553599097893628,0,0)"><path fill="rgb(148,0,211)" stroke="none" paint-order="stroke fill markers" d=" M 0 0 L 325.1450385032714 0 L 325.1450385032714 325.1450385032714 L 0 325.1450385032714 L 0 0 Z" fill-opacity="0.5882352941176471"/></g><g transform="translate(200.56994978743413,200.56994978743413) rotate(0.8974425141491317,0,0)"><path fill="rgb(255,0,0)" stroke="none" paint-order="stroke fill markers" d=" M 0 0 L 200.56994978743413 0 L 200.56994978743413 200.56994978743413 L 0 200.56994978743413 L 0 0 Z" fill-opacity="0.5882352941176471"/></g><g transform="translate(468.9015056916963,468.9015056916963) rotate(0.3838759266393791,0,0)"><path fill="rgb(255,127,0)" stroke="none" paint-order="stroke fill markers" d=" M 0 0 L 468.9015056916963 0 L 468.9015056916963 468.9015056916963 L 0 468.9015056916963 L 0 0 Z" fill-opacity="0.5882352941176471"/></g><g transform="translate(345.3988903157958,345.3988903157958) rotate(0.5211365903214896,0,0)"><path fill="rgb(255,255,0)" stroke="none" paint-order="stroke fill markers" d=" M 0 0 L 345.3988903157958 0 L 345.3988903157958 345.3988903157958 L 0 345.3988903157958 L 0 0 Z" fill-opacity="0.5882352941176471"/></g><g transform="translate(230.11775220751971,230.11775220751971) rotate(0.7822082315391138,0,0)"><path fill="rgb(0,255,0)" stroke="none" paint-order="stroke fill markers" d=" M 0 0 L 230.11775220751971 0 L 230.11775220751971 230.11775220751971 L 0 230.11775220751971 L 0 0 Z" fill-opacity="0.5882352941176471"/></g><g transform="translate(347.97840472800686,347.97840472800686) rotate(0.5172734789122756,0,0)"><path fill="rgb(0,0,255)" stroke="none" paint-order="stroke fill markers" d=" M 0 0 L 347.97840472800686 0 L 347.97840472800686 347.97840472800686 L 0 347.97840472800686 L 0 0 Z" fill-opacity="0.5882352941176471"/></g><g transform="translate(97.32737929456744,97.32737929456744) rotate(1.8494282010329146,0,0)"><path fill="rgb(75,0,130)" stroke="none" paint-order="stroke fill markers" d=" M 0 0 L 97.32737929456744 0 L 97.32737929456744 97.32737929456744 L 0 97.32737929456744 L 0 0 Z" fill-opacity="0.5882352941176471"/></g><g transform="translate(334.4385647285094,334.4385647285094) rotate(0.5382154421877765,0,0)"><path fill="rgb(148,0,211)" stroke="none" paint-order="stroke fill markers" d=" M 0 0 L 334.4385647285094 0 L 334.4385647285094 334.4385647285094 L 0 334.4385647285094 L 0 0 Z" fill-opacity="0.5882352941176471"/></g><g transform="translate(349.97457913101726,349.97457913101726) rotate(0.5143230701125147,0,0)"><path fill="rgb(255,0,0)" stroke="none" paint-order="stroke fill markers" d=" M 0 0 L 349.97457913101726 0 L 349.97457913101726 349.97457913101726 L 0 349.97457913101726 L 0 0 Z" fill-opacity="0.5882352941176471"/></g><g transform="translate(231.86888313061613,231.86888313061613) rotate(0.7763008022883459,0,0)"><path fill="rgb(255,127,0)" stroke="none" paint-order="stroke fill markers" d=" M 0 0 L 231.86888313061613 0 L 231.86888313061613 231.86888313061613 L 0 231.86888313061613 L 0 0 Z" fill-opacity="0.5882352941176471"/></g><g transform="translate(155.35202466324827,155.35202466324827) rotate(1.1586588613195121,0,0)"><path fill="rgb(255,255,0)" stroke="none" paint-order="stroke fill markers" d=" M 0 0 L 155.35202466324827 0 L 155.35202466324827 155.35202466324827 L 0 155.35202466324827 L 0 0 Z" fill-opacity="0.5882352941176471"/></g><g transform="translate(212.27325498788622,212.27325498788622) rotate(0.8479636306998357,0,0)"><path fill="rgb(0,255,0)" stroke="none" paint-order="stroke fill markers" d=" M 0 0 L 212.27325498788622 0 L 212.27325498788622 212.27325498788622 L 0 212.27325498788622 L 0 0 Z" fill-opacity="0.5882352941176471"/></g><g transform="translate(101.33754113108566,101.33754113108566) rotate(1.7762420322312749,0,0)"><path fill="rgb(0,0,255)" stroke="none" paint-order="stroke fill markers" d=" M 0 0 L 101.33754113108566 0 L 101.33754113108566 101.33754113108566 L 0 101.33754113108566 L 0 0 Z" fill-opacity="0.5882352941176471"/></g><g transform="translate(158.98868610290103,158.98868610290103) rotate(1.1321560320556394,0,0)"><path fill="rgb(75,0,130)" stroke="none" paint-order="stroke fill markers" d=" M 0 0 L 158.98868610290103 0 L 158.98868610290103 158.98868610290103 L 0 158.98868610290103 L 0 0 Z" fill-opacity="0.5882352941176471"/></g><g transform="translate(110.82081907113277,110.82081907113277) rotate(1.6242435447482395,0,0)"><path fill="rgb(148,0,211)" stroke="none" paint-order="stroke fill markers" d=" M 0 0 L 110.82081907113277 0 L 110.82081907113277 110.82081907113277 L 0 110.82081907113277 L 0 0 Z" fill-opacity="0.5882352941176471"/></g><g transform="translate(246.40536418177896,246.40536418177896) rotate(0.730503577297164,0,0)"><path fill="rgb(255,0,0)" stroke="none" paint-order="stroke fill markers" d=" M 0 0 L 246.40536418177896 0 L 246.40536418177896 246.40536418177896 L 0 246.40536418177896 L 0 0 Z" fill-opacity="0.5882352941176471"/></g><g transform="translate(255.19428024849628,255.19428024849628) rotate(0.7053449623742523,0,0)"><path fill="rgb(255,127,0)" stroke="none" paint-order="stroke fill markers" d=" M 0 0 L 255.19428024849628 0 L 255.19428024849628 255.19428024849628 L 0 255.19428024849628 L 0 0 Z" fill-opacity="0.5882352941176471"/></g></g></g></svg>