<svg version="1.1" xmlns="http://www.w3.org/2000/svg" xmlns:xlink="http://www.w3.org/1999/xlink" width="600" height="600" viewBox="0 0 600 600"><defs/><g transform="scale(1,1)"><g transform="scale(1,1)"><rect fill="rgb(0,0,0)" stroke="none" x="0" y="0" width="600" height="600" fill-opacity="1"/></g><g><g transform="translate(0,300)"><path fill="rgb(255,0,0)" stroke="none" paint-order="stroke fill markers" d=" M 0 0 L 343.74105828433255 0 L 343.74105828433255 343.74105828433255 L 0 343.74105828433255 L 0 0 Z" fill-opacity="0.5882352941176471"/></g><g transform="translate(6,0)"><g transform="translate(0,296.27173300400625)"><path fill="rgb(255,127,0)" stroke="none" paint-order="stroke fill markers" d=" M 0 0 L 340.0127912883388 0 L 340.0127912883388 340.0127912883388 L 0 340.0127912883388 L 0 0 Z" fill-opacity="0.5882352941176471"/></g><g transform="translate(6,0)"><g transform="translate(0,286.3070460953763)"><path fill="rgb(255,255,0)" stroke="none" paint-order="stroke fill markers" d=" M 0 0 L 330.04810437970883 0 L 330.04810437970883 330.04810437970883 L 0 330.04810437970883 L 0 0 Z" fill-opacity="0.5882352941176471"/></g><g transform="translate(6,0)"><g transform="translate(0,273.1723047016803)"><path fill="rgb(0,255,0)" stroke="none" paint-order="stroke fill markers" d=" M 0 0 L 316.9133629860128 0 L 316.9133629860128 316.9133629860128 L 0 316.9133629860128 L 0 0 Z" fill-opacity="0.5882352941176471"/></g><g transform="translate(6,0)"><g transform="translate(0,260.31182219586435)"><path fill="rgb(0,0,255)" stroke="none" paint-order="stroke fill markers" d=" M 0 0 L 304.0528804801969 0 L 304.0528804801969 304.0528804801969 L 0 304.0528804801969 L 0 0 Z" fill-opacity="0.5882352941176471"/></g><g transform="translate(6,0)"><g transform="translate(0,250.85757477808642)"><path fill="rgb(75,0,130)" stroke="none" paint-order="stroke fill markers" d=" M 0 0 L 294.59863306241897 0 L 294.59863306241897 294.59863306241897 L 0 294.59863306241897 L 0 0 Z" fill-opacity="0.5882352941176471"/></g><g transform="translate(6,0)"><g transform="translate(0,246.1155267765311)"><path fill="rgb(148,0,211)" stroke="none" paint-order="stroke fill markers" d=" M 0 0 L 289.85658506086367 0 L 289.85658506086367 289.85658506086367 L 0 289.85658506086367 L 0 0 Z" fill-opacity="0.5882352941176471"/></g><g transform="translate(6,0)"><g transform="translate(0,242.9960288729941)"><path fill="rgb(255,0,0)" stroke="none" paint-order="stroke fill markers" d=" M 0 0 L 286.73708715732664 0 L 286.73708715732664 286.73708715732664 L 0 286.73708715732664 L 0 0 Z" fill-opacity="0.5882352941176471"/></g><g transform="translate(6,0)"><g transform="translate(0,237.56105423374493)"><path fill="rgb(255,127,0)" stroke="none" paint-order="stroke fill markers" d=" M 0 0 L 281.3021125180775 0 L 281.3021125180775 281.3021125180775 L 0 281.3021125180775 L 0 0 Z" fill-opacity="0.5882352941176471"/></g><g transform="translate(6,0)"><g transform="translate(0,227.4689207612284)"><path fill="rgb(255,255,0)" stroke="none" paint-order="stroke fill markers" d=" M 0 0 L 271.20997904556094 0 L 271.20997904556094 271.20997904556094 L 0 271.20997904556094 L 0 0 Z" fill-opacity="0.5882352941176471"/></g><g transform="translate(6,0)"><g transform="translate(0,213.56314865450832)"><path fill="rgb(0,255,0)" stroke="none" paint-order="stroke fill markers" d=" M 0 0 L 257.3042069388409 0 L 257.3042069388409 257.3042069388409 L 0 257.3042069388409 L 0 0 Z" fill-opacity="0.5882352941176471"/></g><g transform="translate(6,0)"><g transform="translate(0,199.949388027079)"><path fill="rgb(0,0,255)" stroke="none" paint-order="stroke fill markers" d=" M 0 0 L 243.69044631141156 0 L 243.69044631141156 243.69044631141156 L 0 243.69044631141156 L 0 0 Z" fill-opacity="0.5882352941176471"/></g><g transform="translate(6,0)"><g transform="translate(0,191.65991376791544)"><path fill="rgb(75,0,130)" stroke="none" paint-order="stroke fill markers" d=" M 0 0 L 235.400972052248 0 L 235.400972052248 235.400972052248 L 0 235.400972052248 L 0 0 Z" fill-opacity="0.5882352941176471"/></g><g transform="translate(6,0)"><g transform="translate(0,191.6433794456794)"><path fill="rgb(148,0,211)" stroke="none" paint-order="stroke fill markers" d=" M 0 0 L 235.38443773001194 0 L 235.38443773001194 235.38443773001194 L 0 235.38443773001194 L 0 0 Z" fill-opacity="0.5882352941176471"/></g><g transform="translate(6,0)"><g transform="translate(0,198.72504294141058)"><path fill="rgb(255,0,0)" stroke="none" paint-order="stroke fill markers" d=" M 0 0 L 242.46610122574313 0 L 242.46610122574313 242.46610122574313 L 0 242.46610122574313 L 0 0 Z" fill-opacity="0.5882352941176471"/></g><g transform="translate(6,0)"><g transform="translate(0,208.04077317219247)"><path fill="rgb(255,127,0)" stroke="none" paint-order="stroke fill markers" d=" M 0 0 L 251.78183145652503 0 L 251.78183145652503 251.78183145652503 L 0 251.78183145652503 L 0 0 Z" fill-opacity="0.5882352941176471"/></g><g transform="translate(6,0)"><g transform="translate(0,213.20836461227515)"><path fill="rgb(255,255,0)" stroke="none" paint-order="stroke fill markers" d=" M 0 0 L 256.9494228966077 0 L 256.9494228966077 256.9494228966077 L 0 256.9494228966077 L 0 0 Z" fill-opacity="0.5882352941176471"/></g><g transform="translate(6,0)"><g transform="translate(0,209.8794312204417)"><path fill="rgb(0,255,0)" stroke="none" paint-order="stroke fill markers" d=" M 0 0 L 253.62048950477424 0 L 253.62048950477424 253.62048950477424 L 0 253.62048950477424 L 0 0 Z" fill-opacity="0.5882352941176471"/></g><g transform="translate(6,0)"><g transform="translate(0,202.20791218904665)"><path fill="rgb(0,0,255)" stroke="none" paint-order="stroke fill markers" d=" M 0 0 L 245.9489704733792 0 L 245.9489704733792 245.9489704733792 L 0 245.9489704733792 L 0 0 Z" fill-opacity="0.5882352941176471"/></g><g transform="translate(6,0)"><g transform="translate(0,192.46685038473612)"><path fill="rgb(75,0,130)" stroke="none" paint-order="stroke fill markers" d=" M 0 0 L 236.20790866906867 0 L 236.20790866906867 236.20790866906867 L 0 236.20790866906867 L 0 0 Z" fill-opacity="0.5882352941176471"/></g><g transform="translate(6,0)"><g transform="translate(0,181.8555942185674)"><path fill="rgb(148,0,211)" stroke="none" paint-order="stroke fill markers" d=" M 0 0 L 225.59665250289996 0 L 225.59665250289996 225.59665250289996 L 0 225.59665250289996 L 0 0 Z" fill-opacity="0.5882352941176471"/></g><g transform="translate(6,0)"><g transform="translate(0,171.8338626569906)"><path fill="rgb(255,0,0)" stroke="none" paint-order="stroke fill markers" d=" M 0 0 L 215.57492094132314 0 L 215.57492094132314 215.57492094132314 L 0 215.57492094132314 L 0 0 Z" fill-opacity="0.5882352941176471"/></g><g transform="translate(6,0)"><g transform="translate(0,163.60376239427205)"><path fill="rgb(255,127,0)" stroke="none" paint-order="stroke fill markers" d=" M 0 0 L 207.3448206786046 0 L 207.3448206786046 207.3448206786046 L 0 207.3448206786046 L 0 0 Z" fill-opacity="0.5882352941176471"/></g><g transform="translate(6,0)"><g transform="translate(0,158.28073628809224)"><path fill="rgb(255,255,0)" stroke="none" paint-order="stroke fill markers" d=" M 0 0 L 202.0217945724248 0 L 202.0217945724248 202.0217945724248 L 0 202.0217945724248 L 0 0 Z" fill-opacity="0.5882352941176471"/></g><g transform="translate(6,0)"><g transform="translate(0,156.79814995924644)"><path fill="rgb(0,255,0)" stroke="none" paint-order="stroke fill markers" d=" M 0 0 L 200.539208243579 0 L 200.539208243579 200.539208243579 L 0 200.539208243579 L 0 0 Z" fill-opacity="0.5882352941176471"/></g><g transform="translate(6,0)"><g transform="translate(0,159.65431363592165)"><path fill="rgb(0,0,255)" stroke="none" paint-order="stroke fill markers" d=" M 0 0 L 203.3953719202542 0 L 203.3953719202542 203.3953719202542 L 0 203.3953719202542 L 0 0 Z" fill-opacity="0.5882352941176471"/></g><g transform="translate(6,0)"><g transform="translate(0,163.86976428708408)"><path fill="rgb(75,0,130)" stroke="none" paint-order="stroke fill markers" d=" M 0 0 L 207.61082257141663 0 L 207.61082257141663 207.61082257141663 L 0 207.61082257141663 L 0 0 Z" fill-opacity="0.5882352941176471"/></g><g transform="translate(6,0)"><g transform="translate(0,167.52424252506196)"><path fill="rgb(148,0,211)" stroke="none" paint-order="stroke fill markers" d=" M 0 0 L 211.26530080939452 0 L 211.26530080939452 211.26530080939452 L 0 211.26530080939452 L 0 0 Z" fill-opacity="0.5882352941176471"/></g><g transform="translate(6,0)"><g transform="translate(0,173.49262880247943)"><path fill="rgb(255,0,0)" stroke="none" paint-order="stroke fill markers" d=" M 0 0 L 217.23368708681198 0 L 217.23368708681198 217.23368708681198 L 0 217.23368708681198 L 0 0 Z" fill-opacity="0.5882352941176471"/></g><g transform="translate(6,0)"><g transform="translate(0,184.46495810045096)"><path fill="rgb(255,127,0)" stroke="none" paint-order="stroke fill markers" d=" M 0 0 L 228.2060163847835 0 L 228.2060163847835 228.2060163847835 L 0 228.2060163847835 L 0 0 Z" fill-opacity="0.5882352941176471"/></g><g transform="translate(6,0)"><g transform="translate(0,200.87172907528642)"><path fill="rgb(255,255,0)" stroke="none" paint-order="stroke fill markers" d=" M 0 0 L 244.61278735961898 0 L 244.61278735961898 244.61278735961898 L 0 244.61278735961898 L 0 0 Z" fill-opacity="0.5882352941176471"/></g><g transform="translate(6,0)"><g transform="translate(0,219.96149735326242)"><path fill="rgb(0,255,0)" stroke="none" paint-order="stroke fill markers" d=" M 0 0 L 263.70255563759497 0 L 263.70255563759497 263.70255563759497 L 0 263.70255563759497 L 0 0 Z" fill-opacity="0.5882352941176471"/></g><g transform="translate(6,0)"><g transform="translate(0,236.6239200202029)"><path fill="rgb(0,0,255)" stroke="none" paint-order="stroke fill markers" d=" M 0 0 L 280.36497830453544 0 L 280.36497830453544 280.36497830453544 L 0 280.36497830453544 L 0 0 Z" fill-opacity="0.5882352941176471"/></g><g transform="translate(6,0)"><g transform="translate(0,245.5527229789637)"><path fill="rgb(75,0,130)" stroke="none" paint-order="stroke fill markers" d=" M 0 0 L 289.29378126329624 0 L 289.29378126329624 289.29378126329624 L 0 289.29378126329624 L 0 0 Z" fill-opacity="0.5882352941176471"/></g><g transform="translate(6,0)"><g transform="translate(0,245.5209527998545)"><path fill="rgb(148,0,211)" stroke="none" paint-order="stroke fill markers" d=" M 0 0 L 289.26201108418707 0 L 289.26201108418707 289.26201108418707 L 0 289.26201108418707 L 0 0 Z" fill-opacity="0.5882352941176471"/></g><g transform="translate(6,0)"><g transform="translate(0,242.31111960184847)"><path fill="rgb(255,0,0)" stroke="none" paint-order="stroke fill markers" d=" M 0 0 L 286.052177886181 0 L 286.052177886181 286.052177886181 L 0 286.052177886181 L 0 0 Z" fill-opacity="0.5882352941176471"/></g><g transform="translate(6,0)"><g transform="translate(0,237.3539858947774)"><path fill="rgb(255,127,0)" stroke="none" paint-order="stroke fill markers" d=" M 0 0 L 281.09504417910995 0 L 281.09504417910995 281.09504417910995 L 0 281.09504417910995 L 0 0 Z" fill-opacity="0.5882352941176471"/></g><g transform="translate(6,0)"><g transform="translate(0,231.95788050180266)"><path fill="rgb(255,255,0)" stroke="none" paint-order="stroke fill markers" d=" M 0 0 L 275.6989387861352 0 L 275.6989387861352 275.6989387861352 L 0 275.6989387861352 L 0 0 Z" fill-opacity="0.5882352941176471"/></g><g transform="translate(6,0)"><g transform="translate(0,226.8381897477061)"><path fill="rgb(0,255,0)" stroke="none" paint-order="stroke fill markers" d=" M 0 0 L 270.57924803203866 0 L 270.57924803203866 270.57924803203866 L 0 270.57924803203866 L 0 0 Z" fill-opacity="0.5882352941176471"/></g><g transform="translate(6,0)"><g transform="translate(0,220.68525991617457)"><path fill="rgb(0,0,255)" stroke="none" paint-order="stroke fill markers" d=" M 0 0 L 264.4263182005071 0 L 264.4263182005071 264.4263182005071 L 0 264.4263182005071 L 0 0 Z" fill-opacity="0.5882352941176471"/></g><g transform="translate(6,0)"><g transform="translate(0,213.9978819095918)"><path fill="rgb(75,0,130)" stroke="none" paint-order="stroke fill markers" d=" M 0 0 L 257.73894019392435 0 L 257.73894019392435 257.73894019392435 L 0 257.73894019392435 L 0 0 Z" fill-opacity="0.5882352941176471"/></g><g transform="translate(6,0)"><g transform="translate(0,207.81271754066353)"><path fill="rgb(148,0,211)" stroke="none" paint-order="stroke fill markers" d=" M 0 0 L 251.55377582499608 0 L 251.55377582499608 251.55377582499608 L 0 251.55377582499608 L 0 0 Z" fill-opacity="0.5882352941176471"/></g><g transform="translate(6,0)"><g transform="translate(0,202.81864252572228)"><path fill="rgb(255,0,0)" stroke="none" paint-order="stroke fill markers" d=" M 0 0 L 246.55970081005484 0 L 246.55970081005484 246.55970081005484 L 0 246.55970081005484 L 0 0 Z" fill-opacity="0.5882352941176471"/></g><g transform="translate(6,0)"><g transform="translate(0,197.22018687318314)"><path fill="rgb(255,127,0)" stroke="none" paint-order="stroke fill markers" d=" M 0 0 L 240.9612451575157 0 L 240.9612451575157 240.9612451575157 L 0 240.9612451575157 L 0 0 Z" fill-opacity="0.5882352941176471"/></g><g transform="translate(6,0)"><g transform="translate(0,191.52366365787125)"><path fill="rgb(255,255,0)" stroke="none" paint-order="stroke fill markers" d=" M 0 0 L 235.2647219422038 0 L 235.2647219422038 235.2647219422038 L 0 235.2647219422038 L 0 0 Z" fill-opacity="0.5882352941176471"/></g><g transform="translate(6,0)"><g transform="translate(0,187.5695658213471)"><path fill="rgb(0,255,0)" stroke="none" paint-order="stroke fill markers" d=" M 0 0 L 231.31062410567966 0 L 231.31062410567966 231.31062410567966 L 0 231.31062410567966 L 0 0 Z" fill-opacity="0.5882352941176471"/></g><g transform="translate(6,0)"><g transform="translate(0,186.9929268766602)"><path fill="rgb(0,0,255)" stroke="none" paint-order="stroke fill markers" d=" M 0 0 L 230.73398516099275 0 L 230.73398516099275 230.73398516099275 L 0 230.73398516099275 L 0 0 Z" fill-opacity="0.5882352941176471"/></g><g transform="translate(6,0)"><g transform="translate(0,192.57093176272824)"><path fill="rgb(75,0,130)" stroke="none" paint-order="stroke fill markers" d=" M 0 0 L 236.3119900470608 0 L 236.3119900470608 236.3119900470608 L 0 236.3119900470608 L 0 0 Z" fill-opacity="0.5882352941176471"/></g><g transform="translate(6,0)"><g transform="translate(0,203.67991339597137)"><path fill="rgb(148,0,211)" stroke="none" paint-order="stroke fill markers" d=" M 0 0 L 247.42097168030392 0 L 247.42097168030392 247.42097168030392 L 0 247.42097168030392 L 0 0 Z" fill-opacity="0.5882352941176471"/></g><g transform="translate(6,0)"><g transform="translate(0,216.45743470573547)"><path fill="rgb(255,0,0)" stroke="none" paint-order="stroke fill markers" d=" M 0 0 L 260.198492990068 0 L 260.198492990068 260.198492990068 L 0 260.198492990068 L 0 0 Z" fill-opacity="0.5882352941176471"/></g><g transform="translate(6,0)"><g transform="translate(0,227.16835910843236)"><path fill="rgb(255,127,0)" stroke="none" paint-order="stroke fill markers" d=" M 0 0 L 270.9094173927649 0 L 270.9094173927649 270.9094173927649 L 0 270.9094173927649 L 0 0 Z" fill-opacity="0.5882352941176471"/></g><g transform="translate(6,0)"><g transform="translate(0,235.92318931736378)"><path fill="rgb(255,255,0)" stroke="none" paint-order="stroke fill markers" d=" M 0 0 L 279.66424760169633 0 L 279.66424760169633 279.66424760169633 L 0 279.66424760169633 L 0 0 Z" fill-opacity="0.5882352941176471"/></g><g transform="translate(6,0)"><g transform="translate(0,244.28989879305192)"><path fill="rgb(0,255,0)" stroke="none" paint-order="stroke fill markers" d=" M 0 0 L 288.03095707738447 0 L 288.03095707738447 288.03095707738447 L 0 288.03095707738447 L 0 0 Z" fill-opacity="0.5882352941176471"/></g><g transform="translate(6,0)"><g transform="translate(0,252.16709813657047)"><path fill="rgb(0,0,255)" stroke="none" paint-order="stroke fill markers" d=" M 0 0 L 295.908156420903 0 L 295.908156420903 295.908156420903 L 0 295.908156420903 L 0 0 Z" fill-opacity="0.5882352941176471"/></g><g transform="translate(6,0)"><g transform="translate(0,259.675770033968)"><path fill="rgb(75,0,130)" stroke="none" paint-order="stroke fill markers" d=" M 0 0 L 303.41682831830053 0 L 303.41682831830053 303.41682831830053 L 0 303.41682831830053 L 0 0 Z" fill-opacity="0.5882352941176471"/></g><g transform="translate(6,0)"><g transform="translate(0,267.1863097489528)"><path fill="rgb(148,0,211)" stroke="none" paint-order="stroke fill markers" d=" M 0 0 L 310.92736803328535 0 L 310.92736803328535 310.92736803328535 L 0 310.92736803328535 L 0 0 Z" fill-opacity="0.5882352941176471"/></g><g transform="translate(6,0)"><g transform="translate(0,275.43957488122965)"><path fill="rgb(255,0,0)" stroke="none" paint-order="stroke fill markers" d=" M 0 0 L 319.1806331655622 0 L 319.1806331655622 319.1806331655622 L 0 319.1806331655622 L 0 0 Z" fill-opacity="0.5882352941176471"/></g><g transform="translate(6,0)"><g transform="translate(0,285.81404219893733)"><path fill="rgb(255,127,0)" stroke="none" paint-order="stroke fill markers" d=" M 0 0 L 329.5551004832699 0 L 329.5551004832699 329.5551004832699 L 0 329.5551004832699 L 0 0 Z" fill-opacity="0.5882352941176471"/></g><g transform="translate(6,0)"><g transform="translate(0,299.519702774134)"><path fill="rgb(255,255,0)" stroke="none" paint-order="stroke fill markers" d=" M 0 0 L 343.2607610584665 0 L 343.2607610584665 343.2607610584665 L 0 343.2607610584665 L 0 0 Z" fill-opacity="0.5882352941176471"/></g><g transform="translate(6,0)"><g transform="translate(0,316.5239939341722)"><path fill="rgb(0,255,0)" stroke="none" paint-order="stroke fill markers" d=" M 0 0 L 360.26505221850476 0 L 360.26505221850476 360.26505221850476 L 0 360.26505221850476 L 0 0 Z" fill-opacity="0.5882352941176471"/></g><g transform="translate(6,0)"><g transform="translate(0,334.93525229452916)"><path fill="rgb(0,0,255)" stroke="none" paint-order="stroke fill markers" d=" M 0 0 L 378.6763105788617 0 L 378.6763105788617 378.6763105788617 L 0 378.6763105788617 L 0 0 Z" fill-opacity="0.5882352941176471"/></g><g transform="translate(6,0)"><g transform="translate(0,354.2427857131376)"><path fill="rgb(75,0,130)" stroke="none" paint-order="stroke fill markers" d=" M 0 0 L 397.98384399747016 0 L 397.98384399747016 397.98384399747016 L 0 397.98384399747016 L 0 0 Z" fill-opacity="0.5882352941176471"/></g><g transform="translate(6,0)"><g transform="translate(0,373.8944500253405)"><path fill="rgb(148,0,211)" stroke="none" paint-order="stroke fill markers" d=" M 0 0 L 417.63550830967307 0 L 417.63550830967307 417.63550830967307 L 0 417.63550830967307 L 0 0 Z" fill-opacity="0.5882352941176471"/></g><g transform="translate(6,0)"><g transform="translate(0,392.88498854889247)"><path fill="rgb(255,0,0)" stroke="none" paint-order="stroke fill markers" d=" M 0 0 L 436.626046833225 0 L 436.626046833225 436.626046833225 L 0 436.626046833225 L 0 0 Z" fill-opacity="0.5882352941176471"/></g><g transform="translate(6,0)"><g transform="translate(0,409.4990917881884)"><path fill="rgb(255,127,0)" stroke="none" paint-order="stroke fill markers" d=" M 0 0 L 453.240150072521 0 L 453.240150072521 453.240150072521 L 0 453.240150072521 L 0 0 Z" fill-opacity="0.5882352941176471"/></g><g transform="translate(6,0)"><g transform="translate(0,422.1318594818428)"><path fill="rgb(255,255,0)" stroke="none" paint-order="stroke fill markers" d=" M 0 0 L 465.87291776617536 0 L 465.87291776617536 465.87291776617536 L 0 465.87291776617536 L 0 0 Z" fill-opacity="0.5882352941176471"/></g><g transform="translate(6,0)"><g transform="translate(0,429.41456788923006)"><path fill="rgb(0,255,0)" stroke="none" paint-order="stroke fill markers" d=" M 0 0 L 473.1556261735626 0 L 473.1556261735626 473.1556261735626 L 0 473.1556261735626 L 0 0 Z" fill-opacity="0.5882352941176471"/></g><g transform="translate(6,0)"><g transform="translate(0,430.76506440746056)"><path fill="rgb(0,0,255)" stroke="none" paint-order="stroke fill markers" d=" M 0 0 L 474.5061226917931 0 L 474.5061226917931 474.5061226917931 L 0 474.5061226917931 L 0 0 Z" fill-opacity="0.5882352941176471"/></g><g transform="translate(6,0)"><g transform="translate(0,429.5826877249195)"><path fill="rgb(75,0,130)" stroke="none" paint-order="stroke fill markers" d=" M 0 0 L 473.32374600925203 0 L 473.32374600925203 473.32374600925203 L 0 473.32374600925203 L 0 0 Z" fill-opacity="0.5882352941176471"/></g><g transform="translate(6,0)"><g transform="translate(0,426.86733209303424)"><path fill="rgb(148,0,211)" stroke="none" paint-order="stroke fill markers" d=" M 0 0 L 470.6083903773668 0 L 470.6083903773668 470.6083903773668 L 0 470.6083903773668 L 0 0 Z" fill-opacity="0.5882352941176471"/></g><g transform="translate(6,0)"><g transform="translate(0,422.46431762930905)"><path fill="rgb(255,0,0)" stroke="none" paint-order="stroke fill markers" d=" M 0 0 L 466.2053759136416 0 L 466.2053759136416 466.2053759136416 L 0 466.2053759136416 L 0 0 Z" fill-opacity="0.5882352941176471"/></g><g transform="translate(6,0)"><g transform="translate(0,416.36240489386773)"><path fill="rgb(255,127,0)" stroke="none" paint-order="stroke fill markers" d=" M 0 0 L 460.1034631782003 0 L 460.1034631782003 460.1034631782003 L 0 460.1034631782003 L 0 0 Z" fill-opacity="0.5882352941176471"/></g><g transform="translate(6,0)"><g transform="translate(0,409.2149624105459)"><path fill="rgb(255,255,0)" stroke="none" paint-order="stroke fill markers" d=" M 0 0 L 452.9560206948785 0 L 452.9560206948785 452.9560206948785 L 0 452.9560206948785 L 0 0 Z" fill-opacity="0.5882352941176471"/></g><g transform="translate(6,0)"><g transform="translate(0,401.5432520252993)"><path fill="rgb(0,255,0)" stroke="none" paint-order="stroke fill markers" d=" M 0 0 L 445.28431030963185 0 L 445.28431030963185 445.28431030963185 L 0 445.28431030963185 L 0 0 Z" fill-opacity="0.5882352941176471"/></g><g transform="translate(6,0)"><g transform="translate(0,393.5525182594498)"><path fill="rgb(0,0,255)" stroke="none" paint-order="stroke fill markers" d=" M 0 0 L 437.29357654378236 0 L 437.29357654378236 437.29357654378236 L 0 437.29357654378236 L 0 0 Z" fill-opacity="0.5882352941176471"/></g><g transform="translate(6,0)"><g transform="translate(0,385.3813294955716)"><path fill="rgb(75,0,130)" stroke="none" paint-order="stroke fill markers" d=" M 0 0 L 429.12238777990416 0 L 429.12238777990416 429.12238777990416 L 0 429.12238777990416 L 0 0 Z" fill-opacity="0.5882352941176471"/></g><g transform="translate(6,0)"><g transform="translate(0,372.16719898672795)"><path fill="rgb(148,0,211)" stroke="none" paint-order="stroke fill markers" d=" M 0 0 L 415.9082572710605 0 L 415.9082572710605 415.9082572710605 L 0 415.9082572710605 L 0 0 Z" fill-opacity="0.5882352941176471"/></g><g transform="translate(6,0)"><g transform="translate(0,351.4594793470482)"><path fill="rgb(255,0,0)" stroke="none" paint-order="stroke fill markers" d=" M 0 0 L 395.20053763138077 0 L 395.20053763138077 395.20053763138077 L 0 395.20053763138077 L 0 0 Z" fill-opacity="0.5882352941176471"/></g><g transform="translate(6,0)"><g transform="translate(0,329.319475976534)"><path fill="rgb(255,127,0)" stroke="none" paint-order="stroke fill markers" d=" M 0 0 L 373.0605342608666 0 L 373.0605342608666 373.0605342608666 L 0 373.0605342608666 L 0 0 Z" fill-opacity="0.5882352941176471"/></g><g transform="translate(6,0)"><g transform="translate(0,312.160543938585)"><path fill="rgb(255,255,0)" stroke="none" paint-order="stroke fill markers" d=" M 0 0 L 355.9016022229176 0 L 355.9016022229176 355.9016022229176 L 0 355.9016022229176 L 0 0 Z" fill-opacity="0.5882352941176471"/></g><g transform="translate(6,0)"><g transform="translate(0,303.1221525421883)"><path fill="rgb(0,255,0)" stroke="none" paint-order="stroke fill markers" d=" M 0 0 L 346.86321082652086 0 L 346.86321082652086 346.86321082652086 L 0 346.86321082652086 L 0 0 Z" fill-opacity="0.5882352941176471"/></g><g transform="translate(6,0)"><g transform="translate(0,300.54384284941517)"><path fill="rgb(0,0,255)" stroke="none" paint-order="stroke fill markers" d=" M 0 0 L 344.2849011337477 0 L 344.2849011337477 344.2849011337477 L 0 344.2849011337477 L 0 0 Z" fill-opacity="0.5882352941176471"/></g><g transform="translate(6,0)"><g transform="translate(0,299.6538520670598)"><path fill="rgb(75,0,130)" stroke="none" paint-order="stroke fill markers" d=" M 0 0 L 343.39491035139235 0 L 343.39491035139235 343.39491035139235 L 0 343.39491035139235 L 0 0 Z" fill-opacity="0.5882352941176471"/></g><g transform="translate(6,0)"><g transform="translate(0,294.82723337291003)"><path fill="rgb(148,0,211)" stroke="none" paint-order="stroke fill markers" d=" M 0 0 L 338.5682916572426 0 L 338.5682916572426 338.5682916572426 L 0 338.5682916572426 L 0 0 Z" fill-opacity="0.5882352941176471"/></g><g transform="translate(6,0)"><g transform="translate(0,283.3007728252394)"><path fill="rgb(255,0,0)" stroke="none" paint-order="stroke fill markers" d=" M 0 0 L 327.04183110957194 0 L 327.04183110957194 327.04183110957194 L 0 327.04183110957194 L 0 0 Z" fill-opacity="0.5882352941176471"/></g><g transform="translate(6,0)"><g transform="translate(0,267.2099064043611)"><path fill="rgb(255,127,0)" stroke="none" paint-order="stroke fill markers" d=" M 0 0 L 310.95096468869366 0 L 310.95096468869366 310.95096468869366 L 0 310.95096468869366 L 0 0 Z" fill-opacity="0.5882352941176471"/></g><g transform="translate(6,0)"><g transform="translate(0,249.1895442683267)"><path fill="rgb(255,255,0)" stroke="none" paint-order="stroke fill markers" d=" M 0 0 L 292.93060255265925 0 L 292.93060255265925 292.93060255265925 L 0 292.93060255265925 L 0 0 Z" fill-opacity="0.5882352941176471"/></g><g transform="translate(6,0)"><g transform="translate(0,232.50523725023663)"><path fill="rgb(0,255,0)" stroke="none" paint-order="stroke fill markers" d=" M 0 0 L 276.2462955345692 0 L 276.2462955345692 276.2462955345692 L 0 276.2462955345692 L 0 0 Z" fill-opacity="0.5882352941176471"/></g><g transform="translate(6,0)"><g transform="translate(0,218.70072452572623)"><path fill="rgb(0,0,255)" stroke="none" paint-order="stroke fill markers" d=" M 0 0 L 262.4417828100588 0 L 262.4417828100588 262.4417828100588 L 0 262.4417828100588 L 0 0 Z" fill-opacity="0.5882352941176471"/></g><g transform="translate(6,0)"><g transform="translate(0,203.61145105055127)"><path fill="rgb(75,0,130)" stroke="none" paint-order="stroke fill markers" d=" M 0 0 L 247.35250933488382 0 L 247.35250933488382 247.35250933488382 L 0 247.35250933488382 L 0 0 Z" fill-opacity="0.5882352941176471"/></g><g transform="translate(6,0)"><g transform="translate(0,188.34582581236097)"><path fill="rgb(148,0,211)" stroke="none" paint-order="stroke fill markers" d=" M 0 0 L 232.08688409669352 0 L 232.08688409669352 232.08688409669352 L 0 232.08688409669352 L 0 0 Z" fill-opacity="0.5882352941176471"/></g><g transform="translate(6,0)"><g transform="translate(0,175.53054801894413)"><path fill="rgb(255,0,0)" stroke="none" paint-order="stroke fill markers" d=" M 0 0 L 219.27160630327668 0 L 219.27160630327668 219.27160630327668 L 0 219.27160630327668 L 0 0 Z" fill-opacity="0.5882352941176471"/></g><g transform="translate(6,0)"><g transform="translate(0,167.39892823521598)"><path fill="rgb(255,127,0)" stroke="none" paint-order="stroke fill markers" d=" M 0 0 L 211.13998651954853 0 L 211.13998651954853 211.13998651954853 L 0 211.13998651954853 L 0 0 Z" fill-opacity="0.5882352941176471"/></g><g transform="translate(6,0)"><g transform="translate(0,167.36701232955147)"><path fill="rgb(255,255,0)" stroke="none" paint-order="stroke fill markers" d=" M 0 0 L 211.10807061388402 0 L 211.10807061388402 211.10807061388402 L 0 211.10807061388402 L 0 0 Z" fill-opacity="0.5882352941176471"/></g><g transform="translate(6,0)"><g transform="translate(0,173.7116327896192)"><path fill="rgb(0,255,0)" stroke="none" paint-order="stroke fill markers" d=" M 0 0 L 217.45269107395174 0 L 217.45269107395174 217.45269107395174 L 0 217.45269107395174 L 0 0 Z" fill-opacity="0.5882352941176471"/></g><g transform="translate(6,0)"><g transform="translate(0,181.71773925754988)"><path fill="rgb(0,0,255)" stroke="none" paint-order="stroke fill markers" d=" M 0 0 L 225.45879754188243 0 L 225.45879754188243 225.45879754188243 L 0 225.45879754188243 L 0 0 Z" fill-opacity="0.5882352941176471"/></g><g transform="translate(6,0)"><g transform="translate(0,186.9836018936571)"><path fill="rgb(75,0,130)" stroke="none" paint-order="stroke fill markers" d=" M 0 0 L 230.72466017798965 0 L 230.72466017798965 230.72466017798965 L 0 230.72466017798965 L 0 0 Z" fill-opacity="0.5882352941176471"/></g><g transform="translate(6,0)"><g transform="translate(0,187.8930982329235)"><path fill="rgb(148,0,211)" stroke="none" paint-order="stroke fill markers" d=" M 0 0 L 231.63415651725606 0 L 231.63415651725606 231.63415651725606 L 0 231.63415651725606 L 0 0 Z" fill-opacity="0.5882352941176471"/></g><g transform="translate(6,0)"><g transform="translate(0,185.40841166355582)"><path fill="rgb(255,0,0)" stroke="none" paint-order="stroke fill markers" d=" M 0 0 L 229.14946994788838 0 L 229.14946994788838 229.14946994788838 L 0 229.14946994788838 L 0 0 Z" fill-opacity="0.5882352941176471"/></g><g transform="translate(6,0)"><g transform="translate(0,182.08497762052818)"><path fill="rgb(255,127,0)" stroke="none" paint-order="stroke fill markers" d=" M 0 0 L 225.82603590486073 0 L 225.82603590486073 225.82603590486073 L 0 225.82603590486073 L 0 0 Z" fill-opacity="0.5882352941176471"/></g><g transform="translate(6,0)"/></g></g></g></g></g></g></g></g></g></g></g></g></g></g></g></g></g></g></g></g></g></g></g></g></g></g></g></g></g></g></g></g></g></g></g></g></g></g></g></g></g></g></g></g></g></g></g></g></g></g></g></g></g></g></g></g></g></g></g></g></g></g></g></g></g></g></g></g></g></g></g></g></g></g></g></g></g></g></g></g></g></g></g></g></g></g></g></g></g></g></g></g></g></g></g></g></g></g></g></g></g></svg>