<svg version="1.1" xmlns="http://www.w3.org/2000/svg" xmlns:xlink="http://www.w3.org/1999/xlink" width="600" height="600" viewBox="0 0 600 600"><defs/><g transform="scale(1,1)"><g transform="scale(1,1)"><rect fill="rgb(0,0,0)" stroke="none" x="0" y="0" width="600" height="600" fill-opacity="1"/></g><g><g transform="translate(0,300) rotate(2.250158835396245,0,0)"><path fill="rgb(255,0,0)" stroke="none" paint-order="stroke fill markers" d=" M 0 0 L 79.99435291789197 0 L 79.99435291789197 79.99435291789197 L 0 79.99435291789197 L 0 0 Z" fill-opacity="0.5882352941176471"/></g><g transform="translate(60,0)"><g transform="translate(0,332.06524869742543) rotate(1.9849415901882095,0,0)"><path fill="rgb(255,127,0)" stroke="none" paint-order="stroke fill markers" d=" M 0 0 L 90.68276915036711 0 L 90.68276915036711 90.68276915036711 L 0 90.68276915036711 L 0 0 Z" fill-opacity="0.5882352941176471"/></g><g transform="translate(60,0)"><g transform="translate(0,340.71089027469543) rotate(1.9238034944081357,0,0)"><path fill="rgb(255,255,0)" stroke="none" paint-order="stroke fill markers" d=" M 0 0 L 93.56464967612379 0 L 93.56464967612379 93.56464967612379 L 0 93.56464967612379 L 0 0 Z" fill-opacity="0.5882352941176471"/></g><g transform="translate(60,0)"><g transform="translate(0,392.6024372429116) rotate(1.6236426618121091,0,0)"><path fill="rgb(0,255,0)" stroke="none" paint-order="stroke fill markers" d=" M 0 0 L 110.86183199886251 0 L 110.86183199886251 110.86183199886251 L 0 110.86183199886251 L 0 0 Z" fill-opacity="0.5882352941176471"/></g><g transform="translate(60,0)"><g transform="translate(0,310.90564075794924) rotate(2.152348834567492,0,0)"><path fill="rgb(0,0,255)" stroke="none" paint-order="stroke fill markers" d=" M 0 0 L 83.62956650387505 0 L 83.62956650387505 83.62956650387505 L 0 83.62956650387505 L 0 0 Z" fill-opacity="0.5882352941176471"/></g><g transform="translate(60,0)"><g transform="translate(0,320.2277280684557) rotate(2.07524064084676,0,0)"><path fill="rgb(75,0,130)" stroke="none" paint-order="stroke fill markers" d=" M 0 0 L 86.73692894071053 0 L 86.73692894071053 86.73692894071053 L 0 86.73692894071053 L 0 0 Z" fill-opacity="0.5882352941176471"/></g><g transform="translate(60,0)"><g transform="translate(0,459.65571790668093) rotate(1.3512202307108265,0,0)"><path fill="rgb(148,0,211)" stroke="none" paint-order="stroke fill markers" d=" M 0 0 L 133.2129255534523 0 L 133.2129255534523 133.2129255534523 L 0 133.2129255534523 L 0 0 Z" fill-opacity="0.5882352941176471"/></g><g transform="translate(60,0)"><g transform="translate(0,391.97949456670244) rotate(1.6266895003631445,0,0)"><path fill="rgb(255,0,0)" stroke="none" paint-order="stroke fill markers" d=" M 0 0 L 110.65418444012612 0 L 110.65418444012612 110.65418444012612 L 0 110.65418444012612 L 0 0 Z" fill-opacity="0.5882352941176471"/></g><g transform="translate(60,0)"><g transform="translate(0,356.58794329464786) rotate(1.8208118672101714,0,0)"><path fill="rgb(255,127,0)" stroke="none" paint-order="stroke fill markers" d=" M 0 0 L 98.8570006827746 0 L 98.8570006827746 98.8570006827746 L 0 98.8570006827746 L 0 0 Z" fill-opacity="0.5882352941176471"/></g><g transform="translate(60,0)"><g transform="translate(0,202.3011730595089) rotate(3.7952202652294234,0,0)"><path fill="rgb(255,255,0)" stroke="none" paint-order="stroke fill markers" d=" M 0 0 L 47.4280772710616 0 L 47.4280772710616 47.4280772710616 L 0 47.4280772710616 L 0 0 Z" fill-opacity="0.5882352941176471"/></g><g transform="translate(60,0)"/></g></g></g></g></g></g></g></g></g></g></g></svg>