<svg version="1.1" xmlns="http://www.w3.org/2000/svg" xmlns:xlink="http://www.w3.org/1999/xlink" width="600" height="600" viewBox="0 0 600 600"><defs/><g transform="scale(1,1)"><g transform="scale(1,1)"><rect fill="rgb(0,0,0)" stroke="none" x="0" y="0" width="600" height="600" fill-opacity="1"/></g><g><g transform="translate(0,300) rotate(3.2184299274902046,0,0)"><path fill="rgb(255,0,0)" stroke="none" paint-order="stroke fill markers" d=" M 0 0 L 55.92789156679498 0 L 55.92789156679498 55.92789156679498 L 0 55.92789156679498 L 0 0 Z" fill-opacity="0.5882352941176471"/></g><g transform="translate(60,0)"><g transform="translate(0,314.80811093935273) rotate(2.957416721174116,0,0)"><path fill="rgb(255,127,0)" stroke="none" paint-order="stroke fill markers" d=" M 0 0 L 60.863928546579224 0 L 60.863928546579224 60.863928546579224 L 0 60.863928546579224 L 0 0 Z" fill-opacity="0.5882352941176471"/></g><g transform="translate(60,0)"><g transform="translate(0,338.17501952615925) rotate(2.6218849465321776,0,0)"><path fill="rgb(255,255,0)" stroke="none" paint-order="stroke fill markers" d=" M 0 0 L 68.65289807551473 0 L 68.65289807551473 68.65289807551473 L 0 68.65289807551473 L 0 0 Z" fill-opacity="0.5882352941176471"/></g><g transform="translate(60,0)"><g transform="translate(0,364.4845781166415) rotate(2.324898015336581,0,0)"><path fill="rgb(0,255,0)" stroke="none" paint-order="stroke fill markers" d=" M 0 0 L 77.42275093900881 0 L 77.42275093900881 77.42275093900881 L 0 77.42275093900881 L 0 0 Z" fill-opacity="0.5882352941176471"/></g><g transform="translate(60,0)"><g transform="translate(0,371.43540243940856) rotate(2.2573450514752964,0,0)"><path fill="rgb(0,0,255)" stroke="none" paint-order="stroke fill markers" d=" M 0 0 L 79.73969237993116 0 L 79.73969237993116 79.73969237993116 L 0 79.73969237993116 L 0 0 Z" fill-opacity="0.5882352941176471"/></g><g transform="translate(60,0)"><g transform="translate(0,385.8525554686769) rotate(2.129033378394174,0,0)"><path fill="rgb(75,0,130)" stroke="none" paint-order="stroke fill markers" d=" M 0 0 L 84.54541005635394 0 L 84.54541005635394 84.54541005635394 L 0 84.54541005635394 L 0 0 Z" fill-opacity="0.5882352941176471"/></g><g transform="translate(60,0)"><g transform="translate(0,402.34631045585934) rotate(1.999037610310687,0,0)"><path fill="rgb(148,0,211)" stroke="none" paint-order="stroke fill markers" d=" M 0 0 L 90.04332838541477 0 L 90.04332838541477 90.04332838541477 L 0 90.04332838541477 L 0 0 Z" fill-opacity="0.5882352941176471"/></g><g transform="translate(60,0)"><g transform="translate(0,420.9133973210385) rotate(1.8704727284519465,0,0)"><path fill="rgb(255,0,0)" stroke="none" paint-order="stroke fill markers" d=" M 0 0 L 96.23235734047448 0 L 96.23235734047448 96.23235734047448 L 0 96.23235734047448 L 0 0 Z" fill-opacity="0.5882352941176471"/></g><g transform="translate(60,0)"><g transform="translate(0,429.5535857728592) rotate(1.8161195106880725,0,0)"><path fill="rgb(255,127,0)" stroke="none" paint-order="stroke fill markers" d=" M 0 0 L 99.11242015774805 0 L 99.11242015774805 99.11242015774805 L 0 99.11242015774805 L 0 0 Z" fill-opacity="0.5882352941176471"/></g><g transform="translate(60,0)"><g transform="translate(0,415.39198409543576) rotate(1.906943563921779,0,0)"><path fill="rgb(255,255,0)" stroke="none" paint-order="stroke fill markers" d=" M 0 0 L 94.39188626527357 0 L 94.39188626527357 94.39188626527357 L 0 94.39188626527357 L 0 0 Z" fill-opacity="0.5882352941176471"/></g><g transform="translate(60,0)"/></g></g></g></g></g></g></g></g></g></g></g></svg>