<svg version="1.1" xmlns="http://www.w3.org/2000/svg" xmlns:xlink="http://www.w3.org/1999/xlink" width="600" height="600" viewBox="0 0 600 600"><defs/><g transform="scale(1,1)"><g transform="scale(1,1)"><rect fill="rgb(0,0,0)" stroke="none" x="0" y="0" width="600" height="600" fill-opacity="1"/></g><g><g transform="translate(0,300) rotate(1.4197528011268736,0,0)"><path fill="rgb(255,0,0)" stroke="none" paint-order="stroke fill markers" d=" M 0 0 L 126.78263417204177 0 L 126.78263417204177 126.78263417204177 L 0 126.78263417204177 L 0 0 Z" fill-opacity="0.5882352941176471"/></g><g transform="translate(6,0)"><g transform="translate(0,314.39559580678565) rotate(1.367976932601092,0,0)"><path fill="rgb(255,127,0)" stroke="none" paint-order="stroke fill markers" d=" M 0 0 L 131.581166107637 0 L 131.581166107637 131.581166107637 L 0 131.581166107637 L 0 0 Z" fill-opacity="0.5882352941176471"/></g><g transform="translate(6,0)"><g transform="translate(0,331.49497811202855) rotate(1.3111796401005582,0,0)"><path fill="rgb(255,255,0)" stroke="none" paint-order="stroke fill markers" d=" M 0 0 L 137.28096020938463 0 L 137.28096020938463 137.28096020938463 L 0 137.28096020938463 L 0 0 Z" fill-opacity="0.5882352941176471"/></g><g transform="translate(6,0)"><g transform="translate(0,332.19331668371234) rotate(1.308960110816031,0,0)"><path fill="rgb(0,255,0)" stroke="none" paint-order="stroke fill markers" d=" M 0 0 L 137.5137397332792 0 L 137.5137397332792 137.5137397332792 L 0 137.5137397332792 L 0 0 Z" fill-opacity="0.5882352941176471"/></g><g transform="translate(6,0)"><g transform="translate(0,336.8488888209621) rotate(1.2943531954532457,0,0)"><path fill="rgb(0,0,255)" stroke="none" paint-order="stroke fill markers" d=" M 0 0 L 139.06559711236247 0 L 139.06559711236247 139.06559711236247 L 0 139.06559711236247 L 0 0 Z" fill-opacity="0.5882352941176471"/></g><g transform="translate(6,0)"><g transform="translate(0,329.57322729501374) rotate(1.317326579990623,0,0)"><path fill="rgb(75,0,130)" stroke="none" paint-order="stroke fill markers" d=" M 0 0 L 136.640376603713 0 L 136.640376603713 136.640376603713 L 0 136.640376603713 L 0 0 Z" fill-opacity="0.5882352941176471"/></g><g transform="translate(6,0)"><g transform="translate(0,337.95555134876446) rotate(1.2909288580113367,0,0)"><path fill="rgb(148,0,211)" stroke="none" paint-order="stroke fill markers" d=" M 0 0 L 139.43448462162993 0 L 139.43448462162993 139.43448462162993 L 0 139.43448462162993 L 0 0 Z" fill-opacity="0.5882352941176471"/></g><g transform="translate(6,0)"><g transform="translate(0,350.3232191682477) rotate(1.2538569985562,0,0)"><path fill="rgb(255,0,0)" stroke="none" paint-order="stroke fill markers" d=" M 0 0 L 143.55704056145768 0 L 143.55704056145768 143.55704056145768 L 0 143.55704056145768 L 0 0 Z" fill-opacity="0.5882352941176471"/></g><g transform="translate(6,0)"><g transform="translate(0,349.24063563806834) rotate(1.2570167777757981,0,0)"><path fill="rgb(255,127,0)" stroke="none" paint-order="stroke fill markers" d=" M 0 0 L 143.1961793847312 0 L 143.1961793847312 143.1961793847312 L 0 143.1961793847312 L 0 0 Z" fill-opacity="0.5882352941176471"/></g><g transform="translate(6,0)"><g transform="translate(0,325.19124411068935) rotate(1.3315607247576493,0,0)"><path fill="rgb(255,255,0)" stroke="none" paint-order="stroke fill markers" d=" M 0 0 L 135.17971554227157 0 L 135.17971554227157 135.17971554227157 L 0 135.17971554227157 L 0 0 Z" fill-opacity="0.5882352941176471"/></g><g transform="translate(6,0)"><g transform="translate(0,312.6208425740001) rotate(1.3741550867516288,0,0)"><path fill="rgb(0,255,0)" stroke="none" paint-order="stroke fill markers" d=" M 0 0 L 130.98958169670848 0 L 130.98958169670848 130.98958169670848 L 0 130.98958169670848 L 0 0 Z" fill-opacity="0.5882352941176471"/></g><g transform="translate(6,0)"><g transform="translate(0,315.2803188726495) rotate(1.3649177960673191,0,0)"><path fill="rgb(0,0,255)" stroke="none" paint-order="stroke fill markers" d=" M 0 0 L 131.87607379625828 0 L 131.87607379625828 131.87607379625828 L 0 131.87607379625828 L 0 0 Z" fill-opacity="0.5882352941176471"/></g><g transform="translate(6,0)"><g transform="translate(0,305.80707232015493) rotate(1.398402287136003,0,0)"><path fill="rgb(75,0,130)" stroke="none" paint-order="stroke fill markers" d=" M 0 0 L 128.71832494542676 0 L 128.71832494542676 128.71832494542676 L 0 128.71832494542676 L 0 0 Z" fill-opacity="0.5882352941176471"/></g><g transform="translate(6,0)"><g transform="translate(0,300.87969088443674) rotate(1.4164766909529898,0,0)"><path fill="rgb(148,0,211)" stroke="none" paint-order="stroke fill markers" d=" M 0 0 L 127.07586446685401 0 L 127.07586446685401 127.07586446685401 L 0 127.07586446685401 L 0 0 Z" fill-opacity="0.5882352941176471"/></g><g transform="translate(6,0)"><g transform="translate(0,296.2724875906911) rotate(1.4338044731110977,0,0)"><path fill="rgb(255,0,0)" stroke="none" paint-order="stroke fill markers" d=" M 0 0 L 125.54013003560549 0 L 125.54013003560549 125.54013003560549 L 0 125.54013003560549 L 0 0 Z" fill-opacity="0.5882352941176471"/></g><g transform="translate(6,0)"><g transform="translate(0,308.60225025130563) rotate(1.38835271347197,0,0)"><path fill="rgb(255,127,0)" stroke="none" paint-order="stroke fill markers" d=" M 0 0 L 129.650050922477 0 L 129.650050922477 129.650050922477 L 0 129.650050922477 L 0 0 Z" fill-opacity="0.5882352941176471"/></g><g transform="translate(6,0)"><g transform="translate(0,294.37081641523736) rotate(1.44108093009069,0,0)"><path fill="rgb(255,255,0)" stroke="none" paint-order="stroke fill markers" d=" M 0 0 L 124.90623964378756 0 L 124.90623964378756 124.90623964378756 L 0 124.90623964378756 L 0 0 Z" fill-opacity="0.5882352941176471"/></g><g transform="translate(6,0)"><g transform="translate(0,244.22127121005764) rotate(1.6637439526390805,0,0)"><path fill="rgb(0,255,0)" stroke="none" paint-order="stroke fill markers" d=" M 0 0 L 108.18972457539432 0 L 108.18972457539432 108.18972457539432 L 0 108.18972457539432 L 0 0 Z" fill-opacity="0.5882352941176471"/></g><g transform="translate(6,0)"><g transform="translate(0,206.6318704672138) rotate(1.8816657159713839,0,0)"><path fill="rgb(0,0,255)" stroke="none" paint-order="stroke fill markers" d=" M 0 0 L 95.6599243277797 0 L 95.6599243277797 95.6599243277797 L 0 95.6599243277797 L 0 0 Z" fill-opacity="0.5882352941176471"/></g><g transform="translate(6,0)"><g transform="translate(0,179.47801100943582) rotate(2.0783146402634545,0,0)"><path fill="rgb(75,0,130)" stroke="none" paint-order="stroke fill markers" d=" M 0 0 L 86.6086378418537 0 L 86.6086378418537 86.6086378418537 L 0 86.6086378418537 L 0 0 Z" fill-opacity="0.5882352941176471"/></g><g transform="translate(6,0)"><g transform="translate(0,194.75070989621378) rotate(1.9629324745215586,0,0)"><path fill="rgb(148,0,211)" stroke="none" paint-order="stroke fill markers" d=" M 0 0 L 91.6995374707797 0 L 91.6995374707797 91.6995374707797 L 0 91.6995374707797 L 0 0 Z" fill-opacity="0.5882352941176471"/></g><g transform="translate(6,0)"><g transform="translate(0,195.668375109227) rotate(1.956406356341647,0,0)"><path fill="rgb(255,0,0)" stroke="none" paint-order="stroke fill markers" d=" M 0 0 L 92.00542587511744 0 L 92.00542587511744 92.00542587511744 L 0 92.00542587511744 L 0 0 Z" fill-opacity="0.5882352941176471"/></g><g transform="translate(6,0)"><g transform="translate(0,193.40478176361842) rotate(1.97258339738573,0,0)"><path fill="rgb(255,127,0)" stroke="none" paint-order="stroke fill markers" d=" M 0 0 L 91.25089475991457 0 L 91.25089475991457 91.25089475991457 L 0 91.25089475991457 L 0 0 Z" fill-opacity="0.5882352941176471"/></g><g transform="translate(6,0)"><g transform="translate(0,167.51197550002138) rotate(2.1786503096915997,0,0)"><path fill="rgb(255,255,0)" stroke="none" paint-order="stroke fill markers" d=" M 0 0 L 82.61995933871556 0 L 82.61995933871556 82.61995933871556 L 0 82.61995933871556 L 0 0 Z" fill-opacity="0.5882352941176471"/></g><g transform="translate(6,0)"><g transform="translate(0,149.697564743435) rotate(2.347362051653545,0,0)"><path fill="rgb(0,255,0)" stroke="none" paint-order="stroke fill markers" d=" M 0 0 L 76.68182241985345 0 L 76.68182241985345 76.68182241985345 L 0 76.68182241985345 L 0 0 Z" fill-opacity="0.5882352941176471"/></g><g transform="translate(6,0)"><g transform="translate(0,142.62444149192947) rotate(2.4218250133321138,0,0)"><path fill="rgb(0,0,255)" stroke="none" paint-order="stroke fill markers" d=" M 0 0 L 74.3241146693516 0 L 74.3241146693516 74.3241146693516 L 0 74.3241146693516 L 0 0 Z" fill-opacity="0.5882352941176471"/></g><g transform="translate(6,0)"><g transform="translate(0,133.86338596486743) rotate(2.5208755515604633,0,0)"><path fill="rgb(75,0,130)" stroke="none" paint-order="stroke fill markers" d=" M 0 0 L 71.40376282699758 0 L 71.40376282699758 71.40376282699758 L 0 71.40376282699758 L 0 0 Z" fill-opacity="0.5882352941176471"/></g><g transform="translate(6,0)"><g transform="translate(0,128.49411699276442) rotate(2.58568654559967,0,0)"><path fill="rgb(148,0,211)" stroke="none" paint-order="stroke fill markers" d=" M 0 0 L 69.61400650296325 0 L 69.61400650296325 69.61400650296325 L 0 69.61400650296325 L 0 0 Z" fill-opacity="0.5882352941176471"/></g><g transform="translate(6,0)"><g transform="translate(0,133.57011969737673) rotate(2.52433149115903,0,0)"><path fill="rgb(255,0,0)" stroke="none" paint-order="stroke fill markers" d=" M 0 0 L 71.30600740450068 0 L 71.30600740450068 71.30600740450068 L 0 71.30600740450068 L 0 0 Z" fill-opacity="0.5882352941176471"/></g><g transform="translate(6,0)"><g transform="translate(0,171.96271874968107) rotate(2.140219057330591,0,0)"><path fill="rgb(255,127,0)" stroke="none" paint-order="stroke fill markers" d=" M 0 0 L 84.10354042193546 0 L 84.10354042193546 84.10354042193546 L 0 84.10354042193546 L 0 0 Z" fill-opacity="0.5882352941176471"/></g><g transform="translate(6,0)"><g transform="translate(0,210.85296875281227) rotate(1.8543900560698692,0,0)"><path fill="rgb(255,255,0)" stroke="none" paint-order="stroke fill markers" d=" M 0 0 L 97.06695708964587 0 L 97.06695708964587 97.06695708964587 L 0 97.06695708964587 L 0 0 Z" fill-opacity="0.5882352941176471"/></g><g transform="translate(6,0)"><g transform="translate(0,208.119331191252) rotate(1.8719630408623076,0,0)"><path fill="rgb(0,255,0)" stroke="none" paint-order="stroke fill markers" d=" M 0 0 L 96.15574456912577 0 L 96.15574456912577 96.15574456912577 L 0 96.15574456912577 L 0 0 Z" fill-opacity="0.5882352941176471"/></g><g transform="translate(6,0)"><g transform="translate(0,200.29995614745786) rotate(1.9241194376875905,0,0)"><path fill="rgb(0,0,255)" stroke="none" paint-order="stroke fill markers" d=" M 0 0 L 93.5492862211944 0 L 93.5492862211944 93.5492862211944 L 0 93.5492862211944 L 0 0 Z" fill-opacity="0.5882352941176471"/></g><g transform="translate(6,0)"><g transform="translate(0,174.79197775124624) rotate(2.116486060250996,0,0)"><path fill="rgb(75,0,130)" stroke="none" paint-order="stroke fill markers" d=" M 0 0 L 85.04662675579051 0 L 85.04662675579051 85.04662675579051 L 0 85.04662675579051 L 0 0 Z" fill-opacity="0.5882352941176471"/></g><g transform="translate(6,0)"><g transform="translate(0,148.63474436554475) rotate(2.3582573061925185,0,0)"><path fill="rgb(148,0,211)" stroke="none" paint-order="stroke fill markers" d=" M 0 0 L 76.32754896055668 0 L 76.32754896055668 76.32754896055668 L 0 76.32754896055668 L 0 0 Z" fill-opacity="0.5882352941176471"/></g><g transform="translate(6,0)"><g transform="translate(0,125.62708575106845) rotate(2.621677537369266,0,0)"><path fill="rgb(255,0,0)" stroke="none" paint-order="stroke fill markers" d=" M 0 0 L 68.65832942239793 0 L 68.65832942239793 68.65832942239793 L 0 68.65832942239793 L 0 0 Z" fill-opacity="0.5882352941176471"/></g><g transform="translate(6,0)"><g transform="translate(0,93.87321031600501) rotate(3.0995095325806674,0,0)"><path fill="rgb(255,127,0)" stroke="none" paint-order="stroke fill markers" d=" M 0 0 L 58.07370427737678 0 L 58.07370427737678 58.07370427737678 L 0 58.07370427737678 L 0 0 Z" fill-opacity="0.5882352941176471"/></g><g transform="translate(6,0)"><g transform="translate(0,102.89041179810701) rotate(2.9469819236274084,0,0)"><path fill="rgb(255,255,0)" stroke="none" paint-order="stroke fill markers" d=" M 0 0 L 61.079438104744106 0 L 61.079438104744106 61.079438104744106 L 0 61.079438104744106 L 0 0 Z" fill-opacity="0.5882352941176471"/></g><g transform="translate(6,0)"><g transform="translate(0,112.80999080252903) rotate(2.795640347501394,0,0)"><path fill="rgb(0,255,0)" stroke="none" paint-order="stroke fill markers" d=" M 0 0 L 64.38596443955144 0 L 64.38596443955144 64.38596443955144 L 0 64.38596443955144 L 0 0 Z" fill-opacity="0.5882352941176471"/></g><g transform="translate(6,0)"><g transform="translate(0,148.26848015866756) rotate(2.3620354485625414,0,0)"><path fill="rgb(0,0,255)" stroke="none" paint-order="stroke fill markers" d=" M 0 0 L 76.20546089159762 0 L 76.20546089159762 76.20546089159762 L 0 76.20546089159762 L 0 0 Z" fill-opacity="0.5882352941176471"/></g><g transform="translate(6,0)"><g transform="translate(0,177.13252443707307) rotate(2.0972467942122623,0,0)"><path fill="rgb(75,0,130)" stroke="none" paint-order="stroke fill markers" d=" M 0 0 L 85.82680898439946 0 L 85.82680898439946 85.82680898439946 L 0 85.82680898439946 L 0 0 Z" fill-opacity="0.5882352941176471"/></g><g transform="translate(6,0)"><g transform="translate(0,195.86139702897015) rotate(1.9550391709814123,0,0)"><path fill="rgb(148,0,211)" stroke="none" paint-order="stroke fill markers" d=" M 0 0 L 92.06976651503182 0 L 92.06976651503182 92.06976651503182 L 0 92.06976651503182 L 0 0 Z" fill-opacity="0.5882352941176471"/></g><g transform="translate(6,0)"><g transform="translate(0,222.74156869776203) rotate(1.7816521235042413,0,0)"><path fill="rgb(255,0,0)" stroke="none" paint-order="stroke fill markers" d=" M 0 0 L 101.02982373796245 0 L 101.02982373796245 101.02982373796245 L 0 101.02982373796245 L 0 0 Z" fill-opacity="0.5882352941176471"/></g><g transform="translate(6,0)"><g transform="translate(0,246.3187920502316) rotate(1.6530610833064527,0,0)"><path fill="rgb(255,127,0)" stroke="none" paint-order="stroke fill markers" d=" M 0 0 L 108.88889818878563 0 L 108.88889818878563 108.88889818878563 L 0 108.88889818878563 L 0 0 Z" fill-opacity="0.5882352941176471"/></g><g transform="translate(6,0)"><g transform="translate(0,263.8305483661574) rotate(1.568953543185924,0,0)"><path fill="rgb(255,255,0)" stroke="none" paint-order="stroke fill markers" d=" M 0 0 L 114.72615029409424 0 L 114.72615029409424 114.72615029409424 L 0 114.72615029409424 L 0 0 Z" fill-opacity="0.5882352941176471"/></g><g transform="translate(6,0)"><g transform="translate(0,245.2919044895906) rotate(1.6582739222374048,0,0)"><path fill="rgb(0,255,0)" stroke="none" paint-order="stroke fill markers" d=" M 0 0 L 108.54660233523863 0 L 108.54660233523863 108.54660233523863 L 0 108.54660233523863 L 0 0 Z" fill-opacity="0.5882352941176471"/></g><g transform="translate(6,0)"><g transform="translate(0,226.26016377464867) rotate(1.7612061108917045,0,0)"><path fill="rgb(0,0,255)" stroke="none" paint-order="stroke fill markers" d=" M 0 0 L 102.20268876359133 0 L 102.20268876359133 102.20268876359133 L 0 102.20268876359133 L 0 0 Z" fill-opacity="0.5882352941176471"/></g><g transform="translate(6,0)"><g transform="translate(0,215.81133550958623) rotate(1.823343427001656,0,0)"><path fill="rgb(75,0,130)" stroke="none" paint-order="stroke fill markers" d=" M 0 0 L 98.71974600857051 0 L 98.71974600857051 98.71974600857051 L 0 98.71974600857051 L 0 0 Z" fill-opacity="0.5882352941176471"/></g><g transform="translate(6,0)"><g transform="translate(0,200.72374341880004) rotate(1.9212183363562136,0,0)"><path fill="rgb(148,0,211)" stroke="none" paint-order="stroke fill markers" d=" M 0 0 L 93.69054864497512 0 L 93.69054864497512 93.69054864497512 L 0 93.69054864497512 L 0 0 Z" fill-opacity="0.5882352941176471"/></g><g transform="translate(6,0)"><g transform="translate(0,193.95105819290478) rotate(1.9686549252835825,0,0)"><path fill="rgb(255,0,0)" stroke="none" paint-order="stroke fill markers" d=" M 0 0 L 91.43298690301003 0 L 91.43298690301003 91.43298690301003 L 0 91.43298690301003 L 0 0 Z" fill-opacity="0.5882352941176471"/></g><g transform="translate(6,0)"><g transform="translate(0,194.20047956270645) rotate(1.966866444126225,0,0)"><path fill="rgb(255,127,0)" stroke="none" paint-order="stroke fill markers" d=" M 0 0 L 91.51612735961059 0 L 91.51612735961059 91.51612735961059 L 0 91.51612735961059 L 0 0 Z" fill-opacity="0.5882352941176471"/></g><g transform="translate(6,0)"><g transform="translate(0,194.5611987967792) rotate(1.9642856399481887,0,0)"><path fill="rgb(255,255,0)" stroke="none" paint-order="stroke fill markers" d=" M 0 0 L 91.6363671043015 0 L 91.6363671043015 91.6363671043015 L 0 91.6363671043015 L 0 0 Z" fill-opacity="0.5882352941176471"/></g><g transform="translate(6,0)"><g transform="translate(0,184.0674650949751) rotate(2.042241360170211,0,0)"><path fill="rgb(0,255,0)" stroke="none" paint-order="stroke fill markers" d=" M 0 0 L 88.1384558703668 0 L 88.1384558703668 88.1384558703668 L 0 88.1384558703668 L 0 0 Z" fill-opacity="0.5882352941176471"/></g><g transform="translate(6,0)"><g transform="translate(0,169.60243489058357) rotate(2.160429170060828,0,0)"><path fill="rgb(0,0,255)" stroke="none" paint-order="stroke fill markers" d=" M 0 0 L 83.31677913556963 0 L 83.31677913556963 83.31677913556963 L 0 83.31677913556963 L 0 0 Z" fill-opacity="0.5882352941176471"/></g><g transform="translate(6,0)"><g transform="translate(0,176.00979083241168) rotate(2.106431809970417,0,0)"><path fill="rgb(75,0,130)" stroke="none" paint-order="stroke fill markers" d=" M 0 0 L 85.45256444951234 0 L 85.45256444951234 85.45256444951234 L 0 85.45256444951234 L 0 0 Z" fill-opacity="0.5882352941176471"/></g><g transform="translate(6,0)"><g transform="translate(0,185.03361491434515) rotate(2.034806361906794,0,0)"><path fill="rgb(148,0,211)" stroke="none" paint-order="stroke fill markers" d=" M 0 0 L 88.46050581015682 0 L 88.46050581015682 88.46050581015682 L 0 88.46050581015682 L 0 0 Z" fill-opacity="0.5882352941176471"/></g><g transform="translate(6,0)"><g transform="translate(0,194.63811968987193) rotate(1.963736177090033,0,0)"><path fill="rgb(255,0,0)" stroke="none" paint-order="stroke fill markers" d=" M 0 0 L 91.66200740199908 0 L 91.66200740199908 91.66200740199908 L 0 91.66200740199908 L 0 0 Z" fill-opacity="0.5882352941176471"/></g><g transform="translate(6,0)"><g transform="translate(0,224.89999732581765) rotate(1.7690539403534353,0,0)"><path fill="rgb(255,127,0)" stroke="none" paint-order="stroke fill markers" d=" M 0 0 L 101.74929994731433 0 L 101.74929994731433 101.74929994731433 L 0 101.74929994731433 L 0 0 Z" fill-opacity="0.5882352941176471"/></g><g transform="translate(6,0)"><g transform="translate(0,284.4375944201901) rotate(1.4803220098804357,0,0)"><path fill="rgb(255,255,0)" stroke="none" paint-order="stroke fill markers" d=" M 0 0 L 121.59516564543848 0 L 121.59516564543848 121.59516564543848 L 0 121.59516564543848 L 0 0 Z" fill-opacity="0.5882352941176471"/></g><g transform="translate(6,0)"><g transform="translate(0,322.4451844664674) rotate(1.3406386987553658,0,0)"><path fill="rgb(0,255,0)" stroke="none" paint-order="stroke fill markers" d=" M 0 0 L 134.2643623275309 0 L 134.2643623275309 134.2643623275309 L 0 134.2643623275309 L 0 0 Z" fill-opacity="0.5882352941176471"/></g><g transform="translate(6,0)"><g transform="translate(0,354.9505134105846) rotate(1.24052829103545,0,0)"><path fill="rgb(0,0,255)" stroke="none" paint-order="stroke fill markers" d=" M 0 0 L 145.09947197556997 0 L 145.09947197556997 145.09947197556997 L 0 145.09947197556997 L 0 0 Z" fill-opacity="0.5882352941176471"/></g><g transform="translate(6,0)"><g transform="translate(0,372.0947649175575) rotate(1.1935213870587282,0,0)"><path fill="rgb(75,0,130)" stroke="none" paint-order="stroke fill markers" d=" M 0 0 L 150.81422247789428 0 L 150.81422247789428 150.81422247789428 L 0 150.81422247789428 L 0 0 Z" fill-opacity="0.5882352941176471"/></g><g transform="translate(6,0)"><g transform="translate(0,366.7993585702501) rotate(1.207655837336524,0,0)"><path fill="rgb(148,0,211)" stroke="none" paint-order="stroke fill markers" d=" M 0 0 L 149.0490870287918 0 L 149.0490870287918 149.0490870287918 L 0 149.0490870287918 L 0 0 Z" fill-opacity="0.5882352941176471"/></g><g transform="translate(6,0)"><g transform="translate(0,363.4130358414824) rotate(1.216871412789463,0,0)"><path fill="rgb(255,0,0)" stroke="none" paint-order="stroke fill markers" d=" M 0 0 L 147.92031278586924 0 L 147.92031278586924 147.92031278586924 L 0 147.92031278586924 L 0 0 Z" fill-opacity="0.5882352941176471"/></g><g transform="translate(6,0)"><g transform="translate(0,353.59197063229715) rotate(1.2444120335890436,0,0)"><path fill="rgb(255,127,0)" stroke="none" paint-order="stroke fill markers" d=" M 0 0 L 144.6466243828075 0 L 144.6466243828075 144.6466243828075 L 0 144.6466243828075 L 0 0 Z" fill-opacity="0.5882352941176471"/></g><g transform="translate(6,0)"><g transform="translate(0,357.7895489297026) rotate(1.232489937160203,0,0)"><path fill="rgb(255,255,0)" stroke="none" paint-order="stroke fill markers" d=" M 0 0 L 146.0458171486093 0 L 146.0458171486093 146.0458171486093 L 0 146.0458171486093 L 0 0 Z" fill-opacity="0.5882352941176471"/></g><g transform="translate(6,0)"><g transform="translate(0,337.39046943458317) rotate(1.292675119784586,0,0)"><path fill="rgb(0,255,0)" stroke="none" paint-order="stroke fill markers" d=" M 0 0 L 139.2461239835695 0 L 139.2461239835695 139.2461239835695 L 0 139.2461239835695 L 0 0 Z" fill-opacity="0.5882352941176471"/></g><g transform="translate(6,0)"><g transform="translate(0,291.1603364815571) rotate(1.4535343858238596,0,0)"><path fill="rgb(0,0,255)" stroke="none" paint-order="stroke fill markers" d=" M 0 0 L 123.83607966589415 0 L 123.83607966589415 123.83607966589415 L 0 123.83607966589415 L 0 0 Z" fill-opacity="0.5882352941176471"/></g><g transform="translate(6,0)"><g transform="translate(0,269.83610589488467) rotate(1.5420464299620547,0,0)"><path fill="rgb(75,0,130)" stroke="none" paint-order="stroke fill markers" d=" M 0 0 L 116.72800280367 0 L 116.72800280367 116.72800280367 L 0 116.72800280367 L 0 0 Z" fill-opacity="0.5882352941176471"/></g><g transform="translate(6,0)"><g transform="translate(0,255.97018683113612) rotate(1.6056228228700153,0,0)"><path fill="rgb(148,0,211)" stroke="none" paint-order="stroke fill markers" d=" M 0 0 L 112.10602978242048 0 L 112.10602978242048 112.10602978242048 L 0 112.10602978242048 L 0 0 Z" fill-opacity="0.5882352941176471"/></g><g transform="translate(6,0)"><g transform="translate(0,224.88933349128638) rotate(1.7691157444070416,0,0)"><path fill="rgb(255,0,0)" stroke="none" paint-order="stroke fill markers" d=" M 0 0 L 101.7457453358039 0 L 101.7457453358039 101.7457453358039 L 0 101.7457453358039 L 0 0 Z" fill-opacity="0.5882352941176471"/></g><g transform="translate(6,0)"><g transform="translate(0,194.81312903521467) rotate(1.962487191429379,0,0)"><path fill="rgb(255,127,0)" stroke="none" paint-order="stroke fill markers" d=" M 0 0 L 91.72034385044667 0 L 91.72034385044667 91.72034385044667 L 0 91.72034385044667 L 0 0 Z" fill-opacity="0.5882352941176471"/></g><g transform="translate(6,0)"><g transform="translate(0,182.5985490400953) rotate(2.053650075154342,0,0)"><path fill="rgb(255,255,0)" stroke="none" paint-order="stroke fill markers" d=" M 0 0 L 87.64881718540687 0 L 87.64881718540687 87.64881718540687 L 0 87.64881718540687 L 0 0 Z" fill-opacity="0.5882352941176471"/></g><g transform="translate(6,0)"><g transform="translate(0,169.84881433015627) rotate(2.1583017027828175,0,0)"><path fill="rgb(0,255,0)" stroke="none" paint-order="stroke fill markers" d=" M 0 0 L 83.3989056154272 0 L 83.3989056154272 83.3989056154272 L 0 83.3989056154272 L 0 0 Z" fill-opacity="0.5882352941176471"/></g><g transform="translate(6,0)"><g transform="translate(0,193.34781040499547) rotate(1.9729940021224528,0,0)"><path fill="rgb(0,0,255)" stroke="none" paint-order="stroke fill markers" d=" M 0 0 L 91.23190430704027 0 L 91.23190430704027 91.23190430704027 L 0 91.23190430704027 L 0 0 Z" fill-opacity="0.5882352941176471"/></g><g transform="translate(6,0)"><g transform="translate(0,227.22834239592765) rotate(1.7556622428835662,0,0)"><path fill="rgb(75,0,130)" stroke="none" paint-order="stroke fill markers" d=" M 0 0 L 102.52541497068432 0 L 102.52541497068432 102.52541497068432 L 0 102.52541497068432 L 0 0 Z" fill-opacity="0.5882352941176471"/></g><g transform="translate(6,0)"><g transform="translate(0,216.0823435908082) rotate(1.8216764553951819,0,0)"><path fill="rgb(148,0,211)" stroke="none" paint-order="stroke fill markers" d=" M 0 0 L 98.8100820356445 0 L 98.8100820356445 98.8100820356445 L 0 98.8100820356445 L 0 0 Z" fill-opacity="0.5882352941176471"/></g><g transform="translate(6,0)"><g transform="translate(0,238.26542492411835) rotate(1.6948443567580445,0,0)"><path fill="rgb(255,0,0)" stroke="none" paint-order="stroke fill markers" d=" M 0 0 L 106.20444248008123 0 L 106.20444248008123 106.20444248008123 L 0 106.20444248008123 L 0 0 Z" fill-opacity="0.5882352941176471"/></g><g transform="translate(6,0)"><g transform="translate(0,291.1005164525952) rotate(1.4537684707320646,0,0)"><path fill="rgb(255,127,0)" stroke="none" paint-order="stroke fill markers" d=" M 0 0 L 123.81613965624017 0 L 123.81613965624017 123.81613965624017 L 0 123.81613965624017 L 0 0 Z" fill-opacity="0.5882352941176471"/></g><g transform="translate(6,0)"><g transform="translate(0,318.7119658678301) rotate(1.3531804192358405,0,0)"><path fill="rgb(255,255,0)" stroke="none" paint-order="stroke fill markers" d=" M 0 0 L 133.01995612798513 0 L 133.01995612798513 133.01995612798513 L 0 133.01995612798513 L 0 0 Z" fill-opacity="0.5882352941176471"/></g><g transform="translate(6,0)"><g transform="translate(0,329.55717842539497) rotate(1.3173781568153824,0,0)"><path fill="rgb(0,255,0)" stroke="none" paint-order="stroke fill markers" d=" M 0 0 L 136.63502698050675 0 L 136.63502698050675 136.63502698050675 L 0 136.63502698050675 L 0 0 Z" fill-opacity="0.5882352941176471"/></g><g transform="translate(6,0)"><g transform="translate(0,337.3810411374339) rotate(1.2927042959413544,0,0)"><path fill="rgb(0,0,255)" stroke="none" paint-order="stroke fill markers" d=" M 0 0 L 139.24298121785307 0 L 139.24298121785307 139.24298121785307 L 0 139.24298121785307 L 0 0 Z" fill-opacity="0.5882352941176471"/></g><g transform="translate(6,0)"><g transform="translate(0,342.9027841702906) rotate(1.275839631183122,0,0)"><path fill="rgb(75,0,130)" stroke="none" paint-order="stroke fill markers" d=" M 0 0 L 141.0835622288053 0 L 141.0835622288053 141.0835622288053 L 0 141.0835622288053 L 0 0 Z" fill-opacity="0.5882352941176471"/></g><g transform="translate(6,0)"><g transform="translate(0,353.76130700024703) rotate(1.2439266160734008,0,0)"><path fill="rgb(148,0,211)" stroke="none" paint-order="stroke fill markers" d=" M 0 0 L 144.70306983879078 0 L 144.70306983879078 144.70306983879078 L 0 144.70306983879078 L 0 0 Z" fill-opacity="0.5882352941176471"/></g><g transform="translate(6,0)"><g transform="translate(0,392.15773738159277) rotate(1.1428435015440075,0,0)"><path fill="rgb(255,0,0)" stroke="none" paint-order="stroke fill markers" d=" M 0 0 L 157.50187996590603 0 L 157.50187996590603 157.50187996590603 L 0 157.50187996590603 L 0 0 Z" fill-opacity="0.5882352941176471"/></g><g transform="translate(6,0)"><g transform="translate(0,402.55711567882156) rotate(1.1182323224108723,0,0)"><path fill="rgb(255,127,0)" stroke="none" paint-order="stroke fill markers" d=" M 0 0 L 160.96833939831563 0 L 160.96833939831563 160.96833939831563 L 0 160.96833939831563 L 0 0 Z" fill-opacity="0.5882352941176471"/></g><g transform="translate(6,0)"><g transform="translate(0,411.3182962103299) rotate(1.0983061300507173,0,0)"><path fill="rgb(255,255,0)" stroke="none" paint-order="stroke fill markers" d=" M 0 0 L 163.8887329088184 0 L 163.8887329088184 163.8887329088184 L 0 163.8887329088184 L 0 0 Z" fill-opacity="0.5882352941176471"/></g><g transform="translate(6,0)"><g transform="translate(0,405.4068055577974) rotate(1.111672189737834,0,0)"><path fill="rgb(0,255,0)" stroke="none" paint-order="stroke fill markers" d=" M 0 0 L 161.9182360246409 0 L 161.9182360246409 161.9182360246409 L 0 161.9182360246409 L 0 0 Z" fill-opacity="0.5882352941176471"/></g><g transform="translate(6,0)"><g transform="translate(0,400.31965156459904) rotate(1.1234375930215403,0,0)"><path fill="rgb(0,0,255)" stroke="none" paint-order="stroke fill markers" d=" M 0 0 L 160.22251802690812 0 L 160.22251802690812 160.22251802690812 L 0 160.22251802690812 L 0 0 Z" fill-opacity="0.5882352941176471"/></g><g transform="translate(6,0)"><g transform="translate(0,380.9132358375295) rotate(1.170703436945462,0,0)"><path fill="rgb(75,0,130)" stroke="none" paint-order="stroke fill markers" d=" M 0 0 L 153.7537127845516 0 L 153.7537127845516 153.7537127845516 L 0 153.7537127845516 L 0 0 Z" fill-opacity="0.5882352941176471"/></g><g transform="translate(6,0)"><g transform="translate(0,340.7042355533037) rotate(1.2825015032009104,0,0)"><path fill="rgb(148,0,211)" stroke="none" paint-order="stroke fill markers" d=" M 0 0 L 140.35071268980968 0 L 140.35071268980968 140.35071268980968 L 0 140.35071268980968 L 0 0 Z" fill-opacity="0.5882352941176471"/></g><g transform="translate(6,0)"><g transform="translate(0,304.51910316434686) rotate(1.4030820829788764,0,0)"><path fill="rgb(255,0,0)" stroke="none" paint-order="stroke fill markers" d=" M 0 0 L 128.28900189349073 0 L 128.28900189349073 128.28900189349073 L 0 128.28900189349073 L 0 0 Z" fill-opacity="0.5882352941176471"/></g><g transform="translate(6,0)"><g transform="translate(0,265.3743279790268) rotate(1.5619475763146569,0,0)"><path fill="rgb(255,127,0)" stroke="none" paint-order="stroke fill markers" d=" M 0 0 L 115.24074349838405 0 L 115.24074349838405 115.24074349838405 L 0 115.24074349838405 L 0 0 Z" fill-opacity="0.5882352941176471"/></g><g transform="translate(6,0)"><g transform="translate(0,256.6061195028139) rotate(1.6025925340331693,0,0)"><path fill="rgb(255,255,0)" stroke="none" paint-order="stroke fill markers" d=" M 0 0 L 112.3180073396464 0 L 112.3180073396464 112.3180073396464 L 0 112.3180073396464 L 0 0 Z" fill-opacity="0.5882352941176471"/></g><g transform="translate(6,0)"><g transform="translate(0,251.754526399874) rotate(1.6260043678770728,0,0)"><path fill="rgb(0,255,0)" stroke="none" paint-order="stroke fill markers" d=" M 0 0 L 110.70080963866644 0 L 110.70080963866644 110.70080963866644 L 0 110.70080963866644 L 0 0 Z" fill-opacity="0.5882352941176471"/></g><g transform="translate(6,0)"><g transform="translate(0,214.6370196985186) rotate(1.8306020387274995,0,0)"><path fill="rgb(0,0,255)" stroke="none" paint-order="stroke fill markers" d=" M 0 0 L 98.3283074048813 0 L 98.3283074048813 98.3283074048813 L 0 98.3283074048813 L 0 0 Z" fill-opacity="0.5882352941176471"/></g><g transform="translate(6,0)"><g transform="translate(0,195.6633027910147) rotate(1.9564423096486183,0,0)"><path fill="rgb(75,0,130)" stroke="none" paint-order="stroke fill markers" d=" M 0 0 L 92.00373510238 0 L 92.00373510238 92.00373510238 L 0 92.00373510238 L 0 0 Z" fill-opacity="0.5882352941176471"/></g><g transform="translate(6,0)"><g transform="translate(0,189.5383040836586) rotate(2.000843269477531,0,0)"><path fill="rgb(148,0,211)" stroke="none" paint-order="stroke fill markers" d=" M 0 0 L 89.96206886659463 0 L 89.96206886659463 89.96206886659463 L 0 89.96206886659463 L 0 0 Z" fill-opacity="0.5882352941176471"/></g><g transform="translate(6,0)"><g transform="translate(0,180.74827990132013) rotate(2.0682033532632738,0,0)"><path fill="rgb(255,0,0)" stroke="none" paint-order="stroke fill markers" d=" M 0 0 L 87.03206080581515 0 L 87.03206080581515 87.03206080581515 L 0 87.03206080581515 L 0 0 Z" fill-opacity="0.5882352941176471"/></g><g transform="translate(6,0)"><g transform="translate(0,179.50871797091315) rotate(2.0780690481847275,0,0)"><path fill="rgb(255,127,0)" stroke="none" paint-order="stroke fill markers" d=" M 0 0 L 86.6188734956795 0 L 86.6188734956795 86.6188734956795 L 0 86.6188734956795 L 0 0 Z" fill-opacity="0.5882352941176471"/></g><g transform="translate(6,0)"/></g></g></g></g></g></g></g></g></g></g></g></g></g></g></g></g></g></g></g></g></g></g></g></g></g></g></g></g></g></g></g></g></g></g></g></g></g></g></g></g></g></g></g></g></g></g></g></g></g></g></g></g></g></g></g></g></g></g></g></g></g></g></g></g></g></g></g></g></g></g></g></g></g></g></g></g></g></g></g></g></g></g></g></g></g></g></g></g></g></g></g></g></g></g></g></g></g></g></g></g></g></svg>