<svg version="1.1" xmlns="http://www.w3.org/2000/svg" xmlns:xlink="http://www.w3.org/1999/xlink" width="600" height="600" viewBox="0 0 600 600"><defs/><g transform="scale(1,1)"><g transform="scale(1,1)"><rect fill="rgb(0,0,0)" stroke="none" x="0" y="0" width="600" height="600" fill-opacity="1"/></g><g><g transform="translate(0,300) rotate(1.9574898998648171,0,0)"><path fill="rgb(255,0,0)" stroke="none" paint-order="stroke fill markers" d=" M 0 0 L 91.95449744718002 0 L 91.95449744718002 91.95449744718002 L 0 91.95449744718002 L 0 0 Z" fill-opacity="0.5882352941176471"/></g><g transform="translate(60,0)"><g transform="translate(0,240.10360274039897) rotate(2.500380901984727,0,0)"><path fill="rgb(255,127,0)" stroke="none" paint-order="stroke fill markers" d=" M 0 0 L 71.98903169397967 0 L 71.98903169397967 71.98903169397967 L 0 71.98903169397967 L 0 0 Z" fill-opacity="0.5882352941176471"/></g><g transform="translate(60,0)"><g transform="translate(0,229.3542734213294) rotate(2.631351130798168,0,0)"><path fill="rgb(255,255,0)" stroke="none" paint-order="stroke fill markers" d=" M 0 0 L 68.40592192095649 0 L 68.40592192095649 68.40592192095649 L 0 68.40592192095649 L 0 0 Z" fill-opacity="0.5882352941176471"/></g><g transform="translate(60,0)"><g transform="translate(0,266.84598621531956) rotate(2.2248822057169644,0,0)"><path fill="rgb(0,255,0)" stroke="none" paint-order="stroke fill markers" d=" M 0 0 L 80.9031595189532 0 L 80.9031595189532 80.9031595189532 L 0 80.9031595189532 L 0 0 Z" fill-opacity="0.5882352941176471"/></g><g transform="translate(60,0)"><g transform="translate(0,232.68615142762997) rotate(2.5893115434792624,0,0)"><path fill="rgb(0,0,255)" stroke="none" paint-order="stroke fill markers" d=" M 0 0 L 69.51654792305668 0 L 69.51654792305668 69.51654792305668 L 0 69.51654792305668 L 0 0 Z" fill-opacity="0.5882352941176471"/></g><g transform="translate(60,0)"><g transform="translate(0,248.63437362134775) rotate(2.4053680763685676,0,0)"><path fill="rgb(75,0,130)" stroke="none" paint-order="stroke fill markers" d=" M 0 0 L 74.83262198762927 0 L 74.83262198762927 74.83262198762927 L 0 74.83262198762927 L 0 0 Z" fill-opacity="0.5882352941176471"/></g><g transform="translate(60,0)"><g transform="translate(0,309.170089388244) rotate(1.894513610371454,0,0)"><path fill="rgb(148,0,211)" stroke="none" paint-order="stroke fill markers" d=" M 0 0 L 95.01119390992801 0 L 95.01119390992801 95.01119390992801 L 0 95.01119390992801 L 0 0 Z" fill-opacity="0.5882352941176471"/></g><g transform="translate(60,0)"><g transform="translate(0,261.6202826082332) rotate(2.2738395501511945,0,0)"><path fill="rgb(255,0,0)" stroke="none" paint-order="stroke fill markers" d=" M 0 0 L 79.16125831659109 0 L 79.16125831659109 79.16125831659109 L 0 79.16125831659109 L 0 0 Z" fill-opacity="0.5882352941176471"/></g><g transform="translate(60,0)"><g transform="translate(0,186.35117626506758) rotate(3.32892212916683,0,0)"><path fill="rgb(255,127,0)" stroke="none" paint-order="stroke fill markers" d=" M 0 0 L 54.071556202202544 0 L 54.071556202202544 54.071556202202544 L 0 54.071556202202544 L 0 0 Z" fill-opacity="0.5882352941176471"/></g><g transform="translate(60,0)"><g transform="translate(0,233.77020608218052) rotate(2.575921734245841,0,0)"><path fill="rgb(255,255,0)" stroke="none" paint-order="stroke fill markers" d=" M 0 0 L 69.87789947457352 0 L 69.87789947457352 69.87789947457352 L 0 69.87789947457352 L 0 0 Z" fill-opacity="0.5882352941176471"/></g><g transform="translate(60,0)"/></g></g></g></g></g></g></g></g></g></g></g></svg>