<svg version="1.1" xmlns="http://www.w3.org/2000/svg" xmlns:xlink="http://www.w3.org/1999/xlink" width="600" height="600" viewBox="0 0 600 600"><defs/><g transform="scale(1,1)"><g transform="scale(1,1)"><rect fill="rgb(0,0,0)" stroke="none" x="0" y="0" width="600" height="600" fill-opacity="1"/></g><g><g transform="translate(0,300) rotate(1.3523064951871502,0,0)"><path fill="rgb(255,0,0)" stroke="none" paint-order="stroke fill markers" d=" M 0 0 L 133.10591987882836 0 L 133.10591987882836 133.10591987882836 L 0 133.10591987882836 L 0 0 Z" fill-opacity="0.5882352941176471"/></g><g transform="translate(60,0)"><g transform="translate(0,251.26070554664653) rotate(1.5403113814133458,0,0)"><path fill="rgb(255,127,0)" stroke="none" paint-order="stroke fill markers" d=" M 0 0 L 116.85948839437721 0 L 116.85948839437721 116.85948839437721 L 0 116.85948839437721 L 0 0 Z" fill-opacity="0.5882352941176471"/></g><g transform="translate(60,0)"><g transform="translate(0,281.5619191205577) rotate(1.4177705719618021,0,0)"><path fill="rgb(255,255,0)" stroke="none" paint-order="stroke fill markers" d=" M 0 0 L 126.95989291901428 0 L 126.95989291901428 126.95989291901428 L 0 126.95989291901428 L 0 0 Z" fill-opacity="0.5882352941176471"/></g><g transform="translate(60,0)"><g transform="translate(0,305.2307597676694) rotate(1.334821347993925,0,0)"><path fill="rgb(0,255,0)" stroke="none" paint-order="stroke fill markers" d=" M 0 0 L 134.8495064680515 0 L 134.8495064680515 134.8495064680515 L 0 134.8495064680515 L 0 0 Z" fill-opacity="0.5882352941176471"/></g><g transform="translate(60,0)"><g transform="translate(0,138.5893013575519) rotate(2.2697939176069046,0,0)"><path fill="rgb(0,0,255)" stroke="none" paint-order="stroke fill markers" d=" M 0 0 L 79.302353664679 0 L 79.302353664679 79.302353664679 L 0 79.302353664679 L 0 0 Z" fill-opacity="0.5882352941176471"/></g><g transform="translate(60,0)"><g transform="translate(0,263.96533652753476) rotate(1.486444058922559,0,0)"><path fill="rgb(75,0,130)" stroke="none" paint-order="stroke fill markers" d=" M 0 0 L 121.09436538800662 0 L 121.09436538800662 121.09436538800662 L 0 121.09436538800662 L 0 0 Z" fill-opacity="0.5882352941176471"/></g><g transform="translate(60,0)"><g transform="translate(0,190.6549430403564) rotate(1.862244256149173,0,0)"><path fill="rgb(148,0,211)" stroke="none" paint-order="stroke fill markers" d=" M 0 0 L 96.65756755894716 0 L 96.65756755894716 96.65756755894716 L 0 96.65756755894716 L 0 0 Z" fill-opacity="0.5882352941176471"/></g><g transform="translate(60,0)"><g transform="translate(0,171.16775537856455) rotate(1.9964100479463929,0,0)"><path fill="rgb(255,0,0)" stroke="none" paint-order="stroke fill markers" d=" M 0 0 L 90.16183833834988 0 L 90.16183833834988 90.16183833834988 L 0 90.16183833834988 L 0 0 Z" fill-opacity="0.5882352941176471"/></g><g transform="translate(60,0)"><g transform="translate(0,296.633751801352) rotate(1.3638033557166456,0,0)"><path fill="rgb(255,127,0)" stroke="none" paint-order="stroke fill markers" d=" M 0 0 L 131.9838371459457 0 L 131.9838371459457 131.9838371459457 L 0 131.9838371459457 L 0 0 Z" fill-opacity="0.5882352941176471"/></g><g transform="translate(60,0)"><g transform="translate(0,116.78053088084309) rotate(2.498862895709484,0,0)"><path fill="rgb(255,255,0)" stroke="none" paint-order="stroke fill markers" d=" M 0 0 L 72.03276350577606 0 L 72.03276350577606 72.03276350577606 L 0 72.03276350577606 L 0 0 Z" fill-opacity="0.5882352941176471"/></g><g transform="translate(60,0)"/></g></g></g></g></g></g></g></g></g></g></g></svg>