<svg version="1.1" xmlns="http://www.w3.org/2000/svg" xmlns:xlink="http://www.w3.org/1999/xlink" width="600" height="600" viewBox="0 0 600 600"><defs/><g transform="scale(1,1)"><g transform="scale(1,1)"><rect fill="rgb(0,0,0)" stroke="none" x="0" y="0" width="600" height="600" fill-opacity="1"/></g><g><g transform="translate(0,300) rotate(1007.9789500301554,0,0)"><path fill="rgb(255,0,0)" stroke="none" paint-order="stroke fill markers" d=" M 0 0 L 107.14509464386038 0 L 107.14509464386038 107.14509464386038 L 0 107.14509464386038 L 0 0 Z" fill-opacity="0.5882352941176471"/></g><g transform="translate(6,0)"><g transform="translate(0,301.810024812487) rotate(1002.3347322776752,0,0)"><path fill="rgb(255,127,0)" stroke="none" paint-order="stroke fill markers" d=" M 0 0 L 107.7484362480227 0 L 107.7484362480227 107.7484362480227 L 0 107.7484362480227 L 0 0 Z" fill-opacity="0.5882352941176471"/></g><g transform="translate(6,0)"><g transform="translate(0,305.75417811501) rotate(990.2519414083791,0,0)"><path fill="rgb(255,255,0)" stroke="none" paint-order="stroke fill markers" d=" M 0 0 L 109.06315401553037 0 L 109.06315401553037 109.06315401553037 L 0 109.06315401553037 L 0 0 Z" fill-opacity="0.5882352941176471"/></g><g transform="translate(6,0)"><g transform="translate(0,310.38961227226326) rotate(976.418598202356,0,0)"><path fill="rgb(0,255,0)" stroke="none" paint-order="stroke fill markers" d=" M 0 0 L 110.60829873461479 0 L 110.60829873461479 110.60829873461479 L 0 110.60829873461479 L 0 0 Z" fill-opacity="0.5882352941176471"/></g><g transform="translate(6,0)"><g transform="translate(0,319.5531399553095) rotate(950.178883807135,0,0)"><path fill="rgb(0,0,255)" stroke="none" paint-order="stroke fill markers" d=" M 0 0 L 113.66280796229688 0 L 113.66280796229688 113.66280796229688 L 0 113.66280796229688 L 0 0 Z" fill-opacity="0.5882352941176471"/></g><g transform="translate(6,0)"><g transform="translate(0,326.1706953694936) rotate(932.0898353114096,0,0)"><path fill="rgb(75,0,130)" stroke="none" paint-order="stroke fill markers" d=" M 0 0 L 115.86865976702491 0 L 115.86865976702491 115.86865976702491 L 0 115.86865976702491 L 0 0 Z" fill-opacity="0.5882352941176471"/></g><g transform="translate(6,0)"><g transform="translate(0,329.0967566909806) rotate(924.3092284076527,0,0)"><path fill="rgb(148,0,211)" stroke="none" paint-order="stroke fill markers" d=" M 0 0 L 116.84401354085391 0 L 116.84401354085391 116.84401354085391 L 0 116.84401354085391 L 0 0 Z" fill-opacity="0.5882352941176471"/></g><g transform="translate(6,0)"><g transform="translate(0,333.90928832373305) rotate(911.7910481750846,0,0)"><path fill="rgb(255,0,0)" stroke="none" paint-order="stroke fill markers" d=" M 0 0 L 118.44819075177139 0 L 118.44819075177139 118.44819075177139 L 0 118.44819075177139 L 0 0 Z" fill-opacity="0.5882352941176471"/></g><g transform="translate(6,0)"><g transform="translate(0,342.4431193959258) rotate(890.4073367288728,0,0)"><path fill="rgb(255,127,0)" stroke="none" paint-order="stroke fill markers" d=" M 0 0 L 121.29280110916898 0 L 121.29280110916898 121.29280110916898 L 0 121.29280110916898 L 0 0 Z" fill-opacity="0.5882352941176471"/></g><g transform="translate(6,0)"><g transform="translate(0,351.26814849692096) rotate(869.3238961842801,0,0)"><path fill="rgb(255,255,0)" stroke="none" paint-order="stroke fill markers" d=" M 0 0 L 124.23447747616736 0 L 124.23447747616736 124.23447747616736 L 0 124.23447747616736 L 0 0 Z" fill-opacity="0.5882352941176471"/></g><g transform="translate(6,0)"><g transform="translate(0,356.0144213784229) rotate(858.3925101594524,0,0)"><path fill="rgb(0,255,0)" stroke="none" paint-order="stroke fill markers" d=" M 0 0 L 125.81656843666802 0 L 125.81656843666802 125.81656843666802 L 0 125.81656843666802 L 0 0 Z" fill-opacity="0.5882352941176471"/></g><g transform="translate(6,0)"><g transform="translate(0,353.6536392178885) rotate(863.7951696347184,0,0)"><path fill="rgb(0,0,255)" stroke="none" paint-order="stroke fill markers" d=" M 0 0 L 125.02964104982321 0 L 125.02964104982321 125.02964104982321 L 0 125.02964104982321 L 0 0 Z" fill-opacity="0.5882352941176471"/></g><g transform="translate(6,0)"><g transform="translate(0,348.9811859791048) rotate(874.6911282808841,0,0)"><path fill="rgb(75,0,130)" stroke="none" paint-order="stroke fill markers" d=" M 0 0 L 123.4721566368953 0 L 123.4721566368953 123.4721566368953 L 0 123.4721566368953 L 0 0 Z" fill-opacity="0.5882352941176471"/></g><g transform="translate(6,0)"><g transform="translate(0,351.6738734708319) rotate(868.3785792224692,0,0)"><path fill="rgb(148,0,211)" stroke="none" paint-order="stroke fill markers" d=" M 0 0 L 124.36971913413767 0 L 124.36971913413767 124.36971913413767 L 0 124.36971913413767 L 0 0 Z" fill-opacity="0.5882352941176471"/></g><g transform="translate(6,0)"><g transform="translate(0,362.9949802839184) rotate(842.8056533508917,0,0)"><path fill="rgb(255,0,0)" stroke="none" paint-order="stroke fill markers" d=" M 0 0 L 128.1434214051665 0 L 128.1434214051665 128.1434214051665 L 0 128.1434214051665 L 0 0 Z" fill-opacity="0.5882352941176471"/></g><g transform="translate(6,0)"><g transform="translate(0,373.70035688907103) rotate(819.9715908367276,0,0)"><path fill="rgb(255,127,0)" stroke="none" paint-order="stroke fill markers" d=" M 0 0 L 131.71188027355072 0 L 131.71188027355072 131.71188027355072 L 0 131.71188027355072 L 0 0 Z" fill-opacity="0.5882352941176471"/></g><g transform="translate(6,0)"><g transform="translate(0,375.89480144383464) rotate(815.4429073596829,0,0)"><path fill="rgb(255,255,0)" stroke="none" paint-order="stroke fill markers" d=" M 0 0 L 132.44336179180524 0 L 132.44336179180524 132.44336179180524 L 0 132.44336179180524 L 0 0 Z" fill-opacity="0.5882352941176471"/></g><g transform="translate(6,0)"><g transform="translate(0,374.74484911278125) rotate(817.8098116891692,0,0)"><path fill="rgb(0,255,0)" stroke="none" paint-order="stroke fill markers" d=" M 0 0 L 132.06004434812078 0 L 132.06004434812078 132.06004434812078 L 0 132.06004434812078 L 0 0 Z" fill-opacity="0.5882352941176471"/></g><g transform="translate(6,0)"><g transform="translate(0,380.19213581121215) rotate(806.7178286967888,0,0)"><path fill="rgb(0,0,255)" stroke="none" paint-order="stroke fill markers" d=" M 0 0 L 133.87580658093108 0 L 133.87580658093108 133.87580658093108 L 0 133.87580658093108 L 0 0 Z" fill-opacity="0.5882352941176471"/></g><g transform="translate(6,0)"><g transform="translate(0,386.3543835088631) rotate(794.527242520971,0,0)"><path fill="rgb(75,0,130)" stroke="none" paint-order="stroke fill markers" d=" M 0 0 L 135.92988914681476 0 L 135.92988914681476 135.92988914681476 L 0 135.92988914681476 L 0 0 Z" fill-opacity="0.5882352941176471"/></g><g transform="translate(6,0)"><g transform="translate(0,388.96428958199414) rotate(789.4745046300169,0,0)"><path fill="rgb(148,0,211)" stroke="none" paint-order="stroke fill markers" d=" M 0 0 L 136.7998578378584 0 L 136.7998578378584 136.7998578378584 L 0 136.7998578378584 L 0 0 Z" fill-opacity="0.5882352941176471"/></g><g transform="translate(6,0)"><g transform="translate(0,392.1967797909868) rotate(783.3048460607587,0,0)"><path fill="rgb(255,0,0)" stroke="none" paint-order="stroke fill markers" d=" M 0 0 L 137.8773545741893 0 L 137.8773545741893 137.8773545741893 L 0 137.8773545741893 L 0 0 Z" fill-opacity="0.5882352941176471"/></g><g transform="translate(6,0)"><g transform="translate(0,395.22353986321747) rotate(777.6146369567049,0,0)"><path fill="rgb(255,127,0)" stroke="none" paint-order="stroke fill markers" d=" M 0 0 L 138.8862745982662 0 L 138.8862745982662 138.8862745982662 L 0 138.8862745982662 L 0 0 Z" fill-opacity="0.5882352941176471"/></g><g transform="translate(6,0)"><g transform="translate(0,387.3862243066842) rotate(792.5219037428175,0,0)"><path fill="rgb(255,255,0)" stroke="none" paint-order="stroke fill markers" d=" M 0 0 L 136.27383607942178 0 L 136.27383607942178 136.27383607942178 L 0 136.27383607942178 L 0 0 Z" fill-opacity="0.5882352941176471"/></g><g transform="translate(6,0)"><g transform="translate(0,368.6714001634887) rotate(830.5420368573855,0,0)"><path fill="rgb(0,255,0)" stroke="none" paint-order="stroke fill markers" d=" M 0 0 L 130.03556136502328 0 L 130.03556136502328 130.03556136502328 L 0 130.03556136502328 L 0 0 Z" fill-opacity="0.5882352941176471"/></g><g transform="translate(6,0)"><g transform="translate(0,359.0059077329259) rotate(851.6427955196822,0,0)"><path fill="rgb(0,0,255)" stroke="none" paint-order="stroke fill markers" d=" M 0 0 L 126.81373055483567 0 L 126.81373055483567 126.81373055483567 L 0 126.81373055483567 L 0 0 Z" fill-opacity="0.5882352941176471"/></g><g transform="translate(6,0)"><g transform="translate(0,360.91348887573577) rotate(847.39385357797,0,0)"><path fill="rgb(75,0,130)" stroke="none" paint-order="stroke fill markers" d=" M 0 0 L 127.44959093577229 0 L 127.44959093577229 127.44959093577229 L 0 127.44959093577229 L 0 0 Z" fill-opacity="0.5882352941176471"/></g><g transform="translate(6,0)"><g transform="translate(0,366.46721787256723) rotate(835.2614342342843,0,0)"><path fill="rgb(148,0,211)" stroke="none" paint-order="stroke fill markers" d=" M 0 0 L 129.3008339347161 0 L 129.3008339347161 129.3008339347161 L 0 129.3008339347161 L 0 0 Z" fill-opacity="0.5882352941176471"/></g><g transform="translate(6,0)"><g transform="translate(0,377.58423255869894) rotate(811.9903578899066,0,0)"><path fill="rgb(255,0,0)" stroke="none" paint-order="stroke fill markers" d=" M 0 0 L 133.00650549676 0 L 133.00650549676 133.00650549676 L 0 133.00650549676 L 0 0 Z" fill-opacity="0.5882352941176471"/></g><g transform="translate(6,0)"><g transform="translate(0,391.10605117110566) rotate(785.3758458394291,0,0)"><path fill="rgb(255,127,0)" stroke="none" paint-order="stroke fill markers" d=" M 0 0 L 137.51377836756225 0 L 137.51377836756225 137.51377836756225 L 0 137.51377836756225 L 0 0 Z" fill-opacity="0.5882352941176471"/></g><g transform="translate(6,0)"><g transform="translate(0,400.8225826845295) rotate(767.303644563145,0,0)"><path fill="rgb(255,255,0)" stroke="none" paint-order="stroke fill markers" d=" M 0 0 L 140.75262220537022 0 L 140.75262220537022 140.75262220537022 L 0 140.75262220537022 L 0 0 Z" fill-opacity="0.5882352941176471"/></g><g transform="translate(6,0)"><g transform="translate(0,408.93587768383395) rotate(752.8385470435642,0,0)"><path fill="rgb(0,255,0)" stroke="none" paint-order="stroke fill markers" d=" M 0 0 L 143.45705387180502 0 L 143.45705387180502 143.45705387180502 L 0 143.45705387180502 L 0 0 Z" fill-opacity="0.5882352941176471"/></g><g transform="translate(6,0)"><g transform="translate(0,415.42414270462496) rotate(741.657339283674,0,0)"><path fill="rgb(0,0,255)" stroke="none" paint-order="stroke fill markers" d=" M 0 0 L 145.61980887873537 0 L 145.61980887873537 145.61980887873537 L 0 145.61980887873537 L 0 0 Z" fill-opacity="0.5882352941176471"/></g><g transform="translate(6,0)"><g transform="translate(0,413.1858761102571) rotate(745.4768193265385,0,0)"><path fill="rgb(75,0,130)" stroke="none" paint-order="stroke fill markers" d=" M 0 0 L 144.87372001394607 0 L 144.87372001394607 144.87372001394607 L 0 144.87372001394607 L 0 0 Z" fill-opacity="0.5882352941176471"/></g><g transform="translate(6,0)"><g transform="translate(0,408.2395362496211) rotate(754.0586154510122,0,0)"><path fill="rgb(148,0,211)" stroke="none" paint-order="stroke fill markers" d=" M 0 0 L 143.22494006040074 0 L 143.22494006040074 143.22494006040074 L 0 143.22494006040074 L 0 0 Z" fill-opacity="0.5882352941176471"/></g><g transform="translate(6,0)"><g transform="translate(0,409.251682399774) rotate(752.2865220646728,0,0)"><path fill="rgb(255,0,0)" stroke="none" paint-order="stroke fill markers" d=" M 0 0 L 143.5623221104517 0 L 143.5623221104517 143.5623221104517 L 0 143.5623221104517 L 0 0 Z" fill-opacity="0.5882352941176471"/></g><g transform="translate(6,0)"><g transform="translate(0,421.42816062198943) rotate(731.6024927878364,0,0)"><path fill="rgb(255,127,0)" stroke="none" paint-order="stroke fill markers" d=" M 0 0 L 147.62114818452352 0 L 147.62114818452352 147.62114818452352 L 0 147.62114818452352 L 0 0 Z" fill-opacity="0.5882352941176471"/></g><g transform="translate(6,0)"><g transform="translate(0,437.1974598845289) rotate(706.4475974918803,0,0)"><path fill="rgb(255,255,0)" stroke="none" paint-order="stroke fill markers" d=" M 0 0 L 152.87758127203668 0 L 152.87758127203668 152.87758127203668 L 0 152.87758127203668 L 0 0 Z" fill-opacity="0.5882352941176471"/></g><g transform="translate(6,0)"><g transform="translate(0,442.42716332330383) rotate(698.4829272501275,0,0)"><path fill="rgb(0,255,0)" stroke="none" paint-order="stroke fill markers" d=" M 0 0 L 154.62081575162833 0 L 154.62081575162833 154.62081575162833 L 0 154.62081575162833 L 0 0 Z" fill-opacity="0.5882352941176471"/></g><g transform="translate(6,0)"><g transform="translate(0,435.78592163112137) rotate(708.6285501593326,0,0)"><path fill="rgb(0,0,255)" stroke="none" paint-order="stroke fill markers" d=" M 0 0 L 152.40706852090082 0 L 152.40706852090082 152.40706852090082 L 0 152.40706852090082 L 0 0 Z" fill-opacity="0.5882352941176471"/></g><g transform="translate(6,0)"><g transform="translate(0,430.72264268392223) rotate(716.5637953650571,0,0)"><path fill="rgb(75,0,130)" stroke="none" paint-order="stroke fill markers" d=" M 0 0 L 150.71930887183444 0 L 150.71930887183444 150.71930887183444 L 0 150.71930887183444 L 0 0 Z" fill-opacity="0.5882352941176471"/></g><g transform="translate(6,0)"><g transform="translate(0,439.15864868910745) rotate(703.4395745434682,0,0)"><path fill="rgb(148,0,211)" stroke="none" paint-order="stroke fill markers" d=" M 0 0 L 153.53131087356286 0 L 153.53131087356286 153.53131087356286 L 0 153.53131087356286 L 0 0 Z" fill-opacity="0.5882352941176471"/></g><g transform="translate(6,0)"><g transform="translate(0,454.02901016316383) rotate(681.4391827610867,0,0)"><path fill="rgb(255,0,0)" stroke="none" paint-order="stroke fill markers" d=" M 0 0 L 158.48809803158164 0 L 158.48809803158164 158.48809803158164 L 0 158.48809803158164 L 0 0 Z" fill-opacity="0.5882352941176471"/></g><g transform="translate(6,0)"><g transform="translate(0,457.90052208294185) rotate(675.9353170252909,0,0)"><path fill="rgb(255,127,0)" stroke="none" paint-order="stroke fill markers" d=" M 0 0 L 159.778602004841 0 L 159.778602004841 159.778602004841 L 0 159.778602004841 L 0 0 Z" fill-opacity="0.5882352941176471"/></g><g transform="translate(6,0)"><g transform="translate(0,449.3369189389569) rotate(688.2309491180806,0,0)"><path fill="rgb(255,255,0)" stroke="none" paint-order="stroke fill markers" d=" M 0 0 L 156.92406762351268 0 L 156.92406762351268 156.92406762351268 L 0 156.92406762351268 L 0 0 Z" fill-opacity="0.5882352941176471"/></g><g transform="translate(6,0)"><g transform="translate(0,437.94920500618326) rotate(705.2915538118968,0,0)"><path fill="rgb(0,255,0)" stroke="none" paint-order="stroke fill markers" d=" M 0 0 L 153.1281629792548 0 L 153.1281629792548 153.1281629792548 L 0 153.1281629792548 L 0 0 Z" fill-opacity="0.5882352941176471"/></g><g transform="translate(6,0)"><g transform="translate(0,416.5568217515033) rotate(739.7393601300087,0,0)"><path fill="rgb(0,0,255)" stroke="none" paint-order="stroke fill markers" d=" M 0 0 L 145.99736856102814 0 L 145.99736856102814 145.99736856102814 L 0 145.99736856102814 L 0 0 Z" fill-opacity="0.5882352941176471"/></g><g transform="translate(6,0)"><g transform="translate(0,383.7622745089125) rotate(799.6099513703804,0,0)"><path fill="rgb(75,0,130)" stroke="none" paint-order="stroke fill markers" d=" M 0 0 L 135.06585281349788 0 L 135.06585281349788 135.06585281349788 L 0 135.06585281349788 L 0 0 Z" fill-opacity="0.5882352941176471"/></g><g transform="translate(6,0)"><g transform="translate(0,361.5915776465079) rotate(845.8936761382856,0,0)"><path fill="rgb(148,0,211)" stroke="none" paint-order="stroke fill markers" d=" M 0 0 L 127.67562052602968 0 L 127.67562052602968 127.67562052602968 L 0 127.67562052602968 L 0 0 Z" fill-opacity="0.5882352941176471"/></g><g transform="translate(6,0)"><g transform="translate(0,358.61123036386437) rotate(852.5272244652787,0,0)"><path fill="rgb(255,0,0)" stroke="none" paint-order="stroke fill markers" d=" M 0 0 L 126.68217143181516 0 L 126.68217143181516 126.68217143181516 L 0 126.68217143181516 L 0 0 Z" fill-opacity="0.5882352941176471"/></g><g transform="translate(6,0)"><g transform="translate(0,359.119463356206) rotate(851.3886695912935,0,0)"><path fill="rgb(255,127,0)" stroke="none" paint-order="stroke fill markers" d=" M 0 0 L 126.85158242926236 0 L 126.85158242926236 126.85158242926236 L 0 126.85158242926236 L 0 0 Z" fill-opacity="0.5882352941176471"/></g><g transform="translate(6,0)"><g transform="translate(0,349.4996691798567) rotate(873.4685078401402,0,0)"><path fill="rgb(255,255,0)" stroke="none" paint-order="stroke fill markers" d=" M 0 0 L 123.64498437047928 0 L 123.64498437047928 123.64498437047928 L 0 123.64498437047928 L 0 0 Z" fill-opacity="0.5882352941176471"/></g><g transform="translate(6,0)"><g transform="translate(0,336.63691983004867) rotate(904.8454378650631,0,0)"><path fill="rgb(0,255,0)" stroke="none" paint-order="stroke fill markers" d=" M 0 0 L 119.3574012538766 0 L 119.3574012538766 119.3574012538766 L 0 119.3574012538766 L 0 0 Z" fill-opacity="0.5882352941176471"/></g><g transform="translate(6,0)"><g transform="translate(0,335.6515301747518) rotate(907.3423806220961,0,0)"><path fill="rgb(0,0,255)" stroke="none" paint-order="stroke fill markers" d=" M 0 0 L 119.02893803544431 0 L 119.02893803544431 119.02893803544431 L 0 119.02893803544431 L 0 0 Z" fill-opacity="0.5882352941176471"/></g><g transform="translate(6,0)"><g transform="translate(0,346.9696790562182) rotate(879.4669794139829,0,0)"><path fill="rgb(75,0,130)" stroke="none" paint-order="stroke fill markers" d=" M 0 0 L 122.80165432926644 0 L 122.80165432926644 122.80165432926644 L 0 122.80165432926644 L 0 0 Z" fill-opacity="0.5882352941176471"/></g><g transform="translate(6,0)"><g transform="translate(0,357.3027815628032) rotate(855.4725007032704,0,0)"><path fill="rgb(148,0,211)" stroke="none" paint-order="stroke fill markers" d=" M 0 0 L 126.24602183146145 0 L 126.24602183146145 126.24602183146145 L 0 126.24602183146145 L 0 0 Z" fill-opacity="0.5882352941176471"/></g><g transform="translate(6,0)"><g transform="translate(0,354.7468372120967) rotate(861.2849515946359,0,0)"><path fill="rgb(255,0,0)" stroke="none" paint-order="stroke fill markers" d=" M 0 0 L 125.39404038122593 0 L 125.39404038122593 125.39404038122593 L 0 125.39404038122593 L 0 0 Z" fill-opacity="0.5882352941176471"/></g><g transform="translate(6,0)"><g transform="translate(0,347.68585397417263) rotate(877.7606230795855,0,0)"><path fill="rgb(255,127,0)" stroke="none" paint-order="stroke fill markers" d=" M 0 0 L 123.04037930191792 0 L 123.04037930191792 123.04037930191792 L 0 123.04037930191792 L 0 0 Z" fill-opacity="0.5882352941176471"/></g><g transform="translate(6,0)"><g transform="translate(0,354.2181146997812) rotate(862.4971880474026,0,0)"><path fill="rgb(255,255,0)" stroke="none" paint-order="stroke fill markers" d=" M 0 0 L 125.21779954378745 0 L 125.21779954378745 125.21779954378745 L 0 125.21779954378745 L 0 0 Z" fill-opacity="0.5882352941176471"/></g><g transform="translate(6,0)"><g transform="translate(0,369.68870479694664) rotate(828.3818158361098,0,0)"><path fill="rgb(0,255,0)" stroke="none" paint-order="stroke fill markers" d=" M 0 0 L 130.37466290950925 0 L 130.37466290950925 130.37466290950925 L 0 130.37466290950925 L 0 0 Z" fill-opacity="0.5882352941176471"/></g><g transform="translate(6,0)"><g transform="translate(0,377.91606487829046) rotate(811.3156521583559,0,0)"><path fill="rgb(0,0,255)" stroke="none" paint-order="stroke fill markers" d=" M 0 0 L 133.1171162699572 0 L 133.1171162699572 133.1171162699572 L 0 133.1171162699572 L 0 0 Z" fill-opacity="0.5882352941176471"/></g><g transform="translate(6,0)"><g transform="translate(0,382.3810040219989) rotate(802.3450506217442,0,0)"><path fill="rgb(75,0,130)" stroke="none" paint-order="stroke fill markers" d=" M 0 0 L 134.60542931786 0 L 134.60542931786 134.60542931786 L 0 134.60542931786 L 0 0 Z" fill-opacity="0.5882352941176471"/></g><g transform="translate(6,0)"><g transform="translate(0,390.40575182148575) rotate(786.7113081812107,0,0)"><path fill="rgb(148,0,211)" stroke="none" paint-order="stroke fill markers" d=" M 0 0 L 137.28034525102228 0 L 137.28034525102228 137.28034525102228 L 0 137.28034525102228 L 0 0 Z" fill-opacity="0.5882352941176471"/></g><g transform="translate(6,0)"><g transform="translate(0,391.84398253991725) rotate(783.9735169060182,0,0)"><path fill="rgb(255,0,0)" stroke="none" paint-order="stroke fill markers" d=" M 0 0 L 137.75975549049946 0 L 137.75975549049946 137.75975549049946 L 0 137.75975549049946 L 0 0 Z" fill-opacity="0.5882352941176471"/></g><g transform="translate(6,0)"><g transform="translate(0,381.63141516090275) rotate(803.8371831002046,0,0)"><path fill="rgb(255,127,0)" stroke="none" paint-order="stroke fill markers" d=" M 0 0 L 134.3555663641613 0 L 134.3555663641613 134.3555663641613 L 0 134.3555663641613 L 0 0 Z" fill-opacity="0.5882352941176471"/></g><g transform="translate(6,0)"><g transform="translate(0,369.92772977912966) rotate(827.8758815964544,0,0)"><path fill="rgb(255,255,0)" stroke="none" paint-order="stroke fill markers" d=" M 0 0 L 130.45433790357026 0 L 130.45433790357026 130.45433790357026 L 0 130.45433790357026 L 0 0 Z" fill-opacity="0.5882352941176471"/></g><g transform="translate(6,0)"><g transform="translate(0,358.0718108479922) rotate(853.738980000326,0,0)"><path fill="rgb(0,255,0)" stroke="none" paint-order="stroke fill markers" d=" M 0 0 L 126.50236492652444 0 L 126.50236492652444 126.50236492652444 L 0 126.50236492652444 L 0 0 Z" fill-opacity="0.5882352941176471"/></g><g transform="translate(6,0)"><g transform="translate(0,343.9618334453144) rotate(886.7065025743054,0,0)"><path fill="rgb(0,0,255)" stroke="none" paint-order="stroke fill markers" d=" M 0 0 L 121.79903912563185 0 L 121.79903912563185 121.79903912563185 L 0 121.79903912563185 L 0 0 Z" fill-opacity="0.5882352941176471"/></g><g transform="translate(6,0)"><g transform="translate(0,333.97173467787724) rotate(911.6308430476715,0,0)"><path fill="rgb(75,0,130)" stroke="none" paint-order="stroke fill markers" d=" M 0 0 L 118.46900620315279 0 L 118.46900620315279 118.46900620315279 L 0 118.46900620315279 L 0 0 Z" fill-opacity="0.5882352941176471"/></g><g transform="translate(6,0)"><g transform="translate(0,328.981306441057) rotate(924.6137566016886,0,0)"><path fill="rgb(148,0,211)" stroke="none" paint-order="stroke fill markers" d=" M 0 0 L 116.8055301242127 0 L 116.8055301242127 116.8055301242127 L 0 116.8055301242127 L 0 0 Z" fill-opacity="0.5882352941176471"/></g><g transform="translate(6,0)"><g transform="translate(0,328.6195352369907) rotate(925.5693173130551,0,0)"><path fill="rgb(255,0,0)" stroke="none" paint-order="stroke fill markers" d=" M 0 0 L 116.68493972285728 0 L 116.68493972285728 116.68493972285728 L 0 116.68493972285728 L 0 0 Z" fill-opacity="0.5882352941176471"/></g><g transform="translate(6,0)"><g transform="translate(0,333.65262265304966) rotate(912.4501116254677,0,0)"><path fill="rgb(255,127,0)" stroke="none" paint-order="stroke fill markers" d=" M 0 0 L 118.36263552821026 0 L 118.36263552821026 118.36263552821026 L 0 118.36263552821026 L 0 0 Z" fill-opacity="0.5882352941176471"/></g><g transform="translate(6,0)"><g transform="translate(0,344.3184412488656) rotate(885.8419687732577,0,0)"><path fill="rgb(255,255,0)" stroke="none" paint-order="stroke fill markers" d=" M 0 0 L 121.91790839348225 0 L 121.91790839348225 121.91790839348225 L 0 121.91790839348225 L 0 0 Z" fill-opacity="0.5882352941176471"/></g><g transform="translate(6,0)"><g transform="translate(0,357.40078870551156) rotate(855.251184884859,0,0)"><path fill="rgb(0,255,0)" stroke="none" paint-order="stroke fill markers" d=" M 0 0 L 126.27869087903089 0 L 126.27869087903089 126.27869087903089 L 0 126.27869087903089 L 0 0 Z" fill-opacity="0.5882352941176471"/></g><g transform="translate(6,0)"><g transform="translate(0,367.26451674305713) rotate(833.5481506233256,0,0)"><path fill="rgb(0,0,255)" stroke="none" paint-order="stroke fill markers" d=" M 0 0 L 129.5666002248794 0 L 129.5666002248794 129.5666002248794 L 0 129.5666002248794 L 0 0 Z" fill-opacity="0.5882352941176471"/></g><g transform="translate(6,0)"><g transform="translate(0,372.52724140008144) rotate(822.4132478774123,0,0)"><path fill="rgb(75,0,130)" stroke="none" paint-order="stroke fill markers" d=" M 0 0 L 131.32084177722086 0 L 131.32084177722086 131.32084177722086 L 0 131.32084177722086 L 0 0 Z" fill-opacity="0.5882352941176471"/></g><g transform="translate(6,0)"><g transform="translate(0,382.9399027613789) rotate(801.2361061263917,0,0)"><path fill="rgb(148,0,211)" stroke="none" paint-order="stroke fill markers" d=" M 0 0 L 134.79172889765334 0 L 134.79172889765334 134.79172889765334 L 0 134.79172889765334 L 0 0 Z" fill-opacity="0.5882352941176471"/></g><g transform="translate(6,0)"><g transform="translate(0,394.0862899335649) rotate(779.7429071761059,0,0)"><path fill="rgb(255,0,0)" stroke="none" paint-order="stroke fill markers" d=" M 0 0 L 138.50719128838202 0 L 138.50719128838202 138.50719128838202 L 0 138.50719128838202 L 0 0 Z" fill-opacity="0.5882352941176471"/></g><g transform="translate(6,0)"><g transform="translate(0,384.9820810948209) rotate(797.2100305776847,0,0)"><path fill="rgb(255,127,0)" stroke="none" paint-order="stroke fill markers" d=" M 0 0 L 135.47245500880067 0 L 135.47245500880067 135.47245500880067 L 0 135.47245500880067 L 0 0 Z" fill-opacity="0.5882352941176471"/></g><g transform="translate(6,0)"><g transform="translate(0,361.18715072076077) rotate(846.7877747273043,0,0)"><path fill="rgb(255,255,0)" stroke="none" paint-order="stroke fill markers" d=" M 0 0 L 127.54081155078063 0 L 127.54081155078063 127.54081155078063 L 0 127.54081155078063 L 0 0 Z" fill-opacity="0.5882352941176471"/></g><g transform="translate(6,0)"><g transform="translate(0,348.31892125987116) rotate(876.2577827403977,0,0)"><path fill="rgb(0,255,0)" stroke="none" paint-order="stroke fill markers" d=" M 0 0 L 123.25140173048409 0 L 123.25140173048409 123.25140173048409 L 0 123.25140173048409 L 0 0 Z" fill-opacity="0.5882352941176471"/></g><g transform="translate(6,0)"><g transform="translate(0,350.7232815784769) rotate(870.596648920186,0,0)"><path fill="rgb(0,0,255)" stroke="none" paint-order="stroke fill markers" d=" M 0 0 L 124.05285517001933 0 L 124.05285517001933 124.05285517001933 L 0 124.05285517001933 L 0 0 Z" fill-opacity="0.5882352941176471"/></g><g transform="translate(6,0)"><g transform="translate(0,359.5949827334117) rotate(850.3261508222006,0,0)"><path fill="rgb(75,0,130)" stroke="none" paint-order="stroke fill markers" d=" M 0 0 L 127.01008888833094 0 L 127.01008888833094 127.01008888833094 L 0 127.01008888833094 L 0 0 Z" fill-opacity="0.5882352941176471"/></g><g transform="translate(6,0)"><g transform="translate(0,376.57021939238473) rotate(814.059095399675,0,0)"><path fill="rgb(148,0,211)" stroke="none" paint-order="stroke fill markers" d=" M 0 0 L 132.66850110798862 0 L 132.66850110798862 132.66850110798862 L 0 132.66850110798862 L 0 0 Z" fill-opacity="0.5882352941176471"/></g><g transform="translate(6,0)"><g transform="translate(0,398.5595191999309) rotate(771.4381168153326,0,0)"><path fill="rgb(255,0,0)" stroke="none" paint-order="stroke fill markers" d=" M 0 0 L 139.998267710504 0 L 139.998267710504 139.998267710504 L 0 139.998267710504 L 0 0 Z" fill-opacity="0.5882352941176471"/></g><g transform="translate(6,0)"><g transform="translate(0,411.8001979801224) rotate(747.8611829536934,0,0)"><path fill="rgb(255,127,0)" stroke="none" paint-order="stroke fill markers" d=" M 0 0 L 144.41182730390116 0 L 144.41182730390116 144.41182730390116 L 0 144.41182730390116 L 0 0 Z" fill-opacity="0.5882352941176471"/></g><g transform="translate(6,0)"><g transform="translate(0,420.3751234633695) rotate(733.3462376099358,0,0)"><path fill="rgb(255,255,0)" stroke="none" paint-order="stroke fill markers" d=" M 0 0 L 147.2701357983169 0 L 147.2701357983169 147.2701357983169 L 0 147.2701357983169 L 0 0 Z" fill-opacity="0.5882352941176471"/></g><g transform="translate(6,0)"><g transform="translate(0,427.1285471453896) rotate(722.305227378896,0,0)"><path fill="rgb(0,255,0)" stroke="none" paint-order="stroke fill markers" d=" M 0 0 L 149.5212770256569 0 L 149.5212770256569 149.5212770256569 L 0 149.5212770256569 L 0 0 Z" fill-opacity="0.5882352941176471"/></g><g transform="translate(6,0)"><g transform="translate(0,419.6204815634184) rotate(734.6009855156816,0,0)"><path fill="rgb(0,0,255)" stroke="none" paint-order="stroke fill markers" d=" M 0 0 L 147.01858849833317 0 L 147.01858849833317 147.01858849833317 L 0 147.01858849833317 L 0 0 Z" fill-opacity="0.5882352941176471"/></g><g transform="translate(6,0)"><g transform="translate(0,406.01741575203397) rotate(757.9786026379363,0,0)"><path fill="rgb(75,0,130)" stroke="none" paint-order="stroke fill markers" d=" M 0 0 L 142.4842332278717 0 L 142.4842332278717 142.4842332278717 L 0 142.4842332278717 L 0 0 Z" fill-opacity="0.5882352941176471"/></g><g transform="translate(6,0)"><g transform="translate(0,395.29396807638636) rotate(777.4832182738287,0,0)"><path fill="rgb(148,0,211)" stroke="none" paint-order="stroke fill markers" d=" M 0 0 L 138.9097506693225 0 L 138.9097506693225 138.9097506693225 L 0 138.9097506693225 L 0 0 Z" fill-opacity="0.5882352941176471"/></g><g transform="translate(6,0)"><g transform="translate(0,373.36483556606044) rotate(820.6684446100718,0,0)"><path fill="rgb(255,0,0)" stroke="none" paint-order="stroke fill markers" d=" M 0 0 L 131.6000398325472 0 L 131.6000398325472 131.6000398325472 L 0 131.6000398325472 L 0 0 Z" fill-opacity="0.5882352941176471"/></g><g transform="translate(6,0)"><g transform="translate(0,335.5124182696605) rotate(907.6959958053849,0,0)"><path fill="rgb(255,127,0)" stroke="none" paint-order="stroke fill markers" d=" M 0 0 L 118.98256740041387 0 L 118.98256740041387 118.98256740041387 L 0 118.98256740041387 L 0 0 Z" fill-opacity="0.5882352941176471"/></g><g transform="translate(6,0)"><g transform="translate(0,304.26980748445254) rotate(994.7649224375932,0,0)"><path fill="rgb(255,255,0)" stroke="none" paint-order="stroke fill markers" d=" M 0 0 L 108.56836380534456 0 L 108.56836380534456 108.56836380534456 L 0 108.56836380534456 L 0 0 Z" fill-opacity="0.5882352941176471"/></g><g transform="translate(6,0)"><g transform="translate(0,281.2060664588576) rotate(1070.5741286906314,0,0)"><path fill="rgb(0,255,0)" stroke="none" paint-order="stroke fill markers" d=" M 0 0 L 100.88045013014624 0 L 100.88045013014624 100.88045013014624 L 0 100.88045013014624 L 0 0 Z" fill-opacity="0.5882352941176471"/></g><g transform="translate(6,0)"><g transform="translate(0,261.2776715357652) rotate(1146.0387425981348,0,0)"><path fill="rgb(0,0,255)" stroke="none" paint-order="stroke fill markers" d=" M 0 0 L 94.23765182244877 0 L 94.23765182244877 94.23765182244877 L 0 94.23765182244877 L 0 0 Z" fill-opacity="0.5882352941176471"/></g><g transform="translate(6,0)"><g transform="translate(0,245.63144081169628) rotate(1213.1799658360685,0,0)"><path fill="rgb(75,0,130)" stroke="none" paint-order="stroke fill markers" d=" M 0 0 L 89.02224158109247 0 L 89.02224158109247 89.02224158109247 L 0 89.02224158109247 L 0 0 Z" fill-opacity="0.5882352941176471"/></g><g transform="translate(6,0)"><g transform="translate(0,239.8324102934739) rotate(1240.1073962129722,0,0)"><path fill="rgb(148,0,211)" stroke="none" paint-order="stroke fill markers" d=" M 0 0 L 87.08923140835168 0 L 87.08923140835168 87.08923140835168 L 0 87.08923140835168 L 0 0 Z" fill-opacity="0.5882352941176471"/></g><g transform="translate(6,0)"><g transform="translate(0,242.56189551500563) rotate(1227.2858394896348,0,0)"><path fill="rgb(255,0,0)" stroke="none" paint-order="stroke fill markers" d=" M 0 0 L 87.99905981552892 0 L 87.99905981552892 87.99905981552892 L 0 87.99905981552892 L 0 0 Z" fill-opacity="0.5882352941176471"/></g><g transform="translate(6,0)"><g transform="translate(0,244.38396502412837) rotate(1218.8733557590651,0,0)"><path fill="rgb(255,127,0)" stroke="none" paint-order="stroke fill markers" d=" M 0 0 L 88.60641631856983 0 L 88.60641631856983 88.60641631856983 L 0 88.60641631856983 L 0 0 Z" fill-opacity="0.5882352941176471"/></g><g transform="translate(6,0)"/></g></g></g></g></g></g></g></g></g></g></g></g></g></g></g></g></g></g></g></g></g></g></g></g></g></g></g></g></g></g></g></g></g></g></g></g></g></g></g></g></g></g></g></g></g></g></g></g></g></g></g></g></g></g></g></g></g></g></g></g></g></g></g></g></g></g></g></g></g></g></g></g></g></g></g></g></g></g></g></g></g></g></g></g></g></g></g></g></g></g></g></g></g></g></g></g></g></g></g></g></g></svg>