<svg version="1.1" xmlns="http://www.w3.org/2000/svg" xmlns:xlink="http://www.w3.org/1999/xlink" width="600" height="600" viewBox="0 0 600 600"><defs/><g transform="scale(1,1)"><g transform="scale(1,1)"><rect fill="rgb(0,0,0)" stroke="none" x="0" y="0" width="600" height="600" fill-opacity="1"/></g><g><g transform="translate(0,300)"><path fill="rgb(255,0,0)" stroke="none" paint-order="stroke fill markers" d=" M 0 0 L 169.64418877781358 0 L 169.64418877781358 169.64418877781358 L 0 169.64418877781358 L 0 0 Z" fill-opacity="0.5882352941176471"/></g><g transform="translate(6,0)"><g transform="translate(0,306.1426348991347)"><path fill="rgb(255,127,0)" stroke="none" paint-order="stroke fill markers" d=" M 0 0 L 175.78682367694825 0 L 175.78682367694825 175.78682367694825 L 0 175.78682367694825 L 0 0 Z" fill-opacity="0.5882352941176471"/></g><g transform="translate(6,0)"><g transform="translate(0,322.56029855618334)"><path fill="rgb(255,255,0)" stroke="none" paint-order="stroke fill markers" d=" M 0 0 L 192.20448733399692 0 L 192.20448733399692 192.20448733399692 L 0 192.20448733399692 L 0 0 Z" fill-opacity="0.5882352941176471"/></g><g transform="translate(6,0)"><g transform="translate(0,344.20089483395077)"><path fill="rgb(0,255,0)" stroke="none" paint-order="stroke fill markers" d=" M 0 0 L 213.84508361176438 0 L 213.84508361176438 213.84508361176438 L 0 213.84508361176438 L 0 0 Z" fill-opacity="0.5882352941176471"/></g><g transform="translate(6,0)"><g transform="translate(0,365.3896264201872)"><path fill="rgb(0,0,255)" stroke="none" paint-order="stroke fill markers" d=" M 0 0 L 235.03381519800078 0 L 235.03381519800078 235.03381519800078 L 0 235.03381519800078 L 0 0 Z" fill-opacity="0.5882352941176471"/></g><g transform="translate(6,0)"><g transform="translate(0,381.856447448007)"><path fill="rgb(75,0,130)" stroke="none" paint-order="stroke fill markers" d=" M 0 0 L 251.50063622582059 0 L 251.50063622582059 251.50063622582059 L 0 251.50063622582059 L 0 0 Z" fill-opacity="0.5882352941176471"/></g><g transform="translate(6,0)"><g transform="translate(0,392.5667437696259)"><path fill="rgb(148,0,211)" stroke="none" paint-order="stroke fill markers" d=" M 0 0 L 262.2109325474394 0 L 262.2109325474394 262.2109325474394 L 0 262.2109325474394 L 0 0 Z" fill-opacity="0.5882352941176471"/></g><g transform="translate(6,0)"><g transform="translate(0,401.0771689797965)"><path fill="rgb(255,0,0)" stroke="none" paint-order="stroke fill markers" d=" M 0 0 L 270.7213577576101 0 L 270.7213577576101 270.7213577576101 L 0 270.7213577576101 L 0 0 Z" fill-opacity="0.5882352941176471"/></g><g transform="translate(6,0)"><g transform="translate(0,412.04877598798964)"><path fill="rgb(255,127,0)" stroke="none" paint-order="stroke fill markers" d=" M 0 0 L 281.6929647658032 0 L 281.6929647658032 281.6929647658032 L 0 281.6929647658032 L 0 0 Z" fill-opacity="0.5882352941176471"/></g><g transform="translate(6,0)"><g transform="translate(0,428.1170013092611)"><path fill="rgb(255,255,0)" stroke="none" paint-order="stroke fill markers" d=" M 0 0 L 297.76119008707474 0 L 297.76119008707474 297.76119008707474 L 0 297.76119008707474 L 0 0 Z" fill-opacity="0.5882352941176471"/></g><g transform="translate(6,0)"><g transform="translate(0,447.9350402374258)"><path fill="rgb(0,255,0)" stroke="none" paint-order="stroke fill markers" d=" M 0 0 L 317.5792290152394 0 L 317.5792290152394 317.5792290152394 L 0 317.5792290152394 L 0 0 Z" fill-opacity="0.5882352941176471"/></g><g transform="translate(6,0)"><g transform="translate(0,466.978683047656)"><path fill="rgb(0,0,255)" stroke="none" paint-order="stroke fill markers" d=" M 0 0 L 336.62287182546953 0 L 336.62287182546953 336.62287182546953 L 0 336.62287182546953 L 0 0 Z" fill-opacity="0.5882352941176471"/></g><g transform="translate(6,0)"><g transform="translate(0,479.8151134561026)"><path fill="rgb(75,0,130)" stroke="none" paint-order="stroke fill markers" d=" M 0 0 L 349.45930223391616 0 L 349.45930223391616 349.45930223391616 L 0 349.45930223391616 L 0 0 Z" fill-opacity="0.5882352941176471"/></g><g transform="translate(6,0)"><g transform="translate(0,484.2420330454223)"><path fill="rgb(148,0,211)" stroke="none" paint-order="stroke fill markers" d=" M 0 0 L 353.88622182323587 0 L 353.88622182323587 353.88622182323587 L 0 353.88622182323587 L 0 0 Z" fill-opacity="0.5882352941176471"/></g><g transform="translate(6,0)"><g transform="translate(0,486.39586503011003)"><path fill="rgb(255,0,0)" stroke="none" paint-order="stroke fill markers" d=" M 0 0 L 356.0400538079236 0 L 356.0400538079236 356.0400538079236 L 0 356.0400538079236 L 0 0 Z" fill-opacity="0.5882352941176471"/></g><g transform="translate(6,0)"><g transform="translate(0,489.00929889376164)"><path fill="rgb(255,127,0)" stroke="none" paint-order="stroke fill markers" d=" M 0 0 L 358.65348767157525 0 L 358.65348767157525 358.65348767157525 L 0 358.65348767157525 L 0 0 Z" fill-opacity="0.5882352941176471"/></g><g transform="translate(6,0)"><g transform="translate(0,493.8838487627818)"><path fill="rgb(255,255,0)" stroke="none" paint-order="stroke fill markers" d=" M 0 0 L 363.5280375405954 0 L 363.5280375405954 363.5280375405954 L 0 363.5280375405954 L 0 0 Z" fill-opacity="0.5882352941176471"/></g><g transform="translate(6,0)"><g transform="translate(0,502.09366646559806)"><path fill="rgb(0,255,0)" stroke="none" paint-order="stroke fill markers" d=" M 0 0 L 371.7378552434116 0 L 371.7378552434116 371.7378552434116 L 0 371.7378552434116 L 0 0 Z" fill-opacity="0.5882352941176471"/></g><g transform="translate(6,0)"><g transform="translate(0,512.4180600855365)"><path fill="rgb(0,0,255)" stroke="none" paint-order="stroke fill markers" d=" M 0 0 L 382.0622488633501 0 L 382.0622488633501 382.0622488633501 L 0 382.0622488633501 L 0 0 Z" fill-opacity="0.5882352941176471"/></g><g transform="translate(6,0)"><g transform="translate(0,524.1373876816356)"><path fill="rgb(75,0,130)" stroke="none" paint-order="stroke fill markers" d=" M 0 0 L 393.7815764594491 0 L 393.7815764594491 393.7815764594491 L 0 393.7815764594491 L 0 0 Z" fill-opacity="0.5882352941176471"/></g><g transform="translate(6,0)"><g transform="translate(0,536.6756686725363)"><path fill="rgb(148,0,211)" stroke="none" paint-order="stroke fill markers" d=" M 0 0 L 406.31985745034984 0 L 406.31985745034984 406.31985745034984 L 0 406.31985745034984 L 0 0 Z" fill-opacity="0.5882352941176471"/></g><g transform="translate(6,0)"><g transform="translate(0,549.0460841076081)"><path fill="rgb(255,0,0)" stroke="none" paint-order="stroke fill markers" d=" M 0 0 L 418.6902728854216 0 L 418.6902728854216 418.6902728854216 L 0 418.6902728854216 L 0 0 Z" fill-opacity="0.5882352941176471"/></g><g transform="translate(6,0)"><g transform="translate(0,558.6552568193049)"><path fill="rgb(255,127,0)" stroke="none" paint-order="stroke fill markers" d=" M 0 0 L 428.29944559711845 0 L 428.29944559711845 428.29944559711845 L 0 428.29944559711845 L 0 0 Z" fill-opacity="0.5882352941176471"/></g><g transform="translate(6,0)"><g transform="translate(0,563.9548943686216)"><path fill="rgb(255,255,0)" stroke="none" paint-order="stroke fill markers" d=" M 0 0 L 433.59908314643513 0 L 433.59908314643513 433.59908314643513 L 0 433.59908314643513 L 0 0 Z" fill-opacity="0.5882352941176471"/></g><g transform="translate(6,0)"><g transform="translate(0,564.9061716135067)"><path fill="rgb(0,255,0)" stroke="none" paint-order="stroke fill markers" d=" M 0 0 L 434.5503603913202 0 L 434.5503603913202 434.5503603913202 L 0 434.5503603913202 L 0 0 Z" fill-opacity="0.5882352941176471"/></g><g transform="translate(6,0)"><g transform="translate(0,561.9014215502015)"><path fill="rgb(0,0,255)" stroke="none" paint-order="stroke fill markers" d=" M 0 0 L 431.545610328015 0 L 431.545610328015 431.545610328015 L 0 431.545610328015 L 0 0 Z" fill-opacity="0.5882352941176471"/></g><g transform="translate(6,0)"><g transform="translate(0,554.5876768186895)"><path fill="rgb(75,0,130)" stroke="none" paint-order="stroke fill markers" d=" M 0 0 L 424.23186559650304 0 L 424.23186559650304 424.23186559650304 L 0 424.23186559650304 L 0 0 Z" fill-opacity="0.5882352941176471"/></g><g transform="translate(6,0)"><g transform="translate(0,543.627374710419)"><path fill="rgb(148,0,211)" stroke="none" paint-order="stroke fill markers" d=" M 0 0 L 413.2715634882326 0 L 413.2715634882326 413.2715634882326 L 0 413.2715634882326 L 0 0 Z" fill-opacity="0.5882352941176471"/></g><g transform="translate(6,0)"><g transform="translate(0,532.0523041023124)"><path fill="rgb(255,0,0)" stroke="none" paint-order="stroke fill markers" d=" M 0 0 L 401.696492880126 0 L 401.696492880126 401.696492880126 L 0 401.696492880126 L 0 0 Z" fill-opacity="0.5882352941176471"/></g><g transform="translate(6,0)"><g transform="translate(0,523.0675560957804)"><path fill="rgb(255,127,0)" stroke="none" paint-order="stroke fill markers" d=" M 0 0 L 392.71174487359406 0 L 392.71174487359406 392.71174487359406 L 0 392.71174487359406 L 0 0 Z" fill-opacity="0.5882352941176471"/></g><g transform="translate(6,0)"><g transform="translate(0,519.519107915476)"><path fill="rgb(255,255,0)" stroke="none" paint-order="stroke fill markers" d=" M 0 0 L 389.1632966932895 0 L 389.1632966932895 389.1632966932895 L 0 389.1632966932895 L 0 0 Z" fill-opacity="0.5882352941176471"/></g><g transform="translate(6,0)"><g transform="translate(0,522.3820885303365)"><path fill="rgb(0,255,0)" stroke="none" paint-order="stroke fill markers" d=" M 0 0 L 392.0262773081501 0 L 392.0262773081501 392.0262773081501 L 0 392.0262773081501 L 0 0 Z" fill-opacity="0.5882352941176471"/></g><g transform="translate(6,0)"><g transform="translate(0,527.9540484382808)"><path fill="rgb(0,0,255)" stroke="none" paint-order="stroke fill markers" d=" M 0 0 L 397.59823721609433 0 L 397.59823721609433 397.59823721609433 L 0 397.59823721609433 L 0 0 Z" fill-opacity="0.5882352941176471"/></g><g transform="translate(6,0)"><g transform="translate(0,531.7036720602614)"><path fill="rgb(75,0,130)" stroke="none" paint-order="stroke fill markers" d=" M 0 0 L 401.34786083807495 0 L 401.34786083807495 401.34786083807495 L 0 401.34786083807495 L 0 0 Z" fill-opacity="0.5882352941176471"/></g><g transform="translate(6,0)"><g transform="translate(0,531.6497760609379)"><path fill="rgb(148,0,211)" stroke="none" paint-order="stroke fill markers" d=" M 0 0 L 401.2939648387515 0 L 401.2939648387515 401.2939648387515 L 0 401.2939648387515 L 0 0 Z" fill-opacity="0.5882352941176471"/></g><g transform="translate(6,0)"><g transform="translate(0,530.2379388767976)"><path fill="rgb(255,0,0)" stroke="none" paint-order="stroke fill markers" d=" M 0 0 L 399.8821276546111 0 L 399.8821276546111 399.8821276546111 L 0 399.8821276546111 L 0 0 Z" fill-opacity="0.5882352941176471"/></g><g transform="translate(6,0)"><g transform="translate(0,528.9374783975932)"><path fill="rgb(255,127,0)" stroke="none" paint-order="stroke fill markers" d=" M 0 0 L 398.5816671754067 0 L 398.5816671754067 398.5816671754067 L 0 398.5816671754067 L 0 0 Z" fill-opacity="0.5882352941176471"/></g><g transform="translate(6,0)"><g transform="translate(0,529.3776805581999)"><path fill="rgb(255,255,0)" stroke="none" paint-order="stroke fill markers" d=" M 0 0 L 399.0218693360135 0 L 399.0218693360135 399.0218693360135 L 0 399.0218693360135 L 0 0 Z" fill-opacity="0.5882352941176471"/></g><g transform="translate(6,0)"><g transform="translate(0,532.4256132432936)"><path fill="rgb(0,255,0)" stroke="none" paint-order="stroke fill markers" d=" M 0 0 L 402.06980202110714 0 L 402.06980202110714 402.06980202110714 L 0 402.06980202110714 L 0 0 Z" fill-opacity="0.5882352941176471"/></g><g transform="translate(6,0)"><g transform="translate(0,536.9362705421489)"><path fill="rgb(0,0,255)" stroke="none" paint-order="stroke fill markers" d=" M 0 0 L 406.58045931996253 0 L 406.58045931996253 406.58045931996253 L 0 406.58045931996253 L 0 0 Z" fill-opacity="0.5882352941176471"/></g><g transform="translate(6,0)"><g transform="translate(0,542.1126457038381)"><path fill="rgb(75,0,130)" stroke="none" paint-order="stroke fill markers" d=" M 0 0 L 411.7568344816517 0 L 411.7568344816517 411.7568344816517 L 0 411.7568344816517 L 0 0 Z" fill-opacity="0.5882352941176471"/></g><g transform="translate(6,0)"><g transform="translate(0,547.1112443432953)"><path fill="rgb(148,0,211)" stroke="none" paint-order="stroke fill markers" d=" M 0 0 L 416.75543312110887 0 L 416.75543312110887 416.75543312110887 L 0 416.75543312110887 L 0 0 Z" fill-opacity="0.5882352941176471"/></g><g transform="translate(6,0)"><g transform="translate(0,551.2510297713588)"><path fill="rgb(255,0,0)" stroke="none" paint-order="stroke fill markers" d=" M 0 0 L 420.8952185491724 0 L 420.8952185491724 420.8952185491724 L 0 420.8952185491724 L 0 0 Z" fill-opacity="0.5882352941176471"/></g><g transform="translate(6,0)"><g transform="translate(0,554.9671171989125)"><path fill="rgb(255,127,0)" stroke="none" paint-order="stroke fill markers" d=" M 0 0 L 424.6113059767261 0 L 424.6113059767261 424.6113059767261 L 0 424.6113059767261 L 0 0 Z" fill-opacity="0.5882352941176471"/></g><g transform="translate(6,0)"><g transform="translate(0,557.6518725163763)"><path fill="rgb(255,255,0)" stroke="none" paint-order="stroke fill markers" d=" M 0 0 L 427.2960612941899 0 L 427.2960612941899 427.2960612941899 L 0 427.2960612941899 L 0 0 Z" fill-opacity="0.5882352941176471"/></g><g transform="translate(6,0)"><g transform="translate(0,558.0738070278493)"><path fill="rgb(0,255,0)" stroke="none" paint-order="stroke fill markers" d=" M 0 0 L 427.7179958056629 0 L 427.7179958056629 427.7179958056629 L 0 427.7179958056629 L 0 0 Z" fill-opacity="0.5882352941176471"/></g><g transform="translate(6,0)"><g transform="translate(0,555.2454292419101)"><path fill="rgb(0,0,255)" stroke="none" paint-order="stroke fill markers" d=" M 0 0 L 424.8896180197236 0 L 424.8896180197236 424.8896180197236 L 0 424.8896180197236 L 0 0 Z" fill-opacity="0.5882352941176471"/></g><g transform="translate(6,0)"><g transform="translate(0,548.2869936149135)"><path fill="rgb(75,0,130)" stroke="none" paint-order="stroke fill markers" d=" M 0 0 L 417.93118239272707 0 L 417.93118239272707 417.93118239272707 L 0 417.93118239272707 L 0 0 Z" fill-opacity="0.5882352941176471"/></g><g transform="translate(6,0)"><g transform="translate(0,537.8487034751419)"><path fill="rgb(148,0,211)" stroke="none" paint-order="stroke fill markers" d=" M 0 0 L 407.4928922529554 0 L 407.4928922529554 407.4928922529554 L 0 407.4928922529554 L 0 0 Z" fill-opacity="0.5882352941176471"/></g><g transform="translate(6,0)"><g transform="translate(0,525.862590920896)"><path fill="rgb(255,0,0)" stroke="none" paint-order="stroke fill markers" d=" M 0 0 L 395.5067796987095 0 L 395.5067796987095 395.5067796987095 L 0 395.5067796987095 L 0 0 Z" fill-opacity="0.5882352941176471"/></g><g transform="translate(6,0)"><g transform="translate(0,514.1716003953871)"><path fill="rgb(255,127,0)" stroke="none" paint-order="stroke fill markers" d=" M 0 0 L 383.81578917320076 0 L 383.81578917320076 383.81578917320076 L 0 383.81578917320076 L 0 0 Z" fill-opacity="0.5882352941176471"/></g><g transform="translate(6,0)"><g transform="translate(0,503.4740670935993)"><path fill="rgb(255,255,0)" stroke="none" paint-order="stroke fill markers" d=" M 0 0 L 373.1182558714128 0 L 373.1182558714128 373.1182558714128 L 0 373.1182558714128 L 0 0 Z" fill-opacity="0.5882352941176471"/></g><g transform="translate(6,0)"><g transform="translate(0,493.03848034211376)"><path fill="rgb(0,255,0)" stroke="none" paint-order="stroke fill markers" d=" M 0 0 L 362.6826691199273 0 L 362.6826691199273 362.6826691199273 L 0 362.6826691199273 L 0 0 Z" fill-opacity="0.5882352941176471"/></g><g transform="translate(6,0)"><g transform="translate(0,481.25147846895345)"><path fill="rgb(0,0,255)" stroke="none" paint-order="stroke fill markers" d=" M 0 0 L 350.89566724676706 0 L 350.89566724676706 350.89566724676706 L 0 350.89566724676706 L 0 0 Z" fill-opacity="0.5882352941176471"/></g><g transform="translate(6,0)"><g transform="translate(0,466.6045629782435)"><path fill="rgb(75,0,130)" stroke="none" paint-order="stroke fill markers" d=" M 0 0 L 336.2487517560571 0 L 336.2487517560571 336.2487517560571 L 0 336.2487517560571 L 0 0 Z" fill-opacity="0.5882352941176471"/></g><g transform="translate(6,0)"><g transform="translate(0,449.31915530413744)"><path fill="rgb(148,0,211)" stroke="none" paint-order="stroke fill markers" d=" M 0 0 L 318.96334408195105 0 L 318.96334408195105 318.96334408195105 L 0 318.96334408195105 L 0 0 Z" fill-opacity="0.5882352941176471"/></g><g transform="translate(6,0)"><g transform="translate(0,431.4856441302786)"><path fill="rgb(255,0,0)" stroke="none" paint-order="stroke fill markers" d=" M 0 0 L 301.12983290809217 0 L 301.12983290809217 301.12983290809217 L 0 301.12983290809217 L 0 0 Z" fill-opacity="0.5882352941176471"/></g><g transform="translate(6,0)"><g transform="translate(0,415.0272730812202)"><path fill="rgb(255,127,0)" stroke="none" paint-order="stroke fill markers" d=" M 0 0 L 284.67146185903374 0 L 284.67146185903374 284.67146185903374 L 0 284.67146185903374 L 0 0 Z" fill-opacity="0.5882352941176471"/></g><g transform="translate(6,0)"><g transform="translate(0,401.8479598431063)"><path fill="rgb(255,255,0)" stroke="none" paint-order="stroke fill markers" d=" M 0 0 L 271.4921486209199 0 L 271.4921486209199 271.4921486209199 L 0 271.4921486209199 L 0 0 Z" fill-opacity="0.5882352941176471"/></g><g transform="translate(6,0)"><g transform="translate(0,391.85929250737377)"><path fill="rgb(0,255,0)" stroke="none" paint-order="stroke fill markers" d=" M 0 0 L 261.5034812851873 0 L 261.5034812851873 261.5034812851873 L 0 261.5034812851873 L 0 0 Z" fill-opacity="0.5882352941176471"/></g><g transform="translate(6,0)"><g transform="translate(0,381.96691462790216)"><path fill="rgb(0,0,255)" stroke="none" paint-order="stroke fill markers" d=" M 0 0 L 251.61110340571574 0 L 251.61110340571574 251.61110340571574 L 0 251.61110340571574 L 0 0 Z" fill-opacity="0.5882352941176471"/></g><g transform="translate(6,0)"><g transform="translate(0,374.2594433104127)"><path fill="rgb(75,0,130)" stroke="none" paint-order="stroke fill markers" d=" M 0 0 L 243.90363208822626 0 L 243.90363208822626 243.90363208822626 L 0 243.90363208822626 L 0 0 Z" fill-opacity="0.5882352941176471"/></g><g transform="translate(6,0)"><g transform="translate(0,371.5717871840159)"><path fill="rgb(148,0,211)" stroke="none" paint-order="stroke fill markers" d=" M 0 0 L 241.21597596182943 0 L 241.21597596182943 241.21597596182943 L 0 241.21597596182943 L 0 0 Z" fill-opacity="0.5882352941176471"/></g><g transform="translate(6,0)"><g transform="translate(0,374.6754476499977)"><path fill="rgb(255,0,0)" stroke="none" paint-order="stroke fill markers" d=" M 0 0 L 244.31963642781128 0 L 244.31963642781128 244.31963642781128 L 0 244.31963642781128 L 0 0 Z" fill-opacity="0.5882352941176471"/></g><g transform="translate(6,0)"><g transform="translate(0,379.0487938030225)"><path fill="rgb(255,127,0)" stroke="none" paint-order="stroke fill markers" d=" M 0 0 L 248.69298258083603 0 L 248.69298258083603 248.69298258083603 L 0 248.69298258083603 L 0 0 Z" fill-opacity="0.5882352941176471"/></g><g transform="translate(6,0)"><g transform="translate(0,382.8903984437884)"><path fill="rgb(255,255,0)" stroke="none" paint-order="stroke fill markers" d=" M 0 0 L 252.53458722160198 0 L 252.53458722160198 252.53458722160198 L 0 252.53458722160198 L 0 0 Z" fill-opacity="0.5882352941176471"/></g><g transform="translate(6,0)"><g transform="translate(0,385.26700797735714)"><path fill="rgb(0,255,0)" stroke="none" paint-order="stroke fill markers" d=" M 0 0 L 254.91119675517072 0 L 254.91119675517072 254.91119675517072 L 0 254.91119675517072 L 0 0 Z" fill-opacity="0.5882352941176471"/></g><g transform="translate(6,0)"><g transform="translate(0,385.65035494040336)"><path fill="rgb(0,0,255)" stroke="none" paint-order="stroke fill markers" d=" M 0 0 L 255.29454371821694 0 L 255.29454371821694 255.29454371821694 L 0 255.29454371821694 L 0 0 Z" fill-opacity="0.5882352941176471"/></g><g transform="translate(6,0)"><g transform="translate(0,384.34792738633786)"><path fill="rgb(75,0,130)" stroke="none" paint-order="stroke fill markers" d=" M 0 0 L 253.99211616415144 0 L 253.99211616415144 253.99211616415144 L 0 253.99211616415144 L 0 0 Z" fill-opacity="0.5882352941176471"/></g><g transform="translate(6,0)"><g transform="translate(0,382.2038884889094)"><path fill="rgb(148,0,211)" stroke="none" paint-order="stroke fill markers" d=" M 0 0 L 251.84807726672298 0 L 251.84807726672298 251.84807726672298 L 0 251.84807726672298 L 0 0 Z" fill-opacity="0.5882352941176471"/></g><g transform="translate(6,0)"><g transform="translate(0,380.5055035905292)"><path fill="rgb(255,0,0)" stroke="none" paint-order="stroke fill markers" d=" M 0 0 L 250.14969236834278 0 L 250.14969236834278 250.14969236834278 L 0 250.14969236834278 L 0 0 Z" fill-opacity="0.5882352941176471"/></g><g transform="translate(6,0)"><g transform="translate(0,380.5935699646747)"><path fill="rgb(255,127,0)" stroke="none" paint-order="stroke fill markers" d=" M 0 0 L 250.2377587424883 0 L 250.2377587424883 250.2377587424883 L 0 250.2377587424883 L 0 0 Z" fill-opacity="0.5882352941176471"/></g><g transform="translate(6,0)"><g transform="translate(0,387.1609358094912)"><path fill="rgb(255,255,0)" stroke="none" paint-order="stroke fill markers" d=" M 0 0 L 256.80512458730476 0 L 256.80512458730476 256.80512458730476 L 0 256.80512458730476 L 0 0 Z" fill-opacity="0.5882352941176471"/></g><g transform="translate(6,0)"><g transform="translate(0,400.10673146936745)"><path fill="rgb(0,255,0)" stroke="none" paint-order="stroke fill markers" d=" M 0 0 L 269.750920247181 0 L 269.750920247181 269.750920247181 L 0 269.750920247181 L 0 0 Z" fill-opacity="0.5882352941176471"/></g><g transform="translate(6,0)"><g transform="translate(0,414.29306812781647)"><path fill="rgb(0,0,255)" stroke="none" paint-order="stroke fill markers" d=" M 0 0 L 283.9372569056301 0 L 283.9372569056301 283.9372569056301 L 0 283.9372569056301 L 0 0 Z" fill-opacity="0.5882352941176471"/></g><g transform="translate(6,0)"><g transform="translate(0,424.7195494309725)"><path fill="rgb(75,0,130)" stroke="none" paint-order="stroke fill markers" d=" M 0 0 L 294.36373820878606 0 L 294.36373820878606 294.36373820878606 L 0 294.36373820878606 L 0 0 Z" fill-opacity="0.5882352941176471"/></g><g transform="translate(6,0)"><g transform="translate(0,428.1094318881221)"><path fill="rgb(148,0,211)" stroke="none" paint-order="stroke fill markers" d=" M 0 0 L 297.75362066593567 0 L 297.75362066593567 297.75362066593567 L 0 297.75362066593567 L 0 0 Z" fill-opacity="0.5882352941176471"/></g><g transform="translate(6,0)"><g transform="translate(0,425.74212050721087)"><path fill="rgb(255,0,0)" stroke="none" paint-order="stroke fill markers" d=" M 0 0 L 295.3863092850244 0 L 295.3863092850244 295.3863092850244 L 0 295.3863092850244 L 0 0 Z" fill-opacity="0.5882352941176471"/></g><g transform="translate(6,0)"><g transform="translate(0,423.7666835279623)"><path fill="rgb(255,127,0)" stroke="none" paint-order="stroke fill markers" d=" M 0 0 L 293.4108723057759 0 L 293.4108723057759 293.4108723057759 L 0 293.4108723057759 L 0 0 Z" fill-opacity="0.5882352941176471"/></g><g transform="translate(6,0)"><g transform="translate(0,428.60294702448175)"><path fill="rgb(255,255,0)" stroke="none" paint-order="stroke fill markers" d=" M 0 0 L 298.2471358022953 0 L 298.2471358022953 298.2471358022953 L 0 298.2471358022953 L 0 0 Z" fill-opacity="0.5882352941176471"/></g><g transform="translate(6,0)"><g transform="translate(0,440.71534668588833)"><path fill="rgb(0,255,0)" stroke="none" paint-order="stroke fill markers" d=" M 0 0 L 310.35953546370195 0 L 310.35953546370195 310.35953546370195 L 0 310.35953546370195 L 0 0 Z" fill-opacity="0.5882352941176471"/></g><g transform="translate(6,0)"><g transform="translate(0,454.8011618136376)"><path fill="rgb(0,0,255)" stroke="none" paint-order="stroke fill markers" d=" M 0 0 L 324.44535059145113 0 L 324.44535059145113 324.44535059145113 L 0 324.44535059145113 L 0 0 Z" fill-opacity="0.5882352941176471"/></g><g transform="translate(6,0)"><g transform="translate(0,469.3501574623849)"><path fill="rgb(75,0,130)" stroke="none" paint-order="stroke fill markers" d=" M 0 0 L 338.9943462401985 0 L 338.9943462401985 338.9943462401985 L 0 338.9943462401985 L 0 0 Z" fill-opacity="0.5882352941176471"/></g><g transform="translate(6,0)"><g transform="translate(0,482.8005755144279)"><path fill="rgb(148,0,211)" stroke="none" paint-order="stroke fill markers" d=" M 0 0 L 352.44476429224153 0 L 352.44476429224153 352.44476429224153 L 0 352.44476429224153 L 0 0 Z" fill-opacity="0.5882352941176471"/></g><g transform="translate(6,0)"><g transform="translate(0,495.54027872647)"><path fill="rgb(255,0,0)" stroke="none" paint-order="stroke fill markers" d=" M 0 0 L 365.1844675042836 0 L 365.1844675042836 365.1844675042836 L 0 365.1844675042836 L 0 0 Z" fill-opacity="0.5882352941176471"/></g><g transform="translate(6,0)"><g transform="translate(0,511.2129615946434)"><path fill="rgb(255,127,0)" stroke="none" paint-order="stroke fill markers" d=" M 0 0 L 380.85715037245694 0 L 380.85715037245694 380.85715037245694 L 0 380.85715037245694 L 0 0 Z" fill-opacity="0.5882352941176471"/></g><g transform="translate(6,0)"><g transform="translate(0,528.034826832198)"><path fill="rgb(255,255,0)" stroke="none" paint-order="stroke fill markers" d=" M 0 0 L 397.6790156100115 0 L 397.6790156100115 397.6790156100115 L 0 397.6790156100115 L 0 0 Z" fill-opacity="0.5882352941176471"/></g><g transform="translate(6,0)"><g transform="translate(0,543.2380325891495)"><path fill="rgb(0,255,0)" stroke="none" paint-order="stroke fill markers" d=" M 0 0 L 412.8822213669631 0 L 412.8822213669631 412.8822213669631 L 0 412.8822213669631 L 0 0 Z" fill-opacity="0.5882352941176471"/></g><g transform="translate(6,0)"><g transform="translate(0,555.1810457030524)"><path fill="rgb(0,0,255)" stroke="none" paint-order="stroke fill markers" d=" M 0 0 L 424.82523448086596 0 L 424.82523448086596 424.82523448086596 L 0 424.82523448086596 L 0 0 Z" fill-opacity="0.5882352941176471"/></g><g transform="translate(6,0)"><g transform="translate(0,565.5565594720965)"><path fill="rgb(75,0,130)" stroke="none" paint-order="stroke fill markers" d=" M 0 0 L 435.20074824991013 0 L 435.20074824991013 435.20074824991013 L 0 435.20074824991013 L 0 0 Z" fill-opacity="0.5882352941176471"/></g><g transform="translate(6,0)"><g transform="translate(0,574.6208253436964)"><path fill="rgb(148,0,211)" stroke="none" paint-order="stroke fill markers" d=" M 0 0 L 444.26501412151003 0 L 444.26501412151003 444.26501412151003 L 0 444.26501412151003 L 0 0 Z" fill-opacity="0.5882352941176471"/></g><g transform="translate(6,0)"><g transform="translate(0,582.3863434459486)"><path fill="rgb(255,0,0)" stroke="none" paint-order="stroke fill markers" d=" M 0 0 L 452.0305322237622 0 L 452.0305322237622 452.0305322237622 L 0 452.0305322237622 L 0 0 Z" fill-opacity="0.5882352941176471"/></g><g transform="translate(6,0)"><g transform="translate(0,588.9302284426698)"><path fill="rgb(255,127,0)" stroke="none" paint-order="stroke fill markers" d=" M 0 0 L 458.5744172204833 0 L 458.5744172204833 458.5744172204833 L 0 458.5744172204833 L 0 0 Z" fill-opacity="0.5882352941176471"/></g><g transform="translate(6,0)"><g transform="translate(0,594.4951389373088)"><path fill="rgb(255,255,0)" stroke="none" paint-order="stroke fill markers" d=" M 0 0 L 464.13932771512236 0 L 464.13932771512236 464.13932771512236 L 0 464.13932771512236 L 0 0 Z" fill-opacity="0.5882352941176471"/></g><g transform="translate(6,0)"><g transform="translate(0,598.7820400027209)"><path fill="rgb(0,255,0)" stroke="none" paint-order="stroke fill markers" d=" M 0 0 L 468.42622878053453 0 L 468.42622878053453 468.42622878053453 L 0 468.42622878053453 L 0 0 Z" fill-opacity="0.5882352941176471"/></g><g transform="translate(6,0)"><g transform="translate(0,601.2106943821468)"><path fill="rgb(0,0,255)" stroke="none" paint-order="stroke fill markers" d=" M 0 0 L 470.85488315996037 0 L 470.85488315996037 470.85488315996037 L 0 470.85488315996037 L 0 0 Z" fill-opacity="0.5882352941176471"/></g><g transform="translate(6,0)"><g transform="translate(0,601.4479839546048)"><path fill="rgb(75,0,130)" stroke="none" paint-order="stroke fill markers" d=" M 0 0 L 471.0921727324183 0 L 471.0921727324183 471.0921727324183 L 0 471.0921727324183 L 0 0 Z" fill-opacity="0.5882352941176471"/></g><g transform="translate(6,0)"><g transform="translate(0,599.6934277683089)"><path fill="rgb(148,0,211)" stroke="none" paint-order="stroke fill markers" d=" M 0 0 L 469.3376165461225 0 L 469.3376165461225 469.3376165461225 L 0 469.3376165461225 L 0 0 Z" fill-opacity="0.5882352941176471"/></g><g transform="translate(6,0)"><g transform="translate(0,596.8838243011317)"><path fill="rgb(255,0,0)" stroke="none" paint-order="stroke fill markers" d=" M 0 0 L 466.5280130789452 0 L 466.5280130789452 466.5280130789452 L 0 466.5280130789452 L 0 0 Z" fill-opacity="0.5882352941176471"/></g><g transform="translate(6,0)"><g transform="translate(0,594.3922072910069)"><path fill="rgb(255,127,0)" stroke="none" paint-order="stroke fill markers" d=" M 0 0 L 464.0363960688205 0 L 464.0363960688205 464.0363960688205 L 0 464.0363960688205 L 0 0 Z" fill-opacity="0.5882352941176471"/></g><g transform="translate(6,0)"/></g></g></g></g></g></g></g></g></g></g></g></g></g></g></g></g></g></g></g></g></g></g></g></g></g></g></g></g></g></g></g></g></g></g></g></g></g></g></g></g></g></g></g></g></g></g></g></g></g></g></g></g></g></g></g></g></g></g></g></g></g></g></g></g></g></g></g></g></g></g></g></g></g></g></g></g></g></g></g></g></g></g></g></g></g></g></g></g></g></g></g></g></g></g></g></g></g></g></g></g></g></svg>