<svg version="1.1" xmlns="http://www.w3.org/2000/svg" xmlns:xlink="http://www.w3.org/1999/xlink" width="600" height="600" viewBox="0 0 600 600"><defs/><g transform="scale(1,1)"><g transform="scale(1,1)"><rect fill="rgb(0,0,0)" stroke="none" x="0" y="0" width="600" height="600" fill-opacity="1"/></g><g><g transform="translate(0,300) rotate(2750.621429782609,0,0)"><path fill="rgb(255,0,0)" stroke="none" paint-order="stroke fill markers" d=" M 0 0 L 39.263854644125125 0 L 39.263854644125125 39.263854644125125 L 0 39.263854644125125 L 0 0 Z" fill-opacity="0.5882352941176471"/></g><g transform="translate(6,0)"><g transform="translate(0,310.6124883474028) rotate(2523.2848515873934,0,0)"><path fill="rgb(255,127,0)" stroke="none" paint-order="stroke fill markers" d=" M 0 0 L 42.80135075992606 0 L 42.80135075992606 42.80135075992606 L 0 42.80135075992606 L 0 0 Z" fill-opacity="0.5882352941176471"/></g><g transform="translate(6,0)"><g transform="translate(0,333.7377409266112) rotate(2138.2002662885243,0,0)"><path fill="rgb(255,255,0)" stroke="none" paint-order="stroke fill markers" d=" M 0 0 L 50.50976828632884 0 L 50.50976828632884 50.50976828632884 L 0 50.50976828632884 L 0 0 Z" fill-opacity="0.5882352941176471"/></g><g transform="translate(6,0)"><g transform="translate(0,353.32944854737127) rotate(1893.3969318253512,0,0)"><path fill="rgb(0,255,0)" stroke="none" paint-order="stroke fill markers" d=" M 0 0 L 57.04033749324889 0 L 57.04033749324889 57.04033749324889 L 0 57.04033749324889 L 0 0 Z" fill-opacity="0.5882352941176471"/></g><g transform="translate(6,0)"><g transform="translate(0,362.64380716512255) rotate(1795.6567940602245,0,0)"><path fill="rgb(0,0,255)" stroke="none" paint-order="stroke fill markers" d=" M 0 0 L 60.14512369916597 0 L 60.14512369916597 60.14512369916597 L 0 60.14512369916597 L 0 0 Z" fill-opacity="0.5882352941176471"/></g><g transform="translate(6,0)"><g transform="translate(0,373.9949422176457) rotate(1689.3784995830606,0,0)"><path fill="rgb(75,0,130)" stroke="none" paint-order="stroke fill markers" d=" M 0 0 L 63.928835383340356 0 L 63.928835383340356 63.928835383340356 L 0 63.928835383340356 L 0 0 Z" fill-opacity="0.5882352941176471"/></g><g transform="translate(6,0)"><g transform="translate(0,387.6700212633748) rotate(1576.937117910943,0,0)"><path fill="rgb(148,0,211)" stroke="none" paint-order="stroke fill markers" d=" M 0 0 L 68.48719506525006 0 L 68.48719506525006 68.48719506525006 L 0 68.48719506525006 L 0 0 Z" fill-opacity="0.5882352941176471"/></g><g transform="translate(6,0)"><g transform="translate(0,395.081184118795) rotate(1522.0360659886667,0,0)"><path fill="rgb(255,0,0)" stroke="none" paint-order="stroke fill markers" d=" M 0 0 L 70.95758268372347 0 L 70.95758268372347 70.95758268372347 L 0 70.95758268372347 L 0 0 Z" fill-opacity="0.5882352941176471"/></g><g transform="translate(6,0)"><g transform="translate(0,398.6101677668673) rotate(1497.2153755696306,0,0)"><path fill="rgb(255,127,0)" stroke="none" paint-order="stroke fill markers" d=" M 0 0 L 72.13391056641422 0 L 72.13391056641422 72.13391056641422 L 0 72.13391056641422 L 0 0 Z" fill-opacity="0.5882352941176471"/></g><g transform="translate(6,0)"><g transform="translate(0,406.9040355619243) rotate(1441.9508024598395,0,0)"><path fill="rgb(255,255,0)" stroke="none" paint-order="stroke fill markers" d=" M 0 0 L 74.89853316476653 0 L 74.89853316476653 74.89853316476653 L 0 74.89853316476653 L 0 0 Z" fill-opacity="0.5882352941176471"/></g><g transform="translate(6,0)"><g transform="translate(0,417.2570245190649) rotate(1378.4383992033058,0,0)"><path fill="rgb(0,255,0)" stroke="none" paint-order="stroke fill markers" d=" M 0 0 L 78.34952948381343 0 L 78.34952948381343 78.34952948381343 L 0 78.34952948381343 L 0 0 Z" fill-opacity="0.5882352941176471"/></g><g transform="translate(6,0)"><g transform="translate(0,426.03823426723557) rotate(1328.7957517594211,0,0)"><path fill="rgb(0,0,255)" stroke="none" paint-order="stroke fill markers" d=" M 0 0 L 81.27659939987032 0 L 81.27659939987032 81.27659939987032 L 0 81.27659939987032 L 0 0 Z" fill-opacity="0.5882352941176471"/></g><g transform="translate(6,0)"><g transform="translate(0,431.72457655112237) rotate(1298.5131918607422,0,0)"><path fill="rgb(75,0,130)" stroke="none" paint-order="stroke fill markers" d=" M 0 0 L 83.17204682783257 0 L 83.17204682783257 83.17204682783257 L 0 83.17204682783257 L 0 0 Z" fill-opacity="0.5882352941176471"/></g><g transform="translate(6,0)"><g transform="translate(0,434.26209857922447) rotate(1285.4405556796423,0,0)"><path fill="rgb(148,0,211)" stroke="none" paint-order="stroke fill markers" d=" M 0 0 L 84.01788750386662 0 L 84.01788750386662 84.01788750386662 L 0 84.01788750386662 L 0 0 Z" fill-opacity="0.5882352941176471"/></g><g transform="translate(6,0)"><g transform="translate(0,440.31306006875286) rotate(1255.3049030170948,0,0)"><path fill="rgb(255,0,0)" stroke="none" paint-order="stroke fill markers" d=" M 0 0 L 86.03487466704274 0 L 86.03487466704274 86.03487466704274 L 0 86.03487466704274 L 0 0 Z" fill-opacity="0.5882352941176471"/></g><g transform="translate(6,0)"><g transform="translate(0,440.07627834545656) rotate(1256.457560345644,0,0)"><path fill="rgb(255,127,0)" stroke="none" paint-order="stroke fill markers" d=" M 0 0 L 85.95594742594398 0 L 85.95594742594398 85.95594742594398 L 0 85.95594742594398 L 0 0 Z" fill-opacity="0.5882352941176471"/></g><g transform="translate(6,0)"><g transform="translate(0,424.2230879038526) rotate(1338.761920163626,0,0)"><path fill="rgb(255,255,0)" stroke="none" paint-order="stroke fill markers" d=" M 0 0 L 80.671550612076 0 L 80.671550612076 80.671550612076 L 0 80.671550612076 L 0 0 Z" fill-opacity="0.5882352941176471"/></g><g transform="translate(6,0)"><g transform="translate(0,404.8919527479515) rotate(1454.979716640266,0,0)"><path fill="rgb(0,255,0)" stroke="none" paint-order="stroke fill markers" d=" M 0 0 L 74.2278388934423 0 L 74.2278388934423 74.2278388934423 L 0 74.2278388934423 L 0 0 Z" fill-opacity="0.5882352941176471"/></g><g transform="translate(6,0)"><g transform="translate(0,404.00331470340575) rotate(1460.8092034985816,0,0)"><path fill="rgb(0,0,255)" stroke="none" paint-order="stroke fill markers" d=" M 0 0 L 73.93162621192704 0 L 73.93162621192704 73.93162621192704 L 0 73.93162621192704 L 0 0 Z" fill-opacity="0.5882352941176471"/></g><g transform="translate(6,0)"><g transform="translate(0,416.91738690750356) rotate(1380.4330803772218,0,0)"><path fill="rgb(75,0,130)" stroke="none" paint-order="stroke fill markers" d=" M 0 0 L 78.23631694662632 0 L 78.23631694662632 78.23631694662632 L 0 78.23631694662632 L 0 0 Z" fill-opacity="0.5882352941176471"/></g><g transform="translate(6,0)"><g transform="translate(0,424.8295522771715) rotate(1335.4155032415558,0,0)"><path fill="rgb(148,0,211)" stroke="none" paint-order="stroke fill markers" d=" M 0 0 L 80.87370540318229 0 L 80.87370540318229 80.87370540318229 L 0 80.87370540318229 L 0 0 Z" fill-opacity="0.5882352941176471"/></g><g transform="translate(6,0)"><g transform="translate(0,425.66856824110096) rotate(1330.8133742781974,0,0)"><path fill="rgb(255,0,0)" stroke="none" paint-order="stroke fill markers" d=" M 0 0 L 81.15337739115877 0 L 81.15337739115877 81.15337739115877 L 0 81.15337739115877 L 0 0 Z" fill-opacity="0.5882352941176471"/></g><g transform="translate(6,0)"><g transform="translate(0,426.28141649644283) rotate(1327.4718054852117,0,0)"><path fill="rgb(255,127,0)" stroke="none" paint-order="stroke fill markers" d=" M 0 0 L 81.3576601429394 0 L 81.3576601429394 81.3576601429394 L 0 81.3576601429394 L 0 0 Z" fill-opacity="0.5882352941176471"/></g><g transform="translate(6,0)"><g transform="translate(0,421.81335093288055) rotate(1352.2260183277308,0,0)"><path fill="rgb(255,255,0)" stroke="none" paint-order="stroke fill markers" d=" M 0 0 L 79.86830495508532 0 L 79.86830495508532 79.86830495508532 L 0 79.86830495508532 L 0 0 Z" fill-opacity="0.5882352941176471"/></g><g transform="translate(6,0)"><g transform="translate(0,405.52551885929876) rotate(1450.8518378876101,0,0)"><path fill="rgb(0,255,0)" stroke="none" paint-order="stroke fill markers" d=" M 0 0 L 74.43902759722471 0 L 74.43902759722471 74.43902759722471 L 0 74.43902759722471 L 0 0 Z" fill-opacity="0.5882352941176471"/></g><g transform="translate(6,0)"><g transform="translate(0,391.39821608815134) rotate(1548.8328347981799,0,0)"><path fill="rgb(0,0,255)" stroke="none" paint-order="stroke fill markers" d=" M 0 0 L 69.7299266735089 0 L 69.7299266735089 69.7299266735089 L 0 69.7299266735089 L 0 0 Z" fill-opacity="0.5882352941176471"/></g><g transform="translate(6,0)"><g transform="translate(0,385.28943216904736) rotate(1595.422546766453,0,0)"><path fill="rgb(75,0,130)" stroke="none" paint-order="stroke fill markers" d=" M 0 0 L 67.69366536714092 0 L 67.69366536714092 67.69366536714092 L 0 67.69366536714092 L 0 0 Z" fill-opacity="0.5882352941176471"/></g><g transform="translate(6,0)"><g transform="translate(0,382.47480896965766) rotate(1617.8452493294785,0,0)"><path fill="rgb(148,0,211)" stroke="none" paint-order="stroke fill markers" d=" M 0 0 L 66.75545763401101 0 L 66.75545763401101 66.75545763401101 L 0 66.75545763401101 L 0 0 Z" fill-opacity="0.5882352941176471"/></g><g transform="translate(6,0)"><g transform="translate(0,380.0534593436689) rotate(1637.645439015857,0,0)"><path fill="rgb(255,0,0)" stroke="none" paint-order="stroke fill markers" d=" M 0 0 L 65.94834109201476 0 L 65.94834109201476 65.94834109201476 L 0 65.94834109201476 L 0 0 Z" fill-opacity="0.5882352941176471"/></g><g transform="translate(6,0)"><g transform="translate(0,372.8083266473883) rotate(1699.8960440872345,0,0)"><path fill="rgb(255,127,0)" stroke="none" paint-order="stroke fill markers" d=" M 0 0 L 63.53329685992122 0 L 63.53329685992122 63.53329685992122 L 0 63.53329685992122 L 0 0 Z" fill-opacity="0.5882352941176471"/></g><g transform="translate(6,0)"><g transform="translate(0,360.88532067852833) rotate(1813.329131552521,0,0)"><path fill="rgb(255,255,0)" stroke="none" paint-order="stroke fill markers" d=" M 0 0 L 59.5589615369679 0 L 59.5589615369679 59.5589615369679 L 0 59.5589615369679 L 0 0 Z" fill-opacity="0.5882352941176471"/></g><g transform="translate(6,0)"><g transform="translate(0,350.3429644170815) rotate(1927.0283336840057,0,0)"><path fill="rgb(0,255,0)" stroke="none" paint-order="stroke fill markers" d=" M 0 0 L 56.04484278315227 0 L 56.04484278315227 56.04484278315227 L 0 56.04484278315227 L 0 0 Z" fill-opacity="0.5882352941176471"/></g><g transform="translate(6,0)"><g transform="translate(0,337.43948333263745) rotate(2087.2113260104616,0,0)"><path fill="rgb(0,0,255)" stroke="none" paint-order="stroke fill markers" d=" M 0 0 L 51.74368242167093 0 L 51.74368242167093 51.74368242167093 L 0 51.74368242167093 L 0 0 Z" fill-opacity="0.5882352941176471"/></g><g transform="translate(6,0)"><g transform="translate(0,310.4492020353104) rotate(2526.4976979445196,0,0)"><path fill="rgb(75,0,130)" stroke="none" paint-order="stroke fill markers" d=" M 0 0 L 42.74692198922859 0 L 42.74692198922859 42.74692198922859 L 0 42.74692198922859 L 0 0 Z" fill-opacity="0.5882352941176471"/></g><g transform="translate(6,0)"><g transform="translate(0,277.4718232965114) rotate(3401.096784660134,0,0)"><path fill="rgb(148,0,211)" stroke="none" paint-order="stroke fill markers" d=" M 0 0 L 31.754462409628918 0 L 31.754462409628918 31.754462409628918 L 0 31.754462409628918 L 0 0 Z" fill-opacity="0.5882352941176471"/></g><g transform="translate(6,0)"><g transform="translate(0,260.08735784345606) rotate(4160.304131233475,0,0)"><path fill="rgb(255,0,0)" stroke="none" paint-order="stroke fill markers" d=" M 0 0 L 25.9596405919438 0 L 25.9596405919438 25.9596405919438 L 0 25.9596405919438 L 0 0 Z" fill-opacity="0.5882352941176471"/></g><g transform="translate(6,0)"><g transform="translate(0,262.08685321243763) rotate(4056.1645007638876,0,0)"><path fill="rgb(255,127,0)" stroke="none" paint-order="stroke fill markers" d=" M 0 0 L 26.626139048270996 0 L 26.626139048270996 26.626139048270996 L 0 26.626139048270996 L 0 0 Z" fill-opacity="0.5882352941176471"/></g><g transform="translate(6,0)"><g transform="translate(0,272.47609190650013) rotate(3589.3255118791203,0,0)"><path fill="rgb(255,255,0)" stroke="none" paint-order="stroke fill markers" d=" M 0 0 L 30.089218612958494 0 L 30.089218612958494 30.089218612958494 L 0 30.089218612958494 L 0 0 Z" fill-opacity="0.5882352941176471"/></g><g transform="translate(6,0)"><g transform="translate(0,287.1631200667994) rotate(3087.046596248601,0,0)"><path fill="rgb(0,255,0)" stroke="none" paint-order="stroke fill markers" d=" M 0 0 L 34.98489466639159 0 L 34.98489466639159 34.98489466639159 L 0 34.98489466639159 L 0 0 Z" fill-opacity="0.5882352941176471"/></g><g transform="translate(6,0)"><g transform="translate(0,309.8670790917692) rotate(2538.018518172096,0,0)"><path fill="rgb(0,0,255)" stroke="none" paint-order="stroke fill markers" d=" M 0 0 L 42.552881008048196 0 L 42.552881008048196 42.552881008048196 L 0 42.552881008048196 L 0 0 Z" fill-opacity="0.5882352941176471"/></g><g transform="translate(6,0)"><g transform="translate(0,321.51038879373493) rotate(2325.8826862035116,0,0)"><path fill="rgb(75,0,130)" stroke="none" paint-order="stroke fill markers" d=" M 0 0 L 46.433984242036765 0 L 46.433984242036765 46.433984242036765 L 0 46.433984242036765 L 0 0 Z" fill-opacity="0.5882352941176471"/></g><g transform="translate(6,0)"><g transform="translate(0,314.60158961296463) rotate(2447.2564579333884,0,0)"><path fill="rgb(148,0,211)" stroke="none" paint-order="stroke fill markers" d=" M 0 0 L 44.13105118178 0 L 44.13105118178 44.13105118178 L 0 44.13105118178 L 0 0 Z" fill-opacity="0.5882352941176471"/></g><g transform="translate(6,0)"><g transform="translate(0,304.5544865105442) rotate(2648.2260671844233,0,0)"><path fill="rgb(255,0,0)" stroke="none" paint-order="stroke fill markers" d=" M 0 0 L 40.78201681430652 0 L 40.78201681430652 40.78201681430652 L 0 40.78201681430652 L 0 0 Z" fill-opacity="0.5882352941176471"/></g><g transform="translate(6,0)"><g transform="translate(0,305.92533843260065) rotate(2618.882253001864,0,0)"><path fill="rgb(255,127,0)" stroke="none" paint-order="stroke fill markers" d=" M 0 0 L 41.23896745499201 0 L 41.23896745499201 41.23896745499201 L 0 41.23896745499201 L 0 0 Z" fill-opacity="0.5882352941176471"/></g><g transform="translate(6,0)"><g transform="translate(0,308.39384855190195) rotate(2567.650203151417,0,0)"><path fill="rgb(255,255,0)" stroke="none" paint-order="stroke fill markers" d=" M 0 0 L 42.061804161425776 0 L 42.061804161425776 42.061804161425776 L 0 42.061804161425776 L 0 0 Z" fill-opacity="0.5882352941176471"/></g><g transform="translate(6,0)"><g transform="translate(0,310.56858685525174) rotate(2524.1478606242877,0,0)"><path fill="rgb(0,255,0)" stroke="none" paint-order="stroke fill markers" d=" M 0 0 L 42.78671692920904 0 L 42.78671692920904 42.78671692920904 L 0 42.78671692920904 L 0 0 Z" fill-opacity="0.5882352941176471"/></g><g transform="translate(6,0)"><g transform="translate(0,320.0152347533824) rotate(2351.117674091106,0,0)"><path fill="rgb(0,0,255)" stroke="none" paint-order="stroke fill markers" d=" M 0 0 L 45.93559956191925 0 L 45.93559956191925 45.93559956191925 L 0 45.93559956191925 L 0 0 Z" fill-opacity="0.5882352941176471"/></g><g transform="translate(6,0)"><g transform="translate(0,329.8307859102472) rotate(2194.7896124496756,0,0)"><path fill="rgb(75,0,130)" stroke="none" paint-order="stroke fill markers" d=" M 0 0 L 49.20744994754086 0 L 49.20744994754086 49.20744994754086 L 0 49.20744994754086 L 0 0 Z" fill-opacity="0.5882352941176471"/></g><g transform="translate(6,0)"><g transform="translate(0,321.97108799385387) rotate(2318.215886251333,0,0)"><path fill="rgb(148,0,211)" stroke="none" paint-order="stroke fill markers" d=" M 0 0 L 46.5875506420764 0 L 46.5875506420764 46.5875506420764 L 0 46.5875506420764 L 0 0 Z" fill-opacity="0.5882352941176471"/></g><g transform="translate(6,0)"><g transform="translate(0,311.06644875293557) rotate(2514.3954438537926,0,0)"><path fill="rgb(255,0,0)" stroke="none" paint-order="stroke fill markers" d=" M 0 0 L 42.95267089510364 0 L 42.95267089510364 42.95267089510364 L 0 42.95267089510364 L 0 0 Z" fill-opacity="0.5882352941176471"/></g><g transform="translate(6,0)"><g transform="translate(0,307.2027594556869) rotate(2592.1177155709465,0,0)"><path fill="rgb(255,127,0)" stroke="none" paint-order="stroke fill markers" d=" M 0 0 L 41.66477446268741 0 L 41.66477446268741 41.66477446268741 L 0 41.66477446268741 L 0 0 Z" fill-opacity="0.5882352941176471"/></g><g transform="translate(6,0)"><g transform="translate(0,311.5342592919119) rotate(2505.3001165752735,0,0)"><path fill="rgb(255,255,0)" stroke="none" paint-order="stroke fill markers" d=" M 0 0 L 43.108607741429076 0 L 43.108607741429076 43.108607741429076 L 0 43.108607741429076 L 0 0 Z" fill-opacity="0.5882352941176471"/></g><g transform="translate(6,0)"><g transform="translate(0,319.4318928650491) rotate(2361.1123605368975,0,0)"><path fill="rgb(0,255,0)" stroke="none" paint-order="stroke fill markers" d=" M 0 0 L 45.741152265808175 0 L 45.741152265808175 45.741152265808175 L 0 45.741152265808175 L 0 0 Z" fill-opacity="0.5882352941176471"/></g><g transform="translate(6,0)"><g transform="translate(0,326.30470692476075) rotate(2248.4967728361894,0,0)"><path fill="rgb(0,0,255)" stroke="none" paint-order="stroke fill markers" d=" M 0 0 L 48.03209028571204 0 L 48.03209028571204 48.03209028571204 L 0 48.03209028571204 L 0 0 Z" fill-opacity="0.5882352941176471"/></g><g transform="translate(6,0)"><g transform="translate(0,327.2474933473038) rotate(2233.881039196428,0,0)"><path fill="rgb(75,0,130)" stroke="none" paint-order="stroke fill markers" d=" M 0 0 L 48.346352426559726 0 L 48.346352426559726 48.346352426559726 L 0 48.346352426559726 L 0 0 Z" fill-opacity="0.5882352941176471"/></g><g transform="translate(6,0)"><g transform="translate(0,332.49405234957084) rotate(2155.894942015965,0,0)"><path fill="rgb(148,0,211)" stroke="none" paint-order="stroke fill markers" d=" M 0 0 L 50.0952054273154 0 L 50.0952054273154 50.0952054273154 L 0 50.0952054273154 L 0 0 Z" fill-opacity="0.5882352941176471"/></g><g transform="translate(6,0)"><g transform="translate(0,340.0988618876286) rotate(2052.056027572957,0,0)"><path fill="rgb(255,0,0)" stroke="none" paint-order="stroke fill markers" d=" M 0 0 L 52.630141940001316 0 L 52.630141940001316 52.630141940001316 L 0 52.630141940001316 L 0 0 Z" fill-opacity="0.5882352941176471"/></g><g transform="translate(6,0)"><g transform="translate(0,343.9011162031719) rotate(2003.8012835731965,0,0)"><path fill="rgb(255,127,0)" stroke="none" paint-order="stroke fill markers" d=" M 0 0 L 53.89756004518244 0 L 53.89756004518244 53.89756004518244 L 0 53.89756004518244 L 0 0 Z" fill-opacity="0.5882352941176471"/></g><g transform="translate(6,0)"><g transform="translate(0,350.231722684077) rotate(1928.3041447677217,0,0)"><path fill="rgb(255,255,0)" stroke="none" paint-order="stroke fill markers" d=" M 0 0 L 56.007762205484134 0 L 56.007762205484134 56.007762205484134 L 0 56.007762205484134 L 0 0 Z" fill-opacity="0.5882352941176471"/></g><g transform="translate(6,0)"><g transform="translate(0,365.2569840611755) rotate(1770.0222348194488,0,0)"><path fill="rgb(0,255,0)" stroke="none" paint-order="stroke fill markers" d=" M 0 0 L 61.016182664516954 0 L 61.016182664516954 61.016182664516954 L 0 61.016182664516954 L 0 0 Z" fill-opacity="0.5882352941176471"/></g><g transform="translate(6,0)"><g transform="translate(0,373.74069448071623) rotate(1691.6210495529458,0,0)"><path fill="rgb(0,0,255)" stroke="none" paint-order="stroke fill markers" d=" M 0 0 L 63.84408613769719 0 L 63.84408613769719 63.84408613769719 L 0 63.84408613769719 L 0 0 Z" fill-opacity="0.5882352941176471"/></g><g transform="translate(6,0)"><g transform="translate(0,370.9733602048626) rotate(1716.420576973516,0,0)"><path fill="rgb(75,0,130)" stroke="none" paint-order="stroke fill markers" d=" M 0 0 L 62.921641379079325 0 L 62.921641379079325 62.921641379079325 L 0 62.921641379079325 L 0 0 Z" fill-opacity="0.5882352941176471"/></g><g transform="translate(6,0)"><g transform="translate(0,367.72212169837144) rotate(1746.5018761198103,0,0)"><path fill="rgb(148,0,211)" stroke="none" paint-order="stroke fill markers" d=" M 0 0 L 61.83789521024894 0 L 61.83789521024894 61.83789521024894 L 0 61.83789521024894 L 0 0 Z" fill-opacity="0.5882352941176471"/></g><g transform="translate(6,0)"><g transform="translate(0,370.69094465539183) rotate(1718.992401086008,0,0)"><path fill="rgb(255,0,0)" stroke="none" paint-order="stroke fill markers" d=" M 0 0 L 62.827502862589064 0 L 62.827502862589064 62.827502862589064 L 0 62.827502862589064 L 0 0 Z" fill-opacity="0.5882352941176471"/></g><g transform="translate(6,0)"><g transform="translate(0,375.14231212631785) rotate(1679.3318344023448,0,0)"><path fill="rgb(255,127,0)" stroke="none" paint-order="stroke fill markers" d=" M 0 0 L 64.31129201956442 0 L 64.31129201956442 64.31129201956442 L 0 64.31129201956442 L 0 0 Z" fill-opacity="0.5882352941176471"/></g><g transform="translate(6,0)"><g transform="translate(0,368.7894444683145) rotate(1736.5111421425997,0,0)"><path fill="rgb(255,255,0)" stroke="none" paint-order="stroke fill markers" d=" M 0 0 L 62.19366946689663 0 L 62.19366946689663 62.19366946689663 L 0 62.19366946689663 L 0 0 Z" fill-opacity="0.5882352941176471"/></g><g transform="translate(6,0)"><g transform="translate(0,350.54204902820317) rotate(1924.7492779465051,0,0)"><path fill="rgb(0,255,0)" stroke="none" paint-order="stroke fill markers" d=" M 0 0 L 56.11120432019285 0 L 56.11120432019285 56.11120432019285 L 0 56.11120432019285 L 0 0 Z" fill-opacity="0.5882352941176471"/></g><g transform="translate(6,0)"><g transform="translate(0,328.3400762398603) rotate(2217.1789738219773,0,0)"><path fill="rgb(0,0,255)" stroke="none" paint-order="stroke fill markers" d=" M 0 0 L 48.71054672407857 0 L 48.71054672407857 48.71054672407857 L 0 48.71054672407857 L 0 0 Z" fill-opacity="0.5882352941176471"/></g><g transform="translate(6,0)"><g transform="translate(0,306.7786899239992) rotate(2600.9419582106766,0,0)"><path fill="rgb(75,0,130)" stroke="none" paint-order="stroke fill markers" d=" M 0 0 L 41.52341795212486 0 L 41.52341795212486 41.52341795212486 L 0 41.52341795212486 L 0 0 Z" fill-opacity="0.5882352941176471"/></g><g transform="translate(6,0)"><g transform="translate(0,287.9167609014893) rotate(3065.037692246198,0,0)"><path fill="rgb(148,0,211)" stroke="none" paint-order="stroke fill markers" d=" M 0 0 L 35.23610827795489 0 L 35.23610827795489 35.23610827795489 L 0 35.23610827795489 L 0 0 Z" fill-opacity="0.5882352941176471"/></g><g transform="translate(6,0)"><g transform="translate(0,283.39141772355157) rotate(3202.119513553801,0,0)"><path fill="rgb(255,0,0)" stroke="none" paint-order="stroke fill markers" d=" M 0 0 L 33.72766055197565 0 L 33.72766055197565 33.72766055197565 L 0 33.72766055197565 L 0 0 Z" fill-opacity="0.5882352941176471"/></g><g transform="translate(6,0)"><g transform="translate(0,289.20825730669884) rotate(3028.04244201561,0,0)"><path fill="rgb(255,127,0)" stroke="none" paint-order="stroke fill markers" d=" M 0 0 L 35.6666070796914 0 L 35.6666070796914 35.6666070796914 L 0 35.6666070796914 L 0 0 Z" fill-opacity="0.5882352941176471"/></g><g transform="translate(6,0)"><g transform="translate(0,298.00303732017244) rotate(2798.057910259189,0,0)"><path fill="rgb(255,255,0)" stroke="none" paint-order="stroke fill markers" d=" M 0 0 L 38.59820041751593 0 L 38.59820041751593 38.59820041751593 L 0 38.59820041751593 L 0 0 Z" fill-opacity="0.5882352941176471"/></g><g transform="translate(6,0)"><g transform="translate(0,313.6884013321046) rotate(2464.253769372804,0,0)"><path fill="rgb(0,255,0)" stroke="none" paint-order="stroke fill markers" d=" M 0 0 L 43.82665508815998 0 L 43.82665508815998 43.82665508815998 L 0 43.82665508815998 L 0 0 Z" fill-opacity="0.5882352941176471"/></g><g transform="translate(6,0)"><g transform="translate(0,330.8147443101491) rotate(2180.2573782482664,0,0)"><path fill="rgb(0,0,255)" stroke="none" paint-order="stroke fill markers" d=" M 0 0 L 49.53543608084147 0 L 49.53543608084147 49.53543608084147 L 0 49.53543608084147 L 0 0 Z" fill-opacity="0.5882352941176471"/></g><g transform="translate(6,0)"><g transform="translate(0,348.3997169264152) rotate(1949.5607611045273,0,0)"><path fill="rgb(75,0,130)" stroke="none" paint-order="stroke fill markers" d=" M 0 0 L 55.39709361959686 0 L 55.39709361959686 55.39709361959686 L 0 55.39709361959686 L 0 0 Z" fill-opacity="0.5882352941176471"/></g><g transform="translate(6,0)"><g transform="translate(0,367.3653493043706) rotate(1749.8671496306808,0,0)"><path fill="rgb(148,0,211)" stroke="none" paint-order="stroke fill markers" d=" M 0 0 L 61.71897107891533 0 L 61.71897107891533 61.71897107891533 L 0 61.71897107891533 L 0 0 Z" fill-opacity="0.5882352941176471"/></g><g transform="translate(6,0)"><g transform="translate(0,389.5701982967764) rotate(1562.4867213558562,0,0)"><path fill="rgb(255,0,0)" stroke="none" paint-order="stroke fill markers" d=" M 0 0 L 69.12058740971727 0 L 69.12058740971727 69.12058740971727 L 0 69.12058740971727 L 0 0 Z" fill-opacity="0.5882352941176471"/></g><g transform="translate(6,0)"><g transform="translate(0,417.3036896117528) rotate(1378.1647868921523,0,0)"><path fill="rgb(255,127,0)" stroke="none" paint-order="stroke fill markers" d=" M 0 0 L 78.36508451470941 0 L 78.36508451470941 78.36508451470941 L 0 78.36508451470941 L 0 0 Z" fill-opacity="0.5882352941176471"/></g><g transform="translate(6,0)"><g transform="translate(0,452.76367519750687) rotate(1197.5373348599662,0,0)"><path fill="rgb(255,255,0)" stroke="none" paint-order="stroke fill markers" d=" M 0 0 L 90.18507970996075 0 L 90.18507970996075 90.18507970996075 L 0 90.18507970996075 L 0 0 Z" fill-opacity="0.5882352941176471"/></g><g transform="translate(6,0)"><g transform="translate(0,469.9907025612347) rotate(1125.8511650063544,0,0)"><path fill="rgb(0,255,0)" stroke="none" paint-order="stroke fill markers" d=" M 0 0 L 95.92742216453668 0 L 95.92742216453668 95.92742216453668 L 0 95.92742216453668 L 0 0 Z" fill-opacity="0.5882352941176471"/></g><g transform="translate(6,0)"><g transform="translate(0,462.44977364086924) rotate(1156.1463515899702,0,0)"><path fill="rgb(0,0,255)" stroke="none" paint-order="stroke fill markers" d=" M 0 0 L 93.41377919108153 0 L 93.41377919108153 93.41377919108153 L 0 93.41377919108153 L 0 0 Z" fill-opacity="0.5882352941176471"/></g><g transform="translate(6,0)"><g transform="translate(0,446.4643048503993) rotate(1226.0844063460956,0,0)"><path fill="rgb(75,0,130)" stroke="none" paint-order="stroke fill markers" d=" M 0 0 L 88.08528959425821 0 L 88.08528959425821 88.08528959425821 L 0 88.08528959425821 L 0 0 Z" fill-opacity="0.5882352941176471"/></g><g transform="translate(6,0)"><g transform="translate(0,433.3081890035588) rotate(1290.323850229616,0,0)"><path fill="rgb(148,0,211)" stroke="none" paint-order="stroke fill markers" d=" M 0 0 L 83.6999176453114 0 L 83.6999176453114 83.6999176453114 L 0 83.6999176453114 L 0 0 Z" fill-opacity="0.5882352941176471"/></g><g transform="translate(6,0)"><g transform="translate(0,424.02148620287716) rotate(1339.8780579409513,0,0)"><path fill="rgb(255,0,0)" stroke="none" paint-order="stroke fill markers" d=" M 0 0 L 80.60435004508417 0 L 80.60435004508417 80.60435004508417 L 0 80.60435004508417 L 0 0 Z" fill-opacity="0.5882352941176471"/></g><g transform="translate(6,0)"><g transform="translate(0,422.43577640356557) rotate(1348.7224207990187,0,0)"><path fill="rgb(255,127,0)" stroke="none" paint-order="stroke fill markers" d=" M 0 0 L 80.07578011198031 0 L 80.07578011198031 80.07578011198031 L 0 80.07578011198031 L 0 0 Z" fill-opacity="0.5882352941176471"/></g><g transform="translate(6,0)"><g transform="translate(0,422.6292369894017) rotate(1347.6371377092955,0,0)"><path fill="rgb(255,255,0)" stroke="none" paint-order="stroke fill markers" d=" M 0 0 L 80.14026697392569 0 L 80.14026697392569 80.14026697392569 L 0 80.14026697392569 L 0 0 Z" fill-opacity="0.5882352941176471"/></g><g transform="translate(6,0)"><g transform="translate(0,420.3493122360296) rotate(1360.5392119699704,0,0)"><path fill="rgb(0,255,0)" stroke="none" paint-order="stroke fill markers" d=" M 0 0 L 79.38029205613499 0 L 79.38029205613499 79.38029205613499 L 0 79.38029205613499 L 0 0 Z" fill-opacity="0.5882352941176471"/></g><g transform="translate(6,0)"><g transform="translate(0,422.9119023312535) rotate(1346.0545667636593,0,0)"><path fill="rgb(0,0,255)" stroke="none" paint-order="stroke fill markers" d=" M 0 0 L 80.23448875454294 0 L 80.23448875454294 80.23448875454294 L 0 80.23448875454294 L 0 0 Z" fill-opacity="0.5882352941176471"/></g><g transform="translate(6,0)"><g transform="translate(0,435.3043486414207) rotate(1280.1471059139692,0,0)"><path fill="rgb(75,0,130)" stroke="none" paint-order="stroke fill markers" d=" M 0 0 L 84.36530419126535 0 L 84.36530419126535 84.36530419126535 L 0 84.36530419126535 L 0 0 Z" fill-opacity="0.5882352941176471"/></g><g transform="translate(6,0)"><g transform="translate(0,443.4962621853276) rotate(1240.0118475249853,0,0)"><path fill="rgb(148,0,211)" stroke="none" paint-order="stroke fill markers" d=" M 0 0 L 87.09594203923433 0 L 87.09594203923433 87.09594203923433 L 0 87.09594203923433 L 0 0 Z" fill-opacity="0.5882352941176471"/></g><g transform="translate(6,0)"><g transform="translate(0,440.18609149772556) rotate(1255.9227250120807,0,0)"><path fill="rgb(255,0,0)" stroke="none" paint-order="stroke fill markers" d=" M 0 0 L 85.99255181003365 0 L 85.99255181003365 85.99255181003365 L 0 85.99255181003365 L 0 0 Z" fill-opacity="0.5882352941176471"/></g><g transform="translate(6,0)"><g transform="translate(0,437.4045663887656) rotate(1269.6117280159212,0,0)"><path fill="rgb(255,127,0)" stroke="none" paint-order="stroke fill markers" d=" M 0 0 L 85.06537677371367 0 L 85.06537677371367 85.06537677371367 L 0 85.06537677371367 L 0 0 Z" fill-opacity="0.5882352941176471"/></g><g transform="translate(6,0)"><g transform="translate(0,447.4678286932451) rotate(1221.4459092021082,0,0)"><path fill="rgb(255,255,0)" stroke="none" paint-order="stroke fill markers" d=" M 0 0 L 88.41979754187349 0 L 88.41979754187349 88.41979754187349 L 0 88.41979754187349 L 0 0 Z" fill-opacity="0.5882352941176471"/></g><g transform="translate(6,0)"><g transform="translate(0,457.7815079677433) rotate(1175.731713428929,0,0)"><path fill="rgb(0,255,0)" stroke="none" paint-order="stroke fill markers" d=" M 0 0 L 91.8576906333729 0 L 91.8576906333729 91.8576906333729 L 0 91.8576906333729 L 0 0 Z" fill-opacity="0.5882352941176471"/></g><g transform="translate(6,0)"><g transform="translate(0,455.08797752515716) rotate(1187.3370875274034,0,0)"><path fill="rgb(0,0,255)" stroke="none" paint-order="stroke fill markers" d=" M 0 0 L 90.95984715251085 0 L 90.95984715251085 90.95984715251085 L 0 90.95984715251085 L 0 0 Z" fill-opacity="0.5882352941176471"/></g><g transform="translate(6,0)"><g transform="translate(0,439.0318311322151) rotate(1261.567311336706,0,0)"><path fill="rgb(75,0,130)" stroke="none" paint-order="stroke fill markers" d=" M 0 0 L 85.60779835486348 0 L 85.60779835486348 85.60779835486348 L 0 85.60779835486348 L 0 0 Z" fill-opacity="0.5882352941176471"/></g><g transform="translate(6,0)"><g transform="translate(0,420.5808953966851) rotate(1359.2174234890751,0,0)"><path fill="rgb(148,0,211)" stroke="none" paint-order="stroke fill markers" d=" M 0 0 L 79.45748644302016 0 L 79.45748644302016 79.45748644302016 L 0 79.45748644302016 L 0 0 Z" fill-opacity="0.5882352941176471"/></g><g transform="translate(6,0)"><g transform="translate(0,407.8777284487794) rotate(1435.7292327250484,0,0)"><path fill="rgb(255,0,0)" stroke="none" paint-order="stroke fill markers" d=" M 0 0 L 75.22309746038493 0 L 75.22309746038493 75.22309746038493 L 0 75.22309746038493 L 0 0 Z" fill-opacity="0.5882352941176471"/></g><g transform="translate(6,0)"><g transform="translate(0,398.5541408237332) rotate(1497.6031087155282,0,0)"><path fill="rgb(255,127,0)" stroke="none" paint-order="stroke fill markers" d=" M 0 0 L 72.11523491870285 0 L 72.11523491870285 72.11523491870285 L 0 72.11523491870285 L 0 0 Z" fill-opacity="0.5882352941176471"/></g><g transform="translate(6,0)"/></g></g></g></g></g></g></g></g></g></g></g></g></g></g></g></g></g></g></g></g></g></g></g></g></g></g></g></g></g></g></g></g></g></g></g></g></g></g></g></g></g></g></g></g></g></g></g></g></g></g></g></g></g></g></g></g></g></g></g></g></g></g></g></g></g></g></g></g></g></g></g></g></g></g></g></g></g></g></g></g></g></g></g></g></g></g></g></g></g></g></g></g></g></g></g></g></g></g></g></g></g></svg>