<svg version="1.1" xmlns="http://www.w3.org/2000/svg" xmlns:xlink="http://www.w3.org/1999/xlink" width="600" height="600" viewBox="0 0 600 600"><defs/><g transform="scale(1,1)"><g transform="scale(1,1)"><rect fill="rgb(0,0,0)" stroke="none" x="0" y="0" width="600" height="600" fill-opacity="1"/></g><g><g transform="translate(0,300)"><path fill="rgb(255,0,0)" stroke="none" paint-order="stroke fill markers" d=" M 0 0 L 300.77950261968573 0 L 300.77950261968573 300.77950261968573 L 0 300.77950261968573 L 0 0 Z" fill-opacity="0.5882352941176471"/></g><g transform="translate(6,0)"><g transform="translate(0,300.8754375165994)"><path fill="rgb(255,127,0)" stroke="none" paint-order="stroke fill markers" d=" M 0 0 L 301.6549401362851 0 L 301.6549401362851 301.6549401362851 L 0 301.6549401362851 L 0 0 Z" fill-opacity="0.5882352941176471"/></g><g transform="translate(6,0)"><g transform="translate(0,298.9914025582646)"><path fill="rgb(255,255,0)" stroke="none" paint-order="stroke fill markers" d=" M 0 0 L 299.77090517795034 0 L 299.77090517795034 299.77090517795034 L 0 299.77090517795034 L 0 0 Z" fill-opacity="0.5882352941176471"/></g><g transform="translate(6,0)"><g transform="translate(0,286.0826543634)"><path fill="rgb(0,255,0)" stroke="none" paint-order="stroke fill markers" d=" M 0 0 L 286.86215698308575 0 L 286.86215698308575 286.86215698308575 L 0 286.86215698308575 L 0 0 Z" fill-opacity="0.5882352941176471"/></g><g transform="translate(6,0)"><g transform="translate(0,297.0235974322857)"><path fill="rgb(0,0,255)" stroke="none" paint-order="stroke fill markers" d=" M 0 0 L 297.80310005197146 0 L 297.80310005197146 297.80310005197146 L 0 297.80310005197146 L 0 0 Z" fill-opacity="0.5882352941176471"/></g><g transform="translate(6,0)"><g transform="translate(0,292.83157108944516)"><path fill="rgb(75,0,130)" stroke="none" paint-order="stroke fill markers" d=" M 0 0 L 293.6110737091309 0 L 293.6110737091309 293.6110737091309 L 0 293.6110737091309 L 0 0 Z" fill-opacity="0.5882352941176471"/></g><g transform="translate(6,0)"><g transform="translate(0,283.10577676771175)"><path fill="rgb(148,0,211)" stroke="none" paint-order="stroke fill markers" d=" M 0 0 L 283.8852793873975 0 L 283.8852793873975 283.8852793873975 L 0 283.8852793873975 L 0 0 Z" fill-opacity="0.5882352941176471"/></g><g transform="translate(6,0)"><g transform="translate(0,274.52898658122024)"><path fill="rgb(255,0,0)" stroke="none" paint-order="stroke fill markers" d=" M 0 0 L 275.30848920090597 0 L 275.30848920090597 275.30848920090597 L 0 275.30848920090597 L 0 0 Z" fill-opacity="0.5882352941176471"/></g><g transform="translate(6,0)"><g transform="translate(0,274.67435261041345)"><path fill="rgb(255,127,0)" stroke="none" paint-order="stroke fill markers" d=" M 0 0 L 275.4538552300992 0 L 275.4538552300992 275.4538552300992 L 0 275.4538552300992 L 0 0 Z" fill-opacity="0.5882352941176471"/></g><g transform="translate(6,0)"><g transform="translate(0,277.74997465722436)"><path fill="rgb(255,255,0)" stroke="none" paint-order="stroke fill markers" d=" M 0 0 L 278.5294772769101 0 L 278.5294772769101 278.5294772769101 L 0 278.5294772769101 L 0 0 Z" fill-opacity="0.5882352941176471"/></g><g transform="translate(6,0)"><g transform="translate(0,268.6601061534591)"><path fill="rgb(0,255,0)" stroke="none" paint-order="stroke fill markers" d=" M 0 0 L 269.4396087731448 0 L 269.4396087731448 269.4396087731448 L 0 269.4396087731448 L 0 0 Z" fill-opacity="0.5882352941176471"/></g><g transform="translate(6,0)"><g transform="translate(0,266.9384858303829)"><path fill="rgb(0,0,255)" stroke="none" paint-order="stroke fill markers" d=" M 0 0 L 267.7179884500686 0 L 267.7179884500686 267.7179884500686 L 0 267.7179884500686 L 0 0 Z" fill-opacity="0.5882352941176471"/></g><g transform="translate(6,0)"><g transform="translate(0,263.68658362198056)"><path fill="rgb(75,0,130)" stroke="none" paint-order="stroke fill markers" d=" M 0 0 L 264.4660862416663 0 L 264.4660862416663 264.4660862416663 L 0 264.4660862416663 L 0 0 Z" fill-opacity="0.5882352941176471"/></g><g transform="translate(6,0)"><g transform="translate(0,262.09301701347783)"><path fill="rgb(148,0,211)" stroke="none" paint-order="stroke fill markers" d=" M 0 0 L 262.87251963316356 0 L 262.87251963316356 262.87251963316356 L 0 262.87251963316356 L 0 0 Z" fill-opacity="0.5882352941176471"/></g><g transform="translate(6,0)"><g transform="translate(0,249.02638497990085)"><path fill="rgb(255,0,0)" stroke="none" paint-order="stroke fill markers" d=" M 0 0 L 249.80588759958658 0 L 249.80588759958658 249.80588759958658 L 0 249.80588759958658 L 0 0 Z" fill-opacity="0.5882352941176471"/></g><g transform="translate(6,0)"><g transform="translate(0,231.8527351849971)"><path fill="rgb(255,127,0)" stroke="none" paint-order="stroke fill markers" d=" M 0 0 L 232.63223780468283 0 L 232.63223780468283 232.63223780468283 L 0 232.63223780468283 L 0 0 Z" fill-opacity="0.5882352941176471"/></g><g transform="translate(6,0)"><g transform="translate(0,238.04674545521604)"><path fill="rgb(255,255,0)" stroke="none" paint-order="stroke fill markers" d=" M 0 0 L 238.82624807490177 0 L 238.82624807490177 238.82624807490177 L 0 238.82624807490177 L 0 0 Z" fill-opacity="0.5882352941176471"/></g><g transform="translate(6,0)"><g transform="translate(0,244.78399503224176)"><path fill="rgb(0,255,0)" stroke="none" paint-order="stroke fill markers" d=" M 0 0 L 245.5634976519275 0 L 245.5634976519275 245.5634976519275 L 0 245.5634976519275 L 0 0 Z" fill-opacity="0.5882352941176471"/></g><g transform="translate(6,0)"><g transform="translate(0,246.66446906093043)"><path fill="rgb(0,0,255)" stroke="none" paint-order="stroke fill markers" d=" M 0 0 L 247.44397168061616 0 L 247.44397168061616 247.44397168061616 L 0 247.44397168061616 L 0 0 Z" fill-opacity="0.5882352941176471"/></g><g transform="translate(6,0)"><g transform="translate(0,236.1538447029576)"><path fill="rgb(75,0,130)" stroke="none" paint-order="stroke fill markers" d=" M 0 0 L 236.93334732264333 0 L 236.93334732264333 236.93334732264333 L 0 236.93334732264333 L 0 0 Z" fill-opacity="0.5882352941176471"/></g><g transform="translate(6,0)"><g transform="translate(0,216.9654306906771)"><path fill="rgb(148,0,211)" stroke="none" paint-order="stroke fill markers" d=" M 0 0 L 217.74493331036282 0 L 217.74493331036282 217.74493331036282 L 0 217.74493331036282 L 0 0 Z" fill-opacity="0.5882352941176471"/></g><g transform="translate(6,0)"><g transform="translate(0,216.81009990670447)"><path fill="rgb(255,0,0)" stroke="none" paint-order="stroke fill markers" d=" M 0 0 L 217.5896025263902 0 L 217.5896025263902 217.5896025263902 L 0 217.5896025263902 L 0 0 Z" fill-opacity="0.5882352941176471"/></g><g transform="translate(6,0)"><g transform="translate(0,210.62200062528976)"><path fill="rgb(255,127,0)" stroke="none" paint-order="stroke fill markers" d=" M 0 0 L 211.4015032449755 0 L 211.4015032449755 211.4015032449755 L 0 211.4015032449755 L 0 0 Z" fill-opacity="0.5882352941176471"/></g><g transform="translate(6,0)"><g transform="translate(0,216.29385045058535)"><path fill="rgb(255,255,0)" stroke="none" paint-order="stroke fill markers" d=" M 0 0 L 217.07335307027108 0 L 217.07335307027108 217.07335307027108 L 0 217.07335307027108 L 0 0 Z" fill-opacity="0.5882352941176471"/></g><g transform="translate(6,0)"><g transform="translate(0,215.28864179329867)"><path fill="rgb(0,255,0)" stroke="none" paint-order="stroke fill markers" d=" M 0 0 L 216.0681444129844 0 L 216.0681444129844 216.0681444129844 L 0 216.0681444129844 L 0 0 Z" fill-opacity="0.5882352941176471"/></g><g transform="translate(6,0)"><g transform="translate(0,208.17394262767144)"><path fill="rgb(0,0,255)" stroke="none" paint-order="stroke fill markers" d=" M 0 0 L 208.95344524735717 0 L 208.95344524735717 208.95344524735717 L 0 208.95344524735717 L 0 0 Z" fill-opacity="0.5882352941176471"/></g><g transform="translate(6,0)"><g transform="translate(0,201.3848183005926)"><path fill="rgb(75,0,130)" stroke="none" paint-order="stroke fill markers" d=" M 0 0 L 202.16432092027833 0 L 202.16432092027833 202.16432092027833 L 0 202.16432092027833 L 0 0 Z" fill-opacity="0.5882352941176471"/></g><g transform="translate(6,0)"><g transform="translate(0,197.96264655548302)"><path fill="rgb(148,0,211)" stroke="none" paint-order="stroke fill markers" d=" M 0 0 L 198.74214917516875 0 L 198.74214917516875 198.74214917516875 L 0 198.74214917516875 L 0 0 Z" fill-opacity="0.5882352941176471"/></g><g transform="translate(6,0)"><g transform="translate(0,212.93263675540413)"><path fill="rgb(255,0,0)" stroke="none" paint-order="stroke fill markers" d=" M 0 0 L 213.71213937508986 0 L 213.71213937508986 213.71213937508986 L 0 213.71213937508986 L 0 0 Z" fill-opacity="0.5882352941176471"/></g><g transform="translate(6,0)"><g transform="translate(0,192.57105112539261)"><path fill="rgb(255,127,0)" stroke="none" paint-order="stroke fill markers" d=" M 0 0 L 193.35055374507834 0 L 193.35055374507834 193.35055374507834 L 0 193.35055374507834 L 0 0 Z" fill-opacity="0.5882352941176471"/></g><g transform="translate(6,0)"><g transform="translate(0,177.4837951217042)"><path fill="rgb(255,255,0)" stroke="none" paint-order="stroke fill markers" d=" M 0 0 L 178.26329774138992 0 L 178.26329774138992 178.26329774138992 L 0 178.26329774138992 L 0 0 Z" fill-opacity="0.5882352941176471"/></g><g transform="translate(6,0)"><g transform="translate(0,174.01068639947712)"><path fill="rgb(0,255,0)" stroke="none" paint-order="stroke fill markers" d=" M 0 0 L 174.79018901916285 0 L 174.79018901916285 174.79018901916285 L 0 174.79018901916285 L 0 0 Z" fill-opacity="0.5882352941176471"/></g><g transform="translate(6,0)"><g transform="translate(0,202.67084659444166)"><path fill="rgb(0,0,255)" stroke="none" paint-order="stroke fill markers" d=" M 0 0 L 203.45034921412739 0 L 203.45034921412739 203.45034921412739 L 0 203.45034921412739 L 0 0 Z" fill-opacity="0.5882352941176471"/></g><g transform="translate(6,0)"><g transform="translate(0,230.5348160263892)"><path fill="rgb(75,0,130)" stroke="none" paint-order="stroke fill markers" d=" M 0 0 L 231.31431864607492 0 L 231.31431864607492 231.31431864607492 L 0 231.31431864607492 L 0 0 Z" fill-opacity="0.5882352941176471"/></g><g transform="translate(6,0)"><g transform="translate(0,266.37263219177675)"><path fill="rgb(148,0,211)" stroke="none" paint-order="stroke fill markers" d=" M 0 0 L 267.1521348114625 0 L 267.1521348114625 267.1521348114625 L 0 267.1521348114625 L 0 0 Z" fill-opacity="0.5882352941176471"/></g><g transform="translate(6,0)"><g transform="translate(0,287.2193903333799)"><path fill="rgb(255,0,0)" stroke="none" paint-order="stroke fill markers" d=" M 0 0 L 287.99889295306565 0 L 287.99889295306565 287.99889295306565 L 0 287.99889295306565 L 0 0 Z" fill-opacity="0.5882352941176471"/></g><g transform="translate(6,0)"><g transform="translate(0,306.8095645529344)"><path fill="rgb(255,127,0)" stroke="none" paint-order="stroke fill markers" d=" M 0 0 L 307.5890671726201 0 L 307.5890671726201 307.5890671726201 L 0 307.5890671726201 L 0 0 Z" fill-opacity="0.5882352941176471"/></g><g transform="translate(6,0)"><g transform="translate(0,316.0117061840242)"><path fill="rgb(255,255,0)" stroke="none" paint-order="stroke fill markers" d=" M 0 0 L 316.79120880370994 0 L 316.79120880370994 316.79120880370994 L 0 316.79120880370994 L 0 0 Z" fill-opacity="0.5882352941176471"/></g><g transform="translate(6,0)"><g transform="translate(0,317.26768588518865)"><path fill="rgb(0,255,0)" stroke="none" paint-order="stroke fill markers" d=" M 0 0 L 318.0471885048744 0 L 318.0471885048744 318.0471885048744 L 0 318.0471885048744 L 0 0 Z" fill-opacity="0.5882352941176471"/></g><g transform="translate(6,0)"><g transform="translate(0,317.50436062085384)"><path fill="rgb(0,0,255)" stroke="none" paint-order="stroke fill markers" d=" M 0 0 L 318.2838632405396 0 L 318.2838632405396 318.2838632405396 L 0 318.2838632405396 L 0 0 Z" fill-opacity="0.5882352941176471"/></g><g transform="translate(6,0)"><g transform="translate(0,304.78621475134156)"><path fill="rgb(75,0,130)" stroke="none" paint-order="stroke fill markers" d=" M 0 0 L 305.5657173710273 0 L 305.5657173710273 305.5657173710273 L 0 305.5657173710273 L 0 0 Z" fill-opacity="0.5882352941176471"/></g><g transform="translate(6,0)"><g transform="translate(0,314.05653574694315)"><path fill="rgb(148,0,211)" stroke="none" paint-order="stroke fill markers" d=" M 0 0 L 314.8360383666289 0 L 314.8360383666289 314.8360383666289 L 0 314.8360383666289 L 0 0 Z" fill-opacity="0.5882352941176471"/></g><g transform="translate(6,0)"><g transform="translate(0,338.1831357692023)"><path fill="rgb(255,0,0)" stroke="none" paint-order="stroke fill markers" d=" M 0 0 L 338.962638388888 0 L 338.962638388888 338.962638388888 L 0 338.962638388888 L 0 0 Z" fill-opacity="0.5882352941176471"/></g><g transform="translate(6,0)"><g transform="translate(0,357.90247891611676)"><path fill="rgb(255,127,0)" stroke="none" paint-order="stroke fill markers" d=" M 0 0 L 358.6819815358025 0 L 358.6819815358025 358.6819815358025 L 0 358.6819815358025 L 0 0 Z" fill-opacity="0.5882352941176471"/></g><g transform="translate(6,0)"><g transform="translate(0,369.19192970554207)"><path fill="rgb(255,255,0)" stroke="none" paint-order="stroke fill markers" d=" M 0 0 L 369.9714323252278 0 L 369.9714323252278 369.9714323252278 L 0 369.9714323252278 L 0 0 Z" fill-opacity="0.5882352941176471"/></g><g transform="translate(6,0)"><g transform="translate(0,376.0657911677866)"><path fill="rgb(0,255,0)" stroke="none" paint-order="stroke fill markers" d=" M 0 0 L 376.8452937874723 0 L 376.8452937874723 376.8452937874723 L 0 376.8452937874723 L 0 0 Z" fill-opacity="0.5882352941176471"/></g><g transform="translate(6,0)"><g transform="translate(0,389.01423224849606)"><path fill="rgb(0,0,255)" stroke="none" paint-order="stroke fill markers" d=" M 0 0 L 389.7937348681818 0 L 389.7937348681818 389.7937348681818 L 0 389.7937348681818 L 0 0 Z" fill-opacity="0.5882352941176471"/></g><g transform="translate(6,0)"><g transform="translate(0,392.4683556188744)"><path fill="rgb(75,0,130)" stroke="none" paint-order="stroke fill markers" d=" M 0 0 L 393.2478582385601 0 L 393.2478582385601 393.2478582385601 L 0 393.2478582385601 L 0 0 Z" fill-opacity="0.5882352941176471"/></g><g transform="translate(6,0)"><g transform="translate(0,399.05928520027624)"><path fill="rgb(148,0,211)" stroke="none" paint-order="stroke fill markers" d=" M 0 0 L 399.83878781996196 0 L 399.83878781996196 399.83878781996196 L 0 399.83878781996196 L 0 0 Z" fill-opacity="0.5882352941176471"/></g><g transform="translate(6,0)"><g transform="translate(0,388.3041530283725)"><path fill="rgb(255,0,0)" stroke="none" paint-order="stroke fill markers" d=" M 0 0 L 389.08365564805825 0 L 389.08365564805825 389.08365564805825 L 0 389.08365564805825 L 0 0 Z" fill-opacity="0.5882352941176471"/></g><g transform="translate(6,0)"><g transform="translate(0,369.77724703848037)"><path fill="rgb(255,127,0)" stroke="none" paint-order="stroke fill markers" d=" M 0 0 L 370.5567496581661 0 L 370.5567496581661 370.5567496581661 L 0 370.5567496581661 L 0 0 Z" fill-opacity="0.5882352941176471"/></g><g transform="translate(6,0)"><g transform="translate(0,374.619999801782)"><path fill="rgb(255,255,0)" stroke="none" paint-order="stroke fill markers" d=" M 0 0 L 375.39950242146773 0 L 375.39950242146773 375.39950242146773 L 0 375.39950242146773 L 0 0 Z" fill-opacity="0.5882352941176471"/></g><g transform="translate(6,0)"><g transform="translate(0,367.4924005500415)"><path fill="rgb(0,255,0)" stroke="none" paint-order="stroke fill markers" d=" M 0 0 L 368.27190316972724 0 L 368.27190316972724 368.27190316972724 L 0 368.27190316972724 L 0 0 Z" fill-opacity="0.5882352941176471"/></g><g transform="translate(6,0)"><g transform="translate(0,364.16806383710724)"><path fill="rgb(0,0,255)" stroke="none" paint-order="stroke fill markers" d=" M 0 0 L 364.94756645679297 0 L 364.94756645679297 364.94756645679297 L 0 364.94756645679297 L 0 0 Z" fill-opacity="0.5882352941176471"/></g><g transform="translate(6,0)"><g transform="translate(0,342.43495750816373)"><path fill="rgb(75,0,130)" stroke="none" paint-order="stroke fill markers" d=" M 0 0 L 343.21446012784946 0 L 343.21446012784946 343.21446012784946 L 0 343.21446012784946 L 0 0 Z" fill-opacity="0.5882352941176471"/></g><g transform="translate(6,0)"><g transform="translate(0,337.88489630614066)"><path fill="rgb(148,0,211)" stroke="none" paint-order="stroke fill markers" d=" M 0 0 L 338.6643989258264 0 L 338.6643989258264 338.6643989258264 L 0 338.6643989258264 L 0 0 Z" fill-opacity="0.5882352941176471"/></g><g transform="translate(6,0)"><g transform="translate(0,327.51740218864876)"><path fill="rgb(255,0,0)" stroke="none" paint-order="stroke fill markers" d=" M 0 0 L 328.2969048083345 0 L 328.2969048083345 328.2969048083345 L 0 328.2969048083345 L 0 0 Z" fill-opacity="0.5882352941176471"/></g><g transform="translate(6,0)"><g transform="translate(0,301.4442411416317)"><path fill="rgb(255,127,0)" stroke="none" paint-order="stroke fill markers" d=" M 0 0 L 302.22374376131745 0 L 302.22374376131745 302.22374376131745 L 0 302.22374376131745 L 0 0 Z" fill-opacity="0.5882352941176471"/></g><g transform="translate(6,0)"><g transform="translate(0,261.943289900405)"><path fill="rgb(255,255,0)" stroke="none" paint-order="stroke fill markers" d=" M 0 0 L 262.7227925200907 0 L 262.7227925200907 262.7227925200907 L 0 262.7227925200907 L 0 0 Z" fill-opacity="0.5882352941176471"/></g><g transform="translate(6,0)"><g transform="translate(0,221.31218032898948)"><path fill="rgb(0,255,0)" stroke="none" paint-order="stroke fill markers" d=" M 0 0 L 222.0916829486752 0 L 222.0916829486752 222.0916829486752 L 0 222.0916829486752 L 0 0 Z" fill-opacity="0.5882352941176471"/></g><g transform="translate(6,0)"><g transform="translate(0,181.79859098992247)"><path fill="rgb(0,0,255)" stroke="none" paint-order="stroke fill markers" d=" M 0 0 L 182.5780936096082 0 L 182.5780936096082 182.5780936096082 L 0 182.5780936096082 L 0 0 Z" fill-opacity="0.5882352941176471"/></g><g transform="translate(6,0)"><g transform="translate(0,133.50466132070596)"><path fill="rgb(75,0,130)" stroke="none" paint-order="stroke fill markers" d=" M 0 0 L 134.2841639403917 0 L 134.2841639403917 134.2841639403917 L 0 134.2841639403917 L 0 0 Z" fill-opacity="0.5882352941176471"/></g><g transform="translate(6,0)"><g transform="translate(0,100.06488623836496)"><path fill="rgb(148,0,211)" stroke="none" paint-order="stroke fill markers" d=" M 0 0 L 100.84438885805069 0 L 100.84438885805069 100.84438885805069 L 0 100.84438885805069 L 0 0 Z" fill-opacity="0.5882352941176471"/></g><g transform="translate(6,0)"><g transform="translate(0,97.7038974865718)"><path fill="rgb(255,0,0)" stroke="none" paint-order="stroke fill markers" d=" M 0 0 L 98.48340010625753 0 L 98.48340010625753 98.48340010625753 L 0 98.48340010625753 L 0 0 Z" fill-opacity="0.5882352941176471"/></g><g transform="translate(6,0)"><g transform="translate(0,111.81154302290795)"><path fill="rgb(255,127,0)" stroke="none" paint-order="stroke fill markers" d=" M 0 0 L 112.59104564259368 0 L 112.59104564259368 112.59104564259368 L 0 112.59104564259368 L 0 0 Z" fill-opacity="0.5882352941176471"/></g><g transform="translate(6,0)"><g transform="translate(0,107.24933392812166)"><path fill="rgb(255,255,0)" stroke="none" paint-order="stroke fill markers" d=" M 0 0 L 108.02883654780739 0 L 108.02883654780739 108.02883654780739 L 0 108.02883654780739 L 0 0 Z" fill-opacity="0.5882352941176471"/></g><g transform="translate(6,0)"><g transform="translate(0,102.11210524650937)"><path fill="rgb(0,255,0)" stroke="none" paint-order="stroke fill markers" d=" M 0 0 L 102.8916078661951 0 L 102.8916078661951 102.8916078661951 L 0 102.8916078661951 L 0 0 Z" fill-opacity="0.5882352941176471"/></g><g transform="translate(6,0)"><g transform="translate(0,112.7781276172952)"><path fill="rgb(0,0,255)" stroke="none" paint-order="stroke fill markers" d=" M 0 0 L 113.55763023698093 0 L 113.55763023698093 113.55763023698093 L 0 113.55763023698093 L 0 0 Z" fill-opacity="0.5882352941176471"/></g><g transform="translate(6,0)"><g transform="translate(0,133.5673874432321)"><path fill="rgb(75,0,130)" stroke="none" paint-order="stroke fill markers" d=" M 0 0 L 134.34689006291782 0 L 134.34689006291782 134.34689006291782 L 0 134.34689006291782 L 0 0 Z" fill-opacity="0.5882352941176471"/></g><g transform="translate(6,0)"><g transform="translate(0,141.10425284821866)"><path fill="rgb(148,0,211)" stroke="none" paint-order="stroke fill markers" d=" M 0 0 L 141.8837554679044 0 L 141.8837554679044 141.8837554679044 L 0 141.8837554679044 L 0 0 Z" fill-opacity="0.5882352941176471"/></g><g transform="translate(6,0)"><g transform="translate(0,131.54163795660892)"><path fill="rgb(255,0,0)" stroke="none" paint-order="stroke fill markers" d=" M 0 0 L 132.32114057629465 0 L 132.32114057629465 132.32114057629465 L 0 132.32114057629465 L 0 0 Z" fill-opacity="0.5882352941176471"/></g><g transform="translate(6,0)"><g transform="translate(0,140.25941503531877)"><path fill="rgb(255,127,0)" stroke="none" paint-order="stroke fill markers" d=" M 0 0 L 141.0389176550045 0 L 141.0389176550045 141.0389176550045 L 0 141.0389176550045 L 0 0 Z" fill-opacity="0.5882352941176471"/></g><g transform="translate(6,0)"><g transform="translate(0,154.1401348901171)"><path fill="rgb(255,255,0)" stroke="none" paint-order="stroke fill markers" d=" M 0 0 L 154.91963750980284 0 L 154.91963750980284 154.91963750980284 L 0 154.91963750980284 L 0 0 Z" fill-opacity="0.5882352941176471"/></g><g transform="translate(6,0)"><g transform="translate(0,148.40391049583323)"><path fill="rgb(0,255,0)" stroke="none" paint-order="stroke fill markers" d=" M 0 0 L 149.18341311551896 0 L 149.18341311551896 149.18341311551896 L 0 149.18341311551896 L 0 0 Z" fill-opacity="0.5882352941176471"/></g><g transform="translate(6,0)"><g transform="translate(0,151.59033207028293)"><path fill="rgb(0,0,255)" stroke="none" paint-order="stroke fill markers" d=" M 0 0 L 152.36983468996866 0 L 152.36983468996866 152.36983468996866 L 0 152.36983468996866 L 0 0 Z" fill-opacity="0.5882352941176471"/></g><g transform="translate(6,0)"><g transform="translate(0,163.87579260560636)"><path fill="rgb(75,0,130)" stroke="none" paint-order="stroke fill markers" d=" M 0 0 L 164.6552952252921 0 L 164.6552952252921 164.6552952252921 L 0 164.6552952252921 L 0 0 Z" fill-opacity="0.5882352941176471"/></g><g transform="translate(6,0)"><g transform="translate(0,155.74299429339396)"><path fill="rgb(148,0,211)" stroke="none" paint-order="stroke fill markers" d=" M 0 0 L 156.5224969130797 0 L 156.5224969130797 156.5224969130797 L 0 156.5224969130797 L 0 0 Z" fill-opacity="0.5882352941176471"/></g><g transform="translate(6,0)"><g transform="translate(0,153.73215779576444)"><path fill="rgb(255,0,0)" stroke="none" paint-order="stroke fill markers" d=" M 0 0 L 154.51166041545017 0 L 154.51166041545017 154.51166041545017 L 0 154.51166041545017 L 0 0 Z" fill-opacity="0.5882352941176471"/></g><g transform="translate(6,0)"><g transform="translate(0,153.21873001019964)"><path fill="rgb(255,127,0)" stroke="none" paint-order="stroke fill markers" d=" M 0 0 L 153.99823262988536 0 L 153.99823262988536 153.99823262988536 L 0 153.99823262988536 L 0 0 Z" fill-opacity="0.5882352941176471"/></g><g transform="translate(6,0)"><g transform="translate(0,137.83319225275298)"><path fill="rgb(255,255,0)" stroke="none" paint-order="stroke fill markers" d=" M 0 0 L 138.6126948724387 0 L 138.6126948724387 138.6126948724387 L 0 138.6126948724387 L 0 0 Z" fill-opacity="0.5882352941176471"/></g><g transform="translate(6,0)"><g transform="translate(0,117.37214548880249)"><path fill="rgb(0,255,0)" stroke="none" paint-order="stroke fill markers" d=" M 0 0 L 118.15164810848822 0 L 118.15164810848822 118.15164810848822 L 0 118.15164810848822 L 0 0 Z" fill-opacity="0.5882352941176471"/></g><g transform="translate(6,0)"><g transform="translate(0,111.93588681699411)"><path fill="rgb(0,0,255)" stroke="none" paint-order="stroke fill markers" d=" M 0 0 L 112.71538943667984 0 L 112.71538943667984 112.71538943667984 L 0 112.71538943667984 L 0 0 Z" fill-opacity="0.5882352941176471"/></g><g transform="translate(6,0)"><g transform="translate(0,135.8170948364238)"><path fill="rgb(75,0,130)" stroke="none" paint-order="stroke fill markers" d=" M 0 0 L 136.59659745610952 0 L 136.59659745610952 136.59659745610952 L 0 136.59659745610952 L 0 0 Z" fill-opacity="0.5882352941176471"/></g><g transform="translate(6,0)"><g transform="translate(0,167.14434516589097)"><path fill="rgb(148,0,211)" stroke="none" paint-order="stroke fill markers" d=" M 0 0 L 167.9238477855767 0 L 167.9238477855767 167.9238477855767 L 0 167.9238477855767 L 0 0 Z" fill-opacity="0.5882352941176471"/></g><g transform="translate(6,0)"><g transform="translate(0,208.33308738831613)"><path fill="rgb(255,0,0)" stroke="none" paint-order="stroke fill markers" d=" M 0 0 L 209.11259000800186 0 L 209.11259000800186 209.11259000800186 L 0 209.11259000800186 L 0 0 Z" fill-opacity="0.5882352941176471"/></g><g transform="translate(6,0)"><g transform="translate(0,222.72531981771385)"><path fill="rgb(255,127,0)" stroke="none" paint-order="stroke fill markers" d=" M 0 0 L 223.50482243739958 0 L 223.50482243739958 223.50482243739958 L 0 223.50482243739958 L 0 0 Z" fill-opacity="0.5882352941176471"/></g><g transform="translate(6,0)"><g transform="translate(0,237.32449598786891)"><path fill="rgb(255,255,0)" stroke="none" paint-order="stroke fill markers" d=" M 0 0 L 238.10399860755464 0 L 238.10399860755464 238.10399860755464 L 0 238.10399860755464 L 0 0 Z" fill-opacity="0.5882352941176471"/></g><g transform="translate(6,0)"><g transform="translate(0,236.3221027497916)"><path fill="rgb(0,255,0)" stroke="none" paint-order="stroke fill markers" d=" M 0 0 L 237.10160536947734 0 L 237.10160536947734 237.10160536947734 L 0 237.10160536947734 L 0 0 Z" fill-opacity="0.5882352941176471"/></g><g transform="translate(6,0)"><g transform="translate(0,241.0725348878325)"><path fill="rgb(0,0,255)" stroke="none" paint-order="stroke fill markers" d=" M 0 0 L 241.85203750751822 0 L 241.85203750751822 241.85203750751822 L 0 241.85203750751822 L 0 0 Z" fill-opacity="0.5882352941176471"/></g><g transform="translate(6,0)"><g transform="translate(0,268.5406813226729)"><path fill="rgb(75,0,130)" stroke="none" paint-order="stroke fill markers" d=" M 0 0 L 269.32018394235865 0 L 269.32018394235865 269.32018394235865 L 0 269.32018394235865 L 0 0 Z" fill-opacity="0.5882352941176471"/></g><g transform="translate(6,0)"><g transform="translate(0,274.24045147069336)"><path fill="rgb(148,0,211)" stroke="none" paint-order="stroke fill markers" d=" M 0 0 L 275.0199540903791 0 L 275.0199540903791 275.0199540903791 L 0 275.0199540903791 L 0 0 Z" fill-opacity="0.5882352941176471"/></g><g transform="translate(6,0)"><g transform="translate(0,286.8103407359521)"><path fill="rgb(255,0,0)" stroke="none" paint-order="stroke fill markers" d=" M 0 0 L 287.5898433556378 0 L 287.5898433556378 287.5898433556378 L 0 287.5898433556378 L 0 0 Z" fill-opacity="0.5882352941176471"/></g><g transform="translate(6,0)"><g transform="translate(0,284.04776220042567)"><path fill="rgb(255,127,0)" stroke="none" paint-order="stroke fill markers" d=" M 0 0 L 284.8272648201114 0 L 284.8272648201114 284.8272648201114 L 0 284.8272648201114 L 0 0 Z" fill-opacity="0.5882352941176471"/></g><g transform="translate(6,0)"><g transform="translate(0,287.41776734299634)"><path fill="rgb(255,255,0)" stroke="none" paint-order="stroke fill markers" d=" M 0 0 L 288.19726996268207 0 L 288.19726996268207 288.19726996268207 L 0 288.19726996268207 L 0 0 Z" fill-opacity="0.5882352941176471"/></g><g transform="translate(6,0)"><g transform="translate(0,292.73090864278436)"><path fill="rgb(0,255,0)" stroke="none" paint-order="stroke fill markers" d=" M 0 0 L 293.5104112624701 0 L 293.5104112624701 293.5104112624701 L 0 293.5104112624701 L 0 0 Z" fill-opacity="0.5882352941176471"/></g><g transform="translate(6,0)"><g transform="translate(0,290.0958662187023)"><path fill="rgb(0,0,255)" stroke="none" paint-order="stroke fill markers" d=" M 0 0 L 290.87536883838806 0 L 290.87536883838806 290.87536883838806 L 0 290.87536883838806 L 0 0 Z" fill-opacity="0.5882352941176471"/></g><g transform="translate(6,0)"><g transform="translate(0,299.5114533843659)"><path fill="rgb(75,0,130)" stroke="none" paint-order="stroke fill markers" d=" M 0 0 L 300.2909560040516 0 L 300.2909560040516 300.2909560040516 L 0 300.2909560040516 L 0 0 Z" fill-opacity="0.5882352941176471"/></g><g transform="translate(6,0)"><g transform="translate(0,304.28200418863497)"><path fill="rgb(148,0,211)" stroke="none" paint-order="stroke fill markers" d=" M 0 0 L 305.0615068083207 0 L 305.0615068083207 305.0615068083207 L 0 305.0615068083207 L 0 0 Z" fill-opacity="0.5882352941176471"/></g><g transform="translate(6,0)"><g transform="translate(0,275.67285740904765)"><path fill="rgb(255,0,0)" stroke="none" paint-order="stroke fill markers" d=" M 0 0 L 276.4523600287334 0 L 276.4523600287334 276.4523600287334 L 0 276.4523600287334 L 0 0 Z" fill-opacity="0.5882352941176471"/></g><g transform="translate(6,0)"><g transform="translate(0,253.04695098139902)"><path fill="rgb(255,127,0)" stroke="none" paint-order="stroke fill markers" d=" M 0 0 L 253.82645360108475 0 L 253.82645360108475 253.82645360108475 L 0 253.82645360108475 L 0 0 Z" fill-opacity="0.5882352941176471"/></g><g transform="translate(6,0)"/></g></g></g></g></g></g></g></g></g></g></g></g></g></g></g></g></g></g></g></g></g></g></g></g></g></g></g></g></g></g></g></g></g></g></g></g></g></g></g></g></g></g></g></g></g></g></g></g></g></g></g></g></g></g></g></g></g></g></g></g></g></g></g></g></g></g></g></g></g></g></g></g></g></g></g></g></g></g></g></g></g></g></g></g></g></g></g></g></g></g></g></g></g></g></g></g></g></g></g></g></g></svg>