<svg version="1.1" xmlns="http://www.w3.org/2000/svg" xmlns:xlink="http://www.w3.org/1999/xlink" width="600" height="600" viewBox="0 0 600 600"><defs/><g transform="scale(1,1)"><g transform="scale(1,1)"><rect fill="rgb(0,0,0)" stroke="none" x="0" y="0" width="600" height="600" fill-opacity="1"/></g><g><g transform="translate(0,300) rotate(Infinity,0,0)"><path fill="rgb(255,0,0)" stroke="none" paint-order="stroke fill markers" d=" M 0 0 L 102.81862800117415 0 L 102.81862800117415 102.81862800117415 L 0 102.81862800117415 L 0 0 Z" fill-opacity="0.5882352941176471"/></g><g transform="translate(6,0)"><g transform="translate(0,298.4547147886682) rotate(108000,0,0)"><path fill="rgb(255,127,0)" stroke="none" paint-order="stroke fill markers" d=" M 0 0 L 102.30353293073021 0 L 102.30353293073021 102.30353293073021 L 0 102.30353293073021 L 0 0 Z" fill-opacity="0.5882352941176471"/></g><g transform="translate(6,0)"><g transform="translate(0,295.08744505426057) rotate(54000,0,0)"><path fill="rgb(255,255,0)" stroke="none" paint-order="stroke fill markers" d=" M 0 0 L 101.18110968592767 0 L 101.18110968592767 101.18110968592767 L 0 101.18110968592767 L 0 0 Z" fill-opacity="0.5882352941176471"/></g><g transform="translate(6,0)"><g transform="translate(0,291.6220680037458) rotate(36000,0,0)"><path fill="rgb(0,255,0)" stroke="none" paint-order="stroke fill markers" d=" M 0 0 L 100.02598400242276 0 L 100.02598400242276 100.02598400242276 L 0 100.02598400242276 L 0 0 Z" fill-opacity="0.5882352941176471"/></g><g transform="translate(6,0)"><g transform="translate(0,286.6794222919287) rotate(27000,0,0)"><path fill="rgb(0,0,255)" stroke="none" paint-order="stroke fill markers" d=" M 0 0 L 98.37843543181704 0 L 98.37843543181704 98.37843543181704 L 0 98.37843543181704 L 0 0 Z" fill-opacity="0.5882352941176471"/></g><g transform="translate(6,0)"><g transform="translate(0,282.8100771602308) rotate(21599.999999999996,0,0)"><path fill="rgb(75,0,130)" stroke="none" paint-order="stroke fill markers" d=" M 0 0 L 97.08865372125108 0 L 97.08865372125108 97.08865372125108 L 0 97.08865372125108 L 0 0 Z" fill-opacity="0.5882352941176471"/></g><g transform="translate(6,0)"><g transform="translate(0,275.5547352101293) rotate(18000,0,0)"><path fill="rgb(148,0,211)" stroke="none" paint-order="stroke fill markers" d=" M 0 0 L 94.67020640455058 0 L 94.67020640455058 94.67020640455058 L 0 94.67020640455058 L 0 0 Z" fill-opacity="0.5882352941176471"/></g><g transform="translate(6,0)"><g transform="translate(0,264.7328278846263) rotate(15428.571428571428,0,0)"><path fill="rgb(255,0,0)" stroke="none" paint-order="stroke fill markers" d=" M 0 0 L 91.06290396271625 0 L 91.06290396271625 91.06290396271625 L 0 91.06290396271625 L 0 0 Z" fill-opacity="0.5882352941176471"/></g><g transform="translate(6,0)"><g transform="translate(0,262.53449224705065) rotate(13500,0,0)"><path fill="rgb(255,127,0)" stroke="none" paint-order="stroke fill markers" d=" M 0 0 L 90.3301254168577 0 L 90.3301254168577 90.3301254168577 L 0 90.3301254168577 L 0 0 Z" fill-opacity="0.5882352941176471"/></g><g transform="translate(6,0)"><g transform="translate(0,278.00450411920247) rotate(12000,0,0)"><path fill="rgb(255,255,0)" stroke="none" paint-order="stroke fill markers" d=" M 0 0 L 95.4867960409083 0 L 95.4867960409083 95.4867960409083 L 0 95.4867960409083 L 0 0 Z" fill-opacity="0.5882352941176471"/></g><g transform="translate(6,0)"><g transform="translate(0,287.5616280062446) rotate(10799.999999999998,0,0)"><path fill="rgb(0,255,0)" stroke="none" paint-order="stroke fill markers" d=" M 0 0 L 98.67250400325567 0 L 98.67250400325567 98.67250400325567 L 0 98.67250400325567 L 0 0 Z" fill-opacity="0.5882352941176471"/></g><g transform="translate(6,0)"><g transform="translate(0,280.25134221861026) rotate(9818.181818181818,0,0)"><path fill="rgb(0,0,255)" stroke="none" paint-order="stroke fill markers" d=" M 0 0 L 96.23574207404424 0 L 96.23574207404424 96.23574207404424 L 0 96.23574207404424 L 0 0 Z" fill-opacity="0.5882352941176471"/></g><g transform="translate(6,0)"><g transform="translate(0,266.62491205891416) rotate(9000,0,0)"><path fill="rgb(75,0,130)" stroke="none" paint-order="stroke fill markers" d=" M 0 0 L 91.69359868747887 0 L 91.69359868747887 91.69359868747887 L 0 91.69359868747887 L 0 0 Z" fill-opacity="0.5882352941176471"/></g><g transform="translate(6,0)"><g transform="translate(0,255.44642462033386) rotate(8307.692307692307,0,0)"><path fill="rgb(148,0,211)" stroke="none" paint-order="stroke fill markers" d=" M 0 0 L 87.9674362079521 0 L 87.9674362079521 87.9674362079521 L 0 87.9674362079521 L 0 0 Z" fill-opacity="0.5882352941176471"/></g><g transform="translate(6,0)"><g transform="translate(0,245.91033544295271) rotate(7714.285714285714,0,0)"><path fill="rgb(255,0,0)" stroke="none" paint-order="stroke fill markers" d=" M 0 0 L 84.78873981549172 0 L 84.78873981549172 84.78873981549172 L 0 84.78873981549172 L 0 0 Z" fill-opacity="0.5882352941176471"/></g><g transform="translate(6,0)"><g transform="translate(0,240.22119260849425) rotate(7200,0,0)"><path fill="rgb(255,127,0)" stroke="none" paint-order="stroke fill markers" d=" M 0 0 L 82.89235887067223 0 L 82.89235887067223 82.89235887067223 L 0 82.89235887067223 L 0 0 Z" fill-opacity="0.5882352941176471"/></g><g transform="translate(6,0)"><g transform="translate(0,245.87183727023483) rotate(6750,0,0)"><path fill="rgb(255,255,0)" stroke="none" paint-order="stroke fill markers" d=" M 0 0 L 84.77590709125242 0 L 84.77590709125242 84.77590709125242 L 0 84.77590709125242 L 0 0 Z" fill-opacity="0.5882352941176471"/></g><g transform="translate(6,0)"><g transform="translate(0,263.7268440616375) rotate(6352.941176470587,0,0)"><path fill="rgb(0,255,0)" stroke="none" paint-order="stroke fill markers" d=" M 0 0 L 90.72757602171998 0 L 90.72757602171998 90.72757602171998 L 0 90.72757602171998 L 0 0 Z" fill-opacity="0.5882352941176471"/></g><g transform="translate(6,0)"><g transform="translate(0,283.15971940279707) rotate(6000,0,0)"><path fill="rgb(0,0,255)" stroke="none" paint-order="stroke fill markers" d=" M 0 0 L 97.20520113543984 0 L 97.20520113543984 97.20520113543984 L 0 97.20520113543984 L 0 0 Z" fill-opacity="0.5882352941176471"/></g><g transform="translate(6,0)"><g transform="translate(0,297.3327702724046) rotate(5684.210526315789,0,0)"><path fill="rgb(75,0,130)" stroke="none" paint-order="stroke fill markers" d=" M 0 0 L 101.92955142530901 0 L 101.92955142530901 101.92955142530901 L 0 101.92955142530901 L 0 0 Z" fill-opacity="0.5882352941176471"/></g><g transform="translate(6,0)"><g transform="translate(0,302.4019257066084) rotate(5399.999999999999,0,0)"><path fill="rgb(148,0,211)" stroke="none" paint-order="stroke fill markers" d=" M 0 0 L 103.61926990337695 0 L 103.61926990337695 103.61926990337695 L 0 103.61926990337695 L 0 0 Z" fill-opacity="0.5882352941176471"/></g><g transform="translate(6,0)"><g transform="translate(0,294.7100126965057) rotate(5142.857142857143,0,0)"><path fill="rgb(255,0,0)" stroke="none" paint-order="stroke fill markers" d=" M 0 0 L 101.05529890000939 0 L 101.05529890000939 101.05529890000939 L 0 101.05529890000939 L 0 0 Z" fill-opacity="0.5882352941176471"/></g><g transform="translate(6,0)"><g transform="translate(0,278.721534669429) rotate(4909.090909090909,0,0)"><path fill="rgb(255,127,0)" stroke="none" paint-order="stroke fill markers" d=" M 0 0 L 95.72580622431714 0 L 95.72580622431714 95.72580622431714 L 0 95.72580622431714 L 0 0 Z" fill-opacity="0.5882352941176471"/></g><g transform="translate(6,0)"><g transform="translate(0,264.1716080979894) rotate(4695.652173913044,0,0)"><path fill="rgb(255,255,0)" stroke="none" paint-order="stroke fill markers" d=" M 0 0 L 90.87583070050395 0 L 90.87583070050395 90.87583070050395 L 0 90.87583070050395 L 0 0 Z" fill-opacity="0.5882352941176471"/></g><g transform="translate(6,0)"><g transform="translate(0,243.90499081468056) rotate(4500,0,0)"><path fill="rgb(0,255,0)" stroke="none" paint-order="stroke fill markers" d=" M 0 0 L 84.12029160606767 0 L 84.12029160606767 84.12029160606767 L 0 84.12029160606767 L 0 0 Z" fill-opacity="0.5882352941176471"/></g><g transform="translate(6,0)"><g transform="translate(0,228.542552370493) rotate(4320,0,0)"><path fill="rgb(0,0,255)" stroke="none" paint-order="stroke fill markers" d=" M 0 0 L 78.99947879133849 0 L 78.99947879133849 78.99947879133849 L 0 78.99947879133849 L 0 0 Z" fill-opacity="0.5882352941176471"/></g><g transform="translate(6,0)"><g transform="translate(0,220.16920448477862) rotate(4153.846153846153,0,0)"><path fill="rgb(75,0,130)" stroke="none" paint-order="stroke fill markers" d=" M 0 0 L 76.20836282943368 0 L 76.20836282943368 76.20836282943368 L 0 76.20836282943368 L 0 0 Z" fill-opacity="0.5882352941176471"/></g><g transform="translate(6,0)"><g transform="translate(0,212.5469735108873) rotate(3999.9999999999995,0,0)"><path fill="rgb(148,0,211)" stroke="none" paint-order="stroke fill markers" d=" M 0 0 L 73.66761917146992 0 L 73.66761917146992 73.66761917146992 L 0 73.66761917146992 L 0 0 Z" fill-opacity="0.5882352941176471"/></g><g transform="translate(6,0)"><g transform="translate(0,208.01876649675995) rotate(3857.142857142857,0,0)"><path fill="rgb(255,0,0)" stroke="none" paint-order="stroke fill markers" d=" M 0 0 L 72.15821683342746 0 L 72.15821683342746 72.15821683342746 L 0 72.15821683342746 L 0 0 Z" fill-opacity="0.5882352941176471"/></g><g transform="translate(6,0)"><g transform="translate(0,219.8129685786251) rotate(3724.1379310344823,0,0)"><path fill="rgb(255,127,0)" stroke="none" paint-order="stroke fill markers" d=" M 0 0 L 76.08961752738252 0 L 76.08961752738252 76.08961752738252 L 0 76.08961752738252 L 0 0 Z" fill-opacity="0.5882352941176471"/></g><g transform="translate(6,0)"><g transform="translate(0,227.33801792622376) rotate(3600,0,0)"><path fill="rgb(255,255,0)" stroke="none" paint-order="stroke fill markers" d=" M 0 0 L 78.5979673099154 0 L 78.5979673099154 78.5979673099154 L 0 78.5979673099154 L 0 0 Z" fill-opacity="0.5882352941176471"/></g><g transform="translate(6,0)"><g transform="translate(0,226.58824182992535) rotate(3483.8709677419356,0,0)"><path fill="rgb(0,255,0)" stroke="none" paint-order="stroke fill markers" d=" M 0 0 L 78.3480419444826 0 L 78.3480419444826 78.3480419444826 L 0 78.3480419444826 L 0 0 Z" fill-opacity="0.5882352941176471"/></g><g transform="translate(6,0)"><g transform="translate(0,232.1051903649006) rotate(3375,0,0)"><path fill="rgb(0,0,255)" stroke="none" paint-order="stroke fill markers" d=" M 0 0 L 80.18702478947435 0 L 80.18702478947435 80.18702478947435 L 0 80.18702478947435 L 0 0 Z" fill-opacity="0.5882352941176471"/></g><g transform="translate(6,0)"><g transform="translate(0,247.70467052867622) rotate(3272.7272727272725,0,0)"><path fill="rgb(75,0,130)" stroke="none" paint-order="stroke fill markers" d=" M 0 0 L 85.38685151073288 0 L 85.38685151073288 85.38685151073288 L 0 85.38685151073288 L 0 0 Z" fill-opacity="0.5882352941176471"/></g><g transform="translate(6,0)"><g transform="translate(0,265.5188413770131) rotate(3176.4705882352937,0,0)"><path fill="rgb(148,0,211)" stroke="none" paint-order="stroke fill markers" d=" M 0 0 L 91.3249084601785 0 L 91.3249084601785 91.3249084601785 L 0 91.3249084601785 L 0 0 Z" fill-opacity="0.5882352941176471"/></g><g transform="translate(6,0)"><g transform="translate(0,284.7042192415554) rotate(3085.714285714286,0,0)"><path fill="rgb(255,0,0)" stroke="none" paint-order="stroke fill markers" d=" M 0 0 L 97.72003441502595 0 L 97.72003441502595 97.72003441502595 L 0 97.72003441502595 L 0 0 Z" fill-opacity="0.5882352941176471"/></g><g transform="translate(6,0)"><g transform="translate(0,299.5729239979507) rotate(3000,0,0)"><path fill="rgb(255,127,0)" stroke="none" paint-order="stroke fill markers" d=" M 0 0 L 102.67626933382438 0 L 102.67626933382438 102.67626933382438 L 0 102.67626933382438 L 0 0 Z" fill-opacity="0.5882352941176471"/></g><g transform="translate(6,0)"><g transform="translate(0,309.0081403631969) rotate(2918.918918918919,0,0)"><path fill="rgb(255,255,0)" stroke="none" paint-order="stroke fill markers" d=" M 0 0 L 105.82134145557312 0 L 105.82134145557312 105.82134145557312 L 0 105.82134145557312 L 0 0 Z" fill-opacity="0.5882352941176471"/></g><g transform="translate(6,0)"><g transform="translate(0,322.40619677635783) rotate(2842.1052631578946,0,0)"><path fill="rgb(0,255,0)" stroke="none" paint-order="stroke fill markers" d=" M 0 0 L 110.2873602599601 0 L 110.2873602599601 110.2873602599601 L 0 110.2873602599601 L 0 0 Z" fill-opacity="0.5882352941176471"/></g><g transform="translate(6,0)"><g transform="translate(0,342.45956046876137) rotate(2769.230769230769,0,0)"><path fill="rgb(0,0,255)" stroke="none" paint-order="stroke fill markers" d=" M 0 0 L 116.97181482409461 0 L 116.97181482409461 116.97181482409461 L 0 116.97181482409461 L 0 0 Z" fill-opacity="0.5882352941176471"/></g><g transform="translate(6,0)"><g transform="translate(0,352.68369686748366) rotate(2699.9999999999995,0,0)"><path fill="rgb(75,0,130)" stroke="none" paint-order="stroke fill markers" d=" M 0 0 L 120.37986029033537 0 L 120.37986029033537 120.37986029033537 L 0 120.37986029033537 L 0 0 Z" fill-opacity="0.5882352941176471"/></g><g transform="translate(6,0)"><g transform="translate(0,341.95984589607315) rotate(2634.1463414634145,0,0)"><path fill="rgb(148,0,211)" stroke="none" paint-order="stroke fill markers" d=" M 0 0 L 116.8052432998652 0 L 116.8052432998652 116.8052432998652 L 0 116.8052432998652 L 0 0 Z" fill-opacity="0.5882352941176471"/></g><g transform="translate(6,0)"><g transform="translate(0,320.1001731325922) rotate(2571.4285714285716,0,0)"><path fill="rgb(255,0,0)" stroke="none" paint-order="stroke fill markers" d=" M 0 0 L 109.51868571203822 0 L 109.51868571203822 109.51868571203822 L 0 109.51868571203822 L 0 0 Z" fill-opacity="0.5882352941176471"/></g><g transform="translate(6,0)"><g transform="translate(0,302.65371170585763) rotate(2511.6279069767443,0,0)"><path fill="rgb(255,127,0)" stroke="none" paint-order="stroke fill markers" d=" M 0 0 L 103.70319856979336 0 L 103.70319856979336 103.70319856979336 L 0 103.70319856979336 L 0 0 Z" fill-opacity="0.5882352941176471"/></g><g transform="translate(6,0)"><g transform="translate(0,284.6056818362604) rotate(2454.5454545454545,0,0)"><path fill="rgb(255,255,0)" stroke="none" paint-order="stroke fill markers" d=" M 0 0 L 97.68718861326094 0 L 97.68718861326094 97.68718861326094 L 0 97.68718861326094 L 0 0 Z" fill-opacity="0.5882352941176471"/></g><g transform="translate(6,0)"><g transform="translate(0,269.93945237929466) rotate(2400.0000000000005,0,0)"><path fill="rgb(0,255,0)" stroke="none" paint-order="stroke fill markers" d=" M 0 0 L 92.79844546093904 0 L 92.79844546093904 92.79844546093904 L 0 92.79844546093904 L 0 0 Z" fill-opacity="0.5882352941176471"/></g><g transform="translate(6,0)"><g transform="translate(0,259.51398345050615) rotate(2347.826086956522,0,0)"><path fill="rgb(0,0,255)" stroke="none" paint-order="stroke fill markers" d=" M 0 0 L 89.32328915134286 0 L 89.32328915134286 89.32328915134286 L 0 89.32328915134286 L 0 0 Z" fill-opacity="0.5882352941176471"/></g><g transform="translate(6,0)"><g transform="translate(0,247.05349251003892) rotate(2297.872340425532,0,0)"><path fill="rgb(75,0,130)" stroke="none" paint-order="stroke fill markers" d=" M 0 0 L 85.16979217118713 0 L 85.16979217118713 85.16979217118713 L 0 85.16979217118713 L 0 0 Z" fill-opacity="0.5882352941176471"/></g><g transform="translate(6,0)"><g transform="translate(0,229.98573168401464) rotate(2250,0,0)"><path fill="rgb(148,0,211)" stroke="none" paint-order="stroke fill markers" d=" M 0 0 L 79.48053856251236 0 L 79.48053856251236 79.48053856251236 L 0 79.48053856251236 L 0 0 Z" fill-opacity="0.5882352941176471"/></g><g transform="translate(6,0)"><g transform="translate(0,222.4833039289138) rotate(2204.081632653061,0,0)"><path fill="rgb(255,0,0)" stroke="none" paint-order="stroke fill markers" d=" M 0 0 L 76.97972931081209 0 L 76.97972931081209 76.97972931081209 L 0 76.97972931081209 L 0 0 Z" fill-opacity="0.5882352941176471"/></g><g transform="translate(6,0)"><g transform="translate(0,217.22597332655423) rotate(2160,0,0)"><path fill="rgb(255,127,0)" stroke="none" paint-order="stroke fill markers" d=" M 0 0 L 75.22728577669223 0 L 75.22728577669223 75.22728577669223 L 0 75.22728577669223 L 0 0 Z" fill-opacity="0.5882352941176471"/></g><g transform="translate(6,0)"><g transform="translate(0,201.22762505114287) rotate(2117.6470588235293,0,0)"><path fill="rgb(255,255,0)" stroke="none" paint-order="stroke fill markers" d=" M 0 0 L 69.89450301822177 0 L 69.89450301822177 69.89450301822177 L 0 69.89450301822177 L 0 0 Z" fill-opacity="0.5882352941176471"/></g><g transform="translate(6,0)"><g transform="translate(0,180.50704541732355) rotate(2076.9230769230767,0,0)"><path fill="rgb(0,255,0)" stroke="none" paint-order="stroke fill markers" d=" M 0 0 L 62.987643140281996 0 L 62.987643140281996 62.987643140281996 L 0 62.987643140281996 L 0 0 Z" fill-opacity="0.5882352941176471"/></g><g transform="translate(6,0)"><g transform="translate(0,171.5776478824968) rotate(2037.735849056604,0,0)"><path fill="rgb(0,0,255)" stroke="none" paint-order="stroke fill markers" d=" M 0 0 L 60.01117729533974 0 L 60.01117729533974 60.01117729533974 L 0 60.01117729533974 L 0 0 Z" fill-opacity="0.5882352941176471"/></g><g transform="translate(6,0)"><g transform="translate(0,162.71602947257594) rotate(1999.9999999999998,0,0)"><path fill="rgb(75,0,130)" stroke="none" paint-order="stroke fill markers" d=" M 0 0 L 57.05730449203279 0 L 57.05730449203279 57.05730449203279 L 0 57.05730449203279 L 0 0 Z" fill-opacity="0.5882352941176471"/></g><g transform="translate(6,0)"><g transform="translate(0,154.96202863219165) rotate(1963.6363636363637,0,0)"><path fill="rgb(148,0,211)" stroke="none" paint-order="stroke fill markers" d=" M 0 0 L 54.47263754523803 0 L 54.47263754523803 54.47263754523803 L 0 54.47263754523803 L 0 0 Z" fill-opacity="0.5882352941176471"/></g><g transform="translate(6,0)"><g transform="translate(0,163.40287648871458) rotate(1928.5714285714284,0,0)"><path fill="rgb(255,0,0)" stroke="none" paint-order="stroke fill markers" d=" M 0 0 L 57.28625349741234 0 L 57.28625349741234 57.28625349741234 L 0 57.28625349741234 L 0 0 Z" fill-opacity="0.5882352941176471"/></g><g transform="translate(6,0)"><g transform="translate(0,187.47503094678012) rotate(1894.7368421052633,0,0)"><path fill="rgb(255,127,0)" stroke="none" paint-order="stroke fill markers" d=" M 0 0 L 65.3103049834342 0 L 65.3103049834342 65.3103049834342 L 0 65.3103049834342 L 0 0 Z" fill-opacity="0.5882352941176471"/></g><g transform="translate(6,0)"><g transform="translate(0,204.48037915416367) rotate(1862.0689655172412,0,0)"><path fill="rgb(255,255,0)" stroke="none" paint-order="stroke fill markers" d=" M 0 0 L 70.97875438589537 0 L 70.97875438589537 70.97875438589537 L 0 70.97875438589537 L 0 0 Z" fill-opacity="0.5882352941176471"/></g><g transform="translate(6,0)"><g transform="translate(0,210.13360124796606) rotate(1830.508474576271,0,0)"><path fill="rgb(0,255,0)" stroke="none" paint-order="stroke fill markers" d=" M 0 0 L 72.86316175049616 0 L 72.86316175049616 72.86316175049616 L 0 72.86316175049616 L 0 0 Z" fill-opacity="0.5882352941176471"/></g><g transform="translate(6,0)"><g transform="translate(0,210.47003312694798) rotate(1800,0,0)"><path fill="rgb(0,0,255)" stroke="none" paint-order="stroke fill markers" d=" M 0 0 L 72.9753057101568 0 L 72.9753057101568 72.9753057101568 L 0 72.9753057101568 L 0 0 Z" fill-opacity="0.5882352941176471"/></g><g transform="translate(6,0)"><g transform="translate(0,216.705665459092) rotate(1770.4918032786884,0,0)"><path fill="rgb(75,0,130)" stroke="none" paint-order="stroke fill markers" d=" M 0 0 L 75.05384982087148 0 L 75.05384982087148 75.05384982087148 L 0 75.05384982087148 L 0 0 Z" fill-opacity="0.5882352941176471"/></g><g transform="translate(6,0)"><g transform="translate(0,228.05552961746895) rotate(1741.9354838709678,0,0)"><path fill="rgb(148,0,211)" stroke="none" paint-order="stroke fill markers" d=" M 0 0 L 78.83713787366379 0 L 78.83713787366379 78.83713787366379 L 0 78.83713787366379 L 0 0 Z" fill-opacity="0.5882352941176471"/></g><g transform="translate(6,0)"><g transform="translate(0,231.82875511582296) rotate(1714.2857142857144,0,0)"><path fill="rgb(255,0,0)" stroke="none" paint-order="stroke fill markers" d=" M 0 0 L 80.09487970644847 0 L 80.09487970644847 80.09487970644847 L 0 80.09487970644847 L 0 0 Z" fill-opacity="0.5882352941176471"/></g><g transform="translate(6,0)"><g transform="translate(0,224.6138263949663) rotate(1687.5,0,0)"><path fill="rgb(255,127,0)" stroke="none" paint-order="stroke fill markers" d=" M 0 0 L 77.68990346616292 0 L 77.68990346616292 77.68990346616292 L 0 77.68990346616292 L 0 0 Z" fill-opacity="0.5882352941176471"/></g><g transform="translate(6,0)"><g transform="translate(0,229.87316956294228) rotate(1661.5384615384614,0,0)"><path fill="rgb(255,255,0)" stroke="none" paint-order="stroke fill markers" d=" M 0 0 L 79.44301785548824 0 L 79.44301785548824 79.44301785548824 L 0 79.44301785548824 L 0 0 Z" fill-opacity="0.5882352941176471"/></g><g transform="translate(6,0)"><g transform="translate(0,256.7980905138009) rotate(1636.3636363636363,0,0)"><path fill="rgb(0,255,0)" stroke="none" paint-order="stroke fill markers" d=" M 0 0 L 88.41799150577445 0 L 88.41799150577445 88.41799150577445 L 0 88.41799150577445 L 0 0 Z" fill-opacity="0.5882352941176471"/></g><g transform="translate(6,0)"><g transform="translate(0,288.7947595330008) rotate(1611.9402985074628,0,0)"><path fill="rgb(0,0,255)" stroke="none" paint-order="stroke fill markers" d=" M 0 0 L 99.08354784550774 0 L 99.08354784550774 99.08354784550774 L 0 99.08354784550774 L 0 0 Z" fill-opacity="0.5882352941176471"/></g><g transform="translate(6,0)"><g transform="translate(0,311.4542123332874) rotate(1588.2352941176468,0,0)"><path fill="rgb(75,0,130)" stroke="none" paint-order="stroke fill markers" d=" M 0 0 L 106.6366987789366 0 L 106.6366987789366 106.6366987789366 L 0 106.6366987789366 L 0 0 Z" fill-opacity="0.5882352941176471"/></g><g transform="translate(6,0)"><g transform="translate(0,336.4414935712537) rotate(1565.217391304348,0,0)"><path fill="rgb(148,0,211)" stroke="none" paint-order="stroke fill markers" d=" M 0 0 L 114.96579252492539 0 L 114.96579252492539 114.96579252492539 L 0 114.96579252492539 L 0 0 Z" fill-opacity="0.5882352941176471"/></g><g transform="translate(6,0)"><g transform="translate(0,360.44346202711415) rotate(1542.857142857143,0,0)"><path fill="rgb(255,0,0)" stroke="none" paint-order="stroke fill markers" d=" M 0 0 L 122.96644867687887 0 L 122.96644867687887 122.96644867687887 L 0 122.96644867687887 L 0 0 Z" fill-opacity="0.5882352941176471"/></g><g transform="translate(6,0)"><g transform="translate(0,368.5502147449336) rotate(1521.1267605633802,0,0)"><path fill="rgb(255,127,0)" stroke="none" paint-order="stroke fill markers" d=" M 0 0 L 125.66869958281869 0 L 125.66869958281869 125.66869958281869 L 0 125.66869958281869 L 0 0 Z" fill-opacity="0.5882352941176471"/></g><g transform="translate(6,0)"><g transform="translate(0,365.12841565439084) rotate(1500,0,0)"><path fill="rgb(255,255,0)" stroke="none" paint-order="stroke fill markers" d=" M 0 0 L 124.52809988597109 0 L 124.52809988597109 124.52809988597109 L 0 124.52809988597109 L 0 0 Z" fill-opacity="0.5882352941176471"/></g><g transform="translate(6,0)"><g transform="translate(0,375.7017326659863) rotate(1479.4520547945203,0,0)"><path fill="rgb(0,255,0)" stroke="none" paint-order="stroke fill markers" d=" M 0 0 L 128.05253888983626 0 L 128.05253888983626 128.05253888983626 L 0 128.05253888983626 L 0 0 Z" fill-opacity="0.5882352941176471"/></g><g transform="translate(6,0)"><g transform="translate(0,402.45782430887533) rotate(1459.4594594594596,0,0)"><path fill="rgb(0,0,255)" stroke="none" paint-order="stroke fill markers" d=" M 0 0 L 136.9712361041326 0 L 136.9712361041326 136.9712361041326 L 0 136.9712361041326 L 0 0 Z" fill-opacity="0.5882352941176471"/></g><g transform="translate(6,0)"><g transform="translate(0,424.67966090584093) rotate(1440,0,0)"><path fill="rgb(75,0,130)" stroke="none" paint-order="stroke fill markers" d=" M 0 0 L 144.3785149697878 0 L 144.3785149697878 144.3785149697878 L 0 144.3785149697878 L 0 0 Z" fill-opacity="0.5882352941176471"/></g><g transform="translate(6,0)"><g transform="translate(0,434.1083466070264) rotate(1421.0526315789473,0,0)"><path fill="rgb(148,0,211)" stroke="none" paint-order="stroke fill markers" d=" M 0 0 L 147.5214102035163 0 L 147.5214102035163 147.5214102035163 L 0 147.5214102035163 L 0 0 Z" fill-opacity="0.5882352941176471"/></g><g transform="translate(6,0)"><g transform="translate(0,443.553610792628) rotate(1402.5974025974026,0,0)"><path fill="rgb(255,0,0)" stroke="none" paint-order="stroke fill markers" d=" M 0 0 L 150.6698315987168 0 L 150.6698315987168 150.6698315987168 L 0 150.6698315987168 L 0 0 Z" fill-opacity="0.5882352941176471"/></g><g transform="translate(6,0)"><g transform="translate(0,462.6605253104657) rotate(1384.6153846153845,0,0)"><path fill="rgb(255,127,0)" stroke="none" paint-order="stroke fill markers" d=" M 0 0 L 157.03880310466272 0 L 157.03880310466272 157.03880310466272 L 0 157.03880310466272 L 0 0 Z" fill-opacity="0.5882352941176471"/></g><g transform="translate(6,0)"><g transform="translate(0,480.79220784921336) rotate(1367.0886075949368,0,0)"><path fill="rgb(255,255,0)" stroke="none" paint-order="stroke fill markers" d=" M 0 0 L 163.08269728424526 0 L 163.08269728424526 163.08269728424526 L 0 163.08269728424526 L 0 0 Z" fill-opacity="0.5882352941176471"/></g><g transform="translate(6,0)"><g transform="translate(0,488.2188024126063) rotate(1349.9999999999998,0,0)"><path fill="rgb(0,255,0)" stroke="none" paint-order="stroke fill markers" d=" M 0 0 L 165.55822880537625 0 L 165.55822880537625 165.55822880537625 L 0 165.55822880537625 L 0 0 Z" fill-opacity="0.5882352941176471"/></g><g transform="translate(6,0)"><g transform="translate(0,481.71890027429987) rotate(1333.3333333333333,0,0)"><path fill="rgb(0,0,255)" stroke="none" paint-order="stroke fill markers" d=" M 0 0 L 163.3915947592741 0 L 163.3915947592741 163.3915947592741 L 0 163.3915947592741 L 0 0 Z" fill-opacity="0.5882352941176471"/></g><g transform="translate(6,0)"><g transform="translate(0,465.2163594578069) rotate(1317.0731707317073,0,0)"><path fill="rgb(75,0,130)" stroke="none" paint-order="stroke fill markers" d=" M 0 0 L 157.89074782044312 0 L 157.89074782044312 157.89074782044312 L 0 157.89074782044312 L 0 0 Z" fill-opacity="0.5882352941176471"/></g><g transform="translate(6,0)"><g transform="translate(0,447.14496912431247) rotate(1301.2048192771083,0,0)"><path fill="rgb(148,0,211)" stroke="none" paint-order="stroke fill markers" d=" M 0 0 L 151.86695104261165 0 L 151.86695104261165 151.86695104261165 L 0 151.86695104261165 L 0 0 Z" fill-opacity="0.5882352941176471"/></g><g transform="translate(6,0)"><g transform="translate(0,440.3875884126826) rotate(1285.7142857142858,0,0)"><path fill="rgb(255,0,0)" stroke="none" paint-order="stroke fill markers" d=" M 0 0 L 149.6144908054017 0 L 149.6144908054017 149.6144908054017 L 0 149.6144908054017 L 0 0 Z" fill-opacity="0.5882352941176471"/></g><g transform="translate(6,0)"><g transform="translate(0,432.958112782436) rotate(1270.5882352941178,0,0)"><path fill="rgb(255,127,0)" stroke="none" paint-order="stroke fill markers" d=" M 0 0 L 147.13799892865282 0 L 147.13799892865282 147.13799892865282 L 0 147.13799892865282 L 0 0 Z" fill-opacity="0.5882352941176471"/></g><g transform="translate(6,0)"><g transform="translate(0,414.5014852183978) rotate(1255.8139534883721,0,0)"><path fill="rgb(255,255,0)" stroke="none" paint-order="stroke fill markers" d=" M 0 0 L 140.9857897406401 0 L 140.9857897406401 140.9857897406401 L 0 140.9857897406401 L 0 0 Z" fill-opacity="0.5882352941176471"/></g><g transform="translate(6,0)"><g transform="translate(0,391.9399694517134) rotate(1241.3793103448274,0,0)"><path fill="rgb(0,255,0)" stroke="none" paint-order="stroke fill markers" d=" M 0 0 L 133.46528448507863 0 L 133.46528448507863 133.46528448507863 L 0 133.46528448507863 L 0 0 Z" fill-opacity="0.5882352941176471"/></g><g transform="translate(6,0)"><g transform="translate(0,376.140359686237) rotate(1227.2727272727273,0,0)"><path fill="rgb(0,0,255)" stroke="none" paint-order="stroke fill markers" d=" M 0 0 L 128.19874789658647 0 L 128.19874789658647 128.19874789658647 L 0 128.19874789658647 L 0 0 Z" fill-opacity="0.5882352941176471"/></g><g transform="translate(6,0)"><g transform="translate(0,361.0075395237032) rotate(1213.4831460674156,0,0)"><path fill="rgb(75,0,130)" stroke="none" paint-order="stroke fill markers" d=" M 0 0 L 123.15447450907521 0 L 123.15447450907521 123.15447450907521 L 0 123.15447450907521 L 0 0 Z" fill-opacity="0.5882352941176471"/></g><g transform="translate(6,0)"><g transform="translate(0,350.78941738428443) rotate(1200.0000000000002,0,0)"><path fill="rgb(148,0,211)" stroke="none" paint-order="stroke fill markers" d=" M 0 0 L 119.74843379593563 0 L 119.74843379593563 119.74843379593563 L 0 119.74843379593563 L 0 0 Z" fill-opacity="0.5882352941176471"/></g><g transform="translate(6,0)"><g transform="translate(0,341.4306990325005) rotate(1186.8131868131868,0,0)"><path fill="rgb(255,0,0)" stroke="none" paint-order="stroke fill markers" d=" M 0 0 L 116.62886101200765 0 L 116.62886101200765 116.62886101200765 L 0 116.62886101200765 L 0 0 Z" fill-opacity="0.5882352941176471"/></g><g transform="translate(6,0)"><g transform="translate(0,330.48200454517945) rotate(1173.913043478261,0,0)"><path fill="rgb(255,127,0)" stroke="none" paint-order="stroke fill markers" d=" M 0 0 L 112.97929618290063 0 L 112.97929618290063 112.97929618290063 L 0 112.97929618290063 L 0 0 Z" fill-opacity="0.5882352941176471"/></g><g transform="translate(6,0)"><g transform="translate(0,325.36655302913584) rotate(1161.2903225806451,0,0)"><path fill="rgb(255,255,0)" stroke="none" paint-order="stroke fill markers" d=" M 0 0 L 111.27414567755277 0 L 111.27414567755277 111.27414567755277 L 0 111.27414567755277 L 0 0 Z" fill-opacity="0.5882352941176471"/></g><g transform="translate(6,0)"><g transform="translate(0,322.89024717379743) rotate(1148.936170212766,0,0)"><path fill="rgb(0,255,0)" stroke="none" paint-order="stroke fill markers" d=" M 0 0 L 110.44871039243996 0 L 110.44871039243996 110.44871039243996 L 0 110.44871039243996 L 0 0 Z" fill-opacity="0.5882352941176471"/></g><g transform="translate(6,0)"><g transform="translate(0,314.87093718164255) rotate(1136.842105263158,0,0)"><path fill="rgb(0,0,255)" stroke="none" paint-order="stroke fill markers" d=" M 0 0 L 107.77560706172166 0 L 107.77560706172166 107.77560706172166 L 0 107.77560706172166 L 0 0 Z" fill-opacity="0.5882352941176471"/></g><g transform="translate(6,0)"><g transform="translate(0,308.7517798147267) rotate(1125,0,0)"><path fill="rgb(75,0,130)" stroke="none" paint-order="stroke fill markers" d=" M 0 0 L 105.73588793941639 0 L 105.73588793941639 105.73588793941639 L 0 105.73588793941639 L 0 0 Z" fill-opacity="0.5882352941176471"/></g><g transform="translate(6,0)"><g transform="translate(0,311.36358019441957) rotate(1113.40206185567,0,0)"><path fill="rgb(148,0,211)" stroke="none" paint-order="stroke fill markers" d=" M 0 0 L 106.60648806598067 0 L 106.60648806598067 106.60648806598067 L 0 106.60648806598067 L 0 0 Z" fill-opacity="0.5882352941176471"/></g><g transform="translate(6,0)"><g transform="translate(0,313.48151076348665) rotate(1102.0408163265306,0,0)"><path fill="rgb(255,0,0)" stroke="none" paint-order="stroke fill markers" d=" M 0 0 L 107.31246492233636 0 L 107.31246492233636 107.31246492233636 L 0 107.31246492233636 L 0 0 Z" fill-opacity="0.5882352941176471"/></g><g transform="translate(6,0)"><g transform="translate(0,311.9808774141891) rotate(1090.909090909091,0,0)"><path fill="rgb(255,127,0)" stroke="none" paint-order="stroke fill markers" d=" M 0 0 L 106.81225380590384 0 L 106.81225380590384 106.81225380590384 L 0 106.81225380590384 L 0 0 Z" fill-opacity="0.5882352941176471"/></g><g transform="translate(6,0)"/></g></g></g></g></g></g></g></g></g></g></g></g></g></g></g></g></g></g></g></g></g></g></g></g></g></g></g></g></g></g></g></g></g></g></g></g></g></g></g></g></g></g></g></g></g></g></g></g></g></g></g></g></g></g></g></g></g></g></g></g></g></g></g></g></g></g></g></g></g></g></g></g></g></g></g></g></g></g></g></g></g></g></g></g></g></g></g></g></g></g></g></g></g></g></g></g></g></g></g></g></g></svg>