<svg version="1.1" xmlns="http://www.w3.org/2000/svg" xmlns:xlink="http://www.w3.org/1999/xlink" width="600" height="600" viewBox="0 0 600 600"><defs/><g transform="scale(1,1)"><g transform="scale(1,1)"><rect fill="rgb(0,0,0)" stroke="none" x="0" y="0" width="600" height="600" fill-opacity="1"/></g><g><g transform="translate(0,300) rotate(593.0609450972864,0,0)"><path fill="rgb(255,0,0)" stroke="none" paint-order="stroke fill markers" d=" M 0 0 L 182.1060734024284 0 L 182.1060734024284 182.1060734024284 L 0 182.1060734024284 L 0 0 Z" fill-opacity="0.5882352941176471"/></g><g transform="translate(6,0)"><g transform="translate(0,297.07901553712384) rotate(596.2488924996958,0,0)"><path fill="rgb(255,127,0)" stroke="none" paint-order="stroke fill markers" d=" M 0 0 L 181.13241191480301 0 L 181.13241191480301 181.13241191480301 L 0 181.13241191480301 L 0 0 Z" fill-opacity="0.5882352941176471"/></g><g transform="translate(6,0)"><g transform="translate(0,290.71401410930264) rotate(603.3157402782597,0,0)"><path fill="rgb(255,255,0)" stroke="none" paint-order="stroke fill markers" d=" M 0 0 L 179.01074477219595 0 L 179.01074477219595 179.01074477219595 L 0 179.01074477219595 L 0 0 Z" fill-opacity="0.5882352941176471"/></g><g transform="translate(6,0)"><g transform="translate(0,284.6594845770495) rotate(610.1951119239515,0,0)"><path fill="rgb(0,255,0)" stroke="none" paint-order="stroke fill markers" d=" M 0 0 L 176.99256826144492 0 L 176.99256826144492 176.99256826144492 L 0 176.99256826144492 L 0 0 Z" fill-opacity="0.5882352941176471"/></g><g transform="translate(6,0)"><g transform="translate(0,278.2197846735604) rotate(617.6864154459123,0,0)"><path fill="rgb(0,0,255)" stroke="none" paint-order="stroke fill markers" d=" M 0 0 L 174.84600162694855 0 L 174.84600162694855 174.84600162694855 L 0 174.84600162694855 L 0 0 Z" fill-opacity="0.5882352941176471"/></g><g transform="translate(6,0)"><g transform="translate(0,272.6999870619828) rotate(624.2555568612412,0,0)"><path fill="rgb(75,0,130)" stroke="none" paint-order="stroke fill markers" d=" M 0 0 L 173.006069089756 0 L 173.006069089756 173.006069089756 L 0 173.006069089756 L 0 0 Z" fill-opacity="0.5882352941176471"/></g><g transform="translate(6,0)"><g transform="translate(0,260.42598805232626) rotate(639.3758324594619,0,0)"><path fill="rgb(148,0,211)" stroke="none" paint-order="stroke fill markers" d=" M 0 0 L 168.91473608653715 0 L 168.91473608653715 168.91473608653715 L 0 168.91473608653715 L 0 0 Z" fill-opacity="0.5882352941176471"/></g><g transform="translate(6,0)"><g transform="translate(0,243.2923569189674) rotate(661.7504096862112,0,0)"><path fill="rgb(255,0,0)" stroke="none" paint-order="stroke fill markers" d=" M 0 0 L 163.20352570875087 0 L 163.20352570875087 163.20352570875087 L 0 163.20352570875087 L 0 0 Z" fill-opacity="0.5882352941176471"/></g><g transform="translate(6,0)"><g transform="translate(0,238.87326647943536) rotate(667.7775865618206,0,0)"><path fill="rgb(255,127,0)" stroke="none" paint-order="stroke fill markers" d=" M 0 0 L 161.73049556224018 0 L 161.73049556224018 161.73049556224018 L 0 161.73049556224018 L 0 0 Z" fill-opacity="0.5882352941176471"/></g><g transform="translate(6,0)"><g transform="translate(0,249.65309239163173) rotate(653.263589585902,0,0)"><path fill="rgb(255,255,0)" stroke="none" paint-order="stroke fill markers" d=" M 0 0 L 165.32377086630564 0 L 165.32377086630564 165.32377086630564 L 0 165.32377086630564 L 0 0 Z" fill-opacity="0.5882352941176471"/></g><g transform="translate(6,0)"><g transform="translate(0,255.69508669600015) rotate(645.4012185426387,0,0)"><path fill="rgb(0,255,0)" stroke="none" paint-order="stroke fill markers" d=" M 0 0 L 167.33776896776178 0 L 167.33776896776178 167.33776896776178 L 0 167.33776896776178 L 0 0 Z" fill-opacity="0.5882352941176471"/></g><g transform="translate(6,0)"><g transform="translate(0,245.82159972583395) rotate(658.3494910938745,0,0)"><path fill="rgb(0,0,255)" stroke="none" paint-order="stroke fill markers" d=" M 0 0 L 164.04660664437304 0 L 164.04660664437304 164.04660664437304 L 0 164.04660664437304 L 0 0 Z" fill-opacity="0.5882352941176471"/></g><g transform="translate(6,0)"><g transform="translate(0,227.347781446508) rotate(684.026294622713,0,0)"><path fill="rgb(75,0,130)" stroke="none" paint-order="stroke fill markers" d=" M 0 0 L 157.88866721793107 0 L 157.88866721793107 157.88866721793107 L 0 157.88866721793107 L 0 0 Z" fill-opacity="0.5882352941176471"/></g><g transform="translate(6,0)"><g transform="translate(0,208.9629583379787) rotate(711.648131458586,0,0)"><path fill="rgb(148,0,211)" stroke="none" paint-order="stroke fill markers" d=" M 0 0 L 151.7603928484213 0 L 151.7603928484213 151.7603928484213 L 0 151.7603928484213 L 0 0 Z" fill-opacity="0.5882352941176471"/></g><g transform="translate(6,0)"><g transform="translate(0,187.2448166254814) rotate(747.2961771991943,0,0)"><path fill="rgb(255,0,0)" stroke="none" paint-order="stroke fill markers" d=" M 0 0 L 144.52101227758888 0 L 144.52101227758888 144.52101227758888 L 0 144.52101227758888 L 0 0 Z" fill-opacity="0.5882352941176471"/></g><g transform="translate(6,0)"><g transform="translate(0,175.47568740641992) rotate(768.1476525657442,0,0)"><path fill="rgb(255,127,0)" stroke="none" paint-order="stroke fill markers" d=" M 0 0 L 140.5979692045684 0 L 140.5979692045684 140.5979692045684 L 0 140.5979692045684 L 0 0 Z" fill-opacity="0.5882352941176471"/></g><g transform="translate(6,0)"><g transform="translate(0,181.11878962584177) rotate(758.0064256169368,0,0)"><path fill="rgb(255,255,0)" stroke="none" paint-order="stroke fill markers" d=" M 0 0 L 142.47900327770898 0 L 142.47900327770898 142.47900327770898 L 0 142.47900327770898 L 0 0 Z" fill-opacity="0.5882352941176471"/></g><g transform="translate(6,0)"><g transform="translate(0,197.22504628813863) rotate(730.4811604063497,0,0)"><path fill="rgb(0,255,0)" stroke="none" paint-order="stroke fill markers" d=" M 0 0 L 147.8477554984746 0 L 147.8477554984746 147.8477554984746 L 0 147.8477554984746 L 0 0 Z" fill-opacity="0.5882352941176471"/></g><g transform="translate(6,0)"><g transform="translate(0,214.02655451016858) rotate(703.8203055500342,0,0)"><path fill="rgb(0,0,255)" stroke="none" paint-order="stroke fill markers" d=" M 0 0 L 153.44825823915127 0 L 153.44825823915127 153.44825823915127 L 0 153.44825823915127 L 0 0 Z" fill-opacity="0.5882352941176471"/></g><g transform="translate(6,0)"><g transform="translate(0,231.32459280237163) rotate(678.3311528513451,0,0)"><path fill="rgb(75,0,130)" stroke="none" paint-order="stroke fill markers" d=" M 0 0 L 159.21427100321895 0 L 159.21427100321895 159.21427100321895 L 0 159.21427100321895 L 0 0 Z" fill-opacity="0.5882352941176471"/></g><g transform="translate(6,0)"><g transform="translate(0,239.08291550841074) rotate(667.4891675362084,0,0)"><path fill="rgb(148,0,211)" stroke="none" paint-order="stroke fill markers" d=" M 0 0 L 161.80037857189865 0 L 161.80037857189865 161.80037857189865 L 0 161.80037857189865 L 0 0 Z" fill-opacity="0.5882352941176471"/></g><g transform="translate(6,0)"><g transform="translate(0,226.77945943473463) rotate(684.8480006183121,0,0)"><path fill="rgb(255,0,0)" stroke="none" paint-order="stroke fill markers" d=" M 0 0 L 157.69922654733995 0 L 157.69922654733995 157.69922654733995 L 0 157.69922654733995 L 0 0 Z" fill-opacity="0.5882352941176471"/></g><g transform="translate(6,0)"><g transform="translate(0,202.44834186549053) rotate(721.9789248635184,0,0)"><path fill="rgb(255,127,0)" stroke="none" paint-order="stroke fill markers" d=" M 0 0 L 149.58885402425858 0 L 149.58885402425858 149.58885402425858 L 0 149.58885402425858 L 0 0 Z" fill-opacity="0.5882352941176471"/></g><g transform="translate(6,0)"><g transform="translate(0,187.10378229104293) rotate(747.5393453318045,0,0)"><path fill="rgb(255,255,0)" stroke="none" paint-order="stroke fill markers" d=" M 0 0 L 144.47400083277606 0 L 144.47400083277606 144.47400083277606 L 0 144.47400083277606 L 0 0 Z" fill-opacity="0.5882352941176471"/></g><g transform="translate(6,0)"><g transform="translate(0,182.81038102836914) rotate(755.0184235379749,0,0)"><path fill="rgb(0,255,0)" stroke="none" paint-order="stroke fill markers" d=" M 0 0 L 143.04286707855144 0 L 143.04286707855144 143.04286707855144 L 0 143.04286707855144 L 0 0 Z" fill-opacity="0.5882352941176471"/></g><g transform="translate(6,0)"><g transform="translate(0,175.12444398978607) rotate(768.7878506968008,0,0)"><path fill="rgb(0,0,255)" stroke="none" paint-order="stroke fill markers" d=" M 0 0 L 140.48088806569044 0 L 140.48088806569044 140.48088806569044 L 0 140.48088806569044 L 0 0 Z" fill-opacity="0.5882352941176471"/></g><g transform="translate(6,0)"><g transform="translate(0,151.82622213875555) rotate(813.7750161495428,0,0)"><path fill="rgb(75,0,130)" stroke="none" paint-order="stroke fill markers" d=" M 0 0 L 132.7148141153469 0 L 132.7148141153469 132.7148141153469 L 0 132.7148141153469 L 0 0 Z" fill-opacity="0.5882352941176471"/></g><g transform="translate(6,0)"><g transform="translate(0,121.05248484231038) rotate(881.9429408674804,0,0)"><path fill="rgb(148,0,211)" stroke="none" paint-order="stroke fill markers" d=" M 0 0 L 122.45690168319852 0 L 122.45690168319852 122.45690168319852 L 0 122.45690168319852 L 0 0 Z" fill-opacity="0.5882352941176471"/></g><g transform="translate(6,0)"><g transform="translate(0,101.2466343513525) rotate(932.2001225107699,0,0)"><path fill="rgb(255,0,0)" stroke="none" paint-order="stroke fill markers" d=" M 0 0 L 115.8549515195459 0 L 115.8549515195459 115.8549515195459 L 0 115.8549515195459 L 0 0 Z" fill-opacity="0.5882352941176471"/></g><g transform="translate(6,0)"><g transform="translate(0,94.01124355105571) rotate(952.0186598656176,0,0)"><path fill="rgb(255,127,0)" stroke="none" paint-order="stroke fill markers" d=" M 0 0 L 113.44315458611364 0 L 113.44315458611364 113.44315458611364 L 0 113.44315458611364 L 0 0 Z" fill-opacity="0.5882352941176471"/></g><g transform="translate(6,0)"><g transform="translate(0,92.70325964733547) rotate(955.6916574694258,0,0)"><path fill="rgb(255,255,0)" stroke="none" paint-order="stroke fill markers" d=" M 0 0 L 113.00715995154023 0 L 113.00715995154023 113.00715995154023 L 0 113.00715995154023 L 0 0 Z" fill-opacity="0.5882352941176471"/></g><g transform="translate(6,0)"><g transform="translate(0,95.4450588891475) rotate(948.024611820802,0,0)"><path fill="rgb(0,255,0)" stroke="none" paint-order="stroke fill markers" d=" M 0 0 L 113.92109303214424 0 L 113.92109303214424 113.92109303214424 L 0 113.92109303214424 L 0 0 Z" fill-opacity="0.5882352941176471"/></g><g transform="translate(6,0)"><g transform="translate(0,105.19734149510128) rotate(921.7230623613679,0,0)"><path fill="rgb(0,0,255)" stroke="none" paint-order="stroke fill markers" d=" M 0 0 L 117.1718539007955 0 L 117.1718539007955 117.1718539007955 L 0 117.1718539007955 L 0 0 Z" fill-opacity="0.5882352941176471"/></g><g transform="translate(6,0)"><g transform="translate(0,120.12632353559843) rotate(884.1719859999746,0,0)"><path fill="rgb(75,0,130)" stroke="none" paint-order="stroke fill markers" d=" M 0 0 L 122.14818124762787 0 L 122.14818124762787 122.14818124762787 L 0 122.14818124762787 L 0 0 Z" fill-opacity="0.5882352941176471"/></g><g transform="translate(6,0)"><g transform="translate(0,131.42352118023132) rotate(857.728877962724,0,0)"><path fill="rgb(148,0,211)" stroke="none" paint-order="stroke fill markers" d=" M 0 0 L 125.91391379583884 0 L 125.91391379583884 125.91391379583884 L 0 125.91391379583884 L 0 0 Z" fill-opacity="0.5882352941176471"/></g><g transform="translate(6,0)"><g transform="translate(0,144.67870380612442) rotate(828.6510202542876,0,0)"><path fill="rgb(255,0,0)" stroke="none" paint-order="stroke fill markers" d=" M 0 0 L 130.33230800446987 0 L 130.33230800446987 130.33230800446987 L 0 130.33230800446987 L 0 0 Z" fill-opacity="0.5882352941176471"/></g><g transform="translate(6,0)"><g transform="translate(0,162.55106191412807) rotate(792.4293023895802,0,0)"><path fill="rgb(255,127,0)" stroke="none" paint-order="stroke fill markers" d=" M 0 0 L 136.28976070713776 0 L 136.28976070713776 136.28976070713776 L 0 136.28976070713776 L 0 0 Z" fill-opacity="0.5882352941176471"/></g><g transform="translate(6,0)"><g transform="translate(0,181.46234607659915) rotate(757.3976602410373,0,0)"><path fill="rgb(255,255,0)" stroke="none" paint-order="stroke fill markers" d=" M 0 0 L 142.59352209462813 0 L 142.59352209462813 142.59352209462813 L 0 142.59352209462813 L 0 0 Z" fill-opacity="0.5882352941176471"/></g><g transform="translate(6,0)"><g transform="translate(0,201.31668492171696) rotate(723.8041454935865,0,0)"><path fill="rgb(0,255,0)" stroke="none" paint-order="stroke fill markers" d=" M 0 0 L 149.2116350430007 0 L 149.2116350430007 149.2116350430007 L 0 149.2116350430007 L 0 0 Z" fill-opacity="0.5882352941176471"/></g><g transform="translate(6,0)"><g transform="translate(0,230.30331306145905) rotate(679.7846454354628,0,0)"><path fill="rgb(0,0,255)" stroke="none" paint-order="stroke fill markers" d=" M 0 0 L 158.87384442291474 0 L 158.87384442291474 158.87384442291474 L 0 158.87384442291474 L 0 0 Z" fill-opacity="0.5882352941176471"/></g><g transform="translate(6,0)"><g transform="translate(0,245.16773374089325) rotate(659.2253499764555,0,0)"><path fill="rgb(75,0,130)" stroke="none" paint-order="stroke fill markers" d=" M 0 0 L 163.82865131605948 0 L 163.82865131605948 163.82865131605948 L 0 163.82865131605948 L 0 0 Z" fill-opacity="0.5882352941176471"/></g><g transform="translate(6,0)"><g transform="translate(0,233.75736573596242) rotate(674.8937240026653,0,0)"><path fill="rgb(148,0,211)" stroke="none" paint-order="stroke fill markers" d=" M 0 0 L 160.02519531441587 0 L 160.02519531441587 160.02519531441587 L 0 160.02519531441587 L 0 0 Z" fill-opacity="0.5882352941176471"/></g><g transform="translate(6,0)"><g transform="translate(0,208.0705207716082) rotate(713.045836703621,0,0)"><path fill="rgb(255,0,0)" stroke="none" paint-order="stroke fill markers" d=" M 0 0 L 151.46291365963114 0 L 151.46291365963114 151.46291365963114 L 0 151.46291365963114 L 0 0 Z" fill-opacity="0.5882352941176471"/></g><g transform="translate(6,0)"><g transform="translate(0,183.65532860832002) rotate(753.5347253162028,0,0)"><path fill="rgb(255,127,0)" stroke="none" paint-order="stroke fill markers" d=" M 0 0 L 143.32451627186842 0 L 143.32451627186842 143.32451627186842 L 0 143.32451627186842 L 0 0 Z" fill-opacity="0.5882352941176471"/></g><g transform="translate(6,0)"><g transform="translate(0,165.9999894177397) rotate(785.8008509851062,0,0)"><path fill="rgb(255,255,0)" stroke="none" paint-order="stroke fill markers" d=" M 0 0 L 137.43940320834164 0 L 137.43940320834164 137.43940320834164 L 0 137.43940320834164 L 0 0 Z" fill-opacity="0.5882352941176471"/></g><g transform="translate(6,0)"><g transform="translate(0,151.20872080218095) rotate(815.0390994312124,0,0)"><path fill="rgb(0,255,0)" stroke="none" paint-order="stroke fill markers" d=" M 0 0 L 132.50898033648872 0 L 132.50898033648872 132.50898033648872 L 0 132.50898033648872 L 0 0 Z" fill-opacity="0.5882352941176471"/></g><g transform="translate(6,0)"><g transform="translate(0,132.32647464691934) rotate(855.6834531241875,0,0)"><path fill="rgb(0,0,255)" stroke="none" paint-order="stroke fill markers" d=" M 0 0 L 126.21489828473484 0 L 126.21489828473484 126.21489828473484 L 0 126.21489828473484 L 0 0 Z" fill-opacity="0.5882352941176471"/></g><g transform="translate(6,0)"><g transform="translate(0,114.93132288395657) rotate(896.8869475308,0,0)"><path fill="rgb(75,0,130)" stroke="none" paint-order="stroke fill markers" d=" M 0 0 L 120.41651436374725 0 L 120.41651436374725 120.41651436374725 L 0 120.41651436374725 L 0 0 Z" fill-opacity="0.5882352941176471"/></g><g transform="translate(6,0)"><g transform="translate(0,112.1108883324784) rotate(903.9444405616847,0,0)"><path fill="rgb(148,0,211)" stroke="none" paint-order="stroke fill markers" d=" M 0 0 L 119.47636951325454 0 L 119.47636951325454 119.47636951325454 L 0 119.47636951325454 L 0 0 Z" fill-opacity="0.5882352941176471"/></g><g transform="translate(6,0)"><g transform="translate(0,118.74180361273659) rotate(887.5252803898769,0,0)"><path fill="rgb(255,0,0)" stroke="none" paint-order="stroke fill markers" d=" M 0 0 L 121.68667460667393 0 L 121.68667460667393 121.68667460667393 L 0 121.68667460667393 L 0 0 Z" fill-opacity="0.5882352941176471"/></g><g transform="translate(6,0)"><g transform="translate(0,115.5772065447423) rotate(895.2862513568219,0,0)"><path fill="rgb(255,127,0)" stroke="none" paint-order="stroke fill markers" d=" M 0 0 L 120.6318089173425 0 L 120.6318089173425 120.6318089173425 L 0 120.6318089173425 L 0 0 Z" fill-opacity="0.5882352941176471"/></g><g transform="translate(6,0)"><g transform="translate(0,95.49489586128664) rotate(947.8863881133271,0,0)"><path fill="rgb(255,255,0)" stroke="none" paint-order="stroke fill markers" d=" M 0 0 L 113.93770535619062 0 L 113.93770535619062 113.93770535619062 L 0 113.93770535619062 L 0 0 Z" fill-opacity="0.5882352941176471"/></g><g transform="translate(6,0)"><g transform="translate(0,66.03871490152324) rotate(1037.2748723736058,0,0)"><path fill="rgb(0,255,0)" stroke="none" paint-order="stroke fill markers" d=" M 0 0 L 104.11897836960281 0 L 104.11897836960281 104.11897836960281 L 0 104.11897836960281 L 0 0 Z" fill-opacity="0.5882352941176471"/></g><g transform="translate(6,0)"><g transform="translate(0,32.193577992521) rotate(1163.3259420039371,0,0)"><path fill="rgb(0,0,255)" stroke="none" paint-order="stroke fill markers" d=" M 0 0 L 92.83726606660207 0 L 92.83726606660207 92.83726606660207 L 0 92.83726606660207 L 0 0 Z" fill-opacity="0.5882352941176471"/></g><g transform="translate(6,0)"><g transform="translate(0,-11.136190689657894) rotate(1377.6562803907414,0,0)"><path fill="rgb(75,0,130)" stroke="none" paint-order="stroke fill markers" d=" M 0 0 L 78.3940098392091 0 L 78.3940098392091 78.3940098392091 L 0 78.3940098392091 L 0 0 Z" fill-opacity="0.5882352941176471"/></g><g transform="translate(6,0)"><g transform="translate(0,-42.74149974754866) rotate(1591.5375749659,0,0)"><path fill="rgb(148,0,211)" stroke="none" paint-order="stroke fill markers" d=" M 0 0 L 67.85890681991218 0 L 67.85890681991218 67.85890681991218 L 0 67.85890681991218 L 0 0 Z" fill-opacity="0.5882352941176471"/></g><g transform="translate(6,0)"><g transform="translate(0,-56.53792799411619) rotate(1707.2373333479215,0,0)"><path fill="rgb(255,0,0)" stroke="none" paint-order="stroke fill markers" d=" M 0 0 L 63.260097404389676 0 L 63.260097404389676 63.260097404389676 L 0 63.260097404389676 L 0 0 Z" fill-opacity="0.5882352941176471"/></g><g transform="translate(6,0)"><g transform="translate(0,-62.9630074786497) rotate(1767.061842302339,0,0)"><path fill="rgb(255,127,0)" stroke="none" paint-order="stroke fill markers" d=" M 0 0 L 61.118404242878505 0 L 61.118404242878505 61.118404242878505 L 0 61.118404242878505 L 0 0 Z" fill-opacity="0.5882352941176471"/></g><g transform="translate(6,0)"><g transform="translate(0,-64.98827889691219) rotate(1786.7981297441995,0,0)"><path fill="rgb(255,255,0)" stroke="none" paint-order="stroke fill markers" d=" M 0 0 L 60.44331377012434 0 L 60.44331377012434 60.44331377012434 L 0 60.44331377012434 L 0 0 Z" fill-opacity="0.5882352941176471"/></g><g transform="translate(6,0)"><g transform="translate(0,-56.42839739232943) rotate(1706.2525795062338,0,0)"><path fill="rgb(0,255,0)" stroke="none" paint-order="stroke fill markers" d=" M 0 0 L 63.29660760498526 0 L 63.29660760498526 63.29660760498526 L 0 63.29660760498526 L 0 0 Z" fill-opacity="0.5882352941176471"/></g><g transform="translate(6,0)"><g transform="translate(0,-50.53903969036395) rotate(1654.9257134723607,0,0)"><path fill="rgb(0,0,255)" stroke="none" paint-order="stroke fill markers" d=" M 0 0 L 65.25972683897375 0 L 65.25972683897375 65.25972683897375 L 0 65.25972683897375 L 0 0 Z" fill-opacity="0.5882352941176471"/></g><g transform="translate(6,0)"><g transform="translate(0,-45.10743511479495) rotate(1610.251656495786,0,0)"><path fill="rgb(75,0,130)" stroke="none" paint-order="stroke fill markers" d=" M 0 0 L 67.07026169749675 0 L 67.07026169749675 67.07026169749675 L 0 67.07026169749675 L 0 0 Z" fill-opacity="0.5882352941176471"/></g><g transform="translate(6,0)"><g transform="translate(0,-33.97477678222671) rotate(1525.8300175128695,0,0)"><path fill="rgb(148,0,211)" stroke="none" paint-order="stroke fill markers" d=" M 0 0 L 70.78114780835283 0 L 70.78114780835283 70.78114780835283 L 0 70.78114780835283 L 0 0 Z" fill-opacity="0.5882352941176471"/></g><g transform="translate(6,0)"><g transform="translate(0,-24.684292240833884) rotate(1461.8700438727221,0,0)"><path fill="rgb(255,0,0)" stroke="none" paint-order="stroke fill markers" d=" M 0 0 L 73.87797598881711 0 L 73.87797598881711 73.87797598881711 L 0 73.87797598881711 L 0 0 Z" fill-opacity="0.5882352941176471"/></g><g transform="translate(6,0)"><g transform="translate(0,-14.185221950813172) rotate(1395.7515839347784,0,0)"><path fill="rgb(255,127,0)" stroke="none" paint-order="stroke fill markers" d=" M 0 0 L 77.37766608549067 0 L 77.37766608549067 77.37766608549067 L 0 77.37766608549067 L 0 0 Z" fill-opacity="0.5882352941176471"/></g><g transform="translate(6,0)"><g transform="translate(0,0.35008078703839374) rotate(1313.5048106868664,0,0)"><path fill="rgb(255,255,0)" stroke="none" paint-order="stroke fill markers" d=" M 0 0 L 82.22276699810787 0 L 82.22276699810787 82.22276699810787 L 0 82.22276699810787 L 0 0 Z" fill-opacity="0.5882352941176471"/></g><g transform="translate(6,0)"><g transform="translate(0,6.893432599938961) rotate(1279.561964893727,0,0)"><path fill="rgb(0,255,0)" stroke="none" paint-order="stroke fill markers" d=" M 0 0 L 84.40388426907472 0 L 84.40388426907472 84.40388426907472 L 0 84.40388426907472 L 0 0 Z" fill-opacity="0.5882352941176471"/></g><g transform="translate(6,0)"><g transform="translate(0,4.995064245207317) rotate(1289.2275102204073,0,0)"><path fill="rgb(0,0,255)" stroke="none" paint-order="stroke fill markers" d=" M 0 0 L 83.77109481749751 0 L 83.77109481749751 83.77109481749751 L 0 83.77109481749751 L 0 0 Z" fill-opacity="0.5882352941176471"/></g><g transform="translate(6,0)"><g transform="translate(0,15.342727653242775) rotate(1238.243622707888,0,0)"><path fill="rgb(75,0,130)" stroke="none" paint-order="stroke fill markers" d=" M 0 0 L 87.22031595350933 0 L 87.22031595350933 87.22031595350933 L 0 87.22031595350933 L 0 0 Z" fill-opacity="0.5882352941176471"/></g><g transform="translate(6,0)"><g transform="translate(0,37.15899048810769) rotate(1142.9490194474588,0,0)"><path fill="rgb(148,0,211)" stroke="none" paint-order="stroke fill markers" d=" M 0 0 L 94.49240356513097 0 L 94.49240356513097 94.49240356513097 L 0 94.49240356513097 L 0 0 Z" fill-opacity="0.5882352941176471"/></g><g transform="translate(6,0)"><g transform="translate(0,58.24987966117976) rotate(1063.8014951005282,0,0)"><path fill="rgb(255,0,0)" stroke="none" paint-order="stroke fill markers" d=" M 0 0 L 101.522699956155 0 L 101.522699956155 101.522699956155 L 0 101.522699956155 L 0 0 Z" fill-opacity="0.5882352941176471"/></g><g transform="translate(6,0)"><g transform="translate(0,76.0373665229435) rotate(1005.101240175333,0,0)"><path fill="rgb(255,127,0)" stroke="none" paint-order="stroke fill markers" d=" M 0 0 L 107.45186224340956 0 L 107.45186224340956 107.45186224340956 L 0 107.45186224340956 L 0 0 Z" fill-opacity="0.5882352941176471"/></g><g transform="translate(6,0)"><g transform="translate(0,95.03098165008066) rotate(949.1746230459466,0,0)"><path fill="rgb(255,255,0)" stroke="none" paint-order="stroke fill markers" d=" M 0 0 L 113.78306728578862 0 L 113.78306728578862 113.78306728578862 L 0 113.78306728578862 L 0 0 Z" fill-opacity="0.5882352941176471"/></g><g transform="translate(6,0)"><g transform="translate(0,114.68688818200582) rotate(897.494225069562,0,0)"><path fill="rgb(0,255,0)" stroke="none" paint-order="stroke fill markers" d=" M 0 0 L 120.33503612976368 0 L 120.33503612976368 120.33503612976368 L 0 120.33503612976368 L 0 0 Z" fill-opacity="0.5882352941176471"/></g><g transform="translate(6,0)"><g transform="translate(0,135.51799176503948) rotate(848.5313593658931,0,0)"><path fill="rgb(0,0,255)" stroke="none" paint-order="stroke fill markers" d=" M 0 0 L 127.27873732410823 0 L 127.27873732410823 127.27873732410823 L 0 127.27873732410823 L 0 0 Z" fill-opacity="0.5882352941176471"/></g><g transform="translate(6,0)"><g transform="translate(0,154.65200272397993) rotate(808.0400525291387,0,0)"><path fill="rgb(75,0,130)" stroke="none" paint-order="stroke fill markers" d=" M 0 0 L 133.6567409770884 0 L 133.6567409770884 133.6567409770884 L 0 133.6567409770884 L 0 0 Z" fill-opacity="0.5882352941176471"/></g><g transform="translate(6,0)"><g transform="translate(0,179.69436370298178) rotate(760.5409141346998,0,0)"><path fill="rgb(148,0,211)" stroke="none" paint-order="stroke fill markers" d=" M 0 0 L 142.00419463675567 0 L 142.00419463675567 142.00419463675567 L 0 142.00419463675567 L 0 0 Z" fill-opacity="0.5882352941176471"/></g><g transform="translate(6,0)"><g transform="translate(0,213.44004076829935) rotate(704.7181693102976,0,0)"><path fill="rgb(255,0,0)" stroke="none" paint-order="stroke fill markers" d=" M 0 0 L 153.25275365852818 0 L 153.25275365852818 153.25275365852818 L 0 153.25275365852818 L 0 0 Z" fill-opacity="0.5882352941176471"/></g><g transform="translate(6,0)"><g transform="translate(0,243.1069574108801) rotate(662.0010878409998,0,0)"><path fill="rgb(255,127,0)" stroke="none" paint-order="stroke fill markers" d=" M 0 0 L 163.14172587272176 0 L 163.14172587272176 163.14172587272176 L 0 163.14172587272176 L 0 0 Z" fill-opacity="0.5882352941176471"/></g><g transform="translate(6,0)"><g transform="translate(0,262.3901739791775) rotate(636.9071234182162,0,0)"><path fill="rgb(255,255,0)" stroke="none" paint-order="stroke fill markers" d=" M 0 0 L 169.56946472882092 0 L 169.56946472882092 169.56946472882092 L 0 169.56946472882092 L 0 0 Z" fill-opacity="0.5882352941176471"/></g><g transform="translate(6,0)"><g transform="translate(0,268.89698267079586) rotate(628.8634306404005,0,0)"><path fill="rgb(0,255,0)" stroke="none" paint-order="stroke fill markers" d=" M 0 0 L 171.73840095936035 0 L 171.73840095936035 171.73840095936035 L 0 171.73840095936035 L 0 0 Z" fill-opacity="0.5882352941176471"/></g><g transform="translate(6,0)"><g transform="translate(0,262.8535708458123) rotate(636.3274747210271,0,0)"><path fill="rgb(0,0,255)" stroke="none" paint-order="stroke fill markers" d=" M 0 0 L 169.72393035103252 0 L 169.72393035103252 169.72393035103252 L 0 169.72393035103252 L 0 0 Z" fill-opacity="0.5882352941176471"/></g><g transform="translate(6,0)"><g transform="translate(0,246.74643910215025) rotate(657.1146276307453,0,0)"><path fill="rgb(75,0,130)" stroke="none" paint-order="stroke fill markers" d=" M 0 0 L 164.3548864364785 0 L 164.3548864364785 164.3548864364785 L 0 164.3548864364785 L 0 0 Z" fill-opacity="0.5882352941176471"/></g><g transform="translate(6,0)"><g transform="translate(0,223.48865095471393) rotate(689.6450858597128,0,0)"><path fill="rgb(148,0,211)" stroke="none" paint-order="stroke fill markers" d=" M 0 0 L 156.60229038733306 0 L 156.60229038733306 156.60229038733306 L 0 156.60229038733306 L 0 0 Z" fill-opacity="0.5882352941176471"/></g><g transform="translate(6,0)"><g transform="translate(0,190.95935396728532) rotate(740.9481279976465,0,0)"><path fill="rgb(255,0,0)" stroke="none" paint-order="stroke fill markers" d=" M 0 0 L 145.7591913915235 0 L 145.7591913915235 145.7591913915235 L 0 145.7591913915235 L 0 0 Z" fill-opacity="0.5882352941176471"/></g><g transform="translate(6,0)"><g transform="translate(0,163.98967501233813) rotate(789.6509030774906,0,0)"><path fill="rgb(255,127,0)" stroke="none" paint-order="stroke fill markers" d=" M 0 0 L 136.7692984065411 0 L 136.7692984065411 136.7692984065411 L 0 136.7692984065411 L 0 0 Z" fill-opacity="0.5882352941176471"/></g><g transform="translate(6,0)"><g transform="translate(0,151.91645621023736) rotate(813.5906267999312,0,0)"><path fill="rgb(255,255,0)" stroke="none" paint-order="stroke fill markers" d=" M 0 0 L 132.7448921391742 0 L 132.7448921391742 132.7448921391742 L 0 132.7448921391742 L 0 0 Z" fill-opacity="0.5882352941176471"/></g><g transform="translate(6,0)"><g transform="translate(0,147.55492132910575) rotate(822.5998826326796,0,0)"><path fill="rgb(0,255,0)" stroke="none" paint-order="stroke fill markers" d=" M 0 0 L 131.291047178797 0 L 131.291047178797 131.291047178797 L 0 131.291047178797 L 0 0 Z" fill-opacity="0.5882352941176471"/></g><g transform="translate(6,0)"><g transform="translate(0,139.30595033934998) rotate(840.1962966707174,0,0)"><path fill="rgb(0,0,255)" stroke="none" paint-order="stroke fill markers" d=" M 0 0 L 128.54139018221173 0 L 128.54139018221173 128.54139018221173 L 0 128.54139018221173 L 0 0 Z" fill-opacity="0.5882352941176471"/></g><g transform="translate(6,0)"><g transform="translate(0,127.36240816081278) rotate(867.0505651174415,0,0)"><path fill="rgb(75,0,130)" stroke="none" paint-order="stroke fill markers" d=" M 0 0 L 124.56020945603267 0 L 124.56020945603267 124.56020945603267 L 0 124.56020945603267 L 0 0 Z" fill-opacity="0.5882352941176471"/></g><g transform="translate(6,0)"><g transform="translate(0,118.34670170303457) rotate(888.4868835277766,0,0)"><path fill="rgb(148,0,211)" stroke="none" paint-order="stroke fill markers" d=" M 0 0 L 121.55497397010659 0 L 121.55497397010659 121.55497397010659 L 0 121.55497397010659 L 0 0 Z" fill-opacity="0.5882352941176471"/></g><g transform="translate(6,0)"><g transform="translate(0,116.23978793960521) rotate(893.6500993483264,0,0)"><path fill="rgb(255,0,0)" stroke="none" paint-order="stroke fill markers" d=" M 0 0 L 120.85266938229681 0 L 120.85266938229681 120.85266938229681 L 0 120.85266938229681 L 0 0 Z" fill-opacity="0.5882352941176471"/></g><g transform="translate(6,0)"><g transform="translate(0,114.9785032455851) rotate(896.7698264838111,0,0)"><path fill="rgb(255,127,0)" stroke="none" paint-order="stroke fill markers" d=" M 0 0 L 120.43224115095677 0 L 120.43224115095677 120.43224115095677 L 0 120.43224115095677 L 0 0 Z" fill-opacity="0.5882352941176471"/></g><g transform="translate(6,0)"><g transform="translate(0,105.5511996700829) rotate(920.7961297486976,0,0)"><path fill="rgb(255,255,0)" stroke="none" paint-order="stroke fill markers" d=" M 0 0 L 117.28980662578937 0 L 117.28980662578937 117.28980662578937 L 0 117.28980662578937 L 0 0 Z" fill-opacity="0.5882352941176471"/></g><g transform="translate(6,0)"><g transform="translate(0,89.22167626028653) rotate(965.6079751199212,0,0)"><path fill="rgb(0,255,0)" stroke="none" paint-order="stroke fill markers" d=" M 0 0 L 111.84663215585725 0 L 111.84663215585725 111.84663215585725 L 0 111.84663215585725 L 0 0 Z" fill-opacity="0.5882352941176471"/></g><g transform="translate(6,0)"><g transform="translate(0,86.43824587013853) rotate(973.68506108793,0,0)"><path fill="rgb(0,0,255)" stroke="none" paint-order="stroke fill markers" d=" M 0 0 L 110.91882202580791 0 L 110.91882202580791 110.91882202580791 L 0 110.91882202580791 L 0 0 Z" fill-opacity="0.5882352941176471"/></g><g transform="translate(6,0)"><g transform="translate(0,106.0330640487399) rotate(919.5368783290015,0,0)"><path fill="rgb(75,0,130)" stroke="none" paint-order="stroke fill markers" d=" M 0 0 L 117.4504280853417 0 L 117.4504280853417 117.4504280853417 L 0 117.4504280853417 L 0 0 Z" fill-opacity="0.5882352941176471"/></g><g transform="translate(6,0)"><g transform="translate(0,134.68137485267192) rotate(850.3946046163456,0,0)"><path fill="rgb(148,0,211)" stroke="none" paint-order="stroke fill markers" d=" M 0 0 L 126.9998650199857 0 L 126.9998650199857 126.9998650199857 L 0 126.9998650199857 L 0 0 Z" fill-opacity="0.5882352941176471"/></g><g transform="translate(6,0)"><g transform="translate(0,156.7879416604436) rotate(803.7584900682172,0,0)"><path fill="rgb(255,0,0)" stroke="none" paint-order="stroke fill markers" d=" M 0 0 L 134.36872062257626 0 L 134.36872062257626 134.36872062257626 L 0 134.36872062257626 L 0 0 Z" fill-opacity="0.5882352941176471"/></g><g transform="translate(6,0)"><g transform="translate(0,174.75406726264345) rotate(769.464079307615,0,0)"><path fill="rgb(255,127,0)" stroke="none" paint-order="stroke fill markers" d=" M 0 0 L 140.3574291566429 0 L 140.3574291566429 140.3574291566429 L 0 140.3574291566429 L 0 0 Z" fill-opacity="0.5882352941176471"/></g><g transform="translate(6,0)"/></g></g></g></g></g></g></g></g></g></g></g></g></g></g></g></g></g></g></g></g></g></g></g></g></g></g></g></g></g></g></g></g></g></g></g></g></g></g></g></g></g></g></g></g></g></g></g></g></g></g></g></g></g></g></g></g></g></g></g></g></g></g></g></g></g></g></g></g></g></g></g></g></g></g></g></g></g></g></g></g></g></g></g></g></g></g></g></g></g></g></g></g></g></g></g></g></g></g></g></g></g></svg>