<svg version="1.1" xmlns="http://www.w3.org/2000/svg" xmlns:xlink="http://www.w3.org/1999/xlink" width="600" height="600" viewBox="0 0 600 600"><defs/><g transform="scale(1,1)"><g transform="scale(1,1)"><rect fill="rgb(0,0,0)" stroke="none" x="0" y="0" width="600" height="600" fill-opacity="1"/></g><g><g transform="translate(0,300) rotate(3762.890315876075,0,0)"><path fill="rgb(255,0,0)" stroke="none" paint-order="stroke fill markers" d=" M 0 0 L 28.701341504517245 0 L 28.701341504517245 28.701341504517245 L 0 28.701341504517245 L 0 0 Z" fill-opacity="0.5882352941176471"/></g><g transform="translate(6,0)"><g transform="translate(0,298.947847394908) rotate(3809.4399656331734,0,0)"><path fill="rgb(255,127,0)" stroke="none" paint-order="stroke fill markers" d=" M 0 0 L 28.350623969486588 0 L 28.350623969486588 28.350623969486588 L 0 28.350623969486588 L 0 0 Z" fill-opacity="0.5882352941176471"/></g><g transform="translate(6,0)"><g transform="translate(0,296.6551433703539) rotate(3914.974114463142,0,0)"><path fill="rgb(255,255,0)" stroke="none" paint-order="stroke fill markers" d=" M 0 0 L 27.586389294635214 0 L 27.586389294635214 27.586389294635214 L 0 27.586389294635214 L 0 0 Z" fill-opacity="0.5882352941176471"/></g><g transform="translate(6,0)"><g transform="translate(0,294.7779794826107) rotate(4005.835463910767,0,0)"><path fill="rgb(0,255,0)" stroke="none" paint-order="stroke fill markers" d=" M 0 0 L 26.960667998720822 0 L 26.960667998720822 26.960667998720822 L 0 26.960667998720822 L 0 0 Z" fill-opacity="0.5882352941176471"/></g><g transform="translate(6,0)"><g transform="translate(0,294.23629853359887) rotate(4032.844127473187,0,0)"><path fill="rgb(0,0,255)" stroke="none" paint-order="stroke fill markers" d=" M 0 0 L 26.78010768238353 0 L 26.78010768238353 26.78010768238353 L 0 26.78010768238353 L 0 0 Z" fill-opacity="0.5882352941176471"/></g><g transform="translate(6,0)"><g transform="translate(0,293.3468620362677) rotate(4077.9909963224495,0,0)"><path fill="rgb(75,0,130)" stroke="none" paint-order="stroke fill markers" d=" M 0 0 L 26.48362884993981 0 L 26.48362884993981 26.48362884993981 L 0 26.48362884993981 L 0 0 Z" fill-opacity="0.5882352941176471"/></g><g transform="translate(6,0)"><g transform="translate(0,299.2285110020539) rotate(3796.9104989356238,0,0)"><path fill="rgb(148,0,211)" stroke="none" paint-order="stroke fill markers" d=" M 0 0 L 28.444178505201876 0 L 28.444178505201876 28.444178505201876 L 0 28.444178505201876 L 0 0 Z" fill-opacity="0.5882352941176471"/></g><g transform="translate(6,0)"><g transform="translate(0,310.3345924921267) rotate(3359.6500039078996,0,0)"><path fill="rgb(255,0,0)" stroke="none" paint-order="stroke fill markers" d=" M 0 0 L 32.14620566855948 0 L 32.14620566855948 32.14620566855948 L 0 32.14620566855948 L 0 0 Z" fill-opacity="0.5882352941176471"/></g><g transform="translate(6,0)"><g transform="translate(0,311.95285866797354) rotate(3304.2045544136186,0,0)"><path fill="rgb(255,127,0)" stroke="none" paint-order="stroke fill markers" d=" M 0 0 L 32.685627727175095 0 L 32.685627727175095 32.685627727175095 L 0 32.685627727175095 L 0 0 Z" fill-opacity="0.5882352941176471"/></g><g transform="translate(6,0)"><g transform="translate(0,309.0234834350039) rotate(3405.9548808449504,0,0)"><path fill="rgb(255,255,0)" stroke="none" paint-order="stroke fill markers" d=" M 0 0 L 31.709169316185225 0 L 31.709169316185225 31.709169316185225 L 0 31.709169316185225 L 0 0 Z" fill-opacity="0.5882352941176471"/></g><g transform="translate(6,0)"><g transform="translate(0,306.61419122858683) rotate(3494.4589626388643,0,0)"><path fill="rgb(0,255,0)" stroke="none" paint-order="stroke fill markers" d=" M 0 0 L 30.906071914046194 0 L 30.906071914046194 30.906071914046194 L 0 30.906071914046194 L 0 0 Z" fill-opacity="0.5882352941176471"/></g><g transform="translate(6,0)"><g transform="translate(0,303.05737148480773) rotate(3633.8596583431845,0,0)"><path fill="rgb(0,0,255)" stroke="none" paint-order="stroke fill markers" d=" M 0 0 L 29.7204653327865 0 L 29.7204653327865 29.7204653327865 L 0 29.7204653327865 L 0 0 Z" fill-opacity="0.5882352941176471"/></g><g transform="translate(6,0)"><g transform="translate(0,302.1617050798317) rotate(3670.7338339872263,0,0)"><path fill="rgb(75,0,130)" stroke="none" paint-order="stroke fill markers" d=" M 0 0 L 29.42190986446113 0 L 29.42190986446113 29.42190986446113 L 0 29.42190986446113 L 0 0 Z" fill-opacity="0.5882352941176471"/></g><g transform="translate(6,0)"><g transform="translate(0,314.6282651326158) rotate(3216.446296794038,0,0)"><path fill="rgb(148,0,211)" stroke="none" paint-order="stroke fill markers" d=" M 0 0 L 33.577429882055846 0 L 33.577429882055846 33.577429882055846 L 0 33.577429882055846 L 0 0 Z" fill-opacity="0.5882352941176471"/></g><g transform="translate(6,0)"><g transform="translate(0,333.76452046427266) rotate(2702.960981631502,0,0)"><path fill="rgb(255,0,0)" stroke="none" paint-order="stroke fill markers" d=" M 0 0 L 39.95618165927479 0 L 39.95618165927479 39.95618165927479 L 0 39.95618165927479 L 0 0 Z" fill-opacity="0.5882352941176471"/></g><g transform="translate(6,0)"><g transform="translate(0,343.744326271938) rotate(2495.2184455176475,0,0)"><path fill="rgb(255,127,0)" stroke="none" paint-order="stroke fill markers" d=" M 0 0 L 43.28278359516326 0 L 43.28278359516326 43.28278359516326 L 0 43.28278359516326 L 0 0 Z" fill-opacity="0.5882352941176471"/></g><g transform="translate(6,0)"><g transform="translate(0,345.70066751969773) rotate(2458.1825957930746,0,0)"><path fill="rgb(255,255,0)" stroke="none" paint-order="stroke fill markers" d=" M 0 0 L 43.9348973444165 0 L 43.9348973444165 43.9348973444165 L 0 43.9348973444165 L 0 0 Z" fill-opacity="0.5882352941176471"/></g><g transform="translate(6,0)"><g transform="translate(0,347.1008220894647) rotate(2432.3439293887,0,0)"><path fill="rgb(0,255,0)" stroke="none" paint-order="stroke fill markers" d=" M 0 0 L 44.401615534338816 0 L 44.401615534338816 44.401615534338816 L 0 44.401615534338816 L 0 0 Z" fill-opacity="0.5882352941176471"/></g><g transform="translate(6,0)"><g transform="translate(0,344.44290341586714) rotate(2481.866139164707,0,0)"><path fill="rgb(0,0,255)" stroke="none" paint-order="stroke fill markers" d=" M 0 0 L 43.515642643139614 0 L 43.515642643139614 43.515642643139614 L 0 43.515642643139614 L 0 0 Z" fill-opacity="0.5882352941176471"/></g><g transform="translate(6,0)"><g transform="translate(0,337.87659920395066) rotate(2613.311582770016,0,0)"><path fill="rgb(75,0,130)" stroke="none" paint-order="stroke fill markers" d=" M 0 0 L 41.326874572500806 0 L 41.326874572500806 41.326874572500806 L 0 41.326874572500806 L 0 0 Z" fill-opacity="0.5882352941176471"/></g><g transform="translate(6,0)"><g transform="translate(0,334.28920863417204) rotate(2691.1811530341465,0,0)"><path fill="rgb(148,0,211)" stroke="none" paint-order="stroke fill markers" d=" M 0 0 L 40.131077715907914 0 L 40.131077715907914 40.131077715907914 L 0 40.131077715907914 L 0 0 Z" fill-opacity="0.5882352941176471"/></g><g transform="translate(6,0)"><g transform="translate(0,335.3585586514671) rotate(2667.4881396175665,0,0)"><path fill="rgb(255,0,0)" stroke="none" paint-order="stroke fill markers" d=" M 0 0 L 40.48752772167294 0 L 40.48752772167294 40.48752772167294 L 0 40.48752772167294 L 0 0 Z" fill-opacity="0.5882352941176471"/></g><g transform="translate(6,0)"><g transform="translate(0,336.100343108459) rotate(2651.2964004867777,0,0)"><path fill="rgb(255,127,0)" stroke="none" paint-order="stroke fill markers" d=" M 0 0 L 40.73478920733691 0 L 40.73478920733691 40.73478920733691 L 0 40.73478920733691 L 0 0 Z" fill-opacity="0.5882352941176471"/></g><g transform="translate(6,0)"><g transform="translate(0,333.51277604044583) rotate(2708.649608578516,0,0)"><path fill="rgb(255,255,0)" stroke="none" paint-order="stroke fill markers" d=" M 0 0 L 39.872266851332526 0 L 39.872266851332526 39.872266851332526 L 0 39.872266851332526 L 0 0 Z" fill-opacity="0.5882352941176471"/></g><g transform="translate(6,0)"><g transform="translate(0,330.60972283291596) rotate(2776.022596877108,0,0)"><path fill="rgb(0,255,0)" stroke="none" paint-order="stroke fill markers" d=" M 0 0 L 38.90458244882257 0 L 38.90458244882257 38.90458244882257 L 0 38.90458244882257 L 0 0 Z" fill-opacity="0.5882352941176471"/></g><g transform="translate(6,0)"><g transform="translate(0,337.2660796032695) rotate(2626.2440347233473,0,0)"><path fill="rgb(0,0,255)" stroke="none" paint-order="stroke fill markers" d=" M 0 0 L 41.123368038940406 0 L 41.123368038940406 41.123368038940406 L 0 41.123368038940406 L 0 0 Z" fill-opacity="0.5882352941176471"/></g><g transform="translate(6,0)"><g transform="translate(0,352.844849312129) rotate(2331.7929183541023,0,0)"><path fill="rgb(75,0,130)" stroke="none" paint-order="stroke fill markers" d=" M 0 0 L 46.31629127522691 0 L 46.31629127522691 46.31629127522691 L 0 46.31629127522691 L 0 0 Z" fill-opacity="0.5882352941176471"/></g><g transform="translate(6,0)"><g transform="translate(0,371.1859223746372) rotate(2059.8900718703817,0,0)"><path fill="rgb(148,0,211)" stroke="none" paint-order="stroke fill markers" d=" M 0 0 L 52.429982296062974 0 L 52.429982296062974 52.429982296062974 L 0 52.429982296062974 L 0 0 Z" fill-opacity="0.5882352941176471"/></g><g transform="translate(6,0)"><g transform="translate(0,392.05360500177187) rotate(1818.6142287671848,0,0)"><path fill="rgb(255,0,0)" stroke="none" paint-order="stroke fill markers" d=" M 0 0 L 59.38587650510786 0 L 59.38587650510786 59.38587650510786 L 0 59.38587650510786 L 0 0 Z" fill-opacity="0.5882352941176471"/></g><g transform="translate(6,0)"><g transform="translate(0,415.4822462292499) rotate(1607.2523133948082,0,0)"><path fill="rgb(255,127,0)" stroke="none" paint-order="stroke fill markers" d=" M 0 0 L 67.19542358093386 0 L 67.19542358093386 67.19542358093386 L 0 67.19542358093386 L 0 0 Z" fill-opacity="0.5882352941176471"/></g><g transform="translate(6,0)"><g transform="translate(0,427.35671294207623) rotate(1517.8435334851677,0,0)"><path fill="rgb(255,255,0)" stroke="none" paint-order="stroke fill markers" d=" M 0 0 L 71.15357915187597 0 L 71.15357915187597 71.15357915187597 L 0 71.15357915187597 L 0 0 Z" fill-opacity="0.5882352941176471"/></g><g transform="translate(6,0)"><g transform="translate(0,427.7286176922711) rotate(1515.2036501898365,0,0)"><path fill="rgb(0,255,0)" stroke="none" paint-order="stroke fill markers" d=" M 0 0 L 71.27754740194094 0 L 71.27754740194094 71.27754740194094 L 0 71.27754740194094 L 0 0 Z" fill-opacity="0.5882352941176471"/></g><g transform="translate(6,0)"><g transform="translate(0,427.5350142328227) rotate(1516.5767544228781,0,0)"><path fill="rgb(0,0,255)" stroke="none" paint-order="stroke fill markers" d=" M 0 0 L 71.21301291545814 0 L 71.21301291545814 71.21301291545814 L 0 71.21301291545814 L 0 0 Z" fill-opacity="0.5882352941176471"/></g><g transform="translate(6,0)"><g transform="translate(0,427.91547520898814) rotate(1513.8807464742304,0,0)"><path fill="rgb(75,0,130)" stroke="none" paint-order="stroke fill markers" d=" M 0 0 L 71.33983324084662 0 L 71.33983324084662 71.33983324084662 L 0 71.33983324084662 L 0 0 Z" fill-opacity="0.5882352941176471"/></g><g transform="translate(6,0)"><g transform="translate(0,419.28811299013125) rotate(1577.4703157475549,0,0)"><path fill="rgb(148,0,211)" stroke="none" paint-order="stroke fill markers" d=" M 0 0 L 68.46404583456099 0 L 68.46404583456099 68.46404583456099 L 0 68.46404583456099 L 0 0 Z" fill-opacity="0.5882352941176471"/></g><g transform="translate(6,0)"><g transform="translate(0,412.28830875526535) rotate(1633.1276247504356,0,0)"><path fill="rgb(255,0,0)" stroke="none" paint-order="stroke fill markers" d=" M 0 0 L 66.13077775627235 0 L 66.13077775627235 66.13077775627235 L 0 66.13077775627235 L 0 0 Z" fill-opacity="0.5882352941176471"/></g><g transform="translate(6,0)"><g transform="translate(0,417.4002783223043) rotate(1592.1039284429003,0,0)"><path fill="rgb(255,127,0)" stroke="none" paint-order="stroke fill markers" d=" M 0 0 L 67.834767611952 0 L 67.834767611952 67.834767611952 L 0 67.834767611952 L 0 0 Z" fill-opacity="0.5882352941176471"/></g><g transform="translate(6,0)"><g transform="translate(0,425.54995596288495) rotate(1530.8004095678739,0,0)"><path fill="rgb(255,255,0)" stroke="none" paint-order="stroke fill markers" d=" M 0 0 L 70.55132682547888 0 L 70.55132682547888 70.55132682547888 L 0 70.55132682547888 L 0 0 Z" fill-opacity="0.5882352941176471"/></g><g transform="translate(6,0)"><g transform="translate(0,421.19964095902264) rotate(1562.9246075384237,0,0)"><path fill="rgb(0,255,0)" stroke="none" paint-order="stroke fill markers" d=" M 0 0 L 69.10122182419146 0 L 69.10122182419146 69.10122182419146 L 0 69.10122182419146 L 0 0 Z" fill-opacity="0.5882352941176471"/></g><g transform="translate(6,0)"><g transform="translate(0,415.2565050974361) rotate(1609.0541707748866,0,0)"><path fill="rgb(0,0,255)" stroke="none" paint-order="stroke fill markers" d=" M 0 0 L 67.12017653699594 0 L 67.12017653699594 67.12017653699594 L 0 67.12017653699594 L 0 0 Z" fill-opacity="0.5882352941176471"/></g><g transform="translate(6,0)"><g transform="translate(0,412.82694907070925) rotate(1628.7056467994594,0,0)"><path fill="rgb(75,0,130)" stroke="none" paint-order="stroke fill markers" d=" M 0 0 L 66.31032452808701 0 L 66.31032452808701 66.31032452808701 L 0 66.31032452808701 L 0 0 Z" fill-opacity="0.5882352941176471"/></g><g transform="translate(6,0)"><g transform="translate(0,406.10694186925946) rotate(1685.6478384002044,0,0)"><path fill="rgb(148,0,211)" stroke="none" paint-order="stroke fill markers" d=" M 0 0 L 64.07032212760373 0 L 64.07032212760373 64.07032212760373 L 0 64.07032212760373 L 0 0 Z" fill-opacity="0.5882352941176471"/></g><g transform="translate(6,0)"><g transform="translate(0,395.6128635026107) rotate(1782.9933339557435,0,0)"><path fill="rgb(255,0,0)" stroke="none" paint-order="stroke fill markers" d=" M 0 0 L 60.57229600538749 0 L 60.57229600538749 60.57229600538749 L 0 60.57229600538749 L 0 0 Z" fill-opacity="0.5882352941176471"/></g><g transform="translate(6,0)"><g transform="translate(0,397.15361595266995) rotate(1768.002682866148,0,0)"><path fill="rgb(255,127,0)" stroke="none" paint-order="stroke fill markers" d=" M 0 0 L 61.08588015540724 0 L 61.08588015540724 61.08588015540724 L 0 61.08588015540724 L 0 0 Z" fill-opacity="0.5882352941176471"/></g><g transform="translate(6,0)"><g transform="translate(0,411.65806928553354) rotate(1638.3321685962987,0,0)"><path fill="rgb(255,255,0)" stroke="none" paint-order="stroke fill markers" d=" M 0 0 L 65.92069793302842 0 L 65.92069793302842 65.92069793302842 L 0 65.92069793302842 L 0 0 Z" fill-opacity="0.5882352941176471"/></g><g transform="translate(6,0)"><g transform="translate(0,418.52914337013306) rotate(1583.3210390612937,0,0)"><path fill="rgb(0,255,0)" stroke="none" paint-order="stroke fill markers" d=" M 0 0 L 68.21105596122827 0 L 68.21105596122827 68.21105596122827 L 0 68.21105596122827 L 0 0 Z" fill-opacity="0.5882352941176471"/></g><g transform="translate(6,0)"><g transform="translate(0,415.0068882635006) rotate(1611.0513125619398,0,0)"><path fill="rgb(0,0,255)" stroke="none" paint-order="stroke fill markers" d=" M 0 0 L 67.03697092568412 0 L 67.03697092568412 67.03697092568412 L 0 67.03697092568412 L 0 0 Z" fill-opacity="0.5882352941176471"/></g><g transform="translate(6,0)"><g transform="translate(0,411.2955038542715) rotate(1641.3413075449532,0,0)"><path fill="rgb(75,0,130)" stroke="none" paint-order="stroke fill markers" d=" M 0 0 L 65.7998427892744 0 L 65.7998427892744 65.7998427892744 L 0 65.7998427892744 L 0 0 Z" fill-opacity="0.5882352941176471"/></g><g transform="translate(6,0)"><g transform="translate(0,407.5842426068738) rotate(1672.791051398861,0,0)"><path fill="rgb(148,0,211)" stroke="none" paint-order="stroke fill markers" d=" M 0 0 L 64.56275570680849 0 L 64.56275570680849 64.56275570680849 L 0 64.56275570680849 L 0 0 Z" fill-opacity="0.5882352941176471"/></g><g transform="translate(6,0)"><g transform="translate(0,403.2976627794738) rotate(1710.6500191771568,0,0)"><path fill="rgb(255,0,0)" stroke="none" paint-order="stroke fill markers" d=" M 0 0 L 63.133895764341844 0 L 63.133895764341844 63.133895764341844 L 0 63.133895764341844 L 0 0 Z" fill-opacity="0.5882352941176471"/></g><g transform="translate(6,0)"><g transform="translate(0,408.35926541161905) rotate(1666.1242341661236,0,0)"><path fill="rgb(255,127,0)" stroke="none" paint-order="stroke fill markers" d=" M 0 0 L 64.82109664172359 0 L 64.82109664172359 64.82109664172359 L 0 64.82109664172359 L 0 0 Z" fill-opacity="0.5882352941176471"/></g><g transform="translate(6,0)"><g transform="translate(0,420.8936681587258) rotate(1565.234838211277,0,0)"><path fill="rgb(255,255,0)" stroke="none" paint-order="stroke fill markers" d=" M 0 0 L 68.99923089075918 0 L 68.99923089075918 68.99923089075918 L 0 68.99923089075918 L 0 0 Z" fill-opacity="0.5882352941176471"/></g><g transform="translate(6,0)"><g transform="translate(0,434.209842609634) rotate(1470.6291720567888,0,0)"><path fill="rgb(0,255,0)" stroke="none" paint-order="stroke fill markers" d=" M 0 0 L 73.43795570772858 0 L 73.43795570772858 73.43795570772858 L 0 73.43795570772858 L 0 0 Z" fill-opacity="0.5882352941176471"/></g><g transform="translate(6,0)"><g transform="translate(0,451.0602207320488) rotate(1366.1418468221248,0,0)"><path fill="rgb(0,0,255)" stroke="none" paint-order="stroke fill markers" d=" M 0 0 L 79.05474841520017 0 L 79.05474841520017 79.05474841520017 L 0 79.05474841520017 L 0 0 Z" fill-opacity="0.5882352941176471"/></g><g transform="translate(6,0)"><g transform="translate(0,473.6879421148191) rotate(1247.151727610877,0,0)"><path fill="rgb(75,0,130)" stroke="none" paint-order="stroke fill markers" d=" M 0 0 L 86.59732220945695 0 L 86.59732220945695 86.59732220945695 L 0 86.59732220945695 L 0 0 Z" fill-opacity="0.5882352941176471"/></g><g transform="translate(6,0)"><g transform="translate(0,495.0592554501928) rotate(1152.3553148255319,0,0)"><path fill="rgb(148,0,211)" stroke="none" paint-order="stroke fill markers" d=" M 0 0 L 93.72109332124818 0 L 93.72109332124818 93.72109332124818 L 0 93.72109332124818 L 0 0 Z" fill-opacity="0.5882352941176471"/></g><g transform="translate(6,0)"><g transform="translate(0,516.4804199363646) rotate(1070.7754676186876,0,0)"><path fill="rgb(255,0,0)" stroke="none" paint-order="stroke fill markers" d=" M 0 0 L 100.86148148330545 0 L 100.86148148330545 100.86148148330545 L 0 100.86148148330545 L 0 0 Z" fill-opacity="0.5882352941176471"/></g><g transform="translate(6,0)"><g transform="translate(0,540.8313307444844) rotate(991.021603473508,0,0)"><path fill="rgb(255,127,0)" stroke="none" paint-order="stroke fill markers" d=" M 0 0 L 108.97845175267872 0 L 108.97845175267872 108.97845175267872 L 0 108.97845175267872 L 0 0 Z" fill-opacity="0.5882352941176471"/></g><g transform="translate(6,0)"><g transform="translate(0,560.3954530730524) rotate(935.0663448519036,0,0)"><path fill="rgb(255,255,0)" stroke="none" paint-order="stroke fill markers" d=" M 0 0 L 115.49982586220138 0 L 115.49982586220138 115.49982586220138 L 0 115.49982586220138 L 0 0 Z" fill-opacity="0.5882352941176471"/></g><g transform="translate(6,0)"><g transform="translate(0,565.8002168387425) rotate(920.7050155318844,0,0)"><path fill="rgb(0,255,0)" stroke="none" paint-order="stroke fill markers" d=" M 0 0 L 117.30141378409805 0 L 117.30141378409805 117.30141378409805 L 0 117.30141378409805 L 0 0 Z" fill-opacity="0.5882352941176471"/></g><g transform="translate(6,0)"><g transform="translate(0,565.349473316013) rotate(921.8858312718281,0,0)"><path fill="rgb(0,0,255)" stroke="none" paint-order="stroke fill markers" d=" M 0 0 L 117.15116594318827 0 L 117.15116594318827 117.15116594318827 L 0 117.15116594318827 L 0 0 Z" fill-opacity="0.5882352941176471"/></g><g transform="translate(6,0)"><g transform="translate(0,560.0502387890292) rotate(935.9988720311802,0,0)"><path fill="rgb(75,0,130)" stroke="none" paint-order="stroke fill markers" d=" M 0 0 L 115.38475443419367 0 L 115.38475443419367 115.38475443419367 L 0 115.38475443419367 L 0 0 Z" fill-opacity="0.5882352941176471"/></g><g transform="translate(6,0)"><g transform="translate(0,550.7366556517436) rotate(961.8790694787988,0,0)"><path fill="rgb(148,0,211)" stroke="none" paint-order="stroke fill markers" d=" M 0 0 L 112.28022672176512 0 L 112.28022672176512 112.28022672176512 L 0 112.28022672176512 L 0 0 Z" fill-opacity="0.5882352941176471"/></g><g transform="translate(6,0)"><g transform="translate(0,547.424303257073) rotate(971.4317286501147,0,0)"><path fill="rgb(255,0,0)" stroke="none" paint-order="stroke fill markers" d=" M 0 0 L 111.1761092568749 0 L 111.1761092568749 111.1761092568749 L 0 111.1761092568749 L 0 0 Z" fill-opacity="0.5882352941176471"/></g><g transform="translate(6,0)"><g transform="translate(0,547.4261566369389) rotate(971.426330541911,0,0)"><path fill="rgb(255,127,0)" stroke="none" paint-order="stroke fill markers" d=" M 0 0 L 111.17672705016355 0 L 111.17672705016355 111.17672705016355 L 0 111.17672705016355 L 0 0 Z" fill-opacity="0.5882352941176471"/></g><g transform="translate(6,0)"><g transform="translate(0,548.4450894454446) rotate(968.4676673204718,0,0)"><path fill="rgb(255,255,0)" stroke="none" paint-order="stroke fill markers" d=" M 0 0 L 111.51637131966548 0 L 111.51637131966548 111.51637131966548 L 0 111.51637131966548 L 0 0 Z" fill-opacity="0.5882352941176471"/></g><g transform="translate(6,0)"><g transform="translate(0,548.5845334811131) rotate(968.0641667025999,0,0)"><path fill="rgb(0,255,0)" stroke="none" paint-order="stroke fill markers" d=" M 0 0 L 111.56285266488828 0 L 111.56285266488828 111.56285266488828 L 0 111.56285266488828 L 0 0 Z" fill-opacity="0.5882352941176471"/></g><g transform="translate(6,0)"><g transform="translate(0,544.3491896969656) rotate(980.4716252316243,0,0)"><path fill="rgb(0,0,255)" stroke="none" paint-order="stroke fill markers" d=" M 0 0 L 110.15107140350578 0 L 110.15107140350578 110.15107140350578 L 0 110.15107140350578 L 0 0 Z" fill-opacity="0.5882352941176471"/></g><g transform="translate(6,0)"><g transform="translate(0,532.6691784176185) rotate(1016.3966011595975,0,0)"><path fill="rgb(75,0,130)" stroke="none" paint-order="stroke fill markers" d=" M 0 0 L 106.25773431039005 0 L 106.25773431039005 106.25773431039005 L 0 106.25773431039005 L 0 0 Z" fill-opacity="0.5882352941176471"/></g><g transform="translate(6,0)"><g transform="translate(0,517.3002233606811) rotate(1067.882214141921,0,0)"><path fill="rgb(148,0,211)" stroke="none" paint-order="stroke fill markers" d=" M 0 0 L 101.13474929141096 0 L 101.13474929141096 101.13474929141096 L 0 101.13474929141096 L 0 0 Z" fill-opacity="0.5882352941176471"/></g><g transform="translate(6,0)"><g transform="translate(0,508.14400205892673) rotate(1101.1118877298336,0,0)"><path fill="rgb(255,0,0)" stroke="none" paint-order="stroke fill markers" d=" M 0 0 L 98.08267552415948 0 L 98.08267552415948 98.08267552415948 L 0 98.08267552415948 L 0 0 Z" fill-opacity="0.5882352941176471"/></g><g transform="translate(6,0)"><g transform="translate(0,518.2573707097241) rotate(1064.523967510129,0,0)"><path fill="rgb(255,127,0)" stroke="none" paint-order="stroke fill markers" d=" M 0 0 L 101.45379840775861 0 L 101.45379840775861 101.45379840775861 L 0 101.45379840775861 L 0 0 Z" fill-opacity="0.5882352941176471"/></g><g transform="translate(6,0)"><g transform="translate(0,540.6032510117835) rotate(991.7134519854752,0,0)"><path fill="rgb(255,255,0)" stroke="none" paint-order="stroke fill markers" d=" M 0 0 L 108.90242517511176 0 L 108.90242517511176 108.90242517511176 L 0 108.90242517511176 L 0 0 Z" fill-opacity="0.5882352941176471"/></g><g transform="translate(6,0)"><g transform="translate(0,551.0118275653736) rotate(961.0939325515475,0,0)"><path fill="rgb(0,255,0)" stroke="none" paint-order="stroke fill markers" d=" M 0 0 L 112.37195069297508 0 L 112.37195069297508 112.37195069297508 L 0 112.37195069297508 L 0 0 Z" fill-opacity="0.5882352941176471"/></g><g transform="translate(6,0)"><g transform="translate(0,549.1153806923678) rotate(966.5311583050282,0,0)"><path fill="rgb(0,0,255)" stroke="none" paint-order="stroke fill markers" d=" M 0 0 L 111.73980173530653 0 L 111.73980173530653 111.73980173530653 L 0 111.73980173530653 L 0 0 Z" fill-opacity="0.5882352941176471"/></g><g transform="translate(6,0)"><g transform="translate(0,541.9702191744441) rotate(987.5813363396165,0,0)"><path fill="rgb(75,0,130)" stroke="none" paint-order="stroke fill markers" d=" M 0 0 L 109.35808122933196 0 L 109.35808122933196 109.35808122933196 L 0 109.35808122933196 L 0 0 Z" fill-opacity="0.5882352941176471"/></g><g transform="translate(6,0)"><g transform="translate(0,535.2338524785396) rotate(1008.2844980268981,0,0)"><path fill="rgb(148,0,211)" stroke="none" paint-order="stroke fill markers" d=" M 0 0 L 107.11262566403046 0 L 107.11262566403046 107.11262566403046 L 0 107.11262566403046 L 0 0 Z" fill-opacity="0.5882352941176471"/></g><g transform="translate(6,0)"><g transform="translate(0,529.3664529625473) rotate(1027.0374666819566,0,0)"><path fill="rgb(255,0,0)" stroke="none" paint-order="stroke fill markers" d=" M 0 0 L 105.15682582536634 0 L 105.15682582536634 105.15682582536634 L 0 105.15682582536634 L 0 0 Z" fill-opacity="0.5882352941176471"/></g><g transform="translate(6,0)"><g transform="translate(0,523.7150727936842) rotate(1045.7715577122783,0,0)"><path fill="rgb(255,127,0)" stroke="none" paint-order="stroke fill markers" d=" M 0 0 L 103.2730324357453 0 L 103.2730324357453 103.2730324357453 L 0 103.2730324357453 L 0 0 Z" fill-opacity="0.5882352941176471"/></g><g transform="translate(6,0)"><g transform="translate(0,519.4015619166412) rotate(1060.537071632348,0,0)"><path fill="rgb(255,255,0)" stroke="none" paint-order="stroke fill markers" d=" M 0 0 L 101.83519547673097 0 L 101.83519547673097 101.83519547673097 L 0 101.83519547673097 L 0 0 Z" fill-opacity="0.5882352941176471"/></g><g transform="translate(6,0)"><g transform="translate(0,517.7553034279374) rotate(1066.2828822631673,0,0)"><path fill="rgb(0,255,0)" stroke="none" paint-order="stroke fill markers" d=" M 0 0 L 101.28644264716304 0 L 101.28644264716304 101.28644264716304 L 0 101.28644264716304 L 0 0 Z" fill-opacity="0.5882352941176471"/></g><g transform="translate(6,0)"><g transform="translate(0,516.6601106460071) rotate(1070.1399616875021,0,0)"><path fill="rgb(0,0,255)" stroke="none" paint-order="stroke fill markers" d=" M 0 0 L 100.9213783865196 0 L 100.9213783865196 100.9213783865196 L 0 100.9213783865196 L 0 0 Z" fill-opacity="0.5882352941176471"/></g><g transform="translate(6,0)"><g transform="translate(0,510.5265854900161) rotate(1092.2675849134484,0,0)"><path fill="rgb(75,0,130)" stroke="none" paint-order="stroke fill markers" d=" M 0 0 L 98.87687000118927 0 L 98.87687000118927 98.87687000118927 L 0 98.87687000118927 L 0 0 Z" fill-opacity="0.5882352941176471"/></g><g transform="translate(6,0)"><g transform="translate(0,496.694452585072) rotate(1145.692166818167,0,0)"><path fill="rgb(148,0,211)" stroke="none" paint-order="stroke fill markers" d=" M 0 0 L 94.26615903287457 0 L 94.26615903287457 94.26615903287457 L 0 94.26615903287457 L 0 0 Z" fill-opacity="0.5882352941176471"/></g><g transform="translate(6,0)"><g transform="translate(0,481.74346874572484) rotate(1209.6435776099192,0,0)"><path fill="rgb(255,0,0)" stroke="none" paint-order="stroke fill markers" d=" M 0 0 L 89.28249775309219 0 L 89.28249775309219 89.28249775309219 L 0 89.28249775309219 L 0 0 Z" fill-opacity="0.5882352941176471"/></g><g transform="translate(6,0)"><g transform="translate(0,473.10077112452603) rotate(1249.9768733152391,0,0)"><path fill="rgb(255,127,0)" stroke="none" paint-order="stroke fill markers" d=" M 0 0 L 86.40159854602592 0 L 86.40159854602592 86.40159854602592 L 0 86.40159854602592 L 0 0 Z" fill-opacity="0.5882352941176471"/></g><g transform="translate(6,0)"><g transform="translate(0,476.2530236742683) rotate(1234.9582457874358,0,0)"><path fill="rgb(255,255,0)" stroke="none" paint-order="stroke fill markers" d=" M 0 0 L 87.45234939594002 0 L 87.45234939594002 87.45234939594002 L 0 87.45234939594002 L 0 0 Z" fill-opacity="0.5882352941176471"/></g><g transform="translate(6,0)"><g transform="translate(0,487.6453516542367) rotate(1183.5643409883482,0,0)"><path fill="rgb(0,255,0)" stroke="none" paint-order="stroke fill markers" d=" M 0 0 L 91.24979205592949 0 L 91.24979205592949 91.24979205592949 L 0 91.24979205592949 L 0 0 Z" fill-opacity="0.5882352941176471"/></g><g transform="translate(6,0)"><g transform="translate(0,494.8329272877518) rotate(1153.283674228634,0,0)"><path fill="rgb(0,0,255)" stroke="none" paint-order="stroke fill markers" d=" M 0 0 L 93.64565060043451 0 L 93.64565060043451 93.64565060043451 L 0 93.64565060043451 L 0 0 Z" fill-opacity="0.5882352941176471"/></g><g transform="translate(6,0)"><g transform="translate(0,486.32858110283746) rotate(1189.2849582631184,0,0)"><path fill="rgb(75,0,130)" stroke="none" paint-order="stroke fill markers" d=" M 0 0 L 90.8108685387964 0 L 90.8108685387964 90.8108685387964 L 0 90.8108685387964 L 0 0 Z" fill-opacity="0.5882352941176471"/></g><g transform="translate(6,0)"><g transform="translate(0,472.4726487943257) rotate(1253.0132585247761,0,0)"><path fill="rgb(148,0,211)" stroke="none" paint-order="stroke fill markers" d=" M 0 0 L 86.19222443595915 0 L 86.19222443595915 86.19222443595915 L 0 86.19222443595915 L 0 0 Z" fill-opacity="0.5882352941176471"/></g><g transform="translate(6,0)"><g transform="translate(0,460.3329025481071) rotate(1314.7380299825552,0,0)"><path fill="rgb(255,0,0)" stroke="none" paint-order="stroke fill markers" d=" M 0 0 L 82.14564235388627 0 L 82.14564235388627 82.14564235388627 L 0 82.14564235388627 L 0 0 Z" fill-opacity="0.5882352941176471"/></g><g transform="translate(6,0)"><g transform="translate(0,447.7275163884823) rotate(1385.612902135144,0,0)"><path fill="rgb(255,127,0)" stroke="none" paint-order="stroke fill markers" d=" M 0 0 L 77.94384696734467 0 L 77.94384696734467 77.94384696734467 L 0 77.94384696734467 L 0 0 Z" fill-opacity="0.5882352941176471"/></g><g transform="translate(6,0)"><g transform="translate(0,434.9722908338114) rotate(1465.5572646527935,0,0)"><path fill="rgb(255,255,0)" stroke="none" paint-order="stroke fill markers" d=" M 0 0 L 73.69210511578773 0 L 73.69210511578773 73.69210511578773 L 0 73.69210511578773 L 0 0 Z" fill-opacity="0.5882352941176471"/></g><g transform="translate(6,0)"><g transform="translate(0,428.4464692304498) rotate(1510.1340218148925,0,0)"><path fill="rgb(0,255,0)" stroke="none" paint-order="stroke fill markers" d=" M 0 0 L 71.51683124800051 0 L 71.51683124800051 71.51683124800051 L 0 71.51683124800051 L 0 0 Z" fill-opacity="0.5882352941176471"/></g><g transform="translate(6,0)"><g transform="translate(0,418.6695379762325) rotate(1582.2354998397986,0,0)"><path fill="rgb(0,0,255)" stroke="none" paint-order="stroke fill markers" d=" M 0 0 L 68.25785416326141 0 L 68.25785416326141 68.25785416326141 L 0 68.25785416326141 L 0 0 Z" fill-opacity="0.5882352941176471"/></g><g transform="translate(6,0)"><g transform="translate(0,403.65859889679336) rotate(1707.396294260637,0,0)"><path fill="rgb(75,0,130)" stroke="none" paint-order="stroke fill markers" d=" M 0 0 L 63.25420780344836 0 L 63.25420780344836 63.25420780344836 L 0 63.25420780344836 L 0 0 Z" fill-opacity="0.5882352941176471"/></g><g transform="translate(6,0)"><g transform="translate(0,387.96715476341836) rotate(1861.3075487038177,0,0)"><path fill="rgb(148,0,211)" stroke="none" paint-order="stroke fill markers" d=" M 0 0 L 58.0237264256567 0 L 58.0237264256567 58.0237264256567 L 0 58.0237264256567 L 0 0 Z" fill-opacity="0.5882352941176471"/></g><g transform="translate(6,0)"><g transform="translate(0,369.5832486231708) rotate(2081.0949634622184,0,0)"><path fill="rgb(255,0,0)" stroke="none" paint-order="stroke fill markers" d=" M 0 0 L 51.895757712240844 0 L 51.895757712240844 51.895757712240844 L 0 51.895757712240844 L 0 0 Z" fill-opacity="0.5882352941176471"/></g><g transform="translate(6,0)"><g transform="translate(0,342.3203045482203) rotate(2522.8864528009813,0,0)"><path fill="rgb(255,127,0)" stroke="none" paint-order="stroke fill markers" d=" M 0 0 L 42.80810968725734 0 L 42.80810968725734 42.80810968725734 L 0 42.80810968725734 L 0 0 Z" fill-opacity="0.5882352941176471"/></g><g transform="translate(6,0)"/></g></g></g></g></g></g></g></g></g></g></g></g></g></g></g></g></g></g></g></g></g></g></g></g></g></g></g></g></g></g></g></g></g></g></g></g></g></g></g></g></g></g></g></g></g></g></g></g></g></g></g></g></g></g></g></g></g></g></g></g></g></g></g></g></g></g></g></g></g></g></g></g></g></g></g></g></g></g></g></g></g></g></g></g></g></g></g></g></g></g></g></g></g></g></g></g></g></g></g></g></g></svg>