<svg version="1.1" xmlns="http://www.w3.org/2000/svg" xmlns:xlink="http://www.w3.org/1999/xlink" width="600" height="600" viewBox="0 0 600 600"><defs/><g transform="scale(1,1)"><g transform="scale(1,1)"><rect fill="rgb(0,0,0)" stroke="none" x="0" y="0" width="600" height="600" fill-opacity="1"/></g><g><g transform="translate(0,300) rotate(2.378945633237048,0,0)"><path fill="rgb(255,0,0)" stroke="none" paint-order="stroke fill markers" d=" M 0 0 L 75.66377200267193 0 L 75.66377200267193 75.66377200267193 L 0 75.66377200267193 L 0 0 Z" fill-opacity="0.5882352941176471"/></g><g transform="translate(60,0)"><g transform="translate(0,260.0364485512573) rotate(2.887271851174067,0,0)"><path fill="rgb(255,127,0)" stroke="none" paint-order="stroke fill markers" d=" M 0 0 L 62.34258818642437 0 L 62.34258818642437 62.34258818642437 L 0 62.34258818642437 L 0 0 Z" fill-opacity="0.5882352941176471"/></g><g transform="translate(60,0)"><g transform="translate(0,284.10756771118065) rotate(2.5580428967038378,0,0)"><path fill="rgb(255,255,0)" stroke="none" paint-order="stroke fill markers" d=" M 0 0 L 70.36629457306549 0 L 70.36629457306549 70.36629457306549 L 0 70.36629457306549 L 0 0 Z" fill-opacity="0.5882352941176471"/></g><g transform="translate(60,0)"><g transform="translate(0,402.75447080133955) rotate(1.637625169452747,0,0)"><path fill="rgb(0,255,0)" stroke="none" paint-order="stroke fill markers" d=" M 0 0 L 109.91526226978512 0 L 109.91526226978512 109.91526226978512 L 0 109.91526226978512 L 0 0 Z" fill-opacity="0.5882352941176471"/></g><g transform="translate(60,0)"><g transform="translate(0,413.43917331531713) rotate(1.5862269007495406,0,0)"><path fill="rgb(0,0,255)" stroke="none" paint-order="stroke fill markers" d=" M 0 0 L 113.47682977444431 0 L 113.47682977444431 113.47682977444431 L 0 113.47682977444431 L 0 0 Z" fill-opacity="0.5882352941176471"/></g><g transform="translate(60,0)"><g transform="translate(0,428.21091184386665) rotate(1.5202607350345145,0,0)"><path fill="rgb(75,0,130)" stroke="none" paint-order="stroke fill markers" d=" M 0 0 L 118.40074261729416 0 L 118.40074261729416 118.40074261729416 L 0 118.40074261729416 L 0 0 Z" fill-opacity="0.5882352941176471"/></g><g transform="translate(60,0)"><g transform="translate(0,414.31913105848463) rotate(1.582137331690838,0,0)"><path fill="rgb(148,0,211)" stroke="none" paint-order="stroke fill markers" d=" M 0 0 L 113.77014902216682 0 L 113.77014902216682 113.77014902216682 L 0 113.77014902216682 L 0 0 Z" fill-opacity="0.5882352941176471"/></g><g transform="translate(60,0)"><g transform="translate(0,346.2226838606947) rotate(1.9764726560845711,0,0)"><path fill="rgb(255,0,0)" stroke="none" paint-order="stroke fill markers" d=" M 0 0 L 91.07133328957018 0 L 91.07133328957018 91.07133328957018 L 0 91.07133328957018 L 0 0 Z" fill-opacity="0.5882352941176471"/></g><g transform="translate(60,0)"><g transform="translate(0,217.4545087916827) rotate(3.738425812921988,0,0)"><path fill="rgb(255,127,0)" stroke="none" paint-order="stroke fill markers" d=" M 0 0 L 48.14860826656618 0 L 48.14860826656618 48.14860826656618 L 0 48.14860826656618 L 0 0 Z" fill-opacity="0.5882352941176471"/></g><g transform="translate(60,0)"><g transform="translate(0,340.35143956963327) rotate(2.0198789334433944,0,0)"><path fill="rgb(255,255,0)" stroke="none" paint-order="stroke fill markers" d=" M 0 0 L 89.11425185921637 0 L 89.11425185921637 89.11425185921637 L 0 89.11425185921637 L 0 0 Z" fill-opacity="0.5882352941176471"/></g><g transform="translate(60,0)"/></g></g></g></g></g></g></g></g></g></g></g></svg>