<svg version="1.1" xmlns="http://www.w3.org/2000/svg" xmlns:xlink="http://www.w3.org/1999/xlink" width="600" height="600" viewBox="0 0 600 600"><defs/><g transform="scale(1,1)"><g transform="scale(1,1)"><rect fill="rgb(0,0,0)" stroke="none" x="0" y="0" width="600" height="600" fill-opacity="1"/></g><g><g transform="translate(0,300) rotate(1.1096612965790476,0,0)"><path fill="rgb(255,0,0)" stroke="none" paint-order="stroke fill markers" d=" M 0 0 L 162.21165913862038 0 L 162.21165913862038 162.21165913862038 L 0 162.21165913862038 L 0 0 Z" fill-opacity="0.5882352941176471"/></g><g transform="translate(6,0)"><g transform="translate(0,264.0462069419283) rotate(1.1981862539246848,0,0)"><path fill="rgb(255,127,0)" stroke="none" paint-order="stroke fill markers" d=" M 0 0 L 150.22706145259647 0 L 150.22706145259647 150.22706145259647 L 0 150.22706145259647 L 0 0 Z" fill-opacity="0.5882352941176471"/></g><g transform="translate(6,0)"><g transform="translate(0,213.09444553265337) rotate(1.350913815692653,0,0)"><path fill="rgb(255,255,0)" stroke="none" paint-order="stroke fill markers" d=" M 0 0 L 133.24314098283816 0 L 133.24314098283816 133.24314098283816 L 0 133.24314098283816 L 0 0 Z" fill-opacity="0.5882352941176471"/></g><g transform="translate(6,0)"><g transform="translate(0,174.8291092641963) rotate(1.4939243479476567,0,0)"><path fill="rgb(0,255,0)" stroke="none" paint-order="stroke fill markers" d=" M 0 0 L 120.48802889335246 0 L 120.48802889335246 120.48802889335246 L 0 120.48802889335246 L 0 0 Z" fill-opacity="0.5882352941176471"/></g><g transform="translate(6,0)"><g transform="translate(0,139.1923579033895) rotate(1.6573195108719154,0,0)"><path fill="rgb(0,0,255)" stroke="none" paint-order="stroke fill markers" d=" M 0 0 L 108.60911177308354 0 L 108.60911177308354 108.60911177308354 L 0 108.60911177308354 L 0 0 Z" fill-opacity="0.5882352941176471"/></g><g transform="translate(6,0)"><g transform="translate(0,112.87868581972316) rotate(1.8029227587365846,0,0)"><path fill="rgb(75,0,130)" stroke="none" paint-order="stroke fill markers" d=" M 0 0 L 99.83788774519475 0 L 99.83788774519475 99.83788774519475 L 0 99.83788774519475 L 0 0 Z" fill-opacity="0.5882352941176471"/></g><g transform="translate(6,0)"><g transform="translate(0,90.33137833673578) rotate(1.949695292529901,0,0)"><path fill="rgb(148,0,211)" stroke="none" paint-order="stroke fill markers" d=" M 0 0 L 92.32211858419896 0 L 92.32211858419896 92.32211858419896 L 0 92.32211858419896 L 0 0 Z" fill-opacity="0.5882352941176471"/></g><g transform="translate(6,0)"><g transform="translate(0,72.57873730582645) rotate(2.0832231063845787,0,0)"><path fill="rgb(255,0,0)" stroke="none" paint-order="stroke fill markers" d=" M 0 0 L 86.40457157389585 0 L 86.40457157389585 86.40457157389585 L 0 86.40457157389585 L 0 0 Z" fill-opacity="0.5882352941176471"/></g><g transform="translate(6,0)"><g transform="translate(0,61.326887120998265) rotate(2.177754232525257,0,0)"><path fill="rgb(255,127,0)" stroke="none" paint-order="stroke fill markers" d=" M 0 0 L 82.6539548456198 0 L 82.6539548456198 82.6539548456198 L 0 82.6539548456198 L 0 0 Z" fill-opacity="0.5882352941176471"/></g><g transform="translate(6,0)"><g transform="translate(0,29.885261736550973) rotate(2.493993181024917,0,0)"><path fill="rgb(255,255,0)" stroke="none" paint-order="stroke fill markers" d=" M 0 0 L 72.17341305080403 0 L 72.17341305080403 72.17341305080403 L 0 72.17341305080403 L 0 0 Z" fill-opacity="0.5882352941176471"/></g><g transform="translate(6,0)"><g transform="translate(0,24.576186946294285) rotate(2.5566830315564357,0,0)"><path fill="rgb(0,255,0)" stroke="none" paint-order="stroke fill markers" d=" M 0 0 L 70.40372145405179 0 L 70.40372145405179 70.40372145405179 L 0 70.40372145405179 L 0 0 Z" fill-opacity="0.5882352941176471"/></g><g transform="translate(6,0)"><g transform="translate(0,27.391707460549924) rotate(2.5230498725512716,0,0)"><path fill="rgb(0,0,255)" stroke="none" paint-order="stroke fill markers" d=" M 0 0 L 71.34222829213701 0 L 71.34222829213701 71.34222829213701 L 0 71.34222829213701 L 0 0 Z" fill-opacity="0.5882352941176471"/></g><g transform="translate(6,0)"><g transform="translate(0,42.6000742644882) rotate(2.3556606899410335,0,0)"><path fill="rgb(75,0,130)" stroke="none" paint-order="stroke fill markers" d=" M 0 0 L 76.41168389344976 0 L 76.41168389344976 76.41168389344976 L 0 76.41168389344976 L 0 0 Z" fill-opacity="0.5882352941176471"/></g><g transform="translate(6,0)"><g transform="translate(0,45.387810241436455) rotate(2.327357607639777,0,0)"><path fill="rgb(148,0,211)" stroke="none" paint-order="stroke fill markers" d=" M 0 0 L 77.34092921909918 0 L 77.34092921909918 77.34092921909918 L 0 77.34092921909918 L 0 0 Z" fill-opacity="0.5882352941176471"/></g><g transform="translate(6,0)"><g transform="translate(0,44.62792658600108) rotate(2.3350048393219685,0,0)"><path fill="rgb(255,0,0)" stroke="none" paint-order="stroke fill markers" d=" M 0 0 L 77.08763466728739 0 L 77.08763466728739 77.08763466728739 L 0 77.08763466728739 L 0 0 Z" fill-opacity="0.5882352941176471"/></g><g transform="translate(6,0)"><g transform="translate(0,53.20558318408308) rotate(2.2514957380404224,0,0)"><path fill="rgb(255,127,0)" stroke="none" paint-order="stroke fill markers" d=" M 0 0 L 79.94685353331472 0 L 79.94685353331472 79.94685353331472 L 0 79.94685353331472 L 0 0 Z" fill-opacity="0.5882352941176471"/></g><g transform="translate(6,0)"><g transform="translate(0,63.017388124031356) rotate(2.1630077441173388,0,0)"><path fill="rgb(255,255,0)" stroke="none" paint-order="stroke fill markers" d=" M 0 0 L 83.21745517996415 0 L 83.21745517996415 83.21745517996415 L 0 83.21745517996415 L 0 0 Z" fill-opacity="0.5882352941176471"/></g><g transform="translate(6,0)"><g transform="translate(0,74.2431400594703) rotate(2.0699321400579422,0,0)"><path fill="rgb(0,255,0)" stroke="none" paint-order="stroke fill markers" d=" M 0 0 L 86.95937249177713 0 L 86.95937249177713 86.95937249177713 L 0 86.95937249177713 L 0 0 Z" fill-opacity="0.5882352941176471"/></g><g transform="translate(6,0)"><g transform="translate(0,48.15655991898973) rotate(2.2999125357311,0,0)"><path fill="rgb(0,0,255)" stroke="none" paint-order="stroke fill markers" d=" M 0 0 L 78.26384577828361 0 L 78.26384577828361 78.26384577828361 L 0 78.26384577828361 L 0 0 Z" fill-opacity="0.5882352941176471"/></g><g transform="translate(6,0)"><g transform="translate(0,42.79052517268073) rotate(2.3537052067330597,0,0)"><path fill="rgb(75,0,130)" stroke="none" paint-order="stroke fill markers" d=" M 0 0 L 76.47516752951394 0 L 76.47516752951394 76.47516752951394 L 0 76.47516752951394 L 0 0 Z" fill-opacity="0.5882352941176471"/></g><g transform="translate(6,0)"><g transform="translate(0,71.05138671932383) rotate(2.095570721455445,0,0)"><path fill="rgb(148,0,211)" stroke="none" paint-order="stroke fill markers" d=" M 0 0 L 85.8954547117283 0 L 85.8954547117283 85.8954547117283 L 0 85.8954547117283 L 0 0 Z" fill-opacity="0.5882352941176471"/></g><g transform="translate(6,0)"><g transform="translate(0,84.67442794634076) rotate(1.9903475122032444,0,0)"><path fill="rgb(255,0,0)" stroke="none" paint-order="stroke fill markers" d=" M 0 0 L 90.43646845406728 0 L 90.43646845406728 90.43646845406728 L 0 90.43646845406728 L 0 0 Z" fill-opacity="0.5882352941176471"/></g><g transform="translate(6,0)"><g transform="translate(0,91.11519107881492) rotate(1.9441932400136448,0,0)"><path fill="rgb(255,127,0)" stroke="none" paint-order="stroke fill markers" d=" M 0 0 L 92.58338949822534 0 L 92.58338949822534 92.58338949822534 L 0 92.58338949822534 L 0 0 Z" fill-opacity="0.5882352941176471"/></g><g transform="translate(6,0)"><g transform="translate(0,112.94123302298846) rotate(1.802546334400029,0,0)"><path fill="rgb(255,255,0)" stroke="none" paint-order="stroke fill markers" d=" M 0 0 L 99.85873681294986 0 L 99.85873681294986 99.85873681294986 L 0 99.85873681294986 L 0 0 Z" fill-opacity="0.5882352941176471"/></g><g transform="translate(6,0)"><g transform="translate(0,133.69387486809865) rotate(1.6857675983595442,0,0)"><path fill="rgb(0,255,0)" stroke="none" paint-order="stroke fill markers" d=" M 0 0 L 106.77628409465325 0 L 106.77628409465325 106.77628409465325 L 0 106.77628409465325 L 0 0 Z" fill-opacity="0.5882352941176471"/></g><g transform="translate(6,0)"><g transform="translate(0,136.16941205956584) rotate(1.6728397060446625,0,0)"><path fill="rgb(0,0,255)" stroke="none" paint-order="stroke fill markers" d=" M 0 0 L 107.60146315847565 0 L 107.60146315847565 107.60146315847565 L 0 107.60146315847565 L 0 0 Z" fill-opacity="0.5882352941176471"/></g><g transform="translate(6,0)"><g transform="translate(0,145.32913356486307) rotate(1.6266818675207804,0,0)"><path fill="rgb(75,0,130)" stroke="none" paint-order="stroke fill markers" d=" M 0 0 L 110.6547036602414 0 L 110.6547036602414 110.6547036602414 L 0 110.6547036602414 L 0 0 Z" fill-opacity="0.5882352941176471"/></g><g transform="translate(6,0)"><g transform="translate(0,141.18362199706473) rotate(1.6472524773367325,0,0)"><path fill="rgb(148,0,211)" stroke="none" paint-order="stroke fill markers" d=" M 0 0 L 109.27286647097527 0 L 109.27286647097527 109.27286647097527 L 0 109.27286647097527 L 0 0 Z" fill-opacity="0.5882352941176471"/></g><g transform="translate(6,0)"><g transform="translate(0,132.40990919976002) rotate(1.6925518090204692,0,0)"><path fill="rgb(255,0,0)" stroke="none" paint-order="stroke fill markers" d=" M 0 0 L 106.34829553854037 0 L 106.34829553854037 106.34829553854037 L 0 106.34829553854037 L 0 0 Z" fill-opacity="0.5882352941176471"/></g><g transform="translate(6,0)"><g transform="translate(0,145.07073564888742) rotate(1.6279490486031896,0,0)"><path fill="rgb(255,127,0)" stroke="none" paint-order="stroke fill markers" d=" M 0 0 L 110.56857102158284 0 L 110.56857102158284 110.56857102158284 L 0 110.56857102158284 L 0 0 Z" fill-opacity="0.5882352941176471"/></g><g transform="translate(6,0)"><g transform="translate(0,148.41048666709713) rotate(1.6117215658418655,0,0)"><path fill="rgb(255,255,0)" stroke="none" paint-order="stroke fill markers" d=" M 0 0 L 111.68182136098608 0 L 111.68182136098608 111.68182136098608 L 0 111.68182136098608 L 0 0 Z" fill-opacity="0.5882352941176471"/></g><g transform="translate(6,0)"><g transform="translate(0,132.4961650537274) rotate(1.6920943403430428,0,0)"><path fill="rgb(0,255,0)" stroke="none" paint-order="stroke fill markers" d=" M 0 0 L 106.37704748986283 0 L 106.37704748986283 106.37704748986283 L 0 106.37704748986283 L 0 0 Z" fill-opacity="0.5882352941176471"/></g><g transform="translate(6,0)"><g transform="translate(0,138.46835093133308) rotate(1.661010370903699,0,0)"><path fill="rgb(0,0,255)" stroke="none" paint-order="stroke fill markers" d=" M 0 0 L 108.36777611573139 0 L 108.36777611573139 108.36777611573139 L 0 108.36777611573139 L 0 0 Z" fill-opacity="0.5882352941176471"/></g><g transform="translate(6,0)"><g transform="translate(0,149.31608932108327) rotate(1.6073769470207682,0,0)"><path fill="rgb(75,0,130)" stroke="none" paint-order="stroke fill markers" d=" M 0 0 L 111.98368891231479 0 L 111.98368891231479 111.98368891231479 L 0 111.98368891231479 L 0 0 Z" fill-opacity="0.5882352941176471"/></g><g transform="translate(6,0)"><g transform="translate(0,130.20691566383533) rotate(1.704320078229591,0,0)"><path fill="rgb(148,0,211)" stroke="none" paint-order="stroke fill markers" d=" M 0 0 L 105.61396435989882 0 L 105.61396435989882 105.61396435989882 L 0 105.61396435989882 L 0 0 Z" fill-opacity="0.5882352941176471"/></g><g transform="translate(6,0)"><g transform="translate(0,107.68974182637663) rotate(1.8347082820303804,0,0)"><path fill="rgb(255,0,0)" stroke="none" paint-order="stroke fill markers" d=" M 0 0 L 98.10823974741258 0 L 98.10823974741258 98.10823974741258 L 0 98.10823974741258 L 0 0 Z" fill-opacity="0.5882352941176471"/></g><g transform="translate(6,0)"><g transform="translate(0,82.1961861951113) rotate(2.008695691179011,0,0)"><path fill="rgb(255,127,0)" stroke="none" paint-order="stroke fill markers" d=" M 0 0 L 89.61038787032413 0 L 89.61038787032413 89.61038787032413 L 0 89.61038787032413 L 0 0 Z" fill-opacity="0.5882352941176471"/></g><g transform="translate(6,0)"><g transform="translate(0,24.633902434513004) rotate(2.5559845841112114,0,0)"><path fill="rgb(255,255,0)" stroke="none" paint-order="stroke fill markers" d=" M 0 0 L 70.4229599501247 0 L 70.4229599501247 70.4229599501247 L 0 70.4229599501247 L 0 0 Z" fill-opacity="0.5882352941176471"/></g><g transform="translate(6,0)"><g transform="translate(0,15.989731006199577) rotate(2.665025426589129,0,0)"><path fill="rgb(0,255,0)" stroke="none" paint-order="stroke fill markers" d=" M 0 0 L 67.54156947402022 0 L 67.54156947402022 67.54156947402022 L 0 67.54156947402022 L 0 0 Z" fill-opacity="0.5882352941176471"/></g><g transform="translate(6,0)"><g transform="translate(0,34.361898035843666) rotate(2.4434734604110186,0,0)"><path fill="rgb(0,0,255)" stroke="none" paint-order="stroke fill markers" d=" M 0 0 L 73.66562515056826 0 L 73.66562515056826 73.66562515056826 L 0 73.66562515056826 L 0 0 Z" fill-opacity="0.5882352941176471"/></g><g transform="translate(6,0)"><g transform="translate(0,47.12708125140571) rotate(2.3100412576731597,0,0)"><path fill="rgb(75,0,130)" stroke="none" paint-order="stroke fill markers" d=" M 0 0 L 77.92068622242228 0 L 77.92068622242228 77.92068622242228 L 0 77.92068622242228 L 0 0 Z" fill-opacity="0.5882352941176471"/></g><g transform="translate(6,0)"><g transform="translate(0,55.88895525679396) rotate(2.2265843789068898,0,0)"><path fill="rgb(148,0,211)" stroke="none" paint-order="stroke fill markers" d=" M 0 0 L 80.84131089088503 0 L 80.84131089088503 80.84131089088503 L 0 80.84131089088503 L 0 0 Z" fill-opacity="0.5882352941176471"/></g><g transform="translate(6,0)"><g transform="translate(0,78.9571501169118) rotate(2.0331927945920247,0,0)"><path fill="rgb(255,0,0)" stroke="none" paint-order="stroke fill markers" d=" M 0 0 L 88.53070917759096 0 L 88.53070917759096 88.53070917759096 L 0 88.53070917759096 L 0 0 Z" fill-opacity="0.5882352941176471"/></g><g transform="translate(6,0)"><g transform="translate(0,67.13231190553662) rotate(2.1279338304161297,0,0)"><path fill="rgb(255,127,0)" stroke="none" paint-order="stroke fill markers" d=" M 0 0 L 84.58909644046591 0 L 84.58909644046591 84.58909644046591 L 0 84.58909644046591 L 0 0 Z" fill-opacity="0.5882352941176471"/></g><g transform="translate(6,0)"><g transform="translate(0,59.460230137788216) rotate(2.1942727181401076,0,0)"><path fill="rgb(255,255,0)" stroke="none" paint-order="stroke fill markers" d=" M 0 0 L 82.03173585121644 0 L 82.03173585121644 82.03173585121644 L 0 82.03173585121644 L 0 0 Z" fill-opacity="0.5882352941176471"/></g><g transform="translate(6,0)"><g transform="translate(0,66.43603322579946) rotate(2.1337884518295165,0,0)"><path fill="rgb(0,255,0)" stroke="none" paint-order="stroke fill markers" d=" M 0 0 L 84.35700354722019 0 L 84.35700354722019 84.35700354722019 L 0 84.35700354722019 L 0 0 Z" fill-opacity="0.5882352941176471"/></g><g transform="translate(6,0)"><g transform="translate(0,91.59166388268983) rotate(1.9408637414436287,0,0)"><path fill="rgb(0,0,255)" stroke="none" paint-order="stroke fill markers" d=" M 0 0 L 92.74221376618364 0 L 92.74221376618364 92.74221376618364 L 0 92.74221376618364 L 0 0 Z" fill-opacity="0.5882352941176471"/></g><g transform="translate(6,0)"><g transform="translate(0,121.39227636623201) rotate(1.7530916286453364,0,0)"><path fill="rgb(75,0,130)" stroke="none" paint-order="stroke fill markers" d=" M 0 0 L 102.67575126069771 0 L 102.67575126069771 102.67575126069771 L 0 102.67575126069771 L 0 0 Z" fill-opacity="0.5882352941176471"/></g><g transform="translate(6,0)"><g transform="translate(0,107.33445553417408) rotate(1.8369256782278505,0,0)"><path fill="rgb(148,0,211)" stroke="none" paint-order="stroke fill markers" d=" M 0 0 L 97.98981098334507 0 L 97.98981098334507 97.98981098334507 L 0 97.98981098334507 L 0 0 Z" fill-opacity="0.5882352941176471"/></g><g transform="translate(6,0)"><g transform="translate(0,104.40590609657198) rotate(1.8554094307404463,0,0)"><path fill="rgb(255,0,0)" stroke="none" paint-order="stroke fill markers" d=" M 0 0 L 97.0136278374777 0 L 97.0136278374777 97.0136278374777 L 0 97.0136278374777 L 0 0 Z" fill-opacity="0.5882352941176471"/></g><g transform="translate(6,0)"><g transform="translate(0,105.68203536918662) rotate(1.8473095180302879,0,0)"><path fill="rgb(255,127,0)" stroke="none" paint-order="stroke fill markers" d=" M 0 0 L 97.43900426168257 0 L 97.43900426168257 97.43900426168257 L 0 97.43900426168257 L 0 0 Z" fill-opacity="0.5882352941176471"/></g><g transform="translate(6,0)"><g transform="translate(0,123.70251335771496) rotate(1.7400411360353074,0,0)"><path fill="rgb(255,255,0)" stroke="none" paint-order="stroke fill markers" d=" M 0 0 L 103.44583025785869 0 L 103.44583025785869 103.44583025785869 L 0 103.44583025785869 L 0 0 Z" fill-opacity="0.5882352941176471"/></g><g transform="translate(6,0)"><g transform="translate(0,140.5605071754178) rotate(1.6503895237874355,0,0)"><path fill="rgb(0,255,0)" stroke="none" paint-order="stroke fill markers" d=" M 0 0 L 109.0651615304263 0 L 109.0651615304263 109.0651615304263 L 0 109.0651615304263 L 0 0 Z" fill-opacity="0.5882352941176471"/></g><g transform="translate(6,0)"><g transform="translate(0,144.55736312865326) rotate(1.6304724895273373,0,0)"><path fill="rgb(0,0,255)" stroke="none" paint-order="stroke fill markers" d=" M 0 0 L 110.39744684817146 0 L 110.39744684817146 110.39744684817146 L 0 110.39744684817146 L 0 0 Z" fill-opacity="0.5882352941176471"/></g><g transform="translate(6,0)"><g transform="translate(0,128.49460168112154) rotate(1.7135808118913913,0,0)"><path fill="rgb(75,0,130)" stroke="none" paint-order="stroke fill markers" d=" M 0 0 L 105.04319303232755 0 L 105.04319303232755 105.04319303232755 L 0 105.04319303232755 L 0 0 Z" fill-opacity="0.5882352941176471"/></g><g transform="translate(6,0)"><g transform="translate(0,111.92571981203281) rotate(1.808677448216881,0,0)"><path fill="rgb(148,0,211)" stroke="none" paint-order="stroke fill markers" d=" M 0 0 L 99.52023240929798 0 L 99.52023240929798 99.52023240929798 L 0 99.52023240929798 L 0 0 Z" fill-opacity="0.5882352941176471"/></g><g transform="translate(6,0)"><g transform="translate(0,110.64333380863656) rotate(1.8164796408312633,0,0)"><path fill="rgb(255,0,0)" stroke="none" paint-order="stroke fill markers" d=" M 0 0 L 99.09277040816589 0 L 99.09277040816589 99.09277040816589 L 0 99.09277040816589 L 0 0 Z" fill-opacity="0.5882352941176471"/></g><g transform="translate(6,0)"><g transform="translate(0,126.77275101195369) rotate(1.72299516259177,0,0)"><path fill="rgb(255,127,0)" stroke="none" paint-order="stroke fill markers" d=" M 0 0 L 104.46924280927159 0 L 104.46924280927159 104.46924280927159 L 0 104.46924280927159 L 0 0 Z" fill-opacity="0.5882352941176471"/></g><g transform="translate(6,0)"><g transform="translate(0,148.22256963388014) rotate(1.6126260398120458,0,0)"><path fill="rgb(255,255,0)" stroke="none" paint-order="stroke fill markers" d=" M 0 0 L 111.61918234991374 0 L 111.61918234991374 111.61918234991374 L 0 111.61918234991374 L 0 0 Z" fill-opacity="0.5882352941176471"/></g><g transform="translate(6,0)"><g transform="translate(0,133.55154916145352) rotate(1.6865169367756252,0,0)"><path fill="rgb(0,255,0)" stroke="none" paint-order="stroke fill markers" d=" M 0 0 L 106.72884219243821 0 L 106.72884219243821 106.72884219243821 L 0 106.72884219243821 L 0 0 Z" fill-opacity="0.5882352941176471"/></g><g transform="translate(6,0)"><g transform="translate(0,127.62806377618136) rotate(1.7183057796160393,0,0)"><path fill="rgb(0,0,255)" stroke="none" paint-order="stroke fill markers" d=" M 0 0 L 104.75434706401415 0 L 104.75434706401415 104.75434706401415 L 0 104.75434706401415 L 0 0 Z" fill-opacity="0.5882352941176471"/></g><g transform="translate(6,0)"><g transform="translate(0,114.53798719786488) rotate(1.7929896220684525,0,0)"><path fill="rgb(75,0,130)" stroke="none" paint-order="stroke fill markers" d=" M 0 0 L 100.39098820457532 0 L 100.39098820457532 100.39098820457532 L 0 100.39098820457532 L 0 0 Z" fill-opacity="0.5882352941176471"/></g><g transform="translate(6,0)"><g transform="translate(0,110.11826741120979) rotate(1.8196936660782868,0,0)"><path fill="rgb(148,0,211)" stroke="none" paint-order="stroke fill markers" d=" M 0 0 L 98.9177482756903 0 L 98.9177482756903 98.9177482756903 L 0 98.9177482756903 L 0 0 Z" fill-opacity="0.5882352941176471"/></g><g transform="translate(6,0)"><g transform="translate(0,110.71327868727622) rotate(1.8160523524735157,0,0)"><path fill="rgb(255,0,0)" stroke="none" paint-order="stroke fill markers" d=" M 0 0 L 99.11608536771244 0 L 99.11608536771244 99.11608536771244 L 0 99.11608536771244 L 0 0 Z" fill-opacity="0.5882352941176471"/></g><g transform="translate(6,0)"><g transform="translate(0,115.52107749679976) rotate(1.787155978575669,0,0)"><path fill="rgb(255,127,0)" stroke="none" paint-order="stroke fill markers" d=" M 0 0 L 100.71868497088695 0 L 100.71868497088695 100.71868497088695 L 0 100.71868497088695 L 0 0 Z" fill-opacity="0.5882352941176471"/></g><g transform="translate(6,0)"><g transform="translate(0,132.5207953792132) rotate(1.6919637557260379,0,0)"><path fill="rgb(255,255,0)" stroke="none" paint-order="stroke fill markers" d=" M 0 0 L 106.38525759835811 0 L 106.38525759835811 106.38525759835811 L 0 106.38525759835811 L 0 0 Z" fill-opacity="0.5882352941176471"/></g><g transform="translate(6,0)"><g transform="translate(0,141.95892189863196) rotate(1.6433658723626297,0,0)"><path fill="rgb(0,255,0)" stroke="none" paint-order="stroke fill markers" d=" M 0 0 L 109.53129977149769 0 L 109.53129977149769 109.53129977149769 L 0 109.53129977149769 L 0 0 Z" fill-opacity="0.5882352941176471"/></g><g transform="translate(6,0)"><g transform="translate(0,142.29544422347425) rotate(1.6416845766613146,0,0)"><path fill="rgb(0,0,255)" stroke="none" paint-order="stroke fill markers" d=" M 0 0 L 109.64347387977845 0 L 109.64347387977845 109.64347387977845 L 0 109.64347387977845 L 0 0 Z" fill-opacity="0.5882352941176471"/></g><g transform="translate(6,0)"><g transform="translate(0,118.5725499109106) rotate(1.769287948857981,0,0)"><path fill="rgb(75,0,130)" stroke="none" paint-order="stroke fill markers" d=" M 0 0 L 101.73584244225724 0 L 101.73584244225724 101.73584244225724 L 0 101.73584244225724 L 0 0 Z" fill-opacity="0.5882352941176471"/></g><g transform="translate(6,0)"><g transform="translate(0,90.91655558360338) rotate(1.9455846421177643,0,0)"><path fill="rgb(148,0,211)" stroke="none" paint-order="stroke fill markers" d=" M 0 0 L 92.51717766648817 0 L 92.51717766648817 92.51717766648817 L 0 92.51717766648817 L 0 0 Z" fill-opacity="0.5882352941176471"/></g><g transform="translate(6,0)"><g transform="translate(0,63.40916642681964) rotate(2.1596186645336894,0,0)"><path fill="rgb(255,0,0)" stroke="none" paint-order="stroke fill markers" d=" M 0 0 L 83.34804794756025 0 L 83.34804794756025 83.34804794756025 L 0 83.34804794756025 L 0 0 Z" fill-opacity="0.5882352941176471"/></g><g transform="translate(6,0)"><g transform="translate(0,40.55343426363757) rotate(2.376881796074149,0,0)"><path fill="rgb(255,127,0)" stroke="none" paint-order="stroke fill markers" d=" M 0 0 L 75.72947055983289 0 L 75.72947055983289 75.72947055983289 L 0 75.72947055983289 L 0 0 Z" fill-opacity="0.5882352941176471"/></g><g transform="translate(6,0)"><g transform="translate(0,-3.4704826387742855) rotate(2.9481696256536285,0,0)"><path fill="rgb(255,255,0)" stroke="none" paint-order="stroke fill markers" d=" M 0 0 L 61.05483159236227 0 L 61.05483159236227 61.05483159236227 L 0 61.05483159236227 L 0 0 Z" fill-opacity="0.5882352941176471"/></g><g transform="translate(6,0)"><g transform="translate(0,-48.10912045588432) rotate(3.898189203449707,0,0)"><path fill="rgb(0,255,0)" stroke="none" paint-order="stroke fill markers" d=" M 0 0 L 46.175285653325595 0 L 46.175285653325595 46.175285653325595 L 0 46.175285653325595 L 0 0 Z" fill-opacity="0.5882352941176471"/></g><g transform="translate(6,0)"><g transform="translate(0,-105.5254276428608) rotate(6.657662402408686,0,0)"><path fill="rgb(0,0,255)" stroke="none" paint-order="stroke fill markers" d=" M 0 0 L 27.036516591000098 0 L 27.036516591000098 27.036516591000098 L 0 27.036516591000098 L 0 0 Z" fill-opacity="0.5882352941176471"/></g><g transform="translate(6,0)"><g transform="translate(0,-137.57895519111668) rotate(11.007822801572724,0,0)"><path fill="rgb(75,0,130)" stroke="none" paint-order="stroke fill markers" d=" M 0 0 L 16.35200740824814 0 L 16.35200740824814 16.35200740824814 L 0 16.35200740824814 L 0 0 Z" fill-opacity="0.5882352941176471"/></g><g transform="translate(6,0)"><g transform="translate(0,-128.71491212496352) rotate(9.323193910226193,0,0)"><path fill="rgb(148,0,211)" stroke="none" paint-order="stroke fill markers" d=" M 0 0 L 19.3066884302992 0 L 19.3066884302992 19.3066884302992 L 0 19.3066884302992 L 0 0 Z" fill-opacity="0.5882352941176471"/></g><g transform="translate(6,0)"><g transform="translate(0,-109.67730557999644) rotate(7.016844287489779,0,0)"><path fill="rgb(255,0,0)" stroke="none" paint-order="stroke fill markers" d=" M 0 0 L 25.652557278621554 0 L 25.652557278621554 25.652557278621554 L 0 25.652557278621554 L 0 0 Z" fill-opacity="0.5882352941176471"/></g><g transform="translate(6,0)"><g transform="translate(0,-84.58939550156276) rotate(5.29175286053552,0,0)"><path fill="rgb(255,127,0)" stroke="none" paint-order="stroke fill markers" d=" M 0 0 L 34.01519397143278 0 L 34.01519397143278 34.01519397143278 L 0 34.01519397143278 L 0 0 Z" fill-opacity="0.5882352941176471"/></g><g transform="translate(6,0)"><g transform="translate(0,-68.93563447633267) rotate(4.587961041358074,0,0)"><path fill="rgb(255,255,0)" stroke="none" paint-order="stroke fill markers" d=" M 0 0 L 39.233114313176145 0 L 39.233114313176145 39.233114313176145 L 0 39.233114313176145 L 0 0 Z" fill-opacity="0.5882352941176471"/></g><g transform="translate(6,0)"><g transform="translate(0,-60.72485013196486) rotate(4.288773362784657,0,0)"><path fill="rgb(0,255,0)" stroke="none" paint-order="stroke fill markers" d=" M 0 0 L 41.97004242796542 0 L 41.97004242796542 41.97004242796542 L 0 41.97004242796542 L 0 0 Z" fill-opacity="0.5882352941176471"/></g><g transform="translate(6,0)"><g transform="translate(0,-66.6509949814611) rotate(4.5006007388964555,0,0)"><path fill="rgb(0,0,255)" stroke="none" paint-order="stroke fill markers" d=" M 0 0 L 39.994660811466666 0 L 39.994660811466666 39.994660811466666 L 0 39.994660811466666 L 0 0 Z" fill-opacity="0.5882352941176471"/></g><g transform="translate(6,0)"><g transform="translate(0,-55.2768526316234) rotate(4.110899123194527,0,0)"><path fill="rgb(75,0,130)" stroke="none" paint-order="stroke fill markers" d=" M 0 0 L 43.7860415947459 0 L 43.7860415947459 43.7860415947459 L 0 43.7860415947459 L 0 0 Z" fill-opacity="0.5882352941176471"/></g><g transform="translate(6,0)"><g transform="translate(0,-26.724239513483695) rotate(3.376883923390186,0,0)"><path fill="rgb(148,0,211)" stroke="none" paint-order="stroke fill markers" d=" M 0 0 L 53.30357930079247 0 L 53.30357930079247 53.30357930079247 L 0 53.30357930079247 L 0 0 Z" fill-opacity="0.5882352941176471"/></g><g transform="translate(6,0)"><g transform="translate(0,1.031486839001218) rotate(2.877445377063468,0,0)"><path fill="rgb(255,0,0)" stroke="none" paint-order="stroke fill markers" d=" M 0 0 L 62.555488084954106 0 L 62.555488084954106 62.555488084954106 L 0 62.555488084954106 L 0 0 Z" fill-opacity="0.5882352941176471"/></g><g transform="translate(6,0)"><g transform="translate(0,-10.614451328173885) rotate(3.067824031675664,0,0)"><path fill="rgb(255,127,0)" stroke="none" paint-order="stroke fill markers" d=" M 0 0 L 58.67350869589574 0 L 58.67350869589574 58.67350869589574 L 0 58.67350869589574 L 0 0 Z" fill-opacity="0.5882352941176471"/></g><g transform="translate(6,0)"><g transform="translate(0,-40.04876252962845) rotate(3.6838388958955015,0,0)"><path fill="rgb(255,255,0)" stroke="none" paint-order="stroke fill markers" d=" M 0 0 L 48.86207162874422 0 L 48.86207162874422 48.86207162874422 L 0 48.86207162874422 L 0 0 Z" fill-opacity="0.5882352941176471"/></g><g transform="translate(6,0)"><g transform="translate(0,-49.30555563015011) rotate(3.932150831033256,0,0)"><path fill="rgb(0,255,0)" stroke="none" paint-order="stroke fill markers" d=" M 0 0 L 45.77647392857033 0 L 45.77647392857033 45.77647392857033 L 0 45.77647392857033 L 0 0 Z" fill-opacity="0.5882352941176471"/></g><g transform="translate(6,0)"><g transform="translate(0,-49.14887424272263) rotate(3.9276696883318394,0,0)"><path fill="rgb(0,0,255)" stroke="none" paint-order="stroke fill markers" d=" M 0 0 L 45.82870105771283 0 L 45.82870105771283 45.82870105771283 L 0 45.82870105771283 L 0 0 Z" fill-opacity="0.5882352941176471"/></g><g transform="translate(6,0)"><g transform="translate(0,-44.16336486484795) rotate(3.790228736315092,0,0)"><path fill="rgb(75,0,130)" stroke="none" paint-order="stroke fill markers" d=" M 0 0 L 47.490537517004384 0 L 47.490537517004384 47.490537517004384 L 0 47.490537517004384 L 0 0 Z" fill-opacity="0.5882352941176471"/></g><g transform="translate(6,0)"><g transform="translate(0,-31.56401974804868) rotate(3.4822768113470293,0,0)"><path fill="rgb(148,0,211)" stroke="none" paint-order="stroke fill markers" d=" M 0 0 L 51.69031922260414 0 L 51.69031922260414 51.69031922260414 L 0 51.69031922260414 L 0 0 Z" fill-opacity="0.5882352941176471"/></g><g transform="translate(6,0)"><g transform="translate(0,-11.597559628363882) rotate(3.085054651889247,0,0)"><path fill="rgb(255,0,0)" stroke="none" paint-order="stroke fill markers" d=" M 0 0 L 58.34580592916574 0 L 58.34580592916574 58.34580592916574 L 0 58.34580592916574 L 0 0 Z" fill-opacity="0.5882352941176471"/></g><g transform="translate(6,0)"><g transform="translate(0,26.022220246059874) rotate(2.5392980154778653,0,0)"><path fill="rgb(255,127,0)" stroke="none" paint-order="stroke fill markers" d=" M 0 0 L 70.88573255397365 0 L 70.88573255397365 70.88573255397365 L 0 70.88573255397365 L 0 0 Z" fill-opacity="0.5882352941176471"/></g><g transform="translate(6,0)"><g transform="translate(0,51.56338005988184) rotate(2.267018151269121,0,0)"><path fill="rgb(255,255,0)" stroke="none" paint-order="stroke fill markers" d=" M 0 0 L 79.39945249191432 0 L 79.39945249191432 79.39945249191432 L 0 79.39945249191432 L 0 0 Z" fill-opacity="0.5882352941176471"/></g><g transform="translate(6,0)"><g transform="translate(0,67.05240172876935) rotate(2.128604118268489,0,0)"><path fill="rgb(0,255,0)" stroke="none" paint-order="stroke fill markers" d=" M 0 0 L 84.56245971487682 0 L 84.56245971487682 84.56245971487682 L 0 84.56245971487682 L 0 0 Z" fill-opacity="0.5882352941176471"/></g><g transform="translate(6,0)"><g transform="translate(0,87.53558651662814) rotate(1.9695768657825996,0,0)"><path fill="rgb(0,0,255)" stroke="none" paint-order="stroke fill markers" d=" M 0 0 L 91.39018797749641 0 L 91.39018797749641 91.39018797749641 L 0 91.39018797749641 L 0 0 Z" fill-opacity="0.5882352941176471"/></g><g transform="translate(6,0)"><g transform="translate(0,64.04762646817238) rotate(2.1541183617583832,0,0)"><path fill="rgb(75,0,130)" stroke="none" paint-order="stroke fill markers" d=" M 0 0 L 83.5608679613445 0 L 83.5608679613445 83.5608679613445 L 0 83.5608679613445 L 0 0 Z" fill-opacity="0.5882352941176471"/></g><g transform="translate(6,0)"><g transform="translate(0,48.98569867668354) rotate(2.291819245047512,0,0)"><path fill="rgb(148,0,211)" stroke="none" paint-order="stroke fill markers" d=" M 0 0 L 78.54022536418155 0 L 78.54022536418155 78.54022536418155 L 0 78.54022536418155 L 0 0 Z" fill-opacity="0.5882352941176471"/></g><g transform="translate(6,0)"><g transform="translate(0,43.234127394482186) rotate(2.349163017994673,0,0)"><path fill="rgb(255,0,0)" stroke="none" paint-order="stroke fill markers" d=" M 0 0 L 76.6230349367811 0 L 76.6230349367811 76.6230349367811 L 0 76.6230349367811 L 0 0 Z" fill-opacity="0.5882352941176471"/></g><g transform="translate(6,0)"><g transform="translate(0,47.66588655703518) rotate(2.3047290173990427,0,0)"><path fill="rgb(255,127,0)" stroke="none" paint-order="stroke fill markers" d=" M 0 0 L 78.10028799096543 0 L 78.10028799096543 78.10028799096543 L 0 78.10028799096543 L 0 0 Z" fill-opacity="0.5882352941176471"/></g><g transform="translate(6,0)"/></g></g></g></g></g></g></g></g></g></g></g></g></g></g></g></g></g></g></g></g></g></g></g></g></g></g></g></g></g></g></g></g></g></g></g></g></g></g></g></g></g></g></g></g></g></g></g></g></g></g></g></g></g></g></g></g></g></g></g></g></g></g></g></g></g></g></g></g></g></g></g></g></g></g></g></g></g></g></g></g></g></g></g></g></g></g></g></g></g></g></g></g></g></g></g></g></g></g></g></g></g></svg>