<svg version="1.1" xmlns="http://www.w3.org/2000/svg" xmlns:xlink="http://www.w3.org/1999/xlink" width="600" height="600" viewBox="0 0 600 600"><defs/><g transform="scale(1,1)"><g transform="scale(1,1)"><rect fill="rgb(0,0,0)" stroke="none" x="0" y="0" width="600" height="600" fill-opacity="1"/></g><g><g transform="translate(0,300) rotate(1.0134858714228185,0,0)"><path fill="rgb(255,0,0)" stroke="none" paint-order="stroke fill markers" d=" M 0 0 L 177.6048439109472 0 L 177.6048439109472 177.6048439109472 L 0 177.6048439109472 L 0 0 Z" fill-opacity="0.5882352941176471"/></g><g transform="translate(60,0)"><g transform="translate(0,149.0421507008233) rotate(1.4141431192416212,0,0)"><path fill="rgb(255,127,0)" stroke="none" paint-order="stroke fill markers" d=" M 0 0 L 127.28556081122163 0 L 127.28556081122163 127.28556081122163 L 0 127.28556081122163 L 0 0 Z" fill-opacity="0.5882352941176471"/></g><g transform="translate(60,0)"><g transform="translate(0,56.81584765012053) rotate(1.8644453014577866,0,0)"><path fill="rgb(255,255,0)" stroke="none" paint-order="stroke fill markers" d=" M 0 0 L 96.54345979432071 0 L 96.54345979432071 96.54345979432071 L 0 96.54345979432071 L 0 0 Z" fill-opacity="0.5882352941176471"/></g><g transform="translate(60,0)"><g transform="translate(0,40.144423630694234) rotate(1.97831941172551,0,0)"><path fill="rgb(0,255,0)" stroke="none" paint-order="stroke fill markers" d=" M 0 0 L 90.98631845451195 0 L 90.98631845451195 90.98631845451195 L 0 90.98631845451195 L 0 0 Z" fill-opacity="0.5882352941176471"/></g><g transform="translate(60,0)"><g transform="translate(0,-95.3152290293427) rotate(3.9272926435448667,0,0)"><path fill="rgb(0,0,255)" stroke="none" paint-order="stroke fill markers" d=" M 0 0 L 45.8331009011663 0 L 45.8331009011663 45.8331009011663 L 0 45.8331009011663 L 0 0 Z" fill-opacity="0.5882352941176471"/></g><g transform="translate(60,0)"><g transform="translate(0,28.260357257673604) rotate(2.068372037188219,0,0)"><path fill="rgb(75,0,130)" stroke="none" paint-order="stroke fill markers" d=" M 0 0 L 87.0249629968384 0 L 87.0249629968384 87.0249629968384 L 0 87.0249629968384 L 0 0 Z" fill-opacity="0.5882352941176471"/></g><g transform="translate(60,0)"><g transform="translate(0,90.3035376642066) rotate(1.6712157293080592,0,0)"><path fill="rgb(148,0,211)" stroke="none" paint-order="stroke fill markers" d=" M 0 0 L 107.7060231323494 0 L 107.7060231323494 107.7060231323494 L 0 107.7060231323494 L 0 0 Z" fill-opacity="0.5882352941176471"/></g><g transform="translate(60,0)"><g transform="translate(0,81.4738198526008) rotate(1.7181674003377616,0,0)"><path fill="rgb(255,0,0)" stroke="none" paint-order="stroke fill markers" d=" M 0 0 L 104.76278386181413 0 L 104.76278386181413 104.76278386181413 L 0 104.76278386181413 L 0 0 Z" fill-opacity="0.5882352941176471"/></g><g transform="translate(60,0)"><g transform="translate(0,33.370831966487685) rotate(2.028661503004196,0,0)"><path fill="rgb(255,127,0)" stroke="none" paint-order="stroke fill markers" d=" M 0 0 L 88.72845456644309 0 L 88.72845456644309 88.72845456644309 L 0 88.72845456644309 L 0 0 Z" fill-opacity="0.5882352941176471"/></g><g transform="translate(60,0)"><g transform="translate(0,110.25631535806559) rotate(1.5740189076949178,0,0)"><path fill="rgb(255,255,0)" stroke="none" paint-order="stroke fill markers" d=" M 0 0 L 114.3569490303024 0 L 114.3569490303024 114.3569490303024 L 0 114.3569490303024 L 0 0 Z" fill-opacity="0.5882352941176471"/></g><g transform="translate(60,0)"/></g></g></g></g></g></g></g></g></g></g></g></svg>