<svg version="1.1" xmlns="http://www.w3.org/2000/svg" xmlns:xlink="http://www.w3.org/1999/xlink" width="600" height="600" viewBox="0 0 600 600"><defs/><g transform="scale(1,1)"><g transform="scale(1,1)"><rect fill="rgb(0,0,0)" stroke="none" x="0" y="0" width="600" height="600" fill-opacity="1"/></g><g><g transform="translate(0,300)"><path fill="rgb(255,0,0)" stroke="none" paint-order="stroke fill markers" d=" M 0 0 L 508.2950273947632 0 L 508.2950273947632 508.2950273947632 L 0 508.2950273947632 L 0 0 Z" fill-opacity="0.5882352941176471"/></g><g transform="translate(6,0)"><g transform="translate(0,300.40522313833316)"><path fill="rgb(255,127,0)" stroke="none" paint-order="stroke fill markers" d=" M 0 0 L 508.7002505330964 0 L 508.7002505330964 508.7002505330964 L 0 508.7002505330964 L 0 0 Z" fill-opacity="0.5882352941176471"/></g><g transform="translate(6,0)"><g transform="translate(0,301.48827907449936)"><path fill="rgb(255,255,0)" stroke="none" paint-order="stroke fill markers" d=" M 0 0 L 509.7833064692626 0 L 509.7833064692626 509.7833064692626 L 0 509.7833064692626 L 0 0 Z" fill-opacity="0.5882352941176471"/></g><g transform="translate(6,0)"><g transform="translate(0,302.9158863607986)"><path fill="rgb(0,255,0)" stroke="none" paint-order="stroke fill markers" d=" M 0 0 L 511.2109137555618 0 L 511.2109137555618 511.2109137555618 L 0 511.2109137555618 L 0 0 Z" fill-opacity="0.5882352941176471"/></g><g transform="translate(6,0)"><g transform="translate(0,304.31368461051795)"><path fill="rgb(0,0,255)" stroke="none" paint-order="stroke fill markers" d=" M 0 0 L 512.6087120052812 0 L 512.6087120052812 512.6087120052812 L 0 512.6087120052812 L 0 0 Z" fill-opacity="0.5882352941176471"/></g><g transform="translate(6,0)"><g transform="translate(0,305.54789431422034)"><path fill="rgb(75,0,130)" stroke="none" paint-order="stroke fill markers" d=" M 0 0 L 513.8429217089836 0 L 513.8429217089836 513.8429217089836 L 0 513.8429217089836 L 0 0 Z" fill-opacity="0.5882352941176471"/></g><g transform="translate(6,0)"><g transform="translate(0,306.7358804128421)"><path fill="rgb(148,0,211)" stroke="none" paint-order="stroke fill markers" d=" M 0 0 L 515.0309078076053 0 L 515.0309078076053 515.0309078076053 L 0 515.0309078076053 L 0 0 Z" fill-opacity="0.5882352941176471"/></g><g transform="translate(6,0)"><g transform="translate(0,307.85740829595045)"><path fill="rgb(255,0,0)" stroke="none" paint-order="stroke fill markers" d=" M 0 0 L 516.1524356907137 0 L 516.1524356907137 516.1524356907137 L 0 516.1524356907137 L 0 0 Z" fill-opacity="0.5882352941176471"/></g><g transform="translate(6,0)"><g transform="translate(0,308.9163511265872)"><path fill="rgb(255,127,0)" stroke="none" paint-order="stroke fill markers" d=" M 0 0 L 517.2113785213504 0 L 517.2113785213504 517.2113785213504 L 0 517.2113785213504 L 0 0 Z" fill-opacity="0.5882352941176471"/></g><g transform="translate(6,0)"><g transform="translate(0,309.2832207257934)"><path fill="rgb(255,255,0)" stroke="none" paint-order="stroke fill markers" d=" M 0 0 L 517.5782481205566 0 L 517.5782481205566 517.5782481205566 L 0 517.5782481205566 L 0 0 Z" fill-opacity="0.5882352941176471"/></g><g transform="translate(6,0)"><g transform="translate(0,307.32409002140855)"><path fill="rgb(0,255,0)" stroke="none" paint-order="stroke fill markers" d=" M 0 0 L 515.6191174161718 0 L 515.6191174161718 515.6191174161718 L 0 515.6191174161718 L 0 0 Z" fill-opacity="0.5882352941176471"/></g><g transform="translate(6,0)"><g transform="translate(0,304.4523721795184)"><path fill="rgb(0,0,255)" stroke="none" paint-order="stroke fill markers" d=" M 0 0 L 512.7473995742816 0 L 512.7473995742816 512.7473995742816 L 0 512.7473995742816 L 0 0 Z" fill-opacity="0.5882352941176471"/></g><g transform="translate(6,0)"><g transform="translate(0,302.7172549054727)"><path fill="rgb(75,0,130)" stroke="none" paint-order="stroke fill markers" d=" M 0 0 L 511.01228230023594 0 L 511.01228230023594 511.01228230023594 L 0 511.01228230023594 L 0 0 Z" fill-opacity="0.5882352941176471"/></g><g transform="translate(6,0)"><g transform="translate(0,302.52960753889255)"><path fill="rgb(148,0,211)" stroke="none" paint-order="stroke fill markers" d=" M 0 0 L 510.8246349336558 0 L 510.8246349336558 510.8246349336558 L 0 510.8246349336558 L 0 0 Z" fill-opacity="0.5882352941176471"/></g><g transform="translate(6,0)"><g transform="translate(0,298.7241566663137)"><path fill="rgb(255,0,0)" stroke="none" paint-order="stroke fill markers" d=" M 0 0 L 507.01918406107694 0 L 507.01918406107694 507.01918406107694 L 0 507.01918406107694 L 0 0 Z" fill-opacity="0.5882352941176471"/></g><g transform="translate(6,0)"><g transform="translate(0,292.7775759662467)"><path fill="rgb(255,127,0)" stroke="none" paint-order="stroke fill markers" d=" M 0 0 L 501.0726033610099 0 L 501.0726033610099 501.0726033610099 L 0 501.0726033610099 L 0 0 Z" fill-opacity="0.5882352941176471"/></g><g transform="translate(6,0)"><g transform="translate(0,288.29552999963903)"><path fill="rgb(255,255,0)" stroke="none" paint-order="stroke fill markers" d=" M 0 0 L 496.59055739440225 0 L 496.59055739440225 496.59055739440225 L 0 496.59055739440225 L 0 0 Z" fill-opacity="0.5882352941176471"/></g><g transform="translate(6,0)"><g transform="translate(0,287.76551336819057)"><path fill="rgb(0,255,0)" stroke="none" paint-order="stroke fill markers" d=" M 0 0 L 496.0605407629538 0 L 496.0605407629538 496.0605407629538 L 0 496.0605407629538 L 0 0 Z" fill-opacity="0.5882352941176471"/></g><g transform="translate(6,0)"><g transform="translate(0,288.10297391424683)"><path fill="rgb(0,0,255)" stroke="none" paint-order="stroke fill markers" d=" M 0 0 L 496.39800130901006 0 L 496.39800130901006 496.39800130901006 L 0 496.39800130901006 L 0 0 Z" fill-opacity="0.5882352941176471"/></g><g transform="translate(6,0)"><g transform="translate(0,287.7851492286786)"><path fill="rgb(75,0,130)" stroke="none" paint-order="stroke fill markers" d=" M 0 0 L 496.08017662344184 0 L 496.08017662344184 496.08017662344184 L 0 496.08017662344184 L 0 0 Z" fill-opacity="0.5882352941176471"/></g><g transform="translate(6,0)"><g transform="translate(0,286.2770142298325)"><path fill="rgb(148,0,211)" stroke="none" paint-order="stroke fill markers" d=" M 0 0 L 494.5720416245957 0 L 494.5720416245957 494.5720416245957 L 0 494.5720416245957 L 0 0 Z" fill-opacity="0.5882352941176471"/></g><g transform="translate(6,0)"><g transform="translate(0,283.2942533684614)"><path fill="rgb(255,0,0)" stroke="none" paint-order="stroke fill markers" d=" M 0 0 L 491.5892807632246 0 L 491.5892807632246 491.5892807632246 L 0 491.5892807632246 L 0 0 Z" fill-opacity="0.5882352941176471"/></g><g transform="translate(6,0)"><g transform="translate(0,279.0001540371261)"><path fill="rgb(255,127,0)" stroke="none" paint-order="stroke fill markers" d=" M 0 0 L 487.2951814318893 0 L 487.2951814318893 487.2951814318893 L 0 487.2951814318893 L 0 0 Z" fill-opacity="0.5882352941176471"/></g><g transform="translate(6,0)"><g transform="translate(0,274.352206621763)"><path fill="rgb(255,255,0)" stroke="none" paint-order="stroke fill markers" d=" M 0 0 L 482.6472340165262 0 L 482.6472340165262 482.6472340165262 L 0 482.6472340165262 L 0 0 Z" fill-opacity="0.5882352941176471"/></g><g transform="translate(6,0)"><g transform="translate(0,270.8116722939046)"><path fill="rgb(0,255,0)" stroke="none" paint-order="stroke fill markers" d=" M 0 0 L 479.10669968866785 0 L 479.10669968866785 479.10669968866785 L 0 479.10669968866785 L 0 0 Z" fill-opacity="0.5882352941176471"/></g><g transform="translate(6,0)"><g transform="translate(0,269.6422928635339)"><path fill="rgb(0,0,255)" stroke="none" paint-order="stroke fill markers" d=" M 0 0 L 477.9373202582971 0 L 477.9373202582971 477.9373202582971 L 0 477.9373202582971 L 0 0 Z" fill-opacity="0.5882352941176471"/></g><g transform="translate(6,0)"><g transform="translate(0,272.7967468593732)"><path fill="rgb(75,0,130)" stroke="none" paint-order="stroke fill markers" d=" M 0 0 L 481.0917742541364 0 L 481.0917742541364 481.0917742541364 L 0 481.0917742541364 L 0 0 Z" fill-opacity="0.5882352941176471"/></g><g transform="translate(6,0)"><g transform="translate(0,279.64398722223007)"><path fill="rgb(148,0,211)" stroke="none" paint-order="stroke fill markers" d=" M 0 0 L 487.9390146169933 0 L 487.9390146169933 487.9390146169933 L 0 487.9390146169933 L 0 0 Z" fill-opacity="0.5882352941176471"/></g><g transform="translate(6,0)"><g transform="translate(0,285.1280623821746)"><path fill="rgb(255,0,0)" stroke="none" paint-order="stroke fill markers" d=" M 0 0 L 493.42308977693784 0 L 493.42308977693784 493.42308977693784 L 0 493.42308977693784 L 0 0 Z" fill-opacity="0.5882352941176471"/></g><g transform="translate(6,0)"><g transform="translate(0,284.168747431655)"><path fill="rgb(255,127,0)" stroke="none" paint-order="stroke fill markers" d=" M 0 0 L 492.4637748264182 0 L 492.4637748264182 492.4637748264182 L 0 492.4637748264182 L 0 0 Z" fill-opacity="0.5882352941176471"/></g><g transform="translate(6,0)"><g transform="translate(0,277.18150589252656)"><path fill="rgb(255,255,0)" stroke="none" paint-order="stroke fill markers" d=" M 0 0 L 485.4765332872898 0 L 485.4765332872898 485.4765332872898 L 0 485.4765332872898 L 0 0 Z" fill-opacity="0.5882352941176471"/></g><g transform="translate(6,0)"><g transform="translate(0,269.7251473095311)"><path fill="rgb(0,255,0)" stroke="none" paint-order="stroke fill markers" d=" M 0 0 L 478.02017470429433 0 L 478.02017470429433 478.02017470429433 L 0 478.02017470429433 L 0 0 Z" fill-opacity="0.5882352941176471"/></g><g transform="translate(6,0)"><g transform="translate(0,263.6001466335841)"><path fill="rgb(0,0,255)" stroke="none" paint-order="stroke fill markers" d=" M 0 0 L 471.8951740283473 0 L 471.8951740283473 471.8951740283473 L 0 471.8951740283473 L 0 0 Z" fill-opacity="0.5882352941176471"/></g><g transform="translate(6,0)"><g transform="translate(0,260.4186712474895)"><path fill="rgb(75,0,130)" stroke="none" paint-order="stroke fill markers" d=" M 0 0 L 468.7136986422527 0 L 468.7136986422527 468.7136986422527 L 0 468.7136986422527 L 0 0 Z" fill-opacity="0.5882352941176471"/></g><g transform="translate(6,0)"><g transform="translate(0,258.6858580467125)"><path fill="rgb(148,0,211)" stroke="none" paint-order="stroke fill markers" d=" M 0 0 L 466.9808854414757 0 L 466.9808854414757 466.9808854414757 L 0 466.9808854414757 L 0 0 Z" fill-opacity="0.5882352941176471"/></g><g transform="translate(6,0)"><g transform="translate(0,251.721478338108)"><path fill="rgb(255,0,0)" stroke="none" paint-order="stroke fill markers" d=" M 0 0 L 460.0165057328712 0 L 460.0165057328712 460.0165057328712 L 0 460.0165057328712 L 0 0 Z" fill-opacity="0.5882352941176471"/></g><g transform="translate(6,0)"><g transform="translate(0,242.54387627636726)"><path fill="rgb(255,127,0)" stroke="none" paint-order="stroke fill markers" d=" M 0 0 L 450.8389036711305 0 L 450.8389036711305 450.8389036711305 L 0 450.8389036711305 L 0 0 Z" fill-opacity="0.5882352941176471"/></g><g transform="translate(6,0)"><g transform="translate(0,235.8206513228841)"><path fill="rgb(255,255,0)" stroke="none" paint-order="stroke fill markers" d=" M 0 0 L 444.1156787176473 0 L 444.1156787176473 444.1156787176473 L 0 444.1156787176473 L 0 0 Z" fill-opacity="0.5882352941176471"/></g><g transform="translate(6,0)"><g transform="translate(0,234.71133043734653)"><path fill="rgb(0,255,0)" stroke="none" paint-order="stroke fill markers" d=" M 0 0 L 443.00635783210976 0 L 443.00635783210976 443.00635783210976 L 0 443.00635783210976 L 0 0 Z" fill-opacity="0.5882352941176471"/></g><g transform="translate(6,0)"><g transform="translate(0,239.1777168799432)"><path fill="rgb(0,0,255)" stroke="none" paint-order="stroke fill markers" d=" M 0 0 L 447.47274427470643 0 L 447.47274427470643 447.47274427470643 L 0 447.47274427470643 L 0 0 Z" fill-opacity="0.5882352941176471"/></g><g transform="translate(6,0)"><g transform="translate(0,245.7777116212252)"><path fill="rgb(75,0,130)" stroke="none" paint-order="stroke fill markers" d=" M 0 0 L 454.0727390159884 0 L 454.0727390159884 454.0727390159884 L 0 454.0727390159884 L 0 0 Z" fill-opacity="0.5882352941176471"/></g><g transform="translate(6,0)"><g transform="translate(0,249.57277718310291)"><path fill="rgb(148,0,211)" stroke="none" paint-order="stroke fill markers" d=" M 0 0 L 457.86780457786614 0 L 457.86780457786614 457.86780457786614 L 0 457.86780457786614 L 0 0 Z" fill-opacity="0.5882352941176471"/></g><g transform="translate(6,0)"><g transform="translate(0,247.2698334077649)"><path fill="rgb(255,0,0)" stroke="none" paint-order="stroke fill markers" d=" M 0 0 L 455.56486080252813 0 L 455.56486080252813 455.56486080252813 L 0 455.56486080252813 L 0 0 Z" fill-opacity="0.5882352941176471"/></g><g transform="translate(6,0)"><g transform="translate(0,243.67303743661017)"><path fill="rgb(255,127,0)" stroke="none" paint-order="stroke fill markers" d=" M 0 0 L 451.9680648313734 0 L 451.9680648313734 451.9680648313734 L 0 451.9680648313734 L 0 0 Z" fill-opacity="0.5882352941176471"/></g><g transform="translate(6,0)"><g transform="translate(0,240.24672812304055)"><path fill="rgb(255,255,0)" stroke="none" paint-order="stroke fill markers" d=" M 0 0 L 448.5417555178038 0 L 448.5417555178038 448.5417555178038 L 0 448.5417555178038 L 0 0 Z" fill-opacity="0.5882352941176471"/></g><g transform="translate(6,0)"><g transform="translate(0,236.4121087428606)"><path fill="rgb(0,255,0)" stroke="none" paint-order="stroke fill markers" d=" M 0 0 L 444.7071361376238 0 L 444.7071361376238 444.7071361376238 L 0 444.7071361376238 L 0 0 Z" fill-opacity="0.5882352941176471"/></g><g transform="translate(6,0)"><g transform="translate(0,231.71274468733765)"><path fill="rgb(0,0,255)" stroke="none" paint-order="stroke fill markers" d=" M 0 0 L 440.00777208210087 0 L 440.00777208210087 440.00777208210087 L 0 440.00777208210087 L 0 0 Z" fill-opacity="0.5882352941176471"/></g><g transform="translate(6,0)"><g transform="translate(0,223.75938113185998)"><path fill="rgb(75,0,130)" stroke="none" paint-order="stroke fill markers" d=" M 0 0 L 432.0544085266232 0 L 432.0544085266232 432.0544085266232 L 0 432.0544085266232 L 0 0 Z" fill-opacity="0.5882352941176471"/></g><g transform="translate(6,0)"><g transform="translate(0,213.35815481591578)"><path fill="rgb(148,0,211)" stroke="none" paint-order="stroke fill markers" d=" M 0 0 L 421.653182210679 0 L 421.653182210679 421.653182210679 L 0 421.653182210679 L 0 0 Z" fill-opacity="0.5882352941176471"/></g><g transform="translate(6,0)"><g transform="translate(0,204.51888056007232)"><path fill="rgb(255,0,0)" stroke="none" paint-order="stroke fill markers" d=" M 0 0 L 412.81390795483554 0 L 412.81390795483554 412.81390795483554 L 0 412.81390795483554 L 0 0 Z" fill-opacity="0.5882352941176471"/></g><g transform="translate(6,0)"><g transform="translate(0,200.96925550154327)"><path fill="rgb(255,127,0)" stroke="none" paint-order="stroke fill markers" d=" M 0 0 L 409.2642828963065 0 L 409.2642828963065 409.2642828963065 L 0 409.2642828963065 L 0 0 Z" fill-opacity="0.5882352941176471"/></g><g transform="translate(6,0)"><g transform="translate(0,202.19120313702143)"><path fill="rgb(255,255,0)" stroke="none" paint-order="stroke fill markers" d=" M 0 0 L 410.48623053178466 0 L 410.48623053178466 410.48623053178466 L 0 410.48623053178466 L 0 0 Z" fill-opacity="0.5882352941176471"/></g><g transform="translate(6,0)"><g transform="translate(0,205.96230549864708)"><path fill="rgb(0,255,0)" stroke="none" paint-order="stroke fill markers" d=" M 0 0 L 414.2573328934103 0 L 414.2573328934103 414.2573328934103 L 0 414.2573328934103 L 0 0 Z" fill-opacity="0.5882352941176471"/></g><g transform="translate(6,0)"><g transform="translate(0,211.6825641620319)"><path fill="rgb(0,0,255)" stroke="none" paint-order="stroke fill markers" d=" M 0 0 L 419.9775915567951 0 L 419.9775915567951 419.9775915567951 L 0 419.9775915567951 L 0 0 Z" fill-opacity="0.5882352941176471"/></g><g transform="translate(6,0)"><g transform="translate(0,218.3610080554983)"><path fill="rgb(75,0,130)" stroke="none" paint-order="stroke fill markers" d=" M 0 0 L 426.6560354502615 0 L 426.6560354502615 426.6560354502615 L 0 426.6560354502615 L 0 0 Z" fill-opacity="0.5882352941176471"/></g><g transform="translate(6,0)"><g transform="translate(0,224.16661745439046)"><path fill="rgb(148,0,211)" stroke="none" paint-order="stroke fill markers" d=" M 0 0 L 432.4616448491537 0 L 432.4616448491537 432.4616448491537 L 0 432.4616448491537 L 0 0 Z" fill-opacity="0.5882352941176471"/></g><g transform="translate(6,0)"><g transform="translate(0,226.96958253558472)"><path fill="rgb(255,0,0)" stroke="none" paint-order="stroke fill markers" d=" M 0 0 L 435.26460993034794 0 L 435.26460993034794 435.26460993034794 L 0 435.26460993034794 L 0 0 Z" fill-opacity="0.5882352941176471"/></g><g transform="translate(6,0)"><g transform="translate(0,226.2560961766743)"><path fill="rgb(255,127,0)" stroke="none" paint-order="stroke fill markers" d=" M 0 0 L 434.55112357143753 0 L 434.55112357143753 434.55112357143753 L 0 434.55112357143753 L 0 0 Z" fill-opacity="0.5882352941176471"/></g><g transform="translate(6,0)"><g transform="translate(0,222.05846238895953)"><path fill="rgb(255,255,0)" stroke="none" paint-order="stroke fill markers" d=" M 0 0 L 430.35348978372275 0 L 430.35348978372275 430.35348978372275 L 0 430.35348978372275 L 0 0 Z" fill-opacity="0.5882352941176471"/></g><g transform="translate(6,0)"><g transform="translate(0,215.94260469364775)"><path fill="rgb(0,255,0)" stroke="none" paint-order="stroke fill markers" d=" M 0 0 L 424.237632088411 0 L 424.237632088411 424.237632088411 L 0 424.237632088411 L 0 0 Z" fill-opacity="0.5882352941176471"/></g><g transform="translate(6,0)"><g transform="translate(0,211.97358665150932)"><path fill="rgb(0,0,255)" stroke="none" paint-order="stroke fill markers" d=" M 0 0 L 420.26861404627255 0 L 420.26861404627255 420.26861404627255 L 0 420.26861404627255 L 0 0 Z" fill-opacity="0.5882352941176471"/></g><g transform="translate(6,0)"><g transform="translate(0,208.89051110469313)"><path fill="rgb(75,0,130)" stroke="none" paint-order="stroke fill markers" d=" M 0 0 L 417.18553849945636 0 L 417.18553849945636 417.18553849945636 L 0 417.18553849945636 L 0 0 Z" fill-opacity="0.5882352941176471"/></g><g transform="translate(6,0)"><g transform="translate(0,204.59093358946853)"><path fill="rgb(148,0,211)" stroke="none" paint-order="stroke fill markers" d=" M 0 0 L 412.88596098423176 0 L 412.88596098423176 412.88596098423176 L 0 412.88596098423176 L 0 0 Z" fill-opacity="0.5882352941176471"/></g><g transform="translate(6,0)"><g transform="translate(0,198.24104696285673)"><path fill="rgb(255,0,0)" stroke="none" paint-order="stroke fill markers" d=" M 0 0 L 406.53607435761995 0 L 406.53607435761995 406.53607435761995 L 0 406.53607435761995 L 0 0 Z" fill-opacity="0.5882352941176471"/></g><g transform="translate(6,0)"><g transform="translate(0,192.58320495787945)"><path fill="rgb(255,127,0)" stroke="none" paint-order="stroke fill markers" d=" M 0 0 L 400.87823235264267 0 L 400.87823235264267 400.87823235264267 L 0 400.87823235264267 L 0 0 Z" fill-opacity="0.5882352941176471"/></g><g transform="translate(6,0)"><g transform="translate(0,188.44843948296466)"><path fill="rgb(255,255,0)" stroke="none" paint-order="stroke fill markers" d=" M 0 0 L 396.7434668777279 0 L 396.7434668777279 396.7434668777279 L 0 396.7434668777279 L 0 0 Z" fill-opacity="0.5882352941176471"/></g><g transform="translate(6,0)"><g transform="translate(0,186.12901574558634)"><path fill="rgb(0,255,0)" stroke="none" paint-order="stroke fill markers" d=" M 0 0 L 394.42404314034957 0 L 394.42404314034957 394.42404314034957 L 0 394.42404314034957 L 0 0 Z" fill-opacity="0.5882352941176471"/></g><g transform="translate(6,0)"><g transform="translate(0,185.4739209551247)"><path fill="rgb(0,0,255)" stroke="none" paint-order="stroke fill markers" d=" M 0 0 L 393.7689483498879 0 L 393.7689483498879 393.7689483498879 L 0 393.7689483498879 L 0 0 Z" fill-opacity="0.5882352941176471"/></g><g transform="translate(6,0)"><g transform="translate(0,182.46306110140995)"><path fill="rgb(75,0,130)" stroke="none" paint-order="stroke fill markers" d=" M 0 0 L 390.7580884961732 0 L 390.7580884961732 390.7580884961732 L 0 390.7580884961732 L 0 0 Z" fill-opacity="0.5882352941176471"/></g><g transform="translate(6,0)"><g transform="translate(0,176.3134725131216)"><path fill="rgb(148,0,211)" stroke="none" paint-order="stroke fill markers" d=" M 0 0 L 384.60849990788483 0 L 384.60849990788483 384.60849990788483 L 0 384.60849990788483 L 0 0 Z" fill-opacity="0.5882352941176471"/></g><g transform="translate(6,0)"><g transform="translate(0,167.9863374539259)"><path fill="rgb(255,0,0)" stroke="none" paint-order="stroke fill markers" d=" M 0 0 L 376.2813648486891 0 L 376.2813648486891 376.2813648486891 L 0 376.2813648486891 L 0 0 Z" fill-opacity="0.5882352941176471"/></g><g transform="translate(6,0)"><g transform="translate(0,158.67399459465008)"><path fill="rgb(255,127,0)" stroke="none" paint-order="stroke fill markers" d=" M 0 0 L 366.9690219894133 0 L 366.9690219894133 366.9690219894133 L 0 366.9690219894133 L 0 0 Z" fill-opacity="0.5882352941176471"/></g><g transform="translate(6,0)"><g transform="translate(0,147.9223910602335)"><path fill="rgb(255,255,0)" stroke="none" paint-order="stroke fill markers" d=" M 0 0 L 356.21741845499673 0 L 356.21741845499673 356.21741845499673 L 0 356.21741845499673 L 0 0 Z" fill-opacity="0.5882352941176471"/></g><g transform="translate(6,0)"><g transform="translate(0,136.84771135379975)"><path fill="rgb(0,255,0)" stroke="none" paint-order="stroke fill markers" d=" M 0 0 L 345.142738748563 0 L 345.142738748563 345.142738748563 L 0 345.142738748563 L 0 0 Z" fill-opacity="0.5882352941176471"/></g><g transform="translate(6,0)"><g transform="translate(0,128.2046557004267)"><path fill="rgb(0,0,255)" stroke="none" paint-order="stroke fill markers" d=" M 0 0 L 336.49968309518994 0 L 336.49968309518994 336.49968309518994 L 0 336.49968309518994 L 0 0 Z" fill-opacity="0.5882352941176471"/></g><g transform="translate(6,0)"><g transform="translate(0,124.31514003181604)"><path fill="rgb(75,0,130)" stroke="none" paint-order="stroke fill markers" d=" M 0 0 L 332.61016742657927 0 L 332.61016742657927 332.61016742657927 L 0 332.61016742657927 L 0 0 Z" fill-opacity="0.5882352941176471"/></g><g transform="translate(6,0)"><g transform="translate(0,124.59872042642127)"><path fill="rgb(148,0,211)" stroke="none" paint-order="stroke fill markers" d=" M 0 0 L 332.8937478211845 0 L 332.8937478211845 332.8937478211845 L 0 332.8937478211845 L 0 0 Z" fill-opacity="0.5882352941176471"/></g><g transform="translate(6,0)"><g transform="translate(0,127.44518487200634)"><path fill="rgb(255,0,0)" stroke="none" paint-order="stroke fill markers" d=" M 0 0 L 335.74021226676956 0 L 335.74021226676956 335.74021226676956 L 0 335.74021226676956 L 0 0 Z" fill-opacity="0.5882352941176471"/></g><g transform="translate(6,0)"><g transform="translate(0,132.4540763785073)"><path fill="rgb(255,127,0)" stroke="none" paint-order="stroke fill markers" d=" M 0 0 L 340.7491037732705 0 L 340.7491037732705 340.7491037732705 L 0 340.7491037732705 L 0 0 Z" fill-opacity="0.5882352941176471"/></g><g transform="translate(6,0)"><g transform="translate(0,138.89403609820124)"><path fill="rgb(255,255,0)" stroke="none" paint-order="stroke fill markers" d=" M 0 0 L 347.18906349296446 0 L 347.18906349296446 347.18906349296446 L 0 347.18906349296446 L 0 0 Z" fill-opacity="0.5882352941176471"/></g><g transform="translate(6,0)"><g transform="translate(0,147.19922169871165)"><path fill="rgb(0,255,0)" stroke="none" paint-order="stroke fill markers" d=" M 0 0 L 355.4942490934749 0 L 355.4942490934749 355.4942490934749 L 0 355.4942490934749 L 0 0 Z" fill-opacity="0.5882352941176471"/></g><g transform="translate(6,0)"><g transform="translate(0,157.9125616958096)"><path fill="rgb(0,0,255)" stroke="none" paint-order="stroke fill markers" d=" M 0 0 L 366.2075890905728 0 L 366.2075890905728 366.2075890905728 L 0 366.2075890905728 L 0 0 Z" fill-opacity="0.5882352941176471"/></g><g transform="translate(6,0)"><g transform="translate(0,166.96393112253065)"><path fill="rgb(75,0,130)" stroke="none" paint-order="stroke fill markers" d=" M 0 0 L 375.2589585172939 0 L 375.2589585172939 375.2589585172939 L 0 375.2589585172939 L 0 0 Z" fill-opacity="0.5882352941176471"/></g><g transform="translate(6,0)"><g transform="translate(0,170.0491710741626)"><path fill="rgb(148,0,211)" stroke="none" paint-order="stroke fill markers" d=" M 0 0 L 378.3441984689258 0 L 378.3441984689258 378.3441984689258 L 0 378.3441984689258 L 0 0 Z" fill-opacity="0.5882352941176471"/></g><g transform="translate(6,0)"><g transform="translate(0,167.15635225028637)"><path fill="rgb(255,0,0)" stroke="none" paint-order="stroke fill markers" d=" M 0 0 L 375.4513796450496 0 L 375.4513796450496 375.4513796450496 L 0 375.4513796450496 L 0 0 Z" fill-opacity="0.5882352941176471"/></g><g transform="translate(6,0)"><g transform="translate(0,165.63514928867812)"><path fill="rgb(255,127,0)" stroke="none" paint-order="stroke fill markers" d=" M 0 0 L 373.93017668344135 0 L 373.93017668344135 373.93017668344135 L 0 373.93017668344135 L 0 0 Z" fill-opacity="0.5882352941176471"/></g><g transform="translate(6,0)"><g transform="translate(0,164.93457938926906)"><path fill="rgb(255,255,0)" stroke="none" paint-order="stroke fill markers" d=" M 0 0 L 373.2296067840323 0 L 373.2296067840323 373.2296067840323 L 0 373.2296067840323 L 0 0 Z" fill-opacity="0.5882352941176471"/></g><g transform="translate(6,0)"><g transform="translate(0,163.49256843286457)"><path fill="rgb(0,255,0)" stroke="none" paint-order="stroke fill markers" d=" M 0 0 L 371.7875958276278 0 L 371.7875958276278 371.7875958276278 L 0 371.7875958276278 L 0 0 Z" fill-opacity="0.5882352941176471"/></g><g transform="translate(6,0)"><g transform="translate(0,160.35269421819436)"><path fill="rgb(0,0,255)" stroke="none" paint-order="stroke fill markers" d=" M 0 0 L 368.6477216129576 0 L 368.6477216129576 368.6477216129576 L 0 368.6477216129576 L 0 0 Z" fill-opacity="0.5882352941176471"/></g><g transform="translate(6,0)"><g transform="translate(0,156.32733313268795)"><path fill="rgb(75,0,130)" stroke="none" paint-order="stroke fill markers" d=" M 0 0 L 364.6223605274512 0 L 364.6223605274512 364.6223605274512 L 0 364.6223605274512 L 0 0 Z" fill-opacity="0.5882352941176471"/></g><g transform="translate(6,0)"><g transform="translate(0,151.73799131959572)"><path fill="rgb(148,0,211)" stroke="none" paint-order="stroke fill markers" d=" M 0 0 L 360.03301871435895 0 L 360.03301871435895 360.03301871435895 L 0 360.03301871435895 L 0 0 Z" fill-opacity="0.5882352941176471"/></g><g transform="translate(6,0)"><g transform="translate(0,146.8940396165234)"><path fill="rgb(255,0,0)" stroke="none" paint-order="stroke fill markers" d=" M 0 0 L 355.1890670112866 0 L 355.1890670112866 355.1890670112866 L 0 355.1890670112866 L 0 0 Z" fill-opacity="0.5882352941176471"/></g><g transform="translate(6,0)"><g transform="translate(0,141.41409358271255)"><path fill="rgb(255,127,0)" stroke="none" paint-order="stroke fill markers" d=" M 0 0 L 349.7091209774758 0 L 349.7091209774758 349.7091209774758 L 0 349.7091209774758 L 0 0 Z" fill-opacity="0.5882352941176471"/></g><g transform="translate(6,0)"><g transform="translate(0,127.35089896431697)"><path fill="rgb(255,255,0)" stroke="none" paint-order="stroke fill markers" d=" M 0 0 L 335.6459263590802 0 L 335.6459263590802 335.6459263590802 L 0 335.6459263590802 L 0 0 Z" fill-opacity="0.5882352941176471"/></g><g transform="translate(6,0)"><g transform="translate(0,106.38483791561697)"><path fill="rgb(0,255,0)" stroke="none" paint-order="stroke fill markers" d=" M 0 0 L 314.6798653103802 0 L 314.6798653103802 314.6798653103802 L 0 314.6798653103802 L 0 0 Z" fill-opacity="0.5882352941176471"/></g><g transform="translate(6,0)"><g transform="translate(0,85.84292654122345)"><path fill="rgb(0,0,255)" stroke="none" paint-order="stroke fill markers" d=" M 0 0 L 294.1379539359867 0 L 294.1379539359867 294.1379539359867 L 0 294.1379539359867 L 0 0 Z" fill-opacity="0.5882352941176471"/></g><g transform="translate(6,0)"><g transform="translate(0,72.24249025192489)"><path fill="rgb(75,0,130)" stroke="none" paint-order="stroke fill markers" d=" M 0 0 L 280.5375176466881 0 L 280.5375176466881 280.5375176466881 L 0 280.5375176466881 L 0 0 Z" fill-opacity="0.5882352941176471"/></g><g transform="translate(6,0)"><g transform="translate(0,63.05653599430656)"><path fill="rgb(148,0,211)" stroke="none" paint-order="stroke fill markers" d=" M 0 0 L 271.3515633890698 0 L 271.3515633890698 271.3515633890698 L 0 271.3515633890698 L 0 0 Z" fill-opacity="0.5882352941176471"/></g><g transform="translate(6,0)"><g transform="translate(0,56.13032225831324)"><path fill="rgb(255,0,0)" stroke="none" paint-order="stroke fill markers" d=" M 0 0 L 264.42534965307647 0 L 264.42534965307647 264.42534965307647 L 0 264.42534965307647 L 0 0 Z" fill-opacity="0.5882352941176471"/></g><g transform="translate(6,0)"><g transform="translate(0,51.88311723657404)"><path fill="rgb(255,127,0)" stroke="none" paint-order="stroke fill markers" d=" M 0 0 L 260.17814463133726 0 L 260.17814463133726 260.17814463133726 L 0 260.17814463133726 L 0 0 Z" fill-opacity="0.5882352941176471"/></g><g transform="translate(6,0)"/></g></g></g></g></g></g></g></g></g></g></g></g></g></g></g></g></g></g></g></g></g></g></g></g></g></g></g></g></g></g></g></g></g></g></g></g></g></g></g></g></g></g></g></g></g></g></g></g></g></g></g></g></g></g></g></g></g></g></g></g></g></g></g></g></g></g></g></g></g></g></g></g></g></g></g></g></g></g></g></g></g></g></g></g></g></g></g></g></g></g></g></g></g></g></g></g></g></g></g></g></g></svg>