<svg version="1.1" xmlns="http://www.w3.org/2000/svg" xmlns:xlink="http://www.w3.org/1999/xlink" width="600" height="600" viewBox="0 0 600 600"><defs/><g transform="scale(1,1)"><g transform="scale(1,1)"><rect fill="rgb(0,0,0)" stroke="none" x="0" y="0" width="600" height="600" fill-opacity="1"/></g><g><g transform="translate(0,300) rotate(13.043586389885837,0,0)"><path fill="rgb(255,0,0)" stroke="none" paint-order="stroke fill markers" d=" M 0 0 L 13.799885600449146 0 L 13.799885600449146 13.799885600449146 L 0 13.799885600449146 L 0 0 Z" fill-opacity="0.5882352941176471"/></g><g transform="translate(6,0)"><g transform="translate(0,323.93341966483456) rotate(8.265338618785497,0,0)"><path fill="rgb(255,127,0)" stroke="none" paint-order="stroke fill markers" d=" M 0 0 L 21.777692155393996 0 L 21.777692155393996 21.777692155393996 L 0 21.777692155393996 L 0 0 Z" fill-opacity="0.5882352941176471"/></g><g transform="translate(6,0)"><g transform="translate(0,362.7467773322213) rotate(5.185007095945746,0,0)"><path fill="rgb(255,255,0)" stroke="none" paint-order="stroke fill markers" d=" M 0 0 L 34.715478044522904 0 L 34.715478044522904 34.715478044522904 L 0 34.715478044522904 L 0 0 Z" fill-opacity="0.5882352941176471"/></g><g transform="translate(6,0)"><g transform="translate(0,409.90640053411414) rotate(3.5689251938061064,0,0)"><path fill="rgb(0,255,0)" stroke="none" paint-order="stroke fill markers" d=" M 0 0 L 50.435352445153846 0 L 50.435352445153846 50.435352445153846 L 0 50.435352445153846 L 0 0 Z" fill-opacity="0.5882352941176471"/></g><g transform="translate(6,0)"><g transform="translate(0,423.59363000219537) rotate(3.2728604324549107,0,0)"><path fill="rgb(0,0,255)" stroke="none" paint-order="stroke fill markers" d=" M 0 0 L 54.997762267847584 0 L 54.997762267847584 54.997762267847584 L 0 54.997762267847584 L 0 0 Z" fill-opacity="0.5882352941176471"/></g><g transform="translate(6,0)"><g transform="translate(0,453.7187536315333) rotate(2.767550221437234,0,0)"><path fill="rgb(75,0,130)" stroke="none" paint-order="stroke fill markers" d=" M 0 0 L 65.03947014429356 0 L 65.03947014429356 65.03947014429356 L 0 65.03947014429356 L 0 0 Z" fill-opacity="0.5882352941176471"/></g><g transform="translate(6,0)"><g transform="translate(0,494.5483392916394) rotate(2.2886399076989266,0,0)"><path fill="rgb(148,0,211)" stroke="none" paint-order="stroke fill markers" d=" M 0 0 L 78.64933203099561 0 L 78.64933203099561 78.64933203099561 L 0 78.64933203099561 L 0 0 Z" fill-opacity="0.5882352941176471"/></g><g transform="translate(6,0)"><g transform="translate(0,511.8022925822863) rotate(2.1326850022857844,0,0)"><path fill="rgb(255,0,0)" stroke="none" paint-order="stroke fill markers" d=" M 0 0 L 84.40064979454458 0 L 84.40064979454458 84.40064979454458 L 0 84.40064979454458 L 0 0 Z" fill-opacity="0.5882352941176471"/></g><g transform="translate(6,0)"><g transform="translate(0,513.2255604981625) rotate(2.1207640222249085,0,0)"><path fill="rgb(255,127,0)" stroke="none" paint-order="stroke fill markers" d=" M 0 0 L 84.87507243316998 0 L 84.87507243316998 84.87507243316998 L 0 84.87507243316998 L 0 0 Z" fill-opacity="0.5882352941176471"/></g><g transform="translate(6,0)"><g transform="translate(0,501.97832314128914) rotate(2.2187709838304857,0,0)"><path fill="rgb(255,255,0)" stroke="none" paint-order="stroke fill markers" d=" M 0 0 L 81.1259933142122 0 L 81.1259933142122 81.1259933142122 L 0 81.1259933142122 L 0 0 Z" fill-opacity="0.5882352941176471"/></g><g transform="translate(6,0)"><g transform="translate(0,527.9825336235233) rotate(2.0045868628074843,0,0)"><path fill="rgb(0,255,0)" stroke="none" paint-order="stroke fill markers" d=" M 0 0 L 89.79406347495693 0 L 89.79406347495693 89.79406347495693 L 0 89.79406347495693 L 0 0 Z" fill-opacity="0.5882352941176471"/></g><g transform="translate(6,0)"><g transform="translate(0,559.6677125022591) rotate(1.793618488941742,0,0)"><path fill="rgb(0,0,255)" stroke="none" paint-order="stroke fill markers" d=" M 0 0 L 100.35578976786881 0 L 100.35578976786881 100.35578976786881 L 0 100.35578976786881 L 0 0 Z" fill-opacity="0.5882352941176471"/></g><g transform="translate(6,0)"><g transform="translate(0,584.4361103418016) rotate(1.6572766235413392,0,0)"><path fill="rgb(75,0,130)" stroke="none" paint-order="stroke fill markers" d=" M 0 0 L 108.61192238104967 0 L 108.61192238104967 108.61192238104967 L 0 108.61192238104967 L 0 0 Z" fill-opacity="0.5882352941176471"/></g><g transform="translate(6,0)"><g transform="translate(0,593.4268333693099) rotate(1.612775619171494,0,0)"><path fill="rgb(148,0,211)" stroke="none" paint-order="stroke fill markers" d=" M 0 0 L 111.60883005688578 0 L 111.60883005688578 111.60883005688578 L 0 111.60883005688578 L 0 0 Z" fill-opacity="0.5882352941176471"/></g><g transform="translate(6,0)"><g transform="translate(0,608.7974207809461) rotate(1.5419888815979745,0,0)"><path fill="rgb(255,0,0)" stroke="none" paint-order="stroke fill markers" d=" M 0 0 L 116.73235919409785 0 L 116.73235919409785 116.73235919409785 L 0 116.73235919409785 L 0 0 Z" fill-opacity="0.5882352941176471"/></g><g transform="translate(6,0)"><g transform="translate(0,591.4446389904881) rotate(1.6223802144944128,0,0)"><path fill="rgb(255,127,0)" stroke="none" paint-order="stroke fill markers" d=" M 0 0 L 110.94809859727853 0 L 110.94809859727853 110.94809859727853 L 0 110.94809859727853 L 0 0 Z" fill-opacity="0.5882352941176471"/></g><g transform="translate(6,0)"><g transform="translate(0,566.3973572987918) rotate(1.7544029839883875,0,0)"><path fill="rgb(255,255,0)" stroke="none" paint-order="stroke fill markers" d=" M 0 0 L 102.5990047000464 0 L 102.5990047000464 102.5990047000464 L 0 102.5990047000464 L 0 0 Z" fill-opacity="0.5882352941176471"/></g><g transform="translate(6,0)"><g transform="translate(0,540.4033486080427) rotate(1.9162322247611,0,0)"><path fill="rgb(0,255,0)" stroke="none" paint-order="stroke fill markers" d=" M 0 0 L 93.9343351364634 0 L 93.9343351364634 93.9343351364634 L 0 93.9343351364634 L 0 0 Z" fill-opacity="0.5882352941176471"/></g><g transform="translate(6,0)"><g transform="translate(0,518.3284384669549) rotate(2.079097370818406,0,0)"><path fill="rgb(0,0,255)" stroke="none" paint-order="stroke fill markers" d=" M 0 0 L 86.57603175610079 0 L 86.57603175610079 86.57603175610079 L 0 86.57603175610079 L 0 0 Z" fill-opacity="0.5882352941176471"/></g><g transform="translate(6,0)"><g transform="translate(0,525.830693812246) rotate(2.020728554073646,0,0)"><path fill="rgb(75,0,130)" stroke="none" paint-order="stroke fill markers" d=" M 0 0 L 89.07678353786444 0 L 89.07678353786444 89.07678353786444 L 0 89.07678353786444 L 0 0 Z" fill-opacity="0.5882352941176471"/></g><g transform="translate(6,0)"><g transform="translate(0,564.0340038758046) rotate(1.767978024435192,0,0)"><path fill="rgb(148,0,211)" stroke="none" paint-order="stroke fill markers" d=" M 0 0 L 101.81122022571735 0 L 101.81122022571735 101.81122022571735 L 0 101.81122022571735 L 0 0 Z" fill-opacity="0.5882352941176471"/></g><g transform="translate(6,0)"><g transform="translate(0,590.2955508400988) rotate(1.6280006088714003,0,0)"><path fill="rgb(255,0,0)" stroke="none" paint-order="stroke fill markers" d=" M 0 0 L 110.56506921381542 0 L 110.56506921381542 110.56506921381542 L 0 110.56506921381542 L 0 0 Z" fill-opacity="0.5882352941176471"/></g><g transform="translate(6,0)"><g transform="translate(0,613.1416448783334) rotate(1.5230947634074987,0,0)"><path fill="rgb(255,127,0)" stroke="none" paint-order="stroke fill markers" d=" M 0 0 L 118.18043389322692 0 L 118.18043389322692 118.18043389322692 L 0 118.18043389322692 L 0 0 Z" fill-opacity="0.5882352941176471"/></g><g transform="translate(6,0)"><g transform="translate(0,614.7942838244114) rotate(1.5160280353206794,0,0)"><path fill="rgb(255,255,0)" stroke="none" paint-order="stroke fill markers" d=" M 0 0 L 118.73131354191962 0 L 118.73131354191962 118.73131354191962 L 0 118.73131354191962 L 0 0 Z" fill-opacity="0.5882352941176471"/></g><g transform="translate(6,0)"><g transform="translate(0,634.1523014400094) rotate(1.43788359546499,0,0)"><path fill="rgb(0,255,0)" stroke="none" paint-order="stroke fill markers" d=" M 0 0 L 125.18398608045227 0 L 125.18398608045227 125.18398608045227 L 0 125.18398608045227 L 0 0 Z" fill-opacity="0.5882352941176471"/></g><g transform="translate(6,0)"><g transform="translate(0,654.7969584637749) rotate(1.3629596498159098,0,0)"><path fill="rgb(0,0,255)" stroke="none" paint-order="stroke fill markers" d=" M 0 0 L 132.06553842170746 0 L 132.06553842170746 132.06553842170746 L 0 132.06553842170746 L 0 0 Z" fill-opacity="0.5882352941176471"/></g><g transform="translate(6,0)"><g transform="translate(0,654.9309516302455) rotate(1.3624988545218673,0,0)"><path fill="rgb(75,0,130)" stroke="none" paint-order="stroke fill markers" d=" M 0 0 L 132.11020281053098 0 L 132.11020281053098 132.11020281053098 L 0 132.11020281053098 L 0 0 Z" fill-opacity="0.5882352941176471"/></g><g transform="translate(6,0)"><g transform="translate(0,667.0415829491978) rotate(1.3220996007401309,0,0)"><path fill="rgb(148,0,211)" stroke="none" paint-order="stroke fill markers" d=" M 0 0 L 136.1470799168484 0 L 136.1470799168484 136.1470799168484 L 0 136.1470799168484 L 0 0 Z" fill-opacity="0.5882352941176471"/></g><g transform="translate(6,0)"><g transform="translate(0,668.0932968297965) rotate(1.3187040099508331,0,0)"><path fill="rgb(255,0,0)" stroke="none" paint-order="stroke fill markers" d=" M 0 0 L 136.4976512103813 0 L 136.4976512103813 136.4976512103813 L 0 136.4976512103813 L 0 0 Z" fill-opacity="0.5882352941176471"/></g><g transform="translate(6,0)"><g transform="translate(0,647.4577194198473) rotate(1.3886839572070515,0,0)"><path fill="rgb(255,127,0)" stroke="none" paint-order="stroke fill markers" d=" M 0 0 L 129.61912540706493 0 L 129.61912540706493 129.61912540706493 L 0 129.61912540706493 L 0 0 Z" fill-opacity="0.5882352941176471"/></g><g transform="translate(6,0)"><g transform="translate(0,611.7142113703248) rotate(1.5292517475905811,0,0)"><path fill="rgb(255,255,0)" stroke="none" paint-order="stroke fill markers" d=" M 0 0 L 117.70462272389078 0 L 117.70462272389078 117.70462272389078 L 0 117.70462272389078 L 0 0 Z" fill-opacity="0.5882352941176471"/></g><g transform="translate(6,0)"><g transform="translate(0,584.8042846878836) rotate(1.655406116599075,0,0)"><path fill="rgb(0,255,0)" stroke="none" paint-order="stroke fill markers" d=" M 0 0 L 108.73464716307704 0 L 108.73464716307704 108.73464716307704 L 0 108.73464716307704 L 0 0 Z" fill-opacity="0.5882352941176471"/></g><g transform="translate(6,0)"><g transform="translate(0,542.8300637915245) rotate(1.8998716913685858,0,0)"><path fill="rgb(0,0,255)" stroke="none" paint-order="stroke fill markers" d=" M 0 0 L 94.74324019762395 0 L 94.74324019762395 94.74324019762395 L 0 94.74324019762395 L 0 0 Z" fill-opacity="0.5882352941176471"/></g><g transform="translate(6,0)"><g transform="translate(0,496.30260554125925) rotate(2.271749518402494,0,0)"><path fill="rgb(75,0,130)" stroke="none" paint-order="stroke fill markers" d=" M 0 0 L 79.23408744753554 0 L 79.23408744753554 79.23408744753554 L 0 79.23408744753554 L 0 0 Z" fill-opacity="0.5882352941176471"/></g><g transform="translate(6,0)"><g transform="translate(0,479.9933113136383) rotate(2.4391018585537823,0,0)"><path fill="rgb(148,0,211)" stroke="none" paint-order="stroke fill markers" d=" M 0 0 L 73.79765603832858 0 L 73.79765603832858 73.79765603832858 L 0 73.79765603832858 L 0 0 Z" fill-opacity="0.5882352941176471"/></g><g transform="translate(6,0)"><g transform="translate(0,431.9160805024615) rotate(3.115700907491293,0,0)"><path fill="rgb(255,0,0)" stroke="none" paint-order="stroke fill markers" d=" M 0 0 L 57.771912434602974 0 L 57.771912434602974 57.771912434602974 L 0 57.771912434602974 L 0 0 Z" fill-opacity="0.5882352941176471"/></g><g transform="translate(6,0)"><g transform="translate(0,376.9016599438607) rotate(4.564615296404748,0,0)"><path fill="rgb(255,127,0)" stroke="none" paint-order="stroke fill markers" d=" M 0 0 L 39.4337722484027 0 L 39.4337722484027 39.4337722484027 L 0 39.4337722484027 L 0 0 Z" fill-opacity="0.5882352941176471"/></g><g transform="translate(6,0)"><g transform="translate(0,370.89807499208604) rotate(4.808645654511573,0,0)"><path fill="rgb(255,255,0)" stroke="none" paint-order="stroke fill markers" d=" M 0 0 L 37.43257726447782 0 L 37.43257726447782 37.43257726447782 L 0 37.43257726447782 L 0 0 Z" fill-opacity="0.5882352941176471"/></g><g transform="translate(6,0)"><g transform="translate(0,370.49138729451664) rotate(4.826123523678519,0,0)"><path fill="rgb(0,255,0)" stroke="none" paint-order="stroke fill markers" d=" M 0 0 L 37.29701469862135 0 L 37.29701469862135 37.29701469862135 L 0 37.29701469862135 L 0 0 Z" fill-opacity="0.5882352941176471"/></g><g transform="translate(6,0)"><g transform="translate(0,372.4694868487637) rotate(4.742285598100859,0,0)"><path fill="rgb(0,0,255)" stroke="none" paint-order="stroke fill markers" d=" M 0 0 L 37.95638121670371 0 L 37.95638121670371 37.95638121670371 L 0 37.95638121670371 L 0 0 Z" fill-opacity="0.5882352941176471"/></g><g transform="translate(6,0)"><g transform="translate(0,399.7566570554428) rotate(3.825546199427221,0,0)"><path fill="rgb(75,0,130)" stroke="none" paint-order="stroke fill markers" d=" M 0 0 L 47.05210461893008 0 L 47.05210461893008 47.05210461893008 L 0 47.05210461893008 L 0 0 Z" fill-opacity="0.5882352941176471"/></g><g transform="translate(6,0)"><g transform="translate(0,413.47819565960503) rotate(3.4866185927787443,0,0)"><path fill="rgb(148,0,211)" stroke="none" paint-order="stroke fill markers" d=" M 0 0 L 51.62595082031748 0 L 51.62595082031748 51.62595082031748 L 0 51.62595082031748 L 0 0 Z" fill-opacity="0.5882352941176471"/></g><g transform="translate(6,0)"><g transform="translate(0,420.9504239465893) rotate(3.326145558488506,0,0)"><path fill="rgb(255,0,0)" stroke="none" paint-order="stroke fill markers" d=" M 0 0 L 54.116693582645574 0 L 54.116693582645574 54.116693582645574 L 0 54.116693582645574 L 0 0 Z" fill-opacity="0.5882352941176471"/></g><g transform="translate(6,0)"><g transform="translate(0,429.0430596252387) rotate(3.168219864839994,0,0)"><path fill="rgb(255,127,0)" stroke="none" paint-order="stroke fill markers" d=" M 0 0 L 56.81423880886203 0 L 56.81423880886203 56.81423880886203 L 0 56.81423880886203 L 0 0 Z" fill-opacity="0.5882352941176471"/></g><g transform="translate(6,0)"><g transform="translate(0,438.1011821761041) rotate(3.0083424850612177,0,0)"><path fill="rgb(255,255,0)" stroke="none" paint-order="stroke fill markers" d=" M 0 0 L 59.83361299248384 0 L 59.83361299248384 59.83361299248384 L 0 59.83361299248384 L 0 0 Z" fill-opacity="0.5882352941176471"/></g><g transform="translate(6,0)"><g transform="translate(0,447.1161235917763) rotate(2.8644816835699602,0,0)"><path fill="rgb(0,255,0)" stroke="none" paint-order="stroke fill markers" d=" M 0 0 L 62.838593464374576 0 L 62.838593464374576 62.838593464374576 L 0 62.838593464374576 L 0 0 Z" fill-opacity="0.5882352941176471"/></g><g transform="translate(6,0)"><g transform="translate(0,432.7032469693265) rotate(3.1016139783129684,0,0)"><path fill="rgb(0,0,255)" stroke="none" paint-order="stroke fill markers" d=" M 0 0 L 58.034301256891325 0 L 58.034301256891325 58.034301256891325 L 0 58.034301256891325 L 0 0 Z" fill-opacity="0.5882352941176471"/></g><g transform="translate(6,0)"><g transform="translate(0,430.3393819723613) rotate(3.14430547565559,0,0)"><path fill="rgb(75,0,130)" stroke="none" paint-order="stroke fill markers" d=" M 0 0 L 57.24634625790291 0 L 57.24634625790291 57.24634625790291 L 0 57.24634625790291 L 0 0 Z" fill-opacity="0.5882352941176471"/></g><g transform="translate(6,0)"><g transform="translate(0,449.48876803588695) rotate(2.8288776569896474,0,0)"><path fill="rgb(148,0,211)" stroke="none" paint-order="stroke fill markers" d=" M 0 0 L 63.62947494574479 0 L 63.62947494574479 63.62947494574479 L 0 63.62947494574479 L 0 0 Z" fill-opacity="0.5882352941176471"/></g><g transform="translate(6,0)"><g transform="translate(0,470.8135129750048) rotate(2.5446111594727916,0,0)"><path fill="rgb(255,0,0)" stroke="none" paint-order="stroke fill markers" d=" M 0 0 L 70.73772325878407 0 L 70.73772325878407 70.73772325878407 L 0 70.73772325878407 L 0 0 Z" fill-opacity="0.5882352941176471"/></g><g transform="translate(6,0)"><g transform="translate(0,473.3974045622805) rotate(2.5140008739963124,0,0)"><path fill="rgb(255,127,0)" stroke="none" paint-order="stroke fill markers" d=" M 0 0 L 71.59902045454263 0 L 71.59902045454263 71.59902045454263 L 0 71.59902045454263 L 0 0 Z" fill-opacity="0.5882352941176471"/></g><g transform="translate(6,0)"><g transform="translate(0,487.11832166826616) rotate(2.3630525861307876,0,0)"><path fill="rgb(255,255,0)" stroke="none" paint-order="stroke fill markers" d=" M 0 0 L 76.1726594898712 0 L 76.1726594898712 76.1726594898712 L 0 76.1726594898712 L 0 0 Z" fill-opacity="0.5882352941176471"/></g><g transform="translate(6,0)"><g transform="translate(0,499.1004136433189) rotate(2.2453215876468606,0,0)"><path fill="rgb(0,255,0)" stroke="none" paint-order="stroke fill markers" d=" M 0 0 L 80.16669014822212 0 L 80.16669014822212 80.16669014822212 L 0 80.16669014822212 L 0 0 Z" fill-opacity="0.5882352941176471"/></g><g transform="translate(6,0)"><g transform="translate(0,517.0573910381606) rotate(2.0893220150658047,0,0)"><path fill="rgb(0,0,255)" stroke="none" paint-order="stroke fill markers" d=" M 0 0 L 86.152349279836 0 L 86.152349279836 86.152349279836 L 0 86.152349279836 L 0 0 Z" fill-opacity="0.5882352941176471"/></g><g transform="translate(6,0)"><g transform="translate(0,534.0521996010519) rotate(1.9604151776386296,0,0)"><path fill="rgb(75,0,130)" stroke="none" paint-order="stroke fill markers" d=" M 0 0 L 91.81728546746645 0 L 91.81728546746645 91.81728546746645 L 0 91.81728546746645 L 0 0 Z" fill-opacity="0.5882352941176471"/></g><g transform="translate(6,0)"><g transform="translate(0,551.5173328516158) rotate(1.8435257054900474,0,0)"><path fill="rgb(148,0,211)" stroke="none" paint-order="stroke fill markers" d=" M 0 0 L 97.63899655098776 0 L 97.63899655098776 97.63899655098776 L 0 97.63899655098776 L 0 0 Z" fill-opacity="0.5882352941176471"/></g><g transform="translate(6,0)"><g transform="translate(0,584.9917626325955) rotate(1.6544552578511902,0,0)"><path fill="rgb(255,0,0)" stroke="none" paint-order="stroke fill markers" d=" M 0 0 L 108.79713981131432 0 L 108.79713981131432 108.79713981131432 L 0 108.79713981131432 L 0 0 Z" fill-opacity="0.5882352941176471"/></g><g transform="translate(6,0)"><g transform="translate(0,604.4850776469361) rotate(1.5612137403558655,0,0)"><path fill="rgb(255,127,0)" stroke="none" paint-order="stroke fill markers" d=" M 0 0 L 115.29491148276118 0 L 115.29491148276118 115.29491148276118 L 0 115.29491148276118 L 0 0 Z" fill-opacity="0.5882352941176471"/></g><g transform="translate(6,0)"><g transform="translate(0,611.1555531772245) rotate(1.5316749964716754,0,0)"><path fill="rgb(255,255,0)" stroke="none" paint-order="stroke fill markers" d=" M 0 0 L 117.51840332619065 0 L 117.51840332619065 117.51840332619065 L 0 117.51840332619065 L 0 0 Z" fill-opacity="0.5882352941176471"/></g><g transform="translate(6,0)"><g transform="translate(0,579.3384772445983) rotate(1.6836164542961551,0,0)"><path fill="rgb(0,255,0)" stroke="none" paint-order="stroke fill markers" d=" M 0 0 L 106.91271134864856 0 L 106.91271134864856 106.91271134864856 L 0 106.91271134864856 L 0 0 Z" fill-opacity="0.5882352941176471"/></g><g transform="translate(6,0)"><g transform="translate(0,582.9071883900666) rotate(1.6650897383349352,0,0)"><path fill="rgb(0,0,255)" stroke="none" paint-order="stroke fill markers" d=" M 0 0 L 108.10228173047135 0 L 108.10228173047135 108.10228173047135 L 0 108.10228173047135 L 0 0 Z" fill-opacity="0.5882352941176471"/></g><g transform="translate(6,0)"><g transform="translate(0,610.3430645722719) rotate(1.5352130042412861,0,0)"><path fill="rgb(75,0,130)" stroke="none" paint-order="stroke fill markers" d=" M 0 0 L 117.24757379120648 0 L 117.24757379120648 117.24757379120648 L 0 117.24757379120648 L 0 0 Z" fill-opacity="0.5882352941176471"/></g><g transform="translate(6,0)"><g transform="translate(0,610.5975752470449) rotate(1.5341029725079234,0,0)"><path fill="rgb(148,0,211)" stroke="none" paint-order="stroke fill markers" d=" M 0 0 L 117.33241068279744 0 L 117.33241068279744 117.33241068279744 L 0 117.33241068279744 L 0 0 Z" fill-opacity="0.5882352941176471"/></g><g transform="translate(6,0)"><g transform="translate(0,602.4194859771733) rotate(1.5705931776691497,0,0)"><path fill="rgb(255,0,0)" stroke="none" paint-order="stroke fill markers" d=" M 0 0 L 114.60638092617359 0 L 114.60638092617359 114.60638092617359 L 0 114.60638092617359 L 0 0 Z" fill-opacity="0.5882352941176471"/></g><g transform="translate(6,0)"><g transform="translate(0,571.4018009200545) rotate(1.7263346658727958,0,0)"><path fill="rgb(255,127,0)" stroke="none" paint-order="stroke fill markers" d=" M 0 0 L 104.26715257380066 0 L 104.26715257380066 104.26715257380066 L 0 104.26715257380066 L 0 0 Z" fill-opacity="0.5882352941176471"/></g><g transform="translate(6,0)"><g transform="translate(0,552.4442085527457) rotate(1.837710647282968,0,0)"><path fill="rgb(255,255,0)" stroke="none" paint-order="stroke fill markers" d=" M 0 0 L 97.94795511803108 0 L 97.94795511803108 97.94795511803108 L 0 97.94795511803108 L 0 0 Z" fill-opacity="0.5882352941176471"/></g><g transform="translate(6,0)"><g transform="translate(0,545.2266385283714) rotate(1.883986252478386,0,0)"><path fill="rgb(0,255,0)" stroke="none" paint-order="stroke fill markers" d=" M 0 0 L 95.5420984432396 0 L 95.5420984432396 95.5420984432396 L 0 95.5420984432396 L 0 0 Z" fill-opacity="0.5882352941176471"/></g><g transform="translate(6,0)"><g transform="translate(0,572.5221293070123) rotate(1.7201736989786447,0,0)"><path fill="rgb(0,0,255)" stroke="none" paint-order="stroke fill markers" d=" M 0 0 L 104.64059536945324 0 L 104.64059536945324 104.64059536945324 L 0 104.64059536945324 L 0 0 Z" fill-opacity="0.5882352941176471"/></g><g transform="translate(6,0)"><g transform="translate(0,577.9793284735772) rotate(1.6907812501663586,0,0)"><path fill="rgb(75,0,130)" stroke="none" paint-order="stroke fill markers" d=" M 0 0 L 106.4596617583082 0 L 106.4596617583082 106.4596617583082 L 0 106.4596617583082 L 0 0 Z" fill-opacity="0.5882352941176471"/></g><g transform="translate(6,0)"><g transform="translate(0,560.6791965756056) rotate(1.7876127175514465,0,0)"><path fill="rgb(148,0,211)" stroke="none" paint-order="stroke fill markers" d=" M 0 0 L 100.692951125651 0 L 100.692951125651 100.692951125651 L 0 100.692951125651 L 0 0 Z" fill-opacity="0.5882352941176471"/></g><g transform="translate(6,0)"><g transform="translate(0,535.8901725512394) rotate(1.9474208674035614,0,0)"><path fill="rgb(255,0,0)" stroke="none" paint-order="stroke fill markers" d=" M 0 0 L 92.42994311752892 0 L 92.42994311752892 92.42994311752892 L 0 92.42994311752892 L 0 0 Z" fill-opacity="0.5882352941176471"/></g><g transform="translate(6,0)"><g transform="translate(0,490.8986560718242) rotate(2.324597166983408,0,0)"><path fill="rgb(255,127,0)" stroke="none" paint-order="stroke fill markers" d=" M 0 0 L 77.43277095772386 0 L 77.43277095772386 77.43277095772386 L 0 77.43277095772386 L 0 0 Z" fill-opacity="0.5882352941176471"/></g><g transform="translate(6,0)"><g transform="translate(0,462.7093261909332) rotate(2.6456454394289084,0,0)"><path fill="rgb(255,255,0)" stroke="none" paint-order="stroke fill markers" d=" M 0 0 L 68.03632766409355 0 L 68.03632766409355 68.03632766409355 L 0 68.03632766409355 L 0 0 Z" fill-opacity="0.5882352941176471"/></g><g transform="translate(6,0)"><g transform="translate(0,446.4065116019237) rotate(2.875304919913347,0,0)"><path fill="rgb(0,255,0)" stroke="none" paint-order="stroke fill markers" d=" M 0 0 L 62.6020561344237 0 L 62.6020561344237 62.6020561344237 L 0 62.6020561344237 L 0 0 Z" fill-opacity="0.5882352941176471"/></g><g transform="translate(6,0)"><g transform="translate(0,460.7702620688491) rotate(2.671020510953005,0,0)"><path fill="rgb(0,0,255)" stroke="none" paint-order="stroke fill markers" d=" M 0 0 L 67.38997295673218 0 L 67.38997295673218 67.38997295673218 L 0 67.38997295673218 L 0 0 Z" fill-opacity="0.5882352941176471"/></g><g transform="translate(6,0)"><g transform="translate(0,486.08480678060596) rotate(2.3737884842648165,0,0)"><path fill="rgb(75,0,130)" stroke="none" paint-order="stroke fill markers" d=" M 0 0 L 75.82815452731779 0 L 75.82815452731779 75.82815452731779 L 0 75.82815452731779 L 0 0 Z" fill-opacity="0.5882352941176471"/></g><g transform="translate(6,0)"><g transform="translate(0,469.0420355819358) rotate(2.5660314450260318,0,0)"><path fill="rgb(148,0,211)" stroke="none" paint-order="stroke fill markers" d=" M 0 0 L 70.14723079442776 0 L 70.14723079442776 70.14723079442776 L 0 70.14723079442776 L 0 0 Z" fill-opacity="0.5882352941176471"/></g><g transform="translate(6,0)"><g transform="translate(0,460.47403503430735) rotate(2.674939934420051,0,0)"><path fill="rgb(255,0,0)" stroke="none" paint-order="stroke fill markers" d=" M 0 0 L 67.29123061188493 0 L 67.29123061188493 67.29123061188493 L 0 67.29123061188493 L 0 0 Z" fill-opacity="0.5882352941176471"/></g><g transform="translate(6,0)"><g transform="translate(0,482.36030883775663) rotate(2.4133003348371544,0,0)"><path fill="rgb(255,127,0)" stroke="none" paint-order="stroke fill markers" d=" M 0 0 L 74.58665521303469 0 L 74.58665521303469 74.58665521303469 L 0 74.58665521303469 L 0 0 Z" fill-opacity="0.5882352941176471"/></g><g transform="translate(6,0)"><g transform="translate(0,487.841675215918) rotate(2.355596153835512,0,0)"><path fill="rgb(255,255,0)" stroke="none" paint-order="stroke fill markers" d=" M 0 0 L 76.41377733908847 0 L 76.41377733908847 76.41377733908847 L 0 76.41377733908847 L 0 0 Z" fill-opacity="0.5882352941176471"/></g><g transform="translate(6,0)"><g transform="translate(0,499.3282793565443) rotate(2.2431962347976846,0,0)"><path fill="rgb(0,255,0)" stroke="none" paint-order="stroke fill markers" d=" M 0 0 L 80.2426453859639 0 L 80.2426453859639 80.2426453859639 L 0 80.2426453859639 L 0 0 Z" fill-opacity="0.5882352941176471"/></g><g transform="translate(6,0)"><g transform="translate(0,511.33301602223764) rotate(2.1366449931740172,0,0)"><path fill="rgb(0,0,255)" stroke="none" paint-order="stroke fill markers" d=" M 0 0 L 84.24422427452835 0 L 84.24422427452835 84.24422427452835 L 0 84.24422427452835 L 0 0 Z" fill-opacity="0.5882352941176471"/></g><g transform="translate(6,0)"><g transform="translate(0,511.50589455933425) rotate(2.135184447690822,0,0)"><path fill="rgb(75,0,130)" stroke="none" paint-order="stroke fill markers" d=" M 0 0 L 84.30185045356056 0 L 84.30185045356056 84.30185045356056 L 0 84.30185045356056 L 0 0 Z" fill-opacity="0.5882352941176471"/></g><g transform="translate(6,0)"><g transform="translate(0,510.7463939089007) rotate(2.1416159344115098,0,0)"><path fill="rgb(148,0,211)" stroke="none" paint-order="stroke fill markers" d=" M 0 0 L 84.04868357008272 0 L 84.04868357008272 84.04868357008272 L 0 84.04868357008272 L 0 0 Z" fill-opacity="0.5882352941176471"/></g><g transform="translate(6,0)"><g transform="translate(0,525.6106802838958) rotate(2.0223936117784254,0,0)"><path fill="rgb(255,0,0)" stroke="none" paint-order="stroke fill markers" d=" M 0 0 L 89.0034456950811 0 L 89.0034456950811 89.0034456950811 L 0 89.0034456950811 L 0 0 Z" fill-opacity="0.5882352941176471"/></g><g transform="translate(6,0)"><g transform="translate(0,523.5550007512744) rotate(2.0380845726131547,0,0)"><path fill="rgb(255,127,0)" stroke="none" paint-order="stroke fill markers" d=" M 0 0 L 88.31821918420728 0 L 88.31821918420728 88.31821918420728 L 0 88.31821918420728 L 0 0 Z" fill-opacity="0.5882352941176471"/></g><g transform="translate(6,0)"><g transform="translate(0,514.3027467890139) rotate(2.111829972725197,0,0)"><path fill="rgb(255,255,0)" stroke="none" paint-order="stroke fill markers" d=" M 0 0 L 85.23413453012044 0 L 85.23413453012044 85.23413453012044 L 0 85.23413453012044 L 0 0 Z" fill-opacity="0.5882352941176471"/></g><g transform="translate(6,0)"><g transform="translate(0,512.2755549850951) rotate(2.12870621531047,0,0)"><path fill="rgb(0,255,0)" stroke="none" paint-order="stroke fill markers" d=" M 0 0 L 84.55840392881417 0 L 84.55840392881417 84.55840392881417 L 0 84.55840392881417 L 0 0 Z" fill-opacity="0.5882352941176471"/></g><g transform="translate(6,0)"><g transform="translate(0,515.2797741451891) rotate(2.1037914803250284,0,0)"><path fill="rgb(0,0,255)" stroke="none" paint-order="stroke fill markers" d=" M 0 0 L 85.5598103155122 0 L 85.5598103155122 85.5598103155122 L 0 85.5598103155122 L 0 0 Z" fill-opacity="0.5882352941176471"/></g><g transform="translate(6,0)"><g transform="translate(0,527.5346638315316) rotate(2.0079252016969287,0,0)"><path fill="rgb(75,0,130)" stroke="none" paint-order="stroke fill markers" d=" M 0 0 L 89.644773544293 0 L 89.644773544293 89.644773544293 L 0 89.644773544293 L 0 0 Z" fill-opacity="0.5882352941176471"/></g><g transform="translate(6,0)"><g transform="translate(0,514.2366844052523) rotate(2.1123757187699064,0,0)"><path fill="rgb(148,0,211)" stroke="none" paint-order="stroke fill markers" d=" M 0 0 L 85.21211373553322 0 L 85.21211373553322 85.21211373553322 L 0 85.21211373553322 L 0 0 Z" fill-opacity="0.5882352941176471"/></g><g transform="translate(6,0)"><g transform="translate(0,491.72020979183384) rotate(2.3164048945787914,0,0)"><path fill="rgb(255,0,0)" stroke="none" paint-order="stroke fill markers" d=" M 0 0 L 77.70662219772709 0 L 77.70662219772709 77.70662219772709 L 0 77.70662219772709 L 0 0 Z" fill-opacity="0.5882352941176471"/></g><g transform="translate(6,0)"><g transform="translate(0,478.4605856070739) rotate(2.4561057246397198,0,0)"><path fill="rgb(255,127,0)" stroke="none" paint-order="stroke fill markers" d=" M 0 0 L 73.28674746947377 0 L 73.28674746947377 73.28674746947377 L 0 73.28674746947377 L 0 0 Z" fill-opacity="0.5882352941176471"/></g><g transform="translate(6,0)"><g transform="translate(0,453.35177900330217) rotate(2.7727651802354916,0,0)"><path fill="rgb(255,255,0)" stroke="none" paint-order="stroke fill markers" d=" M 0 0 L 64.91714526821653 0 L 64.91714526821653 64.91714526821653 L 0 64.91714526821653 L 0 0 Z" fill-opacity="0.5882352941176471"/></g><g transform="translate(6,0)"><g transform="translate(0,447.5811210967279) rotate(2.857433470250837,0,0)"><path fill="rgb(0,255,0)" stroke="none" paint-order="stroke fill markers" d=" M 0 0 L 62.99359263269178 0 L 62.99359263269178 62.99359263269178 L 0 62.99359263269178 L 0 0 Z" fill-opacity="0.5882352941176471"/></g><g transform="translate(6,0)"><g transform="translate(0,464.3628796735544) rotate(2.6243844445700026,0,0)"><path fill="rgb(0,0,255)" stroke="none" paint-order="stroke fill markers" d=" M 0 0 L 68.5875121583006 0 L 68.5875121583006 68.5875121583006 L 0 68.5875121583006 L 0 0 Z" fill-opacity="0.5882352941176471"/></g><g transform="translate(6,0)"><g transform="translate(0,476.00595950256) rotate(2.4838364766305925,0,0)"><path fill="rgb(75,0,130)" stroke="none" paint-order="stroke fill markers" d=" M 0 0 L 72.46853876796915 0 L 72.46853876796915 72.46853876796915 L 0 72.46853876796915 L 0 0 Z" fill-opacity="0.5882352941176471"/></g><g transform="translate(6,0)"><g transform="translate(0,489.2926543347003) rotate(2.340780225143881,0,0)"><path fill="rgb(148,0,211)" stroke="none" paint-order="stroke fill markers" d=" M 0 0 L 76.89743704534924 0 L 76.89743704534924 76.89743704534924 L 0 76.89743704534924 L 0 0 Z" fill-opacity="0.5882352941176471"/></g><g transform="translate(6,0)"><g transform="translate(0,510.2086236055794) rotate(2.1461932776085764,0,0)"><path fill="rgb(255,0,0)" stroke="none" paint-order="stroke fill markers" d=" M 0 0 L 83.86942680230894 0 L 83.86942680230894 83.86942680230894 L 0 83.86942680230894 L 0 0 Z" fill-opacity="0.5882352941176471"/></g><g transform="translate(6,0)"><g transform="translate(0,513.4774891403036) rotate(2.118667791907957,0,0)"><path fill="rgb(255,127,0)" stroke="none" paint-order="stroke fill markers" d=" M 0 0 L 84.95904864721703 0 L 84.95904864721703 84.95904864721703 L 0 84.95904864721703 L 0 0 Z" fill-opacity="0.5882352941176471"/></g><g transform="translate(6,0)"/></g></g></g></g></g></g></g></g></g></g></g></g></g></g></g></g></g></g></g></g></g></g></g></g></g></g></g></g></g></g></g></g></g></g></g></g></g></g></g></g></g></g></g></g></g></g></g></g></g></g></g></g></g></g></g></g></g></g></g></g></g></g></g></g></g></g></g></g></g></g></g></g></g></g></g></g></g></g></g></g></g></g></g></g></g></g></g></g></g></g></g></g></g></g></g></g></g></g></g></g></g></svg>