<svg version="1.1" xmlns="http://www.w3.org/2000/svg" xmlns:xlink="http://www.w3.org/1999/xlink" width="600" height="600" viewBox="0 0 600 600"><defs/><g transform="scale(1,1)"><g transform="scale(1,1)"><rect fill="rgb(0,0,0)" stroke="none" x="0" y="0" width="600" height="600" fill-opacity="1"/></g><g><g transform="translate(0,300) rotate(0,0,0)"><path fill="rgb(255,0,0)" stroke="none" paint-order="stroke fill markers" d=" M 0 0 L 173.17042231845804 0 L 173.17042231845804 173.17042231845804 L 0 173.17042231845804 L 0 0 Z" fill-opacity="0.5882352941176471"/></g><g transform="translate(6,0)"><g transform="translate(0,293.05473584105596) rotate(57.29577951308232,0,0)"><path fill="rgb(255,127,0)" stroke="none" paint-order="stroke fill markers" d=" M 0 0 L 170.8553342654767 0 L 170.8553342654767 170.8553342654767 L 0 170.8553342654767 L 0 0 Z" fill-opacity="0.5882352941176471"/></g><g transform="translate(6,0)"><g transform="translate(0,277.92058608774107) rotate(114.59155902616465,0,0)"><path fill="rgb(255,255,0)" stroke="none" paint-order="stroke fill markers" d=" M 0 0 L 165.8106176810384 0 L 165.8106176810384 165.8106176810384 L 0 165.8106176810384 L 0 0 Z" fill-opacity="0.5882352941176471"/></g><g transform="translate(6,0)"><g transform="translate(0,262.0987145201677) rotate(171.88733853924697,0,0)"><path fill="rgb(0,255,0)" stroke="none" paint-order="stroke fill markers" d=" M 0 0 L 160.53666049184727 0 L 160.53666049184727 160.53666049184727 L 0 160.53666049184727 L 0 0 Z" fill-opacity="0.5882352941176471"/></g><g transform="translate(6,0)"><g transform="translate(0,238.43938414043396) rotate(229.1831180523293,0,0)"><path fill="rgb(0,0,255)" stroke="none" paint-order="stroke fill markers" d=" M 0 0 L 152.65021703193602 0 L 152.65021703193602 152.65021703193602 L 0 152.65021703193602 L 0 0 Z" fill-opacity="0.5882352941176471"/></g><g transform="translate(6,0)"><g transform="translate(0,220.155805503755) rotate(286.4788975654116,0,0)"><path fill="rgb(75,0,130)" stroke="none" paint-order="stroke fill markers" d=" M 0 0 L 146.55569081970972 0 L 146.55569081970972 146.55569081970972 L 0 146.55569081970972 L 0 0 Z" fill-opacity="0.5882352941176471"/></g><g transform="translate(6,0)"><g transform="translate(0,208.93429232084378) rotate(343.77467707849394,0,0)"><path fill="rgb(148,0,211)" stroke="none" paint-order="stroke fill markers" d=" M 0 0 L 142.81518642540598 0 L 142.81518642540598 142.81518642540598 L 0 142.81518642540598 L 0 0 Z" fill-opacity="0.5882352941176471"/></g><g transform="translate(6,0)"><g transform="translate(0,194.40755636644616) rotate(401.07045659157626,0,0)"><path fill="rgb(255,0,0)" stroke="none" paint-order="stroke fill markers" d=" M 0 0 L 137.97294110727344 0 L 137.97294110727344 137.97294110727344 L 0 137.97294110727344 L 0 0 Z" fill-opacity="0.5882352941176471"/></g><g transform="translate(6,0)"><g transform="translate(0,175.63461310149) rotate(458.3662361046586,0,0)"><path fill="rgb(255,127,0)" stroke="none" paint-order="stroke fill markers" d=" M 0 0 L 131.71529335228806 0 L 131.71529335228806 131.71529335228806 L 0 131.71529335228806 L 0 0 Z" fill-opacity="0.5882352941176471"/></g><g transform="translate(6,0)"><g transform="translate(0,165.7600996822544) rotate(515.662015617741,0,0)"><path fill="rgb(255,255,0)" stroke="none" paint-order="stroke fill markers" d=" M 0 0 L 128.42378887920952 0 L 128.42378887920952 128.42378887920952 L 0 128.42378887920952 L 0 0 Z" fill-opacity="0.5882352941176471"/></g><g transform="translate(6,0)"><g transform="translate(0,159.94496101114134) rotate(572.9577951308232,0,0)"><path fill="rgb(0,255,0)" stroke="none" paint-order="stroke fill markers" d=" M 0 0 L 126.48540932217183 0 L 126.48540932217183 126.48540932217183 L 0 126.48540932217183 L 0 0 Z" fill-opacity="0.5882352941176471"/></g><g transform="translate(6,0)"><g transform="translate(0,152.8236616024251) rotate(630.2535746439056,0,0)"><path fill="rgb(0,0,255)" stroke="none" paint-order="stroke fill markers" d=" M 0 0 L 124.11164285259974 0 L 124.11164285259974 124.11164285259974 L 0 124.11164285259974 L 0 0 Z" fill-opacity="0.5882352941176471"/></g><g transform="translate(6,0)"><g transform="translate(0,144.99017638073525) rotate(687.5493541569879,0,0)"><path fill="rgb(75,0,130)" stroke="none" paint-order="stroke fill markers" d=" M 0 0 L 121.50048111203647 0 L 121.50048111203647 121.50048111203647 L 0 121.50048111203647 L 0 0 Z" fill-opacity="0.5882352941176471"/></g><g transform="translate(6,0)"><g transform="translate(0,136.5941174558605) rotate(744.8451336700703,0,0)"><path fill="rgb(148,0,211)" stroke="none" paint-order="stroke fill markers" d=" M 0 0 L 118.70179480374487 0 L 118.70179480374487 118.70179480374487 L 0 118.70179480374487 L 0 0 Z" fill-opacity="0.5882352941176471"/></g><g transform="translate(6,0)"><g transform="translate(0,124.0022839478076) rotate(802.1409131831525,0,0)"><path fill="rgb(255,0,0)" stroke="none" paint-order="stroke fill markers" d=" M 0 0 L 114.50451696772724 0 L 114.50451696772724 114.50451696772724 L 0 114.50451696772724 L 0 0 Z" fill-opacity="0.5882352941176471"/></g><g transform="translate(6,0)"><g transform="translate(0,108.95698472149223) rotate(859.4366926962349,0,0)"><path fill="rgb(255,127,0)" stroke="none" paint-order="stroke fill markers" d=" M 0 0 L 109.48941722562212 0 L 109.48941722562212 109.48941722562212 L 0 109.48941722562212 L 0 0 Z" fill-opacity="0.5882352941176471"/></g><g transform="translate(6,0)"><g transform="translate(0,97.2830705570641) rotate(916.7324722093172,0,0)"><path fill="rgb(255,255,0)" stroke="none" paint-order="stroke fill markers" d=" M 0 0 L 105.59811250414607 0 L 105.59811250414607 105.59811250414607 L 0 105.59811250414607 L 0 0 Z" fill-opacity="0.5882352941176471"/></g><g transform="translate(6,0)"><g transform="translate(0,92.00774875509342) rotate(974.0282517223995,0,0)"><path fill="rgb(0,255,0)" stroke="none" paint-order="stroke fill markers" d=" M 0 0 L 103.83967190348919 0 L 103.83967190348919 103.83967190348919 L 0 103.83967190348919 L 0 0 Z" fill-opacity="0.5882352941176471"/></g><g transform="translate(6,0)"><g transform="translate(0,90.84209828946871) rotate(1031.324031235482,0,0)"><path fill="rgb(0,0,255)" stroke="none" paint-order="stroke fill markers" d=" M 0 0 L 103.45112174828095 0 L 103.45112174828095 103.45112174828095 L 0 103.45112174828095 L 0 0 Z" fill-opacity="0.5882352941176471"/></g><g transform="translate(6,0)"><g transform="translate(0,92.28132163399584) rotate(1088.619810748564,0,0)"><path fill="rgb(75,0,130)" stroke="none" paint-order="stroke fill markers" d=" M 0 0 L 103.93086286312332 0 L 103.93086286312332 103.93086286312332 L 0 103.93086286312332 L 0 0 Z" fill-opacity="0.5882352941176471"/></g><g transform="translate(6,0)"><g transform="translate(0,93.27872366395252) rotate(1145.9155902616465,0,0)"><path fill="rgb(148,0,211)" stroke="none" paint-order="stroke fill markers" d=" M 0 0 L 104.26333020644222 0 L 104.26333020644222 104.26333020644222 L 0 104.26333020644222 L 0 0 Z" fill-opacity="0.5882352941176471"/></g><g transform="translate(6,0)"><g transform="translate(0,91.26297059008351) rotate(1203.2113697747288,0,0)"><path fill="rgb(255,0,0)" stroke="none" paint-order="stroke fill markers" d=" M 0 0 L 103.59141251515256 0 L 103.59141251515256 103.59141251515256 L 0 103.59141251515256 L 0 0 Z" fill-opacity="0.5882352941176471"/></g><g transform="translate(6,0)"><g transform="translate(0,87.54604172555202) rotate(1260.5071492878112,0,0)"><path fill="rgb(255,127,0)" stroke="none" paint-order="stroke fill markers" d=" M 0 0 L 102.35243622697539 0 L 102.35243622697539 102.35243622697539 L 0 102.35243622697539 L 0 0 Z" fill-opacity="0.5882352941176471"/></g><g transform="translate(6,0)"><g transform="translate(0,85.86812885076677) rotate(1317.8029288008934,0,0)"><path fill="rgb(255,255,0)" stroke="none" paint-order="stroke fill markers" d=" M 0 0 L 101.7931319353803 0 L 101.7931319353803 101.7931319353803 L 0 101.7931319353803 L 0 0 Z" fill-opacity="0.5882352941176471"/></g><g transform="translate(6,0)"><g transform="translate(0,86.03253141723451) rotate(1375.0987083139757,0,0)"><path fill="rgb(0,255,0)" stroke="none" paint-order="stroke fill markers" d=" M 0 0 L 101.84793279086955 0 L 101.84793279086955 101.84793279086955 L 0 101.84793279086955 L 0 0 Z" fill-opacity="0.5882352941176471"/></g><g transform="translate(6,0)"><g transform="translate(0,85.42654457363636) rotate(1432.3944878270581,0,0)"><path fill="rgb(0,0,255)" stroke="none" paint-order="stroke fill markers" d=" M 0 0 L 101.64593717633683 0 L 101.64593717633683 101.64593717633683 L 0 101.64593717633683 L 0 0 Z" fill-opacity="0.5882352941176471"/></g><g transform="translate(6,0)"><g transform="translate(0,85.74424686419752) rotate(1489.6902673401405,0,0)"><path fill="rgb(75,0,130)" stroke="none" paint-order="stroke fill markers" d=" M 0 0 L 101.75183793985723 0 L 101.75183793985723 101.75183793985723 L 0 101.75183793985723 L 0 0 Z" fill-opacity="0.5882352941176471"/></g><g transform="translate(6,0)"><g transform="translate(0,85.49771781629187) rotate(1546.9860468532227,0,0)"><path fill="rgb(148,0,211)" stroke="none" paint-order="stroke fill markers" d=" M 0 0 L 101.66966159055534 0 L 101.66966159055534 101.66966159055534 L 0 101.66966159055534 L 0 0 Z" fill-opacity="0.5882352941176471"/></g><g transform="translate(6,0)"><g transform="translate(0,75.07725637806135) rotate(1604.281826366305,0,0)"><path fill="rgb(255,0,0)" stroke="none" paint-order="stroke fill markers" d=" M 0 0 L 98.1961744444785 0 L 98.1961744444785 98.1961744444785 L 0 98.1961744444785 L 0 0 Z" fill-opacity="0.5882352941176471"/></g><g transform="translate(6,0)"><g transform="translate(0,47.08451888325112) rotate(1661.5776058793874,0,0)"><path fill="rgb(255,127,0)" stroke="none" paint-order="stroke fill markers" d=" M 0 0 L 88.86526194620842 0 L 88.86526194620842 88.86526194620842 L 0 88.86526194620842 L 0 0 Z" fill-opacity="0.5882352941176471"/></g><g transform="translate(6,0)"><g transform="translate(0,25.272844751393677) rotate(1718.8733853924698,0,0)"><path fill="rgb(255,255,0)" stroke="none" paint-order="stroke fill markers" d=" M 0 0 L 81.59470390225594 0 L 81.59470390225594 81.59470390225594 L 0 81.59470390225594 L 0 0 Z" fill-opacity="0.5882352941176471"/></g><g transform="translate(6,0)"><g transform="translate(0,25.868579146100984) rotate(1776.169164905552,0,0)"><path fill="rgb(0,255,0)" stroke="none" paint-order="stroke fill markers" d=" M 0 0 L 81.79328203382504 0 L 81.79328203382504 81.79328203382504 L 0 81.79328203382504 L 0 0 Z" fill-opacity="0.5882352941176471"/></g><g transform="translate(6,0)"><g transform="translate(0,35.699243849558144) rotate(1833.4649444186343,0,0)"><path fill="rgb(0,0,255)" stroke="none" paint-order="stroke fill markers" d=" M 0 0 L 85.07017026831076 0 L 85.07017026831076 85.07017026831076 L 0 85.07017026831076 L 0 0 Z" fill-opacity="0.5882352941176471"/></g><g transform="translate(6,0)"><g transform="translate(0,34.81461524073245) rotate(1890.7607239317167,0,0)"><path fill="rgb(75,0,130)" stroke="none" paint-order="stroke fill markers" d=" M 0 0 L 84.77529406536887 0 L 84.77529406536887 84.77529406536887 L 0 84.77529406536887 L 0 0 Z" fill-opacity="0.5882352941176471"/></g><g transform="translate(6,0)"><g transform="translate(0,30.960837302314758) rotate(1948.056503444799,0,0)"><path fill="rgb(148,0,211)" stroke="none" paint-order="stroke fill markers" d=" M 0 0 L 83.49070141922964 0 L 83.49070141922964 83.49070141922964 L 0 83.49070141922964 L 0 0 Z" fill-opacity="0.5882352941176471"/></g><g transform="translate(6,0)"><g transform="translate(0,29.73710851831285) rotate(2005.3522829578812,0,0)"><path fill="rgb(255,0,0)" stroke="none" paint-order="stroke fill markers" d=" M 0 0 L 83.08279182456234 0 L 83.08279182456234 83.08279182456234 L 0 83.08279182456234 L 0 0 Z" fill-opacity="0.5882352941176471"/></g><g transform="translate(6,0)"><g transform="translate(0,22.92121912600814) rotate(2062.648062470964,0,0)"><path fill="rgb(255,127,0)" stroke="none" paint-order="stroke fill markers" d=" M 0 0 L 80.8108286937941 0 L 80.8108286937941 80.8108286937941 L 0 80.8108286937941 L 0 0 Z" fill-opacity="0.5882352941176471"/></g><g transform="translate(6,0)"><g transform="translate(0,11.702354889609438) rotate(2119.943841984046,0,0)"><path fill="rgb(255,255,0)" stroke="none" paint-order="stroke fill markers" d=" M 0 0 L 77.07120728166119 0 L 77.07120728166119 77.07120728166119 L 0 77.07120728166119 L 0 0 Z" fill-opacity="0.5882352941176471"/></g><g transform="translate(6,0)"><g transform="translate(0,13.516923912756454) rotate(2177.239621497128,0,0)"><path fill="rgb(0,255,0)" stroke="none" paint-order="stroke fill markers" d=" M 0 0 L 77.6760636227102 0 L 77.6760636227102 77.6760636227102 L 0 77.6760636227102 L 0 0 Z" fill-opacity="0.5882352941176471"/></g><g transform="translate(6,0)"><g transform="translate(0,23.06797786190654) rotate(2234.5354010102105,0,0)"><path fill="rgb(0,0,255)" stroke="none" paint-order="stroke fill markers" d=" M 0 0 L 80.8597482724269 0 L 80.8597482724269 80.8597482724269 L 0 80.8597482724269 L 0 0 Z" fill-opacity="0.5882352941176471"/></g><g transform="translate(6,0)"><g transform="translate(0,28.420921419739983) rotate(2291.831180523293,0,0)"><path fill="rgb(75,0,130)" stroke="none" paint-order="stroke fill markers" d=" M 0 0 L 82.64406279170471 0 L 82.64406279170471 82.64406279170471 L 0 82.64406279170471 L 0 0 Z" fill-opacity="0.5882352941176471"/></g><g transform="translate(6,0)"><g transform="translate(0,32.884597866149704) rotate(2349.1269600363753,0,0)"><path fill="rgb(148,0,211)" stroke="none" paint-order="stroke fill markers" d=" M 0 0 L 84.13195494050795 0 L 84.13195494050795 84.13195494050795 L 0 84.13195494050795 L 0 0 Z" fill-opacity="0.5882352941176471"/></g><g transform="translate(6,0)"><g transform="translate(0,39.527439358820686) rotate(2406.4227395494577,0,0)"><path fill="rgb(255,0,0)" stroke="none" paint-order="stroke fill markers" d=" M 0 0 L 86.34623543806494 0 L 86.34623543806494 86.34623543806494 L 0 86.34623543806494 L 0 0 Z" fill-opacity="0.5882352941176471"/></g><g transform="translate(6,0)"><g transform="translate(0,36.939190739397304) rotate(2463.71851906254,0,0)"><path fill="rgb(255,127,0)" stroke="none" paint-order="stroke fill markers" d=" M 0 0 L 85.48348589825714 0 L 85.48348589825714 85.48348589825714 L 0 85.48348589825714 L 0 0 Z" fill-opacity="0.5882352941176471"/></g><g transform="translate(6,0)"><g transform="translate(0,23.010051148509575) rotate(2521.0142985756224,0,0)"><path fill="rgb(255,255,0)" stroke="none" paint-order="stroke fill markers" d=" M 0 0 L 80.84043936796124 0 L 80.84043936796124 80.84043936796124 L 0 80.84043936796124 L 0 0 Z" fill-opacity="0.5882352941176471"/></g><g transform="translate(6,0)"><g transform="translate(0,16.168730560997574) rotate(2578.3100780887044,0,0)"><path fill="rgb(0,255,0)" stroke="none" paint-order="stroke fill markers" d=" M 0 0 L 78.55999917212391 0 L 78.55999917212391 78.55999917212391 L 0 78.55999917212391 L 0 0 Z" fill-opacity="0.5882352941176471"/></g><g transform="translate(6,0)"><g transform="translate(0,19.663615190485245) rotate(2635.6058576017867,0,0)"><path fill="rgb(0,0,255)" stroke="none" paint-order="stroke fill markers" d=" M 0 0 L 79.72496071528646 0 L 79.72496071528646 79.72496071528646 L 0 79.72496071528646 L 0 0 Z" fill-opacity="0.5882352941176471"/></g><g transform="translate(6,0)"><g transform="translate(0,24.857611001263336) rotate(2692.901637114869,0,0)"><path fill="rgb(75,0,130)" stroke="none" paint-order="stroke fill markers" d=" M 0 0 L 81.4562926522125 0 L 81.4562926522125 81.4562926522125 L 0 81.4562926522125 L 0 0 Z" fill-opacity="0.5882352941176471"/></g><g transform="translate(6,0)"><g transform="translate(0,31.745862878452243) rotate(2750.1974166279515,0,0)"><path fill="rgb(148,0,211)" stroke="none" paint-order="stroke fill markers" d=" M 0 0 L 83.75237661127547 0 L 83.75237661127547 83.75237661127547 L 0 83.75237661127547 L 0 0 Z" fill-opacity="0.5882352941176471"/></g><g transform="translate(6,0)"><g transform="translate(0,41.658817809189145) rotate(2807.493196141034,0,0)"><path fill="rgb(255,0,0)" stroke="none" paint-order="stroke fill markers" d=" M 0 0 L 87.0566949215211 0 L 87.0566949215211 87.0566949215211 L 0 87.0566949215211 L 0 0 Z" fill-opacity="0.5882352941176471"/></g><g transform="translate(6,0)"><g transform="translate(0,49.867173533531) rotate(2864.7889756541163,0,0)"><path fill="rgb(255,127,0)" stroke="none" paint-order="stroke fill markers" d=" M 0 0 L 89.79281349630172 0 L 89.79281349630172 89.79281349630172 L 0 89.79281349630172 L 0 0 Z" fill-opacity="0.5882352941176471"/></g><g transform="translate(6,0)"><g transform="translate(0,65.56176451143716) rotate(2922.0847551671986,0,0)"><path fill="rgb(255,255,0)" stroke="none" paint-order="stroke fill markers" d=" M 0 0 L 95.02434382227044 0 L 95.02434382227044 95.02434382227044 L 0 95.02434382227044 L 0 0 Z" fill-opacity="0.5882352941176471"/></g><g transform="translate(6,0)"><g transform="translate(0,88.72826258135512) rotate(2979.380534680281,0,0)"><path fill="rgb(0,255,0)" stroke="none" paint-order="stroke fill markers" d=" M 0 0 L 102.74650984557643 0 L 102.74650984557643 102.74650984557643 L 0 102.74650984557643 L 0 0 Z" fill-opacity="0.5882352941176471"/></g><g transform="translate(6,0)"><g transform="translate(0,100.61542057283862) rotate(3036.676314193363,0,0)"><path fill="rgb(0,0,255)" stroke="none" paint-order="stroke fill markers" d=" M 0 0 L 106.70889584273759 0 L 106.70889584273759 106.70889584273759 L 0 106.70889584273759 L 0 0 Z" fill-opacity="0.5882352941176471"/></g><g transform="translate(6,0)"><g transform="translate(0,106.22308995341956) rotate(3093.9720937064453,0,0)"><path fill="rgb(75,0,130)" stroke="none" paint-order="stroke fill markers" d=" M 0 0 L 108.5781189695979 0 L 108.5781189695979 108.5781189695979 L 0 108.5781189695979 L 0 0 Z" fill-opacity="0.5882352941176471"/></g><g transform="translate(6,0)"><g transform="translate(0,108.74483740697508) rotate(3151.2678732195277,0,0)"><path fill="rgb(148,0,211)" stroke="none" paint-order="stroke fill markers" d=" M 0 0 L 109.4187014541164 0 L 109.4187014541164 109.4187014541164 L 0 109.4187014541164 L 0 0 Z" fill-opacity="0.5882352941176471"/></g><g transform="translate(6,0)"><g transform="translate(0,103.75583260861413) rotate(3208.56365273261,0,0)"><path fill="rgb(255,0,0)" stroke="none" paint-order="stroke fill markers" d=" M 0 0 L 107.75569985466275 0 L 107.75569985466275 107.75569985466275 L 0 107.75569985466275 L 0 0 Z" fill-opacity="0.5882352941176471"/></g><g transform="translate(6,0)"><g transform="translate(0,88.16154552762873) rotate(3265.8594322456925,0,0)"><path fill="rgb(255,127,0)" stroke="none" paint-order="stroke fill markers" d=" M 0 0 L 102.55760416100095 0 L 102.55760416100095 102.55760416100095 L 0 102.55760416100095 L 0 0 Z" fill-opacity="0.5882352941176471"/></g><g transform="translate(6,0)"><g transform="translate(0,68.56949048690745) rotate(3323.155211758775,0,0)"><path fill="rgb(255,255,0)" stroke="none" paint-order="stroke fill markers" d=" M 0 0 L 96.0269191474272 0 L 96.0269191474272 96.0269191474272 L 0 96.0269191474272 L 0 0 Z" fill-opacity="0.5882352941176471"/></g><g transform="translate(6,0)"><g transform="translate(0,52.90498359120187) rotate(3380.450991271857,0,0)"><path fill="rgb(0,255,0)" stroke="none" paint-order="stroke fill markers" d=" M 0 0 L 90.80541684885867 0 L 90.80541684885867 90.80541684885867 L 0 90.80541684885867 L 0 0 Z" fill-opacity="0.5882352941176471"/></g><g transform="translate(6,0)"><g transform="translate(0,46.98729069352777) rotate(3437.7467707849396,0,0)"><path fill="rgb(0,0,255)" stroke="none" paint-order="stroke fill markers" d=" M 0 0 L 88.83285254963397 0 L 88.83285254963397 88.83285254963397 L 0 88.83285254963397 L 0 0 Z" fill-opacity="0.5882352941176471"/></g><g transform="translate(6,0)"><g transform="translate(0,51.04622171472039) rotate(3495.0425502980215,0,0)"><path fill="rgb(75,0,130)" stroke="none" paint-order="stroke fill markers" d=" M 0 0 L 90.18582955669818 0 L 90.18582955669818 90.18582955669818 L 0 90.18582955669818 L 0 0 Z" fill-opacity="0.5882352941176471"/></g><g transform="translate(6,0)"><g transform="translate(0,64.07348575829195) rotate(3552.338329811104,0,0)"><path fill="rgb(148,0,211)" stroke="none" paint-order="stroke fill markers" d=" M 0 0 L 94.52825090455536 0 L 94.52825090455536 94.52825090455536 L 0 94.52825090455536 L 0 0 Z" fill-opacity="0.5882352941176471"/></g><g transform="translate(6,0)"><g transform="translate(0,83.93611249216133) rotate(3609.6341093241863,0,0)"><path fill="rgb(255,0,0)" stroke="none" paint-order="stroke fill markers" d=" M 0 0 L 101.14912648251182 0 L 101.14912648251182 101.14912648251182 L 0 101.14912648251182 L 0 0 Z" fill-opacity="0.5882352941176471"/></g><g transform="translate(6,0)"><g transform="translate(0,98.39119266596623) rotate(3666.9298888372687,0,0)"><path fill="rgb(255,127,0)" stroke="none" paint-order="stroke fill markers" d=" M 0 0 L 105.96748654044679 0 L 105.96748654044679 105.96748654044679 L 0 105.96748654044679 L 0 0 Z" fill-opacity="0.5882352941176471"/></g><g transform="translate(6,0)"><g transform="translate(0,107.17130499276254) rotate(3724.225668350351,0,0)"><path fill="rgb(255,255,0)" stroke="none" paint-order="stroke fill markers" d=" M 0 0 L 108.8941906493789 0 L 108.8941906493789 108.8941906493789 L 0 108.8941906493789 L 0 0 Z" fill-opacity="0.5882352941176471"/></g><g transform="translate(6,0)"><g transform="translate(0,115.58808356502777) rotate(3781.5214478634334,0,0)"><path fill="rgb(0,255,0)" stroke="none" paint-order="stroke fill markers" d=" M 0 0 L 111.69978350680064 0 L 111.69978350680064 111.69978350680064 L 0 111.69978350680064 L 0 0 Z" fill-opacity="0.5882352941176471"/></g><g transform="translate(6,0)"><g transform="translate(0,124.35541005942468) rotate(3838.817227376516,0,0)"><path fill="rgb(0,0,255)" stroke="none" paint-order="stroke fill markers" d=" M 0 0 L 114.62222567159961 0 L 114.62222567159961 114.62222567159961 L 0 114.62222567159961 L 0 0 Z" fill-opacity="0.5882352941176471"/></g><g transform="translate(6,0)"><g transform="translate(0,128.07071384529058) rotate(3896.113006889598,0,0)"><path fill="rgb(75,0,130)" stroke="none" paint-order="stroke fill markers" d=" M 0 0 L 115.86066026688825 0 L 115.86066026688825 115.86066026688825 L 0 115.86066026688825 L 0 0 Z" fill-opacity="0.5882352941176471"/></g><g transform="translate(6,0)"><g transform="translate(0,121.86539534022415) rotate(3953.40878640268,0,0)"><path fill="rgb(148,0,211)" stroke="none" paint-order="stroke fill markers" d=" M 0 0 L 113.79222076519943 0 L 113.79222076519943 113.79222076519943 L 0 113.79222076519943 L 0 0 Z" fill-opacity="0.5882352941176471"/></g><g transform="translate(6,0)"><g transform="translate(0,122.03917189688252) rotate(4010.7045659157625,0,0)"><path fill="rgb(255,0,0)" stroke="none" paint-order="stroke fill markers" d=" M 0 0 L 113.85014628408555 0 L 113.85014628408555 113.85014628408555 L 0 113.85014628408555 L 0 0 Z" fill-opacity="0.5882352941176471"/></g><g transform="translate(6,0)"><g transform="translate(0,135.19859609586211) rotate(4068.000345428845,0,0)"><path fill="rgb(255,127,0)" stroke="none" paint-order="stroke fill markers" d=" M 0 0 L 118.23662101707875 0 L 118.23662101707875 118.23662101707875 L 0 118.23662101707875 L 0 0 Z" fill-opacity="0.5882352941176471"/></g><g transform="translate(6,0)"><g transform="translate(0,146.2598508145952) rotate(4125.296124941928,0,0)"><path fill="rgb(255,255,0)" stroke="none" paint-order="stroke fill markers" d=" M 0 0 L 121.92370592332311 0 L 121.92370592332311 121.92370592332311 L 0 121.92370592332311 L 0 0 Z" fill-opacity="0.5882352941176471"/></g><g transform="translate(6,0)"><g transform="translate(0,141.27239046741425) rotate(4182.591904455009,0,0)"><path fill="rgb(0,255,0)" stroke="none" paint-order="stroke fill markers" d=" M 0 0 L 120.26121914092947 0 L 120.26121914092947 120.26121914092947 L 0 120.26121914092947 L 0 0 Z" fill-opacity="0.5882352941176471"/></g><g transform="translate(6,0)"><g transform="translate(0,133.15025783356128) rotate(4239.887683968092,0,0)"><path fill="rgb(0,0,255)" stroke="none" paint-order="stroke fill markers" d=" M 0 0 L 117.55384159631181 0 L 117.55384159631181 117.55384159631181 L 0 117.55384159631181 L 0 0 Z" fill-opacity="0.5882352941176471"/></g><g transform="translate(6,0)"><g transform="translate(0,133.5583221403906) rotate(4297.183463481174,0,0)"><path fill="rgb(75,0,130)" stroke="none" paint-order="stroke fill markers" d=" M 0 0 L 117.68986303192158 0 L 117.68986303192158 117.68986303192158 L 0 117.68986303192158 L 0 0 Z" fill-opacity="0.5882352941176471"/></g><g transform="translate(6,0)"><g transform="translate(0,144.10893924646638) rotate(4354.479242994256,0,0)"><path fill="rgb(148,0,211)" stroke="none" paint-order="stroke fill markers" d=" M 0 0 L 121.20673540061351 0 L 121.20673540061351 121.20673540061351 L 0 121.20673540061351 L 0 0 Z" fill-opacity="0.5882352941176471"/></g><g transform="translate(6,0)"><g transform="translate(0,158.41564116485006) rotate(4411.775022507339,0,0)"><path fill="rgb(255,0,0)" stroke="none" paint-order="stroke fill markers" d=" M 0 0 L 125.97563604007473 0 L 125.97563604007473 125.97563604007473 L 0 125.97563604007473 L 0 0 Z" fill-opacity="0.5882352941176471"/></g><g transform="translate(6,0)"><g transform="translate(0,170.9232005705113) rotate(4469.070802020421,0,0)"><path fill="rgb(255,127,0)" stroke="none" paint-order="stroke fill markers" d=" M 0 0 L 130.1448225086285 0 L 130.1448225086285 130.1448225086285 L 0 130.1448225086285 L 0 0 Z" fill-opacity="0.5882352941176471"/></g><g transform="translate(6,0)"><g transform="translate(0,179.78176307105525) rotate(4526.366581533503,0,0)"><path fill="rgb(255,255,0)" stroke="none" paint-order="stroke fill markers" d=" M 0 0 L 133.09767667547646 0 L 133.09767667547646 133.09767667547646 L 0 133.09767667547646 L 0 0 Z" fill-opacity="0.5882352941176471"/></g><g transform="translate(6,0)"><g transform="translate(0,183.01127542737333) rotate(4583.662361046586,0,0)"><path fill="rgb(0,255,0)" stroke="none" paint-order="stroke fill markers" d=" M 0 0 L 134.17418079424917 0 L 134.17418079424917 134.17418079424917 L 0 134.17418079424917 L 0 0 Z" fill-opacity="0.5882352941176471"/></g><g transform="translate(6,0)"><g transform="translate(0,181.5304507192145) rotate(4640.958140559668,0,0)"><path fill="rgb(0,0,255)" stroke="none" paint-order="stroke fill markers" d=" M 0 0 L 133.68057255819622 0 L 133.68057255819622 133.68057255819622 L 0 133.68057255819622 L 0 0 Z" fill-opacity="0.5882352941176471"/></g><g transform="translate(6,0)"><g transform="translate(0,181.22662011173662) rotate(4698.253920072751,0,0)"><path fill="rgb(75,0,130)" stroke="none" paint-order="stroke fill markers" d=" M 0 0 L 133.5792956890369 0 L 133.5792956890369 133.5792956890369 L 0 133.5792956890369 L 0 0 Z" fill-opacity="0.5882352941176471"/></g><g transform="translate(6,0)"><g transform="translate(0,188.6376684945646) rotate(4755.549699585833,0,0)"><path fill="rgb(148,0,211)" stroke="none" paint-order="stroke fill markers" d=" M 0 0 L 136.04964514997957 0 L 136.04964514997957 136.04964514997957 L 0 136.04964514997957 L 0 0 Z" fill-opacity="0.5882352941176471"/></g><g transform="translate(6,0)"><g transform="translate(0,203.8026496866022) rotate(4812.845479098915,0,0)"><path fill="rgb(255,0,0)" stroke="none" paint-order="stroke fill markers" d=" M 0 0 L 141.10463888065877 0 L 141.10463888065877 141.10463888065877 L 0 141.10463888065877 L 0 0 Z" fill-opacity="0.5882352941176471"/></g><g transform="translate(6,0)"><g transform="translate(0,209.64806941546993) rotate(4870.141258611998,0,0)"><path fill="rgb(255,127,0)" stroke="none" paint-order="stroke fill markers" d=" M 0 0 L 143.05311212361468 0 L 143.05311212361468 143.05311212361468 L 0 143.05311212361468 L 0 0 Z" fill-opacity="0.5882352941176471"/></g><g transform="translate(6,0)"><g transform="translate(0,200.32860952136332) rotate(4927.43703812508,0,0)"><path fill="rgb(255,255,0)" stroke="none" paint-order="stroke fill markers" d=" M 0 0 L 139.94662549224583 0 L 139.94662549224583 139.94662549224583 L 0 139.94662549224583 L 0 0 Z" fill-opacity="0.5882352941176471"/></g><g transform="translate(6,0)"><g transform="translate(0,183.35473636815482) rotate(4984.7328176381625,0,0)"><path fill="rgb(0,255,0)" stroke="none" paint-order="stroke fill markers" d=" M 0 0 L 134.28866777450966 0 L 134.28866777450966 134.28866777450966 L 0 134.28866777450966 L 0 0 Z" fill-opacity="0.5882352941176471"/></g><g transform="translate(6,0)"><g transform="translate(0,164.09055299558656) rotate(5042.028597151245,0,0)"><path fill="rgb(0,0,255)" stroke="none" paint-order="stroke fill markers" d=" M 0 0 L 127.8672733169869 0 L 127.8672733169869 127.8672733169869 L 0 127.8672733169869 L 0 0 Z" fill-opacity="0.5882352941176471"/></g><g transform="translate(6,0)"><g transform="translate(0,144.02287640767418) rotate(5099.324376664326,0,0)"><path fill="rgb(75,0,130)" stroke="none" paint-order="stroke fill markers" d=" M 0 0 L 121.17804778768277 0 L 121.17804778768277 121.17804778768277 L 0 121.17804778768277 L 0 0 Z" fill-opacity="0.5882352941176471"/></g><g transform="translate(6,0)"><g transform="translate(0,134.17443796039555) rotate(5156.620156177409,0,0)"><path fill="rgb(148,0,211)" stroke="none" paint-order="stroke fill markers" d=" M 0 0 L 117.89523497192323 0 L 117.89523497192323 117.89523497192323 L 0 117.89523497192323 L 0 0 Z" fill-opacity="0.5882352941176471"/></g><g transform="translate(6,0)"><g transform="translate(0,134.152251957717) rotate(5213.915935690491,0,0)"><path fill="rgb(255,0,0)" stroke="none" paint-order="stroke fill markers" d=" M 0 0 L 117.88783963769704 0 L 117.88783963769704 117.88783963769704 L 0 117.88783963769704 L 0 0 Z" fill-opacity="0.5882352941176471"/></g><g transform="translate(6,0)"><g transform="translate(0,135.50412205412624) rotate(5271.2117152035735,0,0)"><path fill="rgb(255,127,0)" stroke="none" paint-order="stroke fill markers" d=" M 0 0 L 118.3384630031668 0 L 118.3384630031668 118.3384630031668 L 0 118.3384630031668 L 0 0 Z" fill-opacity="0.5882352941176471"/></g><g transform="translate(6,0)"><g transform="translate(0,135.6556984264132) rotate(5328.507494716656,0,0)"><path fill="rgb(255,255,0)" stroke="none" paint-order="stroke fill markers" d=" M 0 0 L 118.38898846059578 0 L 118.38898846059578 118.38898846059578 L 0 118.38898846059578 L 0 0 Z" fill-opacity="0.5882352941176471"/></g><g transform="translate(6,0)"><g transform="translate(0,135.04562273605706) rotate(5385.803274229738,0,0)"><path fill="rgb(0,255,0)" stroke="none" paint-order="stroke fill markers" d=" M 0 0 L 118.18562989714373 0 L 118.18562989714373 118.18562989714373 L 0 118.18562989714373 L 0 0 Z" fill-opacity="0.5882352941176471"/></g><g transform="translate(6,0)"><g transform="translate(0,135.23815233394043) rotate(5443.099053742821,0,0)"><path fill="rgb(0,0,255)" stroke="none" paint-order="stroke fill markers" d=" M 0 0 L 118.24980642977152 0 L 118.24980642977152 118.24980642977152 L 0 118.24980642977152 L 0 0 Z" fill-opacity="0.5882352941176471"/></g><g transform="translate(6,0)"><g transform="translate(0,135.92249868941923) rotate(5500.394833255903,0,0)"><path fill="rgb(75,0,130)" stroke="none" paint-order="stroke fill markers" d=" M 0 0 L 118.4779218815978 0 L 118.4779218815978 118.4779218815978 L 0 118.4779218815978 L 0 0 Z" fill-opacity="0.5882352941176471"/></g><g transform="translate(6,0)"><g transform="translate(0,137.48673399178847) rotate(5557.690612768985,0,0)"><path fill="rgb(148,0,211)" stroke="none" paint-order="stroke fill markers" d=" M 0 0 L 118.99933364905421 0 L 118.99933364905421 118.99933364905421 L 0 118.99933364905421 L 0 0 Z" fill-opacity="0.5882352941176471"/></g><g transform="translate(6,0)"><g transform="translate(0,142.34382964421582) rotate(5614.986392282068,0,0)"><path fill="rgb(255,0,0)" stroke="none" paint-order="stroke fill markers" d=" M 0 0 L 120.61836553319665 0 L 120.61836553319665 120.61836553319665 L 0 120.61836553319665 L 0 0 Z" fill-opacity="0.5882352941176471"/></g><g transform="translate(6,0)"><g transform="translate(0,150.11770155006838) rotate(5672.28217179515,0,0)"><path fill="rgb(255,127,0)" stroke="none" paint-order="stroke fill markers" d=" M 0 0 L 123.20965616848083 0 L 123.20965616848083 123.20965616848083 L 0 123.20965616848083 L 0 0 Z" fill-opacity="0.5882352941176471"/></g><g transform="translate(6,0)"/></g></g></g></g></g></g></g></g></g></g></g></g></g></g></g></g></g></g></g></g></g></g></g></g></g></g></g></g></g></g></g></g></g></g></g></g></g></g></g></g></g></g></g></g></g></g></g></g></g></g></g></g></g></g></g></g></g></g></g></g></g></g></g></g></g></g></g></g></g></g></g></g></g></g></g></g></g></g></g></g></g></g></g></g></g></g></g></g></g></g></g></g></g></g></g></g></g></g></g></g></g></svg>