<svg version="1.1" xmlns="http://www.w3.org/2000/svg" xmlns:xlink="http://www.w3.org/1999/xlink" width="600" height="600" viewBox="0 0 600 600"><defs/><g transform="scale(1,1)"><g transform="scale(1,1)"><rect fill="rgb(0,0,0)" stroke="none" x="0" y="0" width="600" height="600" fill-opacity="1"/></g><g><g transform="translate(0,300) rotate(1.806744716229771,0,0)"><path fill="rgb(255,0,0)" stroke="none" paint-order="stroke fill markers" d=" M 0 0 L 99.62669235065785 0 L 99.62669235065785 99.62669235065785 L 0 99.62669235065785 L 0 0 Z" fill-opacity="0.5882352941176471"/></g><g transform="translate(60,0)"><g transform="translate(0,139.76315171900401) rotate(3.8948890961852674,0,0)"><path fill="rgb(255,127,0)" stroke="none" paint-order="stroke fill markers" d=" M 0 0 L 46.21440959032586 0 L 46.21440959032586 46.21440959032586 L 0 46.21440959032586 L 0 0 Z" fill-opacity="0.5882352941176471"/></g><g transform="translate(60,0)"><g transform="translate(0,136.1902845081552) rotate(3.9979162990513664,0,0)"><path fill="rgb(255,255,0)" stroke="none" paint-order="stroke fill markers" d=" M 0 0 L 45.02345385337625 0 L 45.02345385337625 45.02345385337625 L 0 45.02345385337625 L 0 0 Z" fill-opacity="0.5882352941176471"/></g><g transform="translate(60,0)"><g transform="translate(0,178.4322910247351) rotate(3.0454728333806127,0,0)"><path fill="rgb(0,255,0)" stroke="none" paint-order="stroke fill markers" d=" M 0 0 L 59.10412269223622 0 L 59.10412269223622 59.10412269223622 L 0 59.10412269223622 L 0 0 Z" fill-opacity="0.5882352941176471"/></g><g transform="translate(60,0)"><g transform="translate(0,264.1573398311658) rotate(2.052939868398677,0,0)"><path fill="rgb(0,0,255)" stroke="none" paint-order="stroke fill markers" d=" M 0 0 L 87.67913896104646 0 L 87.67913896104646 87.67913896104646 L 0 87.67913896104646 L 0 0 Z" fill-opacity="0.5882352941176471"/></g><g transform="translate(60,0)"><g transform="translate(0,334.5893049564834) rotate(1.6193390731935484,0,0)"><path fill="rgb(75,0,130)" stroke="none" paint-order="stroke fill markers" d=" M 0 0 L 111.15646066948564 0 L 111.15646066948564 111.15646066948564 L 0 111.15646066948564 L 0 0 Z" fill-opacity="0.5882352941176471"/></g><g transform="translate(60,0)"><g transform="translate(0,166.19377140255807) rotate(3.2712631652780484,0,0)"><path fill="rgb(148,0,211)" stroke="none" paint-order="stroke fill markers" d=" M 0 0 L 55.02461615151054 0 L 55.02461615151054 55.02461615151054 L 0 55.02461615151054 L 0 0 Z" fill-opacity="0.5882352941176471"/></g><g transform="translate(60,0)"><g transform="translate(0,154.1886379495871) rotate(3.5278273551489234,0,0)"><path fill="rgb(255,0,0)" stroke="none" paint-order="stroke fill markers" d=" M 0 0 L 51.02290500052022 0 L 51.02290500052022 51.02290500052022 L 0 51.02290500052022 L 0 0 Z" fill-opacity="0.5882352941176471"/></g><g transform="translate(60,0)"><g transform="translate(0,133.84732463025566) rotate(4.068489197828546,0,0)"><path fill="rgb(255,127,0)" stroke="none" paint-order="stroke fill markers" d=" M 0 0 L 44.24246722740974 0 L 44.24246722740974 44.24246722740974 L 0 44.24246722740974 L 0 0 Z" fill-opacity="0.5882352941176471"/></g><g transform="translate(60,0)"><g transform="translate(0,257.58621398809095) rotate(2.1055398657270032,0,0)"><path fill="rgb(255,255,0)" stroke="none" paint-order="stroke fill markers" d=" M 0 0 L 85.4887636800215 0 L 85.4887636800215 85.4887636800215 L 0 85.4887636800215 L 0 0 Z" fill-opacity="0.5882352941176471"/></g><g transform="translate(60,0)"/></g></g></g></g></g></g></g></g></g></g></g></svg>