<svg version="1.1" xmlns="http://www.w3.org/2000/svg" xmlns:xlink="http://www.w3.org/1999/xlink" width="600" height="600" viewBox="0 0 600 600"><defs/><g transform="scale(1,1)"><g transform="scale(1,1)"><rect fill="rgb(0,0,0)" stroke="none" x="0" y="0" width="600" height="600" fill-opacity="1"/></g><g><g transform="translate(0,300) rotate(1.438640038830054,0,0)"><path fill="rgb(255,0,0)" stroke="none" paint-order="stroke fill markers" d=" M 0 0 L 125.11816378083118 0 L 125.11816378083118 125.11816378083118 L 0 125.11816378083118 L 0 0 Z" fill-opacity="0.5882352941176471"/></g><g transform="translate(60,0)"><g transform="translate(0,290.6494707260787) rotate(1.4753938644490112,0,0)"><path fill="rgb(255,127,0)" stroke="none" paint-order="stroke fill markers" d=" M 0 0 L 122.00132068952406 0 L 122.00132068952406 122.00132068952406 L 0 122.00132068952406 L 0 0 Z" fill-opacity="0.5882352941176471"/></g><g transform="translate(60,0)"><g transform="translate(0,213.18110941877666) rotate(1.8715194886706112,0,0)"><path fill="rgb(255,255,0)" stroke="none" paint-order="stroke fill markers" d=" M 0 0 L 96.17853358709006 0 L 96.17853358709006 96.17853358709006 L 0 96.17853358709006 L 0 0 Z" fill-opacity="0.5882352941176471"/></g><g transform="translate(60,0)"><g transform="translate(0,226.9258780585833) rotate(1.7864210007084778,0,0)"><path fill="rgb(0,255,0)" stroke="none" paint-order="stroke fill markers" d=" M 0 0 L 100.76012313369228 0 L 100.76012313369228 100.76012313369228 L 0 100.76012313369228 L 0 0 Z" fill-opacity="0.5882352941176471"/></g><g transform="translate(60,0)"><g transform="translate(0,13.78909082767855) rotate(6.057643038947641,0,0)"><path fill="rgb(0,0,255)" stroke="none" paint-order="stroke fill markers" d=" M 0 0 L 29.71452739005736 0 L 29.71452739005736 29.71452739005736 L 0 29.71452739005736 L 0 0 Z" fill-opacity="0.5882352941176471"/></g><g transform="translate(60,0)"><g transform="translate(0,243.07692086918422) rotate(1.6958125966575,0,0)"><path fill="rgb(75,0,130)" stroke="none" paint-order="stroke fill markers" d=" M 0 0 L 106.14380407055926 0 L 106.14380407055926 106.14380407055926 L 0 106.14380407055926 L 0 0 Z" fill-opacity="0.5882352941176471"/></g><g transform="translate(60,0)"><g transform="translate(0,285.52878676172554) rotate(1.4963286823282902,0,0)"><path fill="rgb(148,0,211)" stroke="none" paint-order="stroke fill markers" d=" M 0 0 L 120.29442603473969 0 L 120.29442603473969 120.29442603473969 L 0 120.29442603473969 L 0 0 Z" fill-opacity="0.5882352941176471"/></g><g transform="translate(60,0)"><g transform="translate(0,187.44963810250533) rotate(2.054762233532614,0,0)"><path fill="rgb(255,0,0)" stroke="none" paint-order="stroke fill markers" d=" M 0 0 L 87.60137648166629 0 L 87.60137648166629 87.60137648166629 L 0 87.60137648166629 L 0 0 Z" fill-opacity="0.5882352941176471"/></g><g transform="translate(60,0)"><g transform="translate(0,82.57212422547516) rotate(3.4193096461792662,0,0)"><path fill="rgb(255,127,0)" stroke="none" paint-order="stroke fill markers" d=" M 0 0 L 52.6422051893229 0 L 52.6422051893229 52.6422051893229 L 0 52.6422051893229 L 0 0 Z" fill-opacity="0.5882352941176471"/></g><g transform="translate(60,0)"><g transform="translate(0,276.5066368281043) rotate(1.5346963809488614,0,0)"><path fill="rgb(255,255,0)" stroke="none" paint-order="stroke fill markers" d=" M 0 0 L 117.28704272353262 0 L 117.28704272353262 117.28704272353262 L 0 117.28704272353262 L 0 0 Z" fill-opacity="0.5882352941176471"/></g><g transform="translate(60,0)"/></g></g></g></g></g></g></g></g></g></g></g></svg>