<svg version="1.1" xmlns="http://www.w3.org/2000/svg" xmlns:xlink="http://www.w3.org/1999/xlink" width="600" height="600" viewBox="0 0 600 600"><defs/><g transform="scale(1,1)"><g transform="scale(1,1)"><rect fill="rgb(0,0,0)" stroke="none" x="0" y="0" width="600" height="600" fill-opacity="1"/></g><g><g transform="translate(0,300) rotate(1.1623223771721767,0,0)"><path fill="rgb(255,0,0)" stroke="none" paint-order="stroke fill markers" d=" M 0 0 L 154.86237169237285 0 L 154.86237169237285 154.86237169237285 L 0 154.86237169237285 L 0 0 Z" fill-opacity="0.5882352941176471"/></g><g transform="translate(60,0)"><g transform="translate(0,48.27233592133368) rotate(2.5368852426661883,0,0)"><path fill="rgb(255,127,0)" stroke="none" paint-order="stroke fill markers" d=" M 0 0 L 70.9531503328174 0 L 70.9531503328174 70.9531503328174 L 0 70.9531503328174 L 0 0 Z" fill-opacity="0.5882352941176471"/></g><g transform="translate(60,0)"><g transform="translate(0,267.0252827981893) rotate(1.251122541099955,0,0)"><path fill="rgb(255,255,0)" stroke="none" paint-order="stroke fill markers" d=" M 0 0 L 143.8707992917693 0 L 143.8707992917693 143.8707992917693 L 0 143.8707992917693 L 0 0 Z" fill-opacity="0.5882352941176471"/></g><g transform="translate(60,0)"><g transform="translate(0,149.50476927693558) rotate(1.7192421291321724,0,0)"><path fill="rgb(0,255,0)" stroke="none" paint-order="stroke fill markers" d=" M 0 0 L 104.6972947846847 0 L 104.6972947846847 104.6972947846847 L 0 104.6972947846847 L 0 0 Z" fill-opacity="0.5882352941176471"/></g><g transform="translate(60,0)"><g transform="translate(0,155.88775805105143) rotate(1.6849994969310236,0,0)"><path fill="rgb(0,0,255)" stroke="none" paint-order="stroke fill markers" d=" M 0 0 L 106.82495770938999 0 L 106.82495770938999 106.82495770938999 L 0 106.82495770938999 L 0 0 Z" fill-opacity="0.5882352941176471"/></g><g transform="translate(60,0)"><g transform="translate(0,185.856879121127) rotate(1.5409024236110123,0,0)"><path fill="rgb(75,0,130)" stroke="none" paint-order="stroke fill markers" d=" M 0 0 L 116.81466473274851 0 L 116.81466473274851 116.81466473274851 L 0 116.81466473274851 L 0 0 Z" fill-opacity="0.5882352941176471"/></g><g transform="translate(60,0)"><g transform="translate(0,242.71553961939384) rotate(1.3257954343616112,0,0)"><path fill="rgb(148,0,211)" stroke="none" paint-order="stroke fill markers" d=" M 0 0 L 135.76755156550414 0 L 135.76755156550414 135.76755156550414 L 0 135.76755156550414 L 0 0 Z" fill-opacity="0.5882352941176471"/></g><g transform="translate(60,0)"><g transform="translate(0,28.38748860756732) rotate(2.798295680826178,0,0)"><path fill="rgb(255,0,0)" stroke="none" paint-order="stroke fill markers" d=" M 0 0 L 64.32486789489529 0 L 64.32486789489529 64.32486789489529 L 0 64.32486789489529 L 0 0 Z" fill-opacity="0.5882352941176471"/></g><g transform="translate(60,0)"><g transform="translate(0,119.29814376120743) rotate(1.9021769647698847,0,0)"><path fill="rgb(255,127,0)" stroke="none" paint-order="stroke fill markers" d=" M 0 0 L 94.62841961277532 0 L 94.62841961277532 94.62841961277532 L 0 94.62841961277532 L 0 0 Z" fill-opacity="0.5882352941176471"/></g><g transform="translate(60,0)"><g transform="translate(0,38.28318909379195) rotate(2.661799134214688,0,0)"><path fill="rgb(255,255,0)" stroke="none" paint-order="stroke fill markers" d=" M 0 0 L 67.62343472363683 0 L 67.62343472363683 67.62343472363683 L 0 67.62343472363683 L 0 0 Z" fill-opacity="0.5882352941176471"/></g><g transform="translate(60,0)"/></g></g></g></g></g></g></g></g></g></g></g></svg>