<svg version="1.1" xmlns="http://www.w3.org/2000/svg" xmlns:xlink="http://www.w3.org/1999/xlink" width="600" height="600" viewBox="0 0 600 600"><defs/><g transform="scale(1,1)"><g transform="scale(1,1)"><rect fill="rgb(0,0,0)" stroke="none" x="0" y="0" width="600" height="600" fill-opacity="1"/></g><g transform="translate(0,200)"><g transform="translate(0,49.4591426387699)"><path fill="rgb(255,0,0)" stroke="none" paint-order="stroke fill markers" d=" M 0 0 L 20 0 L 20 20 L 0 20 L 0 0 Z" fill-opacity="0.5882352941176471"/></g><g transform="translate(6,0)"><g transform="translate(0,51.657203081137176)"><path fill="rgb(255,127,0)" stroke="none" paint-order="stroke fill markers" d=" M 0 0 L 20 0 L 20 20 L 0 20 L 0 0 Z" fill-opacity="0.5882352941176471"/></g><g transform="translate(6,0)"><g transform="translate(0,57.92139603876257)"><path fill="rgb(255,255,0)" stroke="none" paint-order="stroke fill markers" d=" M 0 0 L 20 0 L 20 20 L 0 20 L 0 0 Z" fill-opacity="0.5882352941176471"/></g><g transform="translate(6,0)"><g transform="translate(0,67.33531708752886)"><path fill="rgb(0,255,0)" stroke="none" paint-order="stroke fill markers" d=" M 0 0 L 20 0 L 20 20 L 0 20 L 0 0 Z" fill-opacity="0.5882352941176471"/></g><g transform="translate(6,0)"><g transform="translate(0,78.5990778327671)"><path fill="rgb(0,0,255)" stroke="none" paint-order="stroke fill markers" d=" M 0 0 L 20 0 L 20 20 L 0 20 L 0 0 Z" fill-opacity="0.5882352941176471"/></g><g transform="translate(6,0)"><g transform="translate(0,90.31272328152569)"><path fill="rgb(75,0,130)" stroke="none" paint-order="stroke fill markers" d=" M 0 0 L 20 0 L 20 20 L 0 20 L 0 0 Z" fill-opacity="0.5882352941176471"/></g><g transform="translate(6,0)"><g transform="translate(0,101.27212579213631)"><path fill="rgb(148,0,211)" stroke="none" paint-order="stroke fill markers" d=" M 0 0 L 20 0 L 20 20 L 0 20 L 0 0 Z" fill-opacity="0.5882352941176471"/></g><g transform="translate(6,0)"><g transform="translate(0,110.90152900795763)"><path fill="rgb(255,0,0)" stroke="none" paint-order="stroke fill markers" d=" M 0 0 L 20 0 L 20 20 L 0 20 L 0 0 Z" fill-opacity="0.5882352941176471"/></g><g transform="translate(6,0)"><g transform="translate(0,119.40967470732619)"><path fill="rgb(255,127,0)" stroke="none" paint-order="stroke fill markers" d=" M 0 0 L 20 0 L 20 20 L 0 20 L 0 0 Z" fill-opacity="0.5882352941176471"/></g><g transform="translate(6,0)"><g transform="translate(0,126.947484519364)"><path fill="rgb(255,255,0)" stroke="none" paint-order="stroke fill markers" d=" M 0 0 L 20 0 L 20 20 L 0 20 L 0 0 Z" fill-opacity="0.5882352941176471"/></g><g transform="translate(6,0)"><g transform="translate(0,133.92815270869121)"><path fill="rgb(0,255,0)" stroke="none" paint-order="stroke fill markers" d=" M 0 0 L 20 0 L 20 20 L 0 20 L 0 0 Z" fill-opacity="0.5882352941176471"/></g><g transform="translate(6,0)"><g transform="translate(0,140.88321995296627)"><path fill="rgb(0,0,255)" stroke="none" paint-order="stroke fill markers" d=" M 0 0 L 20 0 L 20 20 L 0 20 L 0 0 Z" fill-opacity="0.5882352941176471"/></g><g transform="translate(6,0)"><g transform="translate(0,148.27508550767604)"><path fill="rgb(75,0,130)" stroke="none" paint-order="stroke fill markers" d=" M 0 0 L 20 0 L 20 20 L 0 20 L 0 0 Z" fill-opacity="0.5882352941176471"/></g><g transform="translate(6,0)"><g transform="translate(0,156.36001598898417)"><path fill="rgb(148,0,211)" stroke="none" paint-order="stroke fill markers" d=" M 0 0 L 20 0 L 20 20 L 0 20 L 0 0 Z" fill-opacity="0.5882352941176471"/></g><g transform="translate(6,0)"><g transform="translate(0,165.19315310111497)"><path fill="rgb(255,0,0)" stroke="none" paint-order="stroke fill markers" d=" M 0 0 L 20 0 L 20 20 L 0 20 L 0 0 Z" fill-opacity="0.5882352941176471"/></g><g transform="translate(6,0)"><g transform="translate(0,174.40755018795662)"><path fill="rgb(255,127,0)" stroke="none" paint-order="stroke fill markers" d=" M 0 0 L 20 0 L 20 20 L 0 20 L 0 0 Z" fill-opacity="0.5882352941176471"/></g><g transform="translate(6,0)"><g transform="translate(0,183.39612326653386)"><path fill="rgb(255,255,0)" stroke="none" paint-order="stroke fill markers" d=" M 0 0 L 20 0 L 20 20 L 0 20 L 0 0 Z" fill-opacity="0.5882352941176471"/></g><g transform="translate(6,0)"><g transform="translate(0,191.48331864107288)"><path fill="rgb(0,255,0)" stroke="none" paint-order="stroke fill markers" d=" M 0 0 L 20 0 L 20 20 L 0 20 L 0 0 Z" fill-opacity="0.5882352941176471"/></g><g transform="translate(6,0)"><g transform="translate(0,198.09882408811907)"><path fill="rgb(0,0,255)" stroke="none" paint-order="stroke fill markers" d=" M 0 0 L 20 0 L 20 20 L 0 20 L 0 0 Z" fill-opacity="0.5882352941176471"/></g><g transform="translate(6,0)"><g transform="translate(0,202.9469712842701)"><path fill="rgb(75,0,130)" stroke="none" paint-order="stroke fill markers" d=" M 0 0 L 20 0 L 20 20 L 0 20 L 0 0 Z" fill-opacity="0.5882352941176471"/></g><g transform="translate(6,0)"><g transform="translate(0,206.3866593277778)"><path fill="rgb(148,0,211)" stroke="none" paint-order="stroke fill markers" d=" M 0 0 L 20 0 L 20 20 L 0 20 L 0 0 Z" fill-opacity="0.5882352941176471"/></g><g transform="translate(6,0)"><g transform="translate(0,208.87543462349007)"><path fill="rgb(255,0,0)" stroke="none" paint-order="stroke fill markers" d=" M 0 0 L 20 0 L 20 20 L 0 20 L 0 0 Z" fill-opacity="0.5882352941176471"/></g><g transform="translate(6,0)"><g transform="translate(0,210.93300098585388)"><path fill="rgb(255,127,0)" stroke="none" paint-order="stroke fill markers" d=" M 0 0 L 20 0 L 20 20 L 0 20 L 0 0 Z" fill-opacity="0.5882352941176471"/></g><g transform="translate(6,0)"><g transform="translate(0,213.1657252846974)"><path fill="rgb(255,255,0)" stroke="none" paint-order="stroke fill markers" d=" M 0 0 L 20 0 L 20 20 L 0 20 L 0 0 Z" fill-opacity="0.5882352941176471"/></g><g transform="translate(6,0)"><g transform="translate(0,216.13454765272056)"><path fill="rgb(0,255,0)" stroke="none" paint-order="stroke fill markers" d=" M 0 0 L 20 0 L 20 20 L 0 20 L 0 0 Z" fill-opacity="0.5882352941176471"/></g><g transform="translate(6,0)"><g transform="translate(0,220.22904906493804)"><path fill="rgb(0,0,255)" stroke="none" paint-order="stroke fill markers" d=" M 0 0 L 20 0 L 20 20 L 0 20 L 0 0 Z" fill-opacity="0.5882352941176471"/></g><g transform="translate(6,0)"><g transform="translate(0,226.26559651578862)"><path fill="rgb(75,0,130)" stroke="none" paint-order="stroke fill markers" d=" M 0 0 L 20 0 L 20 20 L 0 20 L 0 0 Z" fill-opacity="0.5882352941176471"/></g><g transform="translate(6,0)"><g transform="translate(0,234.60918838422398)"><path fill="rgb(148,0,211)" stroke="none" paint-order="stroke fill markers" d=" M 0 0 L 20 0 L 20 20 L 0 20 L 0 0 Z" fill-opacity="0.5882352941176471"/></g><g transform="translate(6,0)"><g transform="translate(0,244.39962549294475)"><path fill="rgb(255,0,0)" stroke="none" paint-order="stroke fill markers" d=" M 0 0 L 20 0 L 20 20 L 0 20 L 0 0 Z" fill-opacity="0.5882352941176471"/></g><g transform="translate(6,0)"><g transform="translate(0,254.43737249061363)"><path fill="rgb(255,127,0)" stroke="none" paint-order="stroke fill markers" d=" M 0 0 L 20 0 L 20 20 L 0 20 L 0 0 Z" fill-opacity="0.5882352941176471"/></g><g transform="translate(6,0)"><g transform="translate(0,263.4591629214897)"><path fill="rgb(255,255,0)" stroke="none" paint-order="stroke fill markers" d=" M 0 0 L 20 0 L 20 20 L 0 20 L 0 0 Z" fill-opacity="0.5882352941176471"/></g><g transform="translate(6,0)"><g transform="translate(0,270.4244960094018)"><path fill="rgb(0,255,0)" stroke="none" paint-order="stroke fill markers" d=" M 0 0 L 20 0 L 20 20 L 0 20 L 0 0 Z" fill-opacity="0.5882352941176471"/></g><g transform="translate(6,0)"><g transform="translate(0,274.45936729999653)"><path fill="rgb(0,0,255)" stroke="none" paint-order="stroke fill markers" d=" M 0 0 L 20 0 L 20 20 L 0 20 L 0 0 Z" fill-opacity="0.5882352941176471"/></g><g transform="translate(6,0)"><g transform="translate(0,274.92508052401666)"><path fill="rgb(75,0,130)" stroke="none" paint-order="stroke fill markers" d=" M 0 0 L 20 0 L 20 20 L 0 20 L 0 0 Z" fill-opacity="0.5882352941176471"/></g><g transform="translate(6,0)"><g transform="translate(0,272.6010721184062)"><path fill="rgb(148,0,211)" stroke="none" paint-order="stroke fill markers" d=" M 0 0 L 20 0 L 20 20 L 0 20 L 0 0 Z" fill-opacity="0.5882352941176471"/></g><g transform="translate(6,0)"><g transform="translate(0,268.8431515863601)"><path fill="rgb(255,0,0)" stroke="none" paint-order="stroke fill markers" d=" M 0 0 L 20 0 L 20 20 L 0 20 L 0 0 Z" fill-opacity="0.5882352941176471"/></g><g transform="translate(6,0)"><g transform="translate(0,265.1935764411804)"><path fill="rgb(255,127,0)" stroke="none" paint-order="stroke fill markers" d=" M 0 0 L 20 0 L 20 20 L 0 20 L 0 0 Z" fill-opacity="0.5882352941176471"/></g><g transform="translate(6,0)"><g transform="translate(0,262.9832910685535)"><path fill="rgb(255,255,0)" stroke="none" paint-order="stroke fill markers" d=" M 0 0 L 20 0 L 20 20 L 0 20 L 0 0 Z" fill-opacity="0.5882352941176471"/></g><g transform="translate(6,0)"><g transform="translate(0,263.0688458007657)"><path fill="rgb(0,255,0)" stroke="none" paint-order="stroke fill markers" d=" M 0 0 L 20 0 L 20 20 L 0 20 L 0 0 Z" fill-opacity="0.5882352941176471"/></g><g transform="translate(6,0)"><g transform="translate(0,265.91825753911695)"><path fill="rgb(0,0,255)" stroke="none" paint-order="stroke fill markers" d=" M 0 0 L 20 0 L 20 20 L 0 20 L 0 0 Z" fill-opacity="0.5882352941176471"/></g><g transform="translate(6,0)"><g transform="translate(0,270.8024537626804)"><path fill="rgb(75,0,130)" stroke="none" paint-order="stroke fill markers" d=" M 0 0 L 20 0 L 20 20 L 0 20 L 0 0 Z" fill-opacity="0.5882352941176471"/></g><g transform="translate(6,0)"><g transform="translate(0,276.2883632512717)"><path fill="rgb(148,0,211)" stroke="none" paint-order="stroke fill markers" d=" M 0 0 L 20 0 L 20 20 L 0 20 L 0 0 Z" fill-opacity="0.5882352941176471"/></g><g transform="translate(6,0)"><g transform="translate(0,280.6886352998741)"><path fill="rgb(255,0,0)" stroke="none" paint-order="stroke fill markers" d=" M 0 0 L 20 0 L 20 20 L 0 20 L 0 0 Z" fill-opacity="0.5882352941176471"/></g><g transform="translate(6,0)"><g transform="translate(0,282.5041354905208)"><path fill="rgb(255,127,0)" stroke="none" paint-order="stroke fill markers" d=" M 0 0 L 20 0 L 20 20 L 0 20 L 0 0 Z" fill-opacity="0.5882352941176471"/></g><g transform="translate(6,0)"><g transform="translate(0,280.8134848570475)"><path fill="rgb(255,255,0)" stroke="none" paint-order="stroke fill markers" d=" M 0 0 L 20 0 L 20 20 L 0 20 L 0 0 Z" fill-opacity="0.5882352941176471"/></g><g transform="translate(6,0)"><g transform="translate(0,275.34080863148284)"><path fill="rgb(0,255,0)" stroke="none" paint-order="stroke fill markers" d=" M 0 0 L 20 0 L 20 20 L 0 20 L 0 0 Z" fill-opacity="0.5882352941176471"/></g><g transform="translate(6,0)"><g transform="translate(0,266.8782555340335)"><path fill="rgb(0,0,255)" stroke="none" paint-order="stroke fill markers" d=" M 0 0 L 20 0 L 20 20 L 0 20 L 0 0 Z" fill-opacity="0.5882352941176471"/></g><g transform="translate(6,0)"><g transform="translate(0,257.08384862289324)"><path fill="rgb(75,0,130)" stroke="none" paint-order="stroke fill markers" d=" M 0 0 L 20 0 L 20 20 L 0 20 L 0 0 Z" fill-opacity="0.5882352941176471"/></g><g transform="translate(6,0)"><g transform="translate(0,248.01091802192158)"><path fill="rgb(148,0,211)" stroke="none" paint-order="stroke fill markers" d=" M 0 0 L 20 0 L 20 20 L 0 20 L 0 0 Z" fill-opacity="0.5882352941176471"/></g><g transform="translate(6,0)"><g transform="translate(0,241.62268225053091)"><path fill="rgb(255,0,0)" stroke="none" paint-order="stroke fill markers" d=" M 0 0 L 20 0 L 20 20 L 0 20 L 0 0 Z" fill-opacity="0.5882352941176471"/></g><g transform="translate(6,0)"><g transform="translate(0,239.32362800092463)"><path fill="rgb(255,127,0)" stroke="none" paint-order="stroke fill markers" d=" M 0 0 L 20 0 L 20 20 L 0 20 L 0 0 Z" fill-opacity="0.5882352941176471"/></g><g transform="translate(6,0)"><g transform="translate(0,240.7987009962625)"><path fill="rgb(255,255,0)" stroke="none" paint-order="stroke fill markers" d=" M 0 0 L 20 0 L 20 20 L 0 20 L 0 0 Z" fill-opacity="0.5882352941176471"/></g><g transform="translate(6,0)"><g transform="translate(0,244.9848750592397)"><path fill="rgb(0,255,0)" stroke="none" paint-order="stroke fill markers" d=" M 0 0 L 20 0 L 20 20 L 0 20 L 0 0 Z" fill-opacity="0.5882352941176471"/></g><g transform="translate(6,0)"><g transform="translate(0,251.21679776964208)"><path fill="rgb(0,0,255)" stroke="none" paint-order="stroke fill markers" d=" M 0 0 L 20 0 L 20 20 L 0 20 L 0 0 Z" fill-opacity="0.5882352941176471"/></g><g transform="translate(6,0)"><g transform="translate(0,258.5457816033586)"><path fill="rgb(75,0,130)" stroke="none" paint-order="stroke fill markers" d=" M 0 0 L 20 0 L 20 20 L 0 20 L 0 0 Z" fill-opacity="0.5882352941176471"/></g><g transform="translate(6,0)"><g transform="translate(0,265.9398768505478)"><path fill="rgb(148,0,211)" stroke="none" paint-order="stroke fill markers" d=" M 0 0 L 20 0 L 20 20 L 0 20 L 0 0 Z" fill-opacity="0.5882352941176471"/></g><g transform="translate(6,0)"><g transform="translate(0,272.49359499631976)"><path fill="rgb(255,0,0)" stroke="none" paint-order="stroke fill markers" d=" M 0 0 L 20 0 L 20 20 L 0 20 L 0 0 Z" fill-opacity="0.5882352941176471"/></g><g transform="translate(6,0)"><g transform="translate(0,277.52946481225496)"><path fill="rgb(255,127,0)" stroke="none" paint-order="stroke fill markers" d=" M 0 0 L 20 0 L 20 20 L 0 20 L 0 0 Z" fill-opacity="0.5882352941176471"/></g><g transform="translate(6,0)"><g transform="translate(0,280.67852277120124)"><path fill="rgb(255,255,0)" stroke="none" paint-order="stroke fill markers" d=" M 0 0 L 20 0 L 20 20 L 0 20 L 0 0 Z" fill-opacity="0.5882352941176471"/></g><g transform="translate(6,0)"><g transform="translate(0,282.16548652266385)"><path fill="rgb(0,255,0)" stroke="none" paint-order="stroke fill markers" d=" M 0 0 L 20 0 L 20 20 L 0 20 L 0 0 Z" fill-opacity="0.5882352941176471"/></g><g transform="translate(6,0)"><g transform="translate(0,282.54440056456957)"><path fill="rgb(0,0,255)" stroke="none" paint-order="stroke fill markers" d=" M 0 0 L 20 0 L 20 20 L 0 20 L 0 0 Z" fill-opacity="0.5882352941176471"/></g><g transform="translate(6,0)"><g transform="translate(0,282.5003068646001)"><path fill="rgb(75,0,130)" stroke="none" paint-order="stroke fill markers" d=" M 0 0 L 20 0 L 20 20 L 0 20 L 0 0 Z" fill-opacity="0.5882352941176471"/></g><g transform="translate(6,0)"><g transform="translate(0,282.63442304470414)"><path fill="rgb(148,0,211)" stroke="none" paint-order="stroke fill markers" d=" M 0 0 L 20 0 L 20 20 L 0 20 L 0 0 Z" fill-opacity="0.5882352941176471"/></g><g transform="translate(6,0)"><g transform="translate(0,283.27774524510033)"><path fill="rgb(255,0,0)" stroke="none" paint-order="stroke fill markers" d=" M 0 0 L 20 0 L 20 20 L 0 20 L 0 0 Z" fill-opacity="0.5882352941176471"/></g><g transform="translate(6,0)"><g transform="translate(0,284.3575642817348)"><path fill="rgb(255,127,0)" stroke="none" paint-order="stroke fill markers" d=" M 0 0 L 20 0 L 20 20 L 0 20 L 0 0 Z" fill-opacity="0.5882352941176471"/></g><g transform="translate(6,0)"><g transform="translate(0,285.3783848595946)"><path fill="rgb(255,255,0)" stroke="none" paint-order="stroke fill markers" d=" M 0 0 L 20 0 L 20 20 L 0 20 L 0 0 Z" fill-opacity="0.5882352941176471"/></g><g transform="translate(6,0)"><g transform="translate(0,285.52589560219593)"><path fill="rgb(0,255,0)" stroke="none" paint-order="stroke fill markers" d=" M 0 0 L 20 0 L 20 20 L 0 20 L 0 0 Z" fill-opacity="0.5882352941176471"/></g><g transform="translate(6,0)"><g transform="translate(0,283.89468053721805)"><path fill="rgb(0,0,255)" stroke="none" paint-order="stroke fill markers" d=" M 0 0 L 20 0 L 20 20 L 0 20 L 0 0 Z" fill-opacity="0.5882352941176471"/></g><g transform="translate(6,0)"><g transform="translate(0,279.75773243098604)"><path fill="rgb(75,0,130)" stroke="none" paint-order="stroke fill markers" d=" M 0 0 L 20 0 L 20 20 L 0 20 L 0 0 Z" fill-opacity="0.5882352941176471"/></g><g transform="translate(6,0)"><g transform="translate(0,272.90105582760947)"><path fill="rgb(148,0,211)" stroke="none" paint-order="stroke fill markers" d=" M 0 0 L 20 0 L 20 20 L 0 20 L 0 0 Z" fill-opacity="0.5882352941176471"/></g><g transform="translate(6,0)"><g transform="translate(0,265.61600489887087)"><path fill="rgb(255,0,0)" stroke="none" paint-order="stroke fill markers" d=" M 0 0 L 20 0 L 20 20 L 0 20 L 0 0 Z" fill-opacity="0.5882352941176471"/></g><g transform="translate(6,0)"><g transform="translate(0,259.0291808370557)"><path fill="rgb(255,127,0)" stroke="none" paint-order="stroke fill markers" d=" M 0 0 L 20 0 L 20 20 L 0 20 L 0 0 Z" fill-opacity="0.5882352941176471"/></g><g transform="translate(6,0)"><g transform="translate(0,253.24743274944893)"><path fill="rgb(255,255,0)" stroke="none" paint-order="stroke fill markers" d=" M 0 0 L 20 0 L 20 20 L 0 20 L 0 0 Z" fill-opacity="0.5882352941176471"/></g><g transform="translate(6,0)"><g transform="translate(0,248.25499488238987)"><path fill="rgb(0,255,0)" stroke="none" paint-order="stroke fill markers" d=" M 0 0 L 20 0 L 20 20 L 0 20 L 0 0 Z" fill-opacity="0.5882352941176471"/></g><g transform="translate(6,0)"><g transform="translate(0,243.9755797405221)"><path fill="rgb(0,0,255)" stroke="none" paint-order="stroke fill markers" d=" M 0 0 L 20 0 L 20 20 L 0 20 L 0 0 Z" fill-opacity="0.5882352941176471"/></g><g transform="translate(6,0)"><g transform="translate(0,240.33659443362131)"><path fill="rgb(75,0,130)" stroke="none" paint-order="stroke fill markers" d=" M 0 0 L 20 0 L 20 20 L 0 20 L 0 0 Z" fill-opacity="0.5882352941176471"/></g><g transform="translate(6,0)"><g transform="translate(0,237.94624329160607)"><path fill="rgb(148,0,211)" stroke="none" paint-order="stroke fill markers" d=" M 0 0 L 20 0 L 20 20 L 0 20 L 0 0 Z" fill-opacity="0.5882352941176471"/></g><g transform="translate(6,0)"><g transform="translate(0,237.35618755308224)"><path fill="rgb(255,0,0)" stroke="none" paint-order="stroke fill markers" d=" M 0 0 L 20 0 L 20 20 L 0 20 L 0 0 Z" fill-opacity="0.5882352941176471"/></g><g transform="translate(6,0)"><g transform="translate(0,238.31887309494127)"><path fill="rgb(255,127,0)" stroke="none" paint-order="stroke fill markers" d=" M 0 0 L 20 0 L 20 20 L 0 20 L 0 0 Z" fill-opacity="0.5882352941176471"/></g><g transform="translate(6,0)"><g transform="translate(0,240.45122479560348)"><path fill="rgb(255,255,0)" stroke="none" paint-order="stroke fill markers" d=" M 0 0 L 20 0 L 20 20 L 0 20 L 0 0 Z" fill-opacity="0.5882352941176471"/></g><g transform="translate(6,0)"><g transform="translate(0,243.2844204982198)"><path fill="rgb(0,255,0)" stroke="none" paint-order="stroke fill markers" d=" M 0 0 L 20 0 L 20 20 L 0 20 L 0 0 Z" fill-opacity="0.5882352941176471"/></g><g transform="translate(6,0)"><g transform="translate(0,246.3200255397687)"><path fill="rgb(0,0,255)" stroke="none" paint-order="stroke fill markers" d=" M 0 0 L 20 0 L 20 20 L 0 20 L 0 0 Z" fill-opacity="0.5882352941176471"/></g><g transform="translate(6,0)"><g transform="translate(0,249.47154991188222)"><path fill="rgb(75,0,130)" stroke="none" paint-order="stroke fill markers" d=" M 0 0 L 20 0 L 20 20 L 0 20 L 0 0 Z" fill-opacity="0.5882352941176471"/></g><g transform="translate(6,0)"><g transform="translate(0,253.1689384729301)"><path fill="rgb(148,0,211)" stroke="none" paint-order="stroke fill markers" d=" M 0 0 L 20 0 L 20 20 L 0 20 L 0 0 Z" fill-opacity="0.5882352941176471"/></g><g transform="translate(6,0)"><g transform="translate(0,256.7327255724778)"><path fill="rgb(255,0,0)" stroke="none" paint-order="stroke fill markers" d=" M 0 0 L 20 0 L 20 20 L 0 20 L 0 0 Z" fill-opacity="0.5882352941176471"/></g><g transform="translate(6,0)"><g transform="translate(0,259.31941280130735)"><path fill="rgb(255,127,0)" stroke="none" paint-order="stroke fill markers" d=" M 0 0 L 20 0 L 20 20 L 0 20 L 0 0 Z" fill-opacity="0.5882352941176471"/></g><g transform="translate(6,0)"><g transform="translate(0,260.1106377393402)"><path fill="rgb(255,255,0)" stroke="none" paint-order="stroke fill markers" d=" M 0 0 L 20 0 L 20 20 L 0 20 L 0 0 Z" fill-opacity="0.5882352941176471"/></g><g transform="translate(6,0)"><g transform="translate(0,258.4664767781545)"><path fill="rgb(0,255,0)" stroke="none" paint-order="stroke fill markers" d=" M 0 0 L 20 0 L 20 20 L 0 20 L 0 0 Z" fill-opacity="0.5882352941176471"/></g><g transform="translate(6,0)"><g transform="translate(0,254.07589620813275)"><path fill="rgb(0,0,255)" stroke="none" paint-order="stroke fill markers" d=" M 0 0 L 20 0 L 20 20 L 0 20 L 0 0 Z" fill-opacity="0.5882352941176471"/></g><g transform="translate(6,0)"><g transform="translate(0,247.10857485081365)"><path fill="rgb(75,0,130)" stroke="none" paint-order="stroke fill markers" d=" M 0 0 L 20 0 L 20 20 L 0 20 L 0 0 Z" fill-opacity="0.5882352941176471"/></g><g transform="translate(6,0)"><g transform="translate(0,237.93398814490527)"><path fill="rgb(148,0,211)" stroke="none" paint-order="stroke fill markers" d=" M 0 0 L 20 0 L 20 20 L 0 20 L 0 0 Z" fill-opacity="0.5882352941176471"/></g><g transform="translate(6,0)"><g transform="translate(0,227.14910770783345)"><path fill="rgb(255,0,0)" stroke="none" paint-order="stroke fill markers" d=" M 0 0 L 20 0 L 20 20 L 0 20 L 0 0 Z" fill-opacity="0.5882352941176471"/></g><g transform="translate(6,0)"><g transform="translate(0,215.5085170662342)"><path fill="rgb(255,127,0)" stroke="none" paint-order="stroke fill markers" d=" M 0 0 L 20 0 L 20 20 L 0 20 L 0 0 Z" fill-opacity="0.5882352941176471"/></g><g transform="translate(6,0)"><g transform="translate(0,203.81025937471142)"><path fill="rgb(255,255,0)" stroke="none" paint-order="stroke fill markers" d=" M 0 0 L 20 0 L 20 20 L 0 20 L 0 0 Z" fill-opacity="0.5882352941176471"/></g><g transform="translate(6,0)"><g transform="translate(0,192.75912644759532)"><path fill="rgb(0,255,0)" stroke="none" paint-order="stroke fill markers" d=" M 0 0 L 20 0 L 20 20 L 0 20 L 0 0 Z" fill-opacity="0.5882352941176471"/></g><g transform="translate(6,0)"><g transform="translate(0,182.38006813286984)"><path fill="rgb(0,0,255)" stroke="none" paint-order="stroke fill markers" d=" M 0 0 L 20 0 L 20 20 L 0 20 L 0 0 Z" fill-opacity="0.5882352941176471"/></g><g transform="translate(6,0)"><g transform="translate(0,172.974114621673)"><path fill="rgb(75,0,130)" stroke="none" paint-order="stroke fill markers" d=" M 0 0 L 20 0 L 20 20 L 0 20 L 0 0 Z" fill-opacity="0.5882352941176471"/></g><g transform="translate(6,0)"><g transform="translate(0,165.04576458198883)"><path fill="rgb(148,0,211)" stroke="none" paint-order="stroke fill markers" d=" M 0 0 L 20 0 L 20 20 L 0 20 L 0 0 Z" fill-opacity="0.5882352941176471"/></g><g transform="translate(6,0)"><g transform="translate(0,159.03480610006656)"><path fill="rgb(255,0,0)" stroke="none" paint-order="stroke fill markers" d=" M 0 0 L 20 0 L 20 20 L 0 20 L 0 0 Z" fill-opacity="0.5882352941176471"/></g><g transform="translate(6,0)"><g transform="translate(0,155.28315288971191)"><path fill="rgb(255,127,0)" stroke="none" paint-order="stroke fill markers" d=" M 0 0 L 20 0 L 20 20 L 0 20 L 0 0 Z" fill-opacity="0.5882352941176471"/></g><g transform="translate(6,0)"/></g></g></g></g></g></g></g></g></g></g></g></g></g></g></g></g></g></g></g></g></g></g></g></g></g></g></g></g></g></g></g></g></g></g></g></g></g></g></g></g></g></g></g></g></g></g></g></g></g></g></g></g></g></g></g></g></g></g></g></g></g></g></g></g></g></g></g></g></g></g></g></g></g></g></g></g></g></g></g></g></g></g></g></g></g></g></g></g></g></g></g></g></g></g></g></g></g></g></g></g></g></svg>