<svg version="1.1" xmlns="http://www.w3.org/2000/svg" xmlns:xlink="http://www.w3.org/1999/xlink" width="600" height="600" viewBox="0 0 600 600"><defs/><g transform="scale(1,1)"><g transform="scale(1,1)"><rect fill="rgb(0,0,0)" stroke="none" x="0" y="0" width="600" height="600" fill-opacity="1"/></g><g><g transform="translate(0,300) rotate(1.9264332625417244,0,0)"><path fill="rgb(255,0,0)" stroke="none" paint-order="stroke fill markers" d=" M 0 0 L 93.43692486004373 0 L 93.43692486004373 93.43692486004373 L 0 93.43692486004373 L 0 0 Z" fill-opacity="0.5882352941176471"/></g><g transform="translate(60,0)"><g transform="translate(0,303.5561932369695) rotate(1.902299531898792,0,0)"><path fill="rgb(255,127,0)" stroke="none" paint-order="stroke fill markers" d=" M 0 0 L 94.62232260570022 0 L 94.62232260570022 94.62232260570022 L 0 94.62232260570022 L 0 0 Z" fill-opacity="0.5882352941176471"/></g><g transform="translate(60,0)"><g transform="translate(0,307.14569268611666) rotate(1.8785453155236937,0,0)"><path fill="rgb(255,255,0)" stroke="none" paint-order="stroke fill markers" d=" M 0 0 L 95.81882242208262 0 L 95.81882242208262 95.81882242208262 L 0 95.81882242208262 L 0 0 Z" fill-opacity="0.5882352941176471"/></g><g transform="translate(60,0)"><g transform="translate(0,304.5071997403733) rotate(1.8959477585229232,0,0)"><path fill="rgb(0,255,0)" stroke="none" paint-order="stroke fill markers" d=" M 0 0 L 94.9393247735015 0 L 94.9393247735015 94.9393247735015 L 0 94.9393247735015 L 0 0 Z" fill-opacity="0.5882352941176471"/></g><g transform="translate(60,0)"><g transform="translate(0,312.5545836722986) rotate(1.8438507142745,0,0)"><path fill="rgb(0,0,255)" stroke="none" paint-order="stroke fill markers" d=" M 0 0 L 97.62178608414325 0 L 97.62178608414325 97.62178608414325 L 0 97.62178608414325 L 0 0 Z" fill-opacity="0.5882352941176471"/></g><g transform="translate(60,0)"><g transform="translate(0,312.24815234981315) rotate(1.8457819956705934,0,0)"><path fill="rgb(75,0,130)" stroke="none" paint-order="stroke fill markers" d=" M 0 0 L 97.51964230998145 0 L 97.51964230998145 97.51964230998145 L 0 97.51964230998145 L 0 0 Z" fill-opacity="0.5882352941176471"/></g><g transform="translate(60,0)"><g transform="translate(0,304.7508280207667) rotate(1.894327384232208,0,0)"><path fill="rgb(148,0,211)" stroke="none" paint-order="stroke fill markers" d=" M 0 0 L 95.02053420029928 0 L 95.02053420029928 95.02053420029928 L 0 95.02053420029928 L 0 0 Z" fill-opacity="0.5882352941176471"/></g><g transform="translate(60,0)"><g transform="translate(0,300.59571549556625) rotate(1.9223478953956639,0,0)"><path fill="rgb(255,0,0)" stroke="none" paint-order="stroke fill markers" d=" M 0 0 L 93.63549669189915 0 L 93.63549669189915 93.63549669189915 L 0 93.63549669189915 L 0 0 Z" fill-opacity="0.5882352941176471"/></g><g transform="translate(60,0)"><g transform="translate(0,299.8783970402753) rotate(1.9272693404853596,0,0)"><path fill="rgb(255,127,0)" stroke="none" paint-order="stroke fill markers" d=" M 0 0 L 93.39639054013549 0 L 93.39639054013549 93.39639054013549 L 0 93.39639054013549 L 0 0 Z" fill-opacity="0.5882352941176471"/></g><g transform="translate(60,0)"><g transform="translate(0,302.32995596549785) rotate(1.9105526615273993,0,0)"><path fill="rgb(255,255,0)" stroke="none" paint-order="stroke fill markers" d=" M 0 0 L 94.21357684854301 0 L 94.21357684854301 94.21357684854301 L 0 94.21357684854301 L 0 0 Z" fill-opacity="0.5882352941176471"/></g><g transform="translate(60,0)"/></g></g></g></g></g></g></g></g></g></g></g></svg>