<svg version="1.1" xmlns="http://www.w3.org/2000/svg" xmlns:xlink="http://www.w3.org/1999/xlink" width="600" height="600" viewBox="0 0 600 600"><defs/><g transform="scale(1,1)"><g transform="scale(1,1)"><rect fill="rgb(0,0,0)" stroke="none" x="0" y="0" width="600" height="600" fill-opacity="1"/></g><g><g transform="translate(0,300) rotate(3.8228543401908075,0,0)"><path fill="rgb(255,0,0)" stroke="none" paint-order="stroke fill markers" d=" M 0 0 L 47.08523631350699 0 L 47.08523631350699 47.08523631350699 L 0 47.08523631350699 L 0 0 Z" fill-opacity="0.5882352941176471"/></g><g transform="translate(60,0)"><g transform="translate(0,566.7573924482339) rotate(1.3234869129496116,0,0)"><path fill="rgb(255,127,0)" stroke="none" paint-order="stroke fill markers" d=" M 0 0 L 136.00436712958495 0 L 136.00436712958495 136.00436712958495 L 0 136.00436712958495 L 0 0 Z" fill-opacity="0.5882352941176471"/></g><g transform="translate(60,0)"><g transform="translate(0,620.9395737771624) rotate(1.1683373244850728,0,0)"><path fill="rgb(255,255,0)" stroke="none" paint-order="stroke fill markers" d=" M 0 0 L 154.0650942392278 0 L 154.0650942392278 154.0650942392278 L 0 154.0650942392278 L 0 0 Z" fill-opacity="0.5882352941176471"/></g><g transform="translate(60,0)"><g transform="translate(0,611.9171140031724) rotate(1.1915983762933968,0,0)"><path fill="rgb(0,255,0)" stroke="none" paint-order="stroke fill markers" d=" M 0 0 L 151.05760764789778 0 L 151.05760764789778 151.05760764789778 L 0 151.05760764789778 L 0 0 Z" fill-opacity="0.5882352941176471"/></g><g transform="translate(60,0)"><g transform="translate(0,521.2049035525775) rotate(1.4898170487704563,0,0)"><path fill="rgb(0,0,255)" stroke="none" paint-order="stroke fill markers" d=" M 0 0 L 120.82020416436616 0 L 120.82020416436616 120.82020416436616 L 0 120.82020416436616 L 0 0 Z" fill-opacity="0.5882352941176471"/></g><g transform="translate(60,0)"><g transform="translate(0,498.4047113629979) rotate(1.5898231519511712,0,0)"><path fill="rgb(75,0,130)" stroke="none" paint-order="stroke fill markers" d=" M 0 0 L 113.22014010117296 0 L 113.22014010117296 113.22014010117296 L 0 113.22014010117296 L 0 0 Z" fill-opacity="0.5882352941176471"/></g><g transform="translate(60,0)"><g transform="translate(0,528.828538105716) rotate(1.4591272238954132,0,0)"><path fill="rgb(148,0,211)" stroke="none" paint-order="stroke fill markers" d=" M 0 0 L 123.361415682079 0 L 123.361415682079 123.361415682079 L 0 123.361415682079 L 0 0 Z" fill-opacity="0.5882352941176471"/></g><g transform="translate(60,0)"><g transform="translate(0,455.79586444909387) rotate(1.8178661497669713,0,0)"><path fill="rgb(255,0,0)" stroke="none" paint-order="stroke fill markers" d=" M 0 0 L 99.0171911298716 0 L 99.0171911298716 99.0171911298716 L 0 99.0171911298716 L 0 0 Z" fill-opacity="0.5882352941176471"/></g><g transform="translate(60,0)"><g transform="translate(0,360.295153017692) rotate(2.679224463510143,0,0)"><path fill="rgb(255,127,0)" stroke="none" paint-order="stroke fill markers" d=" M 0 0 L 67.18362065273764 0 L 67.18362065273764 67.18362065273764 L 0 67.18362065273764 L 0 0 Z" fill-opacity="0.5882352941176471"/></g><g transform="translate(60,0)"><g transform="translate(0,416.21692763537646) rotate(2.09731025083444,0,0)"><path fill="rgb(255,255,0)" stroke="none" paint-order="stroke fill markers" d=" M 0 0 L 85.8242121919658 0 L 85.8242121919658 85.8242121919658 L 0 85.8242121919658 L 0 0 Z" fill-opacity="0.5882352941176471"/></g><g transform="translate(60,0)"/></g></g></g></g></g></g></g></g></g></g></g></svg>