<svg version="1.1" xmlns="http://www.w3.org/2000/svg" xmlns:xlink="http://www.w3.org/1999/xlink" width="600" height="600" viewBox="0 0 600 600"><defs/><g transform="scale(1,1)"><g transform="scale(1,1)"><rect fill="rgb(0,0,0)" stroke="none" x="0" y="0" width="600" height="600" fill-opacity="1"/></g><g><g transform="translate(0,300) rotate(6.015997902289896,0,0)"><path fill="rgb(255,0,0)" stroke="none" paint-order="stroke fill markers" d=" M 0 0 L 29.920223198795636 0 L 29.920223198795636 29.920223198795636 L 0 29.920223198795636 L 0 0 Z" fill-opacity="0.5882352941176471"/></g><g transform="translate(12,0)"><g transform="translate(0,295.4402521883855) rotate(6.337959598184912,0,0)"><path fill="rgb(255,127,0)" stroke="none" paint-order="stroke fill markers" d=" M 0 0 L 28.400307261590793 0 L 28.400307261590793 28.400307261590793 L 0 28.400307261590793 L 0 0 Z" fill-opacity="0.5882352941176471"/></g><g transform="translate(12,0)"><g transform="translate(0,307.1896893081103) rotate(5.569860762784151,0,0)"><path fill="rgb(255,255,0)" stroke="none" paint-order="stroke fill markers" d=" M 0 0 L 32.31678630149907 0 L 32.31678630149907 32.31678630149907 L 0 32.31678630149907 L 0 0 Z" fill-opacity="0.5882352941176471"/></g><g transform="translate(12,0)"><g transform="translate(0,312.2680794240273) rotate(5.292625903822022,0,0)"><path fill="rgb(0,255,0)" stroke="none" paint-order="stroke fill markers" d=" M 0 0 L 34.00958300680474 0 L 34.00958300680474 34.00958300680474 L 0 34.00958300680474 L 0 0 Z" fill-opacity="0.5882352941176471"/></g><g transform="translate(12,0)"><g transform="translate(0,329.7640382118867) rotate(4.517894332493995,0,0)"><path fill="rgb(0,0,255)" stroke="none" paint-order="stroke fill markers" d=" M 0 0 L 39.841569269424525 0 L 39.841569269424525 39.841569269424525 L 0 39.841569269424525 L 0 0 Z" fill-opacity="0.5882352941176471"/></g><g transform="translate(12,0)"><g transform="translate(0,348.6320023993479) rotate(3.9019407040326723,0,0)"><path fill="rgb(75,0,130)" stroke="none" paint-order="stroke fill markers" d=" M 0 0 L 46.13089066524493 0 L 46.13089066524493 46.13089066524493 L 0 46.13089066524493 L 0 0 Z" fill-opacity="0.5882352941176471"/></g><g transform="translate(12,0)"><g transform="translate(0,347.60763641164056) rotate(3.9310377749613057,0,0)"><path fill="rgb(148,0,211)" stroke="none" paint-order="stroke fill markers" d=" M 0 0 L 45.789435336009156 0 L 45.789435336009156 45.789435336009156 L 0 45.789435336009156 L 0 0 Z" fill-opacity="0.5882352941176471"/></g><g transform="translate(12,0)"><g transform="translate(0,366.0143768710242) rotate(3.4665372422981156,0,0)"><path fill="rgb(255,0,0)" stroke="none" paint-order="stroke fill markers" d=" M 0 0 L 51.925015489137024 0 L 51.925015489137024 51.925015489137024 L 0 51.925015489137024 L 0 0 Z" fill-opacity="0.5882352941176471"/></g><g transform="translate(12,0)"><g transform="translate(0,393.0513331407319) rotate(2.9538541885376794,0,0)"><path fill="rgb(255,127,0)" stroke="none" paint-order="stroke fill markers" d=" M 0 0 L 60.93733424570626 0 L 60.93733424570626 60.93733424570626 L 0 60.93733424570626 L 0 0 Z" fill-opacity="0.5882352941176471"/></g><g transform="translate(12,0)"><g transform="translate(0,410.8253560523799) rotate(2.692111767275149,0,0)"><path fill="rgb(255,255,0)" stroke="none" paint-order="stroke fill markers" d=" M 0 0 L 66.86200854958894 0 L 66.86200854958894 66.86200854958894 L 0 66.86200854958894 L 0 0 Z" fill-opacity="0.5882352941176471"/></g><g transform="translate(12,0)"><g transform="translate(0,431.57316111576245) rotate(2.439753553546383,0,0)"><path fill="rgb(0,255,0)" stroke="none" paint-order="stroke fill markers" d=" M 0 0 L 73.77794357071646 0 L 73.77794357071646 73.77794357071646 L 0 73.77794357071646 L 0 0 Z" fill-opacity="0.5882352941176471"/></g><g transform="translate(12,0)"><g transform="translate(0,427.86655301152166) rotate(2.481307225856112,0,0)"><path fill="rgb(0,0,255)" stroke="none" paint-order="stroke fill markers" d=" M 0 0 L 72.5424075359695 0 L 72.5424075359695 72.5424075359695 L 0 72.5424075359695 L 0 0 Z" fill-opacity="0.5882352941176471"/></g><g transform="translate(12,0)"><g transform="translate(0,428.9746097635598) rotate(2.4687375606720767,0,0)"><path fill="rgb(75,0,130)" stroke="none" paint-order="stroke fill markers" d=" M 0 0 L 72.91175978664889 0 L 72.91175978664889 72.91175978664889 L 0 72.91175978664889 L 0 0 Z" fill-opacity="0.5882352941176471"/></g><g transform="translate(12,0)"><g transform="translate(0,433.3660535829115) rotate(2.4201493765767856,0,0)"><path fill="rgb(148,0,211)" stroke="none" paint-order="stroke fill markers" d=" M 0 0 L 74.37557439309946 0 L 74.37557439309946 74.37557439309946 L 0 74.37557439309946 L 0 0 Z" fill-opacity="0.5882352941176471"/></g><g transform="translate(12,0)"><g transform="translate(0,456.35253154609325) rotate(2.1941122926087275,0,0)"><path fill="rgb(255,0,0)" stroke="none" paint-order="stroke fill markers" d=" M 0 0 L 82.03773371416004 0 L 82.03773371416004 82.03773371416004 L 0 82.03773371416004 L 0 0 Z" fill-opacity="0.5882352941176471"/></g><g transform="translate(12,0)"><g transform="translate(0,509.62578501663023) rotate(1.8036888165097404,0,0)"><path fill="rgb(255,127,0)" stroke="none" paint-order="stroke fill markers" d=" M 0 0 L 99.79548487100571 0 L 99.79548487100571 99.79548487100571 L 0 99.79548487100571 L 0 0 Z" fill-opacity="0.5882352941176471"/></g><g transform="translate(12,0)"><g transform="translate(0,517.8723771579495) rotate(1.7553380746874792,0,0)"><path fill="rgb(255,255,0)" stroke="none" paint-order="stroke fill markers" d=" M 0 0 L 102.54434891811212 0 L 102.54434891811212 102.54434891811212 L 0 102.54434891811212 L 0 0 Z" fill-opacity="0.5882352941176471"/></g><g transform="translate(12,0)"><g transform="translate(0,525.8502911524067) rotate(1.7109671942914737,0,0)"><path fill="rgb(0,255,0)" stroke="none" paint-order="stroke fill markers" d=" M 0 0 L 105.20365358293122 0 L 105.20365358293122 105.20365358293122 L 0 105.20365358293122 L 0 0 Z" fill-opacity="0.5882352941176471"/></g><g transform="translate(12,0)"><g transform="translate(0,552.3240501805785) rotate(1.5785563305840518,0,0)"><path fill="rgb(0,0,255)" stroke="none" paint-order="stroke fill markers" d=" M 0 0 L 114.02823992565511 0 L 114.02823992565511 114.02823992565511 L 0 114.02823992565511 L 0 0 Z" fill-opacity="0.5882352941176471"/></g><g transform="translate(12,0)"><g transform="translate(0,584.5266711862139) rotate(1.4427418220207746,0,0)"><path fill="rgb(75,0,130)" stroke="none" paint-order="stroke fill markers" d=" M 0 0 L 124.76244692753357 0 L 124.76244692753357 124.76244692753357 L 0 124.76244692753357 L 0 0 Z" fill-opacity="0.5882352941176471"/></g><g transform="translate(12,0)"><g transform="translate(0,608.9189097285605) rotate(1.3544711793725162,0,0)"><path fill="rgb(148,0,211)" stroke="none" paint-order="stroke fill markers" d=" M 0 0 L 132.89319310831578 0 L 132.89319310831578 132.89319310831578 L 0 132.89319310831578 L 0 0 Z" fill-opacity="0.5882352941176471"/></g><g transform="translate(12,0)"><g transform="translate(0,620.1665051798751) rotate(1.317307154117635,0,0)"><path fill="rgb(255,0,0)" stroke="none" paint-order="stroke fill markers" d=" M 0 0 L 136.64239159208734 0 L 136.64239159208734 136.64239159208734 L 0 136.64239159208734 L 0 0 Z" fill-opacity="0.5882352941176471"/></g><g transform="translate(12,0)"><g transform="translate(0,609.8272263787067) rotate(1.3513922855002056,0,0)"><path fill="rgb(255,127,0)" stroke="none" paint-order="stroke fill markers" d=" M 0 0 L 133.19596532503118 0 L 133.19596532503118 133.19596532503118 L 0 133.19596532503118 L 0 0 Z" fill-opacity="0.5882352941176471"/></g><g transform="translate(12,0)"><g transform="translate(0,592.2246685724422) rotate(1.4136668244615502,0,0)"><path fill="rgb(255,255,0)" stroke="none" paint-order="stroke fill markers" d=" M 0 0 L 127.32844605627635 0 L 127.32844605627635 127.32844605627635 L 0 127.32844605627635 L 0 0 Z" fill-opacity="0.5882352941176471"/></g><g transform="translate(12,0)"><g transform="translate(0,565.2827963458942) rotate(1.5209405377080987,0,0)"><path fill="rgb(0,255,0)" stroke="none" paint-order="stroke fill markers" d=" M 0 0 L 118.34782198076037 0 L 118.34782198076037 118.34782198076037 L 0 118.34782198076037 L 0 0 Z" fill-opacity="0.5882352941176471"/></g><g transform="translate(12,0)"><g transform="translate(0,541.0298285952713) rotate(1.6324531779238924,0,0)"><path fill="rgb(0,0,255)" stroke="none" paint-order="stroke fill markers" d=" M 0 0 L 110.26349939721939 0 L 110.26349939721939 110.26349939721939 L 0 110.26349939721939 L 0 0 Z" fill-opacity="0.5882352941176471"/></g><g transform="translate(12,0)"><g transform="translate(0,538.3055587027322) rotate(1.6460091085865967,0,0)"><path fill="rgb(75,0,130)" stroke="none" paint-order="stroke fill markers" d=" M 0 0 L 109.35540943303971 0 L 109.35540943303971 109.35540943303971 L 0 109.35540943303971 L 0 0 Z" fill-opacity="0.5882352941176471"/></g><g transform="translate(12,0)"><g transform="translate(0,512.9959566838382) rotate(1.7836108382981763,0,0)"><path fill="rgb(148,0,211)" stroke="none" paint-order="stroke fill markers" d=" M 0 0 L 100.9188754267417 0 L 100.9188754267417 100.9188754267417 L 0 100.9188754267417 L 0 0 Z" fill-opacity="0.5882352941176471"/></g><g transform="translate(12,0)"><g transform="translate(0,517.3461376792445) rotate(1.7583459148638951,0,0)"><path fill="rgb(255,0,0)" stroke="none" paint-order="stroke fill markers" d=" M 0 0 L 102.3689357585438 0 L 102.3689357585438 102.3689357585438 L 0 102.3689357585438 L 0 0 Z" fill-opacity="0.5882352941176471"/></g><g transform="translate(12,0)"><g transform="translate(0,547.4283545700323) rotate(1.601475615450293,0,0)"><path fill="rgb(255,127,0)" stroke="none" paint-order="stroke fill markers" d=" M 0 0 L 112.39634138880642 0 L 112.39634138880642 112.39634138880642 L 0 112.39634138880642 L 0 0 Z" fill-opacity="0.5882352941176471"/></g><g transform="translate(12,0)"><g transform="translate(0,533.5502131953599) rotate(1.670219063884183,0,0)"><path fill="rgb(255,255,0)" stroke="none" paint-order="stroke fill markers" d=" M 0 0 L 107.77029426391557 0 L 107.77029426391557 107.77029426391557 L 0 107.77029426391557 L 0 0 Z" fill-opacity="0.5882352941176471"/></g><g transform="translate(12,0)"><g transform="translate(0,517.3734037154954) rotate(1.75818981650939,0,0)"><path fill="rgb(0,255,0)" stroke="none" paint-order="stroke fill markers" d=" M 0 0 L 102.37802443729412 0 L 102.37802443729412 102.37802443729412 L 0 102.37802443729412 L 0 0 Z" fill-opacity="0.5882352941176471"/></g><g transform="translate(12,0)"><g transform="translate(0,501.470716951535) rotate(1.8541957527340323,0,0)"><path fill="rgb(0,0,255)" stroke="none" paint-order="stroke fill markers" d=" M 0 0 L 97.0771288493073 0 L 97.0771288493073 97.0771288493073 L 0 97.0771288493073 L 0 0 Z" fill-opacity="0.5882352941176471"/></g><g transform="translate(12,0)"><g transform="translate(0,481.99253334413334) rotate(1.987097094558227,0,0)"><path fill="rgb(75,0,130)" stroke="none" paint-order="stroke fill markers" d=" M 0 0 L 90.58440098017341 0 L 90.58440098017341 90.58440098017341 L 0 90.58440098017341 L 0 0 Z" fill-opacity="0.5882352941176471"/></g><g transform="translate(12,0)"><g transform="translate(0,456.13713702596567) rotate(2.196034228273238,0,0)"><path fill="rgb(148,0,211)" stroke="none" paint-order="stroke fill markers" d=" M 0 0 L 81.9659355407842 0 L 81.9659355407842 81.9659355407842 L 0 81.9659355407842 L 0 0 Z" fill-opacity="0.5882352941176471"/></g><g transform="translate(12,0)"><g transform="translate(0,459.31976132957345) rotate(2.1679744088788575,0,0)"><path fill="rgb(255,0,0)" stroke="none" paint-order="stroke fill markers" d=" M 0 0 L 83.02681030865344 0 L 83.02681030865344 83.02681030865344 L 0 83.02681030865344 L 0 0 Z" fill-opacity="0.5882352941176471"/></g><g transform="translate(12,0)"><g transform="translate(0,446.03230976348567) rotate(2.2901445219700105,0,0)"><path fill="rgb(255,127,0)" stroke="none" paint-order="stroke fill markers" d=" M 0 0 L 78.59765978662419 0 L 78.59765978662419 78.59765978662419 L 0 78.59765978662419 L 0 0 Z" fill-opacity="0.5882352941176471"/></g><g transform="translate(12,0)"><g transform="translate(0,473.62669598005067) rotate(2.050212237091102,0,0)"><path fill="rgb(255,255,0)" stroke="none" paint-order="stroke fill markers" d=" M 0 0 L 87.79578852547918 0 L 87.79578852547918 87.79578852547918 L 0 87.79578852547918 L 0 0 Z" fill-opacity="0.5882352941176471"/></g><g transform="translate(12,0)"><g transform="translate(0,495.7074360466713) rotate(1.8916298855298452,0,0)"><path fill="rgb(0,255,0)" stroke="none" paint-order="stroke fill markers" d=" M 0 0 L 95.15603521435274 0 L 95.15603521435274 95.15603521435274 L 0 95.15603521435274 L 0 0 Z" fill-opacity="0.5882352941176471"/></g><g transform="translate(12,0)"><g transform="translate(0,515.4025204000707) rotate(1.7695450096922516,0,0)"><path fill="rgb(0,0,255)" stroke="none" paint-order="stroke fill markers" d=" M 0 0 L 101.72106333215254 0 L 101.72106333215254 101.72106333215254 L 0 101.72106333215254 L 0 0 Z" fill-opacity="0.5882352941176471"/></g><g transform="translate(12,0)"><g transform="translate(0,523.573679611684) rotate(1.7233986677962678,0,0)"><path fill="rgb(75,0,130)" stroke="none" paint-order="stroke fill markers" d=" M 0 0 L 104.44478306935697 0 L 104.44478306935697 104.44478306935697 L 0 104.44478306935697 L 0 0 Z" fill-opacity="0.5882352941176471"/></g><g transform="translate(12,0)"><g transform="translate(0,546.8884249025) rotate(1.6040441184129952,0,0)"><path fill="rgb(148,0,211)" stroke="none" paint-order="stroke fill markers" d=" M 0 0 L 112.21636483296227 0 L 112.21636483296227 112.21636483296227 L 0 112.21636483296227 L 0 0 Z" fill-opacity="0.5882352941176471"/></g><g transform="translate(12,0)"><g transform="translate(0,558.5850501551465) rotate(1.5501841113051968,0,0)"><path fill="rgb(255,0,0)" stroke="none" paint-order="stroke fill markers" d=" M 0 0 L 116.11523991717782 0 L 116.11523991717782 116.11523991717782 L 0 116.11523991717782 L 0 0 Z" fill-opacity="0.5882352941176471"/></g><g transform="translate(12,0)"><g transform="translate(0,551.3890033814665) rotate(1.5828829477877162,0,0)"><path fill="rgb(255,127,0)" stroke="none" paint-order="stroke fill markers" d=" M 0 0 L 113.71655765928448 0 L 113.71655765928448 113.71655765928448 L 0 113.71655765928448 L 0 0 Z" fill-opacity="0.5882352941176471"/></g><g transform="translate(12,0)"><g transform="translate(0,545.5402119730511) rotate(1.6104938271334976,0,0)"><path fill="rgb(255,255,0)" stroke="none" paint-order="stroke fill markers" d=" M 0 0 L 111.76696052314601 0 L 111.76696052314601 111.76696052314601 L 0 111.76696052314601 L 0 0 Z" fill-opacity="0.5882352941176471"/></g><g transform="translate(12,0)"><g transform="translate(0,566.0007920737598) rotate(1.5178709842964238,0,0)"><path fill="rgb(0,255,0)" stroke="none" paint-order="stroke fill markers" d=" M 0 0 L 118.58715389004891 0 L 118.58715389004891 118.58715389004891 L 0 118.58715389004891 L 0 0 Z" fill-opacity="0.5882352941176471"/></g><g transform="translate(12,0)"><g transform="translate(0,559.369012317283) rotate(1.5467032107958296,0,0)"><path fill="rgb(0,0,255)" stroke="none" paint-order="stroke fill markers" d=" M 0 0 L 116.37656063789 0 L 116.37656063789 116.37656063789 L 0 116.37656063789 L 0 0 Z" fill-opacity="0.5882352941176471"/></g><g transform="translate(12,0)"><g transform="translate(0,538.2014976118487) rotate(1.646531380728234,0,0)"><path fill="rgb(75,0,130)" stroke="none" paint-order="stroke fill markers" d=" M 0 0 L 109.32072240274518 0 L 109.32072240274518 109.32072240274518 L 0 109.32072240274518 L 0 0 Z" fill-opacity="0.5882352941176471"/></g><g transform="translate(12,0)"><g transform="translate(0,526.3626620371418) rotate(1.7081940684656711,0,0)"><path fill="rgb(148,0,211)" stroke="none" paint-order="stroke fill markers" d=" M 0 0 L 105.37444387784291 0 L 105.37444387784291 105.37444387784291 L 0 105.37444387784291 L 0 0 Z" fill-opacity="0.5882352941176471"/></g><g transform="translate(12,0)"><g transform="translate(0,507.51612916824314) rotate(1.816488882563442,0,0)"><path fill="rgb(255,0,0)" stroke="none" paint-order="stroke fill markers" d=" M 0 0 L 99.09226625487668 0 L 99.09226625487668 99.09226625487668 L 0 99.09226625487668 L 0 0 Z" fill-opacity="0.5882352941176471"/></g><g transform="translate(12,0)"/></g></g></g></g></g></g></g></g></g></g></g></g></g></g></g></g></g></g></g></g></g></g></g></g></g></g></g></g></g></g></g></g></g></g></g></g></g></g></g></g></g></g></g></g></g></g></g></g></g></g></g></svg>