<svg version="1.1" xmlns="http://www.w3.org/2000/svg" xmlns:xlink="http://www.w3.org/1999/xlink" width="600" height="600" viewBox="0 0 600 600"><defs/><g transform="scale(1,1)"><g transform="scale(1,1)"><rect fill="rgb(0,0,0)" stroke="none" x="0" y="0" width="600" height="600" fill-opacity="1"/></g><g><g transform="translate(0,300) rotate(1.518620083520264,0,0)"><path fill="rgb(255,0,0)" stroke="none" paint-order="stroke fill markers" d=" M 0 0 L 118.5286576631779 0 L 118.5286576631779 118.5286576631779 L 0 118.5286576631779 L 0 0 Z" fill-opacity="0.5882352941176471"/></g><g transform="translate(6,0)"><g transform="translate(0,328.5561876375947) rotate(1.4057295848974949,0,0)"><path fill="rgb(255,127,0)" stroke="none" paint-order="stroke fill markers" d=" M 0 0 L 128.04738687570946 0 L 128.04738687570946 128.04738687570946 L 0 128.04738687570946 L 0 0 Z" fill-opacity="0.5882352941176471"/></g><g transform="translate(6,0)"><g transform="translate(0,364.805925280304) rotate(1.2845157155083642,0,0)"><path fill="rgb(255,255,0)" stroke="none" paint-order="stroke fill markers" d=" M 0 0 L 140.13063275661256 0 L 140.13063275661256 140.13063275661256 L 0 140.13063275661256 L 0 0 Z" fill-opacity="0.5882352941176471"/></g><g transform="translate(6,0)"><g transform="translate(0,394.89010773361827) rotate(1.1987317931134873,0,0)"><path fill="rgb(0,255,0)" stroke="none" paint-order="stroke fill markers" d=" M 0 0 L 150.158693574384 0 L 150.158693574384 150.158693574384 L 0 150.158693574384 L 0 0 Z" fill-opacity="0.5882352941176471"/></g><g transform="translate(6,0)"><g transform="translate(0,420.581699943199) rotate(1.1340543062785464,0,0)"><path fill="rgb(0,0,255)" stroke="none" paint-order="stroke fill markers" d=" M 0 0 L 158.72255764424423 0 L 158.72255764424423 158.72255764424423 L 0 158.72255764424423 L 0 0 Z" fill-opacity="0.5882352941176471"/></g><g transform="translate(6,0)"><g transform="translate(0,427.3688047092971) rotate(1.1181171093761133,0,0)"><path fill="rgb(75,0,130)" stroke="none" paint-order="stroke fill markers" d=" M 0 0 L 160.98492589961026 0 L 160.98492589961026 160.98492589961026 L 0 160.98492589961026 L 0 0 Z" fill-opacity="0.5882352941176471"/></g><g transform="translate(6,0)"><g transform="translate(0,456.4289070701852) rotate(1.054656848912315,0,0)"><path fill="rgb(148,0,211)" stroke="none" paint-order="stroke fill markers" d=" M 0 0 L 170.67162668657295 0 L 170.67162668657295 170.67162668657295 L 0 170.67162668657295 L 0 0 Z" fill-opacity="0.5882352941176471"/></g><g transform="translate(6,0)"><g transform="translate(0,450.49426632906614) rotate(1.0670244717064448,0,0)"><path fill="rgb(255,0,0)" stroke="none" paint-order="stroke fill markers" d=" M 0 0 L 168.69341310619993 0 L 168.69341310619993 168.69341310619993 L 0 168.69341310619993 L 0 0 Z" fill-opacity="0.5882352941176471"/></g><g transform="translate(6,0)"><g transform="translate(0,451.068274859498) rotate(1.0658155977030401,0,0)"><path fill="rgb(255,127,0)" stroke="none" paint-order="stroke fill markers" d=" M 0 0 L 168.88474928301056 0 L 168.88474928301056 168.88474928301056 L 0 168.88474928301056 L 0 0 Z" fill-opacity="0.5882352941176471"/></g><g transform="translate(6,0)"><g transform="translate(0,447.2247448406084) rotate(1.0739627872897115,0,0)"><path fill="rgb(255,255,0)" stroke="none" paint-order="stroke fill markers" d=" M 0 0 L 167.60357261004737 0 L 167.60357261004737 167.60357261004737 L 0 167.60357261004737 L 0 0 Z" fill-opacity="0.5882352941176471"/></g><g transform="translate(6,0)"><g transform="translate(0,433.5575928460578) rotate(1.1039703631336373,0,0)"><path fill="rgb(0,255,0)" stroke="none" paint-order="stroke fill markers" d=" M 0 0 L 163.04785527853048 0 L 163.04785527853048 163.04785527853048 L 0 163.04785527853048 L 0 0 Z" fill-opacity="0.5882352941176471"/></g><g transform="translate(6,0)"><g transform="translate(0,457.37097438180336) rotate(1.0527199266278504,0,0)"><path fill="rgb(0,0,255)" stroke="none" paint-order="stroke fill markers" d=" M 0 0 L 170.985649123779 0 L 170.985649123779 170.985649123779 L 0 170.985649123779 L 0 0 Z" fill-opacity="0.5882352941176471"/></g><g transform="translate(6,0)"><g transform="translate(0,472.8143231584208) rotate(1.0219524930939812,0,0)"><path fill="rgb(75,0,130)" stroke="none" paint-order="stroke fill markers" d=" M 0 0 L 176.13343204931815 0 L 176.13343204931815 176.13343204931815 L 0 176.13343204931815 L 0 0 Z" fill-opacity="0.5882352941176471"/></g><g transform="translate(6,0)"><g transform="translate(0,468.8968588479318) rotate(1.0295856550884075,0,0)"><path fill="rgb(148,0,211)" stroke="none" paint-order="stroke fill markers" d=" M 0 0 L 174.82761061248848 0 L 174.82761061248848 174.82761061248848 L 0 174.82761061248848 L 0 0 Z" fill-opacity="0.5882352941176471"/></g><g transform="translate(6,0)"><g transform="translate(0,431.6210883783915) rotate(1.1083583199386493,0,0)"><path fill="rgb(255,0,0)" stroke="none" paint-order="stroke fill markers" d=" M 0 0 L 162.4023537893084 0 L 162.4023537893084 162.4023537893084 L 0 162.4023537893084 L 0 0 Z" fill-opacity="0.5882352941176471"/></g><g transform="translate(6,0)"><g transform="translate(0,387.59908432204384) rotate(1.2184526330280976,0,0)"><path fill="rgb(255,127,0)" stroke="none" paint-order="stroke fill markers" d=" M 0 0 L 147.7283524371925 0 L 147.7283524371925 147.7283524371925 L 0 147.7283524371925 L 0 0 Z" fill-opacity="0.5882352941176471"/></g><g transform="translate(6,0)"><g transform="translate(0,404.3206378908597) rotate(1.1741514194942422,0,0)"><path fill="rgb(255,255,0)" stroke="none" paint-order="stroke fill markers" d=" M 0 0 L 153.3022036267978 0 L 153.3022036267978 153.3022036267978 L 0 153.3022036267978 L 0 0 Z" fill-opacity="0.5882352941176471"/></g><g transform="translate(6,0)"><g transform="translate(0,405.7708504891406) rotate(1.1704606337635775,0,0)"><path fill="rgb(0,255,0)" stroke="none" paint-order="stroke fill markers" d=" M 0 0 L 153.78560782622478 0 L 153.78560782622478 153.78560782622478 L 0 153.78560782622478 L 0 0 Z" fill-opacity="0.5882352941176471"/></g><g transform="translate(6,0)"><g transform="translate(0,393.13871256437795) rotate(1.203410504000726,0,0)"><path fill="rgb(0,0,255)" stroke="none" paint-order="stroke fill markers" d=" M 0 0 L 149.5748951846372 0 L 149.5748951846372 149.5748951846372 L 0 149.5748951846372 L 0 0 Z" fill-opacity="0.5882352941176471"/></g><g transform="translate(6,0)"><g transform="translate(0,377.43250146965914) rotate(1.2470599566783356,0,0)"><path fill="rgb(75,0,130)" stroke="none" paint-order="stroke fill markers" d=" M 0 0 L 144.3394914863976 0 L 144.3394914863976 144.3394914863976 L 0 144.3394914863976 L 0 0 Z" fill-opacity="0.5882352941176471"/></g><g transform="translate(6,0)"><g transform="translate(0,355.4590042861902) rotate(1.3137248472878789,0,0)"><path fill="rgb(148,0,211)" stroke="none" paint-order="stroke fill markers" d=" M 0 0 L 137.01499242524127 0 L 137.01499242524127 137.01499242524127 L 0 137.01499242524127 L 0 0 Z" fill-opacity="0.5882352941176471"/></g><g transform="translate(6,0)"><g transform="translate(0,371.5278834048616) rotate(1.2642998861206838,0,0)"><path fill="rgb(255,0,0)" stroke="none" paint-order="stroke fill markers" d=" M 0 0 L 142.37128546479843 0 L 142.37128546479843 142.37128546479843 L 0 142.37128546479843 L 0 0 Z" fill-opacity="0.5882352941176471"/></g><g transform="translate(6,0)"><g transform="translate(0,394.6045227316502) rotate(1.1994922263628545,0,0)"><path fill="rgb(255,127,0)" stroke="none" paint-order="stroke fill markers" d=" M 0 0 L 150.06349857372797 0 L 150.06349857372797 150.06349857372797 L 0 150.06349857372797 L 0 0 Z" fill-opacity="0.5882352941176471"/></g><g transform="translate(6,0)"><g transform="translate(0,412.24608828152435) rotate(1.154260352599324,0,0)"><path fill="rgb(255,255,0)" stroke="none" paint-order="stroke fill markers" d=" M 0 0 L 155.944020423686 0 L 155.944020423686 155.944020423686 L 0 155.944020423686 L 0 0 Z" fill-opacity="0.5882352941176471"/></g><g transform="translate(6,0)"><g transform="translate(0,429.345514310746) rotate(1.1135593669247976,0,0)"><path fill="rgb(0,255,0)" stroke="none" paint-order="stroke fill markers" d=" M 0 0 L 161.64382910009323 0 L 161.64382910009323 161.64382910009323 L 0 161.64382910009323 L 0 0 Z" fill-opacity="0.5882352941176471"/></g><g transform="translate(6,0)"><g transform="translate(0,452.9937166647621) rotate(1.0617805055625835,0,0)"><path fill="rgb(0,0,255)" stroke="none" paint-order="stroke fill markers" d=" M 0 0 L 169.52656321809857 0 L 169.52656321809857 169.52656321809857 L 0 169.52656321809857 L 0 0 Z" fill-opacity="0.5882352941176471"/></g><g transform="translate(6,0)"><g transform="translate(0,426.4387530610973) rotate(1.1202744814034278,0,0)"><path fill="rgb(75,0,130)" stroke="none" paint-order="stroke fill markers" d=" M 0 0 L 160.67490868354366 0 L 160.67490868354366 160.67490868354366 L 0 160.67490868354366 L 0 0 Z" fill-opacity="0.5882352941176471"/></g><g transform="translate(6,0)"><g transform="translate(0,399.44318842414776) rotate(1.1867371276212972,0,0)"><path fill="rgb(148,0,211)" stroke="none" paint-order="stroke fill markers" d=" M 0 0 L 151.6763871378938 0 L 151.6763871378938 151.6763871378938 L 0 151.6763871378938 L 0 0 Z" fill-opacity="0.5882352941176471"/></g><g transform="translate(6,0)"><g transform="translate(0,357.1179401882193) rotate(1.3084440994079456,0,0)"><path fill="rgb(255,0,0)" stroke="none" paint-order="stroke fill markers" d=" M 0 0 L 137.567971059251 0 L 137.567971059251 137.567971059251 L 0 137.567971059251 L 0 0 Z" fill-opacity="0.5882352941176471"/></g><g transform="translate(6,0)"><g transform="translate(0,298.56615724476706) rotate(1.5247684650174083,0,0)"><path fill="rgb(255,127,0)" stroke="none" paint-order="stroke fill markers" d=" M 0 0 L 118.05071007810024 0 L 118.05071007810024 118.05071007810024 L 0 118.05071007810024 L 0 0 Z" fill-opacity="0.5882352941176471"/></g><g transform="translate(6,0)"><g transform="translate(0,272.55024043014686) rotate(1.6456580466153834,0,0)"><path fill="rgb(255,255,0)" stroke="none" paint-order="stroke fill markers" d=" M 0 0 L 109.37873780656018 0 L 109.37873780656018 109.37873780656018 L 0 109.37873780656018 L 0 0 Z" fill-opacity="0.5882352941176471"/></g><g transform="translate(6,0)"><g transform="translate(0,293.4298221038755) rotate(1.547207913199105,0,0)"><path fill="rgb(0,255,0)" stroke="none" paint-order="stroke fill markers" d=" M 0 0 L 116.33859836446972 0 L 116.33859836446972 116.33859836446972 L 0 116.33859836446972 L 0 0 Z" fill-opacity="0.5882352941176471"/></g><g transform="translate(6,0)"><g transform="translate(0,293.9263271914204) rotate(1.5450100031398726,0,0)"><path fill="rgb(0,0,255)" stroke="none" paint-order="stroke fill markers" d=" M 0 0 L 116.50410006031802 0 L 116.50410006031802 116.50410006031802 L 0 116.50410006031802 L 0 0 Z" fill-opacity="0.5882352941176471"/></g><g transform="translate(6,0)"><g transform="translate(0,289.418961569649) rotate(1.5651950042104907,0,0)"><path fill="rgb(75,0,130)" stroke="none" paint-order="stroke fill markers" d=" M 0 0 L 115.0016448530609 0 L 115.0016448530609 115.0016448530609 L 0 115.0016448530609 L 0 0 Z" fill-opacity="0.5882352941176471"/></g><g transform="translate(6,0)"><g transform="translate(0,296.07867261981744) rotate(1.5355538486512017,0,0)"><path fill="rgb(148,0,211)" stroke="none" paint-order="stroke fill markers" d=" M 0 0 L 117.22154853645037 0 L 117.22154853645037 117.22154853645037 L 0 117.22154853645037 L 0 0 Z" fill-opacity="0.5882352941176471"/></g><g transform="translate(6,0)"><g transform="translate(0,298.2484351727627) rotate(1.526137615628137,0,0)"><path fill="rgb(255,0,0)" stroke="none" paint-order="stroke fill markers" d=" M 0 0 L 117.94480272076545 0 L 117.94480272076545 117.94480272076545 L 0 117.94480272076545 L 0 0 Z" fill-opacity="0.5882352941176471"/></g><g transform="translate(6,0)"><g transform="translate(0,294.2618613133128) rotate(1.5435282058443385,0,0)"><path fill="rgb(255,127,0)" stroke="none" paint-order="stroke fill markers" d=" M 0 0 L 116.61594476761549 0 L 116.61594476761549 116.61594476761549 L 0 116.61594476761549 L 0 0 Z" fill-opacity="0.5882352941176471"/></g><g transform="translate(6,0)"><g transform="translate(0,281.2380701167324) rotate(1.6032109674238224,0,0)"><path fill="rgb(255,255,0)" stroke="none" paint-order="stroke fill markers" d=" M 0 0 L 112.27468103542202 0 L 112.27468103542202 112.27468103542202 L 0 112.27468103542202 L 0 0 Z" fill-opacity="0.5882352941176471"/></g><g transform="translate(6,0)"><g transform="translate(0,248.04962061573184) rotate(1.7784476239699833,0,0)"><path fill="rgb(0,255,0)" stroke="none" paint-order="stroke fill markers" d=" M 0 0 L 101.21186453508851 0 L 101.21186453508851 101.21186453508851 L 0 101.21186453508851 L 0 0 Z" fill-opacity="0.5882352941176471"/></g><g transform="translate(6,0)"><g transform="translate(0,202.23142604949385) rotate(2.094505654051132,0,0)"><path fill="rgb(0,0,255)" stroke="none" paint-order="stroke fill markers" d=" M 0 0 L 85.93913301300917 0 L 85.93913301300917 85.93913301300917 L 0 85.93913301300917 L 0 0 Z" fill-opacity="0.5882352941176471"/></g><g transform="translate(6,0)"><g transform="translate(0,206.28149042197919) rotate(2.0621118521754433,0,0)"><path fill="rgb(75,0,130)" stroke="none" paint-order="stroke fill markers" d=" M 0 0 L 87.28915447050429 0 L 87.28915447050429 87.28915447050429 L 0 87.28915447050429 L 0 0 Z" fill-opacity="0.5882352941176471"/></g><g transform="translate(6,0)"><g transform="translate(0,208.387205186374) rotate(2.0456623802898353,0,0)"><path fill="rgb(148,0,211)" stroke="none" paint-order="stroke fill markers" d=" M 0 0 L 87.99105939196922 0 L 87.99105939196922 87.99105939196922 L 0 87.99105939196922 L 0 0 Z" fill-opacity="0.5882352941176471"/></g><g transform="translate(6,0)"><g transform="translate(0,235.5206659259619) rotate(1.8549903293574654,0,0)"><path fill="rgb(255,0,0)" stroke="none" paint-order="stroke fill markers" d=" M 0 0 L 97.0355463051652 0 L 97.0355463051652 97.0355463051652 L 0 97.0355463051652 L 0 0 Z" fill-opacity="0.5882352941176471"/></g><g transform="translate(6,0)"><g transform="translate(0,263.59378944816297) rotate(1.6918365872441774,0,0)"><path fill="rgb(255,127,0)" stroke="none" paint-order="stroke fill markers" d=" M 0 0 L 106.39325414589888 0 L 106.39325414589888 106.39325414589888 L 0 106.39325414589888 L 0 0 Z" fill-opacity="0.5882352941176471"/></g><g transform="translate(6,0)"><g transform="translate(0,276.06710029906424) rotate(1.6282074356962244,0,0)"><path fill="rgb(255,255,0)" stroke="none" paint-order="stroke fill markers" d=" M 0 0 L 110.55102442953263 0 L 110.55102442953263 110.55102442953263 L 0 110.55102442953263 L 0 0 Z" fill-opacity="0.5882352941176471"/></g><g transform="translate(6,0)"><g transform="translate(0,312.17686556540207) rotate(1.468337589849595,0,0)"><path fill="rgb(0,255,0)" stroke="none" paint-order="stroke fill markers" d=" M 0 0 L 122.58761285164525 0 L 122.58761285164525 122.58761285164525 L 0 122.58761285164525 L 0 0 Z" fill-opacity="0.5882352941176471"/></g><g transform="translate(6,0)"><g transform="translate(0,328.84403309734506) rotate(1.404677032099215,0,0)"><path fill="rgb(0,0,255)" stroke="none" paint-order="stroke fill markers" d=" M 0 0 L 128.1433353622929 0 L 128.1433353622929 128.1433353622929 L 0 128.1433353622929 L 0 0 Z" fill-opacity="0.5882352941176471"/></g><g transform="translate(6,0)"><g transform="translate(0,341.5907433148514) rotate(1.359596315273827,0,0)"><path fill="rgb(75,0,130)" stroke="none" paint-order="stroke fill markers" d=" M 0 0 L 132.39223876812835 0 L 132.39223876812835 132.39223876812835 L 0 132.39223876812835 L 0 0 Z" fill-opacity="0.5882352941176471"/></g><g transform="translate(6,0)"><g transform="translate(0,349.41549106334367) rotate(1.333328513423589,0,0)"><path fill="rgb(148,0,211)" stroke="none" paint-order="stroke fill markers" d=" M 0 0 L 135.00048801762577 0 L 135.00048801762577 135.00048801762577 L 0 135.00048801762577 L 0 0 Z" fill-opacity="0.5882352941176471"/></g><g transform="translate(6,0)"><g transform="translate(0,375.5184168553024) rotate(1.252596848281591,0,0)"><path fill="rgb(255,0,0)" stroke="none" paint-order="stroke fill markers" d=" M 0 0 L 143.70146328161204 0 L 143.70146328161204 143.70146328161204 L 0 143.70146328161204 L 0 0 Z" fill-opacity="0.5882352941176471"/></g><g transform="translate(6,0)"><g transform="translate(0,413.60981138943293) rotate(1.1509054812049317,0,0)"><path fill="rgb(255,127,0)" stroke="none" paint-order="stroke fill markers" d=" M 0 0 L 156.39859479298886 0 L 156.39859479298886 156.39859479298886 L 0 156.39859479298886 L 0 0 Z" fill-opacity="0.5882352941176471"/></g><g transform="translate(6,0)"><g transform="translate(0,391.3865779007011) rotate(1.2081278792724128,0,0)"><path fill="rgb(255,255,0)" stroke="none" paint-order="stroke fill markers" d=" M 0 0 L 148.99085029674492 0 L 148.99085029674492 148.99085029674492 L 0 148.99085029674492 L 0 0 Z" fill-opacity="0.5882352941176471"/></g><g transform="translate(6,0)"><g transform="translate(0,338.86775910352634) rotate(1.3689818502531055,0,0)"><path fill="rgb(0,255,0)" stroke="none" paint-order="stroke fill markers" d=" M 0 0 L 131.48457736435333 0 L 131.48457736435333 131.48457736435333 L 0 131.48457736435333 L 0 0 Z" fill-opacity="0.5882352941176471"/></g><g transform="translate(6,0)"><g transform="translate(0,306.34006703133747) rotate(1.4920175402932043,0,0)"><path fill="rgb(0,0,255)" stroke="none" paint-order="stroke fill markers" d=" M 0 0 L 120.64201334029038 0 L 120.64201334029038 120.64201334029038 L 0 120.64201334029038 L 0 0 Z" fill-opacity="0.5882352941176471"/></g><g transform="translate(6,0)"><g transform="translate(0,288.0078656469945) rotate(1.5716230597814667,0,0)"><path fill="rgb(75,0,130)" stroke="none" paint-order="stroke fill markers" d=" M 0 0 L 114.53127954550939 0 L 114.53127954550939 114.53127954550939 L 0 114.53127954550939 L 0 0 Z" fill-opacity="0.5882352941176471"/></g><g transform="translate(6,0)"><g transform="translate(0,266.5743755665497) rotate(1.6761839326914993,0,0)"><path fill="rgb(148,0,211)" stroke="none" paint-order="stroke fill markers" d=" M 0 0 L 107.38678285202779 0 L 107.38678285202779 107.38678285202779 L 0 107.38678285202779 L 0 0 Z" fill-opacity="0.5882352941176471"/></g><g transform="translate(6,0)"><g transform="translate(0,218.34445267232456) rotate(1.9713034749435976,0,0)"><path fill="rgb(255,0,0)" stroke="none" paint-order="stroke fill markers" d=" M 0 0 L 91.31014188728608 0 L 91.31014188728608 91.31014188728608 L 0 91.31014188728608 L 0 0 Z" fill-opacity="0.5882352941176471"/></g><g transform="translate(6,0)"><g transform="translate(0,141.35089745579603) rotate(2.741995436298485,0,0)"><path fill="rgb(255,127,0)" stroke="none" paint-order="stroke fill markers" d=" M 0 0 L 65.64562348177657 0 L 65.64562348177657 65.64562348177657 L 0 65.64562348177657 L 0 0 Z" fill-opacity="0.5882352941176471"/></g><g transform="translate(6,0)"><g transform="translate(0,74.72855302803185) rotate(4.14382046654731,0,0)"><path fill="rgb(255,255,0)" stroke="none" paint-order="stroke fill markers" d=" M 0 0 L 43.43817533918851 0 L 43.43817533918851 43.43817533918851 L 0 43.43817533918851 L 0 0 Z" fill-opacity="0.5882352941176471"/></g><g transform="translate(6,0)"><g transform="translate(0,38.02505114607682) rotate(5.768551353713681,0,0)"><path fill="rgb(0,255,0)" stroke="none" paint-order="stroke fill markers" d=" M 0 0 L 31.203674711870164 0 L 31.203674711870164 31.203674711870164 L 0 31.203674711870164 L 0 0 Z" fill-opacity="0.5882352941176471"/></g><g transform="translate(6,0)"><g transform="translate(0,53.91632735279437) rotate(4.93140325191199,0,0)"><path fill="rgb(0,0,255)" stroke="none" paint-order="stroke fill markers" d=" M 0 0 L 36.50076678077601 0 L 36.50076678077601 36.50076678077601 L 0 36.50076678077601 L 0 0 Z" fill-opacity="0.5882352941176471"/></g><g transform="translate(6,0)"><g transform="translate(0,62.581100522573124) rotate(4.5698009094274,0,0)"><path fill="rgb(75,0,130)" stroke="none" paint-order="stroke fill markers" d=" M 0 0 L 39.389024504035596 0 L 39.389024504035596 39.389024504035596 L 0 39.389024504035596 L 0 0 Z" fill-opacity="0.5882352941176471"/></g><g transform="translate(6,0)"><g transform="translate(0,97.10647379024863) rotate(3.536520708053126,0,0)"><path fill="rgb(148,0,211)" stroke="none" paint-order="stroke fill markers" d=" M 0 0 L 50.897482259927436 0 L 50.897482259927436 50.897482259927436 L 0 50.897482259927436 L 0 0 Z" fill-opacity="0.5882352941176471"/></g><g transform="translate(6,0)"><g transform="translate(0,118.41481987090992) rotate(3.103434134539284,0,0)"><path fill="rgb(255,0,0)" stroke="none" paint-order="stroke fill markers" d=" M 0 0 L 58.000264286814534 0 L 58.000264286814534 58.000264286814534 L 0 58.000264286814534 L 0 0 Z" fill-opacity="0.5882352941176471"/></g><g transform="translate(6,0)"><g transform="translate(0,99.99210586741674) rotate(3.470926006847755,0,0)"><path fill="rgb(255,127,0)" stroke="none" paint-order="stroke fill markers" d=" M 0 0 L 51.85935961898347 0 L 51.85935961898347 51.85935961898347 L 0 51.85935961898347 L 0 0 Z" fill-opacity="0.5882352941176471"/></g><g transform="translate(6,0)"><g transform="translate(0,105.7585750126155) rotate(3.346874788683947,0,0)"><path fill="rgb(255,255,0)" stroke="none" paint-order="stroke fill markers" d=" M 0 0 L 53.78151600071639 0 L 53.78151600071639 53.78151600071639 L 0 53.78151600071639 L 0 0 Z" fill-opacity="0.5882352941176471"/></g><g transform="translate(6,0)"><g transform="translate(0,140.12892685888318) rotate(2.759115429730876,0,0)"><path fill="rgb(0,255,0)" stroke="none" paint-order="stroke fill markers" d=" M 0 0 L 65.23829994947228 0 L 65.23829994947228 65.23829994947228 L 0 65.23829994947228 L 0 0 Z" fill-opacity="0.5882352941176471"/></g><g transform="translate(6,0)"><g transform="translate(0,154.4195912582445) rotate(2.571360439587558,0,0)"><path fill="rgb(0,0,255)" stroke="none" paint-order="stroke fill markers" d=" M 0 0 L 70.0018547492594 0 L 70.0018547492594 70.0018547492594 L 0 70.0018547492594 L 0 0 Z" fill-opacity="0.5882352941176471"/></g><g transform="translate(6,0)"><g transform="translate(0,165.95298433522785) rotate(2.437494545071798,0,0)"><path fill="rgb(75,0,130)" stroke="none" paint-order="stroke fill markers" d=" M 0 0 L 73.84631910825384 0 L 73.84631910825384 73.84631910825384 L 0 73.84631910825384 L 0 0 Z" fill-opacity="0.5882352941176471"/></g><g transform="translate(6,0)"><g transform="translate(0,190.5748085118221) rotate(2.1936881931658387,0,0)"><path fill="rgb(148,0,211)" stroke="none" paint-order="stroke fill markers" d=" M 0 0 L 82.05359383378526 0 L 82.05359383378526 82.05359383378526 L 0 82.05359383378526 L 0 0 Z" fill-opacity="0.5882352941176471"/></g><g transform="translate(6,0)"><g transform="translate(0,205.18005451637896) rotate(2.070821897947408,0,0)"><path fill="rgb(255,0,0)" stroke="none" paint-order="stroke fill markers" d=" M 0 0 L 86.92200916863754 0 L 86.92200916863754 86.92200916863754 L 0 86.92200916863754 L 0 0 Z" fill-opacity="0.5882352941176471"/></g><g transform="translate(6,0)"><g transform="translate(0,214.03410794309093) rotate(2.0028181807976706,0,0)"><path fill="rgb(255,127,0)" stroke="none" paint-order="stroke fill markers" d=" M 0 0 L 89.87336031087487 0 L 89.87336031087487 89.87336031087487 L 0 89.87336031087487 L 0 0 Z" fill-opacity="0.5882352941176471"/></g><g transform="translate(6,0)"><g transform="translate(0,231.71221229807878) rotate(1.879580267656091,0,0)"><path fill="rgb(255,255,0)" stroke="none" paint-order="stroke fill markers" d=" M 0 0 L 95.76606176253749 0 L 95.76606176253749 95.76606176253749 L 0 95.76606176253749 L 0 0 Z" fill-opacity="0.5882352941176471"/></g><g transform="translate(6,0)"><g transform="translate(0,240.80531888736442) rotate(1.8219158753971803,0,0)"><path fill="rgb(0,255,0)" stroke="none" paint-order="stroke fill markers" d=" M 0 0 L 98.79709729229937 0 L 98.79709729229937 98.79709729229937 L 0 98.79709729229937 L 0 0 Z" fill-opacity="0.5882352941176471"/></g><g transform="translate(6,0)"><g transform="translate(0,240.12092908193904) rotate(1.8261325529340582,0,0)"><path fill="rgb(0,0,255)" stroke="none" paint-order="stroke fill markers" d=" M 0 0 L 98.56896735715758 0 L 98.56896735715758 98.56896735715758 L 0 98.56896735715758 L 0 0 Z" fill-opacity="0.5882352941176471"/></g><g transform="translate(6,0)"><g transform="translate(0,246.7292702393816) rotate(1.7862149266191918,0,0)"><path fill="rgb(75,0,130)" stroke="none" paint-order="stroke fill markers" d=" M 0 0 L 100.77174774297175 0 L 100.77174774297175 100.77174774297175 L 0 100.77174774297175 L 0 0 Z" fill-opacity="0.5882352941176471"/></g><g transform="translate(6,0)"><g transform="translate(0,229.5792688549373) rotate(1.8936389179383781,0,0)"><path fill="rgb(148,0,211)" stroke="none" paint-order="stroke fill markers" d=" M 0 0 L 95.05508061482367 0 L 95.05508061482367 95.05508061482367 L 0 95.05508061482367 L 0 0 Z" fill-opacity="0.5882352941176471"/></g><g transform="translate(6,0)"><g transform="translate(0,179.85547587961648) rotate(2.2935638673380425,0,0)"><path fill="rgb(255,0,0)" stroke="none" paint-order="stroke fill markers" d=" M 0 0 L 78.48048295638338 0 L 78.48048295638338 78.48048295638338 L 0 78.48048295638338 L 0 0 Z" fill-opacity="0.5882352941176471"/></g><g transform="translate(6,0)"><g transform="translate(0,155.3443416365915) rotate(2.5600872067969562,0,0)"><path fill="rgb(255,127,0)" stroke="none" paint-order="stroke fill markers" d=" M 0 0 L 70.31010487537506 0 L 70.31010487537506 70.31010487537506 L 0 70.31010487537506 L 0 0 Z" fill-opacity="0.5882352941176471"/></g><g transform="translate(6,0)"><g transform="translate(0,157.89465250654246) rotate(2.529503549772602,0,0)"><path fill="rgb(255,255,0)" stroke="none" paint-order="stroke fill markers" d=" M 0 0 L 71.16020849869204 0 L 71.16020849869204 71.16020849869204 L 0 71.16020849869204 L 0 0 Z" fill-opacity="0.5882352941176471"/></g><g transform="translate(6,0)"><g transform="translate(0,157.30916595509078) rotate(2.536459980612605,0,0)"><path fill="rgb(0,255,0)" stroke="none" paint-order="stroke fill markers" d=" M 0 0 L 70.96504631487481 0 L 70.96504631487481 70.96504631487481 L 0 70.96504631487481 L 0 0 Z" fill-opacity="0.5882352941176471"/></g><g transform="translate(6,0)"><g transform="translate(0,168.77305274142475) rotate(2.406856591753721,0,0)"><path fill="rgb(0,0,255)" stroke="none" paint-order="stroke fill markers" d=" M 0 0 L 74.78634191031948 0 L 74.78634191031948 74.78634191031948 L 0 74.78634191031948 L 0 0 Z" fill-opacity="0.5882352941176471"/></g><g transform="translate(6,0)"><g transform="translate(0,159.65051071416556) rotate(2.508868341964644,0,0)"><path fill="rgb(75,0,130)" stroke="none" paint-order="stroke fill markers" d=" M 0 0 L 71.74549456789974 0 L 71.74549456789974 71.74549456789974 L 0 71.74549456789974 L 0 0 Z" fill-opacity="0.5882352941176471"/></g><g transform="translate(6,0)"><g transform="translate(0,165.88471094336015) rotate(2.438245958384367,0,0)"><path fill="rgb(148,0,211)" stroke="none" paint-order="stroke fill markers" d=" M 0 0 L 73.8235613109646 0 L 73.8235613109646 73.8235613109646 L 0 73.8235613109646 L 0 0 Z" fill-opacity="0.5882352941176471"/></g><g transform="translate(6,0)"><g transform="translate(0,188.44207242527025) rotate(2.212860407426109,0,0)"><path fill="rgb(255,0,0)" stroke="none" paint-order="stroke fill markers" d=" M 0 0 L 81.34268180493464 0 L 81.34268180493464 81.34268180493464 L 0 81.34268180493464 L 0 0 Z" fill-opacity="0.5882352941176471"/></g><g transform="translate(6,0)"><g transform="translate(0,217.51329099230043) rotate(1.9773030220832797,0,0)"><path fill="rgb(255,127,0)" stroke="none" paint-order="stroke fill markers" d=" M 0 0 L 91.0330879939447 0 L 91.0330879939447 91.0330879939447 L 0 91.0330879939447 L 0 0 Z" fill-opacity="0.5882352941176471"/></g><g transform="translate(6,0)"><g transform="translate(0,218.2655369822371) rotate(1.9718715447494313,0,0)"><path fill="rgb(255,255,0)" stroke="none" paint-order="stroke fill markers" d=" M 0 0 L 91.28383665725693 0 L 91.28383665725693 91.28383665725693 L 0 91.28383665725693 L 0 0 Z" fill-opacity="0.5882352941176471"/></g><g transform="translate(6,0)"><g transform="translate(0,224.15786710555506) rotate(1.9303374108843527,0,0)"><path fill="rgb(0,255,0)" stroke="none" paint-order="stroke fill markers" d=" M 0 0 L 93.24794669836291 0 L 93.24794669836291 93.24794669836291 L 0 93.24794669836291 L 0 0 Z" fill-opacity="0.5882352941176471"/></g><g transform="translate(6,0)"><g transform="translate(0,230.82149942120202) rotate(1.8854256680342063,0,0)"><path fill="rgb(0,0,255)" stroke="none" paint-order="stroke fill markers" d=" M 0 0 L 95.46915747024524 0 L 95.46915747024524 95.46915747024524 L 0 95.46915747024524 L 0 0 Z" fill-opacity="0.5882352941176471"/></g><g transform="translate(6,0)"><g transform="translate(0,249.08119917583338) rotate(1.7724259432417586,0,0)"><path fill="rgb(75,0,130)" stroke="none" paint-order="stroke fill markers" d=" M 0 0 L 101.55572405512235 0 L 101.55572405512235 101.55572405512235 L 0 101.55572405512235 L 0 0 Z" fill-opacity="0.5882352941176471"/></g><g transform="translate(6,0)"><g transform="translate(0,240.02401353116022) rotate(1.8267312493591883,0,0)"><path fill="rgb(148,0,211)" stroke="none" paint-order="stroke fill markers" d=" M 0 0 L 98.53666217356464 0 L 98.53666217356464 98.53666217356464 L 0 98.53666217356464 L 0 0 Z" fill-opacity="0.5882352941176471"/></g><g transform="translate(6,0)"><g transform="translate(0,259.0041048767416) rotate(1.7165194899425311,0,0)"><path fill="rgb(255,0,0)" stroke="none" paint-order="stroke fill markers" d=" M 0 0 L 104.86335928875843 0 L 104.86335928875843 104.86335928875843 L 0 104.86335928875843 L 0 0 Z" fill-opacity="0.5882352941176471"/></g><g transform="translate(6,0)"><g transform="translate(0,253.08491376576256) rotate(1.7494361249173902,0,0)"><path fill="rgb(255,127,0)" stroke="none" paint-order="stroke fill markers" d=" M 0 0 L 102.89029558509874 0 L 102.89029558509874 102.89029558509874 L 0 102.89029558509874 L 0 0 Z" fill-opacity="0.5882352941176471"/></g><g transform="translate(6,0)"><g transform="translate(0,248.2461441050762) rotate(1.7772972955056296,0,0)"><path fill="rgb(255,255,0)" stroke="none" paint-order="stroke fill markers" d=" M 0 0 L 101.27737236486996 0 L 101.27737236486996 101.27737236486996 L 0 101.27737236486996 L 0 0 Z" fill-opacity="0.5882352941176471"/></g><g transform="translate(6,0)"><g transform="translate(0,236.57071138076805) rotate(1.8483232761348112,0,0)"><path fill="rgb(0,255,0)" stroke="none" paint-order="stroke fill markers" d=" M 0 0 L 97.38556145676723 0 L 97.38556145676723 97.38556145676723 L 0 97.38556145676723 L 0 0 Z" fill-opacity="0.5882352941176471"/></g><g transform="translate(6,0)"><g transform="translate(0,251.3627960767737) rotate(1.7592512315413416,0,0)"><path fill="rgb(0,0,255)" stroke="none" paint-order="stroke fill markers" d=" M 0 0 L 102.31625635543578 0 L 102.31625635543578 102.31625635543578 L 0 102.31625635543578 L 0 0 Z" fill-opacity="0.5882352941176471"/></g><g transform="translate(6,0)"><g transform="translate(0,240.8980883844028) rotate(1.8213458001674243,0,0)"><path fill="rgb(75,0,130)" stroke="none" paint-order="stroke fill markers" d=" M 0 0 L 98.82802045797882 0 L 98.82802045797882 98.82802045797882 L 0 98.82802045797882 L 0 0 Z" fill-opacity="0.5882352941176471"/></g><g transform="translate(6,0)"><g transform="translate(0,247.9992142499674) rotate(1.7787429120314395,0,0)"><path fill="rgb(148,0,211)" stroke="none" paint-order="stroke fill markers" d=" M 0 0 L 101.19506241316702 0 L 101.19506241316702 101.19506241316702 L 0 101.19506241316702 L 0 0 Z" fill-opacity="0.5882352941176471"/></g><g transform="translate(6,0)"><g transform="translate(0,271.13040090853934) rotate(1.6528097247077855,0,0)"><path fill="rgb(255,0,0)" stroke="none" paint-order="stroke fill markers" d=" M 0 0 L 108.90545796602434 0 L 108.90545796602434 108.90545796602434 L 0 108.90545796602434 L 0 0 Z" fill-opacity="0.5882352941176471"/></g><g transform="translate(6,0)"><g transform="translate(0,310.29705115668) rotate(1.4758815368930753,0,0)"><path fill="rgb(255,127,0)" stroke="none" paint-order="stroke fill markers" d=" M 0 0 L 121.9610080487379 0 L 121.9610080487379 121.9610080487379 L 0 121.9610080487379 L 0 0 Z" fill-opacity="0.5882352941176471"/></g><g transform="translate(6,0)"/></g></g></g></g></g></g></g></g></g></g></g></g></g></g></g></g></g></g></g></g></g></g></g></g></g></g></g></g></g></g></g></g></g></g></g></g></g></g></g></g></g></g></g></g></g></g></g></g></g></g></g></g></g></g></g></g></g></g></g></g></g></g></g></g></g></g></g></g></g></g></g></g></g></g></g></g></g></g></g></g></g></g></g></g></g></g></g></g></g></g></g></g></g></g></g></g></g></g></g></g></g></svg>