<svg version="1.1" xmlns="http://www.w3.org/2000/svg" xmlns:xlink="http://www.w3.org/1999/xlink" width="600" height="600" viewBox="0 0 600 600"><defs/><g transform="scale(1,1)"><g transform="scale(1,1)"><rect fill="rgb(0,0,0)" stroke="none" x="0" y="0" width="600" height="600" fill-opacity="1"/></g><g transform="translate(0,200)"><g transform="translate(0,306.1283220113504)"><path fill="rgb(255,0,0)" stroke="none" paint-order="stroke fill markers" d=" M 0 0 L 20 0 L 20 20 L 0 20 L 0 0 Z" fill-opacity="0.5882352941176471"/></g><g transform="translate(6,0)"><g transform="translate(0,306.3592572278353)"><path fill="rgb(255,127,0)" stroke="none" paint-order="stroke fill markers" d=" M 0 0 L 20 0 L 20 20 L 0 20 L 0 0 Z" fill-opacity="0.5882352941176471"/></g><g transform="translate(6,0)"><g transform="translate(0,307.0173932503435)"><path fill="rgb(255,255,0)" stroke="none" paint-order="stroke fill markers" d=" M 0 0 L 20 0 L 20 20 L 0 20 L 0 0 Z" fill-opacity="0.5882352941176471"/></g><g transform="translate(6,0)"><g transform="translate(0,308.0064497173381)"><path fill="rgb(0,255,0)" stroke="none" paint-order="stroke fill markers" d=" M 0 0 L 20 0 L 20 20 L 0 20 L 0 0 Z" fill-opacity="0.5882352941176471"/></g><g transform="translate(6,0)"><g transform="translate(0,309.18985622245407)"><path fill="rgb(0,0,255)" stroke="none" paint-order="stroke fill markers" d=" M 0 0 L 20 0 L 20 20 L 0 20 L 0 0 Z" fill-opacity="0.5882352941176471"/></g><g transform="translate(6,0)"><g transform="translate(0,310.4205290444548)"><path fill="rgb(75,0,130)" stroke="none" paint-order="stroke fill markers" d=" M 0 0 L 20 0 L 20 20 L 0 20 L 0 0 Z" fill-opacity="0.5882352941176471"/></g><g transform="translate(6,0)"><g transform="translate(0,311.5719587060554)"><path fill="rgb(148,0,211)" stroke="none" paint-order="stroke fill markers" d=" M 0 0 L 20 0 L 20 20 L 0 20 L 0 0 Z" fill-opacity="0.5882352941176471"/></g><g transform="translate(6,0)"><g transform="translate(0,312.64661557988137)"><path fill="rgb(255,0,0)" stroke="none" paint-order="stroke fill markers" d=" M 0 0 L 20 0 L 20 20 L 0 20 L 0 0 Z" fill-opacity="0.5882352941176471"/></g><g transform="translate(6,0)"><g transform="translate(0,313.80262650670255)"><path fill="rgb(255,127,0)" stroke="none" paint-order="stroke fill markers" d=" M 0 0 L 20 0 L 20 20 L 0 20 L 0 0 Z" fill-opacity="0.5882352941176471"/></g><g transform="translate(6,0)"><g transform="translate(0,314.99807309716374)"><path fill="rgb(255,255,0)" stroke="none" paint-order="stroke fill markers" d=" M 0 0 L 20 0 L 20 20 L 0 20 L 0 0 Z" fill-opacity="0.5882352941176471"/></g><g transform="translate(6,0)"><g transform="translate(0,316.1765462624088)"><path fill="rgb(0,255,0)" stroke="none" paint-order="stroke fill markers" d=" M 0 0 L 20 0 L 20 20 L 0 20 L 0 0 Z" fill-opacity="0.5882352941176471"/></g><g transform="translate(6,0)"><g transform="translate(0,317.2837889683086)"><path fill="rgb(0,0,255)" stroke="none" paint-order="stroke fill markers" d=" M 0 0 L 20 0 L 20 20 L 0 20 L 0 0 Z" fill-opacity="0.5882352941176471"/></g><g transform="translate(6,0)"><g transform="translate(0,318.27523602718884)"><path fill="rgb(75,0,130)" stroke="none" paint-order="stroke fill markers" d=" M 0 0 L 20 0 L 20 20 L 0 20 L 0 0 Z" fill-opacity="0.5882352941176471"/></g><g transform="translate(6,0)"><g transform="translate(0,319.26146293213657)"><path fill="rgb(148,0,211)" stroke="none" paint-order="stroke fill markers" d=" M 0 0 L 20 0 L 20 20 L 0 20 L 0 0 Z" fill-opacity="0.5882352941176471"/></g><g transform="translate(6,0)"><g transform="translate(0,321.0219607409869)"><path fill="rgb(255,0,0)" stroke="none" paint-order="stroke fill markers" d=" M 0 0 L 20 0 L 20 20 L 0 20 L 0 0 Z" fill-opacity="0.5882352941176471"/></g><g transform="translate(6,0)"><g transform="translate(0,323.46966554119103)"><path fill="rgb(255,127,0)" stroke="none" paint-order="stroke fill markers" d=" M 0 0 L 20 0 L 20 20 L 0 20 L 0 0 Z" fill-opacity="0.5882352941176471"/></g><g transform="translate(6,0)"><g transform="translate(0,326.2147225830931)"><path fill="rgb(255,255,0)" stroke="none" paint-order="stroke fill markers" d=" M 0 0 L 20 0 L 20 20 L 0 20 L 0 0 Z" fill-opacity="0.5882352941176471"/></g><g transform="translate(6,0)"><g transform="translate(0,328.7974755875854)"><path fill="rgb(0,255,0)" stroke="none" paint-order="stroke fill markers" d=" M 0 0 L 20 0 L 20 20 L 0 20 L 0 0 Z" fill-opacity="0.5882352941176471"/></g><g transform="translate(6,0)"><g transform="translate(0,330.7993036792468)"><path fill="rgb(0,0,255)" stroke="none" paint-order="stroke fill markers" d=" M 0 0 L 20 0 L 20 20 L 0 20 L 0 0 Z" fill-opacity="0.5882352941176471"/></g><g transform="translate(6,0)"><g transform="translate(0,331.9926369355842)"><path fill="rgb(75,0,130)" stroke="none" paint-order="stroke fill markers" d=" M 0 0 L 20 0 L 20 20 L 0 20 L 0 0 Z" fill-opacity="0.5882352941176471"/></g><g transform="translate(6,0)"><g transform="translate(0,333.35664071058204)"><path fill="rgb(148,0,211)" stroke="none" paint-order="stroke fill markers" d=" M 0 0 L 20 0 L 20 20 L 0 20 L 0 0 Z" fill-opacity="0.5882352941176471"/></g><g transform="translate(6,0)"><g transform="translate(0,335.19924116985425)"><path fill="rgb(255,0,0)" stroke="none" paint-order="stroke fill markers" d=" M 0 0 L 20 0 L 20 20 L 0 20 L 0 0 Z" fill-opacity="0.5882352941176471"/></g><g transform="translate(6,0)"><g transform="translate(0,337.2589506792737)"><path fill="rgb(255,127,0)" stroke="none" paint-order="stroke fill markers" d=" M 0 0 L 20 0 L 20 20 L 0 20 L 0 0 Z" fill-opacity="0.5882352941176471"/></g><g transform="translate(6,0)"><g transform="translate(0,339.20732730227195)"><path fill="rgb(255,255,0)" stroke="none" paint-order="stroke fill markers" d=" M 0 0 L 20 0 L 20 20 L 0 20 L 0 0 Z" fill-opacity="0.5882352941176471"/></g><g transform="translate(6,0)"><g transform="translate(0,340.7280932411674)"><path fill="rgb(0,255,0)" stroke="none" paint-order="stroke fill markers" d=" M 0 0 L 20 0 L 20 20 L 0 20 L 0 0 Z" fill-opacity="0.5882352941176471"/></g><g transform="translate(6,0)"><g transform="translate(0,341.5936626837648)"><path fill="rgb(0,0,255)" stroke="none" paint-order="stroke fill markers" d=" M 0 0 L 20 0 L 20 20 L 0 20 L 0 0 Z" fill-opacity="0.5882352941176471"/></g><g transform="translate(6,0)"><g transform="translate(0,341.4272020769876)"><path fill="rgb(75,0,130)" stroke="none" paint-order="stroke fill markers" d=" M 0 0 L 20 0 L 20 20 L 0 20 L 0 0 Z" fill-opacity="0.5882352941176471"/></g><g transform="translate(6,0)"><g transform="translate(0,340.1412724733465)"><path fill="rgb(148,0,211)" stroke="none" paint-order="stroke fill markers" d=" M 0 0 L 20 0 L 20 20 L 0 20 L 0 0 Z" fill-opacity="0.5882352941176471"/></g><g transform="translate(6,0)"><g transform="translate(0,338.30246720047825)"><path fill="rgb(255,0,0)" stroke="none" paint-order="stroke fill markers" d=" M 0 0 L 20 0 L 20 20 L 0 20 L 0 0 Z" fill-opacity="0.5882352941176471"/></g><g transform="translate(6,0)"><g transform="translate(0,336.68992171601445)"><path fill="rgb(255,127,0)" stroke="none" paint-order="stroke fill markers" d=" M 0 0 L 20 0 L 20 20 L 0 20 L 0 0 Z" fill-opacity="0.5882352941176471"/></g><g transform="translate(6,0)"><g transform="translate(0,336.08955861916826)"><path fill="rgb(255,255,0)" stroke="none" paint-order="stroke fill markers" d=" M 0 0 L 20 0 L 20 20 L 0 20 L 0 0 Z" fill-opacity="0.5882352941176471"/></g><g transform="translate(6,0)"><g transform="translate(0,337.08275438398107)"><path fill="rgb(0,255,0)" stroke="none" paint-order="stroke fill markers" d=" M 0 0 L 20 0 L 20 20 L 0 20 L 0 0 Z" fill-opacity="0.5882352941176471"/></g><g transform="translate(6,0)"><g transform="translate(0,338.9641848287829)"><path fill="rgb(0,0,255)" stroke="none" paint-order="stroke fill markers" d=" M 0 0 L 20 0 L 20 20 L 0 20 L 0 0 Z" fill-opacity="0.5882352941176471"/></g><g transform="translate(6,0)"><g transform="translate(0,339.517751160624)"><path fill="rgb(75,0,130)" stroke="none" paint-order="stroke fill markers" d=" M 0 0 L 20 0 L 20 20 L 0 20 L 0 0 Z" fill-opacity="0.5882352941176471"/></g><g transform="translate(6,0)"><g transform="translate(0,338.94976302165816)"><path fill="rgb(148,0,211)" stroke="none" paint-order="stroke fill markers" d=" M 0 0 L 20 0 L 20 20 L 0 20 L 0 0 Z" fill-opacity="0.5882352941176471"/></g><g transform="translate(6,0)"><g transform="translate(0,337.80914191014284)"><path fill="rgb(255,0,0)" stroke="none" paint-order="stroke fill markers" d=" M 0 0 L 20 0 L 20 20 L 0 20 L 0 0 Z" fill-opacity="0.5882352941176471"/></g><g transform="translate(6,0)"><g transform="translate(0,336.72990530345095)"><path fill="rgb(255,127,0)" stroke="none" paint-order="stroke fill markers" d=" M 0 0 L 20 0 L 20 20 L 0 20 L 0 0 Z" fill-opacity="0.5882352941176471"/></g><g transform="translate(6,0)"><g transform="translate(0,336.2591153877861)"><path fill="rgb(255,255,0)" stroke="none" paint-order="stroke fill markers" d=" M 0 0 L 20 0 L 20 20 L 0 20 L 0 0 Z" fill-opacity="0.5882352941176471"/></g><g transform="translate(6,0)"><g transform="translate(0,336.96492215918175)"><path fill="rgb(0,255,0)" stroke="none" paint-order="stroke fill markers" d=" M 0 0 L 20 0 L 20 20 L 0 20 L 0 0 Z" fill-opacity="0.5882352941176471"/></g><g transform="translate(6,0)"><g transform="translate(0,340.30280300221926)"><path fill="rgb(0,0,255)" stroke="none" paint-order="stroke fill markers" d=" M 0 0 L 20 0 L 20 20 L 0 20 L 0 0 Z" fill-opacity="0.5882352941176471"/></g><g transform="translate(6,0)"><g transform="translate(0,345.86491774876964)"><path fill="rgb(75,0,130)" stroke="none" paint-order="stroke fill markers" d=" M 0 0 L 20 0 L 20 20 L 0 20 L 0 0 Z" fill-opacity="0.5882352941176471"/></g><g transform="translate(6,0)"><g transform="translate(0,352.4892856698886)"><path fill="rgb(148,0,211)" stroke="none" paint-order="stroke fill markers" d=" M 0 0 L 20 0 L 20 20 L 0 20 L 0 0 Z" fill-opacity="0.5882352941176471"/></g><g transform="translate(6,0)"><g transform="translate(0,358.79351277344426)"><path fill="rgb(255,0,0)" stroke="none" paint-order="stroke fill markers" d=" M 0 0 L 20 0 L 20 20 L 0 20 L 0 0 Z" fill-opacity="0.5882352941176471"/></g><g transform="translate(6,0)"><g transform="translate(0,363.5056863301474)"><path fill="rgb(255,127,0)" stroke="none" paint-order="stroke fill markers" d=" M 0 0 L 20 0 L 20 20 L 0 20 L 0 0 Z" fill-opacity="0.5882352941176471"/></g><g transform="translate(6,0)"><g transform="translate(0,365.8358767454075)"><path fill="rgb(255,255,0)" stroke="none" paint-order="stroke fill markers" d=" M 0 0 L 20 0 L 20 20 L 0 20 L 0 0 Z" fill-opacity="0.5882352941176471"/></g><g transform="translate(6,0)"><g transform="translate(0,367.0258355026613)"><path fill="rgb(0,255,0)" stroke="none" paint-order="stroke fill markers" d=" M 0 0 L 20 0 L 20 20 L 0 20 L 0 0 Z" fill-opacity="0.5882352941176471"/></g><g transform="translate(6,0)"><g transform="translate(0,367.70275639554274)"><path fill="rgb(0,0,255)" stroke="none" paint-order="stroke fill markers" d=" M 0 0 L 20 0 L 20 20 L 0 20 L 0 0 Z" fill-opacity="0.5882352941176471"/></g><g transform="translate(6,0)"><g transform="translate(0,367.965863994578)"><path fill="rgb(75,0,130)" stroke="none" paint-order="stroke fill markers" d=" M 0 0 L 20 0 L 20 20 L 0 20 L 0 0 Z" fill-opacity="0.5882352941176471"/></g><g transform="translate(6,0)"><g transform="translate(0,367.9741088320946)"><path fill="rgb(148,0,211)" stroke="none" paint-order="stroke fill markers" d=" M 0 0 L 20 0 L 20 20 L 0 20 L 0 0 Z" fill-opacity="0.5882352941176471"/></g><g transform="translate(6,0)"><g transform="translate(0,367.8947867399101)"><path fill="rgb(255,0,0)" stroke="none" paint-order="stroke fill markers" d=" M 0 0 L 20 0 L 20 20 L 0 20 L 0 0 Z" fill-opacity="0.5882352941176471"/></g><g transform="translate(6,0)"><g transform="translate(0,367.85296389584755)"><path fill="rgb(255,127,0)" stroke="none" paint-order="stroke fill markers" d=" M 0 0 L 20 0 L 20 20 L 0 20 L 0 0 Z" fill-opacity="0.5882352941176471"/></g><g transform="translate(6,0)"><g transform="translate(0,368.11305385543585)"><path fill="rgb(255,255,0)" stroke="none" paint-order="stroke fill markers" d=" M 0 0 L 20 0 L 20 20 L 0 20 L 0 0 Z" fill-opacity="0.5882352941176471"/></g><g transform="translate(6,0)"><g transform="translate(0,368.77219184347814)"><path fill="rgb(0,255,0)" stroke="none" paint-order="stroke fill markers" d=" M 0 0 L 20 0 L 20 20 L 0 20 L 0 0 Z" fill-opacity="0.5882352941176471"/></g><g transform="translate(6,0)"><g transform="translate(0,369.5018121173641)"><path fill="rgb(0,0,255)" stroke="none" paint-order="stroke fill markers" d=" M 0 0 L 20 0 L 20 20 L 0 20 L 0 0 Z" fill-opacity="0.5882352941176471"/></g><g transform="translate(6,0)"><g transform="translate(0,369.86146292819996)"><path fill="rgb(75,0,130)" stroke="none" paint-order="stroke fill markers" d=" M 0 0 L 20 0 L 20 20 L 0 20 L 0 0 Z" fill-opacity="0.5882352941176471"/></g><g transform="translate(6,0)"><g transform="translate(0,369.4304793334253)"><path fill="rgb(148,0,211)" stroke="none" paint-order="stroke fill markers" d=" M 0 0 L 20 0 L 20 20 L 0 20 L 0 0 Z" fill-opacity="0.5882352941176471"/></g><g transform="translate(6,0)"><g transform="translate(0,367.94168196773694)"><path fill="rgb(255,0,0)" stroke="none" paint-order="stroke fill markers" d=" M 0 0 L 20 0 L 20 20 L 0 20 L 0 0 Z" fill-opacity="0.5882352941176471"/></g><g transform="translate(6,0)"><g transform="translate(0,364.5934870049545)"><path fill="rgb(255,127,0)" stroke="none" paint-order="stroke fill markers" d=" M 0 0 L 20 0 L 20 20 L 0 20 L 0 0 Z" fill-opacity="0.5882352941176471"/></g><g transform="translate(6,0)"><g transform="translate(0,357.96160419372376)"><path fill="rgb(255,255,0)" stroke="none" paint-order="stroke fill markers" d=" M 0 0 L 20 0 L 20 20 L 0 20 L 0 0 Z" fill-opacity="0.5882352941176471"/></g><g transform="translate(6,0)"><g transform="translate(0,349.3131419424558)"><path fill="rgb(0,255,0)" stroke="none" paint-order="stroke fill markers" d=" M 0 0 L 20 0 L 20 20 L 0 20 L 0 0 Z" fill-opacity="0.5882352941176471"/></g><g transform="translate(6,0)"><g transform="translate(0,340.60406904749175)"><path fill="rgb(0,0,255)" stroke="none" paint-order="stroke fill markers" d=" M 0 0 L 20 0 L 20 20 L 0 20 L 0 0 Z" fill-opacity="0.5882352941176471"/></g><g transform="translate(6,0)"><g transform="translate(0,333.93650112129075)"><path fill="rgb(75,0,130)" stroke="none" paint-order="stroke fill markers" d=" M 0 0 L 20 0 L 20 20 L 0 20 L 0 0 Z" fill-opacity="0.5882352941176471"/></g><g transform="translate(6,0)"><g transform="translate(0,331.06127670297946)"><path fill="rgb(148,0,211)" stroke="none" paint-order="stroke fill markers" d=" M 0 0 L 20 0 L 20 20 L 0 20 L 0 0 Z" fill-opacity="0.5882352941176471"/></g><g transform="translate(6,0)"><g transform="translate(0,332.5586215910401)"><path fill="rgb(255,0,0)" stroke="none" paint-order="stroke fill markers" d=" M 0 0 L 20 0 L 20 20 L 0 20 L 0 0 Z" fill-opacity="0.5882352941176471"/></g><g transform="translate(6,0)"><g transform="translate(0,336.0912041920585)"><path fill="rgb(255,127,0)" stroke="none" paint-order="stroke fill markers" d=" M 0 0 L 20 0 L 20 20 L 0 20 L 0 0 Z" fill-opacity="0.5882352941176471"/></g><g transform="translate(6,0)"><g transform="translate(0,340.68906381363854)"><path fill="rgb(255,255,0)" stroke="none" paint-order="stroke fill markers" d=" M 0 0 L 20 0 L 20 20 L 0 20 L 0 0 Z" fill-opacity="0.5882352941176471"/></g><g transform="translate(6,0)"><g transform="translate(0,345.3840891413774)"><path fill="rgb(0,255,0)" stroke="none" paint-order="stroke fill markers" d=" M 0 0 L 20 0 L 20 20 L 0 20 L 0 0 Z" fill-opacity="0.5882352941176471"/></g><g transform="translate(6,0)"><g transform="translate(0,349.05929954656085)"><path fill="rgb(0,0,255)" stroke="none" paint-order="stroke fill markers" d=" M 0 0 L 20 0 L 20 20 L 0 20 L 0 0 Z" fill-opacity="0.5882352941176471"/></g><g transform="translate(6,0)"><g transform="translate(0,350.7420763731041)"><path fill="rgb(75,0,130)" stroke="none" paint-order="stroke fill markers" d=" M 0 0 L 20 0 L 20 20 L 0 20 L 0 0 Z" fill-opacity="0.5882352941176471"/></g><g transform="translate(6,0)"><g transform="translate(0,349.9922214290821)"><path fill="rgb(148,0,211)" stroke="none" paint-order="stroke fill markers" d=" M 0 0 L 20 0 L 20 20 L 0 20 L 0 0 Z" fill-opacity="0.5882352941176471"/></g><g transform="translate(6,0)"><g transform="translate(0,349.4666450252764)"><path fill="rgb(255,0,0)" stroke="none" paint-order="stroke fill markers" d=" M 0 0 L 20 0 L 20 20 L 0 20 L 0 0 Z" fill-opacity="0.5882352941176471"/></g><g transform="translate(6,0)"><g transform="translate(0,350.1696955463058)"><path fill="rgb(255,127,0)" stroke="none" paint-order="stroke fill markers" d=" M 0 0 L 20 0 L 20 20 L 0 20 L 0 0 Z" fill-opacity="0.5882352941176471"/></g><g transform="translate(6,0)"><g transform="translate(0,351.6898374101629)"><path fill="rgb(255,255,0)" stroke="none" paint-order="stroke fill markers" d=" M 0 0 L 20 0 L 20 20 L 0 20 L 0 0 Z" fill-opacity="0.5882352941176471"/></g><g transform="translate(6,0)"><g transform="translate(0,353.43963903308475)"><path fill="rgb(0,255,0)" stroke="none" paint-order="stroke fill markers" d=" M 0 0 L 20 0 L 20 20 L 0 20 L 0 0 Z" fill-opacity="0.5882352941176471"/></g><g transform="translate(6,0)"><g transform="translate(0,354.82426019656907)"><path fill="rgb(0,0,255)" stroke="none" paint-order="stroke fill markers" d=" M 0 0 L 20 0 L 20 20 L 0 20 L 0 0 Z" fill-opacity="0.5882352941176471"/></g><g transform="translate(6,0)"><g transform="translate(0,355.406360497613)"><path fill="rgb(75,0,130)" stroke="none" paint-order="stroke fill markers" d=" M 0 0 L 20 0 L 20 20 L 0 20 L 0 0 Z" fill-opacity="0.5882352941176471"/></g><g transform="translate(6,0)"><g transform="translate(0,355.3178204708413)"><path fill="rgb(148,0,211)" stroke="none" paint-order="stroke fill markers" d=" M 0 0 L 20 0 L 20 20 L 0 20 L 0 0 Z" fill-opacity="0.5882352941176471"/></g><g transform="translate(6,0)"><g transform="translate(0,355.0416076516915)"><path fill="rgb(255,0,0)" stroke="none" paint-order="stroke fill markers" d=" M 0 0 L 20 0 L 20 20 L 0 20 L 0 0 Z" fill-opacity="0.5882352941176471"/></g><g transform="translate(6,0)"><g transform="translate(0,355.09480851172884)"><path fill="rgb(255,127,0)" stroke="none" paint-order="stroke fill markers" d=" M 0 0 L 20 0 L 20 20 L 0 20 L 0 0 Z" fill-opacity="0.5882352941176471"/></g><g transform="translate(6,0)"><g transform="translate(0,356.1690556119132)"><path fill="rgb(255,255,0)" stroke="none" paint-order="stroke fill markers" d=" M 0 0 L 20 0 L 20 20 L 0 20 L 0 0 Z" fill-opacity="0.5882352941176471"/></g><g transform="translate(6,0)"><g transform="translate(0,358.9210235378242)"><path fill="rgb(0,255,0)" stroke="none" paint-order="stroke fill markers" d=" M 0 0 L 20 0 L 20 20 L 0 20 L 0 0 Z" fill-opacity="0.5882352941176471"/></g><g transform="translate(6,0)"><g transform="translate(0,363.75956509739973)"><path fill="rgb(0,0,255)" stroke="none" paint-order="stroke fill markers" d=" M 0 0 L 20 0 L 20 20 L 0 20 L 0 0 Z" fill-opacity="0.5882352941176471"/></g><g transform="translate(6,0)"><g transform="translate(0,369.49804772092847)"><path fill="rgb(75,0,130)" stroke="none" paint-order="stroke fill markers" d=" M 0 0 L 20 0 L 20 20 L 0 20 L 0 0 Z" fill-opacity="0.5882352941176471"/></g><g transform="translate(6,0)"><g transform="translate(0,373.0958162547907)"><path fill="rgb(148,0,211)" stroke="none" paint-order="stroke fill markers" d=" M 0 0 L 20 0 L 20 20 L 0 20 L 0 0 Z" fill-opacity="0.5882352941176471"/></g><g transform="translate(6,0)"><g transform="translate(0,374.7472784277568)"><path fill="rgb(255,0,0)" stroke="none" paint-order="stroke fill markers" d=" M 0 0 L 20 0 L 20 20 L 0 20 L 0 0 Z" fill-opacity="0.5882352941176471"/></g><g transform="translate(6,0)"><g transform="translate(0,375.1751287624864)"><path fill="rgb(255,127,0)" stroke="none" paint-order="stroke fill markers" d=" M 0 0 L 20 0 L 20 20 L 0 20 L 0 0 Z" fill-opacity="0.5882352941176471"/></g><g transform="translate(6,0)"><g transform="translate(0,375.26105793498397)"><path fill="rgb(255,255,0)" stroke="none" paint-order="stroke fill markers" d=" M 0 0 L 20 0 L 20 20 L 0 20 L 0 0 Z" fill-opacity="0.5882352941176471"/></g><g transform="translate(6,0)"><g transform="translate(0,375.7801860105683)"><path fill="rgb(0,255,0)" stroke="none" paint-order="stroke fill markers" d=" M 0 0 L 20 0 L 20 20 L 0 20 L 0 0 Z" fill-opacity="0.5882352941176471"/></g><g transform="translate(6,0)"><g transform="translate(0,377.09884044790726)"><path fill="rgb(0,0,255)" stroke="none" paint-order="stroke fill markers" d=" M 0 0 L 20 0 L 20 20 L 0 20 L 0 0 Z" fill-opacity="0.5882352941176471"/></g><g transform="translate(6,0)"><g transform="translate(0,378.8100382031065)"><path fill="rgb(75,0,130)" stroke="none" paint-order="stroke fill markers" d=" M 0 0 L 20 0 L 20 20 L 0 20 L 0 0 Z" fill-opacity="0.5882352941176471"/></g><g transform="translate(6,0)"><g transform="translate(0,380.69249559427186)"><path fill="rgb(148,0,211)" stroke="none" paint-order="stroke fill markers" d=" M 0 0 L 20 0 L 20 20 L 0 20 L 0 0 Z" fill-opacity="0.5882352941176471"/></g><g transform="translate(6,0)"><g transform="translate(0,382.5097414399792)"><path fill="rgb(255,0,0)" stroke="none" paint-order="stroke fill markers" d=" M 0 0 L 20 0 L 20 20 L 0 20 L 0 0 Z" fill-opacity="0.5882352941176471"/></g><g transform="translate(6,0)"><g transform="translate(0,383.9935299185278)"><path fill="rgb(255,127,0)" stroke="none" paint-order="stroke fill markers" d=" M 0 0 L 20 0 L 20 20 L 0 20 L 0 0 Z" fill-opacity="0.5882352941176471"/></g><g transform="translate(6,0)"><g transform="translate(0,384.9130281427361)"><path fill="rgb(255,255,0)" stroke="none" paint-order="stroke fill markers" d=" M 0 0 L 20 0 L 20 20 L 0 20 L 0 0 Z" fill-opacity="0.5882352941176471"/></g><g transform="translate(6,0)"><g transform="translate(0,385.146253986923)"><path fill="rgb(0,255,0)" stroke="none" paint-order="stroke fill markers" d=" M 0 0 L 20 0 L 20 20 L 0 20 L 0 0 Z" fill-opacity="0.5882352941176471"/></g><g transform="translate(6,0)"><g transform="translate(0,384.90189199554663)"><path fill="rgb(0,0,255)" stroke="none" paint-order="stroke fill markers" d=" M 0 0 L 20 0 L 20 20 L 0 20 L 0 0 Z" fill-opacity="0.5882352941176471"/></g><g transform="translate(6,0)"><g transform="translate(0,384.3603911432041)"><path fill="rgb(75,0,130)" stroke="none" paint-order="stroke fill markers" d=" M 0 0 L 20 0 L 20 20 L 0 20 L 0 0 Z" fill-opacity="0.5882352941176471"/></g><g transform="translate(6,0)"><g transform="translate(0,383.67160409887043)"><path fill="rgb(148,0,211)" stroke="none" paint-order="stroke fill markers" d=" M 0 0 L 20 0 L 20 20 L 0 20 L 0 0 Z" fill-opacity="0.5882352941176471"/></g><g transform="translate(6,0)"><g transform="translate(0,383.00963602200994)"><path fill="rgb(255,0,0)" stroke="none" paint-order="stroke fill markers" d=" M 0 0 L 20 0 L 20 20 L 0 20 L 0 0 Z" fill-opacity="0.5882352941176471"/></g><g transform="translate(6,0)"><g transform="translate(0,382.5359954630918)"><path fill="rgb(255,127,0)" stroke="none" paint-order="stroke fill markers" d=" M 0 0 L 20 0 L 20 20 L 0 20 L 0 0 Z" fill-opacity="0.5882352941176471"/></g><g transform="translate(6,0)"/></g></g></g></g></g></g></g></g></g></g></g></g></g></g></g></g></g></g></g></g></g></g></g></g></g></g></g></g></g></g></g></g></g></g></g></g></g></g></g></g></g></g></g></g></g></g></g></g></g></g></g></g></g></g></g></g></g></g></g></g></g></g></g></g></g></g></g></g></g></g></g></g></g></g></g></g></g></g></g></g></g></g></g></g></g></g></g></g></g></g></g></g></g></g></g></g></g></g></g></g></g></svg>