<svg version="1.1" xmlns="http://www.w3.org/2000/svg" xmlns:xlink="http://www.w3.org/1999/xlink" width="600" height="600" viewBox="0 0 600 600"><defs/><g transform="scale(1,1)"><g transform="scale(1,1)"><rect fill="rgb(0,0,0)" stroke="none" x="0" y="0" width="600" height="600" fill-opacity="1"/></g><g><g transform="translate(0,300) rotate(1575.1281046604292,0,0)"><path fill="rgb(255,0,0)" stroke="none" paint-order="stroke fill markers" d=" M 0 0 L 68.56585167927211 0 L 68.56585167927211 68.56585167927211 L 0 68.56585167927211 L 0 0 Z" fill-opacity="0.5882352941176471"/></g><g transform="translate(6,0)"><g transform="translate(0,314.6093784008026) rotate(1470.6754569314162,0,0)"><path fill="rgb(255,127,0)" stroke="none" paint-order="stroke fill markers" d=" M 0 0 L 73.43564447953965 0 L 73.43564447953965 73.43564447953965 L 0 73.43564447953965 L 0 0 Z" fill-opacity="0.5882352941176471"/></g><g transform="translate(6,0)"><g transform="translate(0,346.4440956211495) rotate(1284.9919842804004,0,0)"><path fill="rgb(255,255,0)" stroke="none" paint-order="stroke fill markers" d=" M 0 0 L 84.04721688632193 0 L 84.04721688632193 84.04721688632193 L 0 84.04721688632193 L 0 0 Z" fill-opacity="0.5882352941176471"/></g><g transform="translate(6,0)"><g transform="translate(0,374.0450724058493) rotate(1158.2074672021406,0,0)"><path fill="rgb(0,255,0)" stroke="none" paint-order="stroke fill markers" d=" M 0 0 L 93.24754248122188 0 L 93.24754248122188 93.24754248122188 L 0 93.24754248122188 L 0 0 Z" fill-opacity="0.5882352941176471"/></g><g transform="translate(6,0)"><g transform="translate(0,390.5590911487586) rotate(1093.6463507925928,0,0)"><path fill="rgb(0,0,255)" stroke="none" paint-order="stroke fill markers" d=" M 0 0 L 98.752215395525 0 L 98.752215395525 98.752215395525 L 0 98.752215395525 L 0 0 Z" fill-opacity="0.5882352941176471"/></g><g transform="translate(6,0)"><g transform="translate(0,408.46688609010437) rotate(1031.3070404682574,0,0)"><path fill="rgb(75,0,130)" stroke="none" paint-order="stroke fill markers" d=" M 0 0 L 104.72148037597356 0 L 104.72148037597356 104.72148037597356 L 0 104.72148037597356 L 0 0 Z" fill-opacity="0.5882352941176471"/></g><g transform="translate(6,0)"><g transform="translate(0,435.29112516019563) rotate(950.1781695857276,0,0)"><path fill="rgb(148,0,211)" stroke="none" paint-order="stroke fill markers" d=" M 0 0 L 113.6628933993373 0 L 113.6628933993373 113.6628933993373 L 0 113.6628933993373 L 0 0 Z" fill-opacity="0.5882352941176471"/></g><g transform="translate(6,0)"><g transform="translate(0,459.6971000409088) rotate(886.7124778554668,0,0)"><path fill="rgb(255,0,0)" stroke="none" paint-order="stroke fill markers" d=" M 0 0 L 121.79821835957505 0 L 121.79821835957505 121.79821835957505 L 0 121.79821835957505 L 0 0 Z" fill-opacity="0.5882352941176471"/></g><g transform="translate(6,0)"><g transform="translate(0,467.0498173634313) rotate(869.2214190881726,0,0)"><path fill="rgb(255,127,0)" stroke="none" paint-order="stroke fill markers" d=" M 0 0 L 124.2491241337492 0 L 124.2491241337492 124.2491241337492 L 0 124.2491241337492 L 0 0 Z" fill-opacity="0.5882352941176471"/></g><g transform="translate(6,0)"><g transform="translate(0,461.5784714008872) rotate(882.1702933939629,0,0)"><path fill="rgb(255,255,0)" stroke="none" paint-order="stroke fill markers" d=" M 0 0 L 122.42534214623453 0 L 122.42534214623453 122.42534214623453 L 0 122.42534214623453 L 0 0 Z" fill-opacity="0.5882352941176471"/></g><g transform="translate(6,0)"><g transform="translate(0,464.613246132193) rotate(874.9407227018794,0,0)"><path fill="rgb(0,255,0)" stroke="none" paint-order="stroke fill markers" d=" M 0 0 L 123.43693372333645 0 L 123.43693372333645 123.43693372333645 L 0 123.43693372333645 L 0 0 Z" fill-opacity="0.5882352941176471"/></g><g transform="translate(6,0)"><g transform="translate(0,488.0878341127873) rotate(822.7831934010275,0,0)"><path fill="rgb(0,0,255)" stroke="none" paint-order="stroke fill markers" d=" M 0 0 L 131.26179638353454 0 L 131.26179638353454 131.26179638353454 L 0 131.26179638353454 L 0 0 Z" fill-opacity="0.5882352941176471"/></g><g transform="translate(6,0)"><g transform="translate(0,518.8935395187005) rotate(763.0871305447803,0,0)"><path fill="rgb(75,0,130)" stroke="none" paint-order="stroke fill markers" d=" M 0 0 L 141.5303648521723 0 L 141.5303648521723 141.5303648521723 L 0 141.5303648521723 L 0 0 Z" fill-opacity="0.5882352941176471"/></g><g transform="translate(6,0)"><g transform="translate(0,537.0333885720438) rotate(731.8214474873316,0,0)"><path fill="rgb(148,0,211)" stroke="none" paint-order="stroke fill markers" d=" M 0 0 L 147.5769812032867 0 L 147.5769812032867 147.5769812032867 L 0 147.5769812032867 L 0 0 Z" fill-opacity="0.5882352941176471"/></g><g transform="translate(6,0)"><g transform="translate(0,545.5252296952405) rotate(718.0488462959116,0,0)"><path fill="rgb(255,0,0)" stroke="none" paint-order="stroke fill markers" d=" M 0 0 L 150.40759491101895 0 L 150.40759491101895 150.40759491101895 L 0 150.40759491101895 L 0 0 Z" fill-opacity="0.5882352941176471"/></g><g transform="translate(6,0)"><g transform="translate(0,544.8034019156011) rotate(719.1993601769466,0,0)"><path fill="rgb(255,127,0)" stroke="none" paint-order="stroke fill markers" d=" M 0 0 L 150.16698565113913 0 L 150.16698565113913 150.16698565113913 L 0 150.16698565113913 L 0 0 Z" fill-opacity="0.5882352941176471"/></g><g transform="translate(6,0)"><g transform="translate(0,531.9026628985873) rotate(740.4018250445362,0,0)"><path fill="rgb(255,255,0)" stroke="none" paint-order="stroke fill markers" d=" M 0 0 L 145.86673931213454 0 L 145.86673931213454 145.86673931213454 L 0 145.86673931213454 L 0 0 Z" fill-opacity="0.5882352941176471"/></g><g transform="translate(6,0)"><g transform="translate(0,509.90892237635035) rotate(779.583614807626,0,0)"><path fill="rgb(0,255,0)" stroke="none" paint-order="stroke fill markers" d=" M 0 0 L 138.5354924713889 0 L 138.5354924713889 138.5354924713889 L 0 138.5354924713889 L 0 0 Z" fill-opacity="0.5882352941176471"/></g><g transform="translate(6,0)"><g transform="translate(0,489.70620139656694) rotate(819.4155840139757,0,0)"><path fill="rgb(0,0,255)" stroke="none" paint-order="stroke fill markers" d=" M 0 0 L 131.80125214479443 0 L 131.80125214479443 131.80125214479443 L 0 131.80125214479443 L 0 0 Z" fill-opacity="0.5882352941176471"/></g><g transform="translate(6,0)"><g transform="translate(0,474.77030203227184) rotate(851.5831074274274,0,0)"><path fill="rgb(75,0,130)" stroke="none" paint-order="stroke fill markers" d=" M 0 0 L 126.82261902336272 0 L 126.82261902336272 126.82261902336272 L 0 126.82261902336272 L 0 0 Z" fill-opacity="0.5882352941176471"/></g><g transform="translate(6,0)"><g transform="translate(0,469.1943735851048) rotate(864.2490682318479,0,0)"><path fill="rgb(148,0,211)" stroke="none" paint-order="stroke fill markers" d=" M 0 0 L 124.96397620764039 0 L 124.96397620764039 124.96397620764039 L 0 124.96397620764039 L 0 0 Z" fill-opacity="0.5882352941176471"/></g><g transform="translate(6,0)"><g transform="translate(0,473.37268155738695) rotate(854.7228685379196,0,0)"><path fill="rgb(255,0,0)" stroke="none" paint-order="stroke fill markers" d=" M 0 0 L 126.35674553173442 0 L 126.35674553173442 126.35674553173442 L 0 126.35674553173442 L 0 0 Z" fill-opacity="0.5882352941176471"/></g><g transform="translate(6,0)"><g transform="translate(0,485.8787729894433) rotate(827.4248896308276,0,0)"><path fill="rgb(255,127,0)" stroke="none" paint-order="stroke fill markers" d=" M 0 0 L 130.5254426757532 0 L 130.5254426757532 130.5254426757532 L 0 130.5254426757532 L 0 0 Z" fill-opacity="0.5882352941176471"/></g><g transform="translate(6,0)"><g transform="translate(0,502.6258337907425) rotate(793.4887122913173,0,0)"><path fill="rgb(255,255,0)" stroke="none" paint-order="stroke fill markers" d=" M 0 0 L 136.1077962761863 0 L 136.1077962761863 136.1077962761863 L 0 136.1077962761863 L 0 0 Z" fill-opacity="0.5882352941176471"/></g><g transform="translate(6,0)"><g transform="translate(0,509.1747847316068) rotate(780.9631275492409,0,0)"><path fill="rgb(0,255,0)" stroke="none" paint-order="stroke fill markers" d=" M 0 0 L 138.29077992314103 0 L 138.29077992314103 138.29077992314103 L 0 138.29077992314103 L 0 0 Z" fill-opacity="0.5882352941176471"/></g><g transform="translate(6,0)"><g transform="translate(0,511.9215753337145) rotate(775.8265281376273,0,0)"><path fill="rgb(0,0,255)" stroke="none" paint-order="stroke fill markers" d=" M 0 0 L 139.2063767905103 0 L 139.2063767905103 139.2063767905103 L 0 139.2063767905103 L 0 0 Z" fill-opacity="0.5882352941176471"/></g><g transform="translate(6,0)"><g transform="translate(0,524.2368410386866) rotate(753.6033472938207,0,0)"><path fill="rgb(75,0,130)" stroke="none" paint-order="stroke fill markers" d=" M 0 0 L 143.31146535883434 0 L 143.31146535883434 143.31146535883434 L 0 143.31146535883434 L 0 0 Z" fill-opacity="0.5882352941176471"/></g><g transform="translate(6,0)"><g transform="translate(0,539.1673151999325) rotate(728.3110483119174,0,0)"><path fill="rgb(148,0,211)" stroke="none" paint-order="stroke fill markers" d=" M 0 0 L 148.28829007924963 0 L 148.28829007924963 148.28829007924963 L 0 148.28829007924963 L 0 0 Z" fill-opacity="0.5882352941176471"/></g><g transform="translate(6,0)"><g transform="translate(0,535.3566094575328) rotate(734.6036520723444,0,0)"><path fill="rgb(255,0,0)" stroke="none" paint-order="stroke fill markers" d=" M 0 0 L 147.01805483178305 0 L 147.01805483178305 147.01805483178305 L 0 147.01805483178305 L 0 0 Z" fill-opacity="0.5882352941176471"/></g><g transform="translate(6,0)"><g transform="translate(0,516.9788716996924) rotate(766.5438134339369,0,0)"><path fill="rgb(255,127,0)" stroke="none" paint-order="stroke fill markers" d=" M 0 0 L 140.89214224583625 0 L 140.89214224583625 140.89214224583625 L 0 140.89214224583625 L 0 0 Z" fill-opacity="0.5882352941176471"/></g><g transform="translate(6,0)"><g transform="translate(0,498.29987231510086) rotate(801.985305012761,0,0)"><path fill="rgb(255,255,0)" stroke="none" paint-order="stroke fill markers" d=" M 0 0 L 134.66580911763904 0 L 134.66580911763904 134.66580911763904 L 0 134.66580911763904 L 0 0 Z" fill-opacity="0.5882352941176471"/></g><g transform="translate(6,0)"><g transform="translate(0,475.57061923319554) rotate(849.7955556334879,0,0)"><path fill="rgb(0,255,0)" stroke="none" paint-order="stroke fill markers" d=" M 0 0 L 127.08939142367062 0 L 127.08939142367062 127.08939142367062 L 0 127.08939142367062 L 0 0 Z" fill-opacity="0.5882352941176471"/></g><g transform="translate(6,0)"><g transform="translate(0,443.8069710802562) rotate(927.0266213678262,0,0)"><path fill="rgb(0,0,255)" stroke="none" paint-order="stroke fill markers" d=" M 0 0 L 116.50150870602418 0 L 116.50150870602418 116.50150870602418 L 0 116.50150870602418 L 0 0 Z" fill-opacity="0.5882352941176471"/></g><g transform="translate(6,0)"><g transform="translate(0,416.7464856679692) rotate(1004.825517292268,0,0)"><path fill="rgb(75,0,130)" stroke="none" paint-order="stroke fill markers" d=" M 0 0 L 107.48134690192849 0 L 107.48134690192849 107.48134690192849 L 0 107.48134690192849 L 0 0 Z" fill-opacity="0.5882352941176471"/></g><g transform="translate(6,0)"><g transform="translate(0,403.7895469363557) rotate(1046.8933856475837,0,0)"><path fill="rgb(148,0,211)" stroke="none" paint-order="stroke fill markers" d=" M 0 0 L 103.16236732472402 0 L 103.16236732472402 103.16236732472402 L 0 103.16236732472402 L 0 0 Z" fill-opacity="0.5882352941176471"/></g><g transform="translate(6,0)"><g transform="translate(0,386.9870525230474) rotate(1106.993643089428,0,0)"><path fill="rgb(255,0,0)" stroke="none" paint-order="stroke fill markers" d=" M 0 0 L 97.56153585362124 0 L 97.56153585362124 97.56153585362124 L 0 97.56153585362124 L 0 0 Z" fill-opacity="0.5882352941176471"/></g><g transform="translate(6,0)"><g transform="translate(0,355.8671810567324) rotate(1238.6990877963094,0,0)"><path fill="rgb(255,127,0)" stroke="none" paint-order="stroke fill markers" d=" M 0 0 L 87.18824536484959 0 L 87.18824536484959 87.18824536484959 L 0 87.18824536484959 L 0 0 Z" fill-opacity="0.5882352941176471"/></g><g transform="translate(6,0)"><g transform="translate(0,323.5061105706888) rotate(1413.5899578212384,0,0)"><path fill="rgb(255,255,0)" stroke="none" paint-order="stroke fill markers" d=" M 0 0 L 76.40122186950171 0 L 76.40122186950171 76.40122186950171 L 0 76.40122186950171 L 0 0 Z" fill-opacity="0.5882352941176471"/></g><g transform="translate(6,0)"><g transform="translate(0,307.8622579189442) rotate(1517.1393695947854,0,0)"><path fill="rgb(0,255,0)" stroke="none" paint-order="stroke fill markers" d=" M 0 0 L 71.18660431892017 0 L 71.18660431892017 71.18660431892017 L 0 71.18660431892017 L 0 0 Z" fill-opacity="0.5882352941176471"/></g><g transform="translate(6,0)"><g transform="translate(0,310.2598245425036) rotate(1500.296033549047,0,0)"><path fill="rgb(0,0,255)" stroke="none" paint-order="stroke fill markers" d=" M 0 0 L 71.98579319343999 0 L 71.98579319343999 71.98579319343999 L 0 71.98579319343999 L 0 0 Z" fill-opacity="0.5882352941176471"/></g><g transform="translate(6,0)"><g transform="translate(0,314.47685927281555) rotate(1471.5606307592413,0,0)"><path fill="rgb(75,0,130)" stroke="none" paint-order="stroke fill markers" d=" M 0 0 L 73.3914714368773 0 L 73.3914714368773 73.3914714368773 L 0 73.3914714368773 L 0 0 Z" fill-opacity="0.5882352941176471"/></g><g transform="translate(6,0)"><g transform="translate(0,311.1957209851979) rotate(1493.822242629692,0,0)"><path fill="rgb(148,0,211)" stroke="none" paint-order="stroke fill markers" d=" M 0 0 L 72.29775867433808 0 L 72.29775867433808 72.29775867433808 L 0 72.29775867433808 L 0 0 Z" fill-opacity="0.5882352941176471"/></g><g transform="translate(6,0)"><g transform="translate(0,309.5928430492535) rotate(1504.9440331703263,0,0)"><path fill="rgb(255,0,0)" stroke="none" paint-order="stroke fill markers" d=" M 0 0 L 71.76346602902328 0 L 71.76346602902328 71.76346602902328 L 0 71.76346602902328 L 0 0 Z" fill-opacity="0.5882352941176471"/></g><g transform="translate(6,0)"><g transform="translate(0,320.31085779381465) rotate(1433.5749538729324,0,0)"><path fill="rgb(255,127,0)" stroke="none" paint-order="stroke fill markers" d=" M 0 0 L 75.33613761054364 0 L 75.33613761054364 75.33613761054364 L 0 75.33613761054364 L 0 0 Z" fill-opacity="0.5882352941176471"/></g><g transform="translate(6,0)"><g transform="translate(0,332.90891957755014) rotate(1357.8843596859135,0,0)"><path fill="rgb(255,255,0)" stroke="none" paint-order="stroke fill markers" d=" M 0 0 L 79.53549153845547 0 L 79.53549153845547 79.53549153845547 L 0 79.53549153845547 L 0 0 Z" fill-opacity="0.5882352941176471"/></g><g transform="translate(6,0)"><g transform="translate(0,352.193296097387) rotate(1256.3454600029138,0,0)"><path fill="rgb(0,255,0)" stroke="none" paint-order="stroke fill markers" d=" M 0 0 L 85.96361704506778 0 L 85.96361704506778 85.96361704506778 L 0 85.96361704506778 L 0 0 Z" fill-opacity="0.5882352941176471"/></g><g transform="translate(6,0)"><g transform="translate(0,377.0539847140192) rotate(1145.8823541133224,0,0)"><path fill="rgb(0,0,255)" stroke="none" paint-order="stroke fill markers" d=" M 0 0 L 94.25051325061185 0 L 94.25051325061185 94.25051325061185 L 0 94.25051325061185 L 0 0 Z" fill-opacity="0.5882352941176471"/></g><g transform="translate(6,0)"><g transform="translate(0,398.1168392081536) rotate(1066.4405839102137,0,0)"><path fill="rgb(75,0,130)" stroke="none" paint-order="stroke fill markers" d=" M 0 0 L 101.27146474865664 0 L 101.27146474865664 101.27146474865664 L 0 101.27146474865664 L 0 0 Z" fill-opacity="0.5882352941176471"/></g><g transform="translate(6,0)"><g transform="translate(0,412.07461306645257) rotate(1019.5984183664808,0,0)"><path fill="rgb(148,0,211)" stroke="none" paint-order="stroke fill markers" d=" M 0 0 L 105.92405603475629 0 L 105.92405603475629 105.92405603475629 L 0 105.92405603475629 L 0 0 Z" fill-opacity="0.5882352941176471"/></g><g transform="translate(6,0)"><g transform="translate(0,428.12443490652095) rotate(970.5771631581997,0,0)"><path fill="rgb(255,0,0)" stroke="none" paint-order="stroke fill markers" d=" M 0 0 L 111.27399664811243 0 L 111.27399664811243 111.27399664811243 L 0 111.27399664811243 L 0 0 Z" fill-opacity="0.5882352941176471"/></g><g transform="translate(6,0)"><g transform="translate(0,444.05157296792106) rotate(926.3782924847922,0,0)"><path fill="rgb(255,127,0)" stroke="none" paint-order="stroke fill markers" d=" M 0 0 L 116.58304266857913 0 L 116.58304266857913 116.58304266857913 L 0 116.58304266857913 L 0 0 Z" fill-opacity="0.5882352941176471"/></g><g transform="translate(6,0)"><g transform="translate(0,466.777162923269) rotate(869.8576960432795,0,0)"><path fill="rgb(255,255,0)" stroke="none" paint-order="stroke fill markers" d=" M 0 0 L 124.15823932036177 0 L 124.15823932036177 124.15823932036177 L 0 124.15823932036177 L 0 0 Z" fill-opacity="0.5882352941176471"/></g><g transform="translate(6,0)"><g transform="translate(0,499.5035034640573) rotate(799.6030444686064,0,0)"><path fill="rgb(0,255,0)" stroke="none" paint-order="stroke fill markers" d=" M 0 0 L 135.06701950062453 0 L 135.06701950062453 135.06701950062453 L 0 135.06701950062453 L 0 0 Z" fill-opacity="0.5882352941176471"/></g><g transform="translate(6,0)"><g transform="translate(0,530.4101032698106) rotate(742.9358183190925,0,0)"><path fill="rgb(0,0,255)" stroke="none" paint-order="stroke fill markers" d=" M 0 0 L 145.36921943587564 0 L 145.36921943587564 145.36921943587564 L 0 145.36921943587564 L 0 0 Z" fill-opacity="0.5882352941176471"/></g><g transform="translate(6,0)"><g transform="translate(0,556.8574657317951) rotate(700.4572114705838,0,0)"><path fill="rgb(75,0,130)" stroke="none" paint-order="stroke fill markers" d=" M 0 0 L 154.1850069232038 0 L 154.1850069232038 154.1850069232038 L 0 154.1850069232038 L 0 0 Z" fill-opacity="0.5882352941176471"/></g><g transform="translate(6,0)"><g transform="translate(0,572.5541763647396) rotate(677.4674898715241,0,0)"><path fill="rgb(148,0,211)" stroke="none" paint-order="stroke fill markers" d=" M 0 0 L 159.417243800852 0 L 159.417243800852 159.417243800852 L 0 159.417243800852 L 0 0 Z" fill-opacity="0.5882352941176471"/></g><g transform="translate(6,0)"><g transform="translate(0,578.2534754530152) rotate(669.4892242948498,0,0)"><path fill="rgb(255,0,0)" stroke="none" paint-order="stroke fill markers" d=" M 0 0 L 161.3170101636105 0 L 161.3170101636105 161.3170101636105 L 0 161.3170101636105 L 0 0 Z" fill-opacity="0.5882352941176471"/></g><g transform="translate(6,0)"><g transform="translate(0,577.7213803150281) rotate(670.2261254278641,0,0)"><path fill="rgb(255,127,0)" stroke="none" paint-order="stroke fill markers" d=" M 0 0 L 161.1396451176148 0 L 161.1396451176148 161.1396451176148 L 0 161.1396451176148 L 0 0 Z" fill-opacity="0.5882352941176471"/></g><g transform="translate(6,0)"><g transform="translate(0,571.7839768007775) rotate(678.5602759386384,0,0)"><path fill="rgb(255,255,0)" stroke="none" paint-order="stroke fill markers" d=" M 0 0 L 159.1605106128646 0 L 159.1605106128646 159.1605106128646 L 0 159.1605106128646 L 0 0 Z" fill-opacity="0.5882352941176471"/></g><g transform="translate(6,0)"><g transform="translate(0,564.3909239907584) rotate(689.2319519711211,0,0)"><path fill="rgb(0,255,0)" stroke="none" paint-order="stroke fill markers" d=" M 0 0 L 156.69615967619157 0 L 156.69615967619157 156.69615967619157 L 0 156.69615967619157 L 0 0 Z" fill-opacity="0.5882352941176471"/></g><g transform="translate(6,0)"><g transform="translate(0,561.0446500972328) rotate(694.17334973222,0,0)"><path fill="rgb(0,0,255)" stroke="none" paint-order="stroke fill markers" d=" M 0 0 L 155.58073504501638 0 L 155.58073504501638 155.58073504501638 L 0 155.58073504501638 L 0 0 Z" fill-opacity="0.5882352941176471"/></g><g transform="translate(6,0)"><g transform="translate(0,548.8886120743005) rotate(712.7361618992915,0,0)"><path fill="rgb(75,0,130)" stroke="none" paint-order="stroke fill markers" d=" M 0 0 L 151.5287223707056 0 L 151.5287223707056 151.5287223707056 L 0 151.5287223707056 L 0 0 Z" fill-opacity="0.5882352941176471"/></g><g transform="translate(6,0)"><g transform="translate(0,524.3056237142745) rotate(753.4828020115528,0,0)"><path fill="rgb(148,0,211)" stroke="none" paint-order="stroke fill markers" d=" M 0 0 L 143.3343929173636 0 L 143.3343929173636 143.3343929173636 L 0 143.3343929173636 L 0 0 Z" fill-opacity="0.5882352941176471"/></g><g transform="translate(6,0)"><g transform="translate(0,506.2297444367621) rotate(786.5465590973664,0,0)"><path fill="rgb(255,0,0)" stroke="none" paint-order="stroke fill markers" d=" M 0 0 L 137.30909982485946 0 L 137.30909982485946 137.30909982485946 L 0 137.30909982485946 L 0 0 Z" fill-opacity="0.5882352941176471"/></g><g transform="translate(6,0)"><g transform="translate(0,492.9142375849947) rotate(812.820909958846,0,0)"><path fill="rgb(255,127,0)" stroke="none" paint-order="stroke fill markers" d=" M 0 0 L 132.87059754093698 0 L 132.87059754093698 132.87059754093698 L 0 132.87059754093698 L 0 0 Z" fill-opacity="0.5882352941176471"/></g><g transform="translate(6,0)"><g transform="translate(0,479.2695992862265) rotate(841.6302439331636,0,0)"><path fill="rgb(255,255,0)" stroke="none" paint-order="stroke fill markers" d=" M 0 0 L 128.32238477468096 0 L 128.32238477468096 128.32238477468096 L 0 128.32238477468096 L 0 0 Z" fill-opacity="0.5882352941176471"/></g><g transform="translate(6,0)"><g transform="translate(0,472.7149061673691) rotate(856.208590404528,0,0)"><path fill="rgb(0,255,0)" stroke="none" paint-order="stroke fill markers" d=" M 0 0 L 126.13748706839516 0 L 126.13748706839516 126.13748706839516 L 0 126.13748706839516 L 0 0 Z" fill-opacity="0.5882352941176471"/></g><g transform="translate(6,0)"><g transform="translate(0,476.66934231828327) rotate(847.3536863162547,0,0)"><path fill="rgb(0,0,255)" stroke="none" paint-order="stroke fill markers" d=" M 0 0 L 127.45563245203321 0 L 127.45563245203321 127.45563245203321 L 0 127.45563245203321 L 0 0 Z" fill-opacity="0.5882352941176471"/></g><g transform="translate(6,0)"><g transform="translate(0,477.27548571925365) rotate(846.0125531538963,0,0)"><path fill="rgb(75,0,130)" stroke="none" paint-order="stroke fill markers" d=" M 0 0 L 127.65768025235667 0 L 127.65768025235667 127.65768025235667 L 0 127.65768025235667 L 0 0 Z" fill-opacity="0.5882352941176471"/></g><g transform="translate(6,0)"><g transform="translate(0,465.80642907456445) rotate(872.1306200096883,0,0)"><path fill="rgb(148,0,211)" stroke="none" paint-order="stroke fill markers" d=" M 0 0 L 123.8346613707936 0 L 123.8346613707936 123.8346613707936 L 0 123.8346613707936 L 0 0 Z" fill-opacity="0.5882352941176471"/></g><g transform="translate(6,0)"><g transform="translate(0,450.1519173099291) rotate(910.4973455837492,0,0)"><path fill="rgb(255,0,0)" stroke="none" paint-order="stroke fill markers" d=" M 0 0 L 118.61649078258182 0 L 118.61649078258182 118.61649078258182 L 0 118.61649078258182 L 0 0 Z" fill-opacity="0.5882352941176471"/></g><g transform="translate(6,0)"><g transform="translate(0,430.4196514246745) rotate(963.949460993027,0,0)"><path fill="rgb(255,127,0)" stroke="none" paint-order="stroke fill markers" d=" M 0 0 L 112.03906882083028 0 L 112.03906882083028 112.03906882083028 L 0 112.03906882083028 L 0 0 Z" fill-opacity="0.5882352941176471"/></g><g transform="translate(6,0)"><g transform="translate(0,403.6993642374906) rotate(1047.1985330652208,0,0)"><path fill="rgb(255,255,0)" stroke="none" paint-order="stroke fill markers" d=" M 0 0 L 103.13230642510233 0 L 103.13230642510233 103.13230642510233 L 0 103.13230642510233 L 0 0 Z" fill-opacity="0.5882352941176471"/></g><g transform="translate(6,0)"><g transform="translate(0,377.0419071905261) rotate(1145.931301723759,0,0)"><path fill="rgb(0,255,0)" stroke="none" paint-order="stroke fill markers" d=" M 0 0 L 94.24648740944747 0 L 94.24648740944747 94.24648740944747 L 0 94.24648740944747 L 0 0 Z" fill-opacity="0.5882352941176471"/></g><g transform="translate(6,0)"><g transform="translate(0,355.0575623473783) rotate(1242.5451252846494,0,0)"><path fill="rgb(0,0,255)" stroke="none" paint-order="stroke fill markers" d=" M 0 0 L 86.91837246173152 0 L 86.91837246173152 86.91837246173152 L 0 86.91837246173152 L 0 0 Z" fill-opacity="0.5882352941176471"/></g><g transform="translate(6,0)"><g transform="translate(0,340.6648576239172) rotate(1315.135683643699,0,0)"><path fill="rgb(75,0,130)" stroke="none" paint-order="stroke fill markers" d=" M 0 0 L 82.12080422057785 0 L 82.12080422057785 82.12080422057785 L 0 82.12080422057785 L 0 0 Z" fill-opacity="0.5882352941176471"/></g><g transform="translate(6,0)"><g transform="translate(0,341.42890453656196) rotate(1311.0696465203266,0,0)"><path fill="rgb(148,0,211)" stroke="none" paint-order="stroke fill markers" d=" M 0 0 L 82.37548652479278 0 L 82.37548652479278 82.37548652479278 L 0 82.37548652479278 L 0 0 Z" fill-opacity="0.5882352941176471"/></g><g transform="translate(6,0)"><g transform="translate(0,354.4171652300531) rotate(1245.604245950943,0,0)"><path fill="rgb(255,0,0)" stroke="none" paint-order="stroke fill markers" d=" M 0 0 L 86.70490675595647 0 L 86.70490675595647 86.70490675595647 L 0 86.70490675595647 L 0 0 Z" fill-opacity="0.5882352941176471"/></g><g transform="translate(6,0)"><g transform="translate(0,362.6757635484598) rotate(1207.2735162599297,0,0)"><path fill="rgb(255,127,0)" stroke="none" paint-order="stroke fill markers" d=" M 0 0 L 89.45777286209206 0 L 89.45777286209206 89.45777286209206 L 0 89.45777286209206 L 0 0 Z" fill-opacity="0.5882352941176471"/></g><g transform="translate(6,0)"><g transform="translate(0,361.65539759323065) rotate(1211.8811361964918,0,0)"><path fill="rgb(255,255,0)" stroke="none" paint-order="stroke fill markers" d=" M 0 0 L 89.11765087701565 0 L 89.11765087701565 89.11765087701565 L 0 89.11765087701565 L 0 0 Z" fill-opacity="0.5882352941176471"/></g><g transform="translate(6,0)"><g transform="translate(0,359.36891196524607) rotate(1222.3349247577846,0,0)"><path fill="rgb(0,255,0)" stroke="none" paint-order="stroke fill markers" d=" M 0 0 L 88.35548900102079 0 L 88.35548900102079 88.35548900102079 L 0 88.35548900102079 L 0 0 Z" fill-opacity="0.5882352941176471"/></g><g transform="translate(6,0)"><g transform="translate(0,355.472930794651) rotate(1240.5689676889288,0,0)"><path fill="rgb(0,0,255)" stroke="none" paint-order="stroke fill markers" d=" M 0 0 L 87.05682861082245 0 L 87.05682861082245 87.05682861082245 L 0 87.05682861082245 L 0 0 Z" fill-opacity="0.5882352941176471"/></g><g transform="translate(6,0)"><g transform="translate(0,346.9514360475089) rotate(1282.411612285354,0,0)"><path fill="rgb(75,0,130)" stroke="none" paint-order="stroke fill markers" d=" M 0 0 L 84.21633036177508 0 L 84.21633036177508 84.21633036177508 L 0 84.21633036177508 L 0 0 Z" fill-opacity="0.5882352941176471"/></g><g transform="translate(6,0)"><g transform="translate(0,341.7681959797344) rotate(1309.2720858048003,0,0)"><path fill="rgb(148,0,211)" stroke="none" paint-order="stroke fill markers" d=" M 0 0 L 82.4885836725169 0 L 82.4885836725169 82.4885836725169 L 0 82.4885836725169 L 0 0 Z" fill-opacity="0.5882352941176471"/></g><g transform="translate(6,0)"><g transform="translate(0,350.0892036991803) rotate(1266.6801111981763,0,0)"><path fill="rgb(255,0,0)" stroke="none" paint-order="stroke fill markers" d=" M 0 0 L 85.2622529123322 0 L 85.2622529123322 85.2622529123322 L 0 85.2622529123322 L 0 0 Z" fill-opacity="0.5882352941176471"/></g><g transform="translate(6,0)"><g transform="translate(0,360.9623625994901) rotate(1215.0307510432965,0,0)"><path fill="rgb(255,127,0)" stroke="none" paint-order="stroke fill markers" d=" M 0 0 L 88.88663921243547 0 L 88.88663921243547 88.88663921243547 L 0 88.88663921243547 L 0 0 Z" fill-opacity="0.5882352941176471"/></g><g transform="translate(6,0)"><g transform="translate(0,362.9860136705223) rotate(1205.8794721150527,0,0)"><path fill="rgb(255,255,0)" stroke="none" paint-order="stroke fill markers" d=" M 0 0 L 89.56118956944623 0 L 89.56118956944623 89.56118956944623 L 0 89.56118956944623 L 0 0 Z" fill-opacity="0.5882352941176471"/></g><g transform="translate(6,0)"><g transform="translate(0,360.45005797990416) rotate(1217.3695504021957,0,0)"><path fill="rgb(0,255,0)" stroke="none" paint-order="stroke fill markers" d=" M 0 0 L 88.71587100590683 0 L 88.71587100590683 88.71587100590683 L 0 88.71587100590683 L 0 0 Z" fill-opacity="0.5882352941176471"/></g><g transform="translate(6,0)"><g transform="translate(0,363.65532296595336) rotate(1202.8830076041195,0,0)"><path fill="rgb(0,0,255)" stroke="none" paint-order="stroke fill markers" d=" M 0 0 L 89.78429266792324 0 L 89.78429266792324 89.78429266792324 L 0 89.78429266792324 L 0 0 Z" fill-opacity="0.5882352941176471"/></g><g transform="translate(6,0)"><g transform="translate(0,367.13754040254526) rotate(1187.5305098746817,0,0)"><path fill="rgb(75,0,130)" stroke="none" paint-order="stroke fill markers" d=" M 0 0 L 90.94503181345385 0 L 90.94503181345385 90.94503181345385 L 0 90.94503181345385 L 0 0 Z" fill-opacity="0.5882352941176471"/></g><g transform="translate(6,0)"><g transform="translate(0,376.61881866218005) rotate(1147.6486317591298,0,0)"><path fill="rgb(148,0,211)" stroke="none" paint-order="stroke fill markers" d=" M 0 0 L 94.1054578999988 0 L 94.1054578999988 94.1054578999988 L 0 94.1054578999988 L 0 0 Z" fill-opacity="0.5882352941176471"/></g><g transform="translate(6,0)"><g transform="translate(0,401.1503600746199) rotate(1055.8976745247849,0,0)"><path fill="rgb(255,0,0)" stroke="none" paint-order="stroke fill markers" d=" M 0 0 L 102.28263837081208 0 L 102.28263837081208 102.28263837081208 L 0 102.28263837081208 L 0 0 Z" fill-opacity="0.5882352941176471"/></g><g transform="translate(6,0)"><g transform="translate(0,430.9014809773438) rotate(962.5696016117149,0,0)"><path fill="rgb(255,127,0)" stroke="none" paint-order="stroke fill markers" d=" M 0 0 L 112.19967867172005 0 L 112.19967867172005 112.19967867172005 L 0 112.19967867172005 L 0 0 Z" fill-opacity="0.5882352941176471"/></g><g transform="translate(6,0)"><g transform="translate(0,441.63993550292685) rotate(932.8103323818835,0,0)"><path fill="rgb(255,255,0)" stroke="none" paint-order="stroke fill markers" d=" M 0 0 L 115.77916351358107 0 L 115.77916351358107 115.77916351358107 L 0 115.77916351358107 L 0 0 Z" fill-opacity="0.5882352941176471"/></g><g transform="translate(6,0)"><g transform="translate(0,431.0192436602131) rotate(962.2329543782757,0,0)"><path fill="rgb(0,255,0)" stroke="none" paint-order="stroke fill markers" d=" M 0 0 L 112.23893289934314 0 L 112.23893289934314 112.23893289934314 L 0 112.23893289934314 L 0 0 Z" fill-opacity="0.5882352941176471"/></g><g transform="translate(6,0)"><g transform="translate(0,421.8664599982037) rotate(989.1196380785963,0,0)"><path fill="rgb(0,0,255)" stroke="none" paint-order="stroke fill markers" d=" M 0 0 L 109.18800501200667 0 L 109.18800501200667 109.18800501200667 L 0 109.18800501200667 L 0 0 Z" fill-opacity="0.5882352941176471"/></g><g transform="translate(6,0)"><g transform="translate(0,422.42184281264997) rotate(987.4454302992973,0,0)"><path fill="rgb(75,0,130)" stroke="none" paint-order="stroke fill markers" d=" M 0 0 L 109.37313261682209 0 L 109.37313261682209 109.37313261682209 L 0 109.37313261682209 L 0 0 Z" fill-opacity="0.5882352941176471"/></g><g transform="translate(6,0)"><g transform="translate(0,425.184528591383) rotate(979.2007969917413,0,0)"><path fill="rgb(148,0,211)" stroke="none" paint-order="stroke fill markers" d=" M 0 0 L 110.2940278763998 0 L 110.2940278763998 110.2940278763998 L 0 110.2940278763998 L 0 0 Z" fill-opacity="0.5882352941176471"/></g><g transform="translate(6,0)"><g transform="translate(0,428.49687446771475) rotate(969.4955133734136,0,0)"><path fill="rgb(255,0,0)" stroke="none" paint-order="stroke fill markers" d=" M 0 0 L 111.39814316851037 0 L 111.39814316851037 111.39814316851037 L 0 111.39814316851037 L 0 0 Z" fill-opacity="0.5882352941176471"/></g><g transform="translate(6,0)"><g transform="translate(0,433.76457507379064) rotate(954.4510897091131,0,0)"><path fill="rgb(255,127,0)" stroke="none" paint-order="stroke fill markers" d=" M 0 0 L 113.15404337053565 0 L 113.15404337053565 113.15404337053565 L 0 113.15404337053565 L 0 0 Z" fill-opacity="0.5882352941176471"/></g><g transform="translate(6,0)"/></g></g></g></g></g></g></g></g></g></g></g></g></g></g></g></g></g></g></g></g></g></g></g></g></g></g></g></g></g></g></g></g></g></g></g></g></g></g></g></g></g></g></g></g></g></g></g></g></g></g></g></g></g></g></g></g></g></g></g></g></g></g></g></g></g></g></g></g></g></g></g></g></g></g></g></g></g></g></g></g></g></g></g></g></g></g></g></g></g></g></g></g></g></g></g></g></g></g></g></g></g></svg>