<svg version="1.1" xmlns="http://www.w3.org/2000/svg" xmlns:xlink="http://www.w3.org/1999/xlink" width="600" height="600" viewBox="0 0 600 600"><defs/><g transform="scale(1,1)"><g transform="scale(1,1)"><rect fill="rgb(0,0,0)" stroke="none" x="0" y="0" width="600" height="600" fill-opacity="1"/></g><g><g transform="translate(0,300)"><path fill="rgb(255,0,0)" stroke="none" paint-order="stroke fill markers" d=" M 0 0 L 50.88302130873516 0 L 50.88302130873516 50.88302130873516 L 0 50.88302130873516 L 0 0 Z" fill-opacity="0.5882352941176471"/></g><g transform="translate(6,0)"><g transform="translate(0,340.86295613351774)"><path fill="rgb(255,127,0)" stroke="none" paint-order="stroke fill markers" d=" M 0 0 L 91.74597744225292 0 L 91.74597744225292 91.74597744225292 L 0 91.74597744225292 L 0 0 Z" fill-opacity="0.5882352941176471"/></g><g transform="translate(6,0)"><g transform="translate(0,398.1938193123809)"><path fill="rgb(255,255,0)" stroke="none" paint-order="stroke fill markers" d=" M 0 0 L 149.0768406211161 0 L 149.0768406211161 149.0768406211161 L 0 149.0768406211161 L 0 0 Z" fill-opacity="0.5882352941176471"/></g><g transform="translate(6,0)"><g transform="translate(0,439.12417975065614)"><path fill="rgb(0,255,0)" stroke="none" paint-order="stroke fill markers" d=" M 0 0 L 190.00720105939132 0 L 190.00720105939132 190.00720105939132 L 0 190.00720105939132 L 0 0 Z" fill-opacity="0.5882352941176471"/></g><g transform="translate(6,0)"><g transform="translate(0,493.83811622949224)"><path fill="rgb(0,0,255)" stroke="none" paint-order="stroke fill markers" d=" M 0 0 L 244.72113753822737 0 L 244.72113753822737 244.72113753822737 L 0 244.72113753822737 L 0 0 Z" fill-opacity="0.5882352941176471"/></g><g transform="translate(6,0)"><g transform="translate(0,529.5407953226487)"><path fill="rgb(75,0,130)" stroke="none" paint-order="stroke fill markers" d=" M 0 0 L 280.4238166313839 0 L 280.4238166313839 280.4238166313839 L 0 280.4238166313839 L 0 0 Z" fill-opacity="0.5882352941176471"/></g><g transform="translate(6,0)"><g transform="translate(0,537.7265906828309)"><path fill="rgb(148,0,211)" stroke="none" paint-order="stroke fill markers" d=" M 0 0 L 288.609611991566 0 L 288.609611991566 288.609611991566 L 0 288.609611991566 L 0 0 Z" fill-opacity="0.5882352941176471"/></g><g transform="translate(6,0)"><g transform="translate(0,567.5123100229795)"><path fill="rgb(255,0,0)" stroke="none" paint-order="stroke fill markers" d=" M 0 0 L 318.39533133171466 0 L 318.39533133171466 318.39533133171466 L 0 318.39533133171466 L 0 0 Z" fill-opacity="0.5882352941176471"/></g><g transform="translate(6,0)"><g transform="translate(0,605.9251650039755)"><path fill="rgb(255,127,0)" stroke="none" paint-order="stroke fill markers" d=" M 0 0 L 356.80818631271063 0 L 356.80818631271063 356.80818631271063 L 0 356.80818631271063 L 0 0 Z" fill-opacity="0.5882352941176471"/></g><g transform="translate(6,0)"><g transform="translate(0,631.5969199290671)"><path fill="rgb(255,255,0)" stroke="none" paint-order="stroke fill markers" d=" M 0 0 L 382.4799412378023 0 L 382.4799412378023 382.4799412378023 L 0 382.4799412378023 L 0 0 Z" fill-opacity="0.5882352941176471"/></g><g transform="translate(6,0)"><g transform="translate(0,631.2000231723076)"><path fill="rgb(0,255,0)" stroke="none" paint-order="stroke fill markers" d=" M 0 0 L 382.0830444810428 0 L 382.0830444810428 382.0830444810428 L 0 382.0830444810428 L 0 0 Z" fill-opacity="0.5882352941176471"/></g><g transform="translate(6,0)"><g transform="translate(0,614.6035617853938)"><path fill="rgb(0,0,255)" stroke="none" paint-order="stroke fill markers" d=" M 0 0 L 365.486583094129 0 L 365.486583094129 365.486583094129 L 0 365.486583094129 L 0 0 Z" fill-opacity="0.5882352941176471"/></g><g transform="translate(6,0)"><g transform="translate(0,583.1952294803954)"><path fill="rgb(75,0,130)" stroke="none" paint-order="stroke fill markers" d=" M 0 0 L 334.07825078913055 0 L 334.07825078913055 334.07825078913055 L 0 334.07825078913055 L 0 0 Z" fill-opacity="0.5882352941176471"/></g><g transform="translate(6,0)"><g transform="translate(0,580.1560984570342)"><path fill="rgb(148,0,211)" stroke="none" paint-order="stroke fill markers" d=" M 0 0 L 331.0391197657694 0 L 331.0391197657694 331.0391197657694 L 0 331.0391197657694 L 0 0 Z" fill-opacity="0.5882352941176471"/></g><g transform="translate(6,0)"><g transform="translate(0,597.5944641211141)"><path fill="rgb(255,0,0)" stroke="none" paint-order="stroke fill markers" d=" M 0 0 L 348.4774854298493 0 L 348.4774854298493 348.4774854298493 L 0 348.4774854298493 L 0 0 Z" fill-opacity="0.5882352941176471"/></g><g transform="translate(6,0)"><g transform="translate(0,616.2460788515763)"><path fill="rgb(255,127,0)" stroke="none" paint-order="stroke fill markers" d=" M 0 0 L 367.12910016031145 0 L 367.12910016031145 367.12910016031145 L 0 367.12910016031145 L 0 0 Z" fill-opacity="0.5882352941176471"/></g><g transform="translate(6,0)"><g transform="translate(0,630.3096213146567)"><path fill="rgb(255,255,0)" stroke="none" paint-order="stroke fill markers" d=" M 0 0 L 381.1926426233919 0 L 381.1926426233919 381.1926426233919 L 0 381.1926426233919 L 0 0 Z" fill-opacity="0.5882352941176471"/></g><g transform="translate(6,0)"><g transform="translate(0,626.7929620255698)"><path fill="rgb(0,255,0)" stroke="none" paint-order="stroke fill markers" d=" M 0 0 L 377.67598333430493 0 L 377.67598333430493 377.67598333430493 L 0 377.67598333430493 L 0 0 Z" fill-opacity="0.5882352941176471"/></g><g transform="translate(6,0)"><g transform="translate(0,625.4041400133776)"><path fill="rgb(0,0,255)" stroke="none" paint-order="stroke fill markers" d=" M 0 0 L 376.28716132211275 0 L 376.28716132211275 376.28716132211275 L 0 376.28716132211275 L 0 0 Z" fill-opacity="0.5882352941176471"/></g><g transform="translate(6,0)"><g transform="translate(0,610.9696417465034)"><path fill="rgb(75,0,130)" stroke="none" paint-order="stroke fill markers" d=" M 0 0 L 361.8526630552385 0 L 361.8526630552385 361.8526630552385 L 0 361.8526630552385 L 0 0 Z" fill-opacity="0.5882352941176471"/></g><g transform="translate(6,0)"><g transform="translate(0,580.2865434310127)"><path fill="rgb(148,0,211)" stroke="none" paint-order="stroke fill markers" d=" M 0 0 L 331.16956473974784 0 L 331.16956473974784 331.16956473974784 L 0 331.16956473974784 L 0 0 Z" fill-opacity="0.5882352941176471"/></g><g transform="translate(6,0)"><g transform="translate(0,558.5088388129519)"><path fill="rgb(255,0,0)" stroke="none" paint-order="stroke fill markers" d=" M 0 0 L 309.39186012168705 0 L 309.39186012168705 309.39186012168705 L 0 309.39186012168705 L 0 0 Z" fill-opacity="0.5882352941176471"/></g><g transform="translate(6,0)"><g transform="translate(0,537.6721812280222)"><path fill="rgb(255,127,0)" stroke="none" paint-order="stroke fill markers" d=" M 0 0 L 288.55520253675735 0 L 288.55520253675735 288.55520253675735 L 0 288.55520253675735 L 0 0 Z" fill-opacity="0.5882352941176471"/></g><g transform="translate(6,0)"><g transform="translate(0,511.2017682925074)"><path fill="rgb(255,255,0)" stroke="none" paint-order="stroke fill markers" d=" M 0 0 L 262.0847896012425 0 L 262.0847896012425 262.0847896012425 L 0 262.0847896012425 L 0 0 Z" fill-opacity="0.5882352941176471"/></g><g transform="translate(6,0)"><g transform="translate(0,468.63850510388295)"><path fill="rgb(0,255,0)" stroke="none" paint-order="stroke fill markers" d=" M 0 0 L 219.52152641261807 0 L 219.52152641261807 219.52152641261807 L 0 219.52152641261807 L 0 0 Z" fill-opacity="0.5882352941176471"/></g><g transform="translate(6,0)"><g transform="translate(0,433.0767786218109)"><path fill="rgb(0,0,255)" stroke="none" paint-order="stroke fill markers" d=" M 0 0 L 183.95979993054604 0 L 183.95979993054604 183.95979993054604 L 0 183.95979993054604 L 0 0 Z" fill-opacity="0.5882352941176471"/></g><g transform="translate(6,0)"><g transform="translate(0,461.1906557316946)"><path fill="rgb(75,0,130)" stroke="none" paint-order="stroke fill markers" d=" M 0 0 L 212.07367704042974 0 L 212.07367704042974 212.07367704042974 L 0 212.07367704042974 L 0 0 Z" fill-opacity="0.5882352941176471"/></g><g transform="translate(6,0)"><g transform="translate(0,489.29454956788254)"><path fill="rgb(148,0,211)" stroke="none" paint-order="stroke fill markers" d=" M 0 0 L 240.1775708766177 0 L 240.1775708766177 240.1775708766177 L 0 240.1775708766177 L 0 0 Z" fill-opacity="0.5882352941176471"/></g><g transform="translate(6,0)"><g transform="translate(0,507.2370731505804)"><path fill="rgb(255,0,0)" stroke="none" paint-order="stroke fill markers" d=" M 0 0 L 258.12009445931557 0 L 258.12009445931557 258.12009445931557 L 0 258.12009445931557 L 0 0 Z" fill-opacity="0.5882352941176471"/></g><g transform="translate(6,0)"><g transform="translate(0,522.5839729426067)"><path fill="rgb(255,127,0)" stroke="none" paint-order="stroke fill markers" d=" M 0 0 L 273.4669942513418 0 L 273.4669942513418 273.4669942513418 L 0 273.4669942513418 L 0 0 Z" fill-opacity="0.5882352941176471"/></g><g transform="translate(6,0)"><g transform="translate(0,548.1042516439624)"><path fill="rgb(255,255,0)" stroke="none" paint-order="stroke fill markers" d=" M 0 0 L 298.9872729526975 0 L 298.9872729526975 298.9872729526975 L 0 298.9872729526975 L 0 0 Z" fill-opacity="0.5882352941176471"/></g><g transform="translate(6,0)"><g transform="translate(0,575.764884827594)"><path fill="rgb(0,255,0)" stroke="none" paint-order="stroke fill markers" d=" M 0 0 L 326.64790613632914 0 L 326.64790613632914 326.64790613632914 L 0 326.64790613632914 L 0 0 Z" fill-opacity="0.5882352941176471"/></g><g transform="translate(6,0)"><g transform="translate(0,593.4761912510671)"><path fill="rgb(0,0,255)" stroke="none" paint-order="stroke fill markers" d=" M 0 0 L 344.35921255980224 0 L 344.35921255980224 344.35921255980224 L 0 344.35921255980224 L 0 0 Z" fill-opacity="0.5882352941176471"/></g><g transform="translate(6,0)"><g transform="translate(0,601.0237720831578)"><path fill="rgb(75,0,130)" stroke="none" paint-order="stroke fill markers" d=" M 0 0 L 351.90679339189296 0 L 351.90679339189296 351.90679339189296 L 0 351.90679339189296 L 0 0 Z" fill-opacity="0.5882352941176471"/></g><g transform="translate(6,0)"><g transform="translate(0,625.1167678846864)"><path fill="rgb(148,0,211)" stroke="none" paint-order="stroke fill markers" d=" M 0 0 L 375.9997891934215 0 L 375.9997891934215 375.9997891934215 L 0 375.9997891934215 L 0 0 Z" fill-opacity="0.5882352941176471"/></g><g transform="translate(6,0)"><g transform="translate(0,644.9114770282832)"><path fill="rgb(255,0,0)" stroke="none" paint-order="stroke fill markers" d=" M 0 0 L 395.7944983370184 0 L 395.7944983370184 395.7944983370184 L 0 395.7944983370184 L 0 0 Z" fill-opacity="0.5882352941176471"/></g><g transform="translate(6,0)"><g transform="translate(0,659.5319035027921)"><path fill="rgb(255,127,0)" stroke="none" paint-order="stroke fill markers" d=" M 0 0 L 410.41492481152727 0 L 410.41492481152727 410.41492481152727 L 0 410.41492481152727 L 0 0 Z" fill-opacity="0.5882352941176471"/></g><g transform="translate(6,0)"><g transform="translate(0,672.5274652393266)"><path fill="rgb(255,255,0)" stroke="none" paint-order="stroke fill markers" d=" M 0 0 L 423.4104865480618 0 L 423.4104865480618 423.4104865480618 L 0 423.4104865480618 L 0 0 Z" fill-opacity="0.5882352941176471"/></g><g transform="translate(6,0)"><g transform="translate(0,670.7312861645222)"><path fill="rgb(0,255,0)" stroke="none" paint-order="stroke fill markers" d=" M 0 0 L 421.6143074732573 0 L 421.6143074732573 421.6143074732573 L 0 421.6143074732573 L 0 0 Z" fill-opacity="0.5882352941176471"/></g><g transform="translate(6,0)"><g transform="translate(0,650.4718543493007)"><path fill="rgb(0,0,255)" stroke="none" paint-order="stroke fill markers" d=" M 0 0 L 401.3548756580358 0 L 401.3548756580358 401.3548756580358 L 0 401.3548756580358 L 0 0 Z" fill-opacity="0.5882352941176471"/></g><g transform="translate(6,0)"><g transform="translate(0,641.198087694508)"><path fill="rgb(75,0,130)" stroke="none" paint-order="stroke fill markers" d=" M 0 0 L 392.08110900324317 0 L 392.08110900324317 392.08110900324317 L 0 392.08110900324317 L 0 0 Z" fill-opacity="0.5882352941176471"/></g><g transform="translate(6,0)"><g transform="translate(0,631.4398913344072)"><path fill="rgb(148,0,211)" stroke="none" paint-order="stroke fill markers" d=" M 0 0 L 382.32291264314233 0 L 382.32291264314233 382.32291264314233 L 0 382.32291264314233 L 0 0 Z" fill-opacity="0.5882352941176471"/></g><g transform="translate(6,0)"><g transform="translate(0,616.5059771386805)"><path fill="rgb(255,0,0)" stroke="none" paint-order="stroke fill markers" d=" M 0 0 L 367.3889984474156 0 L 367.3889984474156 367.3889984474156 L 0 367.3889984474156 L 0 0 Z" fill-opacity="0.5882352941176471"/></g><g transform="translate(6,0)"><g transform="translate(0,621.3983021374122)"><path fill="rgb(255,127,0)" stroke="none" paint-order="stroke fill markers" d=" M 0 0 L 372.2813234461473 0 L 372.2813234461473 372.2813234461473 L 0 372.2813234461473 L 0 0 Z" fill-opacity="0.5882352941176471"/></g><g transform="translate(6,0)"><g transform="translate(0,613.5043156191714)"><path fill="rgb(255,255,0)" stroke="none" paint-order="stroke fill markers" d=" M 0 0 L 364.3873369279065 0 L 364.3873369279065 364.3873369279065 L 0 364.3873369279065 L 0 0 Z" fill-opacity="0.5882352941176471"/></g><g transform="translate(6,0)"><g transform="translate(0,600.243989737384)"><path fill="rgb(0,255,0)" stroke="none" paint-order="stroke fill markers" d=" M 0 0 L 351.12701104611915 0 L 351.12701104611915 351.12701104611915 L 0 351.12701104611915 L 0 0 Z" fill-opacity="0.5882352941176471"/></g><g transform="translate(6,0)"><g transform="translate(0,583.5070609460681)"><path fill="rgb(0,0,255)" stroke="none" paint-order="stroke fill markers" d=" M 0 0 L 334.39008225480325 0 L 334.39008225480325 334.39008225480325 L 0 334.39008225480325 L 0 0 Z" fill-opacity="0.5882352941176471"/></g><g transform="translate(6,0)"><g transform="translate(0,555.6511909581754)"><path fill="rgb(75,0,130)" stroke="none" paint-order="stroke fill markers" d=" M 0 0 L 306.5342122669106 0 L 306.5342122669106 306.5342122669106 L 0 306.5342122669106 L 0 0 Z" fill-opacity="0.5882352941176471"/></g><g transform="translate(6,0)"><g transform="translate(0,499.30475991712126)"><path fill="rgb(148,0,211)" stroke="none" paint-order="stroke fill markers" d=" M 0 0 L 250.18778122585638 0 L 250.18778122585638 250.18778122585638 L 0 250.18778122585638 L 0 0 Z" fill-opacity="0.5882352941176471"/></g><g transform="translate(6,0)"><g transform="translate(0,456.31262914194474)"><path fill="rgb(255,0,0)" stroke="none" paint-order="stroke fill markers" d=" M 0 0 L 207.19565045067992 0 L 207.19565045067992 207.19565045067992 L 0 207.19565045067992 L 0 0 Z" fill-opacity="0.5882352941176471"/></g><g transform="translate(6,0)"><g transform="translate(0,451.8851003686371)"><path fill="rgb(255,127,0)" stroke="none" paint-order="stroke fill markers" d=" M 0 0 L 202.76812167737225 0 L 202.76812167737225 202.76812167737225 L 0 202.76812167737225 L 0 0 Z" fill-opacity="0.5882352941176471"/></g><g transform="translate(6,0)"><g transform="translate(0,459.0546742414283)"><path fill="rgb(255,255,0)" stroke="none" paint-order="stroke fill markers" d=" M 0 0 L 209.93769555016348 0 L 209.93769555016348 209.93769555016348 L 0 209.93769555016348 L 0 0 Z" fill-opacity="0.5882352941176471"/></g><g transform="translate(6,0)"><g transform="translate(0,489.12287099130975)"><path fill="rgb(0,255,0)" stroke="none" paint-order="stroke fill markers" d=" M 0 0 L 240.0058923000449 0 L 240.0058923000449 240.0058923000449 L 0 240.0058923000449 L 0 0 Z" fill-opacity="0.5882352941176471"/></g><g transform="translate(6,0)"><g transform="translate(0,512.4067634165024)"><path fill="rgb(0,0,255)" stroke="none" paint-order="stroke fill markers" d=" M 0 0 L 263.28978472523755 0 L 263.28978472523755 263.28978472523755 L 0 263.28978472523755 L 0 0 Z" fill-opacity="0.5882352941176471"/></g><g transform="translate(6,0)"><g transform="translate(0,527.6380683567257)"><path fill="rgb(75,0,130)" stroke="none" paint-order="stroke fill markers" d=" M 0 0 L 278.52108966546086 0 L 278.52108966546086 278.52108966546086 L 0 278.52108966546086 L 0 0 Z" fill-opacity="0.5882352941176471"/></g><g transform="translate(6,0)"><g transform="translate(0,535.7905958142553)"><path fill="rgb(148,0,211)" stroke="none" paint-order="stroke fill markers" d=" M 0 0 L 286.6736171229905 0 L 286.6736171229905 286.6736171229905 L 0 286.6736171229905 L 0 0 Z" fill-opacity="0.5882352941176471"/></g><g transform="translate(6,0)"><g transform="translate(0,540.1772375319097)"><path fill="rgb(255,0,0)" stroke="none" paint-order="stroke fill markers" d=" M 0 0 L 291.0602588406448 0 L 291.0602588406448 291.0602588406448 L 0 291.0602588406448 L 0 0 Z" fill-opacity="0.5882352941176471"/></g><g transform="translate(6,0)"><g transform="translate(0,544.2015534842467)"><path fill="rgb(255,127,0)" stroke="none" paint-order="stroke fill markers" d=" M 0 0 L 295.08457479298187 0 L 295.08457479298187 295.08457479298187 L 0 295.08457479298187 L 0 0 Z" fill-opacity="0.5882352941176471"/></g><g transform="translate(6,0)"><g transform="translate(0,543.4453903855649)"><path fill="rgb(255,255,0)" stroke="none" paint-order="stroke fill markers" d=" M 0 0 L 294.3284116943001 0 L 294.3284116943001 294.3284116943001 L 0 294.3284116943001 L 0 0 Z" fill-opacity="0.5882352941176471"/></g><g transform="translate(6,0)"><g transform="translate(0,536.7176589618002)"><path fill="rgb(0,255,0)" stroke="none" paint-order="stroke fill markers" d=" M 0 0 L 287.60068027053535 0 L 287.60068027053535 287.60068027053535 L 0 287.60068027053535 L 0 0 Z" fill-opacity="0.5882352941176471"/></g><g transform="translate(6,0)"><g transform="translate(0,537.3127373716978)"><path fill="rgb(0,0,255)" stroke="none" paint-order="stroke fill markers" d=" M 0 0 L 288.19575868043296 0 L 288.19575868043296 288.19575868043296 L 0 288.19575868043296 L 0 0 Z" fill-opacity="0.5882352941176471"/></g><g transform="translate(6,0)"><g transform="translate(0,530.9399666651872)"><path fill="rgb(75,0,130)" stroke="none" paint-order="stroke fill markers" d=" M 0 0 L 281.8229879739223 0 L 281.8229879739223 281.8229879739223 L 0 281.8229879739223 L 0 0 Z" fill-opacity="0.5882352941176471"/></g><g transform="translate(6,0)"><g transform="translate(0,544.4401843143959)"><path fill="rgb(148,0,211)" stroke="none" paint-order="stroke fill markers" d=" M 0 0 L 295.323205623131 0 L 295.323205623131 295.323205623131 L 0 295.323205623131 L 0 0 Z" fill-opacity="0.5882352941176471"/></g><g transform="translate(6,0)"><g transform="translate(0,545.6804721271252)"><path fill="rgb(255,0,0)" stroke="none" paint-order="stroke fill markers" d=" M 0 0 L 296.5634934358603 0 L 296.5634934358603 296.5634934358603 L 0 296.5634934358603 L 0 0 Z" fill-opacity="0.5882352941176471"/></g><g transform="translate(6,0)"><g transform="translate(0,529.6489401188555)"><path fill="rgb(255,127,0)" stroke="none" paint-order="stroke fill markers" d=" M 0 0 L 280.53196142759066 0 L 280.53196142759066 280.53196142759066 L 0 280.53196142759066 L 0 0 Z" fill-opacity="0.5882352941176471"/></g><g transform="translate(6,0)"><g transform="translate(0,515.6728610585106)"><path fill="rgb(255,255,0)" stroke="none" paint-order="stroke fill markers" d=" M 0 0 L 266.55588236724583 0 L 266.55588236724583 266.55588236724583 L 0 266.55588236724583 L 0 0 Z" fill-opacity="0.5882352941176471"/></g><g transform="translate(6,0)"><g transform="translate(0,503.33596120890365)"><path fill="rgb(0,255,0)" stroke="none" paint-order="stroke fill markers" d=" M 0 0 L 254.21898251763884 0 L 254.21898251763884 254.21898251763884 L 0 254.21898251763884 L 0 0 Z" fill-opacity="0.5882352941176471"/></g><g transform="translate(6,0)"><g transform="translate(0,496.7494434040401)"><path fill="rgb(0,0,255)" stroke="none" paint-order="stroke fill markers" d=" M 0 0 L 247.63246471277526 0 L 247.63246471277526 247.63246471277526 L 0 247.63246471277526 L 0 0 Z" fill-opacity="0.5882352941176471"/></g><g transform="translate(6,0)"><g transform="translate(0,507.032507683679)"><path fill="rgb(75,0,130)" stroke="none" paint-order="stroke fill markers" d=" M 0 0 L 257.9155289924142 0 L 257.9155289924142 257.9155289924142 L 0 257.9155289924142 L 0 0 Z" fill-opacity="0.5882352941176471"/></g><g transform="translate(6,0)"><g transform="translate(0,513.6515244046483)"><path fill="rgb(148,0,211)" stroke="none" paint-order="stroke fill markers" d=" M 0 0 L 264.53454571338347 0 L 264.53454571338347 264.53454571338347 L 0 264.53454571338347 L 0 0 Z" fill-opacity="0.5882352941176471"/></g><g transform="translate(6,0)"><g transform="translate(0,513.4221671466878)"><path fill="rgb(255,0,0)" stroke="none" paint-order="stroke fill markers" d=" M 0 0 L 264.3051884554229 0 L 264.3051884554229 264.3051884554229 L 0 264.3051884554229 L 0 0 Z" fill-opacity="0.5882352941176471"/></g><g transform="translate(6,0)"><g transform="translate(0,505.10438780077715)"><path fill="rgb(255,127,0)" stroke="none" paint-order="stroke fill markers" d=" M 0 0 L 255.9874091095123 0 L 255.9874091095123 255.9874091095123 L 0 255.9874091095123 L 0 0 Z" fill-opacity="0.5882352941176471"/></g><g transform="translate(6,0)"><g transform="translate(0,492.2188960635974)"><path fill="rgb(255,255,0)" stroke="none" paint-order="stroke fill markers" d=" M 0 0 L 243.10191737233254 0 L 243.10191737233254 243.10191737233254 L 0 243.10191737233254 L 0 0 Z" fill-opacity="0.5882352941176471"/></g><g transform="translate(6,0)"><g transform="translate(0,510.58957888896316)"><path fill="rgb(0,255,0)" stroke="none" paint-order="stroke fill markers" d=" M 0 0 L 261.4726001976983 0 L 261.4726001976983 261.4726001976983 L 0 261.4726001976983 L 0 0 Z" fill-opacity="0.5882352941176471"/></g><g transform="translate(6,0)"><g transform="translate(0,521.0622262083373)"><path fill="rgb(0,0,255)" stroke="none" paint-order="stroke fill markers" d=" M 0 0 L 271.9452475170724 0 L 271.9452475170724 271.9452475170724 L 0 271.9452475170724 L 0 0 Z" fill-opacity="0.5882352941176471"/></g><g transform="translate(6,0)"><g transform="translate(0,524.2939639917784)"><path fill="rgb(75,0,130)" stroke="none" paint-order="stroke fill markers" d=" M 0 0 L 275.17698530051354 0 L 275.17698530051354 275.17698530051354 L 0 275.17698530051354 L 0 0 Z" fill-opacity="0.5882352941176471"/></g><g transform="translate(6,0)"><g transform="translate(0,505.83629258784333)"><path fill="rgb(148,0,211)" stroke="none" paint-order="stroke fill markers" d=" M 0 0 L 256.7193138965785 0 L 256.7193138965785 256.7193138965785 L 0 256.7193138965785 L 0 0 Z" fill-opacity="0.5882352941176471"/></g><g transform="translate(6,0)"><g transform="translate(0,485.24217545785115)"><path fill="rgb(255,0,0)" stroke="none" paint-order="stroke fill markers" d=" M 0 0 L 236.1251967665863 0 L 236.1251967665863 236.1251967665863 L 0 236.1251967665863 L 0 0 Z" fill-opacity="0.5882352941176471"/></g><g transform="translate(6,0)"><g transform="translate(0,474.8452417897614)"><path fill="rgb(255,127,0)" stroke="none" paint-order="stroke fill markers" d=" M 0 0 L 225.7282630984966 0 L 225.7282630984966 225.7282630984966 L 0 225.7282630984966 L 0 0 Z" fill-opacity="0.5882352941176471"/></g><g transform="translate(6,0)"><g transform="translate(0,470.79517329609945)"><path fill="rgb(255,255,0)" stroke="none" paint-order="stroke fill markers" d=" M 0 0 L 221.6781946048346 0 L 221.6781946048346 221.6781946048346 L 0 221.6781946048346 L 0 0 Z" fill-opacity="0.5882352941176471"/></g><g transform="translate(6,0)"><g transform="translate(0,474.2637589656075)"><path fill="rgb(0,255,0)" stroke="none" paint-order="stroke fill markers" d=" M 0 0 L 225.1467802743427 0 L 225.1467802743427 225.1467802743427 L 0 225.1467802743427 L 0 0 Z" fill-opacity="0.5882352941176471"/></g><g transform="translate(6,0)"><g transform="translate(0,479.8702736990699)"><path fill="rgb(0,0,255)" stroke="none" paint-order="stroke fill markers" d=" M 0 0 L 230.75329500780506 0 L 230.75329500780506 230.75329500780506 L 0 230.75329500780506 L 0 0 Z" fill-opacity="0.5882352941176471"/></g><g transform="translate(6,0)"><g transform="translate(0,480.82065634114304)"><path fill="rgb(75,0,130)" stroke="none" paint-order="stroke fill markers" d=" M 0 0 L 231.70367764987822 0 L 231.70367764987822 231.70367764987822 L 0 231.70367764987822 L 0 0 Z" fill-opacity="0.5882352941176471"/></g><g transform="translate(6,0)"><g transform="translate(0,477.80474214195044)"><path fill="rgb(148,0,211)" stroke="none" paint-order="stroke fill markers" d=" M 0 0 L 228.68776345068557 0 L 228.68776345068557 228.68776345068557 L 0 228.68776345068557 L 0 0 Z" fill-opacity="0.5882352941176471"/></g><g transform="translate(6,0)"><g transform="translate(0,485.14865011515155)"><path fill="rgb(255,0,0)" stroke="none" paint-order="stroke fill markers" d=" M 0 0 L 236.03167142388668 0 L 236.03167142388668 236.03167142388668 L 0 236.03167142388668 L 0 0 Z" fill-opacity="0.5882352941176471"/></g><g transform="translate(6,0)"><g transform="translate(0,509.8172267479978)"><path fill="rgb(255,127,0)" stroke="none" paint-order="stroke fill markers" d=" M 0 0 L 260.70024805673296 0 L 260.70024805673296 260.70024805673296 L 0 260.70024805673296 L 0 0 Z" fill-opacity="0.5882352941176471"/></g><g transform="translate(6,0)"><g transform="translate(0,543.975494828179)"><path fill="rgb(255,255,0)" stroke="none" paint-order="stroke fill markers" d=" M 0 0 L 294.8585161369141 0 L 294.8585161369141 294.8585161369141 L 0 294.8585161369141 L 0 0 Z" fill-opacity="0.5882352941176471"/></g><g transform="translate(6,0)"><g transform="translate(0,569.0205425857478)"><path fill="rgb(0,255,0)" stroke="none" paint-order="stroke fill markers" d=" M 0 0 L 319.90356389448294 0 L 319.90356389448294 319.90356389448294 L 0 319.90356389448294 L 0 0 Z" fill-opacity="0.5882352941176471"/></g><g transform="translate(6,0)"><g transform="translate(0,569.8777453189053)"><path fill="rgb(0,0,255)" stroke="none" paint-order="stroke fill markers" d=" M 0 0 L 320.76076662764046 0 L 320.76076662764046 320.76076662764046 L 0 320.76076662764046 L 0 0 Z" fill-opacity="0.5882352941176471"/></g><g transform="translate(6,0)"><g transform="translate(0,559.4942695638392)"><path fill="rgb(75,0,130)" stroke="none" paint-order="stroke fill markers" d=" M 0 0 L 310.37729087257435 0 L 310.37729087257435 310.37729087257435 L 0 310.37729087257435 L 0 0 Z" fill-opacity="0.5882352941176471"/></g><g transform="translate(6,0)"><g transform="translate(0,573.1765333338477)"><path fill="rgb(148,0,211)" stroke="none" paint-order="stroke fill markers" d=" M 0 0 L 324.0595546425829 0 L 324.0595546425829 324.0595546425829 L 0 324.0595546425829 L 0 0 Z" fill-opacity="0.5882352941176471"/></g><g transform="translate(6,0)"><g transform="translate(0,579.7324897898791)"><path fill="rgb(255,0,0)" stroke="none" paint-order="stroke fill markers" d=" M 0 0 L 330.61551109861426 0 L 330.61551109861426 330.61551109861426 L 0 330.61551109861426 L 0 0 Z" fill-opacity="0.5882352941176471"/></g><g transform="translate(6,0)"><g transform="translate(0,574.770408109255)"><path fill="rgb(255,127,0)" stroke="none" paint-order="stroke fill markers" d=" M 0 0 L 325.6534294179901 0 L 325.6534294179901 325.6534294179901 L 0 325.6534294179901 L 0 0 Z" fill-opacity="0.5882352941176471"/></g><g transform="translate(6,0)"><g transform="translate(0,567.4218834039532)"><path fill="rgb(255,255,0)" stroke="none" paint-order="stroke fill markers" d=" M 0 0 L 318.30490471268837 0 L 318.30490471268837 318.30490471268837 L 0 318.30490471268837 L 0 0 Z" fill-opacity="0.5882352941176471"/></g><g transform="translate(6,0)"><g transform="translate(0,551.3791599424537)"><path fill="rgb(0,255,0)" stroke="none" paint-order="stroke fill markers" d=" M 0 0 L 302.26218125118885 0 L 302.26218125118885 302.26218125118885 L 0 302.26218125118885 L 0 0 Z" fill-opacity="0.5882352941176471"/></g><g transform="translate(6,0)"><g transform="translate(0,508.31142960493435)"><path fill="rgb(0,0,255)" stroke="none" paint-order="stroke fill markers" d=" M 0 0 L 259.19445091366947 0 L 259.19445091366947 259.19445091366947 L 0 259.19445091366947 L 0 0 Z" fill-opacity="0.5882352941176471"/></g><g transform="translate(6,0)"><g transform="translate(0,444.6923601184982)"><path fill="rgb(75,0,130)" stroke="none" paint-order="stroke fill markers" d=" M 0 0 L 195.57538142723337 0 L 195.57538142723337 195.57538142723337 L 0 195.57538142723337 L 0 0 Z" fill-opacity="0.5882352941176471"/></g><g transform="translate(6,0)"><g transform="translate(0,382.57294714748394)"><path fill="rgb(148,0,211)" stroke="none" paint-order="stroke fill markers" d=" M 0 0 L 133.4559684562191 0 L 133.4559684562191 133.4559684562191 L 0 133.4559684562191 L 0 0 Z" fill-opacity="0.5882352941176471"/></g><g transform="translate(6,0)"><g transform="translate(0,383.0362877894159)"><path fill="rgb(255,0,0)" stroke="none" paint-order="stroke fill markers" d=" M 0 0 L 133.91930909815105 0 L 133.91930909815105 133.91930909815105 L 0 133.91930909815105 L 0 0 Z" fill-opacity="0.5882352941176471"/></g><g transform="translate(6,0)"><g transform="translate(0,380.85155454693154)"><path fill="rgb(255,127,0)" stroke="none" paint-order="stroke fill markers" d=" M 0 0 L 131.73457585566666 0 L 131.73457585566666 131.73457585566666 L 0 131.73457585566666 L 0 0 Z" fill-opacity="0.5882352941176471"/></g><g transform="translate(6,0)"/></g></g></g></g></g></g></g></g></g></g></g></g></g></g></g></g></g></g></g></g></g></g></g></g></g></g></g></g></g></g></g></g></g></g></g></g></g></g></g></g></g></g></g></g></g></g></g></g></g></g></g></g></g></g></g></g></g></g></g></g></g></g></g></g></g></g></g></g></g></g></g></g></g></g></g></g></g></g></g></g></g></g></g></g></g></g></g></g></g></g></g></g></g></g></g></g></g></g></g></g></g></svg>