<svg version="1.1" xmlns="http://www.w3.org/2000/svg" xmlns:xlink="http://www.w3.org/1999/xlink" width="600" height="600" viewBox="0 0 600 600"><defs/><g transform="scale(1,1)"><g transform="scale(1,1)"><rect fill="rgb(0,0,0)" stroke="none" x="0" y="0" width="600" height="600" fill-opacity="1"/></g><g><g transform="translate(0,300) rotate(1.0394652796517552,0,0)"><path fill="rgb(255,0,0)" stroke="none" paint-order="stroke fill markers" d=" M 0 0 L 173.16595707776227 0 L 173.16595707776227 173.16595707776227 L 0 173.16595707776227 L 0 0 Z" fill-opacity="0.5882352941176471"/></g><g transform="translate(6,0)"><g transform="translate(0,274.8684441715455) rotate(1.0923074310954999,0,0)"><path fill="rgb(255,127,0)" stroke="none" paint-order="stroke fill markers" d=" M 0 0 L 164.78877180161075 0 L 164.78877180161075 164.78877180161075 L 0 164.78877180161075 L 0 0 Z" fill-opacity="0.5882352941176471"/></g><g transform="translate(6,0)"><g transform="translate(0,239.55531890418393) rotate(1.1763342714997547,0,0)"><path fill="rgb(255,255,0)" stroke="none" paint-order="stroke fill markers" d=" M 0 0 L 153.01773004582358 0 L 153.01773004582358 153.01773004582358 L 0 153.01773004582358 L 0 0 Z" fill-opacity="0.5882352941176471"/></g><g transform="translate(6,0)"><g transform="translate(0,214.14547068980914) rotate(1.2452629794919479,0,0)"><path fill="rgb(0,255,0)" stroke="none" paint-order="stroke fill markers" d=" M 0 0 L 144.54778064103198 0 L 144.54778064103198 144.54778064103198 L 0 144.54778064103198 L 0 0 Z" fill-opacity="0.5882352941176471"/></g><g transform="translate(6,0)"><g transform="translate(0,175.04991030158442) rotate(1.3686555222774033,0,0)"><path fill="rgb(0,0,255)" stroke="none" paint-order="stroke fill markers" d=" M 0 0 L 131.5159271782904 0 L 131.5159271782904 131.5159271782904 L 0 131.5159271782904 L 0 0 Z" fill-opacity="0.5882352941176471"/></g><g transform="translate(6,0)"><g transform="translate(0,150.44520286543235) rotate(1.4596840373767916,0,0)"><path fill="rgb(75,0,130)" stroke="none" paint-order="stroke fill markers" d=" M 0 0 L 123.31435803290638 0 L 123.31435803290638 123.31435803290638 L 0 123.31435803290638 L 0 0 Z" fill-opacity="0.5882352941176471"/></g><g transform="translate(6,0)"><g transform="translate(0,156.534968058203) rotate(1.4360447907088445,0,0)"><path fill="rgb(148,0,211)" stroke="none" paint-order="stroke fill markers" d=" M 0 0 L 125.34427976382993 0 L 125.34427976382993 125.34427976382993 L 0 125.34427976382993 L 0 0 Z" fill-opacity="0.5882352941176471"/></g><g transform="translate(6,0)"><g transform="translate(0,131.83708720780334) rotate(1.5369947880963408,0,0)"><path fill="rgb(255,0,0)" stroke="none" paint-order="stroke fill markers" d=" M 0 0 L 117.11165281369671 0 L 117.11165281369671 117.11165281369671 L 0 117.11165281369671 L 0 0 Z" fill-opacity="0.5882352941176471"/></g><g transform="translate(6,0)"><g transform="translate(0,93.80769721732759) rotate(1.7235569819919077,0,0)"><path fill="rgb(255,127,0)" stroke="none" paint-order="stroke fill markers" d=" M 0 0 L 104.43518948353812 0 L 104.43518948353812 104.43518948353812 L 0 104.43518948353812 L 0 0 Z" fill-opacity="0.5882352941176471"/></g><g transform="translate(6,0)"><g transform="translate(0,55.906989668678364) rotate(1.9607497058384231,0,0)"><path fill="rgb(255,255,0)" stroke="none" paint-order="stroke fill markers" d=" M 0 0 L 91.80162030065505 0 L 91.80162030065505 91.80162030065505 L 0 91.80162030065505 L 0 0 Z" fill-opacity="0.5882352941176471"/></g><g transform="translate(6,0)"><g transform="translate(0,61.187598229791035) rotate(1.9238616129041664,0,0)"><path fill="rgb(0,255,0)" stroke="none" paint-order="stroke fill markers" d=" M 0 0 L 93.56182315435927 0 L 93.56182315435927 93.56182315435927 L 0 93.56182315435927 L 0 0 Z" fill-opacity="0.5882352941176471"/></g><g transform="translate(6,0)"><g transform="translate(0,93.88624999625029) rotate(1.7231249556657624,0,0)"><path fill="rgb(0,0,255)" stroke="none" paint-order="stroke fill markers" d=" M 0 0 L 104.46137374317902 0 L 104.46137374317902 104.46137374317902 L 0 104.46137374317902 L 0 0 Z" fill-opacity="0.5882352941176471"/></g><g transform="translate(6,0)"><g transform="translate(0,104.55972238183534) rotate(1.6663704558682526,0,0)"><path fill="rgb(75,0,130)" stroke="none" paint-order="stroke fill markers" d=" M 0 0 L 108.01919787170738 0 L 108.01919787170738 108.01919787170738 L 0 108.01919787170738 L 0 0 Z" fill-opacity="0.5882352941176471"/></g><g transform="translate(6,0)"><g transform="translate(0,103.90469134280141) rotate(1.669745581786947,0,0)"><path fill="rgb(148,0,211)" stroke="none" paint-order="stroke fill markers" d=" M 0 0 L 107.8008541920294 0 L 107.8008541920294 107.8008541920294 L 0 107.8008541920294 L 0 0 Z" fill-opacity="0.5882352941176471"/></g><g transform="translate(6,0)"><g transform="translate(0,92.30525762149375) rotate(1.7318620309660206,0,0)"><path fill="rgb(255,0,0)" stroke="none" paint-order="stroke fill markers" d=" M 0 0 L 103.93437628492684 0 L 103.93437628492684 103.93437628492684 L 0 103.93437628492684 L 0 0 Z" fill-opacity="0.5882352941176471"/></g><g transform="translate(6,0)"><g transform="translate(0,63.00646028791215) rotate(1.9114751164779176,0,0)"><path fill="rgb(255,127,0)" stroke="none" paint-order="stroke fill markers" d=" M 0 0 L 94.16811050706632 0 L 94.16811050706632 94.16811050706632 L 0 94.16811050706632 L 0 0 Z" fill-opacity="0.5882352941176471"/></g><g transform="translate(6,0)"><g transform="translate(0,44.74733689042432) rotate(2.043556452108639,0,0)"><path fill="rgb(255,255,0)" stroke="none" paint-order="stroke fill markers" d=" M 0 0 L 88.08173604123704 0 L 88.08173604123704 88.08173604123704 L 0 88.08173604123704 L 0 0 Z" fill-opacity="0.5882352941176471"/></g><g transform="translate(6,0)"><g transform="translate(0,46.20875965224582) rotate(2.0323166124997236,0,0)"><path fill="rgb(0,255,0)" stroke="none" paint-order="stroke fill markers" d=" M 0 0 L 88.5688769618442 0 L 88.5688769618442 88.5688769618442 L 0 88.5688769618442 L 0 0 Z" fill-opacity="0.5882352941176471"/></g><g transform="translate(6,0)"><g transform="translate(0,25.916788989295867) rotate(2.2003575479567465,0,0)"><path fill="rgb(0,0,255)" stroke="none" paint-order="stroke fill markers" d=" M 0 0 L 81.80488674086088 0 L 81.80488674086088 81.80488674086088 L 0 81.80488674086088 L 0 0 Z" fill-opacity="0.5882352941176471"/></g><g transform="translate(6,0)"><g transform="translate(0,27.125015879493617) rotate(2.1895778057008086,0,0)"><path fill="rgb(75,0,130)" stroke="none" paint-order="stroke fill markers" d=" M 0 0 L 82.20762903759346 0 L 82.20762903759346 82.20762903759346 L 0 82.20762903759346 L 0 0 Z" fill-opacity="0.5882352941176471"/></g><g transform="translate(6,0)"><g transform="translate(0,32.86581667149605) rotate(2.139769015436732,0,0)"><path fill="rgb(148,0,211)" stroke="none" paint-order="stroke fill markers" d=" M 0 0 L 84.12122930159428 0 L 84.12122930159428 84.12122930159428 L 0 84.12122930159428 L 0 0 Z" fill-opacity="0.5882352941176471"/></g><g transform="translate(6,0)"><g transform="translate(0,70.50487293450743) rotate(1.8620513455816077,0,0)"><path fill="rgb(255,0,0)" stroke="none" paint-order="stroke fill markers" d=" M 0 0 L 96.66758138926474 0 L 96.66758138926474 96.66758138926474 L 0 96.66758138926474 L 0 0 Z" fill-opacity="0.5882352941176471"/></g><g transform="translate(6,0)"><g transform="translate(0,104.45937510867617) rotate(1.6668866219154934,0,0)"><path fill="rgb(255,127,0)" stroke="none" paint-order="stroke fill markers" d=" M 0 0 L 107.98574878065432 0 L 107.98574878065432 107.98574878065432 L 0 107.98574878065432 L 0 0 Z" fill-opacity="0.5882352941176471"/></g><g transform="translate(6,0)"><g transform="translate(0,130.16522869556354) rotate(1.5443436842774645,0,0)"><path fill="rgb(255,255,0)" stroke="none" paint-order="stroke fill markers" d=" M 0 0 L 116.55436664295011 0 L 116.55436664295011 116.55436664295011 L 0 116.55436664295011 L 0 0 Z" fill-opacity="0.5882352941176471"/></g><g transform="translate(6,0)"><g transform="translate(0,143.199469153449) rotate(1.4888446643259377,0,0)"><path fill="rgb(0,255,0)" stroke="none" paint-order="stroke fill markers" d=" M 0 0 L 120.89911346224527 0 L 120.89911346224527 120.89911346224527 L 0 120.89911346224527 L 0 0 Z" fill-opacity="0.5882352941176471"/></g><g transform="translate(6,0)"><g transform="translate(0,155.867744854546) rotate(1.4385974017227086,0,0)"><path fill="rgb(0,0,255)" stroke="none" paint-order="stroke fill markers" d=" M 0 0 L 125.1218720292776 0 L 125.1218720292776 125.1218720292776 L 0 125.1218720292776 L 0 0 Z" fill-opacity="0.5882352941176471"/></g><g transform="translate(6,0)"><g transform="translate(0,147.54546430503189) rotate(1.4712159238854372,0,0)"><path fill="rgb(75,0,130)" stroke="none" paint-order="stroke fill markers" d=" M 0 0 L 122.34777851277289 0 L 122.34777851277289 122.34777851277289 L 0 122.34777851277289 L 0 0 Z" fill-opacity="0.5882352941176471"/></g><g transform="translate(6,0)"><g transform="translate(0,136.9424652049807) rotate(1.5149800535931306,0,0)"><path fill="rgb(148,0,211)" stroke="none" paint-order="stroke fill markers" d=" M 0 0 L 118.8134454794225 0 L 118.8134454794225 118.8134454794225 L 0 118.8134454794225 L 0 0 Z" fill-opacity="0.5882352941176471"/></g><g transform="translate(6,0)"><g transform="translate(0,119.40632582828488) rotate(1.593370647758291,0,0)"><path fill="rgb(255,0,0)" stroke="none" paint-order="stroke fill markers" d=" M 0 0 L 112.96806568719056 0 L 112.96806568719056 112.96806568719056 L 0 112.96806568719056 L 0 0 Z" fill-opacity="0.5882352941176471"/></g><g transform="translate(6,0)"><g transform="translate(0,100.29285317550745) rotate(1.6886043239631563,0,0)"><path fill="rgb(255,127,0)" stroke="none" paint-order="stroke fill markers" d=" M 0 0 L 106.59690813626474 0 L 106.59690813626474 106.59690813626474 L 0 106.59690813626474 L 0 0 Z" fill-opacity="0.5882352941176471"/></g><g transform="translate(6,0)"><g transform="translate(0,69.4599281428342) rotate(1.8687849961686303,0,0)"><path fill="rgb(255,255,0)" stroke="none" paint-order="stroke fill markers" d=" M 0 0 L 96.31926645870699 0 L 96.31926645870699 96.31926645870699 L 0 96.31926645870699 L 0 0 Z" fill-opacity="0.5882352941176471"/></g><g transform="translate(6,0)"><g transform="translate(0,16.011231710128385) rotate(2.2929050013397725,0,0)"><path fill="rgb(0,255,0)" stroke="none" paint-order="stroke fill markers" d=" M 0 0 L 78.50303431447172 0 L 78.50303431447172 78.50303431447172 L 0 78.50303431447172 L 0 0 Z" fill-opacity="0.5882352941176471"/></g><g transform="translate(6,0)"><g transform="translate(0,2.761691238613537) rotate(2.4295917529679776,0,0)"><path fill="rgb(0,0,255)" stroke="none" paint-order="stroke fill markers" d=" M 0 0 L 74.08652082396678 0 L 74.08652082396678 74.08652082396678 L 0 74.08652082396678 L 0 0 Z" fill-opacity="0.5882352941176471"/></g><g transform="translate(6,0)"><g transform="translate(0,7.660938950114399) rotate(2.377191532056451,0,0)"><path fill="rgb(75,0,130)" stroke="none" paint-order="stroke fill markers" d=" M 0 0 L 75.71960339446706 0 L 75.71960339446706 75.71960339446706 L 0 75.71960339446706 L 0 0 Z" fill-opacity="0.5882352941176471"/></g><g transform="translate(6,0)"><g transform="translate(0,3.3929743074532723) rotate(2.4227105365854906,0,0)"><path fill="rgb(148,0,211)" stroke="none" paint-order="stroke fill markers" d=" M 0 0 L 74.29694851358002 0 L 74.29694851358002 74.29694851358002 L 0 74.29694851358002 L 0 0 Z" fill-opacity="0.5882352941176471"/></g><g transform="translate(6,0)"><g transform="translate(0,-37.13765754576164) rotate(2.9611722265542624,0,0)"><path fill="rgb(255,0,0)" stroke="none" paint-order="stroke fill markers" d=" M 0 0 L 60.78673789584172 0 L 60.78673789584172 60.78673789584172 L 0 60.78673789584172 L 0 0 Z" fill-opacity="0.5882352941176471"/></g><g transform="translate(6,0)"><g transform="translate(0,-81.45766383347404) rotate(3.911903713937281,0,0)"><path fill="rgb(255,127,0)" stroke="none" paint-order="stroke fill markers" d=" M 0 0 L 46.01340246660425 0 L 46.01340246660425 46.01340246660425 L 0 46.01340246660425 L 0 0 Z" fill-opacity="0.5882352941176471"/></g><g transform="translate(6,0)"><g transform="translate(0,-100.78809669685427) rotate(4.548909321989081,0,0)"><path fill="rgb(255,255,0)" stroke="none" paint-order="stroke fill markers" d=" M 0 0 L 39.56992484547751 0 L 39.56992484547751 39.56992484547751 L 0 39.56992484547751 L 0 0 Z" fill-opacity="0.5882352941176471"/></g><g transform="translate(6,0)"><g transform="translate(0,-106.96314601445724) rotate(4.798518847848451,0,0)"><path fill="rgb(0,255,0)" stroke="none" paint-order="stroke fill markers" d=" M 0 0 L 37.51157507294318 0 L 37.51157507294318 37.51157507294318 L 0 37.51157507294318 L 0 0 Z" fill-opacity="0.5882352941176471"/></g><g transform="translate(6,0)"><g transform="translate(0,-120.60796233649373) rotate(5.460617832741395,0,0)"><path fill="rgb(0,0,255)" stroke="none" paint-order="stroke fill markers" d=" M 0 0 L 32.963302965597684 0 L 32.963302965597684 32.963302965597684 L 0 32.963302965597684 L 0 0 Z" fill-opacity="0.5882352941176471"/></g><g transform="translate(6,0)"><g transform="translate(0,-107.2955614951638) rotate(4.81273515010827,0,0)"><path fill="rgb(75,0,130)" stroke="none" paint-order="stroke fill markers" d=" M 0 0 L 37.400769912707666 0 L 37.400769912707666 37.400769912707666 L 0 37.400769912707666 L 0 0 Z" fill-opacity="0.5882352941176471"/></g><g transform="translate(6,0)"><g transform="translate(0,-72.11290931382104) rotate(3.6638744751657053,0,0)"><path fill="rgb(148,0,211)" stroke="none" paint-order="stroke fill markers" d=" M 0 0 L 49.128320639821915 0 L 49.128320639821915 49.128320639821915 L 0 49.128320639821915 L 0 0 Z" fill-opacity="0.5882352941176471"/></g><g transform="translate(6,0)"><g transform="translate(0,-30.6104233465486) rotate(2.858845339070905,0,0)"><path fill="rgb(255,0,0)" stroke="none" paint-order="stroke fill markers" d=" M 0 0 L 62.96248262891273 0 L 62.96248262891273 62.96248262891273 L 0 62.96248262891273 L 0 0 Z" fill-opacity="0.5882352941176471"/></g><g transform="translate(6,0)"><g transform="translate(0,-14.924952787837015) rotate(2.6396455801846193,0,0)"><path fill="rgb(255,127,0)" stroke="none" paint-order="stroke fill markers" d=" M 0 0 L 68.19097281514992 0 L 68.19097281514992 68.19097281514992 L 0 68.19097281514992 L 0 0 Z" fill-opacity="0.5882352941176471"/></g><g transform="translate(6,0)"><g transform="translate(0,-0.22503698442261566) rotate(2.4626853656989076,0,0)"><path fill="rgb(255,255,0)" stroke="none" paint-order="stroke fill markers" d=" M 0 0 L 73.09094474962139 0 L 73.09094474962139 73.09094474962139 L 0 73.09094474962139 L 0 0 Z" fill-opacity="0.5882352941176471"/></g><g transform="translate(6,0)"><g transform="translate(0,14.679790692260411) rotate(2.3059415469426106,0,0)"><path fill="rgb(0,255,0)" stroke="none" paint-order="stroke fill markers" d=" M 0 0 L 78.05922064184907 0 L 78.05922064184907 78.05922064184907 L 0 78.05922064184907 L 0 0 Z" fill-opacity="0.5882352941176471"/></g><g transform="translate(6,0)"><g transform="translate(0,33.64493514095847) rotate(2.1331832720605393,0,0)"><path fill="rgb(0,0,255)" stroke="none" paint-order="stroke fill markers" d=" M 0 0 L 84.38093545808175 0 L 84.38093545808175 84.38093545808175 L 0 84.38093545808175 L 0 0 Z" fill-opacity="0.5882352941176471"/></g><g transform="translate(6,0)"><g transform="translate(0,46.19279223758991) rotate(2.032438750182847,0,0)"><path fill="rgb(75,0,130)" stroke="none" paint-order="stroke fill markers" d=" M 0 0 L 88.56355449029223 0 L 88.56355449029223 88.56355449029223 L 0 88.56355449029223 L 0 0 Z" fill-opacity="0.5882352941176471"/></g><g transform="translate(6,0)"><g transform="translate(0,55.70464228755003) rotate(1.9621913807815357,0,0)"><path fill="rgb(148,0,211)" stroke="none" paint-order="stroke fill markers" d=" M 0 0 L 91.73417117361227 0 L 91.73417117361227 91.73417117361227 L 0 91.73417117361227 L 0 0 Z" fill-opacity="0.5882352941176471"/></g><g transform="translate(6,0)"><g transform="translate(0,70.65097464098568) rotate(1.8611137272418905,0,0)"><path fill="rgb(255,0,0)" stroke="none" paint-order="stroke fill markers" d=" M 0 0 L 96.71628195809082 0 L 96.71628195809082 96.71628195809082 L 0 96.71628195809082 L 0 0 Z" fill-opacity="0.5882352941176471"/></g><g transform="translate(6,0)"><g transform="translate(0,77.50444837438977) rotate(1.8181676180620738,0,0)"><path fill="rgb(255,127,0)" stroke="none" paint-order="stroke fill markers" d=" M 0 0 L 99.00077320255885 0 L 99.00077320255885 99.00077320255885 L 0 99.00077320255885 L 0 0 Z" fill-opacity="0.5882352941176471"/></g><g transform="translate(6,0)"><g transform="translate(0,66.48734017604329) rotate(1.888209524327812,0,0)"><path fill="rgb(255,255,0)" stroke="none" paint-order="stroke fill markers" d=" M 0 0 L 95.32840380311002 0 L 95.32840380311002 95.32840380311002 L 0 95.32840380311002 L 0 0 Z" fill-opacity="0.5882352941176471"/></g><g transform="translate(6,0)"><g transform="translate(0,57.797248364787265) rotate(1.9473837144436732,0,0)"><path fill="rgb(0,255,0)" stroke="none" paint-order="stroke fill markers" d=" M 0 0 L 92.43170653269135 0 L 92.43170653269135 92.43170653269135 L 0 92.43170653269135 L 0 0 Z" fill-opacity="0.5882352941176471"/></g><g transform="translate(6,0)"><g transform="translate(0,59.98702570568918) rotate(1.9321258712520204,0,0)"><path fill="rgb(0,0,255)" stroke="none" paint-order="stroke fill markers" d=" M 0 0 L 93.16163231299198 0 L 93.16163231299198 93.16163231299198 L 0 93.16163231299198 L 0 0 Z" fill-opacity="0.5882352941176471"/></g><g transform="translate(6,0)"><g transform="translate(0,62.246237408186175) rotate(1.9166328006068964,0,0)"><path fill="rgb(75,0,130)" stroke="none" paint-order="stroke fill markers" d=" M 0 0 L 93.91470288049099 0 L 93.91470288049099 93.91470288049099 L 0 93.91470288049099 L 0 0 Z" fill-opacity="0.5882352941176471"/></g><g transform="translate(6,0)"><g transform="translate(0,64.71653719180568) rotate(1.8999740477348894,0,0)"><path fill="rgb(148,0,211)" stroke="none" paint-order="stroke fill markers" d=" M 0 0 L 94.7381361416975 0 L 94.7381361416975 94.7381361416975 L 0 94.7381361416975 L 0 0 Z" fill-opacity="0.5882352941176471"/></g><g transform="translate(6,0)"><g transform="translate(0,77.14943479991985) rotate(1.8203435157424033,0,0)"><path fill="rgb(255,0,0)" stroke="none" paint-order="stroke fill markers" d=" M 0 0 L 98.88243534440221 0 L 98.88243534440221 98.88243534440221 L 0 98.88243534440221 L 0 0 Z" fill-opacity="0.5882352941176471"/></g><g transform="translate(6,0)"><g transform="translate(0,69.00558315573193) rotate(1.8717280219177646,0,0)"><path fill="rgb(255,127,0)" stroke="none" paint-order="stroke fill markers" d=" M 0 0 L 96.16781812967291 0 L 96.16781812967291 96.16781812967291 L 0 96.16781812967291 L 0 0 Z" fill-opacity="0.5882352941176471"/></g><g transform="translate(6,0)"><g transform="translate(0,69.620713126809) rotate(1.8677457251500396,0,0)"><path fill="rgb(255,255,0)" stroke="none" paint-order="stroke fill markers" d=" M 0 0 L 96.37286145336526 0 L 96.37286145336526 96.37286145336526 L 0 96.37286145336526 L 0 0 Z" fill-opacity="0.5882352941176471"/></g><g transform="translate(6,0)"><g transform="translate(0,63.214461802576636) rotate(1.9100687762761956,0,0)"><path fill="rgb(0,255,0)" stroke="none" paint-order="stroke fill markers" d=" M 0 0 L 94.23744434528781 0 L 94.23744434528781 94.23744434528781 L 0 94.23744434528781 L 0 0 Z" fill-opacity="0.5882352941176471"/></g><g transform="translate(6,0)"><g transform="translate(0,42.74891817222266) rotate(2.0591291173635824,0,0)"><path fill="rgb(0,0,255)" stroke="none" paint-order="stroke fill markers" d=" M 0 0 L 87.41559646850315 0 L 87.41559646850315 87.41559646850315 L 0 87.41559646850315 L 0 0 Z" fill-opacity="0.5882352941176471"/></g><g transform="translate(6,0)"><g transform="translate(0,6.892500032159859) rotate(2.385260455122628,0,0)"><path fill="rgb(75,0,130)" stroke="none" paint-order="stroke fill markers" d=" M 0 0 L 75.46345708848222 0 L 75.46345708848222 75.46345708848222 L 0 75.46345708848222 L 0 0 Z" fill-opacity="0.5882352941176471"/></g><g transform="translate(6,0)"><g transform="translate(0,-1.2831081603506789) rotate(2.4746263378134064,0,0)"><path fill="rgb(148,0,211)" stroke="none" paint-order="stroke fill markers" d=" M 0 0 L 72.73825435764537 0 L 72.73825435764537 72.73825435764537 L 0 72.73825435764537 L 0 0 Z" fill-opacity="0.5882352941176471"/></g><g transform="translate(6,0)"><g transform="translate(0,-0.25102134590997593) rotate(2.462977234461468,0,0)"><path fill="rgb(255,0,0)" stroke="none" paint-order="stroke fill markers" d=" M 0 0 L 73.08228329579227 0 L 73.08228329579227 73.08228329579227 L 0 73.08228329579227 L 0 0 Z" fill-opacity="0.5882352941176471"/></g><g transform="translate(6,0)"><g transform="translate(0,10.398673496095086) rotate(2.3488826273385284,0,0)"><path fill="rgb(255,127,0)" stroke="none" paint-order="stroke fill markers" d=" M 0 0 L 76.63218157646062 0 L 76.63218157646062 76.63218157646062 L 0 76.63218157646062 L 0 0 Z" fill-opacity="0.5882352941176471"/></g><g transform="translate(6,0)"><g transform="translate(0,46.555019222713895) rotate(2.029671615574138,0,0)"><path fill="rgb(255,255,0)" stroke="none" paint-order="stroke fill markers" d=" M 0 0 L 88.6842968186669 0 L 88.6842968186669 88.6842968186669 L 0 88.6842968186669 L 0 0 Z" fill-opacity="0.5882352941176471"/></g><g transform="translate(6,0)"><g transform="translate(0,73.04718383084355) rotate(1.8458695187366054,0,0)"><path fill="rgb(0,255,0)" stroke="none" paint-order="stroke fill markers" d=" M 0 0 L 97.51501835471011 0 L 97.51501835471011 97.51501835471011 L 0 97.51501835471011 L 0 0 Z" fill-opacity="0.5882352941176471"/></g><g transform="translate(6,0)"><g transform="translate(0,93.8069550707778) rotate(1.7235610646990995,0,0)"><path fill="rgb(0,0,255)" stroke="none" paint-order="stroke fill markers" d=" M 0 0 L 104.43494210135486 0 L 104.43494210135486 104.43494210135486 L 0 104.43494210135486 L 0 0 Z" fill-opacity="0.5882352941176471"/></g><g transform="translate(6,0)"><g transform="translate(0,108.83074266272985) rotate(1.6446936914582193,0,0)"><path fill="rgb(75,0,130)" stroke="none" paint-order="stroke fill markers" d=" M 0 0 L 109.44287129867222 0 L 109.44287129867222 109.44287129867222 L 0 109.44287129867222 L 0 0 Z" fill-opacity="0.5882352941176471"/></g><g transform="translate(6,0)"><g transform="translate(0,99.56148218062418) rotate(1.6924750652881377,0,0)"><path fill="rgb(148,0,211)" stroke="none" paint-order="stroke fill markers" d=" M 0 0 L 106.353117804637 0 L 106.353117804637 106.353117804637 L 0 106.353117804637 L 0 0 Z" fill-opacity="0.5882352941176471"/></g><g transform="translate(6,0)"><g transform="translate(0,54.83273667925056) rotate(1.968427818204536,0,0)"><path fill="rgb(255,0,0)" stroke="none" paint-order="stroke fill markers" d=" M 0 0 L 91.44353597084579 0 L 91.44353597084579 91.44353597084579 L 0 91.44353597084579 L 0 0 Z" fill-opacity="0.5882352941176471"/></g><g transform="translate(6,0)"><g transform="translate(0,8.559183908176976) rotate(2.367828522845031,0,0)"><path fill="rgb(255,127,0)" stroke="none" paint-order="stroke fill markers" d=" M 0 0 L 76.01901838048792 0 L 76.01901838048792 76.01901838048792 L 0 76.01901838048792 L 0 0 Z" fill-opacity="0.5882352941176471"/></g><g transform="translate(6,0)"><g transform="translate(0,-21.491233339429243) rotate(2.7271812992929547,0,0)"><path fill="rgb(255,255,0)" stroke="none" paint-order="stroke fill markers" d=" M 0 0 L 66.00221263128584 0 L 66.00221263128584 66.00221263128584 L 0 66.00221263128584 L 0 0 Z" fill-opacity="0.5882352941176471"/></g><g transform="translate(6,0)"><g transform="translate(0,-29.988159992332726) rotate(2.8494581964372867,0,0)"><path fill="rgb(0,255,0)" stroke="none" paint-order="stroke fill markers" d=" M 0 0 L 63.16990374698469 0 L 63.16990374698469 63.16990374698469 L 0 63.16990374698469 L 0 0 Z" fill-opacity="0.5882352941176471"/></g><g transform="translate(6,0)"><g transform="translate(0,-38.69128472981015) rotate(2.986616861933935,0,0)"><path fill="rgb(0,0,255)" stroke="none" paint-order="stroke fill markers" d=" M 0 0 L 60.268862167825546 0 L 60.268862167825546 60.268862167825546 L 0 60.268862167825546 L 0 0 Z" fill-opacity="0.5882352941176471"/></g><g transform="translate(6,0)"><g transform="translate(0,-38.36324848194582) rotate(2.981208074953756,0,0)"><path fill="rgb(75,0,130)" stroke="none" paint-order="stroke fill markers" d=" M 0 0 L 60.37820758378032 0 L 60.37820758378032 60.37820758378032 L 0 60.37820758378032 L 0 0 Z" fill-opacity="0.5882352941176471"/></g><g transform="translate(6,0)"><g transform="translate(0,-37.039321844552035) rotate(2.959576308203075,0,0)"><path fill="rgb(148,0,211)" stroke="none" paint-order="stroke fill markers" d=" M 0 0 L 60.81951646291159 0 L 60.81951646291159 60.81951646291159 L 0 60.81951646291159 L 0 0 Z" fill-opacity="0.5882352941176471"/></g><g transform="translate(6,0)"><g transform="translate(0,-57.05385471452706) rotate(3.3242221632560933,0,0)"><path fill="rgb(255,0,0)" stroke="none" paint-order="stroke fill markers" d=" M 0 0 L 54.14800550625324 0 L 54.14800550625324 54.14800550625324 L 0 54.14800550625324 L 0 0 Z" fill-opacity="0.5882352941176471"/></g><g transform="translate(6,0)"><g transform="translate(0,-99.36725499847668) rotate(4.495107216835576,0,0)"><path fill="rgb(255,127,0)" stroke="none" paint-order="stroke fill markers" d=" M 0 0 L 40.043538744936704 0 L 40.043538744936704 40.043538744936704 L 0 40.043538744936704 L 0 0 Z" fill-opacity="0.5882352941176471"/></g><g transform="translate(6,0)"><g transform="translate(0,-93.80871292405968) rotate(4.296313280032184,0,0)"><path fill="rgb(255,255,0)" stroke="none" paint-order="stroke fill markers" d=" M 0 0 L 41.896386103075706 0 L 41.896386103075706 41.896386103075706 L 0 41.896386103075706 L 0 0 Z" fill-opacity="0.5882352941176471"/></g><g transform="translate(6,0)"><g transform="translate(0,-73.75844135768085) rotate(3.7052429837341223,0,0)"><path fill="rgb(0,255,0)" stroke="none" paint-order="stroke fill markers" d=" M 0 0 L 48.579809958535314 0 L 48.579809958535314 48.579809958535314 L 0 48.579809958535314 L 0 0 Z" fill-opacity="0.5882352941176471"/></g><g transform="translate(6,0)"><g transform="translate(0,-67.59150123277439) rotate(3.554821302083504,0,0)"><path fill="rgb(0,0,255)" stroke="none" paint-order="stroke fill markers" d=" M 0 0 L 50.63545666683746 0 L 50.63545666683746 50.63545666683746 L 0 50.63545666683746 L 0 0 Z" fill-opacity="0.5882352941176471"/></g><g transform="translate(6,0)"><g transform="translate(0,-53.89569441556384) rotate(3.260826701537709,0,0)"><path fill="rgb(75,0,130)" stroke="none" paint-order="stroke fill markers" d=" M 0 0 L 55.20072560590765 0 L 55.20072560590765 55.20072560590765 L 0 55.20072560590765 L 0 0 Z" fill-opacity="0.5882352941176471"/></g><g transform="translate(6,0)"><g transform="translate(0,-34.82642912309424) rotate(2.92411210867019,0,0)"><path fill="rgb(148,0,211)" stroke="none" paint-order="stroke fill markers" d=" M 0 0 L 61.55714737006418 0 L 61.55714737006418 61.55714737006418 L 0 61.55714737006418 L 0 0 Z" fill-opacity="0.5882352941176471"/></g><g transform="translate(6,0)"><g transform="translate(0,-25.776665873890522) rotate(2.7875110471162867,0,0)"><path fill="rgb(255,0,0)" stroke="none" paint-order="stroke fill markers" d=" M 0 0 L 64.57373511979876 0 L 64.57373511979876 64.57373511979876 L 0 64.57373511979876 L 0 0 Z" fill-opacity="0.5882352941176471"/></g><g transform="translate(6,0)"><g transform="translate(0,-14.440003619299546) rotate(2.6334029817208826,0,0)"><path fill="rgb(255,127,0)" stroke="none" paint-order="stroke fill markers" d=" M 0 0 L 68.35262253799574 0 L 68.35262253799574 68.35262253799574 L 0 68.35262253799574 L 0 0 Z" fill-opacity="0.5882352941176471"/></g><g transform="translate(6,0)"><g transform="translate(0,-8.208901043325795) rotate(2.55574154918976,0,0)"><path fill="rgb(255,255,0)" stroke="none" paint-order="stroke fill markers" d=" M 0 0 L 70.429656729987 0 L 70.429656729987 70.429656729987 L 0 70.429656729987 L 0 0 Z" fill-opacity="0.5882352941176471"/></g><g transform="translate(6,0)"><g transform="translate(0,-27.393021314564834) rotate(2.8109649507988466,0,0)"><path fill="rgb(0,255,0)" stroke="none" paint-order="stroke fill markers" d=" M 0 0 L 64.03494997290731 0 L 64.03494997290731 64.03494997290731 L 0 64.03494997290731 L 0 0 Z" fill-opacity="0.5882352941176471"/></g><g transform="translate(6,0)"><g transform="translate(0,-31.633285853543697) rotate(2.8744108364461685,0,0)"><path fill="rgb(0,0,255)" stroke="none" paint-order="stroke fill markers" d=" M 0 0 L 62.621528459914366 0 L 62.621528459914366 62.621528459914366 L 0 62.621528459914366 L 0 0 Z" fill-opacity="0.5882352941176471"/></g><g transform="translate(6,0)"><g transform="translate(0,-38.87664864929155) rotate(2.989681900469259,0,0)"><path fill="rgb(75,0,130)" stroke="none" paint-order="stroke fill markers" d=" M 0 0 L 60.207074194665076 0 L 60.207074194665076 60.207074194665076 L 0 60.207074194665076 L 0 0 Z" fill-opacity="0.5882352941176471"/></g><g transform="translate(6,0)"><g transform="translate(0,-66.64981069837987) rotate(3.5329201961098917,0,0)"><path fill="rgb(148,0,211)" stroke="none" paint-order="stroke fill markers" d=" M 0 0 L 50.94935351163564 0 L 50.94935351163564 50.94935351163564 L 0 50.94935351163564 L 0 0 Z" fill-opacity="0.5882352941176471"/></g><g transform="translate(6,0)"><g transform="translate(0,-79.91033786890361) rotate(3.8685403129115334,0,0)"><path fill="rgb(255,0,0)" stroke="none" paint-order="stroke fill markers" d=" M 0 0 L 46.529177788127726 0 L 46.529177788127726 46.529177788127726 L 0 46.529177788127726 L 0 0 Z" fill-opacity="0.5882352941176471"/></g><g transform="translate(6,0)"><g transform="translate(0,-69.94053718242381) rotate(3.6106554280805203,0,0)"><path fill="rgb(255,127,0)" stroke="none" paint-order="stroke fill markers" d=" M 0 0 L 49.852444683620995 0 L 49.852444683620995 49.852444683620995 L 0 49.852444683620995 L 0 0 Z" fill-opacity="0.5882352941176471"/></g><g transform="translate(6,0)"><g transform="translate(0,-63.91955589602219) rotate(3.4709207310117822,0,0)"><path fill="rgb(255,255,0)" stroke="none" paint-order="stroke fill markers" d=" M 0 0 L 51.85943844575487 0 L 51.85943844575487 51.85943844575487 L 0 51.85943844575487 L 0 0 Z" fill-opacity="0.5882352941176471"/></g><g transform="translate(6,0)"><g transform="translate(0,-68.53661928000665) rotate(3.577076852589435,0,0)"><path fill="rgb(0,255,0)" stroke="none" paint-order="stroke fill markers" d=" M 0 0 L 50.32041731776005 0 L 50.32041731776005 50.32041731776005 L 0 50.32041731776005 L 0 0 Z" fill-opacity="0.5882352941176471"/></g><g transform="translate(6,0)"><g transform="translate(0,-91.76432375586322) rotate(4.227550323813272,0,0)"><path fill="rgb(0,0,255)" stroke="none" paint-order="stroke fill markers" d=" M 0 0 L 42.57784915914119 0 L 42.57784915914119 42.57784915914119 L 0 42.57784915914119 L 0 0 Z" fill-opacity="0.5882352941176471"/></g><g transform="translate(6,0)"><g transform="translate(0,-98.13395309949618) rotate(4.44942787200318,0,0)"><path fill="rgb(75,0,130)" stroke="none" paint-order="stroke fill markers" d=" M 0 0 L 40.4546393779302 0 L 40.4546393779302 40.4546393779302 L 0 40.4546393779302 L 0 0 Z" fill-opacity="0.5882352941176471"/></g><g transform="translate(6,0)"><g transform="translate(0,-97.89762476698172) rotate(4.440780472839188,0,0)"><path fill="rgb(148,0,211)" stroke="none" paint-order="stroke fill markers" d=" M 0 0 L 40.533415488768355 0 L 40.533415488768355 40.533415488768355 L 0 40.533415488768355 L 0 0 Z" fill-opacity="0.5882352941176471"/></g><g transform="translate(6,0)"><g transform="translate(0,-76.8014387489072) rotate(3.7842571856805995,0,0)"><path fill="rgb(255,0,0)" stroke="none" paint-order="stroke fill markers" d=" M 0 0 L 47.56547749479319 0 L 47.56547749479319 47.56547749479319 L 0 47.56547749479319 L 0 0 Z" fill-opacity="0.5882352941176471"/></g><g transform="translate(6,0)"><g transform="translate(0,-72.77327764551185) rotate(3.6803645987061895,0,0)"><path fill="rgb(255,127,0)" stroke="none" paint-order="stroke fill markers" d=" M 0 0 L 48.90819786259164 0 L 48.90819786259164 48.90819786259164 L 0 48.90819786259164 L 0 0 Z" fill-opacity="0.5882352941176471"/></g><g transform="translate(6,0)"/></g></g></g></g></g></g></g></g></g></g></g></g></g></g></g></g></g></g></g></g></g></g></g></g></g></g></g></g></g></g></g></g></g></g></g></g></g></g></g></g></g></g></g></g></g></g></g></g></g></g></g></g></g></g></g></g></g></g></g></g></g></g></g></g></g></g></g></g></g></g></g></g></g></g></g></g></g></g></g></g></g></g></g></g></g></g></g></g></g></g></g></g></g></g></g></g></g></g></g></g></g></svg>