<svg version="1.1" xmlns="http://www.w3.org/2000/svg" xmlns:xlink="http://www.w3.org/1999/xlink" width="600" height="600" viewBox="0 0 600 600"><defs/><g transform="scale(1,1)"><g transform="scale(1,1)"><rect fill="rgb(0,0,0)" stroke="none" x="0" y="0" width="600" height="600" fill-opacity="1"/></g><g transform="translate(0,200)"><g transform="translate(0,95.42047486388091)"/><g transform="translate(0.6,0)"><g transform="translate(0,210.5525293462676)"/><g transform="translate(0.6,0)"><g transform="translate(0,220.21231456419366)"/><g transform="translate(0.6,0)"><g transform="translate(0,127.95053522286551)"/><g transform="translate(0.6,0)"><g transform="translate(0,189.30567349693615)"/><g transform="translate(0.6,0)"><g transform="translate(0,147.89487363055468)"/><g transform="translate(0.6,0)"><g transform="translate(0,105.41652909371277)"/><g transform="translate(0.6,0)"><g transform="translate(0,149.2937735378848)"/><g transform="translate(0.6,0)"><g transform="translate(0,244.5822401014571)"/><g transform="translate(0.6,0)"><g transform="translate(0,192.47610807113247)"/><g transform="translate(0.6,0)"><g transform="translate(0,235.80881643514272)"/><g transform="translate(0.6,0)"><g transform="translate(0,127.98271418606659)"/><g transform="translate(0.6,0)"><g transform="translate(0,214.97976151541175)"/><g transform="translate(0.6,0)"><g transform="translate(0,195.46575388591083)"/><g transform="translate(0.6,0)"><g transform="translate(0,107.82224022903047)"/><g transform="translate(0.6,0)"><g transform="translate(0,54.935897918743564)"/><g transform="translate(0.6,0)"><g transform="translate(0,219.56128495063925)"/><g transform="translate(0.6,0)"><g transform="translate(0,130.7878722941103)"/><g transform="translate(0.6,0)"><g transform="translate(0,125.27975814333672)"/><g transform="translate(0.6,0)"><g transform="translate(0,74.5967732061766)"/><g transform="translate(0.6,0)"><g transform="translate(0,231.2653584678946)"/><g transform="translate(0.6,0)"><g transform="translate(0,217.12659742198719)"/><g transform="translate(0.6,0)"><g transform="translate(0,240.85853001133708)"/><g transform="translate(0.6,0)"><g transform="translate(0,95.19366674619468)"/><g transform="translate(0.6,0)"><g transform="translate(0,213.75758043385252)"/><g transform="translate(0.6,0)"><g transform="translate(0,180.04635432535957)"/><g transform="translate(0.6,0)"><g transform="translate(0,186.57906266319293)"/><g transform="translate(0.6,0)"><g transform="translate(0,117.40304212639921)"/><g transform="translate(0.6,0)"><g transform="translate(0,192.3967836513382)"/><g transform="translate(0.6,0)"><g transform="translate(0,91.56976635027527)"/><g transform="translate(0.6,0)"><g transform="translate(0,54.37811271691862)"/><g transform="translate(0.6,0)"><g transform="translate(0,177.13568069536421)"/><g transform="translate(0.6,0)"><g transform="translate(0,205.02287844440463)"/><g transform="translate(0.6,0)"><g transform="translate(0,189.07301259252148)"/><g transform="translate(0.6,0)"><g transform="translate(0,158.35888767904373)"/><g transform="translate(0.6,0)"><g transform="translate(0,115.82218435710865)"/><g transform="translate(0.6,0)"><g transform="translate(0,252.81203879146094)"/><g transform="translate(0.6,0)"><g transform="translate(0,123.67555936574843)"/><g transform="translate(0.6,0)"><g transform="translate(0,161.85686243110797)"/><g transform="translate(0.6,0)"><g transform="translate(0,96.56185170873896)"/><g transform="translate(0.6,0)"><g transform="translate(0,203.06899679189704)"/><g transform="translate(0.6,0)"><g transform="translate(0,171.96028820574352)"/><g transform="translate(0.6,0)"><g transform="translate(0,210.61692728545574)"/><g transform="translate(0.6,0)"><g transform="translate(0,224.11467740392462)"/><g transform="translate(0.6,0)"><g transform="translate(0,200.89657061477777)"/><g transform="translate(0.6,0)"><g transform="translate(0,194.38082149474616)"/><g transform="translate(0.6,0)"><g transform="translate(0,177.2939111840069)"/><g transform="translate(0.6,0)"><g transform="translate(0,116.14065235540153)"/><g transform="translate(0.6,0)"><g transform="translate(0,195.03674934271302)"/><g transform="translate(0.6,0)"><g transform="translate(0,76.25334047248968)"/><g transform="translate(0.6,0)"><g transform="translate(0,153.31240635278135)"/><g transform="translate(0.6,0)"><g transform="translate(0,93.12283180536502)"/><g transform="translate(0.6,0)"><g transform="translate(0,190.43269716174123)"/><g transform="translate(0.6,0)"><g transform="translate(0,152.66654667249256)"/><g transform="translate(0.6,0)"><g transform="translate(0,100.55374027930681)"/><g transform="translate(0.6,0)"><g transform="translate(0,67.49365733391677)"/><g transform="translate(0.6,0)"><g transform="translate(0,161.07013071315632)"/><g transform="translate(0.6,0)"><g transform="translate(0,109.99771105443378)"/><g transform="translate(0.6,0)"><g transform="translate(0,138.67103965934726)"/><g transform="translate(0.6,0)"><g transform="translate(0,80.46444325070551)"/><g transform="translate(0.6,0)"><g transform="translate(0,122.01380341068443)"/><g transform="translate(0.6,0)"><g transform="translate(0,87.2639510789472)"/><g transform="translate(0.6,0)"><g transform="translate(0,122.4899993263923)"/><g transform="translate(0.6,0)"><g transform="translate(0,152.56535849119797)"/><g transform="translate(0.6,0)"><g transform="translate(0,137.34863724412844)"/><g transform="translate(0.6,0)"><g transform="translate(0,213.39747772611383)"/><g transform="translate(0.6,0)"><g transform="translate(0,174.34006208161287)"/><g transform="translate(0.6,0)"><g transform="translate(0,159.1632644219242)"/><g transform="translate(0.6,0)"><g transform="translate(0,77.26298998882055)"/><g transform="translate(0.6,0)"><g transform="translate(0,100.15928957133045)"/><g transform="translate(0.6,0)"><g transform="translate(0,137.06912692641825)"/><g transform="translate(0.6,0)"><g transform="translate(0,149.26410988782285)"/><g transform="translate(0.6,0)"><g transform="translate(0,226.78274265119651)"/><g transform="translate(0.6,0)"><g transform="translate(0,100.59190389751276)"/><g transform="translate(0.6,0)"><g transform="translate(0,48.471982058627816)"/><g transform="translate(0.6,0)"><g transform="translate(0,197.70855697532912)"/><g transform="translate(0.6,0)"><g transform="translate(0,122.02851205683797)"/><g transform="translate(0.6,0)"><g transform="translate(0,36.45531982493421)"/><g transform="translate(0.6,0)"><g transform="translate(0,112.83653298924608)"/><g transform="translate(0.6,0)"><g transform="translate(0,89.85635896827188)"/><g transform="translate(0.6,0)"><g transform="translate(0,213.74930688874636)"/><g transform="translate(0.6,0)"><g transform="translate(0,221.69256932418062)"/><g transform="translate(0.6,0)"><g transform="translate(0,224.40084673790076)"/><g transform="translate(0.6,0)"><g transform="translate(0,129.44851473099808)"/><g transform="translate(0.6,0)"><g transform="translate(0,164.46985351871416)"/><g transform="translate(0.6,0)"><g transform="translate(0,218.7914359571578)"/><g transform="translate(0.6,0)"><g transform="translate(0,187.79040201847)"/><g transform="translate(0.6,0)"><g transform="translate(0,133.07270136846574)"/><g transform="translate(0.6,0)"><g transform="translate(0,202.29961067827185)"/><g transform="translate(0.6,0)"><g transform="translate(0,192.58066591692585)"/><g transform="translate(0.6,0)"><g transform="translate(0,131.73066865145893)"/><g transform="translate(0.6,0)"><g transform="translate(0,151.22558521930566)"/><g transform="translate(0.6,0)"><g transform="translate(0,173.17576625731874)"/><g transform="translate(0.6,0)"><g transform="translate(0,77.10668524941418)"/><g transform="translate(0.6,0)"><g transform="translate(0,191.35928039156238)"/><g transform="translate(0.6,0)"><g transform="translate(0,116.15395339300615)"/><g transform="translate(0.6,0)"><g transform="translate(0,140.36500228662496)"/><g transform="translate(0.6,0)"><g transform="translate(0,108.185430380416)"/><g transform="translate(0.6,0)"><g transform="translate(0,120.12906298469208)"/><g transform="translate(0.6,0)"><g transform="translate(0,96.19676968454294)"/><g transform="translate(0.6,0)"><g transform="translate(0,200.2049049663577)"/><g transform="translate(0.6,0)"><g transform="translate(0,102.72362388552548)"/><g transform="translate(0.6,0)"><g transform="translate(0,46.41218376996443)"/><g transform="translate(0.6,0)"><g transform="translate(0,199.1544513001725)"/><g transform="translate(0.6,0)"><g transform="translate(0,202.23915995797577)"/><g transform="translate(0.6,0)"><g transform="translate(0,38.41631427705427)"/><g transform="translate(0.6,0)"><g transform="translate(0,115.08994159162475)"/><g transform="translate(0.6,0)"><g transform="translate(0,107.24373673864464)"/><g transform="translate(0.6,0)"><g transform="translate(0,158.19513977923418)"/><g transform="translate(0.6,0)"><g transform="translate(0,204.79777413733177)"/><g transform="translate(0.6,0)"><g transform="translate(0,88.34405261701565)"/><g transform="translate(0.6,0)"><g transform="translate(0,160.7972507955717)"/><g transform="translate(0.6,0)"><g transform="translate(0,189.12584620139154)"/><g transform="translate(0.6,0)"><g transform="translate(0,79.78401785757237)"/><g transform="translate(0.6,0)"><g transform="translate(0,200.08628845704533)"/><g transform="translate(0.6,0)"><g transform="translate(0,168.87886432586976)"/><g transform="translate(0.6,0)"><g transform="translate(0,50.944409466180204)"/><g transform="translate(0.6,0)"><g transform="translate(0,242.81400569883576)"/><g transform="translate(0.6,0)"><g transform="translate(0,169.19390905674487)"/><g transform="translate(0.6,0)"><g transform="translate(0,123.41699928548799)"/><g transform="translate(0.6,0)"><g transform="translate(0,103.78599688992405)"/><g transform="translate(0.6,0)"><g transform="translate(0,171.51619361987673)"/><g transform="translate(0.6,0)"><g transform="translate(0,64.16050512402639)"/><g transform="translate(0.6,0)"><g transform="translate(0,106.74650907423579)"/><g transform="translate(0.6,0)"><g transform="translate(0,240.6232631197434)"/><g transform="translate(0.6,0)"><g transform="translate(0,129.23401034527657)"/><g transform="translate(0.6,0)"><g transform="translate(0,190.64441581209664)"/><g transform="translate(0.6,0)"><g transform="translate(0,109.90398733135198)"/><g transform="translate(0.6,0)"><g transform="translate(0,194.1309059003713)"/><g transform="translate(0.6,0)"><g transform="translate(0,61.50304696016106)"/><g transform="translate(0.6,0)"><g transform="translate(0,164.6770114241958)"/><g transform="translate(0.6,0)"><g transform="translate(0,199.39694752938587)"/><g transform="translate(0.6,0)"><g transform="translate(0,215.57099788543)"/><g transform="translate(0.6,0)"><g transform="translate(0,132.5051087955061)"/><g transform="translate(0.6,0)"><g transform="translate(0,119.72928866013686)"/><g transform="translate(0.6,0)"><g transform="translate(0,172.90462295950735)"/><g transform="translate(0.6,0)"><g transform="translate(0,142.44843461262673)"/><g transform="translate(0.6,0)"><g transform="translate(0,138.45760503343453)"/><g transform="translate(0.6,0)"><g transform="translate(0,158.1647679064506)"/><g transform="translate(0.6,0)"><g transform="translate(0,115.5480269773877)"/><g transform="translate(0.6,0)"><g transform="translate(0,198.35184638204495)"/><g transform="translate(0.6,0)"><g transform="translate(0,132.5976587719954)"/><g transform="translate(0.6,0)"><g transform="translate(0,117.75214688652466)"/><g transform="translate(0.6,0)"><g transform="translate(0,197.84875160091258)"/><g transform="translate(0.6,0)"><g transform="translate(0,162.66482322441243)"/><g transform="translate(0.6,0)"><g transform="translate(0,190.78009320795712)"/><g transform="translate(0.6,0)"><g transform="translate(0,176.13565474010576)"/><g transform="translate(0.6,0)"><g transform="translate(0,52.61535919278162)"/><g transform="translate(0.6,0)"><g transform="translate(0,73.62225056512851)"/><g transform="translate(0.6,0)"><g transform="translate(0,101.40166925183028)"/><g transform="translate(0.6,0)"><g transform="translate(0,149.8345907664344)"/><g transform="translate(0.6,0)"><g transform="translate(0,108.99446533643906)"/><g transform="translate(0.6,0)"><g transform="translate(0,97.39134270404917)"/><g transform="translate(0.6,0)"><g transform="translate(0,175.04672589054655)"/><g transform="translate(0.6,0)"><g transform="translate(0,81.72797689770044)"/><g transform="translate(0.6,0)"><g transform="translate(0,187.17424205000148)"/><g transform="translate(0.6,0)"><g transform="translate(0,133.30923202104017)"/><g transform="translate(0.6,0)"><g transform="translate(0,73.75795548855335)"/><g transform="translate(0.6,0)"><g transform="translate(0,157.49146651723217)"/><g transform="translate(0.6,0)"><g transform="translate(0,155.9556804696949)"/><g transform="translate(0.6,0)"><g transform="translate(0,179.031122735395)"/><g transform="translate(0.6,0)"><g transform="translate(0,190.78280919960403)"/><g transform="translate(0.6,0)"><g transform="translate(0,164.6264800754484)"/><g transform="translate(0.6,0)"><g transform="translate(0,82.47052458917462)"/><g transform="translate(0.6,0)"><g transform="translate(0,182.81212786860138)"/><g transform="translate(0.6,0)"><g transform="translate(0,174.5957914585626)"/><g transform="translate(0.6,0)"><g transform="translate(0,177.3631625263884)"/><g transform="translate(0.6,0)"><g transform="translate(0,201.19458798194765)"/><g transform="translate(0.6,0)"><g transform="translate(0,60.894092574846994)"/><g transform="translate(0.6,0)"><g transform="translate(0,134.39391895242593)"/><g transform="translate(0.6,0)"><g transform="translate(0,197.47367658599381)"/><g transform="translate(0.6,0)"><g transform="translate(0,79.689650496042)"/><g transform="translate(0.6,0)"><g transform="translate(0,172.41969329345326)"/><g transform="translate(0.6,0)"><g transform="translate(0,220.62874209324872)"/><g transform="translate(0.6,0)"><g transform="translate(0,108.2624320699887)"/><g transform="translate(0.6,0)"><g transform="translate(0,136.80022683340596)"/><g transform="translate(0.6,0)"><g transform="translate(0,124.52156590942565)"/><g transform="translate(0.6,0)"><g transform="translate(0,138.89729285202506)"/><g transform="translate(0.6,0)"><g transform="translate(0,213.73404162732132)"/><g transform="translate(0.6,0)"><g transform="translate(0,194.41267090975217)"/><g transform="translate(0.6,0)"><g transform="translate(0,146.93281576098374)"/><g transform="translate(0.6,0)"><g transform="translate(0,50.22218310373286)"/><g transform="translate(0.6,0)"><g transform="translate(0,90.05815653167325)"/><g transform="translate(0.6,0)"><g transform="translate(0,128.27811432397476)"/><g transform="translate(0.6,0)"><g transform="translate(0,176.0565731633945)"/><g transform="translate(0.6,0)"><g transform="translate(0,130.15340627357898)"/><g transform="translate(0.6,0)"><g transform="translate(0,124.39397831068575)"/><g transform="translate(0.6,0)"><g transform="translate(0,221.9501931807729)"/><g transform="translate(0.6,0)"><g transform="translate(0,142.8902387192341)"/><g transform="translate(0.6,0)"><g transform="translate(0,90.673536284423)"/><g transform="translate(0.6,0)"><g transform="translate(0,130.1919919163575)"/><g transform="translate(0.6,0)"><g transform="translate(0,120.38210853425262)"/><g transform="translate(0.6,0)"><g transform="translate(0,101.01753339297649)"/><g transform="translate(0.6,0)"><g transform="translate(0,255.55810115138868)"/><g transform="translate(0.6,0)"><g transform="translate(0,203.50116153041262)"/><g transform="translate(0.6,0)"><g transform="translate(0,120.53435217931913)"/><g transform="translate(0.6,0)"><g transform="translate(0,117.52926414062743)"/><g transform="translate(0.6,0)"><g transform="translate(0,68.05236019364803)"/><g transform="translate(0.6,0)"><g transform="translate(0,128.04091226201504)"/><g transform="translate(0.6,0)"><g transform="translate(0,109.5007397700116)"/><g transform="translate(0.6,0)"><g transform="translate(0,216.36008667973462)"/><g transform="translate(0.6,0)"><g transform="translate(0,206.60523026918935)"/><g transform="translate(0.6,0)"><g transform="translate(0,162.61313992423575)"/><g transform="translate(0.6,0)"><g transform="translate(0,75.5220787627957)"/><g transform="translate(0.6,0)"><g transform="translate(0,62.93498702040508)"/><g transform="translate(0.6,0)"><g transform="translate(0,63.454194760732726)"/><g transform="translate(0.6,0)"><g transform="translate(0,175.27231828421984)"/><g transform="translate(0.6,0)"><g transform="translate(0,244.1822916815282)"/><g transform="translate(0.6,0)"><g transform="translate(0,188.6448129825848)"/><g transform="translate(0.6,0)"><g transform="translate(0,81.41135030584087)"/><g transform="translate(0.6,0)"><g transform="translate(0,46.44538106135522)"/><g transform="translate(0.6,0)"><g transform="translate(0,217.56593793797586)"/><g transform="translate(0.6,0)"><g transform="translate(0,85.45140971844818)"/><g transform="translate(0.6,0)"><g transform="translate(0,140.33545269301794)"/><g transform="translate(0.6,0)"><g transform="translate(0,95.62913979914237)"/><g transform="translate(0.6,0)"><g transform="translate(0,142.7399192281912)"/><g transform="translate(0.6,0)"><g transform="translate(0,140.55814871783625)"/><g transform="translate(0.6,0)"><g transform="translate(0,211.47230187371326)"/><g transform="translate(0.6,0)"><g transform="translate(0,147.62850209921595)"/><g transform="translate(0.6,0)"><g transform="translate(0,120.79083164395115)"/><g transform="translate(0.6,0)"><g transform="translate(0,165.97289416226812)"/><g transform="translate(0.6,0)"><g transform="translate(0,245.3603976198609)"/><g transform="translate(0.6,0)"><g transform="translate(0,150.51373164451576)"/><g transform="translate(0.6,0)"><g transform="translate(0,99.69335049144144)"/><g transform="translate(0.6,0)"><g transform="translate(0,234.05425969347255)"/><g transform="translate(0.6,0)"><g transform="translate(0,225.98950310428225)"/><g transform="translate(0.6,0)"><g transform="translate(0,170.5286601033001)"/><g transform="translate(0.6,0)"><g transform="translate(0,223.72166407362104)"/><g transform="translate(0.6,0)"><g transform="translate(0,118.22606037085787)"/><g transform="translate(0.6,0)"><g transform="translate(0,111.60921939456989)"/><g transform="translate(0.6,0)"><g transform="translate(0,119.58365941472435)"/><g transform="translate(0.6,0)"><g transform="translate(0,126.9771805713473)"/><g transform="translate(0.6,0)"><g transform="translate(0,79.50040763275534)"/><g transform="translate(0.6,0)"><g transform="translate(0,110.77290581720717)"/><g transform="translate(0.6,0)"><g transform="translate(0,233.48547915071816)"/><g transform="translate(0.6,0)"><g transform="translate(0,165.3982675983657)"/><g transform="translate(0.6,0)"><g transform="translate(0,163.26731730203562)"/><g transform="translate(0.6,0)"><g transform="translate(0,105.55773944540212)"/><g transform="translate(0.6,0)"><g transform="translate(0,89.75241292955205)"/><g transform="translate(0.6,0)"><g transform="translate(0,175.31728928326982)"/><g transform="translate(0.6,0)"><g transform="translate(0,177.0044938804195)"/><g transform="translate(0.6,0)"><g transform="translate(0,211.84493364728954)"/><g transform="translate(0.6,0)"><g transform="translate(0,120.79996537609361)"/><g transform="translate(0.6,0)"><g transform="translate(0,128.34458436399652)"/><g transform="translate(0.6,0)"><g transform="translate(0,127.23958374492915)"/><g transform="translate(0.6,0)"><g transform="translate(0,71.15280309282026)"/><g transform="translate(0.6,0)"><g transform="translate(0,160.0720274421321)"/><g transform="translate(0.6,0)"><g transform="translate(0,123.52846574767781)"/><g transform="translate(0.6,0)"><g transform="translate(0,224.54787558411485)"/><g transform="translate(0.6,0)"><g transform="translate(0,74.86516644957801)"/><g transform="translate(0.6,0)"><g transform="translate(0,155.8039744283653)"/><g transform="translate(0.6,0)"><g transform="translate(0,234.2144904608365)"/><g transform="translate(0.6,0)"><g transform="translate(0,188.97098520476706)"/><g transform="translate(0.6,0)"><g transform="translate(0,180.1167087198804)"/><g transform="translate(0.6,0)"><g transform="translate(0,128.7851106424584)"/><g transform="translate(0.6,0)"><g transform="translate(0,191.84954195595913)"/><g transform="translate(0.6,0)"><g transform="translate(0,177.3083626935582)"/><g transform="translate(0.6,0)"><g transform="translate(0,184.22580872023627)"/><g transform="translate(0.6,0)"><g transform="translate(0,108.67559451353655)"/><g transform="translate(0.6,0)"><g transform="translate(0,93.62748581912207)"/><g transform="translate(0.6,0)"><g transform="translate(0,170.88724877874103)"/><g transform="translate(0.6,0)"><g transform="translate(0,177.22745874981797)"/><g transform="translate(0.6,0)"><g transform="translate(0,187.07326775222438)"/><g transform="translate(0.6,0)"><g transform="translate(0,76.21367420264956)"/><g transform="translate(0.6,0)"><g transform="translate(0,215.6598791543177)"/><g transform="translate(0.6,0)"><g transform="translate(0,118.71871944116585)"/><g transform="translate(0.6,0)"><g transform="translate(0,78.5671381607845)"/><g transform="translate(0.6,0)"><g transform="translate(0,206.48216187593016)"/><g transform="translate(0.6,0)"><g transform="translate(0,141.89105683630532)"/><g transform="translate(0.6,0)"><g transform="translate(0,150.89382103172386)"/><g transform="translate(0.6,0)"><g transform="translate(0,191.21725962334105)"/><g transform="translate(0.6,0)"><g transform="translate(0,189.95788746892973)"/><g transform="translate(0.6,0)"><g transform="translate(0,173.48901225876335)"/><g transform="translate(0.6,0)"><g transform="translate(0,92.94536566254004)"/><g transform="translate(0.6,0)"><g transform="translate(0,157.9659930988662)"/><g transform="translate(0.6,0)"><g transform="translate(0,187.4946968944373)"/><g transform="translate(0.6,0)"><g transform="translate(0,183.51214394012285)"/><g transform="translate(0.6,0)"><g transform="translate(0,161.10850465134857)"/><g transform="translate(0.6,0)"><g transform="translate(0,113.44795562607753)"/><g transform="translate(0.6,0)"><g transform="translate(0,207.78328410544322)"/><g transform="translate(0.6,0)"><g transform="translate(0,134.99036495724326)"/><g transform="translate(0.6,0)"><g transform="translate(0,122.8665262654898)"/><g transform="translate(0.6,0)"><g transform="translate(0,95.37966187876746)"/><g transform="translate(0.6,0)"><g transform="translate(0,163.3417813785735)"/><g transform="translate(0.6,0)"><g transform="translate(0,63.79104035593174)"/><g transform="translate(0.6,0)"><g transform="translate(0,155.4856027030776)"/><g transform="translate(0.6,0)"><g transform="translate(0,217.88685018522511)"/><g transform="translate(0.6,0)"><g transform="translate(0,60.755862392376095)"/><g transform="translate(0.6,0)"><g transform="translate(0,114.87289558534704)"/><g transform="translate(0.6,0)"><g transform="translate(0,141.27636154788377)"/><g transform="translate(0.6,0)"><g transform="translate(0,239.8559510957983)"/><g transform="translate(0.6,0)"><g transform="translate(0,176.2316661921157)"/><g transform="translate(0.6,0)"><g transform="translate(0,88.53658830730319)"/><g transform="translate(0.6,0)"><g transform="translate(0,178.4681564267379)"/><g transform="translate(0.6,0)"><g transform="translate(0,82.2998714954639)"/><g transform="translate(0.6,0)"><g transform="translate(0,156.93415866511126)"/><g transform="translate(0.6,0)"><g transform="translate(0,108.43087517453223)"/><g transform="translate(0.6,0)"><g transform="translate(0,226.75672649136698)"/><g transform="translate(0.6,0)"><g transform="translate(0,89.77145807953592)"/><g transform="translate(0.6,0)"><g transform="translate(0,152.80459667699967)"/><g transform="translate(0.6,0)"><g transform="translate(0,104.51649062538566)"/><g transform="translate(0.6,0)"><g transform="translate(0,144.70153431696744)"/><g transform="translate(0.6,0)"><g transform="translate(0,92.0043422669345)"/><g transform="translate(0.6,0)"><g transform="translate(0,165.18721545499974)"/><g transform="translate(0.6,0)"><g transform="translate(0,163.47815307179624)"/><g transform="translate(0.6,0)"><g transform="translate(0,198.98757026711513)"/><g transform="translate(0.6,0)"><g transform="translate(0,124.14953929667033)"/><g transform="translate(0.6,0)"><g transform="translate(0,153.96581328645706)"/><g transform="translate(0.6,0)"><g transform="translate(0,148.74075171181403)"/><g transform="translate(0.6,0)"><g transform="translate(0,206.87153636656075)"/><g transform="translate(0.6,0)"><g transform="translate(0,107.15023998450819)"/><g transform="translate(0.6,0)"><g transform="translate(0,201.04725280651488)"/><g transform="translate(0.6,0)"><g transform="translate(0,128.1938182005886)"/><g transform="translate(0.6,0)"><g transform="translate(0,159.5422730785954)"/><g transform="translate(0.6,0)"><g transform="translate(0,102.69291682862146)"/><g transform="translate(0.6,0)"><g transform="translate(0,93.66931359504933)"/><g transform="translate(0.6,0)"><g transform="translate(0,172.6305373266078)"/><g transform="translate(0.6,0)"><g transform="translate(0,166.25604501989153)"/><g transform="translate(0.6,0)"><g transform="translate(0,196.538775693933)"/><g transform="translate(0.6,0)"><g transform="translate(0,129.63515922435124)"/><g transform="translate(0.6,0)"><g transform="translate(0,140.1698272314791)"/><g transform="translate(0.6,0)"><g transform="translate(0,204.71085520567044)"/><g transform="translate(0.6,0)"><g transform="translate(0,200.22923494279465)"/><g transform="translate(0.6,0)"><g transform="translate(0,130.41052864552103)"/><g transform="translate(0.6,0)"><g transform="translate(0,160.92320142009513)"/><g transform="translate(0.6,0)"><g transform="translate(0,152.15177794220278)"/><g transform="translate(0.6,0)"><g transform="translate(0,51.31709006617647)"/><g transform="translate(0.6,0)"><g transform="translate(0,264.31128530022954)"/><g transform="translate(0.6,0)"><g transform="translate(0,91.82846917998495)"/><g transform="translate(0.6,0)"><g transform="translate(0,155.9180720580145)"/><g transform="translate(0.6,0)"><g transform="translate(0,119.36902981643695)"/><g transform="translate(0.6,0)"><g transform="translate(0,91.19916060321681)"/><g transform="translate(0.6,0)"><g transform="translate(0,98.72847512358985)"/><g transform="translate(0.6,0)"><g transform="translate(0,56.840434411081425)"/><g transform="translate(0.6,0)"><g transform="translate(0,239.5606652027596)"/><g transform="translate(0.6,0)"><g transform="translate(0,45.94885722777605)"/><g transform="translate(0.6,0)"><g transform="translate(0,81.09031979409743)"/><g transform="translate(0.6,0)"><g transform="translate(0,16.587240130561796)"/><g transform="translate(0.6,0)"><g transform="translate(0,89.82595641419961)"/><g transform="translate(0.6,0)"><g transform="translate(0,88.99956522853371)"/><g transform="translate(0.6,0)"><g transform="translate(0,170.32409540416396)"/><g transform="translate(0.6,0)"><g transform="translate(0,198.20631112802323)"/><g transform="translate(0.6,0)"><g transform="translate(0,79.0334863181046)"/><g transform="translate(0.6,0)"><g transform="translate(0,184.98440385096205)"/><g transform="translate(0.6,0)"><g transform="translate(0,174.83249321261735)"/><g transform="translate(0.6,0)"><g transform="translate(0,118.37222896860192)"/><g transform="translate(0.6,0)"><g transform="translate(0,161.94664254068672)"/><g transform="translate(0.6,0)"><g transform="translate(0,65.88355049381518)"/><g transform="translate(0.6,0)"><g transform="translate(0,174.10394687368418)"/><g transform="translate(0.6,0)"><g transform="translate(0,59.305758535371595)"/><g transform="translate(0.6,0)"><g transform="translate(0,158.68781213026634)"/><g transform="translate(0.6,0)"><g transform="translate(0,68.50076149934863)"/><g transform="translate(0.6,0)"><g transform="translate(0,204.28938809773223)"/><g transform="translate(0.6,0)"><g transform="translate(0,185.68537090187363)"/><g transform="translate(0.6,0)"><g transform="translate(0,195.45416074856277)"/><g transform="translate(0.6,0)"><g transform="translate(0,195.97983566484947)"/><g transform="translate(0.6,0)"><g transform="translate(0,210.21610098871588)"/><g transform="translate(0.6,0)"><g transform="translate(0,138.58946324484216)"/><g transform="translate(0.6,0)"><g transform="translate(0,103.33076255957165)"/><g transform="translate(0.6,0)"><g transform="translate(0,178.28772002368726)"/><g transform="translate(0.6,0)"><g transform="translate(0,124.28573575073999)"/><g transform="translate(0.6,0)"><g transform="translate(0,216.94914760508757)"/><g transform="translate(0.6,0)"><g transform="translate(0,56.17785750117114)"/><g transform="translate(0.6,0)"><g transform="translate(0,169.65887634900355)"/><g transform="translate(0.6,0)"><g transform="translate(0,118.06470275157432)"/><g transform="translate(0.6,0)"><g transform="translate(0,198.00995879678968)"/><g transform="translate(0.6,0)"><g transform="translate(0,95.28829271536706)"/><g transform="translate(0.6,0)"><g transform="translate(0,121.9422547856351)"/><g transform="translate(0.6,0)"><g transform="translate(0,199.02651158516596)"/><g transform="translate(0.6,0)"><g transform="translate(0,60.47951097635144)"/><g transform="translate(0.6,0)"><g transform="translate(0,94.03304663122711)"/><g transform="translate(0.6,0)"><g transform="translate(0,101.40763616643423)"/><g transform="translate(0.6,0)"><g transform="translate(0,173.45280185594567)"/><g transform="translate(0.6,0)"><g transform="translate(0,177.31066474357854)"/><g transform="translate(0.6,0)"><g transform="translate(0,204.9121544834821)"/><g transform="translate(0.6,0)"><g transform="translate(0,102.89773398288908)"/><g transform="translate(0.6,0)"><g transform="translate(0,113.50598672528182)"/><g transform="translate(0.6,0)"><g transform="translate(0,146.94798103349868)"/><g transform="translate(0.6,0)"><g transform="translate(0,100.57231658858231)"/><g transform="translate(0.6,0)"><g transform="translate(0,163.54870769738542)"/><g transform="translate(0.6,0)"><g transform="translate(0,241.06168913002972)"/><g transform="translate(0.6,0)"><g transform="translate(0,139.5511883780236)"/><g transform="translate(0.6,0)"><g transform="translate(0,144.76262829055156)"/><g transform="translate(0.6,0)"><g transform="translate(0,153.08299265441164)"/><g transform="translate(0.6,0)"><g transform="translate(0,145.29178139465347)"/><g transform="translate(0.6,0)"><g transform="translate(0,137.2208485014181)"/><g transform="translate(0.6,0)"><g transform="translate(0,252.3141354309453)"/><g transform="translate(0.6,0)"><g transform="translate(0,125.34512715618075)"/><g transform="translate(0.6,0)"><g transform="translate(0,136.57137000309572)"/><g transform="translate(0.6,0)"><g transform="translate(0,58.727037009985644)"/><g transform="translate(0.6,0)"><g transform="translate(0,216.55667823320974)"/><g transform="translate(0.6,0)"><g transform="translate(0,171.74738801999433)"/><g transform="translate(0.6,0)"><g transform="translate(0,147.39813822871352)"/><g transform="translate(0.6,0)"><g transform="translate(0,100.62561548038865)"/><g transform="translate(0.6,0)"><g transform="translate(0,133.16599694715114)"/><g transform="translate(0.6,0)"><g transform="translate(0,55.046800602378575)"/><g transform="translate(0.6,0)"><g transform="translate(0,189.37201147288832)"/><g transform="translate(0.6,0)"><g transform="translate(0,156.67256999067607)"/><g transform="translate(0.6,0)"><g transform="translate(0,209.81012565655226)"/><g transform="translate(0.6,0)"><g transform="translate(0,139.29017765462615)"/><g transform="translate(0.6,0)"><g transform="translate(0,205.5639394854436)"/><g transform="translate(0.6,0)"><g transform="translate(0,198.45780158106237)"/><g transform="translate(0.6,0)"><g transform="translate(0,144.65195063721552)"/><g transform="translate(0.6,0)"><g transform="translate(0,93.75260276390252)"/><g transform="translate(0.6,0)"><g transform="translate(0,110.43533631494734)"/><g transform="translate(0.6,0)"><g transform="translate(0,200.0616444389543)"/><g transform="translate(0.6,0)"><g transform="translate(0,90.79052021860741)"/><g transform="translate(0.6,0)"><g transform="translate(0,147.18327582600634)"/><g transform="translate(0.6,0)"><g transform="translate(0,137.57167472757789)"/><g transform="translate(0.6,0)"><g transform="translate(0,117.59832132723014)"/><g transform="translate(0.6,0)"><g transform="translate(0,141.19523770445895)"/><g transform="translate(0.6,0)"><g transform="translate(0,84.26181230274024)"/><g transform="translate(0.6,0)"><g transform="translate(0,264.90766186689984)"/><g transform="translate(0.6,0)"><g transform="translate(0,197.88666557290452)"/><g transform="translate(0.6,0)"><g transform="translate(0,234.9846497737073)"/><g transform="translate(0.6,0)"><g transform="translate(0,99.0908618962552)"/><g transform="translate(0.6,0)"><g transform="translate(0,190.72213212510724)"/><g transform="translate(0.6,0)"><g transform="translate(0,185.99066593438246)"/><g transform="translate(0.6,0)"><g transform="translate(0,134.02015742015794)"/><g transform="translate(0.6,0)"><g transform="translate(0,149.44761659344346)"/><g transform="translate(0.6,0)"><g transform="translate(0,89.84228815900454)"/><g transform="translate(0.6,0)"><g transform="translate(0,90.16382015073147)"/><g transform="translate(0.6,0)"><g transform="translate(0,189.16301060688465)"/><g transform="translate(0.6,0)"><g transform="translate(0,45.02095508125966)"/><g transform="translate(0.6,0)"><g transform="translate(0,158.99714841773513)"/><g transform="translate(0.6,0)"><g transform="translate(0,85.4697554489436)"/><g transform="translate(0.6,0)"><g transform="translate(0,120.30094007675257)"/><g transform="translate(0.6,0)"><g transform="translate(0,199.58886092814637)"/><g transform="translate(0.6,0)"><g transform="translate(0,99.73172064367688)"/><g transform="translate(0.6,0)"><g transform="translate(0,87.5863839702278)"/><g transform="translate(0.6,0)"><g transform="translate(0,173.18687008676642)"/><g transform="translate(0.6,0)"><g transform="translate(0,155.7289963069228)"/><g transform="translate(0.6,0)"><g transform="translate(0,172.1963342331526)"/><g transform="translate(0.6,0)"><g transform="translate(0,103.08918692764978)"/><g transform="translate(0.6,0)"><g transform="translate(0,189.8758860795838)"/><g transform="translate(0.6,0)"><g transform="translate(0,122.67493263711236)"/><g transform="translate(0.6,0)"><g transform="translate(0,150.70114419908026)"/><g transform="translate(0.6,0)"><g transform="translate(0,72.2189516232743)"/><g transform="translate(0.6,0)"><g transform="translate(0,139.3314560395668)"/><g transform="translate(0.6,0)"><g transform="translate(0,183.5139721732667)"/><g transform="translate(0.6,0)"><g transform="translate(0,51.46836371997306)"/><g transform="translate(0.6,0)"><g transform="translate(0,213.56528209067415)"/><g transform="translate(0.6,0)"><g transform="translate(0,204.1937369536648)"/><g transform="translate(0.6,0)"><g transform="translate(0,172.9222343732331)"/><g transform="translate(0.6,0)"><g transform="translate(0,148.74932957390217)"/><g transform="translate(0.6,0)"><g transform="translate(0,188.24754195303518)"/><g transform="translate(0.6,0)"><g transform="translate(0,68.99703585614117)"/><g transform="translate(0.6,0)"><g transform="translate(0,89.829941688189)"/><g transform="translate(0.6,0)"><g transform="translate(0,174.74872969096344)"/><g transform="translate(0.6,0)"><g transform="translate(0,73.51499252653574)"/><g transform="translate(0.6,0)"><g transform="translate(0,202.9261868887909)"/><g transform="translate(0.6,0)"><g transform="translate(0,46.890505527143205)"/><g transform="translate(0.6,0)"><g transform="translate(0,176.7279907700126)"/><g transform="translate(0.6,0)"><g transform="translate(0,135.77078289958385)"/><g transform="translate(0.6,0)"><g transform="translate(0,186.32795599877647)"/><g transform="translate(0.6,0)"><g transform="translate(0,202.5617045181745)"/><g transform="translate(0.6,0)"><g transform="translate(0,190.80790496845052)"/><g transform="translate(0.6,0)"><g transform="translate(0,123.33924585189952)"/><g transform="translate(0.6,0)"><g transform="translate(0,135.52255432286225)"/><g transform="translate(0.6,0)"><g transform="translate(0,171.91562795248265)"/><g transform="translate(0.6,0)"><g transform="translate(0,86.83679060266036)"/><g transform="translate(0.6,0)"><g transform="translate(0,216.41141660749136)"/><g transform="translate(0.6,0)"><g transform="translate(0,81.80635137393111)"/><g transform="translate(0.6,0)"><g transform="translate(0,83.89514459312576)"/><g transform="translate(0.6,0)"><g transform="translate(0,169.59615415613837)"/><g transform="translate(0.6,0)"><g transform="translate(0,146.49159975424507)"/><g transform="translate(0.6,0)"><g transform="translate(0,149.0130507137697)"/><g transform="translate(0.6,0)"><g transform="translate(0,122.7297799864744)"/><g transform="translate(0.6,0)"><g transform="translate(0,195.5478027050197)"/><g transform="translate(0.6,0)"><g transform="translate(0,109.24981130160626)"/><g transform="translate(0.6,0)"><g transform="translate(0,127.61164547569717)"/><g transform="translate(0.6,0)"><g transform="translate(0,97.13838999740155)"/><g transform="translate(0.6,0)"><g transform="translate(0,167.3462203994223)"/><g transform="translate(0.6,0)"><g transform="translate(0,192.24086960608298)"/><g transform="translate(0.6,0)"><g transform="translate(0,129.09647040797432)"/><g transform="translate(0.6,0)"><g transform="translate(0,116.39453801162428)"/><g transform="translate(0.6,0)"><g transform="translate(0,79.49504541065195)"/><g transform="translate(0.6,0)"><g transform="translate(0,174.77816060150556)"/><g transform="translate(0.6,0)"><g transform="translate(0,213.41851506361945)"/><g transform="translate(0.6,0)"><g transform="translate(0,163.74456152864326)"/><g transform="translate(0.6,0)"><g transform="translate(0,227.20516722048907)"/><g transform="translate(0.6,0)"><g transform="translate(0,98.77143398997826)"/><g transform="translate(0.6,0)"><g transform="translate(0,233.5613893647452)"/><g transform="translate(0.6,0)"><g transform="translate(0,181.50183790081945)"/><g transform="translate(0.6,0)"><g transform="translate(0,165.136582965244)"/><g transform="translate(0.6,0)"><g transform="translate(0,160.88764157576236)"/><g transform="translate(0.6,0)"><g transform="translate(0,96.62974131105459)"/><g transform="translate(0.6,0)"><g transform="translate(0,176.16805986054968)"/><g transform="translate(0.6,0)"><g transform="translate(0,110.18492787191867)"/><g transform="translate(0.6,0)"><g transform="translate(0,208.86237886779014)"/><g transform="translate(0.6,0)"><g transform="translate(0,114.4135205370672)"/><g transform="translate(0.6,0)"><g transform="translate(0,60.982472363692)"/><g transform="translate(0.6,0)"><g transform="translate(0,172.27027772782728)"/><g transform="translate(0.6,0)"><g transform="translate(0,100.00790613479101)"/><g transform="translate(0.6,0)"><g transform="translate(0,154.68514070115143)"/><g transform="translate(0.6,0)"><g transform="translate(0,221.81519451787358)"/><g transform="translate(0.6,0)"><g transform="translate(0,214.52385982038464)"/><g transform="translate(0.6,0)"><g transform="translate(0,104.884985143068)"/><g transform="translate(0.6,0)"><g transform="translate(0,117.2967488643308)"/><g transform="translate(0.6,0)"><g transform="translate(0,165.92252434325619)"/><g transform="translate(0.6,0)"><g transform="translate(0,92.83742785782985)"/><g transform="translate(0.6,0)"><g transform="translate(0,90.0448278757714)"/><g transform="translate(0.6,0)"><g transform="translate(0,250.9819713560358)"/><g transform="translate(0.6,0)"><g transform="translate(0,115.33658290059702)"/><g transform="translate(0.6,0)"><g transform="translate(0,124.87384801532205)"/><g transform="translate(0.6,0)"><g transform="translate(0,112.75076566142651)"/><g transform="translate(0.6,0)"><g transform="translate(0,166.5944188092812)"/><g transform="translate(0.6,0)"><g transform="translate(0,173.81042851297678)"/><g transform="translate(0.6,0)"><g transform="translate(0,121.70862461397977)"/><g transform="translate(0.6,0)"><g transform="translate(0,161.46347237290425)"/><g transform="translate(0.6,0)"><g transform="translate(0,159.6556552241683)"/><g transform="translate(0.6,0)"><g transform="translate(0,112.93819905937434)"/><g transform="translate(0.6,0)"><g transform="translate(0,110.97923412973242)"/><g transform="translate(0.6,0)"><g transform="translate(0,107.99018087235537)"/><g transform="translate(0.6,0)"><g transform="translate(0,184.70696819186705)"/><g transform="translate(0.6,0)"><g transform="translate(0,124.35023069594843)"/><g transform="translate(0.6,0)"><g transform="translate(0,76.7506310114216)"/><g transform="translate(0.6,0)"><g transform="translate(0,140.76056732966896)"/><g transform="translate(0.6,0)"><g transform="translate(0,186.52147424323186)"/><g transform="translate(0.6,0)"><g transform="translate(0,188.2143880363364)"/><g transform="translate(0.6,0)"><g transform="translate(0,61.363206212498994)"/><g transform="translate(0.6,0)"><g transform="translate(0,191.8504092169557)"/><g transform="translate(0.6,0)"><g transform="translate(0,129.77223511336385)"/><g transform="translate(0.6,0)"><g transform="translate(0,100.00404737652727)"/><g transform="translate(0.6,0)"><g transform="translate(0,186.233710527354)"/><g transform="translate(0.6,0)"><g transform="translate(0,191.4196029148515)"/><g transform="translate(0.6,0)"><g transform="translate(0,157.9776079453492)"/><g transform="translate(0.6,0)"><g transform="translate(0,193.90829776727202)"/><g transform="translate(0.6,0)"><g transform="translate(0,180.9288096813564)"/><g transform="translate(0.6,0)"><g transform="translate(0,171.80787299368188)"/><g transform="translate(0.6,0)"><g transform="translate(0,149.25810947456293)"/><g transform="translate(0.6,0)"><g transform="translate(0,165.59554625211317)"/><g transform="translate(0.6,0)"><g transform="translate(0,168.67089594424493)"/><g transform="translate(0.6,0)"><g transform="translate(0,102.94669459738832)"/><g transform="translate(0.6,0)"><g transform="translate(0,124.50127830671798)"/><g transform="translate(0.6,0)"><g transform="translate(0,183.8652191694798)"/><g transform="translate(0.6,0)"><g transform="translate(0,152.08513323334316)"/><g transform="translate(0.6,0)"><g transform="translate(0,178.52152585547967)"/><g transform="translate(0.6,0)"><g transform="translate(0,77.68608812246168)"/><g transform="translate(0.6,0)"><g transform="translate(0,143.3446695658316)"/><g transform="translate(0.6,0)"><g transform="translate(0,216.0215878104782)"/><g transform="translate(0.6,0)"><g transform="translate(0,127.4980423943193)"/><g transform="translate(0.6,0)"><g transform="translate(0,90.92505053484804)"/><g transform="translate(0.6,0)"><g transform="translate(0,248.16115492732465)"/><g transform="translate(0.6,0)"><g transform="translate(0,164.21397977594398)"/><g transform="translate(0.6,0)"><g transform="translate(0,207.92884301584724)"/><g transform="translate(0.6,0)"><g transform="translate(0,122.29223764623957)"/><g transform="translate(0.6,0)"><g transform="translate(0,162.4533546634706)"/><g transform="translate(0.6,0)"><g transform="translate(0,226.7564057327122)"/><g transform="translate(0.6,0)"><g transform="translate(0,80.55534171730534)"/><g transform="translate(0.6,0)"><g transform="translate(0,157.91836575136043)"/><g transform="translate(0.6,0)"><g transform="translate(0,126.80417666805407)"/><g transform="translate(0.6,0)"><g transform="translate(0,139.9161066098242)"/><g transform="translate(0.6,0)"><g transform="translate(0,232.4602453774702)"/><g transform="translate(0.6,0)"><g transform="translate(0,83.17051541676037)"/><g transform="translate(0.6,0)"><g transform="translate(0,140.35498973481094)"/><g transform="translate(0.6,0)"><g transform="translate(0,118.28079599763464)"/><g transform="translate(0.6,0)"><g transform="translate(0,160.57074421562223)"/><g transform="translate(0.6,0)"><g transform="translate(0,203.33923873901313)"/><g transform="translate(0.6,0)"><g transform="translate(0,229.55322348141127)"/><g transform="translate(0.6,0)"><g transform="translate(0,126.89623947422072)"/><g transform="translate(0.6,0)"><g transform="translate(0,201.591434733148)"/><g transform="translate(0.6,0)"><g transform="translate(0,169.3015857924088)"/><g transform="translate(0.6,0)"><g transform="translate(0,103.71650909023163)"/><g transform="translate(0.6,0)"><g transform="translate(0,165.7925464517775)"/><g transform="translate(0.6,0)"><g transform="translate(0,116.05932582599614)"/><g transform="translate(0.6,0)"><g transform="translate(0,89.54459772238874)"/><g transform="translate(0.6,0)"><g transform="translate(0,74.21902396073203)"/><g transform="translate(0.6,0)"><g transform="translate(0,116.26714281772463)"/><g transform="translate(0.6,0)"><g transform="translate(0,207.56660290074217)"/><g transform="translate(0.6,0)"><g transform="translate(0,131.40848714782857)"/><g transform="translate(0.6,0)"><g transform="translate(0,104.22727443827834)"/><g transform="translate(0.6,0)"><g transform="translate(0,170.86342946817908)"/><g transform="translate(0.6,0)"><g transform="translate(0,132.19084346949668)"/><g transform="translate(0.6,0)"><g transform="translate(0,112.48223615962807)"/><g transform="translate(0.6,0)"><g transform="translate(0,196.03425081460887)"/><g transform="translate(0.6,0)"><g transform="translate(0,73.09561665367247)"/><g transform="translate(0.6,0)"><g transform="translate(0,124.97816208818018)"/><g transform="translate(0.6,0)"><g transform="translate(0,64.48786458598182)"/><g transform="translate(0.6,0)"><g transform="translate(0,101.39649922333814)"/><g transform="translate(0.6,0)"><g transform="translate(0,210.0082262099644)"/><g transform="translate(0.6,0)"><g transform="translate(0,155.88392818523914)"/><g transform="translate(0.6,0)"><g transform="translate(0,105.40588002964328)"/><g transform="translate(0.6,0)"><g transform="translate(0,179.38013173953834)"/><g transform="translate(0.6,0)"><g transform="translate(0,69.14238900464773)"/><g transform="translate(0.6,0)"><g transform="translate(0,154.99096373196195)"/><g transform="translate(0.6,0)"><g transform="translate(0,106.0557807378775)"/><g transform="translate(0.6,0)"><g transform="translate(0,244.68825625982117)"/><g transform="translate(0.6,0)"><g transform="translate(0,60.28365598208549)"/><g transform="translate(0.6,0)"><g transform="translate(0,115.16860049372924)"/><g transform="translate(0.6,0)"><g transform="translate(0,103.64188242957333)"/><g transform="translate(0.6,0)"><g transform="translate(0,181.34819779368985)"/><g transform="translate(0.6,0)"><g transform="translate(0,142.0607896301405)"/><g transform="translate(0.6,0)"><g transform="translate(0,240.21843003787046)"/><g transform="translate(0.6,0)"><g transform="translate(0,187.6351373210262)"/><g transform="translate(0.6,0)"><g transform="translate(0,231.40832655221175)"/><g transform="translate(0.6,0)"><g transform="translate(0,145.16441481080489)"/><g transform="translate(0.6,0)"><g transform="translate(0,122.15972536096851)"/><g transform="translate(0.6,0)"><g transform="translate(0,180.36592799234904)"/><g transform="translate(0.6,0)"><g transform="translate(0,60.99374961466584)"/><g transform="translate(0.6,0)"><g transform="translate(0,199.3276058777622)"/><g transform="translate(0.6,0)"><g transform="translate(0,203.80417683498735)"/><g transform="translate(0.6,0)"><g transform="translate(0,166.8041666393082)"/><g transform="translate(0.6,0)"><g transform="translate(0,152.7145158458562)"/><g transform="translate(0.6,0)"><g transform="translate(0,98.42186253210635)"/><g transform="translate(0.6,0)"><g transform="translate(0,86.74659050175269)"/><g transform="translate(0.6,0)"><g transform="translate(0,177.4901739673986)"/><g transform="translate(0.6,0)"><g transform="translate(0,220.87495194773405)"/><g transform="translate(0.6,0)"><g transform="translate(0,83.41273100986199)"/><g transform="translate(0.6,0)"><g transform="translate(0,209.03248952609502)"/><g transform="translate(0.6,0)"><g transform="translate(0,217.87412991274707)"/><g transform="translate(0.6,0)"><g transform="translate(0,220.15650019061215)"/><g transform="translate(0.6,0)"><g transform="translate(0,148.25088186632794)"/><g transform="translate(0.6,0)"><g transform="translate(0,243.4902640821039)"/><g transform="translate(0.6,0)"><g transform="translate(0,189.16650162967977)"/><g transform="translate(0.6,0)"><g transform="translate(0,106.82949063777691)"/><g transform="translate(0.6,0)"><g transform="translate(0,158.43820175077659)"/><g transform="translate(0.6,0)"><g transform="translate(0,129.76368535044767)"/><g transform="translate(0.6,0)"><g transform="translate(0,181.6820206448736)"/><g transform="translate(0.6,0)"><g transform="translate(0,76.64158044774685)"/><g transform="translate(0.6,0)"><g transform="translate(0,171.16949966756673)"/><g transform="translate(0.6,0)"><g transform="translate(0,98.61021814462353)"/><g transform="translate(0.6,0)"><g transform="translate(0,207.64993033690234)"/><g transform="translate(0.6,0)"><g transform="translate(0,65.93155281087516)"/><g transform="translate(0.6,0)"><g transform="translate(0,133.9142721833408)"/><g transform="translate(0.6,0)"><g transform="translate(0,247.10672444271847)"/><g transform="translate(0.6,0)"><g transform="translate(0,174.72608998909752)"/><g transform="translate(0.6,0)"><g transform="translate(0,87.39724210217703)"/><g transform="translate(0.6,0)"><g transform="translate(0,94.87115295163109)"/><g transform="translate(0.6,0)"><g transform="translate(0,115.51655398923491)"/><g transform="translate(0.6,0)"><g transform="translate(0,69.63635455932977)"/><g transform="translate(0.6,0)"><g transform="translate(0,106.07170437208018)"/><g transform="translate(0.6,0)"><g transform="translate(0,175.203421466538)"/><g transform="translate(0.6,0)"><g transform="translate(0,104.89175838171136)"/><g transform="translate(0.6,0)"><g transform="translate(0,75.73684563090232)"/><g transform="translate(0.6,0)"><g transform="translate(0,218.47320303380104)"/><g transform="translate(0.6,0)"><g transform="translate(0,241.4880888772076)"/><g transform="translate(0.6,0)"><g transform="translate(0,95.57994940107447)"/><g transform="translate(0.6,0)"><g transform="translate(0,48.2857414670326)"/><g transform="translate(0.6,0)"><g transform="translate(0,211.78383256561153)"/><g transform="translate(0.6,0)"><g transform="translate(0,101.67651731703386)"/><g transform="translate(0.6,0)"><g transform="translate(0,183.87163418110646)"/><g transform="translate(0.6,0)"><g transform="translate(0,150.850634893492)"/><g transform="translate(0.6,0)"><g transform="translate(0,64.61656876836116)"/><g transform="translate(0.6,0)"><g transform="translate(0,190.22666819766914)"/><g transform="translate(0.6,0)"><g transform="translate(0,216.38508241224363)"/><g transform="translate(0.6,0)"><g transform="translate(0,128.40640035176548)"/><g transform="translate(0.6,0)"><g transform="translate(0,182.84570479991382)"/><g transform="translate(0.6,0)"><g transform="translate(0,84.03180951903671)"/><g transform="translate(0.6,0)"><g transform="translate(0,217.13881178978116)"/><g transform="translate(0.6,0)"><g transform="translate(0,214.60575673208376)"/><g transform="translate(0.6,0)"><g transform="translate(0,139.7932308476561)"/><g transform="translate(0.6,0)"><g transform="translate(0,103.96951498576617)"/><g transform="translate(0.6,0)"><g transform="translate(0,242.3822547197362)"/><g transform="translate(0.6,0)"><g transform="translate(0,251.63308775533898)"/><g transform="translate(0.6,0)"><g transform="translate(0,90.76037937923971)"/><g transform="translate(0.6,0)"><g transform="translate(0,152.18055809388503)"/><g transform="translate(0.6,0)"><g transform="translate(0,143.37575167574312)"/><g transform="translate(0.6,0)"><g transform="translate(0,178.9673056770858)"/><g transform="translate(0.6,0)"><g transform="translate(0,171.69457397903471)"/><g transform="translate(0.6,0)"><g transform="translate(0,52.685824274109194)"/><g transform="translate(0.6,0)"><g transform="translate(0,185.86357449820667)"/><g transform="translate(0.6,0)"><g transform="translate(0,179.82088448616202)"/><g transform="translate(0.6,0)"><g transform="translate(0,198.42490522127022)"/><g transform="translate(0.6,0)"><g transform="translate(0,178.44772910653688)"/><g transform="translate(0.6,0)"><g transform="translate(0,137.0176936181533)"/><g transform="translate(0.6,0)"><g transform="translate(0,62.90694079683997)"/><g transform="translate(0.6,0)"><g transform="translate(0,100.01671446708613)"/><g transform="translate(0.6,0)"><g transform="translate(0,207.0098691678166)"/><g transform="translate(0.6,0)"><g transform="translate(0,80.98431645484088)"/><g transform="translate(0.6,0)"><g transform="translate(0,73.86896135064492)"/><g transform="translate(0.6,0)"><g transform="translate(0,75.63317097518853)"/><g transform="translate(0.6,0)"><g transform="translate(0,119.29532981914478)"/><g transform="translate(0.6,0)"><g transform="translate(0,177.2560902381758)"/><g transform="translate(0.6,0)"><g transform="translate(0,39.615678163623706)"/><g transform="translate(0.6,0)"><g transform="translate(0,95.29009337776955)"/><g transform="translate(0.6,0)"><g transform="translate(0,122.54775563275732)"/><g transform="translate(0.6,0)"><g transform="translate(0,114.23909229689383)"/><g transform="translate(0.6,0)"><g transform="translate(0,148.77699273404843)"/><g transform="translate(0.6,0)"><g transform="translate(0,176.5857366956269)"/><g transform="translate(0.6,0)"><g transform="translate(0,189.82719858790261)"/><g transform="translate(0.6,0)"><g transform="translate(0,111.18279317949604)"/><g transform="translate(0.6,0)"><g transform="translate(0,230.39679561653244)"/><g transform="translate(0.6,0)"><g transform="translate(0,78.30447716162318)"/><g transform="translate(0.6,0)"><g transform="translate(0,140.3922402931223)"/><g transform="translate(0.6,0)"><g transform="translate(0,147.77621157677012)"/><g transform="translate(0.6,0)"><g transform="translate(0,175.28283474883693)"/><g transform="translate(0.6,0)"><g transform="translate(0,122.49757912029553)"/><g transform="translate(0.6,0)"><g transform="translate(0,166.89583782551847)"/><g transform="translate(0.6,0)"><g transform="translate(0,108.67959008838864)"/><g transform="translate(0.6,0)"><g transform="translate(0,130.18653633172337)"/><g transform="translate(0.6,0)"><g transform="translate(0,216.65952381921164)"/><g transform="translate(0.6,0)"><g transform="translate(0,175.78089998056197)"/><g transform="translate(0.6,0)"><g transform="translate(0,67.53453355870526)"/><g transform="translate(0.6,0)"><g transform="translate(0,87.77314214044257)"/><g transform="translate(0.6,0)"><g transform="translate(0,179.5256332695567)"/><g transform="translate(0.6,0)"><g transform="translate(0,156.94908394932813)"/><g transform="translate(0.6,0)"><g transform="translate(0,137.62492354030272)"/><g transform="translate(0.6,0)"><g transform="translate(0,132.66719844178567)"/><g transform="translate(0.6,0)"><g transform="translate(0,151.19324517239835)"/><g transform="translate(0.6,0)"><g transform="translate(0,221.4132001101864)"/><g transform="translate(0.6,0)"><g transform="translate(0,208.10966462565085)"/><g transform="translate(0.6,0)"><g transform="translate(0,148.2003648424759)"/><g transform="translate(0.6,0)"><g transform="translate(0,70.46779426618933)"/><g transform="translate(0.6,0)"><g transform="translate(0,187.85123129961246)"/><g transform="translate(0.6,0)"><g transform="translate(0,147.1760189377332)"/><g transform="translate(0.6,0)"><g transform="translate(0,116.43858808832455)"/><g transform="translate(0.6,0)"><g transform="translate(0,177.94403058789325)"/><g transform="translate(0.6,0)"><g transform="translate(0,230.21838295582702)"/><g transform="translate(0.6,0)"><g transform="translate(0,70.99943247645913)"/><g transform="translate(0.6,0)"><g transform="translate(0,141.6738606101433)"/><g transform="translate(0.6,0)"><g transform="translate(0,200.52005712016177)"/><g transform="translate(0.6,0)"><g transform="translate(0,208.2967105155175)"/><g transform="translate(0.6,0)"><g transform="translate(0,80.02933563752516)"/><g transform="translate(0.6,0)"><g transform="translate(0,133.63731915807224)"/><g transform="translate(0.6,0)"><g transform="translate(0,97.03727322631204)"/><g transform="translate(0.6,0)"><g transform="translate(0,186.295818641875)"/><g transform="translate(0.6,0)"><g transform="translate(0,200.7055666710829)"/><g transform="translate(0.6,0)"><g transform="translate(0,127.3487998134108)"/><g transform="translate(0.6,0)"><g transform="translate(0,84.11158066731828)"/><g transform="translate(0.6,0)"><g transform="translate(0,156.43954821984266)"/><g transform="translate(0.6,0)"><g transform="translate(0,107.14231104065429)"/><g transform="translate(0.6,0)"><g transform="translate(0,200.63301791962286)"/><g transform="translate(0.6,0)"><g transform="translate(0,200.76236670672174)"/><g transform="translate(0.6,0)"><g transform="translate(0,81.88771918258138)"/><g transform="translate(0.6,0)"><g transform="translate(0,213.2436750616983)"/><g transform="translate(0.6,0)"><g transform="translate(0,182.3730608860061)"/><g transform="translate(0.6,0)"><g transform="translate(0,176.54099546435214)"/><g transform="translate(0.6,0)"><g transform="translate(0,65.25943412529195)"/><g transform="translate(0.6,0)"><g transform="translate(0,194.16976702440596)"/><g transform="translate(0.6,0)"><g transform="translate(0,192.34737329528306)"/><g transform="translate(0.6,0)"><g transform="translate(0,174.65368733796086)"/><g transform="translate(0.6,0)"><g transform="translate(0,136.25368539591696)"/><g transform="translate(0.6,0)"><g transform="translate(0,184.9001467351677)"/><g transform="translate(0.6,0)"><g transform="translate(0,36.542666391945694)"/><g transform="translate(0.6,0)"><g transform="translate(0,193.00732794529122)"/><g transform="translate(0.6,0)"><g transform="translate(0,146.69586022129303)"/><g transform="translate(0.6,0)"><g transform="translate(0,127.31747112987748)"/><g transform="translate(0.6,0)"><g transform="translate(0,92.98101490231019)"/><g transform="translate(0.6,0)"><g transform="translate(0,110.70639478851605)"/><g transform="translate(0.6,0)"><g transform="translate(0,188.39120942235144)"/><g transform="translate(0.6,0)"><g transform="translate(0,101.78636356576017)"/><g transform="translate(0.6,0)"><g transform="translate(0,141.30077466860004)"/><g transform="translate(0.6,0)"><g transform="translate(0,155.52732600939254)"/><g transform="translate(0.6,0)"><g transform="translate(0,184.73851258968085)"/><g transform="translate(0.6,0)"><g transform="translate(0,134.41287507478503)"/><g transform="translate(0.6,0)"><g transform="translate(0,146.69054312899038)"/><g transform="translate(0.6,0)"><g transform="translate(0,167.86427288937261)"/><g transform="translate(0.6,0)"><g transform="translate(0,166.62983877465516)"/><g transform="translate(0.6,0)"><g transform="translate(0,50.870771862328894)"/><g transform="translate(0.6,0)"><g transform="translate(0,143.8161612307163)"/><g transform="translate(0.6,0)"><g transform="translate(0,233.39757092592458)"/><g transform="translate(0.6,0)"><g transform="translate(0,96.59937695912048)"/><g transform="translate(0.6,0)"><g transform="translate(0,235.1306181432076)"/><g transform="translate(0.6,0)"><g transform="translate(0,132.88350339996157)"/><g transform="translate(0.6,0)"><g transform="translate(0,221.74747577033864)"/><g transform="translate(0.6,0)"><g transform="translate(0,119.55272701074026)"/><g transform="translate(0.6,0)"><g transform="translate(0,167.93566571807756)"/><g transform="translate(0.6,0)"><g transform="translate(0,200.4660788275388)"/><g transform="translate(0.6,0)"><g transform="translate(0,83.46948775480664)"/><g transform="translate(0.6,0)"><g transform="translate(0,198.22038758799363)"/><g transform="translate(0.6,0)"><g transform="translate(0,116.6809663071728)"/><g transform="translate(0.6,0)"><g transform="translate(0,130.68943930549577)"/><g transform="translate(0.6,0)"><g transform="translate(0,101.09536869838892)"/><g transform="translate(0.6,0)"><g transform="translate(0,200.16842475950213)"/><g transform="translate(0.6,0)"><g transform="translate(0,99.28978021377027)"/><g transform="translate(0.6,0)"><g transform="translate(0,197.39262946101263)"/><g transform="translate(0.6,0)"><g transform="translate(0,98.85331485282745)"/><g transform="translate(0.6,0)"><g transform="translate(0,120.1123799990205)"/><g transform="translate(0.6,0)"><g transform="translate(0,196.33170522357238)"/><g transform="translate(0.6,0)"><g transform="translate(0,96.80245671138968)"/><g transform="translate(0.6,0)"><g transform="translate(0,126.42125978285927)"/><g transform="translate(0.6,0)"><g transform="translate(0,230.74199041141966)"/><g transform="translate(0.6,0)"><g transform="translate(0,183.42627722360837)"/><g transform="translate(0.6,0)"><g transform="translate(0,36.664226750783214)"/><g transform="translate(0.6,0)"><g transform="translate(0,144.90943115477805)"/><g transform="translate(0.6,0)"><g transform="translate(0,185.6489341806624)"/><g transform="translate(0.6,0)"><g transform="translate(0,167.80601710832482)"/><g transform="translate(0.6,0)"><g transform="translate(0,86.92046730458414)"/><g transform="translate(0.6,0)"><g transform="translate(0,115.62724225405117)"/><g transform="translate(0.6,0)"><g transform="translate(0,215.77957625627815)"/><g transform="translate(0.6,0)"><g transform="translate(0,234.7295172527321)"/><g transform="translate(0.6,0)"><g transform="translate(0,145.11303288946868)"/><g transform="translate(0.6,0)"><g transform="translate(0,207.1585049710709)"/><g transform="translate(0.6,0)"><g transform="translate(0,185.4795748765972)"/><g transform="translate(0.6,0)"><g transform="translate(0,127.08307217392817)"/><g transform="translate(0.6,0)"><g transform="translate(0,156.52288687958074)"/><g transform="translate(0.6,0)"><g transform="translate(0,205.04590367066274)"/><g transform="translate(0.6,0)"><g transform="translate(0,172.16219233497537)"/><g transform="translate(0.6,0)"><g transform="translate(0,100.43499182093464)"/><g transform="translate(0.6,0)"><g transform="translate(0,87.40622010683548)"/><g transform="translate(0.6,0)"><g transform="translate(0,180.93490618522105)"/><g transform="translate(0.6,0)"><g transform="translate(0,133.85957934623158)"/><g transform="translate(0.6,0)"><g transform="translate(0,150.25589276515177)"/><g transform="translate(0.6,0)"><g transform="translate(0,108.10820811734901)"/><g transform="translate(0.6,0)"><g transform="translate(0,122.01418600847933)"/><g transform="translate(0.6,0)"><g transform="translate(0,211.10558878949348)"/><g transform="translate(0.6,0)"><g transform="translate(0,57.836279869528326)"/><g transform="translate(0.6,0)"><g transform="translate(0,217.46464637685963)"/><g transform="translate(0.6,0)"><g transform="translate(0,235.65852518112942)"/><g transform="translate(0.6,0)"><g transform="translate(0,205.20335993163658)"/><g transform="translate(0.6,0)"><g transform="translate(0,128.11213393593508)"/><g transform="translate(0.6,0)"><g transform="translate(0,174.8797497946228)"/><g transform="translate(0.6,0)"><g transform="translate(0,226.8470062693922)"/><g transform="translate(0.6,0)"><g transform="translate(0,123.94641479798814)"/><g transform="translate(0.6,0)"><g transform="translate(0,130.94178702217621)"/><g transform="translate(0.6,0)"><g transform="translate(0,97.99467277507163)"/><g transform="translate(0.6,0)"><g transform="translate(0,132.49493391718732)"/><g transform="translate(0.6,0)"><g transform="translate(0,208.37950777157616)"/><g transform="translate(0.6,0)"><g transform="translate(0,57.291762052643264)"/><g transform="translate(0.6,0)"><g transform="translate(0,220.42426401974853)"/><g transform="translate(0.6,0)"><g transform="translate(0,186.9586055439337)"/><g transform="translate(0.6,0)"><g transform="translate(0,71.43001234305207)"/><g transform="translate(0.6,0)"><g transform="translate(0,109.12336489363106)"/><g transform="translate(0.6,0)"><g transform="translate(0,120.42249919981334)"/><g transform="translate(0.6,0)"><g transform="translate(0,108.29567003405491)"/><g transform="translate(0.6,0)"><g transform="translate(0,184.12993165948237)"/><g transform="translate(0.6,0)"><g transform="translate(0,196.86723851438177)"/><g transform="translate(0.6,0)"><g transform="translate(0,164.09842259523947)"/><g transform="translate(0.6,0)"><g transform="translate(0,188.91666055016685)"/><g transform="translate(0.6,0)"><g transform="translate(0,178.33826905675772)"/><g transform="translate(0.6,0)"><g transform="translate(0,188.85105431789034)"/><g transform="translate(0.6,0)"><g transform="translate(0,146.58200326330862)"/><g transform="translate(0.6,0)"><g transform="translate(0,169.5840338029429)"/><g transform="translate(0.6,0)"><g transform="translate(0,237.11659886768282)"/><g transform="translate(0.6,0)"><g transform="translate(0,163.6221130678957)"/><g transform="translate(0.6,0)"><g transform="translate(0,195.82295418434316)"/><g transform="translate(0.6,0)"><g transform="translate(0,178.79578618414865)"/><g transform="translate(0.6,0)"><g transform="translate(0,192.9646126341263)"/><g transform="translate(0.6,0)"><g transform="translate(0,126.87958354704486)"/><g transform="translate(0.6,0)"><g transform="translate(0,144.60356443292665)"/><g transform="translate(0.6,0)"><g transform="translate(0,90.10733092517034)"/><g transform="translate(0.6,0)"><g transform="translate(0,212.74142209345789)"/><g transform="translate(0.6,0)"><g transform="translate(0,54.06791407313638)"/><g transform="translate(0.6,0)"><g transform="translate(0,166.11060398455137)"/><g transform="translate(0.6,0)"><g transform="translate(0,137.0966770926599)"/><g transform="translate(0.6,0)"><g transform="translate(0,172.6884414856639)"/><g transform="translate(0.6,0)"><g transform="translate(0,189.9396253973002)"/><g transform="translate(0.6,0)"><g transform="translate(0,63.27755445409853)"/><g transform="translate(0.6,0)"><g transform="translate(0,107.29779189413183)"/><g transform="translate(0.6,0)"><g transform="translate(0,168.28556887224636)"/><g transform="translate(0.6,0)"><g transform="translate(0,152.02609494173112)"/><g transform="translate(0.6,0)"><g transform="translate(0,69.6906950274004)"/><g transform="translate(0.6,0)"><g transform="translate(0,162.89462979824728)"/><g transform="translate(0.6,0)"><g transform="translate(0,204.3036453014989)"/><g transform="translate(0.6,0)"><g transform="translate(0,100.5353917032198)"/><g transform="translate(0.6,0)"><g transform="translate(0,78.78319963150929)"/><g transform="translate(0.6,0)"><g transform="translate(0,70.28194217852318)"/><g transform="translate(0.6,0)"><g transform="translate(0,154.27490368968844)"/><g transform="translate(0.6,0)"><g transform="translate(0,82.75781016883916)"/><g transform="translate(0.6,0)"><g transform="translate(0,102.0889747899119)"/><g transform="translate(0.6,0)"><g transform="translate(0,156.70105857354974)"/><g transform="translate(0.6,0)"><g transform="translate(0,102.73294711740549)"/><g transform="translate(0.6,0)"><g transform="translate(0,80.19223860540725)"/><g transform="translate(0.6,0)"><g transform="translate(0,180.75661202893235)"/><g transform="translate(0.6,0)"><g transform="translate(0,186.49130112562045)"/><g transform="translate(0.6,0)"><g transform="translate(0,37.2121252162723)"/><g transform="translate(0.6,0)"><g transform="translate(0,73.9383602824009)"/><g transform="translate(0.6,0)"><g transform="translate(0,110.00984316092041)"/><g transform="translate(0.6,0)"><g transform="translate(0,92.59005358687637)"/><g transform="translate(0.6,0)"><g transform="translate(0,216.8454917813107)"/><g transform="translate(0.6,0)"><g transform="translate(0,107.55189720162764)"/><g transform="translate(0.6,0)"><g transform="translate(0,78.52273804175823)"/><g transform="translate(0.6,0)"><g transform="translate(0,104.518331357855)"/><g transform="translate(0.6,0)"><g transform="translate(0,119.6577118837905)"/><g transform="translate(0.6,0)"><g transform="translate(0,108.77234337981773)"/><g transform="translate(0.6,0)"><g transform="translate(0,99.38581989764417)"/><g transform="translate(0.6,0)"><g transform="translate(0,103.45727055062106)"/><g transform="translate(0.6,0)"><g transform="translate(0,86.86876437336248)"/><g transform="translate(0.6,0)"><g transform="translate(0,145.33034865502128)"/><g transform="translate(0.6,0)"><g transform="translate(0,202.3555509104567)"/><g transform="translate(0.6,0)"><g transform="translate(0,45.777694736126435)"/><g transform="translate(0.6,0)"><g transform="translate(0,148.8059415121564)"/><g transform="translate(0.6,0)"><g transform="translate(0,141.00054230292412)"/><g transform="translate(0.6,0)"><g transform="translate(0,156.470894463508)"/><g transform="translate(0.6,0)"><g transform="translate(0,113.29629743199928)"/><g transform="translate(0.6,0)"><g transform="translate(0,160.85885379537706)"/><g transform="translate(0.6,0)"><g transform="translate(0,72.64736822604569)"/><g transform="translate(0.6,0)"><g transform="translate(0,102.46549588097568)"/><g transform="translate(0.6,0)"><g transform="translate(0,180.16488858150333)"/><g transform="translate(0.6,0)"><g transform="translate(0,67.3838590684728)"/><g transform="translate(0.6,0)"><g transform="translate(0,110.43012301120739)"/><g transform="translate(0.6,0)"><g transform="translate(0,260.7245305169837)"/><g transform="translate(0.6,0)"><g transform="translate(0,117.70135317502684)"/><g transform="translate(0.6,0)"><g transform="translate(0,190.93259147946995)"/><g transform="translate(0.6,0)"><g transform="translate(0,200.68595378512435)"/><g transform="translate(0.6,0)"><g transform="translate(0,68.85079915735189)"/><g transform="translate(0.6,0)"><g transform="translate(0,230.36429325454185)"/><g transform="translate(0.6,0)"><g transform="translate(0,165.28219775305513)"/><g transform="translate(0.6,0)"><g transform="translate(0,152.25194658755424)"/><g transform="translate(0.6,0)"><g transform="translate(0,168.48381998173835)"/><g transform="translate(0.6,0)"><g transform="translate(0,172.3479297135431)"/><g transform="translate(0.6,0)"><g transform="translate(0,123.59987913597344)"/><g transform="translate(0.6,0)"><g transform="translate(0,126.96087342122745)"/><g transform="translate(0.6,0)"><g transform="translate(0,182.46736830150928)"/><g transform="translate(0.6,0)"><g transform="translate(0,158.26639575501002)"/><g transform="translate(0.6,0)"><g transform="translate(0,175.23935577785343)"/><g transform="translate(0.6,0)"><g transform="translate(0,85.58810716977034)"/><g transform="translate(0.6,0)"><g transform="translate(0,73.96461208988212)"/><g transform="translate(0.6,0)"><g transform="translate(0,70.12345805971782)"/><g transform="translate(0.6,0)"><g transform="translate(0,153.95127395051537)"/><g transform="translate(0.6,0)"><g transform="translate(0,223.06887497542428)"/><g transform="translate(0.6,0)"><g transform="translate(0,69.40862946782755)"/><g transform="translate(0.6,0)"><g transform="translate(0,190.37284667594326)"/><g transform="translate(0.6,0)"><g transform="translate(0,170.88793007962553)"/><g transform="translate(0.6,0)"><g transform="translate(0,197.39847228812323)"/><g transform="translate(0.6,0)"><g transform="translate(0,134.29727435772836)"/><g transform="translate(0.6,0)"><g transform="translate(0,189.12050933756137)"/><g transform="translate(0.6,0)"><g transform="translate(0,132.65727810569635)"/><g transform="translate(0.6,0)"><g transform="translate(0,145.4522321800902)"/><g transform="translate(0.6,0)"><g transform="translate(0,140.46134195572182)"/><g transform="translate(0.6,0)"><g transform="translate(0,228.7292529944473)"/><g transform="translate(0.6,0)"><g transform="translate(0,204.97930406687814)"/><g transform="translate(0.6,0)"><g transform="translate(0,142.82368891293382)"/><g transform="translate(0.6,0)"><g transform="translate(0,88.26451221556641)"/><g transform="translate(0.6,0)"><g transform="translate(0,164.45285130532156)"/><g transform="translate(0.6,0)"><g transform="translate(0,195.85803297152438)"/><g transform="translate(0.6,0)"><g transform="translate(0,86.42659539431496)"/><g transform="translate(0.6,0)"><g transform="translate(0,60.37584680564686)"/><g transform="translate(0.6,0)"><g transform="translate(0,109.02354721696128)"/><g transform="translate(0.6,0)"><g transform="translate(0,70.47825892622289)"/><g transform="translate(0.6,0)"><g transform="translate(0,217.89183783712107)"/><g transform="translate(0.6,0)"><g transform="translate(0,153.20518242666867)"/><g transform="translate(0.6,0)"><g transform="translate(0,120.04762486352814)"/><g transform="translate(0.6,0)"><g transform="translate(0,105.1908149066941)"/><g transform="translate(0.6,0)"><g transform="translate(0,183.36923026739967)"/><g transform="translate(0.6,0)"><g transform="translate(0,67.24797096651686)"/><g transform="translate(0.6,0)"><g transform="translate(0,216.18988034009845)"/><g transform="translate(0.6,0)"><g transform="translate(0,127.14710928056067)"/><g transform="translate(0.6,0)"><g transform="translate(0,104.35462199698654)"/><g transform="translate(0.6,0)"><g transform="translate(0,125.24099776563055)"/><g transform="translate(0.6,0)"><g transform="translate(0,148.21670649517986)"/><g transform="translate(0.6,0)"><g transform="translate(0,208.7324621634686)"/><g transform="translate(0.6,0)"><g transform="translate(0,60.84658900312421)"/><g transform="translate(0.6,0)"><g transform="translate(0,146.57930077104183)"/><g transform="translate(0.6,0)"><g transform="translate(0,9.143957424053632)"/><g transform="translate(0.6,0)"><g transform="translate(0,106.72442673709652)"/><g transform="translate(0.6,0)"><g transform="translate(0,89.02204265989658)"/><g transform="translate(0.6,0)"><g transform="translate(0,171.98434028801037)"/><g transform="translate(0.6,0)"><g transform="translate(0,174.81448679476418)"/><g transform="translate(0.6,0)"><g transform="translate(0,74.7762518115198)"/><g transform="translate(0.6,0)"><g transform="translate(0,125.69040152253888)"/><g transform="translate(0.6,0)"><g transform="translate(0,90.57774147489708)"/><g transform="translate(0.6,0)"><g transform="translate(0,146.1256634925772)"/><g transform="translate(0.6,0)"><g transform="translate(0,226.31698645991523)"/><g transform="translate(0.6,0)"><g transform="translate(0,88.54083598669486)"/><g transform="translate(0.6,0)"><g transform="translate(0,142.79319602643275)"/><g transform="translate(0.6,0)"><g transform="translate(0,175.0459620912283)"/><g transform="translate(0.6,0)"><g transform="translate(0,125.3620311628736)"/><g transform="translate(0.6,0)"><g transform="translate(0,82.57757824405199)"/><g transform="translate(0.6,0)"><g transform="translate(0,94.82108302869594)"/><g transform="translate(0.6,0)"><g transform="translate(0,128.3168673806937)"/><g transform="translate(0.6,0)"><g transform="translate(0,105.73998551799602)"/><g transform="translate(0.6,0)"><g transform="translate(0,153.27736256157874)"/><g transform="translate(0.6,0)"><g transform="translate(0,74.24047553535854)"/><g transform="translate(0.6,0)"><g transform="translate(0,189.69570380491822)"/><g transform="translate(0.6,0)"><g transform="translate(0,208.69947041561431)"/><g transform="translate(0.6,0)"><g transform="translate(0,209.1241934101751)"/><g transform="translate(0.6,0)"><g transform="translate(0,130.65855200363984)"/><g transform="translate(0.6,0)"><g transform="translate(0,216.7412508074724)"/><g transform="translate(0.6,0)"><g transform="translate(0,222.19195387475034)"/><g transform="translate(0.6,0)"><g transform="translate(0,121.83554648599332)"/><g transform="translate(0.6,0)"><g transform="translate(0,152.4806719334087)"/><g transform="translate(0.6,0)"><g transform="translate(0,107.53444501517416)"/><g transform="translate(0.6,0)"><g transform="translate(0,229.6006208676819)"/><g transform="translate(0.6,0)"><g transform="translate(0,144.26060924864117)"/><g transform="translate(0.6,0)"><g transform="translate(0,201.49372817783095)"/><g transform="translate(0.6,0)"><g transform="translate(0,130.89307894048602)"/><g transform="translate(0.6,0)"><g transform="translate(0,142.82867705170418)"/><g transform="translate(0.6,0)"><g transform="translate(0,198.61841795427938)"/><g transform="translate(0.6,0)"><g transform="translate(0,153.82027219068877)"/><g transform="translate(0.6,0)"><g transform="translate(0,202.74679715351692)"/><g transform="translate(0.6,0)"><g transform="translate(0,107.4350804571677)"/><g transform="translate(0.6,0)"><g transform="translate(0,16.350415263958432)"/><g transform="translate(0.6,0)"><g transform="translate(0,192.13381698898445)"/><g transform="translate(0.6,0)"><g transform="translate(0,77.1308641424005)"/><g transform="translate(0.6,0)"><g transform="translate(0,158.33999390999992)"/><g transform="translate(0.6,0)"><g transform="translate(0,228.20632929564044)"/><g transform="translate(0.6,0)"><g transform="translate(0,220.48027524143777)"/><g transform="translate(0.6,0)"><g transform="translate(0,61.14575187533692)"/><g transform="translate(0.6,0)"><g transform="translate(0,196.82453044410983)"/><g transform="translate(0.6,0)"><g transform="translate(0,89.26500589877698)"/><g transform="translate(0.6,0)"><g transform="translate(0,88.50745557804646)"/><g transform="translate(0.6,0)"><g transform="translate(0,165.15530808690994)"/><g transform="translate(0.6,0)"><g transform="translate(0,176.4563117998304)"/><g transform="translate(0.6,0)"><g transform="translate(0,112.77993945568203)"/><g transform="translate(0.6,0)"><g transform="translate(0,77.79670325187195)"/><g transform="translate(0.6,0)"><g transform="translate(0,119.28750907246545)"/><g transform="translate(0.6,0)"><g transform="translate(0,194.5773921592088)"/><g transform="translate(0.6,0)"><g transform="translate(0,207.31844425254775)"/><g transform="translate(0.6,0)"><g transform="translate(0,216.92647745750506)"/><g transform="translate(0.6,0)"><g transform="translate(0,172.03475633528566)"/><g transform="translate(0.6,0)"><g transform="translate(0,200.99526823367103)"/><g transform="translate(0.6,0)"><g transform="translate(0,134.03355895444452)"/><g transform="translate(0.6,0)"><g transform="translate(0,199.38777952805881)"/><g transform="translate(0.6,0)"><g transform="translate(0,162.46408008445326)"/><g transform="translate(0.6,0)"><g transform="translate(0,121.36625488086985)"/><g transform="translate(0.6,0)"><g transform="translate(0,162.10648131244088)"/><g transform="translate(0.6,0)"><g transform="translate(0,95.99680003487188)"/><g transform="translate(0.6,0)"><g transform="translate(0,37.645785918473194)"/><g transform="translate(0.6,0)"/></g></g></g></g></g></g></g></g></g></g></g></g></g></g></g></g></g></g></g></g></g></g></g></g></g></g></g></g></g></g></g></g></g></g></g></g></g></g></g></g></g></g></g></g></g></g></g></g></g></g></g></g></g></g></g></g></g></g></g></g></g></g></g></g></g></g></g></g></g></g></g></g></g></g></g></g></g></g></g></g></g></g></g></g></g></g></g></g></g></g></g></g></g></g></g></g></g></g></g></g></g></g></g></g></g></g></g></g></g></g></g></g></g></g></g></g></g></g></g></g></g></g></g></g></g></g></g></g></g></g></g></g></g></g></g></g></g></g></g></g></g></g></g></g></g></g></g></g></g></g></g></g></g></g></g></g></g></g></g></g></g></g></g></g></g></g></g></g></g></g></g></g></g></g></g></g></g></g></g></g></g></g></g></g></g></g></g></g></g></g></g></g></g></g></g></g></g></g></g></g></g></g></g></g></g></g></g></g></g></g></g></g></g></g></g></g></g></g></g></g></g></g></g></g></g></g></g></g></g></g></g></g></g></g></g></g></g></g></g></g></g></g></g></g></g></g></g></g></g></g></g></g></g></g></g></g></g></g></g></g></g></g></g></g></g></g></g></g></g></g></g></g></g></g></g></g></g></g></g></g></g></g></g></g></g></g></g></g></g></g></g></g></g></g></g></g></g></g></g></g></g></g></g></g></g></g></g></g></g></g></g></g></g></g></g></g></g></g></g></g></g></g></g></g></g></g></g></g></g></g></g></g></g></g></g></g></g></g></g></g></g></g></g></g></g></g></g></g></g></g></g></g></g></g></g></g></g></g></g></g></g></g></g></g></g></g></g></g></g></g></g></g></g></g></g></g></g></g></g></g></g></g></g></g></g></g></g></g></g></g></g></g></g></g></g></g></g></g></g></g></g></g></g></g></g></g></g></g></g></g></g></g></g></g></g></g></g></g></g></g></g></g></g></g></g></g></g></g></g></g></g></g></g></g></g></g></g></g></g></g></g></g></g></g></g></g></g></g></g></g></g></g></g></g></g></g></g></g></g></g></g></g></g></g></g></g></g></g></g></g></g></g></g></g></g></g></g></g></g></g></g></g></g></g></g></g></g></g></g></g></g></g></g></g></g></g></g></g></g></g></g></g></g></g></g></g></g></g></g></g></g></g></g></g></g></g></g></g></g></g></g></g></g></g></g></g></g></g></g></g></g></g></g></g></g></g></g></g></g></g></g></g></g></g></g></g></g></g></g></g></g></g></g></g></g></g></g></g></g></g></g></g></g></g></g></g></g></g></g></g></g></g></g></g></g></g></g></g></g></g></g></g></g></g></g></g></g></g></g></g></g></g></g></g></g></g></g></g></g></g></g></g></g></g></g></g></g></g></g></g></g></g></g></g></g></g></g></g></g></g></g></g></g></g></g></g></g></g></g></g></g></g></g></g></g></g></g></g></g></g></g></g></g></g></g></g></g></g></g></g></g></g></g></g></g></g></g></g></g></g></g></g></g></g></g></g></g></g></g></g></g></g></g></g></g></g></g></g></g></g></g></g></g></g></g></g></g></g></g></g></g></g></g></g></g></g></g></g></g></g></g></g></g></g></g></g></g></g></g></g></g></g></g></g></g></g></g></g></g></g></g></g></g></g></g></g></g></g></g></g></g></g></g></g></g></g></g></g></g></g></g></g></g></g></g></g></g></g></g></g></g></g></g></g></g></g></g></g></g></g></g></g></g></g></g></g></g></g></g></g></g></g></g></g></g></g></g></g></g></g></g></g></g></g></g></g></g></g></g></g></g></g></g></g></g></g></g></g></g></g></g></g></g></g></g></g></g></g></g></g></g></g></g></g></g></g></g></g></g></g></g></g></g></g></g></g></g></g></g></g></g></g></g></g></g></g></g></g></g></g></g></g></g></g></g></g></g></g></g></g></g></g></g></g></g></g></g></g></g></g></g></g></g></g></g></g></g></g></g></g></g></g></g></g></g></g></g></g></g></g></g></g></g></g></g></g></g></g></g></g></g></g></g></g></g></g></g></g></g></g></g></g></g></g></g></g></g></g></g></g></g></g></g></g></g></g></g></g></g></g></g></g></g></g></g></g></g></g></g></g></g></g></g></g></g></g></g></g></g></g></g></g></g></g></g></g></g></g></g></g></g></g></g></g></g></g></g></g></g></g></g></g></g></g></g></g></g></g></g></g></g></g></g></g></g></g></g></g></g></g></g></g></g></g></g></g></g></g></g></g></g></g></g></g></g></g></g></g></g></g></g></svg>