<svg version="1.1" xmlns="http://www.w3.org/2000/svg" xmlns:xlink="http://www.w3.org/1999/xlink" width="600" height="600" viewBox="0 0 600 600"><defs/><g transform="scale(1,1)"><g transform="scale(1,1)"><rect fill="rgb(0,0,0)" stroke="none" x="0" y="0" width="600" height="600" fill-opacity="1"/></g><g><g transform="translate(0,300) rotate(Infinity,0,0)"><path fill="rgb(255,0,0)" stroke="none" paint-order="stroke fill markers" d=" M 0 0 L 35.0305332126898 0 L 35.0305332126898 35.0305332126898 L 0 35.0305332126898 L 0 0 Z" fill-opacity="0.5882352941176471"/></g><g transform="translate(6,0)"><g transform="translate(0,301.46086752351823) rotate(18000,0,0)"><path fill="rgb(255,127,0)" stroke="none" paint-order="stroke fill markers" d=" M 0 0 L 35.51748905386253 0 L 35.51748905386253 35.51748905386253 L 0 35.51748905386253 L 0 0 Z" fill-opacity="0.5882352941176471"/></g><g transform="translate(6,0)"><g transform="translate(0,304.64418602152057) rotate(9000,0,0)"><path fill="rgb(255,255,0)" stroke="none" paint-order="stroke fill markers" d=" M 0 0 L 36.57859521986332 0 L 36.57859521986332 36.57859521986332 L 0 36.57859521986332 L 0 0 Z" fill-opacity="0.5882352941176471"/></g><g transform="translate(6,0)"><g transform="translate(0,306.9351367888156) rotate(6000.000000000001,0,0)"><path fill="rgb(0,255,0)" stroke="none" paint-order="stroke fill markers" d=" M 0 0 L 37.342245475628346 0 L 37.342245475628346 37.342245475628346 L 0 37.342245475628346 L 0 0 Z" fill-opacity="0.5882352941176471"/></g><g transform="translate(6,0)"><g transform="translate(0,305.84080302149096) rotate(4500,0,0)"><path fill="rgb(0,0,255)" stroke="none" paint-order="stroke fill markers" d=" M 0 0 L 36.977467553186784 0 L 36.977467553186784 36.977467553186784 L 0 36.977467553186784 L 0 0 Z" fill-opacity="0.5882352941176471"/></g><g transform="translate(6,0)"><g transform="translate(0,305.9345874964723) rotate(3600,0,0)"><path fill="rgb(75,0,130)" stroke="none" paint-order="stroke fill markers" d=" M 0 0 L 37.00872904484724 0 L 37.00872904484724 37.00872904484724 L 0 37.00872904484724 L 0 0 Z" fill-opacity="0.5882352941176471"/></g><g transform="translate(6,0)"><g transform="translate(0,311.2925387156052) rotate(3000.0000000000005,0,0)"><path fill="rgb(148,0,211)" stroke="none" paint-order="stroke fill markers" d=" M 0 0 L 38.79471278455819 0 L 38.79471278455819 38.79471278455819 L 0 38.79471278455819 L 0 0 Z" fill-opacity="0.5882352941176471"/></g><g transform="translate(6,0)"><g transform="translate(0,317.12429363584346) rotate(2571.4285714285716,0,0)"><path fill="rgb(255,0,0)" stroke="none" paint-order="stroke fill markers" d=" M 0 0 L 40.73863109130428 0 L 40.73863109130428 40.73863109130428 L 0 40.73863109130428 L 0 0 Z" fill-opacity="0.5882352941176471"/></g><g transform="translate(6,0)"><g transform="translate(0,315.54763845702337) rotate(2250,0,0)"><path fill="rgb(255,127,0)" stroke="none" paint-order="stroke fill markers" d=" M 0 0 L 40.213079365030914 0 L 40.213079365030914 40.213079365030914 L 0 40.213079365030914 L 0 0 Z" fill-opacity="0.5882352941176471"/></g><g transform="translate(6,0)"><g transform="translate(0,310.9338874812731) rotate(2000.0000000000002,0,0)"><path fill="rgb(255,255,0)" stroke="none" paint-order="stroke fill markers" d=" M 0 0 L 38.675162373114155 0 L 38.675162373114155 38.675162373114155 L 0 38.675162373114155 L 0 0 Z" fill-opacity="0.5882352941176471"/></g><g transform="translate(6,0)"><g transform="translate(0,309.303760196788) rotate(1800,0,0)"><path fill="rgb(0,255,0)" stroke="none" paint-order="stroke fill markers" d=" M 0 0 L 38.13178661161914 0 L 38.13178661161914 38.13178661161914 L 0 38.13178661161914 L 0 0 Z" fill-opacity="0.5882352941176471"/></g><g transform="translate(6,0)"><g transform="translate(0,310.63341431471) rotate(1636.3636363636365,0,0)"><path fill="rgb(0,0,255)" stroke="none" paint-order="stroke fill markers" d=" M 0 0 L 38.57500465092647 0 L 38.57500465092647 38.57500465092647 L 0 38.57500465092647 L 0 0 Z" fill-opacity="0.5882352941176471"/></g><g transform="translate(6,0)"><g transform="translate(0,313.4474135403154) rotate(1500.0000000000002,0,0)"><path fill="rgb(75,0,130)" stroke="none" paint-order="stroke fill markers" d=" M 0 0 L 39.51300439279492 0 L 39.51300439279492 39.51300439279492 L 0 39.51300439279492 L 0 0 Z" fill-opacity="0.5882352941176471"/></g><g transform="translate(6,0)"><g transform="translate(0,321.7268652883479) rotate(1384.6153846153845,0,0)"><path fill="rgb(148,0,211)" stroke="none" paint-order="stroke fill markers" d=" M 0 0 L 42.27282164213909 0 L 42.27282164213909 42.27282164213909 L 0 42.27282164213909 L 0 0 Z" fill-opacity="0.5882352941176471"/></g><g transform="translate(6,0)"><g transform="translate(0,341.8974359012499) rotate(1285.7142857142858,0,0)"><path fill="rgb(255,0,0)" stroke="none" paint-order="stroke fill markers" d=" M 0 0 L 48.99634517977308 0 L 48.99634517977308 48.99634517977308 L 0 48.99634517977308 L 0 0 Z" fill-opacity="0.5882352941176471"/></g><g transform="translate(6,0)"><g transform="translate(0,351.1888654030978) rotate(1200.0000000000002,0,0)"><path fill="rgb(255,127,0)" stroke="none" paint-order="stroke fill markers" d=" M 0 0 L 52.09348834705573 0 L 52.09348834705573 52.09348834705573 L 0 52.09348834705573 L 0 0 Z" fill-opacity="0.5882352941176471"/></g><g transform="translate(6,0)"><g transform="translate(0,347.68332918644126) rotate(1125,0,0)"><path fill="rgb(255,255,0)" stroke="none" paint-order="stroke fill markers" d=" M 0 0 L 50.92497627483687 0 L 50.92497627483687 50.92497627483687 L 0 50.92497627483687 L 0 0 Z" fill-opacity="0.5882352941176471"/></g><g transform="translate(6,0)"><g transform="translate(0,343.52212842656024) rotate(1058.8235294117646,0,0)"><path fill="rgb(0,255,0)" stroke="none" paint-order="stroke fill markers" d=" M 0 0 L 49.53790935487654 0 L 49.53790935487654 49.53790935487654 L 0 49.53790935487654 L 0 0 Z" fill-opacity="0.5882352941176471"/></g><g transform="translate(6,0)"><g transform="translate(0,335.6699827617957) rotate(1000.0000000000001,0,0)"><path fill="rgb(0,0,255)" stroke="none" paint-order="stroke fill markers" d=" M 0 0 L 46.920527466621714 0 L 46.920527466621714 46.920527466621714 L 0 46.920527466621714 L 0 0 Z" fill-opacity="0.5882352941176471"/></g><g transform="translate(6,0)"><g transform="translate(0,318.12996471755423) rotate(947.3684210526317,0,0)"><path fill="rgb(75,0,130)" stroke="none" paint-order="stroke fill markers" d=" M 0 0 L 41.07385478520788 0 L 41.07385478520788 41.07385478520788 L 0 41.07385478520788 L 0 0 Z" fill-opacity="0.5882352941176471"/></g><g transform="translate(6,0)"><g transform="translate(0,308.3767897381969) rotate(900,0,0)"><path fill="rgb(148,0,211)" stroke="none" paint-order="stroke fill markers" d=" M 0 0 L 37.82279645875544 0 L 37.82279645875544 37.82279645875544 L 0 37.82279645875544 L 0 0 Z" fill-opacity="0.5882352941176471"/></g><g transform="translate(6,0)"><g transform="translate(0,306.90508216139625) rotate(857.1428571428572,0,0)"><path fill="rgb(255,0,0)" stroke="none" paint-order="stroke fill markers" d=" M 0 0 L 37.33222726648855 0 L 37.33222726648855 37.33222726648855 L 0 37.33222726648855 L 0 0 Z" fill-opacity="0.5882352941176471"/></g><g transform="translate(6,0)"><g transform="translate(0,304.68368111395944) rotate(818.1818181818182,0,0)"><path fill="rgb(255,127,0)" stroke="none" paint-order="stroke fill markers" d=" M 0 0 L 36.59176025067628 0 L 36.59176025067628 36.59176025067628 L 0 36.59176025067628 L 0 0 Z" fill-opacity="0.5882352941176471"/></g><g transform="translate(6,0)"><g transform="translate(0,305.8007765344008) rotate(782.608695652174,0,0)"><path fill="rgb(255,255,0)" stroke="none" paint-order="stroke fill markers" d=" M 0 0 L 36.96412539082342 0 L 36.96412539082342 36.96412539082342 L 0 36.96412539082342 L 0 0 Z" fill-opacity="0.5882352941176471"/></g><g transform="translate(6,0)"><g transform="translate(0,312.1558072024628) rotate(750.0000000000001,0,0)"><path fill="rgb(0,255,0)" stroke="none" paint-order="stroke fill markers" d=" M 0 0 L 39.08246894684407 0 L 39.08246894684407 39.08246894684407 L 0 39.08246894684407 L 0 0 Z" fill-opacity="0.5882352941176471"/></g><g transform="translate(6,0)"><g transform="translate(0,318.6728665929831) rotate(720,0,0)"><path fill="rgb(0,0,255)" stroke="none" paint-order="stroke fill markers" d=" M 0 0 L 41.2548220770175 0 L 41.2548220770175 41.2548220770175 L 0 41.2548220770175 L 0 0 Z" fill-opacity="0.5882352941176471"/></g><g transform="translate(6,0)"><g transform="translate(0,332.9835329159234) rotate(692.3076923076923,0,0)"><path fill="rgb(75,0,130)" stroke="none" paint-order="stroke fill markers" d=" M 0 0 L 46.02504418466426 0 L 46.02504418466426 46.02504418466426 L 0 46.02504418466426 L 0 0 Z" fill-opacity="0.5882352941176471"/></g><g transform="translate(6,0)"><g transform="translate(0,357.9254245019152) rotate(666.6666666666666,0,0)"><path fill="rgb(148,0,211)" stroke="none" paint-order="stroke fill markers" d=" M 0 0 L 54.339008046661526 0 L 54.339008046661526 54.339008046661526 L 0 54.339008046661526 L 0 0 Z" fill-opacity="0.5882352941176471"/></g><g transform="translate(6,0)"><g transform="translate(0,379.6189279886224) rotate(642.8571428571429,0,0)"><path fill="rgb(255,0,0)" stroke="none" paint-order="stroke fill markers" d=" M 0 0 L 61.570175875563926 0 L 61.570175875563926 61.570175875563926 L 0 61.570175875563926 L 0 0 Z" fill-opacity="0.5882352941176471"/></g><g transform="translate(6,0)"><g transform="translate(0,397.4969076444306) rotate(620.6896551724138,0,0)"><path fill="rgb(255,127,0)" stroke="none" paint-order="stroke fill markers" d=" M 0 0 L 67.52950242749999 0 L 67.52950242749999 67.52950242749999 L 0 67.52950242749999 L 0 0 Z" fill-opacity="0.5882352941176471"/></g><g transform="translate(6,0)"><g transform="translate(0,402.2272351913759) rotate(600.0000000000001,0,0)"><path fill="rgb(255,255,0)" stroke="none" paint-order="stroke fill markers" d=" M 0 0 L 69.10627827648176 0 L 69.10627827648176 69.10627827648176 L 0 69.10627827648176 L 0 0 Z" fill-opacity="0.5882352941176471"/></g><g transform="translate(6,0)"><g transform="translate(0,389.4230317498955) rotate(580.6451612903226,0,0)"><path fill="rgb(0,255,0)" stroke="none" paint-order="stroke fill markers" d=" M 0 0 L 64.83821046265494 0 L 64.83821046265494 64.83821046265494 L 0 64.83821046265494 L 0 0 Z" fill-opacity="0.5882352941176471"/></g><g transform="translate(6,0)"><g transform="translate(0,371.5770960854955) rotate(562.5,0,0)"><path fill="rgb(0,0,255)" stroke="none" paint-order="stroke fill markers" d=" M 0 0 L 58.8895652411883 0 L 58.8895652411883 58.8895652411883 L 0 58.8895652411883 L 0 0 Z" fill-opacity="0.5882352941176471"/></g><g transform="translate(6,0)"><g transform="translate(0,365.50464649530073) rotate(545.4545454545455,0,0)"><path fill="rgb(75,0,130)" stroke="none" paint-order="stroke fill markers" d=" M 0 0 L 56.86541537779004 0 L 56.86541537779004 56.86541537779004 L 0 56.86541537779004 L 0 0 Z" fill-opacity="0.5882352941176471"/></g><g transform="translate(6,0)"><g transform="translate(0,364.8728802174985) rotate(529.4117647058823,0,0)"><path fill="rgb(148,0,211)" stroke="none" paint-order="stroke fill markers" d=" M 0 0 L 56.65482661852263 0 L 56.65482661852263 56.65482661852263 L 0 56.65482661852263 L 0 0 Z" fill-opacity="0.5882352941176471"/></g><g transform="translate(6,0)"><g transform="translate(0,361.6271713093164) rotate(514.2857142857142,0,0)"><path fill="rgb(255,0,0)" stroke="none" paint-order="stroke fill markers" d=" M 0 0 L 55.57292364912859 0 L 55.57292364912859 55.57292364912859 L 0 55.57292364912859 L 0 0 Z" fill-opacity="0.5882352941176471"/></g><g transform="translate(6,0)"><g transform="translate(0,352.1947439549539) rotate(500.00000000000006,0,0)"><path fill="rgb(255,127,0)" stroke="none" paint-order="stroke fill markers" d=" M 0 0 L 52.42878119767442 0 L 52.42878119767442 52.42878119767442 L 0 52.42878119767442 L 0 0 Z" fill-opacity="0.5882352941176471"/></g><g transform="translate(6,0)"><g transform="translate(0,337.1224065666207) rotate(486.48648648648646,0,0)"><path fill="rgb(255,255,0)" stroke="none" paint-order="stroke fill markers" d=" M 0 0 L 47.40466873489672 0 L 47.40466873489672 47.40466873489672 L 0 47.40466873489672 L 0 0 Z" fill-opacity="0.5882352941176471"/></g><g transform="translate(6,0)"><g transform="translate(0,318.15975363885326) rotate(473.68421052631584,0,0)"><path fill="rgb(0,255,0)" stroke="none" paint-order="stroke fill markers" d=" M 0 0 L 41.08378442564089 0 L 41.08378442564089 41.08378442564089 L 0 41.08378442564089 L 0 0 Z" fill-opacity="0.5882352941176471"/></g><g transform="translate(6,0)"><g transform="translate(0,299.8671202220788) rotate(461.5384615384616,0,0)"><path fill="rgb(0,0,255)" stroke="none" paint-order="stroke fill markers" d=" M 0 0 L 34.98623995338274 0 L 34.98623995338274 34.98623995338274 L 0 34.98623995338274 L 0 0 Z" fill-opacity="0.5882352941176471"/></g><g transform="translate(6,0)"><g transform="translate(0,292.0512481486756) rotate(450,0,0)"><path fill="rgb(75,0,130)" stroke="none" paint-order="stroke fill markers" d=" M 0 0 L 32.38094926224833 0 L 32.38094926224833 32.38094926224833 L 0 32.38094926224833 L 0 0 Z" fill-opacity="0.5882352941176471"/></g><g transform="translate(6,0)"><g transform="translate(0,286.89012983532274) rotate(439.0243902439025,0,0)"><path fill="rgb(148,0,211)" stroke="none" paint-order="stroke fill markers" d=" M 0 0 L 30.66057649113071 0 L 30.66057649113071 30.66057649113071 L 0 30.66057649113071 L 0 0 Z" fill-opacity="0.5882352941176471"/></g><g transform="translate(6,0)"><g transform="translate(0,277.98464516390294) rotate(428.5714285714286,0,0)"><path fill="rgb(255,0,0)" stroke="none" paint-order="stroke fill markers" d=" M 0 0 L 27.692081600657442 0 L 27.692081600657442 27.692081600657442 L 0 27.692081600657442 L 0 0 Z" fill-opacity="0.5882352941176471"/></g><g transform="translate(6,0)"><g transform="translate(0,277.6980059160915) rotate(418.60465116279073,0,0)"><path fill="rgb(255,127,0)" stroke="none" paint-order="stroke fill markers" d=" M 0 0 L 27.5965351847203 0 L 27.5965351847203 27.5965351847203 L 0 27.5965351847203 L 0 0 Z" fill-opacity="0.5882352941176471"/></g><g transform="translate(6,0)"><g transform="translate(0,292.46079366947106) rotate(409.0909090909091,0,0)"><path fill="rgb(255,255,0)" stroke="none" paint-order="stroke fill markers" d=" M 0 0 L 32.51746443584681 0 L 32.51746443584681 32.51746443584681 L 0 32.51746443584681 L 0 0 Z" fill-opacity="0.5882352941176471"/></g><g transform="translate(6,0)"><g transform="translate(0,303.30614640080375) rotate(400,0,0)"><path fill="rgb(0,255,0)" stroke="none" paint-order="stroke fill markers" d=" M 0 0 L 36.132582012957705 0 L 36.132582012957705 36.132582012957705 L 0 36.132582012957705 L 0 0 Z" fill-opacity="0.5882352941176471"/></g><g transform="translate(6,0)"><g transform="translate(0,301.04680388939533) rotate(391.304347826087,0,0)"><path fill="rgb(0,0,255)" stroke="none" paint-order="stroke fill markers" d=" M 0 0 L 35.379467842488246 0 L 35.379467842488246 35.379467842488246 L 0 35.379467842488246 L 0 0 Z" fill-opacity="0.5882352941176471"/></g><g transform="translate(6,0)"><g transform="translate(0,297.999566401447) rotate(382.97872340425533,0,0)"><path fill="rgb(75,0,130)" stroke="none" paint-order="stroke fill markers" d=" M 0 0 L 34.36372201317213 0 L 34.36372201317213 34.36372201317213 L 0 34.36372201317213 L 0 0 Z" fill-opacity="0.5882352941176471"/></g><g transform="translate(6,0)"><g transform="translate(0,307.8804220600638) rotate(375.00000000000006,0,0)"><path fill="rgb(148,0,211)" stroke="none" paint-order="stroke fill markers" d=" M 0 0 L 37.6573405660444 0 L 37.6573405660444 37.6573405660444 L 0 37.6573405660444 L 0 0 Z" fill-opacity="0.5882352941176471"/></g><g transform="translate(6,0)"><g transform="translate(0,329.50673307880425) rotate(367.34693877551024,0,0)"><path fill="rgb(255,0,0)" stroke="none" paint-order="stroke fill markers" d=" M 0 0 L 44.86611090562454 0 L 44.86611090562454 44.86611090562454 L 0 44.86611090562454 L 0 0 Z" fill-opacity="0.5882352941176471"/></g><g transform="translate(6,0)"><g transform="translate(0,345.5558644511159) rotate(360,0,0)"><path fill="rgb(255,127,0)" stroke="none" paint-order="stroke fill markers" d=" M 0 0 L 50.21582136306177 0 L 50.21582136306177 50.21582136306177 L 0 50.21582136306177 L 0 0 Z" fill-opacity="0.5882352941176471"/></g><g transform="translate(6,0)"><g transform="translate(0,359.08751410760283) rotate(352.94117647058823,0,0)"><path fill="rgb(255,255,0)" stroke="none" paint-order="stroke fill markers" d=" M 0 0 L 54.72637124855742 0 L 54.72637124855742 54.72637124855742 L 0 54.72637124855742 L 0 0 Z" fill-opacity="0.5882352941176471"/></g><g transform="translate(6,0)"><g transform="translate(0,381.9298588617445) rotate(346.15384615384613,0,0)"><path fill="rgb(0,255,0)" stroke="none" paint-order="stroke fill markers" d=" M 0 0 L 62.34048616660464 0 L 62.34048616660464 62.34048616660464 L 0 62.34048616660464 L 0 0 Z" fill-opacity="0.5882352941176471"/></g><g transform="translate(6,0)"><g transform="translate(0,407.3393575754058) rotate(339.62264150943395,0,0)"><path fill="rgb(0,0,255)" stroke="none" paint-order="stroke fill markers" d=" M 0 0 L 70.8103190711584 0 L 70.8103190711584 70.8103190711584 L 0 70.8103190711584 L 0 0 Z" fill-opacity="0.5882352941176471"/></g><g transform="translate(6,0)"><g transform="translate(0,420.5823451516632) rotate(333.3333333333333,0,0)"><path fill="rgb(75,0,130)" stroke="none" paint-order="stroke fill markers" d=" M 0 0 L 75.2246482632442 0 L 75.2246482632442 75.2246482632442 L 0 75.2246482632442 L 0 0 Z" fill-opacity="0.5882352941176471"/></g><g transform="translate(6,0)"><g transform="translate(0,437.3711434096854) rotate(327.2727272727273,0,0)"><path fill="rgb(148,0,211)" stroke="none" paint-order="stroke fill markers" d=" M 0 0 L 80.82091434925158 0 L 80.82091434925158 80.82091434925158 L 0 80.82091434925158 L 0 0 Z" fill-opacity="0.5882352941176471"/></g><g transform="translate(6,0)"><g transform="translate(0,461.9150177980279) rotate(321.42857142857144,0,0)"><path fill="rgb(255,0,0)" stroke="none" paint-order="stroke fill markers" d=" M 0 0 L 89.00220581203244 0 L 89.00220581203244 89.00220581203244 L 0 89.00220581203244 L 0 0 Z" fill-opacity="0.5882352941176471"/></g><g transform="translate(6,0)"><g transform="translate(0,485.46478402816047) rotate(315.7894736842105,0,0)"><path fill="rgb(255,127,0)" stroke="none" paint-order="stroke fill markers" d=" M 0 0 L 96.85212788874328 0 L 96.85212788874328 96.85212788874328 L 0 96.85212788874328 L 0 0 Z" fill-opacity="0.5882352941176471"/></g><g transform="translate(6,0)"><g transform="translate(0,506.597952924119) rotate(310.3448275862069,0,0)"><path fill="rgb(255,255,0)" stroke="none" paint-order="stroke fill markers" d=" M 0 0 L 103.89651752072946 0 L 103.89651752072946 103.89651752072946 L 0 103.89651752072946 L 0 0 Z" fill-opacity="0.5882352941176471"/></g><g transform="translate(6,0)"><g transform="translate(0,525.0988938994367) rotate(305.0847457627119,0,0)"><path fill="rgb(0,255,0)" stroke="none" paint-order="stroke fill markers" d=" M 0 0 L 110.06349784583534 0 L 110.06349784583534 110.06349784583534 L 0 110.06349784583534 L 0 0 Z" fill-opacity="0.5882352941176471"/></g><g transform="translate(6,0)"><g transform="translate(0,532.8944885547412) rotate(300.00000000000006,0,0)"><path fill="rgb(0,0,255)" stroke="none" paint-order="stroke fill markers" d=" M 0 0 L 112.66202939760355 0 L 112.66202939760355 112.66202939760355 L 0 112.66202939760355 L 0 0 Z" fill-opacity="0.5882352941176471"/></g><g transform="translate(6,0)"><g transform="translate(0,534.4118973274558) rotate(295.08196721311475,0,0)"><path fill="rgb(75,0,130)" stroke="none" paint-order="stroke fill markers" d=" M 0 0 L 113.16783232184173 0 L 113.16783232184173 113.16783232184173 L 0 113.16783232184173 L 0 0 Z" fill-opacity="0.5882352941176471"/></g><g transform="translate(6,0)"><g transform="translate(0,532.2961492626816) rotate(290.3225806451613,0,0)"><path fill="rgb(148,0,211)" stroke="none" paint-order="stroke fill markers" d=" M 0 0 L 112.46258296691703 0 L 112.46258296691703 112.46258296691703 L 0 112.46258296691703 L 0 0 Z" fill-opacity="0.5882352941176471"/></g><g transform="translate(6,0)"><g transform="translate(0,517.6948882578608) rotate(285.7142857142857,0,0)"><path fill="rgb(255,0,0)" stroke="none" paint-order="stroke fill markers" d=" M 0 0 L 107.59549596531008 0 L 107.59549596531008 107.59549596531008 L 0 107.59549596531008 L 0 0 Z" fill-opacity="0.5882352941176471"/></g><g transform="translate(6,0)"><g transform="translate(0,496.9915506555867) rotate(281.25,0,0)"><path fill="rgb(255,127,0)" stroke="none" paint-order="stroke fill markers" d=" M 0 0 L 100.6943834312187 0 L 100.6943834312187 100.6943834312187 L 0 100.6943834312187 L 0 0 Z" fill-opacity="0.5882352941176471"/></g><g transform="translate(6,0)"><g transform="translate(0,486.8591193545737) rotate(276.92307692307696,0,0)"><path fill="rgb(255,255,0)" stroke="none" paint-order="stroke fill markers" d=" M 0 0 L 97.31690633088103 0 L 97.31690633088103 97.31690633088103 L 0 97.31690633088103 L 0 0 Z" fill-opacity="0.5882352941176471"/></g><g transform="translate(6,0)"><g transform="translate(0,494.17964882966436) rotate(272.72727272727275,0,0)"><path fill="rgb(0,255,0)" stroke="none" paint-order="stroke fill markers" d=" M 0 0 L 99.75708282257791 0 L 99.75708282257791 99.75708282257791 L 0 99.75708282257791 L 0 0 Z" fill-opacity="0.5882352941176471"/></g><g transform="translate(6,0)"><g transform="translate(0,507.40486673922663) rotate(268.65671641791045,0,0)"><path fill="rgb(0,0,255)" stroke="none" paint-order="stroke fill markers" d=" M 0 0 L 104.16548879243201 0 L 104.16548879243201 104.16548879243201 L 0 104.16548879243201 L 0 0 Z" fill-opacity="0.5882352941176471"/></g><g transform="translate(6,0)"><g transform="translate(0,513.0330566389146) rotate(264.70588235294116,0,0)"><path fill="rgb(75,0,130)" stroke="none" paint-order="stroke fill markers" d=" M 0 0 L 106.041552092328 0 L 106.041552092328 106.041552092328 L 0 106.041552092328 L 0 0 Z" fill-opacity="0.5882352941176471"/></g><g transform="translate(6,0)"><g transform="translate(0,517.5396115809535) rotate(260.8695652173913,0,0)"><path fill="rgb(148,0,211)" stroke="none" paint-order="stroke fill markers" d=" M 0 0 L 107.54373707300765 0 L 107.54373707300765 107.54373707300765 L 0 107.54373707300765 L 0 0 Z" fill-opacity="0.5882352941176471"/></g><g transform="translate(6,0)"><g transform="translate(0,517.8282739530011) rotate(257.1428571428571,0,0)"><path fill="rgb(255,0,0)" stroke="none" paint-order="stroke fill markers" d=" M 0 0 L 107.6399578636902 0 L 107.6399578636902 107.6399578636902 L 0 107.6399578636902 L 0 0 Z" fill-opacity="0.5882352941176471"/></g><g transform="translate(6,0)"><g transform="translate(0,502.87160428856464) rotate(253.52112676056336,0,0)"><path fill="rgb(255,127,0)" stroke="none" paint-order="stroke fill markers" d=" M 0 0 L 102.65440130887801 0 L 102.65440130887801 102.65440130887801 L 0 102.65440130887801 L 0 0 Z" fill-opacity="0.5882352941176471"/></g><g transform="translate(6,0)"><g transform="translate(0,478.4724708747579) rotate(250.00000000000003,0,0)"><path fill="rgb(255,255,0)" stroke="none" paint-order="stroke fill markers" d=" M 0 0 L 94.5213568376091 0 L 94.5213568376091 94.5213568376091 L 0 94.5213568376091 L 0 0 Z" fill-opacity="0.5882352941176471"/></g><g transform="translate(6,0)"><g transform="translate(0,467.21416914301267) rotate(246.57534246575344,0,0)"><path fill="rgb(0,255,0)" stroke="none" paint-order="stroke fill markers" d=" M 0 0 L 90.76858959369402 0 L 90.76858959369402 90.76858959369402 L 0 90.76858959369402 L 0 0 Z" fill-opacity="0.5882352941176471"/></g><g transform="translate(6,0)"><g transform="translate(0,469.2730439752) rotate(243.24324324324323,0,0)"><path fill="rgb(0,0,255)" stroke="none" paint-order="stroke fill markers" d=" M 0 0 L 91.45488120442313 0 L 91.45488120442313 91.45488120442313 L 0 91.45488120442313 L 0 0 Z" fill-opacity="0.5882352941176471"/></g><g transform="translate(6,0)"><g transform="translate(0,462.9055051461867) rotate(240.00000000000003,0,0)"><path fill="rgb(75,0,130)" stroke="none" paint-order="stroke fill markers" d=" M 0 0 L 89.33236826141871 0 L 89.33236826141871 89.33236826141871 L 0 89.33236826141871 L 0 0 Z" fill-opacity="0.5882352941176471"/></g><g transform="translate(6,0)"><g transform="translate(0,433.0942408319572) rotate(236.84210526315792,0,0)"><path fill="rgb(148,0,211)" stroke="none" paint-order="stroke fill markers" d=" M 0 0 L 79.39528015667555 0 L 79.39528015667555 79.39528015667555 L 0 79.39528015667555 L 0 0 Z" fill-opacity="0.5882352941176471"/></g><g transform="translate(6,0)"><g transform="translate(0,395.67629662036245) rotate(233.7662337662338,0,0)"><path fill="rgb(255,0,0)" stroke="none" paint-order="stroke fill markers" d=" M 0 0 L 66.92263208614395 0 L 66.92263208614395 66.92263208614395 L 0 66.92263208614395 L 0 0 Z" fill-opacity="0.5882352941176471"/></g><g transform="translate(6,0)"><g transform="translate(0,379.3805927134548) rotate(230.7692307692308,0,0)"><path fill="rgb(255,127,0)" stroke="none" paint-order="stroke fill markers" d=" M 0 0 L 61.4907307838414 0 L 61.4907307838414 61.4907307838414 L 0 61.4907307838414 L 0 0 Z" fill-opacity="0.5882352941176471"/></g><g transform="translate(6,0)"><g transform="translate(0,386.0227526956219) rotate(227.8481012658228,0,0)"><path fill="rgb(255,255,0)" stroke="none" paint-order="stroke fill markers" d=" M 0 0 L 63.70478411123042 0 L 63.70478411123042 63.70478411123042 L 0 63.70478411123042 L 0 0 Z" fill-opacity="0.5882352941176471"/></g><g transform="translate(6,0)"><g transform="translate(0,393.01046287950425) rotate(225,0,0)"><path fill="rgb(0,255,0)" stroke="none" paint-order="stroke fill markers" d=" M 0 0 L 66.03402083919121 0 L 66.03402083919121 66.03402083919121 L 0 66.03402083919121 L 0 0 Z" fill-opacity="0.5882352941176471"/></g><g transform="translate(6,0)"><g transform="translate(0,388.5775267866563) rotate(222.22222222222223,0,0)"><path fill="rgb(0,0,255)" stroke="none" paint-order="stroke fill markers" d=" M 0 0 L 64.55637547490856 0 L 64.55637547490856 64.55637547490856 L 0 64.55637547490856 L 0 0 Z" fill-opacity="0.5882352941176471"/></g><g transform="translate(6,0)"><g transform="translate(0,378.05935465212565) rotate(219.51219512195124,0,0)"><path fill="rgb(75,0,130)" stroke="none" paint-order="stroke fill markers" d=" M 0 0 L 61.05031809673168 0 L 61.05031809673168 61.05031809673168 L 0 61.05031809673168 L 0 0 Z" fill-opacity="0.5882352941176471"/></g><g transform="translate(6,0)"><g transform="translate(0,365.5559542631919) rotate(216.8674698795181,0,0)"><path fill="rgb(148,0,211)" stroke="none" paint-order="stroke fill markers" d=" M 0 0 L 56.882517967087104 0 L 56.882517967087104 56.882517967087104 L 0 56.882517967087104 L 0 0 Z" fill-opacity="0.5882352941176471"/></g><g transform="translate(6,0)"><g transform="translate(0,348.920034473658) rotate(214.2857142857143,0,0)"><path fill="rgb(255,0,0)" stroke="none" paint-order="stroke fill markers" d=" M 0 0 L 51.33721137057581 0 L 51.33721137057581 51.33721137057581 L 0 51.33721137057581 L 0 0 Z" fill-opacity="0.5882352941176471"/></g><g transform="translate(6,0)"><g transform="translate(0,338.0442871092822) rotate(211.76470588235296,0,0)"><path fill="rgb(255,127,0)" stroke="none" paint-order="stroke fill markers" d=" M 0 0 L 47.711962249117214 0 L 47.711962249117214 47.711962249117214 L 0 47.711962249117214 L 0 0 Z" fill-opacity="0.5882352941176471"/></g><g transform="translate(6,0)"><g transform="translate(0,333.9726205327473) rotate(209.30232558139537,0,0)"><path fill="rgb(255,255,0)" stroke="none" paint-order="stroke fill markers" d=" M 0 0 L 46.3547400569389 0 L 46.3547400569389 46.3547400569389 L 0 46.3547400569389 L 0 0 Z" fill-opacity="0.5882352941176471"/></g><g transform="translate(6,0)"><g transform="translate(0,335.6365542250042) rotate(206.89655172413794,0,0)"><path fill="rgb(0,255,0)" stroke="none" paint-order="stroke fill markers" d=" M 0 0 L 46.909384621024536 0 L 46.909384621024536 46.909384621024536 L 0 46.909384621024536 L 0 0 Z" fill-opacity="0.5882352941176471"/></g><g transform="translate(6,0)"><g transform="translate(0,348.7257807498017) rotate(204.54545454545456,0,0)"><path fill="rgb(0,0,255)" stroke="none" paint-order="stroke fill markers" d=" M 0 0 L 51.27246012929036 0 L 51.27246012929036 51.27246012929036 L 0 51.27246012929036 L 0 0 Z" fill-opacity="0.5882352941176471"/></g><g transform="translate(6,0)"><g transform="translate(0,369.8970850809934) rotate(202.24719101123597,0,0)"><path fill="rgb(75,0,130)" stroke="none" paint-order="stroke fill markers" d=" M 0 0 L 58.329561573020925 0 L 58.329561573020925 58.329561573020925 L 0 58.329561573020925 L 0 0 Z" fill-opacity="0.5882352941176471"/></g><g transform="translate(6,0)"><g transform="translate(0,378.7983543425346) rotate(200,0,0)"><path fill="rgb(148,0,211)" stroke="none" paint-order="stroke fill markers" d=" M 0 0 L 61.296651326867995 0 L 61.296651326867995 61.296651326867995 L 0 61.296651326867995 L 0 0 Z" fill-opacity="0.5882352941176471"/></g><g transform="translate(6,0)"><g transform="translate(0,372.42377309749793) rotate(197.8021978021978,0,0)"><path fill="rgb(255,0,0)" stroke="none" paint-order="stroke fill markers" d=" M 0 0 L 59.17179091185577 0 L 59.17179091185577 59.17179091185577 L 0 59.17179091185577 L 0 0 Z" fill-opacity="0.5882352941176471"/></g><g transform="translate(6,0)"><g transform="translate(0,361.3741856485847) rotate(195.6521739130435,0,0)"><path fill="rgb(255,127,0)" stroke="none" paint-order="stroke fill markers" d=" M 0 0 L 55.488595095551375 0 L 55.488595095551375 55.488595095551375 L 0 55.488595095551375 L 0 0 Z" fill-opacity="0.5882352941176471"/></g><g transform="translate(6,0)"><g transform="translate(0,348.8408997903457) rotate(193.5483870967742,0,0)"><path fill="rgb(255,255,0)" stroke="none" paint-order="stroke fill markers" d=" M 0 0 L 51.31083314280503 0 L 51.31083314280503 51.31083314280503 L 0 51.31083314280503 L 0 0 Z" fill-opacity="0.5882352941176471"/></g><g transform="translate(6,0)"><g transform="translate(0,335.3028980201911) rotate(191.48936170212767,0,0)"><path fill="rgb(0,255,0)" stroke="none" paint-order="stroke fill markers" d=" M 0 0 L 46.79816588608683 0 L 46.79816588608683 46.79816588608683 L 0 46.79816588608683 L 0 0 Z" fill-opacity="0.5882352941176471"/></g><g transform="translate(6,0)"><g transform="translate(0,330.4986859817137) rotate(189.4736842105263,0,0)"><path fill="rgb(0,0,255)" stroke="none" paint-order="stroke fill markers" d=" M 0 0 L 45.19676187326104 0 L 45.19676187326104 45.19676187326104 L 0 45.19676187326104 L 0 0 Z" fill-opacity="0.5882352941176471"/></g><g transform="translate(6,0)"><g transform="translate(0,338.7965375305732) rotate(187.50000000000003,0,0)"><path fill="rgb(75,0,130)" stroke="none" paint-order="stroke fill markers" d=" M 0 0 L 47.96271238954753 0 L 47.96271238954753 47.96271238954753 L 0 47.96271238954753 L 0 0 Z" fill-opacity="0.5882352941176471"/></g><g transform="translate(6,0)"><g transform="translate(0,354.5659871082011) rotate(185.56701030927837,0,0)"><path fill="rgb(148,0,211)" stroke="none" paint-order="stroke fill markers" d=" M 0 0 L 53.21919558209017 0 L 53.21919558209017 53.21919558209017 L 0 53.21919558209017 L 0 0 Z" fill-opacity="0.5882352941176471"/></g><g transform="translate(6,0)"><g transform="translate(0,368.665777091362) rotate(183.67346938775512,0,0)"><path fill="rgb(255,0,0)" stroke="none" paint-order="stroke fill markers" d=" M 0 0 L 57.919125576477114 0 L 57.919125576477114 57.919125576477114 L 0 57.919125576477114 L 0 0 Z" fill-opacity="0.5882352941176471"/></g><g transform="translate(6,0)"><g transform="translate(0,372.96840234534795) rotate(181.81818181818184,0,0)"><path fill="rgb(255,127,0)" stroke="none" paint-order="stroke fill markers" d=" M 0 0 L 59.35333399447245 0 L 59.35333399447245 59.35333399447245 L 0 59.35333399447245 L 0 0 Z" fill-opacity="0.5882352941176471"/></g><g transform="translate(6,0)"/></g></g></g></g></g></g></g></g></g></g></g></g></g></g></g></g></g></g></g></g></g></g></g></g></g></g></g></g></g></g></g></g></g></g></g></g></g></g></g></g></g></g></g></g></g></g></g></g></g></g></g></g></g></g></g></g></g></g></g></g></g></g></g></g></g></g></g></g></g></g></g></g></g></g></g></g></g></g></g></g></g></g></g></g></g></g></g></g></g></g></g></g></g></g></g></g></g></g></g></g></g></svg>