<svg version="1.1" xmlns="http://www.w3.org/2000/svg" xmlns:xlink="http://www.w3.org/1999/xlink" width="600" height="600" viewBox="0 0 600 600"><defs/><g transform="scale(1,1)"><g transform="scale(1,1)"><rect fill="rgb(0,0,0)" stroke="none" x="0" y="0" width="600" height="600" fill-opacity="1"/></g><g><g transform="translate(0,300) rotate(655.3702822517168,0,0)"><path fill="rgb(255,0,0)" stroke="none" paint-order="stroke fill markers" d=" M 0 0 L 164.79233637041693 0 L 164.79233637041693 164.79233637041693 L 0 164.79233637041693 L 0 0 Z" fill-opacity="0.5882352941176471"/></g><g transform="translate(6,0)"><g transform="translate(0,293.37714420205737) rotate(664.269074489826,0,0)"><path fill="rgb(255,127,0)" stroke="none" paint-order="stroke fill markers" d=" M 0 0 L 162.58471777110273 0 L 162.58471777110273 162.58471777110273 L 0 162.58471777110273 L 0 0 Z" fill-opacity="0.5882352941176471"/></g><g transform="translate(6,0)"><g transform="translate(0,278.9455417249078) rotate(684.522635626869,0,0)"><path fill="rgb(255,255,0)" stroke="none" paint-order="stroke fill markers" d=" M 0 0 L 157.77418361205287 0 L 157.77418361205287 157.77418361205287 L 0 157.77418361205287 L 0 0 Z" fill-opacity="0.5882352941176471"/></g><g transform="translate(6,0)"><g transform="translate(0,266.50650569799797) rotate(702.9975896059065,0,0)"><path fill="rgb(0,255,0)" stroke="none" paint-order="stroke fill markers" d=" M 0 0 L 153.6278382697496 0 L 153.6278382697496 153.6278382697496 L 0 153.6278382697496 L 0 0 Z" fill-opacity="0.5882352941176471"/></g><g transform="translate(6,0)"><g transform="translate(0,259.44926161335223) rotate(713.9295825309638,0,0)"><path fill="rgb(0,0,255)" stroke="none" paint-order="stroke fill markers" d=" M 0 0 L 151.2754235748677 0 L 151.2754235748677 151.2754235748677 L 0 151.2754235748677 L 0 0 Z" fill-opacity="0.5882352941176471"/></g><g transform="translate(6,0)"><g transform="translate(0,251.59629937225645) rotate(726.5008776012478,0,0)"><path fill="rgb(75,0,130)" stroke="none" paint-order="stroke fill markers" d=" M 0 0 L 148.65776949450242 0 L 148.65776949450242 148.65776949450242 L 0 148.65776949450242 L 0 0 Z" fill-opacity="0.5882352941176471"/></g><g transform="translate(6,0)"><g transform="translate(0,240.14081011659727) rotate(745.6541151195094,0,0)"><path fill="rgb(148,0,211)" stroke="none" paint-order="stroke fill markers" d=" M 0 0 L 144.83927307594936 0 L 144.83927307594936 144.83927307594936 L 0 144.83927307594936 L 0 0 Z" fill-opacity="0.5882352941176471"/></g><g transform="translate(6,0)"><g transform="translate(0,230.36370763360247) rotate(762.8183200402485,0,0)"><path fill="rgb(255,0,0)" stroke="none" paint-order="stroke fill markers" d=" M 0 0 L 141.58023891495108 0 L 141.58023891495108 141.58023891495108 L 0 141.58023891495108 L 0 0 Z" fill-opacity="0.5882352941176471"/></g><g transform="translate(6,0)"><g transform="translate(0,226.6075306041111) rotate(769.6244622642542,0,0)"><path fill="rgb(255,127,0)" stroke="none" paint-order="stroke fill markers" d=" M 0 0 L 140.32817990512063 0 L 140.32817990512063 140.32817990512063 L 0 140.32817990512063 L 0 0 Z" fill-opacity="0.5882352941176471"/></g><g transform="translate(6,0)"><g transform="translate(0,223.31554984523387) rotate(775.6901411158593,0,0)"><path fill="rgb(255,255,0)" stroke="none" paint-order="stroke fill markers" d=" M 0 0 L 139.2308529854949 0 L 139.2308529854949 139.2308529854949 L 0 139.2308529854949 L 0 0 Z" fill-opacity="0.5882352941176471"/></g><g transform="translate(6,0)"><g transform="translate(0,218.28173009404827) rotate(785.1524012891654,0,0)"><path fill="rgb(0,255,0)" stroke="none" paint-order="stroke fill markers" d=" M 0 0 L 137.552913068433 0 L 137.552913068433 137.552913068433 L 0 137.552913068433 L 0 0 Z" fill-opacity="0.5882352941176471"/></g><g transform="translate(6,0)"><g transform="translate(0,203.00248069313125) rotate(815.3415269607784,0,0)"><path fill="rgb(0,0,255)" stroke="none" paint-order="stroke fill markers" d=" M 0 0 L 132.45982993479402 0 L 132.45982993479402 132.45982993479402 L 0 132.45982993479402 L 0 0 Z" fill-opacity="0.5882352941176471"/></g><g transform="translate(6,0)"><g transform="translate(0,181.9386693027488) rotate(860.9792750743565,0,0)"><path fill="rgb(75,0,130)" stroke="none" paint-order="stroke fill markers" d=" M 0 0 L 125.43855947133319 0 L 125.43855947133319 125.43855947133319 L 0 125.43855947133319 L 0 0 Z" fill-opacity="0.5882352941176471"/></g><g transform="translate(6,0)"><g transform="translate(0,175.01055344143163) rotate(877.1275290401549,0,0)"><path fill="rgb(148,0,211)" stroke="none" paint-order="stroke fill markers" d=" M 0 0 L 123.12918751756081 0 L 123.12918751756081 123.12918751756081 L 0 123.12918751756081 L 0 0 Z" fill-opacity="0.5882352941176471"/></g><g transform="translate(6,0)"><g transform="translate(0,180.27044002055305) rotate(864.8130415696872,0,0)"><path fill="rgb(255,0,0)" stroke="none" paint-order="stroke fill markers" d=" M 0 0 L 124.88248304393461 0 L 124.88248304393461 124.88248304393461 L 0 124.88248304393461 L 0 0 Z" fill-opacity="0.5882352941176471"/></g><g transform="translate(6,0)"><g transform="translate(0,186.2468295752381) rotate(851.2341242684785,0,0)"><path fill="rgb(255,127,0)" stroke="none" paint-order="stroke fill markers" d=" M 0 0 L 126.8746128954963 0 L 126.8746128954963 126.8746128954963 L 0 126.8746128954963 L 0 0 Z" fill-opacity="0.5882352941176471"/></g><g transform="translate(6,0)"><g transform="translate(0,190.19232655395376) rotate(842.5008703295716,0,0)"><path fill="rgb(255,255,0)" stroke="none" paint-order="stroke fill markers" d=" M 0 0 L 128.1897785550682 0 L 128.1897785550682 128.1897785550682 L 0 128.1897785550682 L 0 0 Z" fill-opacity="0.5882352941176471"/></g><g transform="translate(6,0)"><g transform="translate(0,194.64121755198317) rotate(832.8658602427926,0,0)"><path fill="rgb(0,255,0)" stroke="none" paint-order="stroke fill markers" d=" M 0 0 L 129.67274222107798 0 L 129.67274222107798 129.67274222107798 L 0 129.67274222107798 L 0 0 Z" fill-opacity="0.5882352941176471"/></g><g transform="translate(6,0)"><g transform="translate(0,197.7603286024156) rotate(826.2411375796626,0,0)"><path fill="rgb(0,0,255)" stroke="none" paint-order="stroke fill markers" d=" M 0 0 L 130.71244590455547 0 L 130.71244590455547 130.71244590455547 L 0 130.71244590455547 L 0 0 Z" fill-opacity="0.5882352941176471"/></g><g transform="translate(6,0)"><g transform="translate(0,202.18608738122055) rotate(817.020047668886,0,0)"><path fill="rgb(75,0,130)" stroke="none" paint-order="stroke fill markers" d=" M 0 0 L 132.1876988308238 0 L 132.1876988308238 132.1876988308238 L 0 132.1876988308238 L 0 0 Z" fill-opacity="0.5882352941176471"/></g><g transform="translate(6,0)"><g transform="translate(0,204.50465567851268) rotate(812.2709780876216,0,0)"><path fill="rgb(148,0,211)" stroke="none" paint-order="stroke fill markers" d=" M 0 0 L 132.96055492992116 0 L 132.96055492992116 132.96055492992116 L 0 132.96055492992116 L 0 0 Z" fill-opacity="0.5882352941176471"/></g><g transform="translate(6,0)"><g transform="translate(0,202.2127202910092) rotate(816.9651808389814,0,0)"><path fill="rgb(255,0,0)" stroke="none" paint-order="stroke fill markers" d=" M 0 0 L 132.19657646742 0 L 132.19657646742 132.19657646742 L 0 132.19657646742 L 0 0 Z" fill-opacity="0.5882352941176471"/></g><g transform="translate(6,0)"><g transform="translate(0,193.37842556869828) rotate(835.5782305602694,0,0)"><path fill="rgb(255,127,0)" stroke="none" paint-order="stroke fill markers" d=" M 0 0 L 129.25181155998303 0 L 129.25181155998303 129.25181155998303 L 0 129.25181155998303 L 0 0 Z" fill-opacity="0.5882352941176471"/></g><g transform="translate(6,0)"><g transform="translate(0,175.50454511581933) rotate(875.9560899895445,0,0)"><path fill="rgb(255,255,0)" stroke="none" paint-order="stroke fill markers" d=" M 0 0 L 123.29385140902338 0 L 123.29385140902338 123.29385140902338 L 0 123.29385140902338 L 0 0 Z" fill-opacity="0.5882352941176471"/></g><g transform="translate(6,0)"><g transform="translate(0,150.01828518093942) rotate(940.7794048577024,0,0)"><path fill="rgb(0,255,0)" stroke="none" paint-order="stroke fill markers" d=" M 0 0 L 114.79843143073008 0 L 114.79843143073008 114.79843143073008 L 0 114.79843143073008 L 0 0 Z" fill-opacity="0.5882352941176471"/></g><g transform="translate(6,0)"><g transform="translate(0,137.1710613310185) rotate(977.2338580278856,0,0)"><path fill="rgb(0,0,255)" stroke="none" paint-order="stroke fill markers" d=" M 0 0 L 110.51602348075643 0 L 110.51602348075643 110.51602348075643 L 0 110.51602348075643 L 0 0 Z" fill-opacity="0.5882352941176471"/></g><g transform="translate(6,0)"><g transform="translate(0,147.35396825292128) rotate(948.1142227698112,0,0)"><path fill="rgb(75,0,130)" stroke="none" paint-order="stroke fill markers" d=" M 0 0 L 113.91032578805736 0 L 113.91032578805736 113.91032578805736 L 0 113.91032578805736 L 0 0 Z" fill-opacity="0.5882352941176471"/></g><g transform="translate(6,0)"><g transform="translate(0,167.88837278472988) rotate(894.3719609759233,0,0)"><path fill="rgb(148,0,211)" stroke="none" paint-order="stroke fill markers" d=" M 0 0 L 120.75512729866023 0 L 120.75512729866023 120.75512729866023 L 0 120.75512729866023 L 0 0 Z" fill-opacity="0.5882352941176471"/></g><g transform="translate(6,0)"><g transform="translate(0,181.68227809260281) rotate(861.566276980062,0,0)"><path fill="rgb(255,0,0)" stroke="none" paint-order="stroke fill markers" d=" M 0 0 L 125.35309573461787 0 L 125.35309573461787 125.35309573461787 L 0 125.35309573461787 L 0 0 Z" fill-opacity="0.5882352941176471"/></g><g transform="translate(6,0)"><g transform="translate(0,191.92203583480187) rotate(838.7284520603648,0,0)"><path fill="rgb(255,127,0)" stroke="none" paint-order="stroke fill markers" d=" M 0 0 L 128.76634831535088 0 L 128.76634831535088 128.76634831535088 L 0 128.76634831535088 L 0 0 Z" fill-opacity="0.5882352941176471"/></g><g transform="translate(6,0)"><g transform="translate(0,199.9720699760801) rotate(821.6070917418024,0,0)"><path fill="rgb(255,255,0)" stroke="none" paint-order="stroke fill markers" d=" M 0 0 L 131.4496930291103 0 L 131.4496930291103 131.4496930291103 L 0 131.4496930291103 L 0 0 Z" fill-opacity="0.5882352941176471"/></g><g transform="translate(6,0)"><g transform="translate(0,207.4779676061122) rotate(806.2610114889263,0,0)"><path fill="rgb(0,255,0)" stroke="none" paint-order="stroke fill markers" d=" M 0 0 L 133.95165890578767 0 L 133.95165890578767 133.95165890578767 L 0 133.95165890578767 L 0 0 Z" fill-opacity="0.5882352941176471"/></g><g transform="translate(6,0)"><g transform="translate(0,215.5059407381696) rotate(790.4695721523146,0,0)"><path fill="rgb(0,0,255)" stroke="none" paint-order="stroke fill markers" d=" M 0 0 L 136.6276499498068 0 L 136.6276499498068 136.6276499498068 L 0 136.6276499498068 L 0 0 Z" fill-opacity="0.5882352941176471"/></g><g transform="translate(6,0)"><g transform="translate(0,222.03309570704567) rotate(778.0791009895875,0,0)"><path fill="rgb(75,0,130)" stroke="none" paint-order="stroke fill markers" d=" M 0 0 L 138.80336827276548 0 L 138.80336827276548 138.80336827276548 L 0 138.80336827276548 L 0 0 Z" fill-opacity="0.5882352941176471"/></g><g transform="translate(6,0)"><g transform="translate(0,220.28074397538927) rotate(781.3672784077964,0,0)"><path fill="rgb(148,0,211)" stroke="none" paint-order="stroke fill markers" d=" M 0 0 L 138.21925102888002 0 L 138.21925102888002 138.21925102888002 L 0 138.21925102888002 L 0 0 Z" fill-opacity="0.5882352941176471"/></g><g transform="translate(6,0)"><g transform="translate(0,220.3792759604654) rotate(781.1816521212611,0,0)"><path fill="rgb(255,0,0)" stroke="none" paint-order="stroke fill markers" d=" M 0 0 L 138.2520950239054 0 L 138.2520950239054 138.2520950239054 L 0 138.2520950239054 L 0 0 Z" fill-opacity="0.5882352941176471"/></g><g transform="translate(6,0)"><g transform="translate(0,231.58348242391924) rotate(760.6339236587354,0,0)"><path fill="rgb(255,127,0)" stroke="none" paint-order="stroke fill markers" d=" M 0 0 L 141.98683051172335 0 L 141.98683051172335 141.98683051172335 L 0 141.98683051172335 L 0 0 Z" fill-opacity="0.5882352941176471"/></g><g transform="translate(6,0)"><g transform="translate(0,247.17945861865542) rotate(733.767985928781,0,0)"><path fill="rgb(255,255,0)" stroke="none" paint-order="stroke fill markers" d=" M 0 0 L 147.18548924330207 0 L 147.18548924330207 147.18548924330207 L 0 147.18548924330207 L 0 0 Z" fill-opacity="0.5882352941176471"/></g><g transform="translate(6,0)"><g transform="translate(0,253.0800507107769) rotate(724.0918271104456,0,0)"><path fill="rgb(0,255,0)" stroke="none" paint-order="stroke fill markers" d=" M 0 0 L 149.15235327400924 0 L 149.15235327400924 149.15235327400924 L 0 149.15235327400924 L 0 0 Z" fill-opacity="0.5882352941176471"/></g><g transform="translate(6,0)"><g transform="translate(0,248.85215496683486) rotate(730.9988291811039,0,0)"><path fill="rgb(0,0,255)" stroke="none" paint-order="stroke fill markers" d=" M 0 0 L 147.7430546926952 0 L 147.7430546926952 147.7430546926952 L 0 147.7430546926952 L 0 0 Z" fill-opacity="0.5882352941176471"/></g><g transform="translate(6,0)"><g transform="translate(0,245.2015663857652) rotate(737.0695890573479,0,0)"><path fill="rgb(75,0,130)" stroke="none" paint-order="stroke fill markers" d=" M 0 0 L 146.52619183233867 0 L 146.52619183233867 146.52619183233867 L 0 146.52619183233867 L 0 0 Z" fill-opacity="0.5882352941176471"/></g><g transform="translate(6,0)"><g transform="translate(0,240.3950426432334) rotate(745.2180946142389,0,0)"><path fill="rgb(148,0,211)" stroke="none" paint-order="stroke fill markers" d=" M 0 0 L 144.92401725149475 0 L 144.92401725149475 144.92401725149475 L 0 144.92401725149475 L 0 0 Z" fill-opacity="0.5882352941176471"/></g><g transform="translate(6,0)"><g transform="translate(0,230.42518140400017) rotate(762.7079314421944,0,0)"><path fill="rgb(255,0,0)" stroke="none" paint-order="stroke fill markers" d=" M 0 0 L 141.6007301717503 0 L 141.6007301717503 141.6007301717503 L 0 141.6007301717503 L 0 0 Z" fill-opacity="0.5882352941176471"/></g><g transform="translate(6,0)"><g transform="translate(0,223.80821314804768) rotate(774.7763018730052,0,0)"><path fill="rgb(255,127,0)" stroke="none" paint-order="stroke fill markers" d=" M 0 0 L 139.39507408643283 0 L 139.39507408643283 139.39507408643283 L 0 139.39507408643283 L 0 0 Z" fill-opacity="0.5882352941176471"/></g><g transform="translate(6,0)"><g transform="translate(0,225.87534447786885) rotate(770.9653431632521,0,0)"><path fill="rgb(255,255,0)" stroke="none" paint-order="stroke fill markers" d=" M 0 0 L 140.0841178630399 0 L 140.0841178630399 140.0841178630399 L 0 140.0841178630399 L 0 0 Z" fill-opacity="0.5882352941176471"/></g><g transform="translate(6,0)"><g transform="translate(0,217.55173924765347) rotate(786.5437925631402,0,0)"><path fill="rgb(0,255,0)" stroke="none" paint-order="stroke fill markers" d=" M 0 0 L 137.30958278630143 0 L 137.30958278630143 137.30958278630143 L 0 137.30958278630143 L 0 0 Z" fill-opacity="0.5882352941176471"/></g><g transform="translate(6,0)"><g transform="translate(0,194.25409910605111) rotate(833.6954843533431,0,0)"><path fill="rgb(0,0,255)" stroke="none" paint-order="stroke fill markers" d=" M 0 0 L 129.54370273910064 0 L 129.54370273910064 129.54370273910064 L 0 129.54370273910064 L 0 0 Z" fill-opacity="0.5882352941176471"/></g><g transform="translate(6,0)"><g transform="translate(0,165.68824291262518) rotate(899.836899503192,0,0)"><path fill="rgb(75,0,130)" stroke="none" paint-order="stroke fill markers" d=" M 0 0 L 120.02175067462532 0 L 120.02175067462532 120.02175067462532 L 0 120.02175067462532 L 0 0 Z" fill-opacity="0.5882352941176471"/></g><g transform="translate(6,0)"><g transform="translate(0,134.78853544142396) rotate(984.3071529260617,0,0)"><path fill="rgb(148,0,211)" stroke="none" paint-order="stroke fill markers" d=" M 0 0 L 109.72184818422492 0 L 109.72184818422492 109.72184818422492 L 0 109.72184818422492 L 0 0 Z" fill-opacity="0.5882352941176471"/></g><g transform="translate(6,0)"><g transform="translate(0,101.28176705389848) rotate(1095.8578811779287,0,0)"><path fill="rgb(255,0,0)" stroke="none" paint-order="stroke fill markers" d=" M 0 0 L 98.55292538838309 0 L 98.55292538838309 98.55292538838309 L 0 98.55292538838309 L 0 0 Z" fill-opacity="0.5882352941176471"/></g><g transform="translate(6,0)"><g transform="translate(0,82.84389118931153) rotate(1168.743048048397,0,0)"><path fill="rgb(255,127,0)" stroke="none" paint-order="stroke fill markers" d=" M 0 0 L 92.40696676685411 0 L 92.40696676685411 92.40696676685411 L 0 92.40696676685411 L 0 0 Z" fill-opacity="0.5882352941176471"/></g><g transform="translate(6,0)"><g transform="translate(0,80.47082011443479) rotate(1178.8341240052296,0,0)"><path fill="rgb(255,255,0)" stroke="none" paint-order="stroke fill markers" d=" M 0 0 L 91.61594307522853 0 L 91.61594307522853 91.61594307522853 L 0 91.61594307522853 L 0 0 Z" fill-opacity="0.5882352941176471"/></g><g transform="translate(6,0)"><g transform="translate(0,86.05903574570772) rotate(1155.3436369610122,0,0)"><path fill="rgb(0,255,0)" stroke="none" paint-order="stroke fill markers" d=" M 0 0 L 93.47868161898617 0 L 93.47868161898617 93.47868161898617 L 0 93.47868161898617 L 0 0 Z" fill-opacity="0.5882352941176471"/></g><g transform="translate(6,0)"><g transform="translate(0,102.78157112224164) rotate(1090.3269215562173,0,0)"><path fill="rgb(0,0,255)" stroke="none" paint-order="stroke fill markers" d=" M 0 0 L 99.05286007783081 0 L 99.05286007783081 99.05286007783081 L 0 99.05286007783081 L 0 0 Z" fill-opacity="0.5882352941176471"/></g><g transform="translate(6,0)"><g transform="translate(0,133.27893508056178) rotate(988.8421246230396,0,0)"><path fill="rgb(75,0,130)" stroke="none" paint-order="stroke fill markers" d=" M 0 0 L 109.21864806393752 0 L 109.21864806393752 109.21864806393752 L 0 109.21864806393752 L 0 0 Z" fill-opacity="0.5882352941176471"/></g><g transform="translate(6,0)"><g transform="translate(0,152.50884125177447) rotate(934.0248374527972,0,0)"><path fill="rgb(148,0,211)" stroke="none" paint-order="stroke fill markers" d=" M 0 0 L 115.62861678767509 0 L 115.62861678767509 115.62861678767509 L 0 115.62861678767509 L 0 0 Z" fill-opacity="0.5882352941176471"/></g><g transform="translate(6,0)"><g transform="translate(0,149.0146909608626) rotate(943.5289202737251,0,0)"><path fill="rgb(255,0,0)" stroke="none" paint-order="stroke fill markers" d=" M 0 0 L 114.4639000240378 0 L 114.4639000240378 114.4639000240378 L 0 114.4639000240378 L 0 0 Z" fill-opacity="0.5882352941176471"/></g><g transform="translate(6,0)"><g transform="translate(0,138.94401248579004) rotate(972.0359023490896,0,0)"><path fill="rgb(255,127,0)" stroke="none" paint-order="stroke fill markers" d=" M 0 0 L 111.10700719901361 0 L 111.10700719901361 111.10700719901361 L 0 111.10700719901361 L 0 0 Z" fill-opacity="0.5882352941176471"/></g><g transform="translate(6,0)"><g transform="translate(0,140.01643233812104) rotate(968.9185248241616,0,0)"><path fill="rgb(255,255,0)" stroke="none" paint-order="stroke fill markers" d=" M 0 0 L 111.46448048312395 0 L 111.46448048312395 111.46448048312395 L 0 111.46448048312395 L 0 0 Z" fill-opacity="0.5882352941176471"/></g><g transform="translate(6,0)"><g transform="translate(0,146.45334070128558) rotate(950.6195682931598,0,0)"><path fill="rgb(0,255,0)" stroke="none" paint-order="stroke fill markers" d=" M 0 0 L 113.6101166041788 0 L 113.6101166041788 113.6101166041788 L 0 113.6101166041788 L 0 0 Z" fill-opacity="0.5882352941176471"/></g><g transform="translate(6,0)"><g transform="translate(0,149.99609926877474) rotate(940.8400136820694,0,0)"><path fill="rgb(0,0,255)" stroke="none" paint-order="stroke fill markers" d=" M 0 0 L 114.79103612667518 0 L 114.79103612667518 114.79103612667518 L 0 114.79103612667518 L 0 0 Z" fill-opacity="0.5882352941176471"/></g><g transform="translate(6,0)"><g transform="translate(0,151.33451150860424) rotate(937.1975785448901,0,0)"><path fill="rgb(75,0,130)" stroke="none" paint-order="stroke fill markers" d=" M 0 0 L 115.23717353995168 0 L 115.23717353995168 115.23717353995168 L 0 115.23717353995168 L 0 0 Z" fill-opacity="0.5882352941176471"/></g><g transform="translate(6,0)"><g transform="translate(0,153.75949487317132) rotate(930.6694250439703,0,0)"><path fill="rgb(148,0,211)" stroke="none" paint-order="stroke fill markers" d=" M 0 0 L 116.0455013281407 0 L 116.0455013281407 116.0455013281407 L 0 116.0455013281407 L 0 0 Z" fill-opacity="0.5882352941176471"/></g><g transform="translate(6,0)"><g transform="translate(0,154.32713965455764) rotate(929.1544168509454,0,0)"><path fill="rgb(255,0,0)" stroke="none" paint-order="stroke fill markers" d=" M 0 0 L 116.23471625526948 0 L 116.23471625526948 116.23471625526948 L 0 116.23471625526948 L 0 0 Z" fill-opacity="0.5882352941176471"/></g><g transform="translate(6,0)"><g transform="translate(0,151.60675345355224) rotate(936.4601321118777,0,0)"><path fill="rgb(255,127,0)" stroke="none" paint-order="stroke fill markers" d=" M 0 0 L 115.32792085493435 0 L 115.32792085493435 115.32792085493435 L 0 115.32792085493435 L 0 0 Z" fill-opacity="0.5882352941176471"/></g><g transform="translate(6,0)"><g transform="translate(0,150.60645426830519) rotate(939.1754515593414,0,0)"><path fill="rgb(255,255,0)" stroke="none" paint-order="stroke fill markers" d=" M 0 0 L 114.99448779318533 0 L 114.99448779318533 114.99448779318533 L 0 114.99448779318533 L 0 0 Z" fill-opacity="0.5882352941176471"/></g><g transform="translate(6,0)"><g transform="translate(0,156.40009335259452) rotate(923.663482377373,0,0)"><path fill="rgb(0,255,0)" stroke="none" paint-order="stroke fill markers" d=" M 0 0 L 116.92570082128178 0 L 116.92570082128178 116.92570082128178 L 0 116.92570082128178 L 0 0 Z" fill-opacity="0.5882352941176471"/></g><g transform="translate(6,0)"><g transform="translate(0,161.62289585014588) rotate(910.112602516378,0,0)"><path fill="rgb(0,0,255)" stroke="none" paint-order="stroke fill markers" d=" M 0 0 L 118.66663498713223 0 L 118.66663498713223 118.66663498713223 L 0 118.66663498713223 L 0 0 Z" fill-opacity="0.5882352941176471"/></g><g transform="translate(6,0)"><g transform="translate(0,153.7283632665259) rotate(930.7526562628954,0,0)"><path fill="rgb(75,0,130)" stroke="none" paint-order="stroke fill markers" d=" M 0 0 L 116.03512412592556 0 L 116.03512412592556 116.03512412592556 L 0 116.03512412592556 L 0 0 Z" fill-opacity="0.5882352941176471"/></g><g transform="translate(6,0)"><g transform="translate(0,140.48916037087713) rotate(967.5507098882741,0,0)"><path fill="rgb(148,0,211)" stroke="none" paint-order="stroke fill markers" d=" M 0 0 L 111.62205649404264 0 L 111.62205649404264 111.62205649404264 L 0 111.62205649404264 L 0 0 Z" fill-opacity="0.5882352941176471"/></g><g transform="translate(6,0)"><g transform="translate(0,133.83174844964083) rotate(987.1765836104761,0,0)"><path fill="rgb(255,0,0)" stroke="none" paint-order="stroke fill markers" d=" M 0 0 L 109.40291918696387 0 L 109.40291918696387 109.40291918696387 L 0 109.40291918696387 L 0 0 Z" fill-opacity="0.5882352941176471"/></g><g transform="translate(6,0)"><g transform="translate(0,131.5584310167244) rotate(994.061891130295,0,0)"><path fill="rgb(255,127,0)" stroke="none" paint-order="stroke fill markers" d=" M 0 0 L 108.64514670932506 0 L 108.64514670932506 108.64514670932506 L 0 108.64514670932506 L 0 0 Z" fill-opacity="0.5882352941176471"/></g><g transform="translate(6,0)"><g transform="translate(0,132.03827918080964) rotate(992.6005662764809,0,0)"><path fill="rgb(255,255,0)" stroke="none" paint-order="stroke fill markers" d=" M 0 0 L 108.80509609735348 0 L 108.80509609735348 108.80509609735348 L 0 108.80509609735348 L 0 0 Z" fill-opacity="0.5882352941176471"/></g><g transform="translate(6,0)"><g transform="translate(0,145.26649217724167) rotate(953.9414084793427,0,0)"><path fill="rgb(0,255,0)" stroke="none" paint-order="stroke fill markers" d=" M 0 0 L 113.21450042949749 0 L 113.21450042949749 113.21450042949749 L 0 113.21450042949749 L 0 0 Z" fill-opacity="0.5882352941176471"/></g><g transform="translate(6,0)"><g transform="translate(0,169.54114786674546) rotate(890.3100705128877,0,0)"><path fill="rgb(0,0,255)" stroke="none" paint-order="stroke fill markers" d=" M 0 0 L 121.30605232599875 0 L 121.30605232599875 121.30605232599875 L 0 121.30605232599875 L 0 0 Z" fill-opacity="0.5882352941176471"/></g><g transform="translate(6,0)"><g transform="translate(0,183.85205892701924) rotate(856.6237430678306,0,0)"><path fill="rgb(75,0,130)" stroke="none" paint-order="stroke fill markers" d=" M 0 0 L 126.07635601275668 0 L 126.07635601275668 126.07635601275668 L 0 126.07635601275668 L 0 0 Z" fill-opacity="0.5882352941176471"/></g><g transform="translate(6,0)"><g transform="translate(0,180.23317197517872) rotate(864.899077383183,0,0)"><path fill="rgb(148,0,211)" stroke="none" paint-order="stroke fill markers" d=" M 0 0 L 124.87006036214318 0 L 124.87006036214318 124.87006036214318 L 0 124.87006036214318 L 0 0 Z" fill-opacity="0.5882352941176471"/></g><g transform="translate(6,0)"><g transform="translate(0,169.43061341478466) rotate(890.5805704409431,0,0)"><path fill="rgb(255,0,0)" stroke="none" paint-order="stroke fill markers" d=" M 0 0 L 121.26920750867849 0 L 121.26920750867849 121.26920750867849 L 0 121.26920750867849 L 0 0 Z" fill-opacity="0.5882352941176471"/></g><g transform="translate(6,0)"><g transform="translate(0,162.5539293526993) rotate(907.7386269577297,0,0)"><path fill="rgb(255,127,0)" stroke="none" paint-order="stroke fill markers" d=" M 0 0 L 118.97697948798337 0 L 118.97697948798337 118.97697948798337 L 0 118.97697948798337 L 0 0 Z" fill-opacity="0.5882352941176471"/></g><g transform="translate(6,0)"><g transform="translate(0,163.55902451312346) rotate(905.18966955982,0,0)"><path fill="rgb(255,255,0)" stroke="none" paint-order="stroke fill markers" d=" M 0 0 L 119.31201120812476 0 L 119.31201120812476 119.31201120812476 L 0 119.31201120812476 L 0 0 Z" fill-opacity="0.5882352941176471"/></g><g transform="translate(6,0)"><g transform="translate(0,165.5590425223353) rotate(900.1598993196467,0,0)"><path fill="rgb(0,255,0)" stroke="none" paint-order="stroke fill markers" d=" M 0 0 L 119.97868387786203 0 L 119.97868387786203 119.97868387786203 L 0 119.97868387786203 L 0 0 Z" fill-opacity="0.5882352941176471"/></g><g transform="translate(6,0)"><g transform="translate(0,153.67962027338967) rotate(930.8830019207729,0,0)"><path fill="rgb(0,0,255)" stroke="none" paint-order="stroke fill markers" d=" M 0 0 L 116.01887646154682 0 L 116.01887646154682 116.01887646154682 L 0 116.01887646154682 L 0 0 Z" fill-opacity="0.5882352941176471"/></g><g transform="translate(6,0)"><g transform="translate(0,131.8824585603358) rotate(993.0746295648927,0,0)"><path fill="rgb(75,0,130)" stroke="none" paint-order="stroke fill markers" d=" M 0 0 L 108.75315589052887 0 L 108.75315589052887 108.75315589052887 L 0 108.75315589052887 L 0 0 Z" fill-opacity="0.5882352941176471"/></g><g transform="translate(6,0)"><g transform="translate(0,122.16349490186144) rotate(1023.565691885607,0,0)"><path fill="rgb(148,0,211)" stroke="none" paint-order="stroke fill markers" d=" M 0 0 L 105.51350133770408 0 L 105.51350133770408 105.51350133770408 L 0 105.51350133770408 L 0 0 Z" fill-opacity="0.5882352941176471"/></g><g transform="translate(6,0)"><g transform="translate(0,122.5535423121944) rotate(1022.3059864213263,0,0)"><path fill="rgb(255,0,0)" stroke="none" paint-order="stroke fill markers" d=" M 0 0 L 105.6435171411484 0 L 105.6435171411484 105.6435171411484 L 0 105.6435171411484 L 0 0 Z" fill-opacity="0.5882352941176471"/></g><g transform="translate(6,0)"><g transform="translate(0,121.04863665056001) rotate(1027.1834403872917,0,0)"><path fill="rgb(255,127,0)" stroke="none" paint-order="stroke fill markers" d=" M 0 0 L 105.14188192060361 0 L 105.14188192060361 105.14188192060361 L 0 105.14188192060361 L 0 0 Z" fill-opacity="0.5882352941176471"/></g><g transform="translate(6,0)"><g transform="translate(0,113.96674924663228) rotate(1050.7752831628434,0,0)"><path fill="rgb(255,255,0)" stroke="none" paint-order="stroke fill markers" d=" M 0 0 L 102.78125278596103 0 L 102.78125278596103 102.78125278596103 L 0 102.78125278596103 L 0 0 Z" fill-opacity="0.5882352941176471"/></g><g transform="translate(6,0)"><g transform="translate(0,109.95916344529451) rotate(1064.6121927547117,0,0)"><path fill="rgb(0,255,0)" stroke="none" paint-order="stroke fill markers" d=" M 0 0 L 101.44539085218177 0 L 101.44539085218177 101.44539085218177 L 0 101.44539085218177 L 0 0 Z" fill-opacity="0.5882352941176471"/></g><g transform="translate(6,0)"><g transform="translate(0,115.02712941054898) rotate(1047.1740990535325,0,0)"><path fill="rgb(0,0,255)" stroke="none" paint-order="stroke fill markers" d=" M 0 0 L 103.13471284059993 0 L 103.13471284059993 103.13471284059993 L 0 103.13471284059993 L 0 0 Z" fill-opacity="0.5882352941176471"/></g><g transform="translate(6,0)"><g transform="translate(0,121.32044550173168) rotate(1026.2990571057842,0,0)"><path fill="rgb(75,0,130)" stroke="none" paint-order="stroke fill markers" d=" M 0 0 L 105.23248487099416 0 L 105.23248487099416 105.23248487099416 L 0 105.23248487099416 L 0 0 Z" fill-opacity="0.5882352941176471"/></g><g transform="translate(6,0)"><g transform="translate(0,115.21012593027615) rotate(1046.5551159176553,0,0)"><path fill="rgb(148,0,211)" stroke="none" paint-order="stroke fill markers" d=" M 0 0 L 103.19571168050898 0 L 103.19571168050898 103.19571168050898 L 0 103.19571168050898 L 0 0 Z" fill-opacity="0.5882352941176471"/></g><g transform="translate(6,0)"><g transform="translate(0,100.1556751100918) rotate(1100.0476937103272,0,0)"><path fill="rgb(255,0,0)" stroke="none" paint-order="stroke fill markers" d=" M 0 0 L 98.1775614071142 0 L 98.1775614071142 98.1775614071142 L 0 98.1775614071142 L 0 0 Z" fill-opacity="0.5882352941176471"/></g><g transform="translate(6,0)"><g transform="translate(0,83.44826788561573) rotate(1166.2005829788275,0,0)"><path fill="rgb(255,127,0)" stroke="none" paint-order="stroke fill markers" d=" M 0 0 L 92.60842566562218 0 L 92.60842566562218 92.60842566562218 L 0 92.60842566562218 L 0 0 Z" fill-opacity="0.5882352941176471"/></g><g transform="translate(6,0)"><g transform="translate(0,59.66453725197982) rotate(1275.3819390500096,0,0)"><path fill="rgb(255,255,0)" stroke="none" paint-order="stroke fill markers" d=" M 0 0 L 84.68051545441021 0 L 84.68051545441021 84.68051545441021 L 0 84.68051545441021 L 0 0 Z" fill-opacity="0.5882352941176471"/></g><g transform="translate(6,0)"><g transform="translate(0,27.418335531749392) rotate(1460.8061342383335,0,0)"><path fill="rgb(0,255,0)" stroke="none" paint-order="stroke fill markers" d=" M 0 0 L 73.93178154766673 0 L 73.93178154766673 73.93178154766673 L 0 73.93178154766673 L 0 0 Z" fill-opacity="0.5882352941176471"/></g><g transform="translate(6,0)"><g transform="translate(0,-2.101556472085889) rotate(1685.082497806087,0,0)"><path fill="rgb(0,0,255)" stroke="none" paint-order="stroke fill markers" d=" M 0 0 L 64.0918175463883 0 L 64.0918175463883 64.0918175463883 L 0 64.0918175463883 L 0 0 Z" fill-opacity="0.5882352941176471"/></g><g transform="translate(6,0)"><g transform="translate(0,-31.49044186900474) rotate(1989.114298898232,0,0)"><path fill="rgb(75,0,130)" stroke="none" paint-order="stroke fill markers" d=" M 0 0 L 54.29552241408202 0 L 54.29552241408202 54.29552241408202 L 0 54.29552241408202 L 0 0 Z" fill-opacity="0.5882352941176471"/></g><g transform="translate(6,0)"><g transform="translate(0,-64.96057107080705) rotate(2503.5459552576094,0,0)"><path fill="rgb(148,0,211)" stroke="none" paint-order="stroke fill markers" d=" M 0 0 L 43.138812680147915 0 L 43.138812680147915 43.138812680147915 L 0 43.138812680147915 L 0 0 Z" fill-opacity="0.5882352941176471"/></g><g transform="translate(6,0)"><g transform="translate(0,-90.15692529547536) rotate(3108.805789992631,0,0)"><path fill="rgb(255,0,0)" stroke="none" paint-order="stroke fill markers" d=" M 0 0 L 34.740027938591815 0 L 34.740027938591815 34.740027938591815 L 0 34.740027938591815 L 0 0 Z" fill-opacity="0.5882352941176471"/></g><g transform="translate(6,0)"><g transform="translate(0,-94.77077750734102) rotate(3252.80853198428,0,0)"><path fill="rgb(255,127,0)" stroke="none" paint-order="stroke fill markers" d=" M 0 0 L 33.20207720130326 0 L 33.20207720130326 33.20207720130326 L 0 33.20207720130326 L 0 0 Z" fill-opacity="0.5882352941176471"/></g><g transform="translate(6,0)"/></g></g></g></g></g></g></g></g></g></g></g></g></g></g></g></g></g></g></g></g></g></g></g></g></g></g></g></g></g></g></g></g></g></g></g></g></g></g></g></g></g></g></g></g></g></g></g></g></g></g></g></g></g></g></g></g></g></g></g></g></g></g></g></g></g></g></g></g></g></g></g></g></g></g></g></g></g></g></g></g></g></g></g></g></g></g></g></g></g></g></g></g></g></g></g></g></g></g></g></g></g></svg>