<svg version="1.1" xmlns="http://www.w3.org/2000/svg" xmlns:xlink="http://www.w3.org/1999/xlink" width="600" height="600" viewBox="0 0 600 600"><defs/><g transform="scale(1,1)"><g transform="scale(1,1)"><rect fill="rgb(0,0,0)" stroke="none" x="0" y="0" width="600" height="600" fill-opacity="1"/></g><g><g transform="translate(0,300) rotate(1.2159762356686596,0,0)"><path fill="rgb(255,0,0)" stroke="none" paint-order="stroke fill markers" d=" M 0 0 L 148.0292087295759 0 L 148.0292087295759 148.0292087295759 L 0 148.0292087295759 L 0 0 Z" fill-opacity="0.5882352941176471"/></g><g transform="translate(60,0)"><g transform="translate(0,52.603130414526106) rotate(2.7454264212793555,0,0)"><path fill="rgb(255,127,0)" stroke="none" paint-order="stroke fill markers" d=" M 0 0 L 65.56358553441795 0 L 65.56358553441795 65.56358553441795 L 0 65.56358553441795 L 0 0 Z" fill-opacity="0.5882352941176471"/></g><g transform="translate(60,0)"><g transform="translate(0,-26.219396774920554) rotate(4.581387221014315,0,0)"><path fill="rgb(255,255,0)" stroke="none" paint-order="stroke fill markers" d=" M 0 0 L 39.28940980460241 0 L 39.28940980460241 39.28940980460241 L 0 39.28940980460241 L 0 0 Z" fill-opacity="0.5882352941176471"/></g><g transform="translate(60,0)"><g transform="translate(0,25.41087304142758) rotate(3.1858689159645905,0,0)"><path fill="rgb(0,255,0)" stroke="none" paint-order="stroke fill markers" d=" M 0 0 L 56.499499743385115 0 L 56.499499743385115 56.499499743385115 L 0 56.499499743385115 L 0 0 Z" fill-opacity="0.5882352941176471"/></g><g transform="translate(60,0)"><g transform="translate(0,15.57536655406301) rotate(3.3821237515565894,0,0)"><path fill="rgb(0,0,255)" stroke="none" paint-order="stroke fill markers" d=" M 0 0 L 53.22099758093026 0 L 53.22099758093026 53.22099758093026 L 0 53.22099758093026 L 0 0 Z" fill-opacity="0.5882352941176471"/></g><g transform="translate(60,0)"><g transform="translate(0,118.09203189807226) rotate(2.0596563590803894,0,0)"><path fill="rgb(75,0,130)" stroke="none" paint-order="stroke fill markers" d=" M 0 0 L 87.39321936226668 0 L 87.39321936226668 87.39321936226668 L 0 87.39321936226668 L 0 0 Z" fill-opacity="0.5882352941176471"/></g><g transform="translate(60,0)"><g transform="translate(0,44.74553109622727) rotate(2.859667273291011,0,0)"><path fill="rgb(148,0,211)" stroke="none" paint-order="stroke fill markers" d=" M 0 0 L 62.94438576165168 0 L 62.94438576165168 62.94438576165168 L 0 62.94438576165168 L 0 0 Z" fill-opacity="0.5882352941176471"/></g><g transform="translate(60,0)"><g transform="translate(0,122.77659931284444) rotate(2.0235008982004548,0,0)"><path fill="rgb(255,0,0)" stroke="none" paint-order="stroke fill markers" d=" M 0 0 L 88.9547418338574 0 L 88.9547418338574 88.9547418338574 L 0 88.9547418338574 L 0 0 Z" fill-opacity="0.5882352941176471"/></g><g transform="translate(60,0)"><g transform="translate(0,-38.82850396886015) rotate(5.130196686155485,0,0)"><path fill="rgb(255,127,0)" stroke="none" paint-order="stroke fill markers" d=" M 0 0 L 35.08637407328921 0 L 35.08637407328921 35.08637407328921 L 0 35.08637407328921 L 0 0 Z" fill-opacity="0.5882352941176471"/></g><g transform="translate(60,0)"><g transform="translate(0,58.00273167464161) rotate(2.6720720657295627,0,0)"><path fill="rgb(255,255,0)" stroke="none" paint-order="stroke fill markers" d=" M 0 0 L 67.36345262112313 0 L 67.36345262112313 67.36345262112313 L 0 67.36345262112313 L 0 0 Z" fill-opacity="0.5882352941176471"/></g><g transform="translate(60,0)"/></g></g></g></g></g></g></g></g></g></g></g></svg>