<svg version="1.1" xmlns="http://www.w3.org/2000/svg" xmlns:xlink="http://www.w3.org/1999/xlink" width="600" height="600" viewBox="0 0 600 600"><defs/><g transform="scale(1,1)"><g transform="scale(1,1)"><rect fill="rgb(0,0,0)" stroke="none" x="0" y="0" width="600" height="600" fill-opacity="1"/></g><g><g transform="translate(0,300) rotate(2961.663072943175,0,0)"><path fill="rgb(255,0,0)" stroke="none" paint-order="stroke fill markers" d=" M 0 0 L 36.4659981031111 0 L 36.4659981031111 36.4659981031111 L 0 36.4659981031111 L 0 0 Z" fill-opacity="0.5882352941176471"/></g><g transform="translate(6,0)"><g transform="translate(0,308.50233761762354) rotate(2748.0838663009777,0,0)"><path fill="rgb(255,127,0)" stroke="none" paint-order="stroke fill markers" d=" M 0 0 L 39.300110642318934 0 L 39.300110642318934 39.300110642318934 L 0 39.300110642318934 L 0 0 Z" fill-opacity="0.5882352941176471"/></g><g transform="translate(6,0)"><g transform="translate(0,327.02944440774485) rotate(2374.8888276932908,0,0)"><path fill="rgb(255,255,0)" stroke="none" paint-order="stroke fill markers" d=" M 0 0 L 45.47581290569271 0 L 45.47581290569271 45.47581290569271 L 0 45.47581290569271 L 0 0 Z" fill-opacity="0.5882352941176471"/></g><g transform="translate(6,0)"><g transform="translate(0,343.23982941344434) rotate(2122.671773599525,0,0)"><path fill="rgb(0,255,0)" stroke="none" paint-order="stroke fill markers" d=" M 0 0 L 50.8792745742592 0 L 50.8792745742592 50.8792745742592 L 0 50.8792745742592 L 0 0 Z" fill-opacity="0.5882352941176471"/></g><g transform="translate(6,0)"><g transform="translate(0,353.7124798995519) rotate(1986.3837780587521,0,0)"><path fill="rgb(0,0,255)" stroke="none" paint-order="stroke fill markers" d=" M 0 0 L 54.370158069628395 0 L 54.370158069628395 54.370158069628395 L 0 54.370158069628395 L 0 0 Z" fill-opacity="0.5882352941176471"/></g><g transform="translate(6,0)"><g transform="translate(0,364.6670786158643) rotate(1861.3728449660616,0,0)"><path fill="rgb(75,0,130)" stroke="none" paint-order="stroke fill markers" d=" M 0 0 L 58.02169097506586 0 L 58.02169097506586 58.02169097506586 L 0 58.02169097506586 L 0 0 Z" fill-opacity="0.5882352941176471"/></g><g transform="translate(6,0)"><g transform="translate(0,385.3236843910914) rotate(1663.91334628163,0,0)"><path fill="rgb(148,0,211)" stroke="none" paint-order="stroke fill markers" d=" M 0 0 L 64.90722623347489 0 L 64.90722623347489 64.90722623347489 L 0 64.90722623347489 L 0 0 Z" fill-opacity="0.5882352941176471"/></g><g transform="translate(6,0)"><g transform="translate(0,407.98564060037745) rotate(1490.4525822956814,0,0)"><path fill="rgb(255,0,0)" stroke="none" paint-order="stroke fill markers" d=" M 0 0 L 72.46121163657024 0 L 72.46121163657024 72.46121163657024 L 0 72.46121163657024 L 0 0 Z" fill-opacity="0.5882352941176471"/></g><g transform="translate(6,0)"><g transform="translate(0,413.33615476496266) rotate(1454.648967599151,0,0)"><path fill="rgb(255,127,0)" stroke="none" paint-order="stroke fill markers" d=" M 0 0 L 74.24471635809864 0 L 74.24471635809864 74.24471635809864 L 0 74.24471635809864 L 0 0 Z" fill-opacity="0.5882352941176471"/></g><g transform="translate(6,0)"><g transform="translate(0,403.9294821262272) rotate(1518.7916972236358,0,0)"><path fill="rgb(255,255,0)" stroke="none" paint-order="stroke fill markers" d=" M 0 0 L 71.10915881185348 0 L 71.10915881185348 71.10915881185348 L 0 71.10915881185348 L 0 0 Z" fill-opacity="0.5882352941176471"/></g><g transform="translate(6,0)"><g transform="translate(0,401.66798016822463) rotate(1535.0650468507895,0,0)"><path fill="rgb(0,255,0)" stroke="none" paint-order="stroke fill markers" d=" M 0 0 L 70.35532482585263 0 L 70.35532482585263 70.35532482585263 L 0 70.35532482585263 L 0 0 Z" fill-opacity="0.5882352941176471"/></g><g transform="translate(6,0)"><g transform="translate(0,414.7317858013626) rotate(1445.5910314103685,0,0)"><path fill="rgb(0,0,255)" stroke="none" paint-order="stroke fill markers" d=" M 0 0 L 74.7099267035653 0 L 74.7099267035653 74.7099267035653 L 0 74.7099267035653 L 0 0 Z" fill-opacity="0.5882352941176471"/></g><g transform="translate(6,0)"><g transform="translate(0,434.5127241042972) rotate(1328.3549083339256,0,0)"><path fill="rgb(75,0,130)" stroke="none" paint-order="stroke fill markers" d=" M 0 0 L 81.30357280454349 0 L 81.30357280454349 81.30357280454349 L 0 81.30357280454349 L 0 0 Z" fill-opacity="0.5882352941176471"/></g><g transform="translate(6,0)"><g transform="translate(0,454.1838264610552) rotate(1229.2198265154368,0,0)"><path fill="rgb(148,0,211)" stroke="none" paint-order="stroke fill markers" d=" M 0 0 L 87.86060692346284 0 L 87.86060692346284 87.86060692346284 L 0 87.86060692346284 L 0 0 Z" fill-opacity="0.5882352941176471"/></g><g transform="translate(6,0)"><g transform="translate(0,471.9302102357005) rotate(1151.679763228772,0,0)"><path fill="rgb(255,0,0)" stroke="none" paint-order="stroke fill markers" d=" M 0 0 L 93.77606818167793 0 L 93.77606818167793 93.77606818167793 L 0 93.77606818167793 L 0 0 Z" fill-opacity="0.5882352941176471"/></g><g transform="translate(6,0)"><g transform="translate(0,478.22207433399456) rotate(1126.4860672910354,0,0)"><path fill="rgb(255,127,0)" stroke="none" paint-order="stroke fill markers" d=" M 0 0 L 95.87335621444261 0 L 95.87335621444261 95.87335621444261 L 0 95.87335621444261 L 0 0 Z" fill-opacity="0.5882352941176471"/></g><g transform="translate(6,0)"><g transform="translate(0,465.5633999180934) rotate(1178.3472400202204,0,0)"><path fill="rgb(255,255,0)" stroke="none" paint-order="stroke fill markers" d=" M 0 0 L 91.6537980758089 0 L 91.6537980758089 91.6537980758089 L 0 91.6537980758089 L 0 0 Z" fill-opacity="0.5882352941176471"/></g><g transform="translate(6,0)"><g transform="translate(0,441.3581052982974) rotate(1292.0921983831192,0,0)"><path fill="rgb(0,255,0)" stroke="none" paint-order="stroke fill markers" d=" M 0 0 L 83.5853665358769 0 L 83.5853665358769 83.5853665358769 L 0 83.5853665358769 L 0 0 Z" fill-opacity="0.5882352941176471"/></g><g transform="translate(6,0)"><g transform="translate(0,421.3581126829462) rotate(1404.079849599994,0,0)"><path fill="rgb(0,0,255)" stroke="none" paint-order="stroke fill markers" d=" M 0 0 L 76.91870233075984 0 L 76.91870233075984 76.91870233075984 L 0 76.91870233075984 L 0 0 Z" fill-opacity="0.5882352941176471"/></g><g transform="translate(6,0)"><g transform="translate(0,405.8748797166836) rotate(1505.066541550622,0,0)"><path fill="rgb(75,0,130)" stroke="none" paint-order="stroke fill markers" d=" M 0 0 L 71.75762467533897 0 L 71.75762467533897 71.75762467533897 L 0 71.75762467533897 L 0 0 Z" fill-opacity="0.5882352941176471"/></g><g transform="translate(6,0)"><g transform="translate(0,399.78966981611114) rotate(1548.848500959911,0,0)"><path fill="rgb(148,0,211)" stroke="none" paint-order="stroke fill markers" d=" M 0 0 L 69.72922137514814 0 L 69.72922137514814 69.72922137514814 L 0 69.72922137514814 L 0 0 Z" fill-opacity="0.5882352941176471"/></g><g transform="translate(6,0)"><g transform="translate(0,403.7144170047785) rotate(1520.324405332021,0,0)"><path fill="rgb(255,0,0)" stroke="none" paint-order="stroke fill markers" d=" M 0 0 L 71.03747043803726 0 L 71.03747043803726 71.03747043803726 L 0 71.03747043803726 L 0 0 Z" fill-opacity="0.5882352941176471"/></g><g transform="translate(6,0)"><g transform="translate(0,413.3743485406317) rotate(1454.3995715761307,0,0)"><path fill="rgb(255,127,0)" stroke="none" paint-order="stroke fill markers" d=" M 0 0 L 74.257447616655 0 L 74.257447616655 74.257447616655 L 0 74.257447616655 L 0 0 Z" fill-opacity="0.5882352941176471"/></g><g transform="translate(6,0)"><g transform="translate(0,427.16054950042013) rotate(1369.6398142379896,0,0)"><path fill="rgb(255,255,0)" stroke="none" paint-order="stroke fill markers" d=" M 0 0 L 78.85284793658447 0 L 78.85284793658447 78.85284793658447 L 0 78.85284793658447 L 0 0 Z" fill-opacity="0.5882352941176471"/></g><g transform="translate(6,0)"><g transform="translate(0,452.33267575559336) rotate(1237.9137680716838,0,0)"><path fill="rgb(0,255,0)" stroke="none" paint-order="stroke fill markers" d=" M 0 0 L 87.24355668830889 0 L 87.24355668830889 87.24355668830889 L 0 87.24355668830889 L 0 0 Z" fill-opacity="0.5882352941176471"/></g><g transform="translate(6,0)"><g transform="translate(0,472.36245723051593) rotate(1149.9129783094377,0,0)"><path fill="rgb(0,0,255)" stroke="none" paint-order="stroke fill markers" d=" M 0 0 L 93.92015051328308 0 L 93.92015051328308 93.92015051328308 L 0 93.92015051328308 L 0 0 Z" fill-opacity="0.5882352941176471"/></g><g transform="translate(6,0)"><g transform="translate(0,478.7106235746232) rotate(1124.5758713489777,0,0)"><path fill="rgb(75,0,130)" stroke="none" paint-order="stroke fill markers" d=" M 0 0 L 96.03620596131883 0 L 96.03620596131883 96.03620596131883 L 0 96.03620596131883 L 0 0 Z" fill-opacity="0.5882352941176471"/></g><g transform="translate(6,0)"><g transform="translate(0,481.3562715800332) rotate(1114.343065643218,0,0)"><path fill="rgb(148,0,211)" stroke="none" paint-order="stroke fill markers" d=" M 0 0 L 96.91808862978883 0 L 96.91808862978883 96.91808862978883 L 0 96.91808862978883 L 0 0 Z" fill-opacity="0.5882352941176471"/></g><g transform="translate(6,0)"><g transform="translate(0,489.7261392918783) rotate(1083.162351694272,0,0)"><path fill="rgb(255,0,0)" stroke="none" paint-order="stroke fill markers" d=" M 0 0 L 99.70804453373721 0 L 99.70804453373721 99.70804453373721 L 0 99.70804453373721 L 0 0 Z" fill-opacity="0.5882352941176471"/></g><g transform="translate(6,0)"><g transform="translate(0,495.80196394205393) rotate(1061.599096724409,0,0)"><path fill="rgb(255,127,0)" stroke="none" paint-order="stroke fill markers" d=" M 0 0 L 101.73331941712907 0 L 101.73331941712907 101.73331941712907 L 0 101.73331941712907 L 0 0 Z" fill-opacity="0.5882352941176471"/></g><g transform="translate(6,0)"><g transform="translate(0,493.54101874775955) rotate(1069.5222009551408,0,0)"><path fill="rgb(255,255,0)" stroke="none" paint-order="stroke fill markers" d=" M 0 0 L 100.97967101903095 0 L 100.97967101903095 100.97967101903095 L 0 100.97967101903095 L 0 0 Z" fill-opacity="0.5882352941176471"/></g><g transform="translate(6,0)"><g transform="translate(0,488.2049523895771) rotate(1088.6988976214536,0,0)"><path fill="rgb(0,255,0)" stroke="none" paint-order="stroke fill markers" d=" M 0 0 L 99.20098223297013 0 L 99.20098223297013 99.20098223297013 L 0 99.20098223297013 L 0 0 Z" fill-opacity="0.5882352941176471"/></g><g transform="translate(6,0)"><g transform="translate(0,478.24282484040316) rotate(1126.4048022034597,0,0)"><path fill="rgb(0,0,255)" stroke="none" paint-order="stroke fill markers" d=" M 0 0 L 95.88027304991215 0 L 95.88027304991215 95.88027304991215 L 0 95.88027304991215 L 0 0 Z" fill-opacity="0.5882352941176471"/></g><g transform="translate(6,0)"><g transform="translate(0,450.3773248763908) rotate(1247.2316500874322,0,0)"><path fill="rgb(75,0,130)" stroke="none" paint-order="stroke fill markers" d=" M 0 0 L 86.59177306190803 0 L 86.59177306190803 86.59177306190803 L 0 86.59177306190803 L 0 0 Z" fill-opacity="0.5882352941176471"/></g><g transform="translate(6,0)"><g transform="translate(0,409.93336699142503) rotate(1477.2169291181062,0,0)"><path fill="rgb(148,0,211)" stroke="none" paint-order="stroke fill markers" d=" M 0 0 L 73.11045376691943 0 L 73.11045376691943 73.11045376691943 L 0 73.11045376691943 L 0 0 Z" fill-opacity="0.5882352941176471"/></g><g transform="translate(6,0)"><g transform="translate(0,377.8932380410347) rotate(1729.9261472842957,0,0)"><path fill="rgb(255,0,0)" stroke="none" paint-order="stroke fill markers" d=" M 0 0 L 62.430410783456004 0 L 62.430410783456004 62.430410783456004 L 0 62.430410783456004 L 0 0 Z" fill-opacity="0.5882352941176471"/></g><g transform="translate(6,0)"><g transform="translate(0,355.7513669886282) rotate(1961.8604483455506,0,0)"><path fill="rgb(255,127,0)" stroke="none" paint-order="stroke fill markers" d=" M 0 0 L 55.04978709932049 0 L 55.04978709932049 55.04978709932049 L 0 55.04978709932049 L 0 0 Z" fill-opacity="0.5882352941176471"/></g><g transform="translate(6,0)"><g transform="translate(0,335.08726401556703) rotate(2242.443303602845,0,0)"><path fill="rgb(255,255,0)" stroke="none" paint-order="stroke fill markers" d=" M 0 0 L 48.16175277496678 0 L 48.16175277496678 48.16175277496678 L 0 48.16175277496678 L 0 0 Z" fill-opacity="0.5882352941176471"/></g><g transform="translate(6,0)"><g transform="translate(0,319.1354250844836) rotate(2520.7452001824367,0,0)"><path fill="rgb(0,255,0)" stroke="none" paint-order="stroke fill markers" d=" M 0 0 L 42.84447313127229 0 L 42.84447313127229 42.84447313127229 L 0 42.84447313127229 L 0 0 Z" fill-opacity="0.5882352941176471"/></g><g transform="translate(6,0)"><g transform="translate(0,307.27517062139566) rotate(2776.9881805500436,0,0)"><path fill="rgb(0,0,255)" stroke="none" paint-order="stroke fill markers" d=" M 0 0 L 38.891054976909636 0 L 38.891054976909636 38.891054976909636 L 0 38.891054976909636 L 0 0 Z" fill-opacity="0.5882352941176471"/></g><g transform="translate(6,0)"><g transform="translate(0,302.65073916801265) rotate(2891.598949358106,0,0)"><path fill="rgb(75,0,130)" stroke="none" paint-order="stroke fill markers" d=" M 0 0 L 37.34957782578198 0 L 37.34957782578198 37.34957782578198 L 0 37.34957782578198 L 0 0 Z" fill-opacity="0.5882352941176471"/></g><g transform="translate(6,0)"><g transform="translate(0,310.5994152928407) rotate(2700.0582852092675,0,0)"><path fill="rgb(148,0,211)" stroke="none" paint-order="stroke fill markers" d=" M 0 0 L 39.999136534057996 0 L 39.999136534057996 39.999136534057996 L 0 39.999136534057996 L 0 0 Z" fill-opacity="0.5882352941176471"/></g><g transform="translate(6,0)"><g transform="translate(0,326.3794376634198) rotate(2386.2581232573184,0,0)"><path fill="rgb(255,0,0)" stroke="none" paint-order="stroke fill markers" d=" M 0 0 L 45.25914399091769 0 L 45.25914399091769 45.25914399091769 L 0 45.25914399091769 L 0 0 Z" fill-opacity="0.5882352941176471"/></g><g transform="translate(6,0)"><g transform="translate(0,337.7017705698735) rotate(2202.586797239666,0,0)"><path fill="rgb(255,127,0)" stroke="none" paint-order="stroke fill markers" d=" M 0 0 L 49.033254959735594 0 L 49.033254959735594 49.033254959735594 L 0 49.033254959735594 L 0 0 Z" fill-opacity="0.5882352941176471"/></g><g transform="translate(6,0)"><g transform="translate(0,347.68108776834515) rotate(2062.655292572796,0,0)"><path fill="rgb(255,255,0)" stroke="none" paint-order="stroke fill markers" d=" M 0 0 L 52.3596940258928 0 L 52.3596940258928 52.3596940258928 L 0 52.3596940258928 L 0 0 Z" fill-opacity="0.5882352941176471"/></g><g transform="translate(6,0)"><g transform="translate(0,360.02574132015286) rotate(1912.3648690438376,0,0)"><path fill="rgb(0,255,0)" stroke="none" paint-order="stroke fill markers" d=" M 0 0 L 56.474578543162046 0 L 56.474578543162046 56.474578543162046 L 0 56.474578543162046 L 0 0 Z" fill-opacity="0.5882352941176471"/></g><g transform="translate(6,0)"><g transform="translate(0,380.1431620351693) rotate(1709.3912807575696,0,0)"><path fill="rgb(0,0,255)" stroke="none" paint-order="stroke fill markers" d=" M 0 0 L 63.18038544816753 0 L 63.18038544816753 63.18038544816753 L 0 63.18038544816753 L 0 0 Z" fill-opacity="0.5882352941176471"/></g><g transform="translate(6,0)"><g transform="translate(0,408.77813150810096) rotate(1485.0387446659365,0,0)"><path fill="rgb(75,0,130)" stroke="none" paint-order="stroke fill markers" d=" M 0 0 L 72.72537527247809 0 L 72.72537527247809 72.72537527247809 L 0 72.72537527247809 L 0 0 Z" fill-opacity="0.5882352941176471"/></g><g transform="translate(6,0)"><g transform="translate(0,437.66236619178983) rotate(1311.4204129825475,0,0)"><path fill="rgb(148,0,211)" stroke="none" paint-order="stroke fill markers" d=" M 0 0 L 82.35345350037439 0 L 82.35345350037439 82.35345350037439 L 0 82.35345350037439 L 0 0 Z" fill-opacity="0.5882352941176471"/></g><g transform="translate(6,0)"><g transform="translate(0,453.67596203396334) rotate(1231.5928361118283,0,0)"><path fill="rgb(255,0,0)" stroke="none" paint-order="stroke fill markers" d=" M 0 0 L 87.69131878109887 0 L 87.69131878109887 87.69131878109887 L 0 87.69131878109887 L 0 0 Z" fill-opacity="0.5882352941176471"/></g><g transform="translate(6,0)"><g transform="translate(0,467.4299577789084) rotate(1170.4020405306533,0,0)"><path fill="rgb(255,127,0)" stroke="none" paint-order="stroke fill markers" d=" M 0 0 L 92.27598402941389 0 L 92.27598402941389 92.27598402941389 L 0 92.27598402941389 L 0 0 Z" fill-opacity="0.5882352941176471"/></g><g transform="translate(6,0)"><g transform="translate(0,487.5156100277067) rotate(1091.2265226897891,0,0)"><path fill="rgb(255,255,0)" stroke="none" paint-order="stroke fill markers" d=" M 0 0 L 98.97120144568 0 L 98.97120144568 98.97120144568 L 0 98.97120144568 L 0 0 Z" fill-opacity="0.5882352941176471"/></g><g transform="translate(6,0)"><g transform="translate(0,506.75596928267146) rotate(1024.817137570733,0,0)"><path fill="rgb(0,255,0)" stroke="none" paint-order="stroke fill markers" d=" M 0 0 L 105.38465453066824 0 L 105.38465453066824 105.38465453066824 L 0 105.38465453066824 L 0 0 Z" fill-opacity="0.5882352941176471"/></g><g transform="translate(6,0)"><g transform="translate(0,518.0486641793501) rotate(989.474137544749,0,0)"><path fill="rgb(0,0,255)" stroke="none" paint-order="stroke fill markers" d=" M 0 0 L 109.14888616289447 0 L 109.14888616289447 109.14888616289447 L 0 109.14888616289447 L 0 0 Z" fill-opacity="0.5882352941176471"/></g><g transform="translate(6,0)"><g transform="translate(0,536.5784562132731) rotate(936.4799237363978,0,0)"><path fill="rgb(75,0,130)" stroke="none" paint-order="stroke fill markers" d=" M 0 0 L 115.32548350753545 0 L 115.32548350753545 115.32548350753545 L 0 115.32548350753545 L 0 0 Z" fill-opacity="0.5882352941176471"/></g><g transform="translate(6,0)"><g transform="translate(0,556.1740249038603) rotate(886.2822726349042,0,0)"><path fill="rgb(148,0,211)" stroke="none" paint-order="stroke fill markers" d=" M 0 0 L 121.85733973773118 0 L 121.85733973773118 121.85733973773118 L 0 121.85733973773118 L 0 0 Z" fill-opacity="0.5882352941176471"/></g><g transform="translate(6,0)"><g transform="translate(0,570.9622305441153) rotate(851.8240836692007,0,0)"><path fill="rgb(255,0,0)" stroke="none" paint-order="stroke fill markers" d=" M 0 0 L 126.78674161781619 0 L 126.78674161781619 126.78674161781619 L 0 126.78674161781619 L 0 0 Z" fill-opacity="0.5882352941176471"/></g><g transform="translate(6,0)"><g transform="translate(0,583.1659097761308) rotate(825.3433304185371,0,0)"><path fill="rgb(255,127,0)" stroke="none" paint-order="stroke fill markers" d=" M 0 0 L 130.85463469515466 0 L 130.85463469515466 130.85463469515466 L 0 130.85463469515466 L 0 0 Z" fill-opacity="0.5882352941176471"/></g><g transform="translate(6,0)"><g transform="translate(0,593.4698536052933) rotate(804.2339483707324,0,0)"><path fill="rgb(255,255,0)" stroke="none" paint-order="stroke fill markers" d=" M 0 0 L 134.2892826382089 0 L 134.2892826382089 134.2892826382089 L 0 134.2892826382089 L 0 0 Z" fill-opacity="0.5882352941176471"/></g><g transform="translate(6,0)"><g transform="translate(0,593.9258437166648) rotate(803.3246970617074,0,0)"><path fill="rgb(0,255,0)" stroke="none" paint-order="stroke fill markers" d=" M 0 0 L 134.44127934199935 0 L 134.44127934199935 134.44127934199935 L 0 134.44127934199935 L 0 0 Z" fill-opacity="0.5882352941176471"/></g><g transform="translate(6,0)"><g transform="translate(0,592.0864837549013) rotate(807.0050467758366,0,0)"><path fill="rgb(0,0,255)" stroke="none" paint-order="stroke fill markers" d=" M 0 0 L 133.82815935474488 0 L 133.82815935474488 133.82815935474488 L 0 133.82815935474488 L 0 0 Z" fill-opacity="0.5882352941176471"/></g><g transform="translate(6,0)"><g transform="translate(0,590.1340157058075) rotate(810.9487897796265,0,0)"><path fill="rgb(75,0,130)" stroke="none" paint-order="stroke fill markers" d=" M 0 0 L 133.1773366717136 0 L 133.1773366717136 133.1773366717136 L 0 133.1773366717136 L 0 0 Z" fill-opacity="0.5882352941176471"/></g><g transform="translate(6,0)"><g transform="translate(0,587.568552283402) rotate(816.1896834405173,0,0)"><path fill="rgb(148,0,211)" stroke="none" paint-order="stroke fill markers" d=" M 0 0 L 132.32218219757843 0 L 132.32218219757843 132.32218219757843 L 0 132.32218219757843 L 0 0 Z" fill-opacity="0.5882352941176471"/></g><g transform="translate(6,0)"><g transform="translate(0,587.9175578852332) rotate(815.4727349845502,0,0)"><path fill="rgb(255,0,0)" stroke="none" paint-order="stroke fill markers" d=" M 0 0 L 132.43851739818885 0 L 132.43851739818885 132.43851739818885 L 0 132.43851739818885 L 0 0 Z" fill-opacity="0.5882352941176471"/></g><g transform="translate(6,0)"><g transform="translate(0,585.178067536261) rotate(821.1344562681246,0,0)"><path fill="rgb(255,127,0)" stroke="none" paint-order="stroke fill markers" d=" M 0 0 L 131.52535394853143 0 L 131.52535394853143 131.52535394853143 L 0 131.52535394853143 L 0 0 Z" fill-opacity="0.5882352941176471"/></g><g transform="translate(6,0)"><g transform="translate(0,571.3431262397596) rotate(850.9719137579293,0,0)"><path fill="rgb(255,255,0)" stroke="none" paint-order="stroke fill markers" d=" M 0 0 L 126.91370684969762 0 L 126.91370684969762 126.91370684969762 L 0 126.91370684969762 L 0 0 Z" fill-opacity="0.5882352941176471"/></g><g transform="translate(6,0)"><g transform="translate(0,551.9093580923465) rotate(896.7434452864284,0,0)"><path fill="rgb(0,255,0)" stroke="none" paint-order="stroke fill markers" d=" M 0 0 L 120.43578413389325 0 L 120.43578413389325 120.43578413389325 L 0 120.43578413389325 L 0 0 Z" fill-opacity="0.5882352941176471"/></g><g transform="translate(6,0)"><g transform="translate(0,529.3577763660296) rotate(956.4412714034512,0,0)"><path fill="rgb(0,0,255)" stroke="none" paint-order="stroke fill markers" d=" M 0 0 L 112.91859022512095 0 L 112.91859022512095 112.91859022512095 L 0 112.91859022512095 L 0 0 Z" fill-opacity="0.5882352941176471"/></g><g transform="translate(6,0)"><g transform="translate(0,496.7009827846491) rotate(1058.481158859023,0,0)"><path fill="rgb(75,0,130)" stroke="none" paint-order="stroke fill markers" d=" M 0 0 L 102.0329923646608 0 L 102.0329923646608 102.0329923646608 L 0 102.0329923646608 L 0 0 Z" fill-opacity="0.5882352941176471"/></g><g transform="translate(6,0)"><g transform="translate(0,468.695127601389) rotate(1165.0773588856161,0,0)"><path fill="rgb(148,0,211)" stroke="none" paint-order="stroke fill markers" d=" M 0 0 L 92.69770730357409 0 L 92.69770730357409 92.69770730357409 L 0 92.69770730357409 L 0 0 Z" fill-opacity="0.5882352941176471"/></g><g transform="translate(6,0)"><g transform="translate(0,448.6410947164142) rotate(1255.6237166364774,0,0)"><path fill="rgb(255,0,0)" stroke="none" paint-order="stroke fill markers" d=" M 0 0 L 86.01302967524917 0 L 86.01302967524917 86.01302967524917 L 0 86.01302967524917 L 0 0 Z" fill-opacity="0.5882352941176471"/></g><g transform="translate(6,0)"><g transform="translate(0,424.3515871770007) rotate(1386.0987384011316,0,0)"><path fill="rgb(255,127,0)" stroke="none" paint-order="stroke fill markers" d=" M 0 0 L 77.91652716211132 0 L 77.91652716211132 77.91652716211132 L 0 77.91652716211132 L 0 0 Z" fill-opacity="0.5882352941176471"/></g><g transform="translate(6,0)"><g transform="translate(0,394.7748581301961) rotate(1586.8906964306639,0,0)"><path fill="rgb(255,255,0)" stroke="none" paint-order="stroke fill markers" d=" M 0 0 L 68.05761747984313 0 L 68.05761747984313 68.05761747984313 L 0 68.05761747984313 L 0 0 Z" fill-opacity="0.5882352941176471"/></g><g transform="translate(6,0)"><g transform="translate(0,376.8712245720048) rotate(1739.4178273029784,0,0)"><path fill="rgb(0,255,0)" stroke="none" paint-order="stroke fill markers" d=" M 0 0 L 62.08973962711269 0 L 62.08973962711269 62.08973962711269 L 0 62.08973962711269 L 0 0 Z" fill-opacity="0.5882352941176471"/></g><g transform="translate(6,0)"><g transform="translate(0,369.495771609266) rotate(1811.130747548952,0,0)"><path fill="rgb(0,0,255)" stroke="none" paint-order="stroke fill markers" d=" M 0 0 L 59.63125530619976 0 L 59.63125530619976 59.63125530619976 L 0 59.63125530619976 L 0 0 Z" fill-opacity="0.5882352941176471"/></g><g transform="translate(6,0)"><g transform="translate(0,360.99588867401076) rotate(1901.4767098867678,0,0)"><path fill="rgb(75,0,130)" stroke="none" paint-order="stroke fill markers" d=" M 0 0 L 56.797960994448026 0 L 56.797960994448026 56.797960994448026 L 0 56.797960994448026 L 0 0 Z" fill-opacity="0.5882352941176471"/></g><g transform="translate(6,0)"><g transform="translate(0,342.0552908073) rotate(2139.273504371261,0,0)"><path fill="rgb(148,0,211)" stroke="none" paint-order="stroke fill markers" d=" M 0 0 L 50.48442837221111 0 L 50.48442837221111 50.48442837221111 L 0 50.48442837221111 L 0 0 Z" fill-opacity="0.5882352941176471"/></g><g transform="translate(6,0)"><g transform="translate(0,320.0733945168184) rotate(2502.4833898634747,0,0)"><path fill="rgb(255,0,0)" stroke="none" paint-order="stroke fill markers" d=" M 0 0 L 43.15712960871722 0 L 43.15712960871722 43.15712960871722 L 0 43.15712960871722 L 0 0 Z" fill-opacity="0.5882352941176471"/></g><g transform="translate(6,0)"><g transform="translate(0,310.33602130795225) rotate(2705.9979432713963,0,0)"><path fill="rgb(255,127,0)" stroke="none" paint-order="stroke fill markers" d=" M 0 0 L 39.91133853909519 0 L 39.91133853909519 39.91133853909519 L 0 39.91133853909519 L 0 0 Z" fill-opacity="0.5882352941176471"/></g><g transform="translate(6,0)"><g transform="translate(0,311.2588300214062) rotate(2685.3019031220706,0,0)"><path fill="rgb(255,255,0)" stroke="none" paint-order="stroke fill markers" d=" M 0 0 L 40.218941443579816 0 L 40.218941443579816 40.218941443579816 L 0 40.218941443579816 L 0 0 Z" fill-opacity="0.5882352941176471"/></g><g transform="translate(6,0)"><g transform="translate(0,313.4298940078984) rotate(2637.837419814582,0,0)"><path fill="rgb(0,255,0)" stroke="none" paint-order="stroke fill markers" d=" M 0 0 L 40.942629439077216 0 L 40.942629439077216 40.942629439077216 L 0 40.942629439077216 L 0 0 Z" fill-opacity="0.5882352941176471"/></g><g transform="translate(6,0)"><g transform="translate(0,322.09229715268884) rotate(2464.0602465588095,0,0)"><path fill="rgb(0,0,255)" stroke="none" paint-order="stroke fill markers" d=" M 0 0 L 43.830097154007376 0 L 43.830097154007376 43.830097154007376 L 0 43.830097154007376 L 0 0 Z" fill-opacity="0.5882352941176471"/></g><g transform="translate(6,0)"><g transform="translate(0,339.8812649961717) rotate(2170.428775620618,0,0)"><path fill="rgb(75,0,130)" stroke="none" paint-order="stroke fill markers" d=" M 0 0 L 49.759753101834995 0 L 49.759753101834995 49.759753101834995 L 0 49.759753101834995 L 0 0 Z" fill-opacity="0.5882352941176471"/></g><g transform="translate(6,0)"><g transform="translate(0,351.8961418160686) rotate(2008.752505100983,0,0)"><path fill="rgb(148,0,211)" stroke="none" paint-order="stroke fill markers" d=" M 0 0 L 53.76471204180063 0 L 53.76471204180063 53.76471204180063 L 0 53.76471204180063 L 0 0 Z" fill-opacity="0.5882352941176471"/></g><g transform="translate(6,0)"><g transform="translate(0,352.58054964051075) rotate(2000.2649245959713,0,0)"><path fill="rgb(255,0,0)" stroke="none" paint-order="stroke fill markers" d=" M 0 0 L 53.992847983281344 0 L 53.992847983281344 53.992847983281344 L 0 53.992847983281344 L 0 0 Z" fill-opacity="0.5882352941176471"/></g><g transform="translate(6,0)"><g transform="translate(0,352.77179170311626) rotate(1997.9060709565656,0,0)"><path fill="rgb(255,127,0)" stroke="none" paint-order="stroke fill markers" d=" M 0 0 L 54.056595337483174 0 L 54.056595337483174 54.056595337483174 L 0 54.056595337483174 L 0 0 Z" fill-opacity="0.5882352941176471"/></g><g transform="translate(6,0)"><g transform="translate(0,357.4500502215915) rotate(1941.8867084171768,0,0)"><path fill="rgb(255,255,0)" stroke="none" paint-order="stroke fill markers" d=" M 0 0 L 55.61601484364158 0 L 55.61601484364158 55.61601484364158 L 0 55.61601484364158 L 0 0 Z" fill-opacity="0.5882352941176471"/></g><g transform="translate(6,0)"><g transform="translate(0,361.74081982642326) rotate(1893.199982927226,0,0)"><path fill="rgb(0,255,0)" stroke="none" paint-order="stroke fill markers" d=" M 0 0 L 57.046271378585516 0 L 57.046271378585516 57.046271378585516 L 0 57.046271378585516 L 0 0 Z" fill-opacity="0.5882352941176471"/></g><g transform="translate(6,0)"><g transform="translate(0,361.07989297483095) rotate(1900.5397424941955,0,0)"><path fill="rgb(0,0,255)" stroke="none" paint-order="stroke fill markers" d=" M 0 0 L 56.82596242805476 0 L 56.82596242805476 56.82596242805476 L 0 56.82596242805476 L 0 0 Z" fill-opacity="0.5882352941176471"/></g><g transform="translate(6,0)"><g transform="translate(0,351.06215981344315) rotate(2019.1928754604749,0,0)"><path fill="rgb(75,0,130)" stroke="none" paint-order="stroke fill markers" d=" M 0 0 L 53.48671804092549 0 L 53.48671804092549 53.48671804092549 L 0 53.48671804092549 L 0 0 Z" fill-opacity="0.5882352941176471"/></g><g transform="translate(6,0)"><g transform="translate(0,346.1078951050273) rotate(2083.522374748589,0,0)"><path fill="rgb(148,0,211)" stroke="none" paint-order="stroke fill markers" d=" M 0 0 L 51.835296471453525 0 L 51.835296471453525 51.835296471453525 L 0 51.835296471453525 L 0 0 Z" fill-opacity="0.5882352941176471"/></g><g transform="translate(6,0)"><g transform="translate(0,356.16365489398675) rotate(1956.9749489636201,0,0)"><path fill="rgb(255,0,0)" stroke="none" paint-order="stroke fill markers" d=" M 0 0 L 55.18721640110667 0 L 55.18721640110667 55.18721640110667 L 0 55.18721640110667 L 0 0 Z" fill-opacity="0.5882352941176471"/></g><g transform="translate(6,0)"><g transform="translate(0,374.0593753936951) rotate(1766.07786607033,0,0)"><path fill="rgb(255,127,0)" stroke="none" paint-order="stroke fill markers" d=" M 0 0 L 61.15245656767613 0 L 61.15245656767613 61.15245656767613 L 0 61.15245656767613 L 0 0 Z" fill-opacity="0.5882352941176471"/></g><g transform="translate(6,0)"><g transform="translate(0,388.7785696595099) rotate(1634.9057300788522,0,0)"><path fill="rgb(255,255,0)" stroke="none" paint-order="stroke fill markers" d=" M 0 0 L 66.05885465628107 0 L 66.05885465628107 66.05885465628107 L 0 66.05885465628107 L 0 0 Z" fill-opacity="0.5882352941176471"/></g><g transform="translate(6,0)"><g transform="translate(0,405.00529463256805) rotate(1511.1708481664054,0,0)"><path fill="rgb(0,255,0)" stroke="none" paint-order="stroke fill markers" d=" M 0 0 L 71.46776298063378 0 L 71.46776298063378 71.46776298063378 L 0 71.46776298063378 L 0 0 Z" fill-opacity="0.5882352941176471"/></g><g transform="translate(6,0)"><g transform="translate(0,421.2957183131721) rotate(1404.4596028075368,0,0)"><path fill="rgb(0,0,255)" stroke="none" paint-order="stroke fill markers" d=" M 0 0 L 76.8979042075018 0 L 76.8979042075018 76.8979042075018 L 0 76.8979042075018 L 0 0 Z" fill-opacity="0.5882352941176471"/></g><g transform="translate(6,0)"><g transform="translate(0,434.0701688017948) rotate(1330.7694766322038,0,0)"><path fill="rgb(75,0,130)" stroke="none" paint-order="stroke fill markers" d=" M 0 0 L 81.15605437037604 0 L 81.15605437037604 81.15605437037604 L 0 81.15605437037604 L 0 0 Z" fill-opacity="0.5882352941176471"/></g><g transform="translate(6,0)"><g transform="translate(0,439.59747948285235) rotate(1301.2284724115668,0,0)"><path fill="rgb(148,0,211)" stroke="none" paint-order="stroke fill markers" d=" M 0 0 L 82.99849126406187 0 L 82.99849126406187 82.99849126406187 L 0 82.99849126406187 L 0 0 Z" fill-opacity="0.5882352941176471"/></g><g transform="translate(6,0)"><g transform="translate(0,435.71701419992655) rotate(1321.8284835779857,0,0)"><path fill="rgb(255,0,0)" stroke="none" paint-order="stroke fill markers" d=" M 0 0 L 81.70500283641995 0 L 81.70500283641995 81.70500283641995 L 0 81.70500283641995 L 0 0 Z" fill-opacity="0.5882352941176471"/></g><g transform="translate(6,0)"><g transform="translate(0,424.19381745479836) rotate(1387.0349202443685,0,0)"><path fill="rgb(255,127,0)" stroke="none" paint-order="stroke fill markers" d=" M 0 0 L 77.86393725471056 0 L 77.86393725471056 77.86393725471056 L 0 77.86393725471056 L 0 0 Z" fill-opacity="0.5882352941176471"/></g><g transform="translate(6,0)"/></g></g></g></g></g></g></g></g></g></g></g></g></g></g></g></g></g></g></g></g></g></g></g></g></g></g></g></g></g></g></g></g></g></g></g></g></g></g></g></g></g></g></g></g></g></g></g></g></g></g></g></g></g></g></g></g></g></g></g></g></g></g></g></g></g></g></g></g></g></g></g></g></g></g></g></g></g></g></g></g></g></g></g></g></g></g></g></g></g></g></g></g></g></g></g></g></g></g></g></g></g></svg>