<svg version="1.1" xmlns="http://www.w3.org/2000/svg" xmlns:xlink="http://www.w3.org/1999/xlink" width="600" height="600" viewBox="0 0 600 600"><defs/><g transform="scale(1,1)"><g transform="scale(1,1)"><rect fill="rgb(0,0,0)" stroke="none" x="0" y="0" width="600" height="600" fill-opacity="1"/></g><g><g transform="translate(0,300) rotate(2.074829366051534,0,0)"><path fill="rgb(255,0,0)" stroke="none" paint-order="stroke fill markers" d=" M 0 0 L 86.75412202331883 0 L 86.75412202331883 86.75412202331883 L 0 86.75412202331883 L 0 0 Z" fill-opacity="0.5882352941176471"/></g><g transform="translate(60,0)"><g transform="translate(0,288.3871175146446) rotate(2.1717318379881903,0,0)"><path fill="rgb(255,127,0)" stroke="none" paint-order="stroke fill markers" d=" M 0 0 L 82.88316119486703 0 L 82.88316119486703 82.88316119486703 L 0 82.88316119486703 L 0 0 Z" fill-opacity="0.5882352941176471"/></g><g transform="translate(60,0)"><g transform="translate(0,279.8532082573507) rotate(2.24891701220477,0,0)"><path fill="rgb(255,255,0)" stroke="none" paint-order="stroke fill markers" d=" M 0 0 L 80.03852477576906 0 L 80.03852477576906 80.03852477576906 L 0 80.03852477576906 L 0 0 Z" fill-opacity="0.5882352941176471"/></g><g transform="translate(60,0)"><g transform="translate(0,266.2923120994267) rotate(2.383530564733119,0,0)"><path fill="rgb(0,255,0)" stroke="none" paint-order="stroke fill markers" d=" M 0 0 L 75.51822605646107 0 L 75.51822605646107 75.51822605646107 L 0 75.51822605646107 L 0 0 Z" fill-opacity="0.5882352941176471"/></g><g transform="translate(60,0)"><g transform="translate(0,256.69208919800485) rotate(2.4890016631972083,0,0)"><path fill="rgb(0,0,255)" stroke="none" paint-order="stroke fill markers" d=" M 0 0 L 72.3181517559871 0 L 72.3181517559871 72.3181517559871 L 0 72.3181517559871 L 0 0 Z" fill-opacity="0.5882352941176471"/></g><g transform="translate(60,0)"><g transform="translate(0,283.1821489973246) rotate(2.2181645778741794,0,0)"><path fill="rgb(75,0,130)" stroke="none" paint-order="stroke fill markers" d=" M 0 0 L 81.1481716890937 0 L 81.1481716890937 81.1481716890937 L 0 81.1481716890937 L 0 0 Z" fill-opacity="0.5882352941176471"/></g><g transform="translate(60,0)"><g transform="translate(0,245.11962000862246) rotate(2.629247142411976,0,0)"><path fill="rgb(148,0,211)" stroke="none" paint-order="stroke fill markers" d=" M 0 0 L 68.46066202619299 0 L 68.46066202619299 68.46066202619299 L 0 68.46066202619299 L 0 0 Z" fill-opacity="0.5882352941176471"/></g><g transform="translate(60,0)"><g transform="translate(0,235.0941923413207) rotate(2.764176459656692,0,0)"><path fill="rgb(255,0,0)" stroke="none" paint-order="stroke fill markers" d=" M 0 0 L 65.11885280375907 0 L 65.11885280375907 65.11885280375907 L 0 65.11885280375907 L 0 0 Z" fill-opacity="0.5882352941176471"/></g><g transform="translate(60,0)"><g transform="translate(0,248.00094015255814) rotate(2.592871542253575,0,0)"><path fill="rgb(255,127,0)" stroke="none" paint-order="stroke fill markers" d=" M 0 0 L 69.42110207417154 0 L 69.42110207417154 69.42110207417154 L 0 69.42110207417154 L 0 0 Z" fill-opacity="0.5882352941176471"/></g><g transform="translate(60,0)"><g transform="translate(0,287.8600613952841) rotate(2.1763449822594074,0,0)"><path fill="rgb(255,255,0)" stroke="none" paint-order="stroke fill markers" d=" M 0 0 L 82.70747582174685 0 L 82.70747582174685 82.70747582174685 L 0 82.70747582174685 L 0 0 Z" fill-opacity="0.5882352941176471"/></g><g transform="translate(60,0)"/></g></g></g></g></g></g></g></g></g></g></g></svg>