<svg version="1.1" xmlns="http://www.w3.org/2000/svg" xmlns:xlink="http://www.w3.org/1999/xlink" width="600" height="600" viewBox="0 0 600 600"><defs/><g transform="scale(1,1)"><g transform="scale(1,1)"><rect fill="rgb(0,0,0)" stroke="none" x="0" y="0" width="600" height="600" fill-opacity="1"/></g><g><g transform="translate(0,300) rotate(6720.669277529903,0,0)"><path fill="rgb(255,0,0)" stroke="none" paint-order="stroke fill markers" d=" M 0 0 L 16.069828098979755 0 L 16.069828098979755 16.069828098979755 L 0 16.069828098979755 L 0 0 Z" fill-opacity="0.5882352941176471"/></g><g transform="translate(60,0)"><g transform="translate(0,332.61637777689407) rotate(4008.6179310284415,0,0)"><path fill="rgb(255,127,0)" stroke="none" paint-order="stroke fill markers" d=" M 0 0 L 26.941954024611118 0 L 26.941954024611118 26.941954024611118 L 0 26.941954024611118 L 0 0 Z" fill-opacity="0.5882352941176471"/></g><g transform="translate(60,0)"><g transform="translate(0,359.1813624252155) rotate(3017.0169049720207,0,0)"><path fill="rgb(255,255,0)" stroke="none" paint-order="stroke fill markers" d=" M 0 0 L 35.796948907384916 0 L 35.796948907384916 35.796948907384916 L 0 35.796948907384916 L 0 0 Z" fill-opacity="0.5882352941176471"/></g><g transform="translate(60,0)"><g transform="translate(0,457.5121715845511) rotate(1574.9435741789193,0,0)"><path fill="rgb(0,255,0)" stroke="none" paint-order="stroke fill markers" d=" M 0 0 L 68.5738852938301 0 L 68.5738852938301 68.5738852938301 L 0 68.5738852938301 L 0 0 Z" fill-opacity="0.5882352941176471"/></g><g transform="translate(60,0)"><g transform="translate(0,365.7082675137341) rotate(2844.1572524927883,0,0)"><path fill="rgb(0,0,255)" stroke="none" paint-order="stroke fill markers" d=" M 0 0 L 37.972583936891105 0 L 37.972583936891105 37.972583936891105 L 0 37.972583936891105 L 0 0 Z" fill-opacity="0.5882352941176471"/></g><g transform="translate(60,0)"><g transform="translate(0,525.7594184145412) rotate(1182.6159713506165,0,0)"><path fill="rgb(75,0,130)" stroke="none" paint-order="stroke fill markers" d=" M 0 0 L 91.32296757049347 0 L 91.32296757049347 91.32296757049347 L 0 91.32296757049347 L 0 0 Z" fill-opacity="0.5882352941176471"/></g><g transform="translate(60,0)"><g transform="translate(0,608.2917554570423) rotate(908.83274409814,0,0)"><path fill="rgb(148,0,211)" stroke="none" paint-order="stroke fill markers" d=" M 0 0 L 118.83374658466052 0 L 118.83374658466052 118.83374658466052 L 0 118.83374658466052 L 0 0 Z" fill-opacity="0.5882352941176471"/></g><g transform="translate(60,0)"><g transform="translate(0,533.4779882119519) rotate(1150.2108954801793,0,0)"><path fill="rgb(255,0,0)" stroke="none" paint-order="stroke fill markers" d=" M 0 0 L 93.89582416963037 0 L 93.89582416963037 93.89582416963037 L 0 93.89582416963037 L 0 0 Z" fill-opacity="0.5882352941176471"/></g><g transform="translate(60,0)"><g transform="translate(0,446.0349667014192) rotate(1668.0013165613577,0,0)"><path fill="rgb(255,127,0)" stroke="none" paint-order="stroke fill markers" d=" M 0 0 L 64.74815033278615 0 L 64.74815033278615 64.74815033278615 L 0 64.74815033278615 L 0 0 Z" fill-opacity="0.5882352941176471"/></g><g transform="translate(60,0)"><g transform="translate(0,547.9785422172937) rotate(1093.8997224603563,0,0)"><path fill="rgb(255,255,0)" stroke="none" paint-order="stroke fill markers" d=" M 0 0 L 98.72934217141098 0 L 98.72934217141098 98.72934217141098 L 0 98.72934217141098 L 0 0 Z" fill-opacity="0.5882352941176471"/></g><g transform="translate(60,0)"/></g></g></g></g></g></g></g></g></g></g></g></svg>