<svg version="1.1" xmlns="http://www.w3.org/2000/svg" xmlns:xlink="http://www.w3.org/1999/xlink" width="600" height="600" viewBox="0 0 600 600"><defs/><g transform="scale(1,1)"><g transform="scale(1,1)"><rect fill="rgb(0,0,0)" stroke="none" x="0" y="0" width="600" height="600" fill-opacity="1"/></g><g><g transform="translate(0,300) rotate(Infinity,0,0)"><path fill="rgb(255,0,0)" stroke="none" paint-order="stroke fill markers" d=" M 0 0 L 20 0 L 20 20 L 0 20 L 0 0 Z" fill-opacity="0.5882352941176471"/></g><g transform="translate(6,0)"><g transform="translate(0,296.00252371294505) rotate(18000,0,0)"><path fill="rgb(255,127,0)" stroke="none" paint-order="stroke fill markers" d=" M 0 0 L 20 0 L 20 20 L 0 20 L 0 0 Z" fill-opacity="0.5882352941176471"/></g><g transform="translate(6,0)"><g transform="translate(0,287.29178163329254) rotate(9000,0,0)"><path fill="rgb(255,255,0)" stroke="none" paint-order="stroke fill markers" d=" M 0 0 L 20 0 L 20 20 L 0 20 L 0 0 Z" fill-opacity="0.5882352941176471"/></g><g transform="translate(6,0)"><g transform="translate(0,277.7509032719683) rotate(6000.000000000001,0,0)"><path fill="rgb(0,255,0)" stroke="none" paint-order="stroke fill markers" d=" M 0 0 L 20 0 L 20 20 L 0 20 L 0 0 Z" fill-opacity="0.5882352941176471"/></g><g transform="translate(6,0)"><g transform="translate(0,261.5908677837285) rotate(4500,0,0)"><path fill="rgb(0,0,255)" stroke="none" paint-order="stroke fill markers" d=" M 0 0 L 20 0 L 20 20 L 0 20 L 0 0 Z" fill-opacity="0.5882352941176471"/></g><g transform="translate(6,0)"><g transform="translate(0,249.49608232601338) rotate(3600,0,0)"><path fill="rgb(75,0,130)" stroke="none" paint-order="stroke fill markers" d=" M 0 0 L 20 0 L 20 20 L 0 20 L 0 0 Z" fill-opacity="0.5882352941176471"/></g><g transform="translate(6,0)"><g transform="translate(0,248.7886384385999) rotate(3000.0000000000005,0,0)"><path fill="rgb(148,0,211)" stroke="none" paint-order="stroke fill markers" d=" M 0 0 L 20 0 L 20 20 L 0 20 L 0 0 Z" fill-opacity="0.5882352941176471"/></g><g transform="translate(6,0)"><g transform="translate(0,248.86470498596543) rotate(2571.4285714285716,0,0)"><path fill="rgb(255,0,0)" stroke="none" paint-order="stroke fill markers" d=" M 0 0 L 20 0 L 20 20 L 0 20 L 0 0 Z" fill-opacity="0.5882352941176471"/></g><g transform="translate(6,0)"><g transform="translate(0,236.02241689478385) rotate(2250,0,0)"><path fill="rgb(255,127,0)" stroke="none" paint-order="stroke fill markers" d=" M 0 0 L 20 0 L 20 20 L 0 20 L 0 0 Z" fill-opacity="0.5882352941176471"/></g><g transform="translate(6,0)"><g transform="translate(0,221.8830397545061) rotate(2000.0000000000002,0,0)"><path fill="rgb(255,255,0)" stroke="none" paint-order="stroke fill markers" d=" M 0 0 L 20 0 L 20 20 L 0 20 L 0 0 Z" fill-opacity="0.5882352941176471"/></g><g transform="translate(6,0)"><g transform="translate(0,213.84681497241857) rotate(1800,0,0)"><path fill="rgb(0,255,0)" stroke="none" paint-order="stroke fill markers" d=" M 0 0 L 20 0 L 20 20 L 0 20 L 0 0 Z" fill-opacity="0.5882352941176471"/></g><g transform="translate(6,0)"><g transform="translate(0,212.72762281462337) rotate(1636.3636363636365,0,0)"><path fill="rgb(0,0,255)" stroke="none" paint-order="stroke fill markers" d=" M 0 0 L 20 0 L 20 20 L 0 20 L 0 0 Z" fill-opacity="0.5882352941176471"/></g><g transform="translate(6,0)"><g transform="translate(0,216.12774415855716) rotate(1500.0000000000002,0,0)"><path fill="rgb(75,0,130)" stroke="none" paint-order="stroke fill markers" d=" M 0 0 L 20 0 L 20 20 L 0 20 L 0 0 Z" fill-opacity="0.5882352941176471"/></g><g transform="translate(6,0)"><g transform="translate(0,220.53456830384897) rotate(1384.6153846153845,0,0)"><path fill="rgb(148,0,211)" stroke="none" paint-order="stroke fill markers" d=" M 0 0 L 20 0 L 20 20 L 0 20 L 0 0 Z" fill-opacity="0.5882352941176471"/></g><g transform="translate(6,0)"><g transform="translate(0,217.25532195465058) rotate(1285.7142857142858,0,0)"><path fill="rgb(255,0,0)" stroke="none" paint-order="stroke fill markers" d=" M 0 0 L 20 0 L 20 20 L 0 20 L 0 0 Z" fill-opacity="0.5882352941176471"/></g><g transform="translate(6,0)"><g transform="translate(0,207.54286664256415) rotate(1200.0000000000002,0,0)"><path fill="rgb(255,127,0)" stroke="none" paint-order="stroke fill markers" d=" M 0 0 L 20 0 L 20 20 L 0 20 L 0 0 Z" fill-opacity="0.5882352941176471"/></g><g transform="translate(6,0)"><g transform="translate(0,198.30499095601084) rotate(1125,0,0)"><path fill="rgb(255,255,0)" stroke="none" paint-order="stroke fill markers" d=" M 0 0 L 20 0 L 20 20 L 0 20 L 0 0 Z" fill-opacity="0.5882352941176471"/></g><g transform="translate(6,0)"><g transform="translate(0,191.09367153650518) rotate(1058.8235294117646,0,0)"><path fill="rgb(0,255,0)" stroke="none" paint-order="stroke fill markers" d=" M 0 0 L 20 0 L 20 20 L 0 20 L 0 0 Z" fill-opacity="0.5882352941176471"/></g><g transform="translate(6,0)"><g transform="translate(0,180.7375738590565) rotate(1000.0000000000001,0,0)"><path fill="rgb(0,0,255)" stroke="none" paint-order="stroke fill markers" d=" M 0 0 L 20 0 L 20 20 L 0 20 L 0 0 Z" fill-opacity="0.5882352941176471"/></g><g transform="translate(6,0)"><g transform="translate(0,165.9471680319271) rotate(947.3684210526317,0,0)"><path fill="rgb(75,0,130)" stroke="none" paint-order="stroke fill markers" d=" M 0 0 L 20 0 L 20 20 L 0 20 L 0 0 Z" fill-opacity="0.5882352941176471"/></g><g transform="translate(6,0)"><g transform="translate(0,158.52689242090068) rotate(900,0,0)"><path fill="rgb(148,0,211)" stroke="none" paint-order="stroke fill markers" d=" M 0 0 L 20 0 L 20 20 L 0 20 L 0 0 Z" fill-opacity="0.5882352941176471"/></g><g transform="translate(6,0)"><g transform="translate(0,158.50971724751798) rotate(857.1428571428572,0,0)"><path fill="rgb(255,0,0)" stroke="none" paint-order="stroke fill markers" d=" M 0 0 L 20 0 L 20 20 L 0 20 L 0 0 Z" fill-opacity="0.5882352941176471"/></g><g transform="translate(6,0)"><g transform="translate(0,160.19454994997432) rotate(818.1818181818182,0,0)"><path fill="rgb(255,127,0)" stroke="none" paint-order="stroke fill markers" d=" M 0 0 L 20 0 L 20 20 L 0 20 L 0 0 Z" fill-opacity="0.5882352941176471"/></g><g transform="translate(6,0)"><g transform="translate(0,167.53086117915453) rotate(782.608695652174,0,0)"><path fill="rgb(255,255,0)" stroke="none" paint-order="stroke fill markers" d=" M 0 0 L 20 0 L 20 20 L 0 20 L 0 0 Z" fill-opacity="0.5882352941176471"/></g><g transform="translate(6,0)"><g transform="translate(0,184.91256850734723) rotate(750.0000000000001,0,0)"><path fill="rgb(0,255,0)" stroke="none" paint-order="stroke fill markers" d=" M 0 0 L 20 0 L 20 20 L 0 20 L 0 0 Z" fill-opacity="0.5882352941176471"/></g><g transform="translate(6,0)"><g transform="translate(0,199.63547554382956) rotate(720,0,0)"><path fill="rgb(0,0,255)" stroke="none" paint-order="stroke fill markers" d=" M 0 0 L 20 0 L 20 20 L 0 20 L 0 0 Z" fill-opacity="0.5882352941176471"/></g><g transform="translate(6,0)"><g transform="translate(0,211.57551119572568) rotate(692.3076923076923,0,0)"><path fill="rgb(75,0,130)" stroke="none" paint-order="stroke fill markers" d=" M 0 0 L 20 0 L 20 20 L 0 20 L 0 0 Z" fill-opacity="0.5882352941176471"/></g><g transform="translate(6,0)"><g transform="translate(0,222.00638242703343) rotate(666.6666666666666,0,0)"><path fill="rgb(148,0,211)" stroke="none" paint-order="stroke fill markers" d=" M 0 0 L 20 0 L 20 20 L 0 20 L 0 0 Z" fill-opacity="0.5882352941176471"/></g><g transform="translate(6,0)"><g transform="translate(0,220.95679946097627) rotate(642.8571428571429,0,0)"><path fill="rgb(255,0,0)" stroke="none" paint-order="stroke fill markers" d=" M 0 0 L 20 0 L 20 20 L 0 20 L 0 0 Z" fill-opacity="0.5882352941176471"/></g><g transform="translate(6,0)"><g transform="translate(0,214.37197214960776) rotate(620.6896551724138,0,0)"><path fill="rgb(255,127,0)" stroke="none" paint-order="stroke fill markers" d=" M 0 0 L 20 0 L 20 20 L 0 20 L 0 0 Z" fill-opacity="0.5882352941176471"/></g><g transform="translate(6,0)"><g transform="translate(0,205.73656122574806) rotate(600.0000000000001,0,0)"><path fill="rgb(255,255,0)" stroke="none" paint-order="stroke fill markers" d=" M 0 0 L 20 0 L 20 20 L 0 20 L 0 0 Z" fill-opacity="0.5882352941176471"/></g><g transform="translate(6,0)"><g transform="translate(0,188.83715072290016) rotate(580.6451612903226,0,0)"><path fill="rgb(0,255,0)" stroke="none" paint-order="stroke fill markers" d=" M 0 0 L 20 0 L 20 20 L 0 20 L 0 0 Z" fill-opacity="0.5882352941176471"/></g><g transform="translate(6,0)"><g transform="translate(0,168.364680581867) rotate(562.5,0,0)"><path fill="rgb(0,0,255)" stroke="none" paint-order="stroke fill markers" d=" M 0 0 L 20 0 L 20 20 L 0 20 L 0 0 Z" fill-opacity="0.5882352941176471"/></g><g transform="translate(6,0)"><g transform="translate(0,160.58012865873948) rotate(545.4545454545455,0,0)"><path fill="rgb(75,0,130)" stroke="none" paint-order="stroke fill markers" d=" M 0 0 L 20 0 L 20 20 L 0 20 L 0 0 Z" fill-opacity="0.5882352941176471"/></g><g transform="translate(6,0)"><g transform="translate(0,153.25086129111213) rotate(529.4117647058823,0,0)"><path fill="rgb(148,0,211)" stroke="none" paint-order="stroke fill markers" d=" M 0 0 L 20 0 L 20 20 L 0 20 L 0 0 Z" fill-opacity="0.5882352941176471"/></g><g transform="translate(6,0)"><g transform="translate(0,144.87586940511295) rotate(514.2857142857142,0,0)"><path fill="rgb(255,0,0)" stroke="none" paint-order="stroke fill markers" d=" M 0 0 L 20 0 L 20 20 L 0 20 L 0 0 Z" fill-opacity="0.5882352941176471"/></g><g transform="translate(6,0)"><g transform="translate(0,135.76800503452944) rotate(500.00000000000006,0,0)"><path fill="rgb(255,127,0)" stroke="none" paint-order="stroke fill markers" d=" M 0 0 L 20 0 L 20 20 L 0 20 L 0 0 Z" fill-opacity="0.5882352941176471"/></g><g transform="translate(6,0)"><g transform="translate(0,124.31711609504151) rotate(486.48648648648646,0,0)"><path fill="rgb(255,255,0)" stroke="none" paint-order="stroke fill markers" d=" M 0 0 L 20 0 L 20 20 L 0 20 L 0 0 Z" fill-opacity="0.5882352941176471"/></g><g transform="translate(6,0)"><g transform="translate(0,111.11882782569904) rotate(473.68421052631584,0,0)"><path fill="rgb(0,255,0)" stroke="none" paint-order="stroke fill markers" d=" M 0 0 L 20 0 L 20 20 L 0 20 L 0 0 Z" fill-opacity="0.5882352941176471"/></g><g transform="translate(6,0)"><g transform="translate(0,103.00714486253597) rotate(461.5384615384616,0,0)"><path fill="rgb(0,0,255)" stroke="none" paint-order="stroke fill markers" d=" M 0 0 L 20 0 L 20 20 L 0 20 L 0 0 Z" fill-opacity="0.5882352941176471"/></g><g transform="translate(6,0)"><g transform="translate(0,100.58183705895156) rotate(450,0,0)"><path fill="rgb(75,0,130)" stroke="none" paint-order="stroke fill markers" d=" M 0 0 L 20 0 L 20 20 L 0 20 L 0 0 Z" fill-opacity="0.5882352941176471"/></g><g transform="translate(6,0)"><g transform="translate(0,105.78097199473147) rotate(439.0243902439025,0,0)"><path fill="rgb(148,0,211)" stroke="none" paint-order="stroke fill markers" d=" M 0 0 L 20 0 L 20 20 L 0 20 L 0 0 Z" fill-opacity="0.5882352941176471"/></g><g transform="translate(6,0)"><g transform="translate(0,114.8457790713824) rotate(428.5714285714286,0,0)"><path fill="rgb(255,0,0)" stroke="none" paint-order="stroke fill markers" d=" M 0 0 L 20 0 L 20 20 L 0 20 L 0 0 Z" fill-opacity="0.5882352941176471"/></g><g transform="translate(6,0)"><g transform="translate(0,117.34434140032283) rotate(418.60465116279073,0,0)"><path fill="rgb(255,127,0)" stroke="none" paint-order="stroke fill markers" d=" M 0 0 L 20 0 L 20 20 L 0 20 L 0 0 Z" fill-opacity="0.5882352941176471"/></g><g transform="translate(6,0)"><g transform="translate(0,113.64056255231566) rotate(409.0909090909091,0,0)"><path fill="rgb(255,255,0)" stroke="none" paint-order="stroke fill markers" d=" M 0 0 L 20 0 L 20 20 L 0 20 L 0 0 Z" fill-opacity="0.5882352941176471"/></g><g transform="translate(6,0)"><g transform="translate(0,116.23955740921522) rotate(400,0,0)"><path fill="rgb(0,255,0)" stroke="none" paint-order="stroke fill markers" d=" M 0 0 L 20 0 L 20 20 L 0 20 L 0 0 Z" fill-opacity="0.5882352941176471"/></g><g transform="translate(6,0)"><g transform="translate(0,133.120245707664) rotate(391.304347826087,0,0)"><path fill="rgb(0,0,255)" stroke="none" paint-order="stroke fill markers" d=" M 0 0 L 20 0 L 20 20 L 0 20 L 0 0 Z" fill-opacity="0.5882352941176471"/></g><g transform="translate(6,0)"><g transform="translate(0,158.80803071942444) rotate(382.97872340425533,0,0)"><path fill="rgb(75,0,130)" stroke="none" paint-order="stroke fill markers" d=" M 0 0 L 20 0 L 20 20 L 0 20 L 0 0 Z" fill-opacity="0.5882352941176471"/></g><g transform="translate(6,0)"><g transform="translate(0,182.72201524900976) rotate(375.00000000000006,0,0)"><path fill="rgb(148,0,211)" stroke="none" paint-order="stroke fill markers" d=" M 0 0 L 20 0 L 20 20 L 0 20 L 0 0 Z" fill-opacity="0.5882352941176471"/></g><g transform="translate(6,0)"><g transform="translate(0,201.09958737306232) rotate(367.34693877551024,0,0)"><path fill="rgb(255,0,0)" stroke="none" paint-order="stroke fill markers" d=" M 0 0 L 20 0 L 20 20 L 0 20 L 0 0 Z" fill-opacity="0.5882352941176471"/></g><g transform="translate(6,0)"><g transform="translate(0,216.68956105629854) rotate(360,0,0)"><path fill="rgb(255,127,0)" stroke="none" paint-order="stroke fill markers" d=" M 0 0 L 20 0 L 20 20 L 0 20 L 0 0 Z" fill-opacity="0.5882352941176471"/></g><g transform="translate(6,0)"><g transform="translate(0,234.9588388741773) rotate(352.94117647058823,0,0)"><path fill="rgb(255,255,0)" stroke="none" paint-order="stroke fill markers" d=" M 0 0 L 20 0 L 20 20 L 0 20 L 0 0 Z" fill-opacity="0.5882352941176471"/></g><g transform="translate(6,0)"><g transform="translate(0,256.5738887634519) rotate(346.15384615384613,0,0)"><path fill="rgb(0,255,0)" stroke="none" paint-order="stroke fill markers" d=" M 0 0 L 20 0 L 20 20 L 0 20 L 0 0 Z" fill-opacity="0.5882352941176471"/></g><g transform="translate(6,0)"><g transform="translate(0,278.9144012744008) rotate(339.62264150943395,0,0)"><path fill="rgb(0,0,255)" stroke="none" paint-order="stroke fill markers" d=" M 0 0 L 20 0 L 20 20 L 0 20 L 0 0 Z" fill-opacity="0.5882352941176471"/></g><g transform="translate(6,0)"><g transform="translate(0,307.3465939030932) rotate(333.3333333333333,0,0)"><path fill="rgb(75,0,130)" stroke="none" paint-order="stroke fill markers" d=" M 0 0 L 20 0 L 20 20 L 0 20 L 0 0 Z" fill-opacity="0.5882352941176471"/></g><g transform="translate(6,0)"><g transform="translate(0,324.6062833037789) rotate(327.2727272727273,0,0)"><path fill="rgb(148,0,211)" stroke="none" paint-order="stroke fill markers" d=" M 0 0 L 20 0 L 20 20 L 0 20 L 0 0 Z" fill-opacity="0.5882352941176471"/></g><g transform="translate(6,0)"><g transform="translate(0,321.5500299621261) rotate(321.42857142857144,0,0)"><path fill="rgb(255,0,0)" stroke="none" paint-order="stroke fill markers" d=" M 0 0 L 20 0 L 20 20 L 0 20 L 0 0 Z" fill-opacity="0.5882352941176471"/></g><g transform="translate(6,0)"><g transform="translate(0,311.6400715396594) rotate(315.7894736842105,0,0)"><path fill="rgb(255,127,0)" stroke="none" paint-order="stroke fill markers" d=" M 0 0 L 20 0 L 20 20 L 0 20 L 0 0 Z" fill-opacity="0.5882352941176471"/></g><g transform="translate(6,0)"><g transform="translate(0,312.5142829096776) rotate(310.3448275862069,0,0)"><path fill="rgb(255,255,0)" stroke="none" paint-order="stroke fill markers" d=" M 0 0 L 20 0 L 20 20 L 0 20 L 0 0 Z" fill-opacity="0.5882352941176471"/></g><g transform="translate(6,0)"><g transform="translate(0,322.32407851637015) rotate(305.0847457627119,0,0)"><path fill="rgb(0,255,0)" stroke="none" paint-order="stroke fill markers" d=" M 0 0 L 20 0 L 20 20 L 0 20 L 0 0 Z" fill-opacity="0.5882352941176471"/></g><g transform="translate(6,0)"><g transform="translate(0,328.1595923256175) rotate(300.00000000000006,0,0)"><path fill="rgb(0,0,255)" stroke="none" paint-order="stroke fill markers" d=" M 0 0 L 20 0 L 20 20 L 0 20 L 0 0 Z" fill-opacity="0.5882352941176471"/></g><g transform="translate(6,0)"><g transform="translate(0,326.366284114951) rotate(295.08196721311475,0,0)"><path fill="rgb(75,0,130)" stroke="none" paint-order="stroke fill markers" d=" M 0 0 L 20 0 L 20 20 L 0 20 L 0 0 Z" fill-opacity="0.5882352941176471"/></g><g transform="translate(6,0)"><g transform="translate(0,319.22377417151176) rotate(290.3225806451613,0,0)"><path fill="rgb(148,0,211)" stroke="none" paint-order="stroke fill markers" d=" M 0 0 L 20 0 L 20 20 L 0 20 L 0 0 Z" fill-opacity="0.5882352941176471"/></g><g transform="translate(6,0)"><g transform="translate(0,306.18291987913074) rotate(285.7142857142857,0,0)"><path fill="rgb(255,0,0)" stroke="none" paint-order="stroke fill markers" d=" M 0 0 L 20 0 L 20 20 L 0 20 L 0 0 Z" fill-opacity="0.5882352941176471"/></g><g transform="translate(6,0)"><g transform="translate(0,294.96941253809445) rotate(281.25,0,0)"><path fill="rgb(255,127,0)" stroke="none" paint-order="stroke fill markers" d=" M 0 0 L 20 0 L 20 20 L 0 20 L 0 0 Z" fill-opacity="0.5882352941176471"/></g><g transform="translate(6,0)"><g transform="translate(0,292.5896868346493) rotate(276.92307692307696,0,0)"><path fill="rgb(255,255,0)" stroke="none" paint-order="stroke fill markers" d=" M 0 0 L 20 0 L 20 20 L 0 20 L 0 0 Z" fill-opacity="0.5882352941176471"/></g><g transform="translate(6,0)"><g transform="translate(0,295.4776178880342) rotate(272.72727272727275,0,0)"><path fill="rgb(0,255,0)" stroke="none" paint-order="stroke fill markers" d=" M 0 0 L 20 0 L 20 20 L 0 20 L 0 0 Z" fill-opacity="0.5882352941176471"/></g><g transform="translate(6,0)"><g transform="translate(0,296.9041395210898) rotate(268.65671641791045,0,0)"><path fill="rgb(0,0,255)" stroke="none" paint-order="stroke fill markers" d=" M 0 0 L 20 0 L 20 20 L 0 20 L 0 0 Z" fill-opacity="0.5882352941176471"/></g><g transform="translate(6,0)"><g transform="translate(0,294.65523869685154) rotate(264.70588235294116,0,0)"><path fill="rgb(75,0,130)" stroke="none" paint-order="stroke fill markers" d=" M 0 0 L 20 0 L 20 20 L 0 20 L 0 0 Z" fill-opacity="0.5882352941176471"/></g><g transform="translate(6,0)"><g transform="translate(0,281.6823050710223) rotate(260.8695652173913,0,0)"><path fill="rgb(148,0,211)" stroke="none" paint-order="stroke fill markers" d=" M 0 0 L 20 0 L 20 20 L 0 20 L 0 0 Z" fill-opacity="0.5882352941176471"/></g><g transform="translate(6,0)"><g transform="translate(0,272.68109189498256) rotate(257.1428571428571,0,0)"><path fill="rgb(255,0,0)" stroke="none" paint-order="stroke fill markers" d=" M 0 0 L 20 0 L 20 20 L 0 20 L 0 0 Z" fill-opacity="0.5882352941176471"/></g><g transform="translate(6,0)"><g transform="translate(0,275.4842725734028) rotate(253.52112676056336,0,0)"><path fill="rgb(255,127,0)" stroke="none" paint-order="stroke fill markers" d=" M 0 0 L 20 0 L 20 20 L 0 20 L 0 0 Z" fill-opacity="0.5882352941176471"/></g><g transform="translate(6,0)"><g transform="translate(0,280.1982823575233) rotate(250.00000000000003,0,0)"><path fill="rgb(255,255,0)" stroke="none" paint-order="stroke fill markers" d=" M 0 0 L 20 0 L 20 20 L 0 20 L 0 0 Z" fill-opacity="0.5882352941176471"/></g><g transform="translate(6,0)"><g transform="translate(0,275.0332827099142) rotate(246.57534246575344,0,0)"><path fill="rgb(0,255,0)" stroke="none" paint-order="stroke fill markers" d=" M 0 0 L 20 0 L 20 20 L 0 20 L 0 0 Z" fill-opacity="0.5882352941176471"/></g><g transform="translate(6,0)"><g transform="translate(0,261.64632487236605) rotate(243.24324324324323,0,0)"><path fill="rgb(0,0,255)" stroke="none" paint-order="stroke fill markers" d=" M 0 0 L 20 0 L 20 20 L 0 20 L 0 0 Z" fill-opacity="0.5882352941176471"/></g><g transform="translate(6,0)"><g transform="translate(0,248.34908899795846) rotate(240.00000000000003,0,0)"><path fill="rgb(75,0,130)" stroke="none" paint-order="stroke fill markers" d=" M 0 0 L 20 0 L 20 20 L 0 20 L 0 0 Z" fill-opacity="0.5882352941176471"/></g><g transform="translate(6,0)"><g transform="translate(0,239.68040128963997) rotate(236.84210526315792,0,0)"><path fill="rgb(148,0,211)" stroke="none" paint-order="stroke fill markers" d=" M 0 0 L 20 0 L 20 20 L 0 20 L 0 0 Z" fill-opacity="0.5882352941176471"/></g><g transform="translate(6,0)"><g transform="translate(0,234.03327617747365) rotate(233.7662337662338,0,0)"><path fill="rgb(255,0,0)" stroke="none" paint-order="stroke fill markers" d=" M 0 0 L 20 0 L 20 20 L 0 20 L 0 0 Z" fill-opacity="0.5882352941176471"/></g><g transform="translate(6,0)"><g transform="translate(0,229.9733512659844) rotate(230.7692307692308,0,0)"><path fill="rgb(255,127,0)" stroke="none" paint-order="stroke fill markers" d=" M 0 0 L 20 0 L 20 20 L 0 20 L 0 0 Z" fill-opacity="0.5882352941176471"/></g><g transform="translate(6,0)"><g transform="translate(0,229.9142277302988) rotate(227.8481012658228,0,0)"><path fill="rgb(255,255,0)" stroke="none" paint-order="stroke fill markers" d=" M 0 0 L 20 0 L 20 20 L 0 20 L 0 0 Z" fill-opacity="0.5882352941176471"/></g><g transform="translate(6,0)"><g transform="translate(0,230.67271245171074) rotate(225,0,0)"><path fill="rgb(0,255,0)" stroke="none" paint-order="stroke fill markers" d=" M 0 0 L 20 0 L 20 20 L 0 20 L 0 0 Z" fill-opacity="0.5882352941176471"/></g><g transform="translate(6,0)"><g transform="translate(0,235.2184752482563) rotate(222.22222222222223,0,0)"><path fill="rgb(0,0,255)" stroke="none" paint-order="stroke fill markers" d=" M 0 0 L 20 0 L 20 20 L 0 20 L 0 0 Z" fill-opacity="0.5882352941176471"/></g><g transform="translate(6,0)"><g transform="translate(0,244.67936532045456) rotate(219.51219512195124,0,0)"><path fill="rgb(75,0,130)" stroke="none" paint-order="stroke fill markers" d=" M 0 0 L 20 0 L 20 20 L 0 20 L 0 0 Z" fill-opacity="0.5882352941176471"/></g><g transform="translate(6,0)"><g transform="translate(0,251.80599535823478) rotate(216.8674698795181,0,0)"><path fill="rgb(148,0,211)" stroke="none" paint-order="stroke fill markers" d=" M 0 0 L 20 0 L 20 20 L 0 20 L 0 0 Z" fill-opacity="0.5882352941176471"/></g><g transform="translate(6,0)"><g transform="translate(0,255.32832235001354) rotate(214.2857142857143,0,0)"><path fill="rgb(255,0,0)" stroke="none" paint-order="stroke fill markers" d=" M 0 0 L 20 0 L 20 20 L 0 20 L 0 0 Z" fill-opacity="0.5882352941176471"/></g><g transform="translate(6,0)"><g transform="translate(0,254.36570259158634) rotate(211.76470588235296,0,0)"><path fill="rgb(255,127,0)" stroke="none" paint-order="stroke fill markers" d=" M 0 0 L 20 0 L 20 20 L 0 20 L 0 0 Z" fill-opacity="0.5882352941176471"/></g><g transform="translate(6,0)"><g transform="translate(0,241.80725772166574) rotate(209.30232558139537,0,0)"><path fill="rgb(255,255,0)" stroke="none" paint-order="stroke fill markers" d=" M 0 0 L 20 0 L 20 20 L 0 20 L 0 0 Z" fill-opacity="0.5882352941176471"/></g><g transform="translate(6,0)"><g transform="translate(0,220.68645855853092) rotate(206.89655172413794,0,0)"><path fill="rgb(0,255,0)" stroke="none" paint-order="stroke fill markers" d=" M 0 0 L 20 0 L 20 20 L 0 20 L 0 0 Z" fill-opacity="0.5882352941176471"/></g><g transform="translate(6,0)"><g transform="translate(0,205.36757446669534) rotate(204.54545454545456,0,0)"><path fill="rgb(0,0,255)" stroke="none" paint-order="stroke fill markers" d=" M 0 0 L 20 0 L 20 20 L 0 20 L 0 0 Z" fill-opacity="0.5882352941176471"/></g><g transform="translate(6,0)"><g transform="translate(0,188.73218882633572) rotate(202.24719101123597,0,0)"><path fill="rgb(75,0,130)" stroke="none" paint-order="stroke fill markers" d=" M 0 0 L 20 0 L 20 20 L 0 20 L 0 0 Z" fill-opacity="0.5882352941176471"/></g><g transform="translate(6,0)"><g transform="translate(0,180.05779128738817) rotate(200,0,0)"><path fill="rgb(148,0,211)" stroke="none" paint-order="stroke fill markers" d=" M 0 0 L 20 0 L 20 20 L 0 20 L 0 0 Z" fill-opacity="0.5882352941176471"/></g><g transform="translate(6,0)"><g transform="translate(0,181.72353113954352) rotate(197.8021978021978,0,0)"><path fill="rgb(255,0,0)" stroke="none" paint-order="stroke fill markers" d=" M 0 0 L 20 0 L 20 20 L 0 20 L 0 0 Z" fill-opacity="0.5882352941176471"/></g><g transform="translate(6,0)"><g transform="translate(0,189.19028602374397) rotate(195.6521739130435,0,0)"><path fill="rgb(255,127,0)" stroke="none" paint-order="stroke fill markers" d=" M 0 0 L 20 0 L 20 20 L 0 20 L 0 0 Z" fill-opacity="0.5882352941176471"/></g><g transform="translate(6,0)"><g transform="translate(0,203.74278050559317) rotate(193.5483870967742,0,0)"><path fill="rgb(255,255,0)" stroke="none" paint-order="stroke fill markers" d=" M 0 0 L 20 0 L 20 20 L 0 20 L 0 0 Z" fill-opacity="0.5882352941176471"/></g><g transform="translate(6,0)"><g transform="translate(0,231.80910331405062) rotate(191.48936170212767,0,0)"><path fill="rgb(0,255,0)" stroke="none" paint-order="stroke fill markers" d=" M 0 0 L 20 0 L 20 20 L 0 20 L 0 0 Z" fill-opacity="0.5882352941176471"/></g><g transform="translate(6,0)"><g transform="translate(0,252.39537695538678) rotate(189.4736842105263,0,0)"><path fill="rgb(0,0,255)" stroke="none" paint-order="stroke fill markers" d=" M 0 0 L 20 0 L 20 20 L 0 20 L 0 0 Z" fill-opacity="0.5882352941176471"/></g><g transform="translate(6,0)"><g transform="translate(0,260.1982315967186) rotate(187.50000000000003,0,0)"><path fill="rgb(75,0,130)" stroke="none" paint-order="stroke fill markers" d=" M 0 0 L 20 0 L 20 20 L 0 20 L 0 0 Z" fill-opacity="0.5882352941176471"/></g><g transform="translate(6,0)"><g transform="translate(0,264.45740036864277) rotate(185.56701030927837,0,0)"><path fill="rgb(148,0,211)" stroke="none" paint-order="stroke fill markers" d=" M 0 0 L 20 0 L 20 20 L 0 20 L 0 0 Z" fill-opacity="0.5882352941176471"/></g><g transform="translate(6,0)"><g transform="translate(0,265.6552327544532) rotate(183.67346938775512,0,0)"><path fill="rgb(255,0,0)" stroke="none" paint-order="stroke fill markers" d=" M 0 0 L 20 0 L 20 20 L 0 20 L 0 0 Z" fill-opacity="0.5882352941176471"/></g><g transform="translate(6,0)"><g transform="translate(0,261.51706236571977) rotate(181.81818181818184,0,0)"><path fill="rgb(255,127,0)" stroke="none" paint-order="stroke fill markers" d=" M 0 0 L 20 0 L 20 20 L 0 20 L 0 0 Z" fill-opacity="0.5882352941176471"/></g><g transform="translate(6,0)"/></g></g></g></g></g></g></g></g></g></g></g></g></g></g></g></g></g></g></g></g></g></g></g></g></g></g></g></g></g></g></g></g></g></g></g></g></g></g></g></g></g></g></g></g></g></g></g></g></g></g></g></g></g></g></g></g></g></g></g></g></g></g></g></g></g></g></g></g></g></g></g></g></g></g></g></g></g></g></g></g></g></g></g></g></g></g></g></g></g></g></g></g></g></g></g></g></g></g></g></g></g></svg>