<svg version="1.1" xmlns="http://www.w3.org/2000/svg" xmlns:xlink="http://www.w3.org/1999/xlink" width="600" height="600" viewBox="0 0 600 600"><defs/><g transform="scale(1,1)"><g transform="scale(1,1)"><rect fill="rgb(0,0,0)" stroke="none" x="0" y="0" width="600" height="600" fill-opacity="1"/></g><g><g transform="translate(0,300) rotate(0.9757772966378332,0,0)"><path fill="rgb(255,0,0)" stroke="none" paint-order="stroke fill markers" d=" M 0 0 L 184.46832142970865 0 L 184.46832142970865 184.46832142970865 L 0 184.46832142970865 L 0 0 Z" fill-opacity="0.5882352941176471"/></g><g transform="translate(60,0)"><g transform="translate(0,250.37270293247974) rotate(1.0719014262346422,0,0)"><path fill="rgb(255,127,0)" stroke="none" paint-order="stroke fill markers" d=" M 0 0 L 167.92588907386855 0 L 167.92588907386855 167.92588907386855 L 0 167.92588907386855 L 0 0 Z" fill-opacity="0.5882352941176471"/></g><g transform="translate(60,0)"><g transform="translate(0,177.02042199324757) rotate(1.2545728416811872,0,0)"><path fill="rgb(255,255,0)" stroke="none" paint-order="stroke fill markers" d=" M 0 0 L 143.47512876079116 0 L 143.47512876079116 143.47512876079116 L 0 143.47512876079116 L 0 0 Z" fill-opacity="0.5882352941176471"/></g><g transform="translate(60,0)"><g transform="translate(0,110.81153424908086) rotate(1.4826346477090004,0,0)"><path fill="rgb(0,255,0)" stroke="none" paint-order="stroke fill markers" d=" M 0 0 L 121.4054995127356 0 L 121.4054995127356 121.4054995127356 L 0 121.4054995127356 L 0 0 Z" fill-opacity="0.5882352941176471"/></g><g transform="translate(60,0)"><g transform="translate(0,63.9716234547995) rotate(1.7014487547383228,0,0)"><path fill="rgb(0,0,255)" stroke="none" paint-order="stroke fill markers" d=" M 0 0 L 105.79219591464181 0 L 105.79219591464181 105.79219591464181 L 0 105.79219591464181 L 0 0 Z" fill-opacity="0.5882352941176471"/></g><g transform="translate(60,0)"><g transform="translate(0,17.795632622476433) rotate(1.9911460599624442,0,0)"><path fill="rgb(75,0,130)" stroke="none" paint-order="stroke fill markers" d=" M 0 0 L 90.40019897053412 0 L 90.40019897053412 90.40019897053412 L 0 90.40019897053412 L 0 0 Z" fill-opacity="0.5882352941176471"/></g><g transform="translate(60,0)"><g transform="translate(0,-24.303549078092885) rotate(2.357034763415092,0,0)"><path fill="rgb(148,0,211)" stroke="none" paint-order="stroke fill markers" d=" M 0 0 L 76.36713840367769 0 L 76.36713840367769 76.36713840367769 L 0 76.36713840367769 L 0 0 Z" fill-opacity="0.5882352941176471"/></g><g transform="translate(60,0)"><g transform="translate(0,-49.04562928961363) rotate(2.6424043707192952,0,0)"><path fill="rgb(255,0,0)" stroke="none" paint-order="stroke fill markers" d=" M 0 0 L 68.11977833317077 0 L 68.11977833317077 68.11977833317077 L 0 68.11977833317077 L 0 0 Z" fill-opacity="0.5882352941176471"/></g><g transform="translate(60,0)"><g transform="translate(0,-62.06533581838565) rotate(2.822206796970848,0,0)"><path fill="rgb(255,127,0)" stroke="none" paint-order="stroke fill markers" d=" M 0 0 L 63.779876156913424 0 L 63.779876156913424 63.779876156913424 L 0 63.779876156913424 L 0 0 Z" fill-opacity="0.5882352941176471"/></g><g transform="translate(60,0)"><g transform="translate(0,-100.14777792747512) rotate(3.523488932686832,0,0)"><path fill="rgb(255,255,0)" stroke="none" paint-order="stroke fill markers" d=" M 0 0 L 51.08572878721694 0 L 51.08572878721694 51.08572878721694 L 0 51.08572878721694 L 0 0 Z" fill-opacity="0.5882352941176471"/></g><g transform="translate(60,0)"/></g></g></g></g></g></g></g></g></g></g></g></svg>