<svg version="1.1" xmlns="http://www.w3.org/2000/svg" xmlns:xlink="http://www.w3.org/1999/xlink" width="600" height="600" viewBox="0 0 600 600"><defs/><g transform="scale(1,1)"><g transform="scale(1,1)"><rect fill="rgb(0,0,0)" stroke="none" x="0" y="0" width="600" height="600" fill-opacity="1"/></g><g transform="translate(0,200)"><g transform="translate(0,46.367050177061735)"/><g transform="translate(0.6,0)"><g transform="translate(0,180.63384558607564)"/><g transform="translate(0.6,0)"><g transform="translate(0,115.76280313079062)"/><g transform="translate(0.6,0)"><g transform="translate(0,68.71427903615803)"/><g transform="translate(0.6,0)"><g transform="translate(0,149.87606142293467)"/><g transform="translate(0.6,0)"><g transform="translate(0,165.47410428351998)"/><g transform="translate(0.6,0)"><g transform="translate(0,110.56386192034722)"/><g transform="translate(0.6,0)"><g transform="translate(0,191.08992067996905)"/><g transform="translate(0.6,0)"><g transform="translate(0,167.5904882029294)"/><g transform="translate(0.6,0)"><g transform="translate(0,71.34577666780108)"/><g transform="translate(0.6,0)"><g transform="translate(0,213.02169570185802)"/><g transform="translate(0.6,0)"><g transform="translate(0,103.8820356563546)"/><g transform="translate(0.6,0)"><g transform="translate(0,187.78768676061938)"/><g transform="translate(0.6,0)"><g transform="translate(0,111.17081030261213)"/><g transform="translate(0.6,0)"><g transform="translate(0,130.93301476811604)"/><g transform="translate(0.6,0)"><g transform="translate(0,173.06728488099927)"/><g transform="translate(0.6,0)"><g transform="translate(0,140.93410552823568)"/><g transform="translate(0.6,0)"><g transform="translate(0,200.41884889203902)"/><g transform="translate(0.6,0)"><g transform="translate(0,110.302566201457)"/><g transform="translate(0.6,0)"><g transform="translate(0,242.7103241225601)"/><g transform="translate(0.6,0)"><g transform="translate(0,169.03936871537758)"/><g transform="translate(0.6,0)"><g transform="translate(0,107.53236579635687)"/><g transform="translate(0.6,0)"><g transform="translate(0,175.16203189063694)"/><g transform="translate(0.6,0)"><g transform="translate(0,200.853551793954)"/><g transform="translate(0.6,0)"><g transform="translate(0,193.90414173554797)"/><g transform="translate(0.6,0)"><g transform="translate(0,126.03329668675703)"/><g transform="translate(0.6,0)"><g transform="translate(0,147.3298176368503)"/><g transform="translate(0.6,0)"><g transform="translate(0,84.19561809650713)"/><g transform="translate(0.6,0)"><g transform="translate(0,81.28620095208092)"/><g transform="translate(0.6,0)"><g transform="translate(0,45.60676876448743)"/><g transform="translate(0.6,0)"><g transform="translate(0,162.78700492858405)"/><g transform="translate(0.6,0)"><g transform="translate(0,187.5177139127147)"/><g transform="translate(0.6,0)"><g transform="translate(0,226.70043315676298)"/><g transform="translate(0.6,0)"><g transform="translate(0,136.96562095001465)"/><g transform="translate(0.6,0)"><g transform="translate(0,145.474560257753)"/><g transform="translate(0.6,0)"><g transform="translate(0,170.25450081541322)"/><g transform="translate(0.6,0)"><g transform="translate(0,116.5669063888251)"/><g transform="translate(0.6,0)"><g transform="translate(0,62.10289995986118)"/><g transform="translate(0.6,0)"><g transform="translate(0,189.96634696994715)"/><g transform="translate(0.6,0)"><g transform="translate(0,152.9516828672338)"/><g transform="translate(0.6,0)"><g transform="translate(0,75.1771908893588)"/><g transform="translate(0.6,0)"><g transform="translate(0,120.29369437730259)"/><g transform="translate(0.6,0)"><g transform="translate(0,196.50157328951224)"/><g transform="translate(0.6,0)"><g transform="translate(0,61.21143282799787)"/><g transform="translate(0.6,0)"><g transform="translate(0,167.52779285635685)"/><g transform="translate(0.6,0)"><g transform="translate(0,72.91768818633308)"/><g transform="translate(0.6,0)"><g transform="translate(0,136.92154120392732)"/><g transform="translate(0.6,0)"><g transform="translate(0,136.0028451010642)"/><g transform="translate(0.6,0)"><g transform="translate(0,219.94560065527696)"/><g transform="translate(0.6,0)"><g transform="translate(0,58.565548567300745)"/><g transform="translate(0.6,0)"><g transform="translate(0,159.22377000840893)"/><g transform="translate(0.6,0)"><g transform="translate(0,131.6700799334562)"/><g transform="translate(0.6,0)"><g transform="translate(0,60.818569936508595)"/><g transform="translate(0.6,0)"><g transform="translate(0,158.56247494109448)"/><g transform="translate(0.6,0)"><g transform="translate(0,114.19670700886545)"/><g transform="translate(0.6,0)"><g transform="translate(0,222.26633101297944)"/><g transform="translate(0.6,0)"><g transform="translate(0,178.17913002797667)"/><g transform="translate(0.6,0)"><g transform="translate(0,96.130305695669)"/><g transform="translate(0.6,0)"><g transform="translate(0,52.53377362908333)"/><g transform="translate(0.6,0)"><g transform="translate(0,129.24680515577137)"/><g transform="translate(0.6,0)"><g transform="translate(0,65.50837592144366)"/><g transform="translate(0.6,0)"><g transform="translate(0,86.40517140067095)"/><g transform="translate(0.6,0)"><g transform="translate(0,160.61475823439312)"/><g transform="translate(0.6,0)"><g transform="translate(0,160.94579552005828)"/><g transform="translate(0.6,0)"><g transform="translate(0,237.5104454004154)"/><g transform="translate(0.6,0)"><g transform="translate(0,199.22449779133393)"/><g transform="translate(0.6,0)"><g transform="translate(0,83.472286829624)"/><g transform="translate(0.6,0)"><g transform="translate(0,93.28661164561666)"/><g transform="translate(0.6,0)"><g transform="translate(0,98.39840468805153)"/><g transform="translate(0.6,0)"><g transform="translate(0,214.31883034305704)"/><g transform="translate(0.6,0)"><g transform="translate(0,201.98895841767026)"/><g transform="translate(0.6,0)"><g transform="translate(0,198.45373702901878)"/><g transform="translate(0.6,0)"><g transform="translate(0,113.76135389166703)"/><g transform="translate(0.6,0)"><g transform="translate(0,112.08465464107682)"/><g transform="translate(0.6,0)"><g transform="translate(0,92.0497706323885)"/><g transform="translate(0.6,0)"><g transform="translate(0,123.29247419195721)"/><g transform="translate(0.6,0)"><g transform="translate(0,138.81551926876165)"/><g transform="translate(0.6,0)"><g transform="translate(0,138.86015608729235)"/><g transform="translate(0.6,0)"><g transform="translate(0,176.3340409002214)"/><g transform="translate(0.6,0)"><g transform="translate(0,117.65737025704715)"/><g transform="translate(0.6,0)"><g transform="translate(0,94.93334749799176)"/><g transform="translate(0.6,0)"><g transform="translate(0,108.49607929161206)"/><g transform="translate(0.6,0)"><g transform="translate(0,161.56444437002696)"/><g transform="translate(0.6,0)"><g transform="translate(0,199.24343080774582)"/><g transform="translate(0.6,0)"><g transform="translate(0,184.0612502855673)"/><g transform="translate(0.6,0)"><g transform="translate(0,92.41952726760269)"/><g transform="translate(0.6,0)"><g transform="translate(0,107.080496701364)"/><g transform="translate(0.6,0)"><g transform="translate(0,93.94003638439624)"/><g transform="translate(0.6,0)"><g transform="translate(0,202.91564612714942)"/><g transform="translate(0.6,0)"><g transform="translate(0,109.87276926545275)"/><g transform="translate(0.6,0)"><g transform="translate(0,81.33907128162916)"/><g transform="translate(0.6,0)"><g transform="translate(0,238.57556715897636)"/><g transform="translate(0.6,0)"><g transform="translate(0,165.0268357145042)"/><g transform="translate(0.6,0)"><g transform="translate(0,101.77895892395267)"/><g transform="translate(0.6,0)"><g transform="translate(0,88.57472399005262)"/><g transform="translate(0.6,0)"><g transform="translate(0,160.70974023282494)"/><g transform="translate(0.6,0)"><g transform="translate(0,199.70994506471402)"/><g transform="translate(0.6,0)"><g transform="translate(0,207.81242867182624)"/><g transform="translate(0.6,0)"><g transform="translate(0,84.72333688959733)"/><g transform="translate(0.6,0)"><g transform="translate(0,244.20052552668116)"/><g transform="translate(0.6,0)"><g transform="translate(0,107.62606736973743)"/><g transform="translate(0.6,0)"><g transform="translate(0,64.9900516586287)"/><g transform="translate(0.6,0)"><g transform="translate(0,101.01948241218129)"/><g transform="translate(0.6,0)"><g transform="translate(0,232.1569986231278)"/><g transform="translate(0.6,0)"><g transform="translate(0,110.451788809001)"/><g transform="translate(0.6,0)"><g transform="translate(0,191.06538178891583)"/><g transform="translate(0.6,0)"><g transform="translate(0,101.24330019027178)"/><g transform="translate(0.6,0)"><g transform="translate(0,135.40006372609622)"/><g transform="translate(0.6,0)"><g transform="translate(0,76.82121123815658)"/><g transform="translate(0.6,0)"><g transform="translate(0,71.66559326848677)"/><g transform="translate(0.6,0)"><g transform="translate(0,192.08678443808628)"/><g transform="translate(0.6,0)"><g transform="translate(0,98.71926271645182)"/><g transform="translate(0.6,0)"><g transform="translate(0,147.88514706319108)"/><g transform="translate(0.6,0)"><g transform="translate(0,61.50839193789354)"/><g transform="translate(0.6,0)"><g transform="translate(0,79.67123614036542)"/><g transform="translate(0.6,0)"><g transform="translate(0,158.04083422279032)"/><g transform="translate(0.6,0)"><g transform="translate(0,65.99080623547503)"/><g transform="translate(0.6,0)"><g transform="translate(0,205.3470937663344)"/><g transform="translate(0.6,0)"><g transform="translate(0,206.6330263279009)"/><g transform="translate(0.6,0)"><g transform="translate(0,198.5310863991542)"/><g transform="translate(0.6,0)"><g transform="translate(0,101.29576238595016)"/><g transform="translate(0.6,0)"><g transform="translate(0,161.23232120714798)"/><g transform="translate(0.6,0)"><g transform="translate(0,142.08574382782936)"/><g transform="translate(0.6,0)"><g transform="translate(0,90.1740866778249)"/><g transform="translate(0.6,0)"><g transform="translate(0,57.52491251695812)"/><g transform="translate(0.6,0)"><g transform="translate(0,62.39451312372489)"/><g transform="translate(0.6,0)"><g transform="translate(0,217.86645987979162)"/><g transform="translate(0.6,0)"><g transform="translate(0,181.05817691214526)"/><g transform="translate(0.6,0)"><g transform="translate(0,219.04473212216803)"/><g transform="translate(0.6,0)"><g transform="translate(0,85.28139137045727)"/><g transform="translate(0.6,0)"><g transform="translate(0,251.6250978332799)"/><g transform="translate(0.6,0)"><g transform="translate(0,140.75265153181314)"/><g transform="translate(0.6,0)"><g transform="translate(0,158.9482702955622)"/><g transform="translate(0.6,0)"><g transform="translate(0,36.57929720291909)"/><g transform="translate(0.6,0)"><g transform="translate(0,87.47437935270229)"/><g transform="translate(0.6,0)"><g transform="translate(0,177.28954293352243)"/><g transform="translate(0.6,0)"><g transform="translate(0,149.2757336695085)"/><g transform="translate(0.6,0)"><g transform="translate(0,160.5932176671592)"/><g transform="translate(0.6,0)"><g transform="translate(0,198.6521786467242)"/><g transform="translate(0.6,0)"><g transform="translate(0,105.26230841246311)"/><g transform="translate(0.6,0)"><g transform="translate(0,135.60371430831947)"/><g transform="translate(0.6,0)"><g transform="translate(0,119.76674605057205)"/><g transform="translate(0.6,0)"><g transform="translate(0,245.091495997189)"/><g transform="translate(0.6,0)"><g transform="translate(0,122.7757219824305)"/><g transform="translate(0.6,0)"><g transform="translate(0,181.14654727370902)"/><g transform="translate(0.6,0)"><g transform="translate(0,117.40124688042975)"/><g transform="translate(0.6,0)"><g transform="translate(0,119.61708049370188)"/><g transform="translate(0.6,0)"><g transform="translate(0,218.61453953969556)"/><g transform="translate(0.6,0)"><g transform="translate(0,158.5836046592647)"/><g transform="translate(0.6,0)"><g transform="translate(0,201.1616236637281)"/><g transform="translate(0.6,0)"><g transform="translate(0,101.01407058829196)"/><g transform="translate(0.6,0)"><g transform="translate(0,141.81611697619923)"/><g transform="translate(0.6,0)"><g transform="translate(0,162.4111231921232)"/><g transform="translate(0.6,0)"><g transform="translate(0,58.19501608586026)"/><g transform="translate(0.6,0)"><g transform="translate(0,216.673780536336)"/><g transform="translate(0.6,0)"><g transform="translate(0,170.15968137256564)"/><g transform="translate(0.6,0)"><g transform="translate(0,253.91139830259056)"/><g transform="translate(0.6,0)"><g transform="translate(0,164.04939738501255)"/><g transform="translate(0.6,0)"><g transform="translate(0,173.8944747441876)"/><g transform="translate(0.6,0)"><g transform="translate(0,82.91630569131573)"/><g transform="translate(0.6,0)"><g transform="translate(0,107.68635429438066)"/><g transform="translate(0.6,0)"><g transform="translate(0,169.03305339394566)"/><g transform="translate(0.6,0)"><g transform="translate(0,181.29126230395747)"/><g transform="translate(0.6,0)"><g transform="translate(0,102.93147145279133)"/><g transform="translate(0.6,0)"><g transform="translate(0,159.15335078627174)"/><g transform="translate(0.6,0)"><g transform="translate(0,137.86667044664728)"/><g transform="translate(0.6,0)"><g transform="translate(0,130.76113339130913)"/><g transform="translate(0.6,0)"><g transform="translate(0,109.22873164631058)"/><g transform="translate(0.6,0)"><g transform="translate(0,181.65457651786718)"/><g transform="translate(0.6,0)"><g transform="translate(0,72.3541770390702)"/><g transform="translate(0.6,0)"><g transform="translate(0,76.54168265971143)"/><g transform="translate(0.6,0)"><g transform="translate(0,159.33050168211932)"/><g transform="translate(0.6,0)"><g transform="translate(0,107.64437083397385)"/><g transform="translate(0.6,0)"><g transform="translate(0,74.60060285475018)"/><g transform="translate(0.6,0)"><g transform="translate(0,156.707068542268)"/><g transform="translate(0.6,0)"><g transform="translate(0,130.1931795029892)"/><g transform="translate(0.6,0)"><g transform="translate(0,136.7274792946535)"/><g transform="translate(0.6,0)"><g transform="translate(0,236.76197564766238)"/><g transform="translate(0.6,0)"><g transform="translate(0,58.23841539815851)"/><g transform="translate(0.6,0)"><g transform="translate(0,224.08508061356102)"/><g transform="translate(0.6,0)"><g transform="translate(0,103.30038850707541)"/><g transform="translate(0.6,0)"><g transform="translate(0,64.38386414370864)"/><g transform="translate(0.6,0)"><g transform="translate(0,232.70562366147877)"/><g transform="translate(0.6,0)"><g transform="translate(0,181.70188747332884)"/><g transform="translate(0.6,0)"><g transform="translate(0,170.955912599564)"/><g transform="translate(0.6,0)"><g transform="translate(0,81.4753899118942)"/><g transform="translate(0.6,0)"><g transform="translate(0,137.61411165561705)"/><g transform="translate(0.6,0)"><g transform="translate(0,152.87190574902226)"/><g transform="translate(0.6,0)"><g transform="translate(0,78.47601760422484)"/><g transform="translate(0.6,0)"><g transform="translate(0,209.90435430540828)"/><g transform="translate(0.6,0)"><g transform="translate(0,203.0116296640867)"/><g transform="translate(0.6,0)"><g transform="translate(0,208.51247094071)"/><g transform="translate(0.6,0)"><g transform="translate(0,159.75818287226136)"/><g transform="translate(0.6,0)"><g transform="translate(0,147.8701212359892)"/><g transform="translate(0.6,0)"><g transform="translate(0,160.82323307080148)"/><g transform="translate(0.6,0)"><g transform="translate(0,136.1446612762707)"/><g transform="translate(0.6,0)"><g transform="translate(0,178.63395990521934)"/><g transform="translate(0.6,0)"><g transform="translate(0,171.3067092024946)"/><g transform="translate(0.6,0)"><g transform="translate(0,204.08944824724185)"/><g transform="translate(0.6,0)"><g transform="translate(0,46.82746735917094)"/><g transform="translate(0.6,0)"><g transform="translate(0,184.24585906210655)"/><g transform="translate(0.6,0)"><g transform="translate(0,145.92577480919107)"/><g transform="translate(0.6,0)"><g transform="translate(0,119.6086390946575)"/><g transform="translate(0.6,0)"><g transform="translate(0,82.85274008064798)"/><g transform="translate(0.6,0)"><g transform="translate(0,84.11394773795122)"/><g transform="translate(0.6,0)"><g transform="translate(0,107.62091856725789)"/><g transform="translate(0.6,0)"><g transform="translate(0,211.77378297501244)"/><g transform="translate(0.6,0)"><g transform="translate(0,141.68956673418037)"/><g transform="translate(0.6,0)"><g transform="translate(0,57.14010994316121)"/><g transform="translate(0.6,0)"><g transform="translate(0,123.45177712051076)"/><g transform="translate(0.6,0)"><g transform="translate(0,109.33745936205244)"/><g transform="translate(0.6,0)"><g transform="translate(0,104.93231165015148)"/><g transform="translate(0.6,0)"><g transform="translate(0,103.25304272049257)"/><g transform="translate(0.6,0)"><g transform="translate(0,129.4810465016668)"/><g transform="translate(0.6,0)"><g transform="translate(0,142.70543899420164)"/><g transform="translate(0.6,0)"><g transform="translate(0,179.6003136792502)"/><g transform="translate(0.6,0)"><g transform="translate(0,93.14793001883815)"/><g transform="translate(0.6,0)"><g transform="translate(0,176.85463519790633)"/><g transform="translate(0.6,0)"><g transform="translate(0,79.83289147247112)"/><g transform="translate(0.6,0)"><g transform="translate(0,169.73163864339546)"/><g transform="translate(0.6,0)"><g transform="translate(0,158.59687626760285)"/><g transform="translate(0.6,0)"><g transform="translate(0,46.47700362072277)"/><g transform="translate(0.6,0)"><g transform="translate(0,134.3047274908754)"/><g transform="translate(0.6,0)"><g transform="translate(0,266.8732280004947)"/><g transform="translate(0.6,0)"><g transform="translate(0,189.99642600559184)"/><g transform="translate(0.6,0)"><g transform="translate(0,142.73696055174446)"/><g transform="translate(0.6,0)"><g transform="translate(0,122.97914900007781)"/><g transform="translate(0.6,0)"><g transform="translate(0,75.17450877930959)"/><g transform="translate(0.6,0)"><g transform="translate(0,151.03296501211858)"/><g transform="translate(0.6,0)"><g transform="translate(0,186.6136366636939)"/><g transform="translate(0.6,0)"><g transform="translate(0,75.05914926682497)"/><g transform="translate(0.6,0)"><g transform="translate(0,88.30603964433631)"/><g transform="translate(0.6,0)"><g transform="translate(0,70.50780021075731)"/><g transform="translate(0.6,0)"><g transform="translate(0,76.24493516671056)"/><g transform="translate(0.6,0)"><g transform="translate(0,228.928336547621)"/><g transform="translate(0.6,0)"><g transform="translate(0,208.04896710108756)"/><g transform="translate(0.6,0)"><g transform="translate(0,185.094522580439)"/><g transform="translate(0.6,0)"><g transform="translate(0,169.12683110866007)"/><g transform="translate(0.6,0)"><g transform="translate(0,194.3379370013297)"/><g transform="translate(0.6,0)"><g transform="translate(0,131.90966277357543)"/><g transform="translate(0.6,0)"><g transform="translate(0,182.852729752862)"/><g transform="translate(0.6,0)"><g transform="translate(0,117.2680355325848)"/><g transform="translate(0.6,0)"><g transform="translate(0,172.98302391518556)"/><g transform="translate(0.6,0)"><g transform="translate(0,95.03670723383824)"/><g transform="translate(0.6,0)"><g transform="translate(0,137.0053653360397)"/><g transform="translate(0.6,0)"><g transform="translate(0,170.15131456012884)"/><g transform="translate(0.6,0)"><g transform="translate(0,67.64443072164168)"/><g transform="translate(0.6,0)"><g transform="translate(0,114.89832836597257)"/><g transform="translate(0.6,0)"><g transform="translate(0,121.14399730394835)"/><g transform="translate(0.6,0)"><g transform="translate(0,57.0432319514829)"/><g transform="translate(0.6,0)"><g transform="translate(0,129.55107558061206)"/><g transform="translate(0.6,0)"><g transform="translate(0,229.6453915505621)"/><g transform="translate(0.6,0)"><g transform="translate(0,199.41864660465737)"/><g transform="translate(0.6,0)"><g transform="translate(0,186.73837221770708)"/><g transform="translate(0.6,0)"><g transform="translate(0,109.32119240480532)"/><g transform="translate(0.6,0)"><g transform="translate(0,239.71206799299964)"/><g transform="translate(0.6,0)"><g transform="translate(0,178.27325733108032)"/><g transform="translate(0.6,0)"><g transform="translate(0,63.4960795839175)"/><g transform="translate(0.6,0)"><g transform="translate(0,96.01796207597921)"/><g transform="translate(0.6,0)"><g transform="translate(0,252.99127498315784)"/><g transform="translate(0.6,0)"><g transform="translate(0,223.26688264011582)"/><g transform="translate(0.6,0)"><g transform="translate(0,71.74601598083315)"/><g transform="translate(0.6,0)"><g transform="translate(0,168.85067860731493)"/><g transform="translate(0.6,0)"><g transform="translate(0,194.0369517839945)"/><g transform="translate(0.6,0)"><g transform="translate(0,79.09432337482802)"/><g transform="translate(0.6,0)"><g transform="translate(0,90.33216225417367)"/><g transform="translate(0.6,0)"><g transform="translate(0,59.29746054749521)"/><g transform="translate(0.6,0)"><g transform="translate(0,135.1837520875175)"/><g transform="translate(0.6,0)"><g transform="translate(0,67.91504068897585)"/><g transform="translate(0.6,0)"><g transform="translate(0,37.00791143188588)"/><g transform="translate(0.6,0)"><g transform="translate(0,133.53894503034337)"/><g transform="translate(0.6,0)"><g transform="translate(0,201.84996141376052)"/><g transform="translate(0.6,0)"><g transform="translate(0,137.288658926951)"/><g transform="translate(0.6,0)"><g transform="translate(0,61.37296800624256)"/><g transform="translate(0.6,0)"><g transform="translate(0,173.0273678254554)"/><g transform="translate(0.6,0)"><g transform="translate(0,172.89138305943646)"/><g transform="translate(0.6,0)"><g transform="translate(0,181.53742254294588)"/><g transform="translate(0.6,0)"><g transform="translate(0,146.5811881698841)"/><g transform="translate(0.6,0)"><g transform="translate(0,165.5479986491854)"/><g transform="translate(0.6,0)"><g transform="translate(0,175.13721811037786)"/><g transform="translate(0.6,0)"><g transform="translate(0,64.16178444206356)"/><g transform="translate(0.6,0)"><g transform="translate(0,70.75171667831671)"/><g transform="translate(0.6,0)"><g transform="translate(0,140.2440731211322)"/><g transform="translate(0.6,0)"><g transform="translate(0,234.4997268719755)"/><g transform="translate(0.6,0)"><g transform="translate(0,230.9072738344892)"/><g transform="translate(0.6,0)"><g transform="translate(0,111.50167840808766)"/><g transform="translate(0.6,0)"><g transform="translate(0,67.46429761116667)"/><g transform="translate(0.6,0)"><g transform="translate(0,66.52020060320193)"/><g transform="translate(0.6,0)"><g transform="translate(0,144.13627916666954)"/><g transform="translate(0.6,0)"><g transform="translate(0,131.09394345533755)"/><g transform="translate(0.6,0)"><g transform="translate(0,69.74811128016582)"/><g transform="translate(0.6,0)"><g transform="translate(0,174.0965438892228)"/><g transform="translate(0.6,0)"><g transform="translate(0,51.66780148051784)"/><g transform="translate(0.6,0)"><g transform="translate(0,196.8319617938439)"/><g transform="translate(0.6,0)"><g transform="translate(0,170.68261380365922)"/><g transform="translate(0.6,0)"><g transform="translate(0,105.68191037019565)"/><g transform="translate(0.6,0)"><g transform="translate(0,192.72046540392643)"/><g transform="translate(0.6,0)"><g transform="translate(0,192.33415650721042)"/><g transform="translate(0.6,0)"><g transform="translate(0,181.0157957038419)"/><g transform="translate(0.6,0)"><g transform="translate(0,118.42399283269111)"/><g transform="translate(0.6,0)"><g transform="translate(0,114.10237577042395)"/><g transform="translate(0.6,0)"><g transform="translate(0,82.85452760795665)"/><g transform="translate(0.6,0)"><g transform="translate(0,157.71916458522685)"/><g transform="translate(0.6,0)"><g transform="translate(0,230.76949618185532)"/><g transform="translate(0.6,0)"><g transform="translate(0,50.282518237931626)"/><g transform="translate(0.6,0)"><g transform="translate(0,169.2961225574617)"/><g transform="translate(0.6,0)"><g transform="translate(0,63.13299068189149)"/><g transform="translate(0.6,0)"><g transform="translate(0,87.33727893866784)"/><g transform="translate(0.6,0)"><g transform="translate(0,169.87213207172064)"/><g transform="translate(0.6,0)"><g transform="translate(0,101.62869690900551)"/><g transform="translate(0.6,0)"><g transform="translate(0,204.07359623277821)"/><g transform="translate(0.6,0)"><g transform="translate(0,100.85792411675462)"/><g transform="translate(0.6,0)"><g transform="translate(0,230.60378815224857)"/><g transform="translate(0.6,0)"><g transform="translate(0,143.42972187867645)"/><g transform="translate(0.6,0)"><g transform="translate(0,90.29903395386933)"/><g transform="translate(0.6,0)"><g transform="translate(0,64.0307790503211)"/><g transform="translate(0.6,0)"><g transform="translate(0,222.24882762462295)"/><g transform="translate(0.6,0)"><g transform="translate(0,173.9230305020828)"/><g transform="translate(0.6,0)"><g transform="translate(0,98.71751137212749)"/><g transform="translate(0.6,0)"><g transform="translate(0,240.68011601721372)"/><g transform="translate(0.6,0)"><g transform="translate(0,216.64430943431998)"/><g transform="translate(0.6,0)"><g transform="translate(0,118.69859324005563)"/><g transform="translate(0.6,0)"><g transform="translate(0,229.77807701427898)"/><g transform="translate(0.6,0)"><g transform="translate(0,153.66403835899592)"/><g transform="translate(0.6,0)"><g transform="translate(0,179.68378173809498)"/><g transform="translate(0.6,0)"><g transform="translate(0,101.64926457393571)"/><g transform="translate(0.6,0)"><g transform="translate(0,128.5815400870797)"/><g transform="translate(0.6,0)"><g transform="translate(0,136.2504669607085)"/><g transform="translate(0.6,0)"><g transform="translate(0,158.060644010099)"/><g transform="translate(0.6,0)"><g transform="translate(0,115.77876450214606)"/><g transform="translate(0.6,0)"><g transform="translate(0,174.10276824641053)"/><g transform="translate(0.6,0)"><g transform="translate(0,189.05092285453316)"/><g transform="translate(0.6,0)"><g transform="translate(0,99.35896715222545)"/><g transform="translate(0.6,0)"><g transform="translate(0,180.783614147184)"/><g transform="translate(0.6,0)"><g transform="translate(0,224.46175182979982)"/><g transform="translate(0.6,0)"><g transform="translate(0,63.91432069316692)"/><g transform="translate(0.6,0)"><g transform="translate(0,126.03581050497263)"/><g transform="translate(0.6,0)"><g transform="translate(0,206.7598385319423)"/><g transform="translate(0.6,0)"><g transform="translate(0,149.30541496395014)"/><g transform="translate(0.6,0)"><g transform="translate(0,251.05907715299995)"/><g transform="translate(0.6,0)"><g transform="translate(0,149.95319941511138)"/><g transform="translate(0.6,0)"><g transform="translate(0,192.28661281170793)"/><g transform="translate(0.6,0)"><g transform="translate(0,133.64957808587044)"/><g transform="translate(0.6,0)"><g transform="translate(0,104.37560902635501)"/><g transform="translate(0.6,0)"><g transform="translate(0,211.8652904648242)"/><g transform="translate(0.6,0)"><g transform="translate(0,114.05068917805659)"/><g transform="translate(0.6,0)"><g transform="translate(0,149.17860497499362)"/><g transform="translate(0.6,0)"><g transform="translate(0,146.3534059250552)"/><g transform="translate(0.6,0)"><g transform="translate(0,113.54066481985977)"/><g transform="translate(0.6,0)"><g transform="translate(0,99.57527150030054)"/><g transform="translate(0.6,0)"><g transform="translate(0,140.21539734795735)"/><g transform="translate(0.6,0)"><g transform="translate(0,205.7665728374771)"/><g transform="translate(0.6,0)"><g transform="translate(0,85.10017120577318)"/><g transform="translate(0.6,0)"><g transform="translate(0,206.04084883164268)"/><g transform="translate(0.6,0)"><g transform="translate(0,200.68371636932443)"/><g transform="translate(0.6,0)"><g transform="translate(0,132.22793639210482)"/><g transform="translate(0.6,0)"><g transform="translate(0,65.61527244398995)"/><g transform="translate(0.6,0)"><g transform="translate(0,109.21070264642897)"/><g transform="translate(0.6,0)"><g transform="translate(0,199.67765903533413)"/><g transform="translate(0.6,0)"><g transform="translate(0,72.34483806785596)"/><g transform="translate(0.6,0)"><g transform="translate(0,192.28558856660084)"/><g transform="translate(0.6,0)"><g transform="translate(0,126.03622551936733)"/><g transform="translate(0.6,0)"><g transform="translate(0,116.64853265664216)"/><g transform="translate(0.6,0)"><g transform="translate(0,116.18795785562476)"/><g transform="translate(0.6,0)"><g transform="translate(0,204.34885462828066)"/><g transform="translate(0.6,0)"><g transform="translate(0,138.7157861810879)"/><g transform="translate(0.6,0)"><g transform="translate(0,144.5729582267567)"/><g transform="translate(0.6,0)"><g transform="translate(0,126.9984324002879)"/><g transform="translate(0.6,0)"><g transform="translate(0,116.4122493118244)"/><g transform="translate(0.6,0)"><g transform="translate(0,68.78425546637)"/><g transform="translate(0.6,0)"><g transform="translate(0,74.6327630878522)"/><g transform="translate(0.6,0)"><g transform="translate(0,139.7338682107784)"/><g transform="translate(0.6,0)"><g transform="translate(0,208.7931457884209)"/><g transform="translate(0.6,0)"><g transform="translate(0,194.92727726800055)"/><g transform="translate(0.6,0)"><g transform="translate(0,134.35034530947317)"/><g transform="translate(0.6,0)"><g transform="translate(0,94.37707110320973)"/><g transform="translate(0.6,0)"><g transform="translate(0,77.56571904182324)"/><g transform="translate(0.6,0)"><g transform="translate(0,139.55759027951365)"/><g transform="translate(0.6,0)"><g transform="translate(0,155.45645819260199)"/><g transform="translate(0.6,0)"><g transform="translate(0,152.70225071937364)"/><g transform="translate(0.6,0)"><g transform="translate(0,166.11033665627656)"/><g transform="translate(0.6,0)"><g transform="translate(0,103.62140421508597)"/><g transform="translate(0.6,0)"><g transform="translate(0,133.54365018103522)"/><g transform="translate(0.6,0)"><g transform="translate(0,148.07395202565658)"/><g transform="translate(0.6,0)"><g transform="translate(0,160.33918513721997)"/><g transform="translate(0.6,0)"><g transform="translate(0,213.7917312540488)"/><g transform="translate(0.6,0)"><g transform="translate(0,112.14049361478655)"/><g transform="translate(0.6,0)"><g transform="translate(0,79.71076109555823)"/><g transform="translate(0.6,0)"><g transform="translate(0,87.57412644627932)"/><g transform="translate(0.6,0)"><g transform="translate(0,148.65223968288348)"/><g transform="translate(0.6,0)"><g transform="translate(0,232.56469802995272)"/><g transform="translate(0.6,0)"><g transform="translate(0,223.80013458462707)"/><g transform="translate(0.6,0)"><g transform="translate(0,199.36429290256547)"/><g transform="translate(0.6,0)"><g transform="translate(0,44.534298576065865)"/><g transform="translate(0.6,0)"><g transform="translate(0,93.65364121309483)"/><g transform="translate(0.6,0)"><g transform="translate(0,134.07239478151303)"/><g transform="translate(0.6,0)"><g transform="translate(0,157.99024899809083)"/><g transform="translate(0.6,0)"><g transform="translate(0,110.58364347841278)"/><g transform="translate(0.6,0)"><g transform="translate(0,75.38744310156184)"/><g transform="translate(0.6,0)"><g transform="translate(0,180.40743506651322)"/><g transform="translate(0.6,0)"><g transform="translate(0,191.09139227701272)"/><g transform="translate(0.6,0)"><g transform="translate(0,171.6675706242221)"/><g transform="translate(0.6,0)"><g transform="translate(0,207.03283790167285)"/><g transform="translate(0.6,0)"><g transform="translate(0,171.62407275796429)"/><g transform="translate(0.6,0)"><g transform="translate(0,189.7258986017805)"/><g transform="translate(0.6,0)"><g transform="translate(0,74.20631702805977)"/><g transform="translate(0.6,0)"><g transform="translate(0,131.5300697213013)"/><g transform="translate(0.6,0)"><g transform="translate(0,104.21191572854451)"/><g transform="translate(0.6,0)"><g transform="translate(0,112.73824531173848)"/><g transform="translate(0.6,0)"><g transform="translate(0,156.14905311883757)"/><g transform="translate(0.6,0)"><g transform="translate(0,133.30014096898486)"/><g transform="translate(0.6,0)"><g transform="translate(0,179.2790581789598)"/><g transform="translate(0.6,0)"><g transform="translate(0,140.76773080887196)"/><g transform="translate(0.6,0)"><g transform="translate(0,140.3023904900571)"/><g transform="translate(0.6,0)"><g transform="translate(0,195.13976098188107)"/><g transform="translate(0.6,0)"><g transform="translate(0,223.1832080626834)"/><g transform="translate(0.6,0)"><g transform="translate(0,53.903579909104316)"/><g transform="translate(0.6,0)"><g transform="translate(0,135.97505664974432)"/><g transform="translate(0.6,0)"><g transform="translate(0,109.83195889748367)"/><g transform="translate(0.6,0)"><g transform="translate(0,124.67874123770027)"/><g transform="translate(0.6,0)"><g transform="translate(0,183.36379564900525)"/><g transform="translate(0.6,0)"><g transform="translate(0,185.99851812670437)"/><g transform="translate(0.6,0)"><g transform="translate(0,115.79920790914723)"/><g transform="translate(0.6,0)"><g transform="translate(0,101.93175185833303)"/><g transform="translate(0.6,0)"><g transform="translate(0,188.65782318842778)"/><g transform="translate(0.6,0)"><g transform="translate(0,93.78923221443993)"/><g transform="translate(0.6,0)"><g transform="translate(0,165.03273910698294)"/><g transform="translate(0.6,0)"><g transform="translate(0,163.69817228788813)"/><g transform="translate(0.6,0)"><g transform="translate(0,123.44148097982864)"/><g transform="translate(0.6,0)"><g transform="translate(0,79.27220434705458)"/><g transform="translate(0.6,0)"><g transform="translate(0,150.18839454405392)"/><g transform="translate(0.6,0)"><g transform="translate(0,75.54919455976905)"/><g transform="translate(0.6,0)"><g transform="translate(0,139.37196099956944)"/><g transform="translate(0.6,0)"><g transform="translate(0,103.66566484333715)"/><g transform="translate(0.6,0)"><g transform="translate(0,209.90643375714583)"/><g transform="translate(0.6,0)"><g transform="translate(0,76.63437108704348)"/><g transform="translate(0.6,0)"><g transform="translate(0,112.03148729533137)"/><g transform="translate(0.6,0)"><g transform="translate(0,161.4773710899894)"/><g transform="translate(0.6,0)"><g transform="translate(0,65.86870058876816)"/><g transform="translate(0.6,0)"><g transform="translate(0,142.59900050988261)"/><g transform="translate(0.6,0)"><g transform="translate(0,136.05099191574448)"/><g transform="translate(0.6,0)"><g transform="translate(0,174.21444226387527)"/><g transform="translate(0.6,0)"><g transform="translate(0,47.72113486511089)"/><g transform="translate(0.6,0)"><g transform="translate(0,104.02542958333362)"/><g transform="translate(0.6,0)"><g transform="translate(0,170.2919611068646)"/><g transform="translate(0.6,0)"><g transform="translate(0,71.19311374098677)"/><g transform="translate(0.6,0)"><g transform="translate(0,239.67908108237236)"/><g transform="translate(0.6,0)"><g transform="translate(0,143.37784603644934)"/><g transform="translate(0.6,0)"><g transform="translate(0,169.91622889372618)"/><g transform="translate(0.6,0)"><g transform="translate(0,129.4549925627455)"/><g transform="translate(0.6,0)"><g transform="translate(0,186.55590923350712)"/><g transform="translate(0.6,0)"><g transform="translate(0,181.35386925980526)"/><g transform="translate(0.6,0)"><g transform="translate(0,235.40735989453387)"/><g transform="translate(0.6,0)"><g transform="translate(0,205.6820375639158)"/><g transform="translate(0.6,0)"><g transform="translate(0,137.60746187487769)"/><g transform="translate(0.6,0)"><g transform="translate(0,82.15049588716532)"/><g transform="translate(0.6,0)"><g transform="translate(0,93.17317503969942)"/><g transform="translate(0.6,0)"><g transform="translate(0,152.21555803222404)"/><g transform="translate(0.6,0)"><g transform="translate(0,189.39696331933723)"/><g transform="translate(0.6,0)"><g transform="translate(0,95.3177584055006)"/><g transform="translate(0.6,0)"><g transform="translate(0,123.86059909765937)"/><g transform="translate(0.6,0)"><g transform="translate(0,133.55985731634087)"/><g transform="translate(0.6,0)"><g transform="translate(0,93.1604125033479)"/><g transform="translate(0.6,0)"><g transform="translate(0,188.87564935405828)"/><g transform="translate(0.6,0)"><g transform="translate(0,146.9925047779899)"/><g transform="translate(0.6,0)"><g transform="translate(0,248.74566367474702)"/><g transform="translate(0.6,0)"><g transform="translate(0,139.53985469176737)"/><g transform="translate(0.6,0)"><g transform="translate(0,180.31876292676327)"/><g transform="translate(0.6,0)"><g transform="translate(0,162.21211154808896)"/><g transform="translate(0.6,0)"><g transform="translate(0,190.47344091839273)"/><g transform="translate(0.6,0)"><g transform="translate(0,160.95331853831865)"/><g transform="translate(0.6,0)"><g transform="translate(0,178.1622052442526)"/><g transform="translate(0.6,0)"><g transform="translate(0,179.520798473755)"/><g transform="translate(0.6,0)"><g transform="translate(0,197.53481364787575)"/><g transform="translate(0.6,0)"><g transform="translate(0,78.92959684009843)"/><g transform="translate(0.6,0)"><g transform="translate(0,179.18329843980413)"/><g transform="translate(0.6,0)"><g transform="translate(0,214.24872152167774)"/><g transform="translate(0.6,0)"><g transform="translate(0,243.87828703031792)"/><g transform="translate(0.6,0)"><g transform="translate(0,169.75894611822474)"/><g transform="translate(0.6,0)"><g transform="translate(0,33.533868243017466)"/><g transform="translate(0.6,0)"><g transform="translate(0,172.59136370372826)"/><g transform="translate(0.6,0)"><g transform="translate(0,107.33184983586717)"/><g transform="translate(0.6,0)"><g transform="translate(0,184.04917574598153)"/><g transform="translate(0.6,0)"><g transform="translate(0,140.76215334303862)"/><g transform="translate(0.6,0)"><g transform="translate(0,170.35521149410428)"/><g transform="translate(0.6,0)"><g transform="translate(0,107.2301406634457)"/><g transform="translate(0.6,0)"><g transform="translate(0,186.40240323499364)"/><g transform="translate(0.6,0)"><g transform="translate(0,189.75911555498394)"/><g transform="translate(0.6,0)"><g transform="translate(0,153.53401661472014)"/><g transform="translate(0.6,0)"><g transform="translate(0,144.590489914997)"/><g transform="translate(0.6,0)"><g transform="translate(0,57.664670975846704)"/><g transform="translate(0.6,0)"><g transform="translate(0,124.17027653550525)"/><g transform="translate(0.6,0)"><g transform="translate(0,117.70970145743715)"/><g transform="translate(0.6,0)"><g transform="translate(0,40.68231909665183)"/><g transform="translate(0.6,0)"><g transform="translate(0,135.70071104514355)"/><g transform="translate(0.6,0)"><g transform="translate(0,113.55237818150162)"/><g transform="translate(0.6,0)"><g transform="translate(0,166.19465122616813)"/><g transform="translate(0.6,0)"><g transform="translate(0,158.6364673277622)"/><g transform="translate(0.6,0)"><g transform="translate(0,113.73606908606263)"/><g transform="translate(0.6,0)"><g transform="translate(0,197.4255425194135)"/><g transform="translate(0.6,0)"><g transform="translate(0,232.93819818015123)"/><g transform="translate(0.6,0)"><g transform="translate(0,75.62303239300746)"/><g transform="translate(0.6,0)"><g transform="translate(0,238.76003677015413)"/><g transform="translate(0.6,0)"><g transform="translate(0,161.8503260290203)"/><g transform="translate(0.6,0)"><g transform="translate(0,161.12685246610792)"/><g transform="translate(0.6,0)"><g transform="translate(0,67.67798104383614)"/><g transform="translate(0.6,0)"><g transform="translate(0,124.28792501564068)"/><g transform="translate(0.6,0)"><g transform="translate(0,114.16268021202445)"/><g transform="translate(0.6,0)"><g transform="translate(0,178.30610415090342)"/><g transform="translate(0.6,0)"><g transform="translate(0,196.56376863947676)"/><g transform="translate(0.6,0)"><g transform="translate(0,195.86823342566737)"/><g transform="translate(0.6,0)"><g transform="translate(0,132.66935087796023)"/><g transform="translate(0.6,0)"><g transform="translate(0,102.27097387963603)"/><g transform="translate(0.6,0)"><g transform="translate(0,178.78705911516946)"/><g transform="translate(0.6,0)"><g transform="translate(0,93.14689762996505)"/><g transform="translate(0.6,0)"><g transform="translate(0,151.1891632061824)"/><g transform="translate(0.6,0)"><g transform="translate(0,167.11283789731078)"/><g transform="translate(0.6,0)"><g transform="translate(0,131.2646725369669)"/><g transform="translate(0.6,0)"><g transform="translate(0,248.02868977297987)"/><g transform="translate(0.6,0)"><g transform="translate(0,123.38587458575182)"/><g transform="translate(0.6,0)"><g transform="translate(0,211.93881097680386)"/><g transform="translate(0.6,0)"><g transform="translate(0,68.87823312963512)"/><g transform="translate(0.6,0)"><g transform="translate(0,117.68130346590314)"/><g transform="translate(0.6,0)"><g transform="translate(0,179.50208289198548)"/><g transform="translate(0.6,0)"><g transform="translate(0,189.92045858192736)"/><g transform="translate(0.6,0)"><g transform="translate(0,134.60004721681779)"/><g transform="translate(0.6,0)"><g transform="translate(0,185.26669663438733)"/><g transform="translate(0.6,0)"><g transform="translate(0,142.6676844480616)"/><g transform="translate(0.6,0)"><g transform="translate(0,170.54561894478283)"/><g transform="translate(0.6,0)"><g transform="translate(0,139.92698434364306)"/><g transform="translate(0.6,0)"><g transform="translate(0,177.44501154460428)"/><g transform="translate(0.6,0)"><g transform="translate(0,139.4445049710636)"/><g transform="translate(0.6,0)"><g transform="translate(0,113.33979903143997)"/><g transform="translate(0.6,0)"><g transform="translate(0,190.56158087180006)"/><g transform="translate(0.6,0)"><g transform="translate(0,101.11531112200731)"/><g transform="translate(0.6,0)"><g transform="translate(0,208.61473969318632)"/><g transform="translate(0.6,0)"><g transform="translate(0,92.9505934059525)"/><g transform="translate(0.6,0)"><g transform="translate(0,89.2154828977751)"/><g transform="translate(0.6,0)"><g transform="translate(0,27.81719622117359)"/><g transform="translate(0.6,0)"><g transform="translate(0,159.3594853780282)"/><g transform="translate(0.6,0)"><g transform="translate(0,106.24521704883068)"/><g transform="translate(0.6,0)"><g transform="translate(0,128.04082688838648)"/><g transform="translate(0.6,0)"><g transform="translate(0,143.82624635721533)"/><g transform="translate(0.6,0)"><g transform="translate(0,76.46485265194262)"/><g transform="translate(0.6,0)"><g transform="translate(0,103.82321641830515)"/><g transform="translate(0.6,0)"><g transform="translate(0,129.95219529736514)"/><g transform="translate(0.6,0)"><g transform="translate(0,104.0549348059408)"/><g transform="translate(0.6,0)"><g transform="translate(0,90.58153259732067)"/><g transform="translate(0.6,0)"><g transform="translate(0,110.99267403919816)"/><g transform="translate(0.6,0)"><g transform="translate(0,136.02796023779604)"/><g transform="translate(0.6,0)"><g transform="translate(0,126.19744774496036)"/><g transform="translate(0.6,0)"><g transform="translate(0,165.44131834983932)"/><g transform="translate(0.6,0)"><g transform="translate(0,126.3478809645655)"/><g transform="translate(0.6,0)"><g transform="translate(0,141.47990593899945)"/><g transform="translate(0.6,0)"><g transform="translate(0,143.3462117606553)"/><g transform="translate(0.6,0)"><g transform="translate(0,173.29195635405392)"/><g transform="translate(0.6,0)"><g transform="translate(0,216.3153247044967)"/><g transform="translate(0.6,0)"><g transform="translate(0,185.40149123379368)"/><g transform="translate(0.6,0)"><g transform="translate(0,203.18053419109415)"/><g transform="translate(0.6,0)"><g transform="translate(0,158.80698835566025)"/><g transform="translate(0.6,0)"><g transform="translate(0,72.75848012920059)"/><g transform="translate(0.6,0)"><g transform="translate(0,160.72222404063737)"/><g transform="translate(0.6,0)"><g transform="translate(0,108.16534106415752)"/><g transform="translate(0.6,0)"><g transform="translate(0,117.47338656390264)"/><g transform="translate(0.6,0)"><g transform="translate(0,100.35471989646737)"/><g transform="translate(0.6,0)"><g transform="translate(0,144.53383518832194)"/><g transform="translate(0.6,0)"><g transform="translate(0,190.39894441996017)"/><g transform="translate(0.6,0)"><g transform="translate(0,108.28385719791422)"/><g transform="translate(0.6,0)"><g transform="translate(0,213.20261500954584)"/><g transform="translate(0.6,0)"><g transform="translate(0,70.3424021777834)"/><g transform="translate(0.6,0)"><g transform="translate(0,70.67708925239232)"/><g transform="translate(0.6,0)"><g transform="translate(0,177.65820245143422)"/><g transform="translate(0.6,0)"><g transform="translate(0,105.48426647901655)"/><g transform="translate(0.6,0)"><g transform="translate(0,198.4598517574301)"/><g transform="translate(0.6,0)"><g transform="translate(0,133.5431125274864)"/><g transform="translate(0.6,0)"><g transform="translate(0,214.39231545660934)"/><g transform="translate(0.6,0)"><g transform="translate(0,44.296102362037836)"/><g transform="translate(0.6,0)"><g transform="translate(0,149.498486096661)"/><g transform="translate(0.6,0)"><g transform="translate(0,184.57337679573152)"/><g transform="translate(0.6,0)"><g transform="translate(0,229.07368297116096)"/><g transform="translate(0.6,0)"><g transform="translate(0,112.07790129700552)"/><g transform="translate(0.6,0)"><g transform="translate(0,190.3834428948027)"/><g transform="translate(0.6,0)"><g transform="translate(0,127.55973736867661)"/><g transform="translate(0.6,0)"><g transform="translate(0,172.9465979263831)"/><g transform="translate(0.6,0)"><g transform="translate(0,59.187388739709505)"/><g transform="translate(0.6,0)"><g transform="translate(0,102.67770743824461)"/><g transform="translate(0.6,0)"><g transform="translate(0,150.14539711961973)"/><g transform="translate(0.6,0)"><g transform="translate(0,162.73462211511574)"/><g transform="translate(0.6,0)"><g transform="translate(0,98.33337056329955)"/><g transform="translate(0.6,0)"><g transform="translate(0,180.9195904210449)"/><g transform="translate(0.6,0)"><g transform="translate(0,91.8988798909087)"/><g transform="translate(0.6,0)"><g transform="translate(0,179.82294173652247)"/><g transform="translate(0.6,0)"><g transform="translate(0,124.00817280183732)"/><g transform="translate(0.6,0)"><g transform="translate(0,130.83843133076934)"/><g transform="translate(0.6,0)"><g transform="translate(0,152.27471365790817)"/><g transform="translate(0.6,0)"><g transform="translate(0,139.35367087217648)"/><g transform="translate(0.6,0)"><g transform="translate(0,107.93472056514311)"/><g transform="translate(0.6,0)"><g transform="translate(0,147.35784841737524)"/><g transform="translate(0.6,0)"><g transform="translate(0,187.60136889571893)"/><g transform="translate(0.6,0)"><g transform="translate(0,167.02742337727372)"/><g transform="translate(0.6,0)"><g transform="translate(0,190.18926171988818)"/><g transform="translate(0.6,0)"><g transform="translate(0,175.51487110802387)"/><g transform="translate(0.6,0)"><g transform="translate(0,177.43204017876974)"/><g transform="translate(0.6,0)"><g transform="translate(0,154.2988346669983)"/><g transform="translate(0.6,0)"><g transform="translate(0,218.11069303302347)"/><g transform="translate(0.6,0)"><g transform="translate(0,127.759532936013)"/><g transform="translate(0.6,0)"><g transform="translate(0,169.21107123918284)"/><g transform="translate(0.6,0)"><g transform="translate(0,84.58480823525315)"/><g transform="translate(0.6,0)"><g transform="translate(0,103.13860239949848)"/><g transform="translate(0.6,0)"><g transform="translate(0,226.99223900921615)"/><g transform="translate(0.6,0)"><g transform="translate(0,186.0370409126762)"/><g transform="translate(0.6,0)"><g transform="translate(0,120.44011168481416)"/><g transform="translate(0.6,0)"><g transform="translate(0,132.63620134845897)"/><g transform="translate(0.6,0)"><g transform="translate(0,182.20768514668626)"/><g transform="translate(0.6,0)"><g transform="translate(0,77.0372972286503)"/><g transform="translate(0.6,0)"><g transform="translate(0,177.86638260459557)"/><g transform="translate(0.6,0)"><g transform="translate(0,65.18048585146612)"/><g transform="translate(0.6,0)"><g transform="translate(0,85.57977236588005)"/><g transform="translate(0.6,0)"><g transform="translate(0,86.9641871128772)"/><g transform="translate(0.6,0)"><g transform="translate(0,143.02531798228978)"/><g transform="translate(0.6,0)"><g transform="translate(0,173.8792440245479)"/><g transform="translate(0.6,0)"><g transform="translate(0,111.76020923019742)"/><g transform="translate(0.6,0)"><g transform="translate(0,123.29168490766799)"/><g transform="translate(0.6,0)"><g transform="translate(0,121.8152056326086)"/><g transform="translate(0.6,0)"><g transform="translate(0,215.0636447962907)"/><g transform="translate(0.6,0)"><g transform="translate(0,199.18435768620893)"/><g transform="translate(0.6,0)"><g transform="translate(0,213.58596045894637)"/><g transform="translate(0.6,0)"><g transform="translate(0,232.05041930187554)"/><g transform="translate(0.6,0)"><g transform="translate(0,146.95148167092893)"/><g transform="translate(0.6,0)"><g transform="translate(0,152.94237427937574)"/><g transform="translate(0.6,0)"><g transform="translate(0,49.88953004401977)"/><g transform="translate(0.6,0)"><g transform="translate(0,91.76855536951304)"/><g transform="translate(0.6,0)"><g transform="translate(0,209.56254879594275)"/><g transform="translate(0.6,0)"><g transform="translate(0,152.01803212708504)"/><g transform="translate(0.6,0)"><g transform="translate(0,118.0584006102981)"/><g transform="translate(0.6,0)"><g transform="translate(0,162.64248673744947)"/><g transform="translate(0.6,0)"><g transform="translate(0,50.89995660145577)"/><g transform="translate(0.6,0)"><g transform="translate(0,83.02859949539288)"/><g transform="translate(0.6,0)"><g transform="translate(0,207.6035994289592)"/><g transform="translate(0.6,0)"><g transform="translate(0,204.30522955866383)"/><g transform="translate(0.6,0)"><g transform="translate(0,148.91513349473416)"/><g transform="translate(0.6,0)"><g transform="translate(0,170.66624767349307)"/><g transform="translate(0.6,0)"><g transform="translate(0,154.66384969577797)"/><g transform="translate(0.6,0)"><g transform="translate(0,107.7574754410175)"/><g transform="translate(0.6,0)"><g transform="translate(0,196.6514760340595)"/><g transform="translate(0.6,0)"><g transform="translate(0,185.9864758539278)"/><g transform="translate(0.6,0)"><g transform="translate(0,119.62124575738714)"/><g transform="translate(0.6,0)"><g transform="translate(0,129.48818929682074)"/><g transform="translate(0.6,0)"><g transform="translate(0,120.8307901897319)"/><g transform="translate(0.6,0)"><g transform="translate(0,65.81607106688475)"/><g transform="translate(0.6,0)"><g transform="translate(0,94.79640070407754)"/><g transform="translate(0.6,0)"><g transform="translate(0,93.68480137667504)"/><g transform="translate(0.6,0)"><g transform="translate(0,219.63553335259527)"/><g transform="translate(0.6,0)"><g transform="translate(0,80.50014887369066)"/><g transform="translate(0.6,0)"><g transform="translate(0,79.48797034860159)"/><g transform="translate(0.6,0)"><g transform="translate(0,182.96549137395056)"/><g transform="translate(0.6,0)"><g transform="translate(0,124.53128531369165)"/><g transform="translate(0.6,0)"><g transform="translate(0,161.75879674633)"/><g transform="translate(0.6,0)"><g transform="translate(0,185.94672720748684)"/><g transform="translate(0.6,0)"><g transform="translate(0,142.6928837549238)"/><g transform="translate(0.6,0)"><g transform="translate(0,182.33578448643118)"/><g transform="translate(0.6,0)"><g transform="translate(0,191.1399931229608)"/><g transform="translate(0.6,0)"><g transform="translate(0,114.06763134687934)"/><g transform="translate(0.6,0)"><g transform="translate(0,240.22523864908106)"/><g transform="translate(0.6,0)"><g transform="translate(0,138.31045209069507)"/><g transform="translate(0.6,0)"><g transform="translate(0,88.91258173008428)"/><g transform="translate(0.6,0)"><g transform="translate(0,119.39141574460533)"/><g transform="translate(0.6,0)"><g transform="translate(0,218.48488244338571)"/><g transform="translate(0.6,0)"><g transform="translate(0,174.9700944156183)"/><g transform="translate(0.6,0)"><g transform="translate(0,120.28657365850924)"/><g transform="translate(0.6,0)"><g transform="translate(0,106.90884797028247)"/><g transform="translate(0.6,0)"><g transform="translate(0,218.68788186887343)"/><g transform="translate(0.6,0)"><g transform="translate(0,55.490117505418056)"/><g transform="translate(0.6,0)"><g transform="translate(0,228.44323122432613)"/><g transform="translate(0.6,0)"><g transform="translate(0,189.32732689624095)"/><g transform="translate(0.6,0)"><g transform="translate(0,148.4720442543793)"/><g transform="translate(0.6,0)"><g transform="translate(0,136.0434931621446)"/><g transform="translate(0.6,0)"><g transform="translate(0,178.93001709531688)"/><g transform="translate(0.6,0)"><g transform="translate(0,222.86844157488574)"/><g transform="translate(0.6,0)"><g transform="translate(0,122.46850840771172)"/><g transform="translate(0.6,0)"><g transform="translate(0,71.21753873973182)"/><g transform="translate(0.6,0)"><g transform="translate(0,134.45074052767296)"/><g transform="translate(0.6,0)"><g transform="translate(0,99.23249166856957)"/><g transform="translate(0.6,0)"><g transform="translate(0,152.42322906579327)"/><g transform="translate(0.6,0)"><g transform="translate(0,92.15061501684556)"/><g transform="translate(0.6,0)"><g transform="translate(0,77.7741685250562)"/><g transform="translate(0.6,0)"><g transform="translate(0,196.27278969716045)"/><g transform="translate(0.6,0)"><g transform="translate(0,183.03357450723277)"/><g transform="translate(0.6,0)"><g transform="translate(0,178.28304650225675)"/><g transform="translate(0.6,0)"><g transform="translate(0,94.40395399685444)"/><g transform="translate(0.6,0)"><g transform="translate(0,135.78203042213067)"/><g transform="translate(0.6,0)"><g transform="translate(0,226.47909858538378)"/><g transform="translate(0.6,0)"><g transform="translate(0,105.1464166447629)"/><g transform="translate(0.6,0)"><g transform="translate(0,168.4097950089718)"/><g transform="translate(0.6,0)"><g transform="translate(0,95.0025431441252)"/><g transform="translate(0.6,0)"><g transform="translate(0,168.12616245595285)"/><g transform="translate(0.6,0)"><g transform="translate(0,232.53039068251465)"/><g transform="translate(0.6,0)"><g transform="translate(0,219.43343535753922)"/><g transform="translate(0.6,0)"><g transform="translate(0,203.14851722911644)"/><g transform="translate(0.6,0)"><g transform="translate(0,90.90648338241658)"/><g transform="translate(0.6,0)"><g transform="translate(0,66.37095086223464)"/><g transform="translate(0.6,0)"><g transform="translate(0,193.18685951901497)"/><g transform="translate(0.6,0)"><g transform="translate(0,195.52164477076656)"/><g transform="translate(0.6,0)"><g transform="translate(0,194.11309543568444)"/><g transform="translate(0.6,0)"><g transform="translate(0,104.05025531116608)"/><g transform="translate(0.6,0)"><g transform="translate(0,225.6170608467632)"/><g transform="translate(0.6,0)"><g transform="translate(0,243.28880672907403)"/><g transform="translate(0.6,0)"><g transform="translate(0,73.04739520858413)"/><g transform="translate(0.6,0)"><g transform="translate(0,135.46159492372703)"/><g transform="translate(0.6,0)"><g transform="translate(0,200.77005647738244)"/><g transform="translate(0.6,0)"><g transform="translate(0,150.33459276414703)"/><g transform="translate(0.6,0)"><g transform="translate(0,119.26104693576593)"/><g transform="translate(0.6,0)"><g transform="translate(0,90.61851972160089)"/><g transform="translate(0.6,0)"><g transform="translate(0,67.6164763536083)"/><g transform="translate(0.6,0)"><g transform="translate(0,71.55045562294127)"/><g transform="translate(0.6,0)"><g transform="translate(0,145.22158375665913)"/><g transform="translate(0.6,0)"><g transform="translate(0,226.32890561739777)"/><g transform="translate(0.6,0)"><g transform="translate(0,193.69848989586941)"/><g transform="translate(0.6,0)"><g transform="translate(0,37.837385947061684)"/><g transform="translate(0.6,0)"><g transform="translate(0,62.601694320503164)"/><g transform="translate(0.6,0)"><g transform="translate(0,186.1496609606403)"/><g transform="translate(0.6,0)"><g transform="translate(0,95.99969295186722)"/><g transform="translate(0.6,0)"><g transform="translate(0,175.33825094145385)"/><g transform="translate(0.6,0)"><g transform="translate(0,119.92146091172033)"/><g transform="translate(0.6,0)"><g transform="translate(0,144.86701161561174)"/><g transform="translate(0.6,0)"><g transform="translate(0,206.22232101920213)"/><g transform="translate(0.6,0)"><g transform="translate(0,157.8902331651245)"/><g transform="translate(0.6,0)"><g transform="translate(0,108.50468967266576)"/><g transform="translate(0.6,0)"><g transform="translate(0,122.90995350032088)"/><g transform="translate(0.6,0)"><g transform="translate(0,18.959011254127116)"/><g transform="translate(0.6,0)"><g transform="translate(0,91.01304447261927)"/><g transform="translate(0.6,0)"><g transform="translate(0,73.60539481385953)"/><g transform="translate(0.6,0)"><g transform="translate(0,178.02167334225152)"/><g transform="translate(0.6,0)"><g transform="translate(0,154.1786575900093)"/><g transform="translate(0.6,0)"><g transform="translate(0,213.52533299009195)"/><g transform="translate(0.6,0)"><g transform="translate(0,174.45650127338283)"/><g transform="translate(0.6,0)"><g transform="translate(0,124.7868776418749)"/><g transform="translate(0.6,0)"><g transform="translate(0,230.65680177259844)"/><g transform="translate(0.6,0)"><g transform="translate(0,142.40420201430913)"/><g transform="translate(0.6,0)"><g transform="translate(0,78.62218688439924)"/><g transform="translate(0.6,0)"><g transform="translate(0,147.21696984385022)"/><g transform="translate(0.6,0)"><g transform="translate(0,82.33319222572754)"/><g transform="translate(0.6,0)"><g transform="translate(0,203.04072437656276)"/><g transform="translate(0.6,0)"><g transform="translate(0,191.0478355236405)"/><g transform="translate(0.6,0)"><g transform="translate(0,164.310164972363)"/><g transform="translate(0.6,0)"><g transform="translate(0,151.8662193927727)"/><g transform="translate(0.6,0)"><g transform="translate(0,174.10086405294751)"/><g transform="translate(0.6,0)"><g transform="translate(0,151.42192642366774)"/><g transform="translate(0.6,0)"><g transform="translate(0,99.67305430360858)"/><g transform="translate(0.6,0)"><g transform="translate(0,88.19024729566954)"/><g transform="translate(0.6,0)"><g transform="translate(0,181.6551077102059)"/><g transform="translate(0.6,0)"><g transform="translate(0,102.81569639309262)"/><g transform="translate(0.6,0)"><g transform="translate(0,118.81692138115442)"/><g transform="translate(0.6,0)"><g transform="translate(0,100.16940763229977)"/><g transform="translate(0.6,0)"><g transform="translate(0,155.81264246050333)"/><g transform="translate(0.6,0)"><g transform="translate(0,90.69583276632275)"/><g transform="translate(0.6,0)"><g transform="translate(0,178.49855110302613)"/><g transform="translate(0.6,0)"><g transform="translate(0,182.99362427030093)"/><g transform="translate(0.6,0)"><g transform="translate(0,174.62565062826334)"/><g transform="translate(0.6,0)"><g transform="translate(0,122.35995605781177)"/><g transform="translate(0.6,0)"><g transform="translate(0,85.29866531117261)"/><g transform="translate(0.6,0)"><g transform="translate(0,243.12529315527718)"/><g transform="translate(0.6,0)"><g transform="translate(0,194.5963395932335)"/><g transform="translate(0.6,0)"><g transform="translate(0,143.27775239319115)"/><g transform="translate(0.6,0)"><g transform="translate(0,102.49504782586646)"/><g transform="translate(0.6,0)"><g transform="translate(0,134.88649815264768)"/><g transform="translate(0.6,0)"><g transform="translate(0,220.11922619451647)"/><g transform="translate(0.6,0)"><g transform="translate(0,90.39309721236343)"/><g transform="translate(0.6,0)"><g transform="translate(0,85.30162065199929)"/><g transform="translate(0.6,0)"><g transform="translate(0,203.5591478011042)"/><g transform="translate(0.6,0)"><g transform="translate(0,153.8887009497246)"/><g transform="translate(0.6,0)"><g transform="translate(0,117.66784472955557)"/><g transform="translate(0.6,0)"><g transform="translate(0,102.46062713371018)"/><g transform="translate(0.6,0)"><g transform="translate(0,178.7088936996138)"/><g transform="translate(0.6,0)"><g transform="translate(0,47.35123550607852)"/><g transform="translate(0.6,0)"><g transform="translate(0,198.91541329593076)"/><g transform="translate(0.6,0)"><g transform="translate(0,122.84355290314787)"/><g transform="translate(0.6,0)"><g transform="translate(0,79.58670271249953)"/><g transform="translate(0.6,0)"><g transform="translate(0,220.14990512842627)"/><g transform="translate(0.6,0)"><g transform="translate(0,114.56848274619061)"/><g transform="translate(0.6,0)"><g transform="translate(0,198.39630294711583)"/><g transform="translate(0.6,0)"><g transform="translate(0,49.0412644746457)"/><g transform="translate(0.6,0)"><g transform="translate(0,174.98469975424484)"/><g transform="translate(0.6,0)"><g transform="translate(0,157.58935020972555)"/><g transform="translate(0.6,0)"><g transform="translate(0,198.3108497164333)"/><g transform="translate(0.6,0)"><g transform="translate(0,161.84396120575823)"/><g transform="translate(0.6,0)"><g transform="translate(0,98.72500215147292)"/><g transform="translate(0.6,0)"><g transform="translate(0,184.15087943991085)"/><g transform="translate(0.6,0)"><g transform="translate(0,135.00005394852366)"/><g transform="translate(0.6,0)"><g transform="translate(0,166.76184537151266)"/><g transform="translate(0.6,0)"><g transform="translate(0,78.49842474117395)"/><g transform="translate(0.6,0)"><g transform="translate(0,60.64596717928188)"/><g transform="translate(0.6,0)"><g transform="translate(0,183.6371257134779)"/><g transform="translate(0.6,0)"><g transform="translate(0,180.30659911537342)"/><g transform="translate(0.6,0)"><g transform="translate(0,171.92982363707486)"/><g transform="translate(0.6,0)"><g transform="translate(0,148.47085981107497)"/><g transform="translate(0.6,0)"><g transform="translate(0,41.077218218364834)"/><g transform="translate(0.6,0)"><g transform="translate(0,112.48894250600429)"/><g transform="translate(0.6,0)"><g transform="translate(0,175.8833499726626)"/><g transform="translate(0.6,0)"><g transform="translate(0,121.04688590722587)"/><g transform="translate(0.6,0)"><g transform="translate(0,121.92367681735688)"/><g transform="translate(0.6,0)"><g transform="translate(0,138.1265083588595)"/><g transform="translate(0.6,0)"><g transform="translate(0,89.9872947251999)"/><g transform="translate(0.6,0)"><g transform="translate(0,202.96919080395375)"/><g transform="translate(0.6,0)"><g transform="translate(0,201.58755734266694)"/><g transform="translate(0.6,0)"><g transform="translate(0,129.97638891498298)"/><g transform="translate(0.6,0)"><g transform="translate(0,160.35821402730787)"/><g transform="translate(0.6,0)"><g transform="translate(0,111.69988152440192)"/><g transform="translate(0.6,0)"><g transform="translate(0,191.61885246591442)"/><g transform="translate(0.6,0)"><g transform="translate(0,113.58015403434476)"/><g transform="translate(0.6,0)"><g transform="translate(0,55.15947228661954)"/><g transform="translate(0.6,0)"><g transform="translate(0,144.2928496434164)"/><g transform="translate(0.6,0)"><g transform="translate(0,180.55254339337762)"/><g transform="translate(0.6,0)"><g transform="translate(0,55.905532229587024)"/><g transform="translate(0.6,0)"><g transform="translate(0,153.91859767136975)"/><g transform="translate(0.6,0)"><g transform="translate(0,126.60594434647466)"/><g transform="translate(0.6,0)"><g transform="translate(0,167.04507908747075)"/><g transform="translate(0.6,0)"><g transform="translate(0,65.63744570789343)"/><g transform="translate(0.6,0)"><g transform="translate(0,176.29726759144228)"/><g transform="translate(0.6,0)"><g transform="translate(0,194.29026217979631)"/><g transform="translate(0.6,0)"><g transform="translate(0,160.6493674348875)"/><g transform="translate(0.6,0)"><g transform="translate(0,34.675611038096584)"/><g transform="translate(0.6,0)"><g transform="translate(0,100.73433896440194)"/><g transform="translate(0.6,0)"><g transform="translate(0,160.91123052955464)"/><g transform="translate(0.6,0)"><g transform="translate(0,133.60898789838302)"/><g transform="translate(0.6,0)"><g transform="translate(0,224.61576828589475)"/><g transform="translate(0.6,0)"><g transform="translate(0,137.64010553949353)"/><g transform="translate(0.6,0)"><g transform="translate(0,85.1310959701918)"/><g transform="translate(0.6,0)"><g transform="translate(0,146.28630735266293)"/><g transform="translate(0.6,0)"><g transform="translate(0,58.38462187116879)"/><g transform="translate(0.6,0)"><g transform="translate(0,232.3339698001524)"/><g transform="translate(0.6,0)"><g transform="translate(0,253.28651201644604)"/><g transform="translate(0.6,0)"><g transform="translate(0,105.2167624136264)"/><g transform="translate(0.6,0)"><g transform="translate(0,168.209407584426)"/><g transform="translate(0.6,0)"><g transform="translate(0,227.2285043784863)"/><g transform="translate(0.6,0)"><g transform="translate(0,122.66647170302534)"/><g transform="translate(0.6,0)"><g transform="translate(0,136.2883699415064)"/><g transform="translate(0.6,0)"><g transform="translate(0,79.89502015643978)"/><g transform="translate(0.6,0)"><g transform="translate(0,119.5560045967255)"/><g transform="translate(0.6,0)"><g transform="translate(0,122.676093714581)"/><g transform="translate(0.6,0)"><g transform="translate(0,140.07300059405293)"/><g transform="translate(0.6,0)"><g transform="translate(0,121.71492561449371)"/><g transform="translate(0.6,0)"><g transform="translate(0,118.19956465270226)"/><g transform="translate(0.6,0)"><g transform="translate(0,143.11225543615615)"/><g transform="translate(0.6,0)"><g transform="translate(0,136.62369550746513)"/><g transform="translate(0.6,0)"><g transform="translate(0,100.1186023252197)"/><g transform="translate(0.6,0)"><g transform="translate(0,88.62543910328397)"/><g transform="translate(0.6,0)"><g transform="translate(0,119.18966922406143)"/><g transform="translate(0.6,0)"><g transform="translate(0,114.72159170867613)"/><g transform="translate(0.6,0)"><g transform="translate(0,168.94616953131234)"/><g transform="translate(0.6,0)"><g transform="translate(0,154.67300436696937)"/><g transform="translate(0.6,0)"><g transform="translate(0,188.91540988626804)"/><g transform="translate(0.6,0)"><g transform="translate(0,75.39598782946157)"/><g transform="translate(0.6,0)"><g transform="translate(0,248.4014146593015)"/><g transform="translate(0.6,0)"><g transform="translate(0,102.84750951737622)"/><g transform="translate(0.6,0)"><g transform="translate(0,247.99559818002592)"/><g transform="translate(0.6,0)"><g transform="translate(0,89.79204318013672)"/><g transform="translate(0.6,0)"><g transform="translate(0,208.13110654586745)"/><g transform="translate(0.6,0)"><g transform="translate(0,111.05637093301537)"/><g transform="translate(0.6,0)"><g transform="translate(0,104.9037076002708)"/><g transform="translate(0.6,0)"><g transform="translate(0,113.3051913424135)"/><g transform="translate(0.6,0)"><g transform="translate(0,130.51633777720653)"/><g transform="translate(0.6,0)"><g transform="translate(0,148.82303847612843)"/><g transform="translate(0.6,0)"><g transform="translate(0,123.29416343469897)"/><g transform="translate(0.6,0)"><g transform="translate(0,108.05448582441139)"/><g transform="translate(0.6,0)"><g transform="translate(0,180.145937436927)"/><g transform="translate(0.6,0)"><g transform="translate(0,107.77560120386252)"/><g transform="translate(0.6,0)"><g transform="translate(0,125.97467313561334)"/><g transform="translate(0.6,0)"><g transform="translate(0,180.7353676559621)"/><g transform="translate(0.6,0)"><g transform="translate(0,81.72253656421147)"/><g transform="translate(0.6,0)"><g transform="translate(0,150.83107297923067)"/><g transform="translate(0.6,0)"><g transform="translate(0,77.1152245741691)"/><g transform="translate(0.6,0)"><g transform="translate(0,206.00190876237886)"/><g transform="translate(0.6,0)"><g transform="translate(0,188.72791877234278)"/><g transform="translate(0.6,0)"><g transform="translate(0,95.06031553496734)"/><g transform="translate(0.6,0)"><g transform="translate(0,209.98337514240484)"/><g transform="translate(0.6,0)"><g transform="translate(0,95.00613529331535)"/><g transform="translate(0.6,0)"><g transform="translate(0,110.21039862040944)"/><g transform="translate(0.6,0)"><g transform="translate(0,142.33105574010895)"/><g transform="translate(0.6,0)"><g transform="translate(0,107.940916055503)"/><g transform="translate(0.6,0)"><g transform="translate(0,95.26354219102876)"/><g transform="translate(0.6,0)"><g transform="translate(0,77.32897643286283)"/><g transform="translate(0.6,0)"><g transform="translate(0,203.68341035188647)"/><g transform="translate(0.6,0)"><g transform="translate(0,225.43483339362146)"/><g transform="translate(0.6,0)"><g transform="translate(0,77.11988834767382)"/><g transform="translate(0.6,0)"><g transform="translate(0,141.85508005883332)"/><g transform="translate(0.6,0)"><g transform="translate(0,78.10228332123702)"/><g transform="translate(0.6,0)"><g transform="translate(0,204.74874270897732)"/><g transform="translate(0.6,0)"><g transform="translate(0,66.72141573646365)"/><g transform="translate(0.6,0)"><g transform="translate(0,153.53065330625108)"/><g transform="translate(0.6,0)"><g transform="translate(0,53.77337680484178)"/><g transform="translate(0.6,0)"><g transform="translate(0,105.76902175912507)"/><g transform="translate(0.6,0)"><g transform="translate(0,209.19017368379025)"/><g transform="translate(0.6,0)"><g transform="translate(0,113.98471716014848)"/><g transform="translate(0.6,0)"><g transform="translate(0,180.67062358271235)"/><g transform="translate(0.6,0)"><g transform="translate(0,106.80770233588173)"/><g transform="translate(0.6,0)"><g transform="translate(0,90.87563442016105)"/><g transform="translate(0.6,0)"><g transform="translate(0,127.65105537921717)"/><g transform="translate(0.6,0)"><g transform="translate(0,85.2405461920463)"/><g transform="translate(0.6,0)"><g transform="translate(0,126.90212943992309)"/><g transform="translate(0.6,0)"><g transform="translate(0,140.10880565884213)"/><g transform="translate(0.6,0)"><g transform="translate(0,94.11075191350045)"/><g transform="translate(0.6,0)"><g transform="translate(0,193.52210557290127)"/><g transform="translate(0.6,0)"><g transform="translate(0,150.36977115911725)"/><g transform="translate(0.6,0)"><g transform="translate(0,195.29286760925345)"/><g transform="translate(0.6,0)"><g transform="translate(0,151.70394837463058)"/><g transform="translate(0.6,0)"><g transform="translate(0,184.5150551662189)"/><g transform="translate(0.6,0)"><g transform="translate(0,249.1762573911581)"/><g transform="translate(0.6,0)"><g transform="translate(0,228.7841383191027)"/><g transform="translate(0.6,0)"><g transform="translate(0,188.36485477368683)"/><g transform="translate(0.6,0)"><g transform="translate(0,164.5052145829761)"/><g transform="translate(0.6,0)"><g transform="translate(0,104.73106929565633)"/><g transform="translate(0.6,0)"><g transform="translate(0,130.82510207419517)"/><g transform="translate(0.6,0)"><g transform="translate(0,160.83313630086354)"/><g transform="translate(0.6,0)"><g transform="translate(0,150.301538692945)"/><g transform="translate(0.6,0)"><g transform="translate(0,135.16293468015212)"/><g transform="translate(0.6,0)"><g transform="translate(0,147.66008861965088)"/><g transform="translate(0.6,0)"><g transform="translate(0,214.89328422480497)"/><g transform="translate(0.6,0)"><g transform="translate(0,111.68925445016733)"/><g transform="translate(0.6,0)"><g transform="translate(0,148.73264709811696)"/><g transform="translate(0.6,0)"><g transform="translate(0,116.13935846843266)"/><g transform="translate(0.6,0)"><g transform="translate(0,71.68587596454942)"/><g transform="translate(0.6,0)"><g transform="translate(0,195.6751224732367)"/><g transform="translate(0.6,0)"><g transform="translate(0,96.58643984546103)"/><g transform="translate(0.6,0)"><g transform="translate(0,145.8976683433788)"/><g transform="translate(0.6,0)"><g transform="translate(0,145.50039894710895)"/><g transform="translate(0.6,0)"><g transform="translate(0,182.58363876593708)"/><g transform="translate(0.6,0)"><g transform="translate(0,159.7595500282885)"/><g transform="translate(0.6,0)"><g transform="translate(0,113.33774095305154)"/><g transform="translate(0.6,0)"><g transform="translate(0,214.41209826236118)"/><g transform="translate(0.6,0)"><g transform="translate(0,236.06228032789616)"/><g transform="translate(0.6,0)"><g transform="translate(0,102.38411067037971)"/><g transform="translate(0.6,0)"><g transform="translate(0,158.51995280765203)"/><g transform="translate(0.6,0)"><g transform="translate(0,85.43426250623114)"/><g transform="translate(0.6,0)"><g transform="translate(0,108.40699084976633)"/><g transform="translate(0.6,0)"><g transform="translate(0,226.71013608714074)"/><g transform="translate(0.6,0)"><g transform="translate(0,109.99373661335045)"/><g transform="translate(0.6,0)"><g transform="translate(0,128.95488432450514)"/><g transform="translate(0.6,0)"><g transform="translate(0,124.18615690881062)"/><g transform="translate(0.6,0)"><g transform="translate(0,111.8217805853878)"/><g transform="translate(0.6,0)"><g transform="translate(0,203.8685825241912)"/><g transform="translate(0.6,0)"><g transform="translate(0,147.23849976432035)"/><g transform="translate(0.6,0)"><g transform="translate(0,170.0135677424445)"/><g transform="translate(0.6,0)"><g transform="translate(0,64.46990852437742)"/><g transform="translate(0.6,0)"><g transform="translate(0,76.5055022494787)"/><g transform="translate(0.6,0)"><g transform="translate(0,224.1328472383971)"/><g transform="translate(0.6,0)"><g transform="translate(0,136.78431798754235)"/><g transform="translate(0.6,0)"><g transform="translate(0,118.63812945905342)"/><g transform="translate(0.6,0)"><g transform="translate(0,74.4765156523325)"/><g transform="translate(0.6,0)"><g transform="translate(0,209.22495031952585)"/><g transform="translate(0.6,0)"><g transform="translate(0,229.93935341352824)"/><g transform="translate(0.6,0)"><g transform="translate(0,203.1275095458087)"/><g transform="translate(0.6,0)"><g transform="translate(0,225.37011151439032)"/><g transform="translate(0.6,0)"><g transform="translate(0,106.46206425065728)"/><g transform="translate(0.6,0)"><g transform="translate(0,202.55316363616245)"/><g transform="translate(0.6,0)"><g transform="translate(0,61.3817285817881)"/><g transform="translate(0.6,0)"><g transform="translate(0,141.45270872156033)"/><g transform="translate(0.6,0)"><g transform="translate(0,74.41989012192028)"/><g transform="translate(0.6,0)"><g transform="translate(0,47.47848383072069)"/><g transform="translate(0.6,0)"><g transform="translate(0,79.69480529589528)"/><g transform="translate(0.6,0)"><g transform="translate(0,96.40754274441255)"/><g transform="translate(0.6,0)"><g transform="translate(0,83.43241002748155)"/><g transform="translate(0.6,0)"><g transform="translate(0,152.9613895752587)"/><g transform="translate(0.6,0)"><g transform="translate(0,168.98165723218546)"/><g transform="translate(0.6,0)"><g transform="translate(0,156.54761698936207)"/><g transform="translate(0.6,0)"><g transform="translate(0,142.1367669193514)"/><g transform="translate(0.6,0)"><g transform="translate(0,86.01722137518485)"/><g transform="translate(0.6,0)"><g transform="translate(0,175.60941459670485)"/><g transform="translate(0.6,0)"><g transform="translate(0,126.2892224934988)"/><g transform="translate(0.6,0)"><g transform="translate(0,199.17489052916406)"/><g transform="translate(0.6,0)"><g transform="translate(0,60.59463402950848)"/><g transform="translate(0.6,0)"><g transform="translate(0,63.60027444810679)"/><g transform="translate(0.6,0)"><g transform="translate(0,108.15558658244535)"/><g transform="translate(0.6,0)"><g transform="translate(0,202.1152397539386)"/><g transform="translate(0.6,0)"><g transform="translate(0,197.1966362046465)"/><g transform="translate(0.6,0)"><g transform="translate(0,98.60725216669084)"/><g transform="translate(0.6,0)"><g transform="translate(0,134.40763074110157)"/><g transform="translate(0.6,0)"><g transform="translate(0,154.21402636594456)"/><g transform="translate(0.6,0)"><g transform="translate(0,71.36279838182877)"/><g transform="translate(0.6,0)"><g transform="translate(0,205.40328805341886)"/><g transform="translate(0.6,0)"><g transform="translate(0,97.14502113302011)"/><g transform="translate(0.6,0)"><g transform="translate(0,176.3776530641023)"/><g transform="translate(0.6,0)"><g transform="translate(0,108.47985122933378)"/><g transform="translate(0.6,0)"><g transform="translate(0,80.20822118580546)"/><g transform="translate(0.6,0)"><g transform="translate(0,141.83857210239688)"/><g transform="translate(0.6,0)"><g transform="translate(0,76.28579638289533)"/><g transform="translate(0.6,0)"><g transform="translate(0,68.43507471698132)"/><g transform="translate(0.6,0)"><g transform="translate(0,189.78981024525024)"/><g transform="translate(0.6,0)"><g transform="translate(0,196.30610547056614)"/><g transform="translate(0.6,0)"><g transform="translate(0,233.52528055889528)"/><g transform="translate(0.6,0)"><g transform="translate(0,179.53532060474404)"/><g transform="translate(0.6,0)"><g transform="translate(0,90.60549083707829)"/><g transform="translate(0.6,0)"><g transform="translate(0,145.86949490292207)"/><g transform="translate(0.6,0)"><g transform="translate(0,214.5611385032442)"/><g transform="translate(0.6,0)"><g transform="translate(0,216.6517639958584)"/><g transform="translate(0.6,0)"><g transform="translate(0,62.14052374345116)"/><g transform="translate(0.6,0)"><g transform="translate(0,199.43809255960576)"/><g transform="translate(0.6,0)"><g transform="translate(0,33.12419503587596)"/><g transform="translate(0.6,0)"><g transform="translate(0,127.25426355634225)"/><g transform="translate(0.6,0)"><g transform="translate(0,61.65135883824731)"/><g transform="translate(0.6,0)"/></g></g></g></g></g></g></g></g></g></g></g></g></g></g></g></g></g></g></g></g></g></g></g></g></g></g></g></g></g></g></g></g></g></g></g></g></g></g></g></g></g></g></g></g></g></g></g></g></g></g></g></g></g></g></g></g></g></g></g></g></g></g></g></g></g></g></g></g></g></g></g></g></g></g></g></g></g></g></g></g></g></g></g></g></g></g></g></g></g></g></g></g></g></g></g></g></g></g></g></g></g></g></g></g></g></g></g></g></g></g></g></g></g></g></g></g></g></g></g></g></g></g></g></g></g></g></g></g></g></g></g></g></g></g></g></g></g></g></g></g></g></g></g></g></g></g></g></g></g></g></g></g></g></g></g></g></g></g></g></g></g></g></g></g></g></g></g></g></g></g></g></g></g></g></g></g></g></g></g></g></g></g></g></g></g></g></g></g></g></g></g></g></g></g></g></g></g></g></g></g></g></g></g></g></g></g></g></g></g></g></g></g></g></g></g></g></g></g></g></g></g></g></g></g></g></g></g></g></g></g></g></g></g></g></g></g></g></g></g></g></g></g></g></g></g></g></g></g></g></g></g></g></g></g></g></g></g></g></g></g></g></g></g></g></g></g></g></g></g></g></g></g></g></g></g></g></g></g></g></g></g></g></g></g></g></g></g></g></g></g></g></g></g></g></g></g></g></g></g></g></g></g></g></g></g></g></g></g></g></g></g></g></g></g></g></g></g></g></g></g></g></g></g></g></g></g></g></g></g></g></g></g></g></g></g></g></g></g></g></g></g></g></g></g></g></g></g></g></g></g></g></g></g></g></g></g></g></g></g></g></g></g></g></g></g></g></g></g></g></g></g></g></g></g></g></g></g></g></g></g></g></g></g></g></g></g></g></g></g></g></g></g></g></g></g></g></g></g></g></g></g></g></g></g></g></g></g></g></g></g></g></g></g></g></g></g></g></g></g></g></g></g></g></g></g></g></g></g></g></g></g></g></g></g></g></g></g></g></g></g></g></g></g></g></g></g></g></g></g></g></g></g></g></g></g></g></g></g></g></g></g></g></g></g></g></g></g></g></g></g></g></g></g></g></g></g></g></g></g></g></g></g></g></g></g></g></g></g></g></g></g></g></g></g></g></g></g></g></g></g></g></g></g></g></g></g></g></g></g></g></g></g></g></g></g></g></g></g></g></g></g></g></g></g></g></g></g></g></g></g></g></g></g></g></g></g></g></g></g></g></g></g></g></g></g></g></g></g></g></g></g></g></g></g></g></g></g></g></g></g></g></g></g></g></g></g></g></g></g></g></g></g></g></g></g></g></g></g></g></g></g></g></g></g></g></g></g></g></g></g></g></g></g></g></g></g></g></g></g></g></g></g></g></g></g></g></g></g></g></g></g></g></g></g></g></g></g></g></g></g></g></g></g></g></g></g></g></g></g></g></g></g></g></g></g></g></g></g></g></g></g></g></g></g></g></g></g></g></g></g></g></g></g></g></g></g></g></g></g></g></g></g></g></g></g></g></g></g></g></g></g></g></g></g></g></g></g></g></g></g></g></g></g></g></g></g></g></g></g></g></g></g></g></g></g></g></g></g></g></g></g></g></g></g></g></g></g></g></g></g></g></g></g></g></g></g></g></g></g></g></g></g></g></g></g></g></g></g></g></g></g></g></g></g></g></g></g></g></g></g></g></g></g></g></g></g></g></g></g></g></g></g></g></g></g></g></g></g></g></g></g></g></g></g></g></g></g></g></g></g></g></g></g></g></g></g></g></g></g></g></g></g></g></g></g></g></g></g></g></g></g></g></g></g></g></g></g></g></g></g></g></g></g></g></g></g></g></g></g></g></g></g></g></g></g></g></g></g></g></g></g></g></g></g></g></g></g></g></g></g></g></g></g></g></g></g></g></g></g></g></g></g></g></g></g></g></g></g></g></g></g></g></g></g></g></g></g></g></g></g></g></g></g></g></g></g></g></g></g></g></g></g></g></g></g></g></g></g></g></g></g></g></g></g></g></g></g></g></g></g></g></g></g></g></g></g></g></g></g></g></g></g></g></g></g></g></g></g></g></g></g></g></g></g></g></g></g></g></g></g></g></g></g></g></g></g></g></g></g></g></g></g></g></g></g></g></g></g></g></g></g></g></g></g></g></g></g></g></g></g></g></g></g></g></g></g></g></g></g></g></g></g></g></g></g></g></g></g></g></g></g></g></g></g></g></g></g></g></g></g></g></g></g></g></g></g></g></g></g></g></g></g></g></g></g></g></g></g></g></g></g></svg>