<svg version="1.1" xmlns="http://www.w3.org/2000/svg" xmlns:xlink="http://www.w3.org/1999/xlink" width="600" height="600" viewBox="0 0 600 600"><defs/><g transform="scale(1,1)"><g transform="scale(1,1)"><rect fill="rgb(0,0,0)" stroke="none" x="0" y="0" width="600" height="600" fill-opacity="1"/></g><g><g transform="translate(0,300) rotate(Infinity,0,0)"><path fill="rgb(255,0,0)" stroke="none" paint-order="stroke fill markers" d=" M 0 0 L 144.6028077698244 0 L 144.6028077698244 144.6028077698244 L 0 144.6028077698244 L 0 0 Z" fill-opacity="0.5882352941176471"/></g><g transform="translate(6,0)"><g transform="translate(0,305.629392447701) rotate(18000,0,0)"><path fill="rgb(255,127,0)" stroke="none" paint-order="stroke fill markers" d=" M 0 0 L 146.47927191905808 0 L 146.47927191905808 146.47927191905808 L 0 146.47927191905808 L 0 0 Z" fill-opacity="0.5882352941176471"/></g><g transform="translate(6,0)"><g transform="translate(0,317.8961783285479) rotate(9000,0,0)"><path fill="rgb(255,255,0)" stroke="none" paint-order="stroke fill markers" d=" M 0 0 L 150.56820054600703 0 L 150.56820054600703 150.56820054600703 L 0 150.56820054600703 L 0 0 Z" fill-opacity="0.5882352941176471"/></g><g transform="translate(6,0)"><g transform="translate(0,326.51059927776333) rotate(6000.000000000001,0,0)"><path fill="rgb(0,255,0)" stroke="none" paint-order="stroke fill markers" d=" M 0 0 L 153.43967419574554 0 L 153.43967419574554 153.43967419574554 L 0 153.43967419574554 L 0 0 Z" fill-opacity="0.5882352941176471"/></g><g transform="translate(6,0)"><g transform="translate(0,321.0428252347274) rotate(4500,0,0)"><path fill="rgb(0,0,255)" stroke="none" paint-order="stroke fill markers" d=" M 0 0 L 151.61708284806687 0 L 151.61708284806687 151.61708284806687 L 0 151.61708284806687 L 0 0 Z" fill-opacity="0.5882352941176471"/></g><g transform="translate(6,0)"><g transform="translate(0,320.63118029316223) rotate(3600,0,0)"><path fill="rgb(75,0,130)" stroke="none" paint-order="stroke fill markers" d=" M 0 0 L 151.47986786754515 0 L 151.47986786754515 151.47986786754515 L 0 151.47986786754515 L 0 0 Z" fill-opacity="0.5882352941176471"/></g><g transform="translate(6,0)"><g transform="translate(0,323.63045555284896) rotate(3000.0000000000005,0,0)"><path fill="rgb(148,0,211)" stroke="none" paint-order="stroke fill markers" d=" M 0 0 L 152.47962628744074 0 L 152.47962628744074 152.47962628744074 L 0 152.47962628744074 L 0 0 Z" fill-opacity="0.5882352941176471"/></g><g transform="translate(6,0)"><g transform="translate(0,317.1215149606373) rotate(2571.4285714285716,0,0)"><path fill="rgb(255,0,0)" stroke="none" paint-order="stroke fill markers" d=" M 0 0 L 150.30997942337018 0 L 150.30997942337018 150.30997942337018 L 0 150.30997942337018 L 0 0 Z" fill-opacity="0.5882352941176471"/></g><g transform="translate(6,0)"><g transform="translate(0,309.1600658986344) rotate(2250,0,0)"><path fill="rgb(255,127,0)" stroke="none" paint-order="stroke fill markers" d=" M 0 0 L 147.65616306936923 0 L 147.65616306936923 147.65616306936923 L 0 147.65616306936923 L 0 0 Z" fill-opacity="0.5882352941176471"/></g><g transform="translate(6,0)"><g transform="translate(0,315.1803057712541) rotate(2000.0000000000002,0,0)"><path fill="rgb(255,255,0)" stroke="none" paint-order="stroke fill markers" d=" M 0 0 L 149.66290969357578 0 L 149.66290969357578 149.66290969357578 L 0 149.66290969357578 L 0 0 Z" fill-opacity="0.5882352941176471"/></g><g transform="translate(6,0)"><g transform="translate(0,323.8714558786335) rotate(1800,0,0)"><path fill="rgb(0,255,0)" stroke="none" paint-order="stroke fill markers" d=" M 0 0 L 152.55995972936893 0 L 152.55995972936893 152.55995972936893 L 0 152.55995972936893 L 0 0 Z" fill-opacity="0.5882352941176471"/></g><g transform="translate(6,0)"><g transform="translate(0,324.314395846958) rotate(1636.3636363636365,0,0)"><path fill="rgb(0,0,255)" stroke="none" paint-order="stroke fill markers" d=" M 0 0 L 152.70760638547708 0 L 152.70760638547708 152.70760638547708 L 0 152.70760638547708 L 0 0 Z" fill-opacity="0.5882352941176471"/></g><g transform="translate(6,0)"><g transform="translate(0,317.7840403691888) rotate(1500.0000000000002,0,0)"><path fill="rgb(75,0,130)" stroke="none" paint-order="stroke fill markers" d=" M 0 0 L 150.5308212262207 0 L 150.5308212262207 150.5308212262207 L 0 150.5308212262207 L 0 0 Z" fill-opacity="0.5882352941176471"/></g><g transform="translate(6,0)"><g transform="translate(0,307.4431411457577) rotate(1384.6153846153845,0,0)"><path fill="rgb(148,0,211)" stroke="none" paint-order="stroke fill markers" d=" M 0 0 L 147.08385481841032 0 L 147.08385481841032 147.08385481841032 L 0 147.08385481841032 L 0 0 Z" fill-opacity="0.5882352941176471"/></g><g transform="translate(6,0)"><g transform="translate(0,289.6355587969466) rotate(1285.7142857142858,0,0)"><path fill="rgb(255,0,0)" stroke="none" paint-order="stroke fill markers" d=" M 0 0 L 141.1479940354733 0 L 141.1479940354733 141.1479940354733 L 0 141.1479940354733 L 0 0 Z" fill-opacity="0.5882352941176471"/></g><g transform="translate(6,0)"><g transform="translate(0,271.66761913063607) rotate(1200.0000000000002,0,0)"><path fill="rgb(255,127,0)" stroke="none" paint-order="stroke fill markers" d=" M 0 0 L 135.15868081336978 0 L 135.15868081336978 135.15868081336978 L 0 135.15868081336978 L 0 0 Z" fill-opacity="0.5882352941176471"/></g><g transform="translate(6,0)"><g transform="translate(0,258.72084684510816) rotate(1125,0,0)"><path fill="rgb(255,255,0)" stroke="none" paint-order="stroke fill markers" d=" M 0 0 L 130.84309005152713 0 L 130.84309005152713 130.84309005152713 L 0 130.84309005152713 L 0 0 Z" fill-opacity="0.5882352941176471"/></g><g transform="translate(6,0)"><g transform="translate(0,253.0976102045467) rotate(1058.8235294117646,0,0)"><path fill="rgb(0,255,0)" stroke="none" paint-order="stroke fill markers" d=" M 0 0 L 128.96867783800664 0 L 128.96867783800664 128.96867783800664 L 0 128.96867783800664 L 0 0 Z" fill-opacity="0.5882352941176471"/></g><g transform="translate(6,0)"><g transform="translate(0,256.8205624615772) rotate(1000.0000000000001,0,0)"><path fill="rgb(0,0,255)" stroke="none" paint-order="stroke fill markers" d=" M 0 0 L 130.20966192368348 0 L 130.20966192368348 130.20966192368348 L 0 130.20966192368348 L 0 0 Z" fill-opacity="0.5882352941176471"/></g><g transform="translate(6,0)"><g transform="translate(0,264.96155737452307) rotate(947.3684210526317,0,0)"><path fill="rgb(75,0,130)" stroke="none" paint-order="stroke fill markers" d=" M 0 0 L 132.92332689466545 0 L 132.92332689466545 132.92332689466545 L 0 132.92332689466545 L 0 0 Z" fill-opacity="0.5882352941176471"/></g><g transform="translate(6,0)"><g transform="translate(0,269.09477925911284) rotate(900,0,0)"><path fill="rgb(148,0,211)" stroke="none" paint-order="stroke fill markers" d=" M 0 0 L 134.30106752286204 0 L 134.30106752286204 134.30106752286204 L 0 134.30106752286204 L 0 0 Z" fill-opacity="0.5882352941176471"/></g><g transform="translate(6,0)"><g transform="translate(0,265.1640052853051) rotate(857.1428571428572,0,0)"><path fill="rgb(255,0,0)" stroke="none" paint-order="stroke fill markers" d=" M 0 0 L 132.9908095315928 0 L 132.9908095315928 132.9908095315928 L 0 132.9908095315928 L 0 0 Z" fill-opacity="0.5882352941176471"/></g><g transform="translate(6,0)"><g transform="translate(0,255.80103530039293) rotate(818.1818181818182,0,0)"><path fill="rgb(255,127,0)" stroke="none" paint-order="stroke fill markers" d=" M 0 0 L 129.86981953662206 0 L 129.86981953662206 129.86981953662206 L 0 129.86981953662206 L 0 0 Z" fill-opacity="0.5882352941176471"/></g><g transform="translate(6,0)"><g transform="translate(0,244.71411528783005) rotate(782.608695652174,0,0)"><path fill="rgb(255,255,0)" stroke="none" paint-order="stroke fill markers" d=" M 0 0 L 126.17417953243444 0 L 126.17417953243444 126.17417953243444 L 0 126.17417953243444 L 0 0 Z" fill-opacity="0.5882352941176471"/></g><g transform="translate(6,0)"><g transform="translate(0,230.81901195182127) rotate(750.0000000000001,0,0)"><path fill="rgb(0,255,0)" stroke="none" paint-order="stroke fill markers" d=" M 0 0 L 121.54247842043151 0 L 121.54247842043151 121.54247842043151 L 0 121.54247842043151 L 0 0 Z" fill-opacity="0.5882352941176471"/></g><g transform="translate(6,0)"><g transform="translate(0,216.39360709508458) rotate(720,0,0)"><path fill="rgb(0,0,255)" stroke="none" paint-order="stroke fill markers" d=" M 0 0 L 116.73401013485261 0 L 116.73401013485261 116.73401013485261 L 0 116.73401013485261 L 0 0 Z" fill-opacity="0.5882352941176471"/></g><g transform="translate(6,0)"><g transform="translate(0,200.54944701692375) rotate(692.3076923076923,0,0)"><path fill="rgb(75,0,130)" stroke="none" paint-order="stroke fill markers" d=" M 0 0 L 111.45262344213234 0 L 111.45262344213234 111.45262344213234 L 0 111.45262344213234 L 0 0 Z" fill-opacity="0.5882352941176471"/></g><g transform="translate(6,0)"><g transform="translate(0,180.6839561929557) rotate(666.6666666666666,0,0)"><path fill="rgb(148,0,211)" stroke="none" paint-order="stroke fill markers" d=" M 0 0 L 104.83079316747632 0 L 104.83079316747632 104.83079316747632 L 0 104.83079316747632 L 0 0 Z" fill-opacity="0.5882352941176471"/></g><g transform="translate(6,0)"><g transform="translate(0,159.78474848757355) rotate(642.8571428571429,0,0)"><path fill="rgb(255,0,0)" stroke="none" paint-order="stroke fill markers" d=" M 0 0 L 97.86439059901561 0 L 97.86439059901561 97.86439059901561 L 0 97.86439059901561 L 0 0 Z" fill-opacity="0.5882352941176471"/></g><g transform="translate(6,0)"><g transform="translate(0,149.98026653007844) rotate(620.6896551724138,0,0)"><path fill="rgb(255,127,0)" stroke="none" paint-order="stroke fill markers" d=" M 0 0 L 94.59622994651723 0 L 94.59622994651723 94.59622994651723 L 0 94.59622994651723 L 0 0 Z" fill-opacity="0.5882352941176471"/></g><g transform="translate(6,0)"><g transform="translate(0,137.53328951510758) rotate(600.0000000000001,0,0)"><path fill="rgb(255,255,0)" stroke="none" paint-order="stroke fill markers" d=" M 0 0 L 90.44723760819362 0 L 90.44723760819362 90.44723760819362 L 0 90.44723760819362 L 0 0 Z" fill-opacity="0.5882352941176471"/></g><g transform="translate(6,0)"><g transform="translate(0,108.70766712388846) rotate(580.6451612903226,0,0)"><path fill="rgb(0,255,0)" stroke="none" paint-order="stroke fill markers" d=" M 0 0 L 80.83869681112057 0 L 80.83869681112057 80.83869681112057 L 0 80.83869681112057 L 0 0 Z" fill-opacity="0.5882352941176471"/></g><g transform="translate(6,0)"><g transform="translate(0,76.0044132030593) rotate(562.5,0,0)"><path fill="rgb(0,0,255)" stroke="none" paint-order="stroke fill markers" d=" M 0 0 L 69.93761217084419 0 L 69.93761217084419 69.93761217084419 L 0 69.93761217084419 L 0 0 Z" fill-opacity="0.5882352941176471"/></g><g transform="translate(6,0)"><g transform="translate(0,63.813268976016616) rotate(545.4545454545455,0,0)"><path fill="rgb(75,0,130)" stroke="none" paint-order="stroke fill markers" d=" M 0 0 L 65.87389742849662 0 L 65.87389742849662 65.87389742849662 L 0 65.87389742849662 L 0 0 Z" fill-opacity="0.5882352941176471"/></g><g transform="translate(6,0)"><g transform="translate(0,67.79392675989035) rotate(529.4117647058823,0,0)"><path fill="rgb(148,0,211)" stroke="none" paint-order="stroke fill markers" d=" M 0 0 L 67.20078335645454 0 L 67.20078335645454 67.20078335645454 L 0 67.20078335645454 L 0 0 Z" fill-opacity="0.5882352941176471"/></g><g transform="translate(6,0)"><g transform="translate(0,73.35691624509613) rotate(514.2857142857142,0,0)"><path fill="rgb(255,0,0)" stroke="none" paint-order="stroke fill markers" d=" M 0 0 L 69.05511318485647 0 L 69.05511318485647 69.05511318485647 L 0 69.05511318485647 L 0 0 Z" fill-opacity="0.5882352941176471"/></g><g transform="translate(6,0)"><g transform="translate(0,78.27599850805791) rotate(500.00000000000006,0,0)"><path fill="rgb(255,127,0)" stroke="none" paint-order="stroke fill markers" d=" M 0 0 L 70.69480727251039 0 L 70.69480727251039 70.69480727251039 L 0 70.69480727251039 L 0 0 Z" fill-opacity="0.5882352941176471"/></g><g transform="translate(6,0)"><g transform="translate(0,86.46110328681746) rotate(486.48648648648646,0,0)"><path fill="rgb(255,255,0)" stroke="none" paint-order="stroke fill markers" d=" M 0 0 L 73.4231755320969 0 L 73.4231755320969 73.4231755320969 L 0 73.4231755320969 L 0 0 Z" fill-opacity="0.5882352941176471"/></g><g transform="translate(6,0)"><g transform="translate(0,94.14821839371137) rotate(473.68421052631584,0,0)"><path fill="rgb(0,255,0)" stroke="none" paint-order="stroke fill markers" d=" M 0 0 L 75.98554723439487 0 L 75.98554723439487 75.98554723439487 L 0 75.98554723439487 L 0 0 Z" fill-opacity="0.5882352941176471"/></g><g transform="translate(6,0)"><g transform="translate(0,101.03695965298797) rotate(461.5384615384616,0,0)"><path fill="rgb(0,0,255)" stroke="none" paint-order="stroke fill markers" d=" M 0 0 L 78.28179432082041 0 L 78.28179432082041 78.28179432082041 L 0 78.28179432082041 L 0 0 Z" fill-opacity="0.5882352941176471"/></g><g transform="translate(6,0)"><g transform="translate(0,103.9526184043242) rotate(450,0,0)"><path fill="rgb(75,0,130)" stroke="none" paint-order="stroke fill markers" d=" M 0 0 L 79.25368057126582 0 L 79.25368057126582 79.25368057126582 L 0 79.25368057126582 L 0 0 Z" fill-opacity="0.5882352941176471"/></g><g transform="translate(6,0)"><g transform="translate(0,96.38949326229641) rotate(439.0243902439025,0,0)"><path fill="rgb(148,0,211)" stroke="none" paint-order="stroke fill markers" d=" M 0 0 L 76.73263885725656 0 L 76.73263885725656 76.73263885725656 L 0 76.73263885725656 L 0 0 Z" fill-opacity="0.5882352941176471"/></g><g transform="translate(6,0)"><g transform="translate(0,82.69771840641815) rotate(428.5714285714286,0,0)"><path fill="rgb(255,0,0)" stroke="none" paint-order="stroke fill markers" d=" M 0 0 L 72.16871390529714 0 L 72.16871390529714 72.16871390529714 L 0 72.16871390529714 L 0 0 Z" fill-opacity="0.5882352941176471"/></g><g transform="translate(6,0)"><g transform="translate(0,76.16089915987212) rotate(418.60465116279073,0,0)"><path fill="rgb(255,127,0)" stroke="none" paint-order="stroke fill markers" d=" M 0 0 L 69.98977415644846 0 L 69.98977415644846 69.98977415644846 L 0 69.98977415644846 L 0 0 Z" fill-opacity="0.5882352941176471"/></g><g transform="translate(6,0)"><g transform="translate(0,71.65315032150366) rotate(409.0909090909091,0,0)"><path fill="rgb(255,255,0)" stroke="none" paint-order="stroke fill markers" d=" M 0 0 L 68.48719121032563 0 L 68.48719121032563 68.48719121032563 L 0 68.48719121032563 L 0 0 Z" fill-opacity="0.5882352941176471"/></g><g transform="translate(6,0)"><g transform="translate(0,67.94430677886174) rotate(400,0,0)"><path fill="rgb(0,255,0)" stroke="none" paint-order="stroke fill markers" d=" M 0 0 L 67.250910029445 0 L 67.250910029445 67.250910029445 L 0 67.250910029445 L 0 0 Z" fill-opacity="0.5882352941176471"/></g><g transform="translate(6,0)"><g transform="translate(0,73.69607685902582) rotate(391.304347826087,0,0)"><path fill="rgb(0,0,255)" stroke="none" paint-order="stroke fill markers" d=" M 0 0 L 69.16816672283302 0 L 69.16816672283302 69.16816672283302 L 0 69.16816672283302 L 0 0 Z" fill-opacity="0.5882352941176471"/></g><g transform="translate(6,0)"><g transform="translate(0,84.81808558511943) rotate(382.97872340425533,0,0)"><path fill="rgb(75,0,130)" stroke="none" paint-order="stroke fill markers" d=" M 0 0 L 72.87550296486422 0 L 72.87550296486422 72.87550296486422 L 0 72.87550296486422 L 0 0 Z" fill-opacity="0.5882352941176471"/></g><g transform="translate(6,0)"><g transform="translate(0,81.86515444657394) rotate(375.00000000000006,0,0)"><path fill="rgb(148,0,211)" stroke="none" paint-order="stroke fill markers" d=" M 0 0 L 71.89119258534906 0 L 71.89119258534906 71.89119258534906 L 0 71.89119258534906 L 0 0 Z" fill-opacity="0.5882352941176471"/></g><g transform="translate(6,0)"><g transform="translate(0,69.12378772446093) rotate(367.34693877551024,0,0)"><path fill="rgb(255,0,0)" stroke="none" paint-order="stroke fill markers" d=" M 0 0 L 67.64407034464473 0 L 67.64407034464473 67.64407034464473 L 0 67.64407034464473 L 0 0 Z" fill-opacity="0.5882352941176471"/></g><g transform="translate(6,0)"><g transform="translate(0,61.69229752622064) rotate(360,0,0)"><path fill="rgb(255,127,0)" stroke="none" paint-order="stroke fill markers" d=" M 0 0 L 65.1669069452313 0 L 65.1669069452313 65.1669069452313 L 0 65.1669069452313 L 0 0 Z" fill-opacity="0.5882352941176471"/></g><g transform="translate(6,0)"><g transform="translate(0,65.91252328133541) rotate(352.94117647058823,0,0)"><path fill="rgb(255,255,0)" stroke="none" paint-order="stroke fill markers" d=" M 0 0 L 66.57364886360288 0 L 66.57364886360288 66.57364886360288 L 0 66.57364886360288 L 0 0 Z" fill-opacity="0.5882352941176471"/></g><g transform="translate(6,0)"><g transform="translate(0,72.31558984628313) rotate(346.15384615384613,0,0)"><path fill="rgb(0,255,0)" stroke="none" paint-order="stroke fill markers" d=" M 0 0 L 68.70800438525212 0 L 68.70800438525212 68.70800438525212 L 0 68.70800438525212 L 0 0 Z" fill-opacity="0.5882352941176471"/></g><g transform="translate(6,0)"><g transform="translate(0,68.3797502013451) rotate(339.62264150943395,0,0)"><path fill="rgb(0,0,255)" stroke="none" paint-order="stroke fill markers" d=" M 0 0 L 67.39605783693945 0 L 67.39605783693945 67.39605783693945 L 0 67.39605783693945 L 0 0 Z" fill-opacity="0.5882352941176471"/></g><g transform="translate(6,0)"><g transform="translate(0,50.716369173508895) rotate(333.3333333333333,0,0)"><path fill="rgb(75,0,130)" stroke="none" paint-order="stroke fill markers" d=" M 0 0 L 61.50826416099405 0 L 61.50826416099405 61.50826416099405 L 0 61.50826416099405 L 0 0 Z" fill-opacity="0.5882352941176471"/></g><g transform="translate(6,0)"><g transform="translate(0,36.988478881587014) rotate(327.2727272727273,0,0)"><path fill="rgb(148,0,211)" stroke="none" paint-order="stroke fill markers" d=" M 0 0 L 56.932300730353425 0 L 56.932300730353425 56.932300730353425 L 0 56.932300730353425 L 0 0 Z" fill-opacity="0.5882352941176471"/></g><g transform="translate(6,0)"><g transform="translate(0,36.6979960808936) rotate(321.42857142857144,0,0)"><path fill="rgb(255,0,0)" stroke="none" paint-order="stroke fill markers" d=" M 0 0 L 56.83547313012229 0 L 56.83547313012229 56.83547313012229 L 0 56.83547313012229 L 0 0 Z" fill-opacity="0.5882352941176471"/></g><g transform="translate(6,0)"><g transform="translate(0,44.98999977246868) rotate(315.7894736842105,0,0)"><path fill="rgb(255,127,0)" stroke="none" paint-order="stroke fill markers" d=" M 0 0 L 59.599474360647314 0 L 59.599474360647314 59.599474360647314 L 0 59.599474360647314 L 0 0 Z" fill-opacity="0.5882352941176471"/></g><g transform="translate(6,0)"><g transform="translate(0,55.52560572929943) rotate(310.3448275862069,0,0)"><path fill="rgb(255,255,0)" stroke="none" paint-order="stroke fill markers" d=" M 0 0 L 63.11134301292423 0 L 63.11134301292423 63.11134301292423 L 0 63.11134301292423 L 0 0 Z" fill-opacity="0.5882352941176471"/></g><g transform="translate(6,0)"><g transform="translate(0,62.919166519335846) rotate(305.0847457627119,0,0)"><path fill="rgb(0,255,0)" stroke="none" paint-order="stroke fill markers" d=" M 0 0 L 65.5758632762697 0 L 65.5758632762697 65.5758632762697 L 0 65.5758632762697 L 0 0 Z" fill-opacity="0.5882352941176471"/></g><g transform="translate(6,0)"><g transform="translate(0,65.40429071288) rotate(300.00000000000006,0,0)"><path fill="rgb(0,0,255)" stroke="none" paint-order="stroke fill markers" d=" M 0 0 L 66.40423800745108 0 L 66.40423800745108 66.40423800745108 L 0 66.40423800745108 L 0 0 Z" fill-opacity="0.5882352941176471"/></g><g transform="translate(6,0)"><g transform="translate(0,67.92928863276236) rotate(295.08196721311475,0,0)"><path fill="rgb(75,0,130)" stroke="none" paint-order="stroke fill markers" d=" M 0 0 L 67.24590398074521 0 L 67.24590398074521 67.24590398074521 L 0 67.24590398074521 L 0 0 Z" fill-opacity="0.5882352941176471"/></g><g transform="translate(6,0)"><g transform="translate(0,66.70012568834832) rotate(290.3225806451613,0,0)"><path fill="rgb(148,0,211)" stroke="none" paint-order="stroke fill markers" d=" M 0 0 L 66.83618299927386 0 L 66.83618299927386 66.83618299927386 L 0 66.83618299927386 L 0 0 Z" fill-opacity="0.5882352941176471"/></g><g transform="translate(6,0)"><g transform="translate(0,51.247026125270594) rotate(285.7142857142857,0,0)"><path fill="rgb(255,0,0)" stroke="none" paint-order="stroke fill markers" d=" M 0 0 L 61.68514981158128 0 L 61.68514981158128 61.68514981158128 L 0 61.68514981158128 L 0 0 Z" fill-opacity="0.5882352941176471"/></g><g transform="translate(6,0)"><g transform="translate(0,34.66283137898651) rotate(281.25,0,0)"><path fill="rgb(255,127,0)" stroke="none" paint-order="stroke fill markers" d=" M 0 0 L 56.15708489615326 0 L 56.15708489615326 56.15708489615326 L 0 56.15708489615326 L 0 0 Z" fill-opacity="0.5882352941176471"/></g><g transform="translate(6,0)"><g transform="translate(0,31.374563210430523) rotate(276.92307692307696,0,0)"><path fill="rgb(255,255,0)" stroke="none" paint-order="stroke fill markers" d=" M 0 0 L 55.06099550663459 0 L 55.06099550663459 55.06099550663459 L 0 55.06099550663459 L 0 0 Z" fill-opacity="0.5882352941176471"/></g><g transform="translate(6,0)"><g transform="translate(0,45.43214383361371) rotate(272.72727272727275,0,0)"><path fill="rgb(0,255,0)" stroke="none" paint-order="stroke fill markers" d=" M 0 0 L 59.74685571436232 0 L 59.74685571436232 59.74685571436232 L 0 59.74685571436232 L 0 0 Z" fill-opacity="0.5882352941176471"/></g><g transform="translate(6,0)"><g transform="translate(0,68.69896759822319) rotate(268.65671641791045,0,0)"><path fill="rgb(0,0,255)" stroke="none" paint-order="stroke fill markers" d=" M 0 0 L 67.50246363589882 0 L 67.50246363589882 67.50246363589882 L 0 67.50246363589882 L 0 0 Z" fill-opacity="0.5882352941176471"/></g><g transform="translate(6,0)"><g transform="translate(0,90.69103519134796) rotate(264.70588235294116,0,0)"><path fill="rgb(75,0,130)" stroke="none" paint-order="stroke fill markers" d=" M 0 0 L 74.83315283360707 0 L 74.83315283360707 74.83315283360707 L 0 74.83315283360707 L 0 0 Z" fill-opacity="0.5882352941176471"/></g><g transform="translate(6,0)"><g transform="translate(0,106.73562593623672) rotate(260.8695652173913,0,0)"><path fill="rgb(148,0,211)" stroke="none" paint-order="stroke fill markers" d=" M 0 0 L 80.18134974856999 0 L 80.18134974856999 80.18134974856999 L 0 80.18134974856999 L 0 0 Z" fill-opacity="0.5882352941176471"/></g><g transform="translate(6,0)"><g transform="translate(0,121.21941461105868) rotate(257.1428571428571,0,0)"><path fill="rgb(255,0,0)" stroke="none" paint-order="stroke fill markers" d=" M 0 0 L 85.00927930684398 0 L 85.00927930684398 85.00927930684398 L 0 85.00927930684398 L 0 0 Z" fill-opacity="0.5882352941176471"/></g><g transform="translate(6,0)"><g transform="translate(0,139.6874950735367) rotate(253.52112676056336,0,0)"><path fill="rgb(255,127,0)" stroke="none" paint-order="stroke fill markers" d=" M 0 0 L 91.16530612766998 0 L 91.16530612766998 91.16530612766998 L 0 91.16530612766998 L 0 0 Z" fill-opacity="0.5882352941176471"/></g><g transform="translate(6,0)"><g transform="translate(0,160.91260638743057) rotate(250.00000000000003,0,0)"><path fill="rgb(255,255,0)" stroke="none" paint-order="stroke fill markers" d=" M 0 0 L 98.24034323230127 0 L 98.24034323230127 98.24034323230127 L 0 98.24034323230127 L 0 0 Z" fill-opacity="0.5882352941176471"/></g><g transform="translate(6,0)"><g transform="translate(0,179.98649872074708) rotate(246.57534246575344,0,0)"><path fill="rgb(0,255,0)" stroke="none" paint-order="stroke fill markers" d=" M 0 0 L 104.59830734340677 0 L 104.59830734340677 104.59830734340677 L 0 104.59830734340677 L 0 0 Z" fill-opacity="0.5882352941176471"/></g><g transform="translate(6,0)"><g transform="translate(0,198.02660291750692) rotate(243.24324324324323,0,0)"><path fill="rgb(0,0,255)" stroke="none" paint-order="stroke fill markers" d=" M 0 0 L 110.61167540899339 0 L 110.61167540899339 110.61167540899339 L 0 110.61167540899339 L 0 0 Z" fill-opacity="0.5882352941176471"/></g><g transform="translate(6,0)"><g transform="translate(0,214.0349529474741) rotate(240.00000000000003,0,0)"><path fill="rgb(75,0,130)" stroke="none" paint-order="stroke fill markers" d=" M 0 0 L 115.94779208564911 0 L 115.94779208564911 115.94779208564911 L 0 115.94779208564911 L 0 0 Z" fill-opacity="0.5882352941176471"/></g><g transform="translate(6,0)"><g transform="translate(0,230.82265312696268) rotate(236.84210526315792,0,0)"><path fill="rgb(148,0,211)" stroke="none" paint-order="stroke fill markers" d=" M 0 0 L 121.54369214547864 0 L 121.54369214547864 121.54369214547864 L 0 121.54369214547864 L 0 0 Z" fill-opacity="0.5882352941176471"/></g><g transform="translate(6,0)"><g transform="translate(0,247.78228008022256) rotate(233.7662337662338,0,0)"><path fill="rgb(255,0,0)" stroke="none" paint-order="stroke fill markers" d=" M 0 0 L 127.1969011298986 0 L 127.1969011298986 127.1969011298986 L 0 127.1969011298986 L 0 0 Z" fill-opacity="0.5882352941176471"/></g><g transform="translate(6,0)"><g transform="translate(0,257.18186060888263) rotate(230.7692307692308,0,0)"><path fill="rgb(255,127,0)" stroke="none" paint-order="stroke fill markers" d=" M 0 0 L 130.33009463945197 0 L 130.33009463945197 130.33009463945197 L 0 130.33009463945197 L 0 0 Z" fill-opacity="0.5882352941176471"/></g><g transform="translate(6,0)"><g transform="translate(0,255.48468266287608) rotate(227.8481012658228,0,0)"><path fill="rgb(255,255,0)" stroke="none" paint-order="stroke fill markers" d=" M 0 0 L 129.76436865744978 0 L 129.76436865744978 129.76436865744978 L 0 129.76436865744978 L 0 0 Z" fill-opacity="0.5882352941176471"/></g><g transform="translate(6,0)"><g transform="translate(0,252.66667207690267) rotate(225,0,0)"><path fill="rgb(0,255,0)" stroke="none" paint-order="stroke fill markers" d=" M 0 0 L 128.82503179545864 0 L 128.82503179545864 128.82503179545864 L 0 128.82503179545864 L 0 0 Z" fill-opacity="0.5882352941176471"/></g><g transform="translate(6,0)"><g transform="translate(0,252.26940896392313) rotate(222.22222222222223,0,0)"><path fill="rgb(0,0,255)" stroke="none" paint-order="stroke fill markers" d=" M 0 0 L 128.6926107577988 0 L 128.6926107577988 128.6926107577988 L 0 128.6926107577988 L 0 0 Z" fill-opacity="0.5882352941176471"/></g><g transform="translate(6,0)"><g transform="translate(0,247.32022729328594) rotate(219.51219512195124,0,0)"><path fill="rgb(75,0,130)" stroke="none" paint-order="stroke fill markers" d=" M 0 0 L 127.04288353425306 0 L 127.04288353425306 127.04288353425306 L 0 127.04288353425306 L 0 0 Z" fill-opacity="0.5882352941176471"/></g><g transform="translate(6,0)"><g transform="translate(0,233.83548863016438) rotate(216.8674698795181,0,0)"><path fill="rgb(148,0,211)" stroke="none" paint-order="stroke fill markers" d=" M 0 0 L 122.54797064654588 0 L 122.54797064654588 122.54797064654588 L 0 122.54797064654588 L 0 0 Z" fill-opacity="0.5882352941176471"/></g><g transform="translate(6,0)"><g transform="translate(0,219.05779075973118) rotate(214.2857142857143,0,0)"><path fill="rgb(255,0,0)" stroke="none" paint-order="stroke fill markers" d=" M 0 0 L 117.62207135640148 0 L 117.62207135640148 117.62207135640148 L 0 117.62207135640148 L 0 0 Z" fill-opacity="0.5882352941176471"/></g><g transform="translate(6,0)"><g transform="translate(0,209.93188768165692) rotate(211.76470588235296,0,0)"><path fill="rgb(255,127,0)" stroke="none" paint-order="stroke fill markers" d=" M 0 0 L 114.58010366371006 0 L 114.58010366371006 114.58010366371006 L 0 114.58010366371006 L 0 0 Z" fill-opacity="0.5882352941176471"/></g><g transform="translate(6,0)"><g transform="translate(0,196.0655396074444) rotate(209.30232558139537,0,0)"><path fill="rgb(255,255,0)" stroke="none" paint-order="stroke fill markers" d=" M 0 0 L 109.95798763897255 0 L 109.95798763897255 109.95798763897255 L 0 109.95798763897255 L 0 0 Z" fill-opacity="0.5882352941176471"/></g><g transform="translate(6,0)"><g transform="translate(0,176.79577793057547) rotate(206.89655172413794,0,0)"><path fill="rgb(0,255,0)" stroke="none" paint-order="stroke fill markers" d=" M 0 0 L 103.5347337466829 0 L 103.5347337466829 103.5347337466829 L 0 103.5347337466829 L 0 0 Z" fill-opacity="0.5882352941176471"/></g><g transform="translate(6,0)"><g transform="translate(0,172.63783932473893) rotate(204.54545454545456,0,0)"><path fill="rgb(0,0,255)" stroke="none" paint-order="stroke fill markers" d=" M 0 0 L 102.14875421140407 0 L 102.14875421140407 102.14875421140407 L 0 102.14875421140407 L 0 0 Z" fill-opacity="0.5882352941176471"/></g><g transform="translate(6,0)"><g transform="translate(0,183.31561611431516) rotate(202.24719101123597,0,0)"><path fill="rgb(75,0,130)" stroke="none" paint-order="stroke fill markers" d=" M 0 0 L 105.70801314126281 0 L 105.70801314126281 105.70801314126281 L 0 105.70801314126281 L 0 0 Z" fill-opacity="0.5882352941176471"/></g><g transform="translate(6,0)"><g transform="translate(0,188.9852752960084) rotate(200,0,0)"><path fill="rgb(148,0,211)" stroke="none" paint-order="stroke fill markers" d=" M 0 0 L 107.59789953516055 0 L 107.59789953516055 107.59789953516055 L 0 107.59789953516055 L 0 0 Z" fill-opacity="0.5882352941176471"/></g><g transform="translate(6,0)"><g transform="translate(0,188.76953976288132) rotate(197.8021978021978,0,0)"><path fill="rgb(255,0,0)" stroke="none" paint-order="stroke fill markers" d=" M 0 0 L 107.52598769078486 0 L 107.52598769078486 107.52598769078486 L 0 107.52598769078486 L 0 0 Z" fill-opacity="0.5882352941176471"/></g><g transform="translate(6,0)"><g transform="translate(0,195.22389883741454) rotate(195.6521739130435,0,0)"><path fill="rgb(255,127,0)" stroke="none" paint-order="stroke fill markers" d=" M 0 0 L 109.67744071562926 0 L 109.67744071562926 109.67744071562926 L 0 109.67744071562926 L 0 0 Z" fill-opacity="0.5882352941176471"/></g><g transform="translate(6,0)"><g transform="translate(0,208.40637761268312) rotate(193.5483870967742,0,0)"><path fill="rgb(255,255,0)" stroke="none" paint-order="stroke fill markers" d=" M 0 0 L 114.07160030738545 0 L 114.07160030738545 114.07160030738545 L 0 114.07160030738545 L 0 0 Z" fill-opacity="0.5882352941176471"/></g><g transform="translate(6,0)"><g transform="translate(0,222.1755746440453) rotate(191.48936170212767,0,0)"><path fill="rgb(0,255,0)" stroke="none" paint-order="stroke fill markers" d=" M 0 0 L 118.66133265117286 0 L 118.66133265117286 118.66133265117286 L 0 118.66133265117286 L 0 0 Z" fill-opacity="0.5882352941176471"/></g><g transform="translate(6,0)"><g transform="translate(0,226.17365513814576) rotate(189.4736842105263,0,0)"><path fill="rgb(0,0,255)" stroke="none" paint-order="stroke fill markers" d=" M 0 0 L 119.99402614920633 0 L 119.99402614920633 119.99402614920633 L 0 119.99402614920633 L 0 0 Z" fill-opacity="0.5882352941176471"/></g><g transform="translate(6,0)"><g transform="translate(0,220.1681955393006) rotate(187.50000000000003,0,0)"><path fill="rgb(75,0,130)" stroke="none" paint-order="stroke fill markers" d=" M 0 0 L 117.99220628292461 0 L 117.99220628292461 117.99220628292461 L 0 117.99220628292461 L 0 0 Z" fill-opacity="0.5882352941176471"/></g><g transform="translate(6,0)"><g transform="translate(0,209.6227191811558) rotate(185.56701030927837,0,0)"><path fill="rgb(148,0,211)" stroke="none" paint-order="stroke fill markers" d=" M 0 0 L 114.47704749687635 0 L 114.47704749687635 114.47704749687635 L 0 114.47704749687635 L 0 0 Z" fill-opacity="0.5882352941176471"/></g><g transform="translate(6,0)"><g transform="translate(0,197.29364112788522) rotate(183.67346938775512,0,0)"><path fill="rgb(255,0,0)" stroke="none" paint-order="stroke fill markers" d=" M 0 0 L 110.36735481245283 0 L 110.36735481245283 110.36735481245283 L 0 110.36735481245283 L 0 0 Z" fill-opacity="0.5882352941176471"/></g><g transform="translate(6,0)"><g transform="translate(0,190.04259004007093) rotate(181.81818181818184,0,0)"><path fill="rgb(255,127,0)" stroke="none" paint-order="stroke fill markers" d=" M 0 0 L 107.9503377831814 0 L 107.9503377831814 107.9503377831814 L 0 107.9503377831814 L 0 0 Z" fill-opacity="0.5882352941176471"/></g><g transform="translate(6,0)"/></g></g></g></g></g></g></g></g></g></g></g></g></g></g></g></g></g></g></g></g></g></g></g></g></g></g></g></g></g></g></g></g></g></g></g></g></g></g></g></g></g></g></g></g></g></g></g></g></g></g></g></g></g></g></g></g></g></g></g></g></g></g></g></g></g></g></g></g></g></g></g></g></g></g></g></g></g></g></g></g></g></g></g></g></g></g></g></g></g></g></g></g></g></g></g></g></g></g></g></g></g></svg>