<svg version="1.1" xmlns="http://www.w3.org/2000/svg" xmlns:xlink="http://www.w3.org/1999/xlink" width="600" height="600" viewBox="0 0 600 600"><defs/><g transform="scale(1,1)"><g transform="scale(1,1)"><rect fill="rgb(0,0,0)" stroke="none" x="0" y="0" width="600" height="600" fill-opacity="1"/></g><g><g transform="translate(0,300) rotate(1.5557469042213263,0,0)"><path fill="rgb(255,0,0)" stroke="none" paint-order="stroke fill markers" d=" M 0 0 L 115.70005346730393 0 L 115.70005346730393 115.70005346730393 L 0 115.70005346730393 L 0 0 Z" fill-opacity="0.5882352941176471"/></g><g transform="translate(60,0)"><g transform="translate(0,366.85890463091073) rotate(1.3044768084911578,0,0)"><path fill="rgb(255,127,0)" stroke="none" paint-order="stroke fill markers" d=" M 0 0 L 137.98635501094085 0 L 137.98635501094085 137.98635501094085 L 0 137.98635501094085 L 0 0 Z" fill-opacity="0.5882352941176471"/></g><g transform="translate(60,0)"><g transform="translate(0,385.2398547184788) rotate(1.2490169336965724,0,0)"><path fill="rgb(255,255,0)" stroke="none" paint-order="stroke fill markers" d=" M 0 0 L 144.11333837346353 0 L 144.11333837346353 144.11333837346353 L 0 144.11333837346353 L 0 0 Z" fill-opacity="0.5882352941176471"/></g><g transform="translate(60,0)"><g transform="translate(0,368.3463228336736) rotate(1.2998064053746838,0,0)"><path fill="rgb(0,255,0)" stroke="none" paint-order="stroke fill markers" d=" M 0 0 L 138.48216107852846 0 L 138.48216107852846 138.48216107852846 L 0 138.48216107852846 L 0 0 Z" fill-opacity="0.5882352941176471"/></g><g transform="translate(60,0)"><g transform="translate(0,396.07129880813545) rotate(1.218490019557102,0,0)"><path fill="rgb(0,0,255)" stroke="none" paint-order="stroke fill markers" d=" M 0 0 L 147.72381973668243 0 L 147.72381973668243 147.72381973668243 L 0 147.72381973668243 L 0 0 Z" fill-opacity="0.5882352941176471"/></g><g transform="translate(60,0)"><g transform="translate(0,319.8324277358895) rotate(1.471659965500811,0,0)"><path fill="rgb(75,0,130)" stroke="none" paint-order="stroke fill markers" d=" M 0 0 L 122.31086271260044 0 L 122.31086271260044 122.31086271260044 L 0 122.31086271260044 L 0 0 Z" fill-opacity="0.5882352941176471"/></g><g transform="translate(60,0)"><g transform="translate(0,293.9156943670839) rotate(1.5835040877081688,0,0)"><path fill="rgb(148,0,211)" stroke="none" paint-order="stroke fill markers" d=" M 0 0 L 113.67195158966524 0 L 113.67195158966524 113.67195158966524 L 0 113.67195158966524 L 0 0 Z" fill-opacity="0.5882352941176471"/></g><g transform="translate(60,0)"><g transform="translate(0,185.93932425022192) rotate(2.3172038884572594,0,0)"><path fill="rgb(255,0,0)" stroke="none" paint-order="stroke fill markers" d=" M 0 0 L 77.6798282173779 0 L 77.6798282173779 77.6798282173779 L 0 77.6798282173779 L 0 0 Z" fill-opacity="0.5882352941176471"/></g><g transform="translate(60,0)"><g transform="translate(0,312.2735802265473) rotate(1.5026139613196796,0,0)"><path fill="rgb(255,127,0)" stroke="none" paint-order="stroke fill markers" d=" M 0 0 L 119.79124687615304 0 L 119.79124687615304 119.79124687615304 L 0 119.79124687615304 L 0 0 Z" fill-opacity="0.5882352941176471"/></g><g transform="translate(60,0)"><g transform="translate(0,257.64837364097906) rotate(1.7719527403009572,0,0)"><path fill="rgb(255,255,0)" stroke="none" paint-order="stroke fill markers" d=" M 0 0 L 101.58284468096362 0 L 101.58284468096362 101.58284468096362 L 0 101.58284468096362 L 0 0 Z" fill-opacity="0.5882352941176471"/></g><g transform="translate(60,0)"/></g></g></g></g></g></g></g></g></g></g></g></svg>