<svg version="1.1" xmlns="http://www.w3.org/2000/svg" xmlns:xlink="http://www.w3.org/1999/xlink" width="600" height="600" viewBox="0 0 600 600"><defs/><g transform="scale(1,1)"><g transform="scale(1,1)"><rect fill="rgb(0,0,0)" stroke="none" x="0" y="0" width="600" height="600" fill-opacity="1"/></g><g><g transform="translate(0,300) rotate(1.6741201524150853,0,0)"><path fill="rgb(255,0,0)" stroke="none" paint-order="stroke fill markers" d=" M 0 0 L 107.51916446399146 0 L 107.51916446399146 107.51916446399146 L 0 107.51916446399146 L 0 0 Z" fill-opacity="0.5882352941176471"/></g><g transform="translate(12,0)"><g transform="translate(0,302.53438517177204) rotate(1.6610688719315785,0,0)"><path fill="rgb(255,127,0)" stroke="none" paint-order="stroke fill markers" d=" M 0 0 L 108.36395952124882 0 L 108.36395952124882 108.36395952124882 L 0 108.36395952124882 L 0 0 Z" fill-opacity="0.5882352941176471"/></g><g transform="translate(12,0)"><g transform="translate(0,304.15402698891927) rotate(1.652834278296786,0,0)"><path fill="rgb(255,255,0)" stroke="none" paint-order="stroke fill markers" d=" M 0 0 L 108.90384012696455 0 L 108.90384012696455 108.90384012696455 L 0 108.90384012696455 L 0 0 Z" fill-opacity="0.5882352941176471"/></g><g transform="translate(12,0)"><g transform="translate(0,287.42205703485024) rotate(1.742050400603685,0,0)"><path fill="rgb(0,255,0)" stroke="none" paint-order="stroke fill markers" d=" M 0 0 L 103.32651680894155 0 L 103.32651680894155 103.32651680894155 L 0 103.32651680894155 L 0 0 Z" fill-opacity="0.5882352941176471"/></g><g transform="translate(12,0)"><g transform="translate(0,296.51720204110285) rotate(1.6923936862716829,0,0)"><path fill="rgb(0,0,255)" stroke="none" paint-order="stroke fill markers" d=" M 0 0 L 106.35823181102575 0 L 106.35823181102575 106.35823181102575 L 0 106.35823181102575 L 0 0 Z" fill-opacity="0.5882352941176471"/></g><g transform="translate(12,0)"><g transform="translate(0,283.2862631111208) rotate(1.7656074008969842,0,0)"><path fill="rgb(75,0,130)" stroke="none" paint-order="stroke fill markers" d=" M 0 0 L 101.94791883436505 0 L 101.94791883436505 101.94791883436505 L 0 101.94791883436505 L 0 0 Z" fill-opacity="0.5882352941176471"/></g><g transform="translate(12,0)"><g transform="translate(0,243.34368686414712) rotate(2.030829646863022,0,0)"><path fill="rgb(148,0,211)" stroke="none" paint-order="stroke fill markers" d=" M 0 0 L 88.6337267520405 0 L 88.6337267520405 88.6337267520405 L 0 88.6337267520405 L 0 0 Z" fill-opacity="0.5882352941176471"/></g><g transform="translate(12,0)"><g transform="translate(0,282.2234462050663) rotate(1.7717643390493807,0,0)"><path fill="rgb(255,0,0)" stroke="none" paint-order="stroke fill markers" d=" M 0 0 L 101.5936465323469 0 L 101.5936465323469 101.5936465323469 L 0 101.5936465323469 L 0 0 Z" fill-opacity="0.5882352941176471"/></g><g transform="translate(12,0)"><g transform="translate(0,242.70012453297323) rotate(2.0357568021016776,0,0)"><path fill="rgb(255,127,0)" stroke="none" paint-order="stroke fill markers" d=" M 0 0 L 88.41920597498255 0 L 88.41920597498255 88.41920597498255 L 0 88.41920597498255 L 0 0 Z" fill-opacity="0.5882352941176471"/></g><g transform="translate(12,0)"><g transform="translate(0,193.47908732410795) rotate(2.4995766837731708,0,0)"><path fill="rgb(255,255,0)" stroke="none" paint-order="stroke fill markers" d=" M 0 0 L 72.01219357202744 0 L 72.01219357202744 72.01219357202744 L 0 72.01219357202744 L 0 0 Z" fill-opacity="0.5882352941176471"/></g><g transform="translate(12,0)"><g transform="translate(0,197.76763029952588) rotate(2.4509233942657818,0,0)"><path fill="rgb(0,255,0)" stroke="none" paint-order="stroke fill markers" d=" M 0 0 L 73.44170789716675 0 L 73.44170789716675 73.44170789716675 L 0 73.44170789716675 L 0 0 Z" fill-opacity="0.5882352941176471"/></g><g transform="translate(12,0)"><g transform="translate(0,136.5464009497345) rotate(3.3940086899459354,0,0)"><path fill="rgb(0,0,255)" stroke="none" paint-order="stroke fill markers" d=" M 0 0 L 53.0346314472363 0 L 53.0346314472363 53.0346314472363 L 0 53.0346314472363 L 0 0 Z" fill-opacity="0.5882352941176471"/></g><g transform="translate(12,0)"><g transform="translate(0,174.1305409177473) rotate(2.745464419811477,0,0)"><path fill="rgb(75,0,130)" stroke="none" paint-order="stroke fill markers" d=" M 0 0 L 65.56267810324057 0 L 65.56267810324057 65.56267810324057 L 0 65.56267810324057 L 0 0 Z" fill-opacity="0.5882352941176471"/></g><g transform="translate(12,0)"><g transform="translate(0,240.37763575313693) rotate(2.053738508641724,0,0)"><path fill="rgb(148,0,211)" stroke="none" paint-order="stroke fill markers" d=" M 0 0 L 87.64504304837044 0 L 87.64504304837044 87.64504304837044 L 0 87.64504304837044 L 0 0 Z" fill-opacity="0.5882352941176471"/></g><g transform="translate(12,0)"><g transform="translate(0,336.21048575700814) rotate(1.5051510485437127,0,0)"><path fill="rgb(255,0,0)" stroke="none" paint-order="stroke fill markers" d=" M 0 0 L 119.58932638299417 0 L 119.58932638299417 119.58932638299417 L 0 119.58932638299417 L 0 0 Z" fill-opacity="0.5882352941176471"/></g><g transform="translate(12,0)"><g transform="translate(0,366.08862212190894) rotate(1.3894388196469958,0,0)"><path fill="rgb(255,127,0)" stroke="none" paint-order="stroke fill markers" d=" M 0 0 L 129.54870517129444 0 L 129.54870517129444 129.54870517129444 L 0 129.54870517129444 L 0 0 Z" fill-opacity="0.5882352941176471"/></g><g transform="translate(12,0)"><g transform="translate(0,373.00595263241877) rotate(1.365141307740301,0,0)"><path fill="rgb(255,255,0)" stroke="none" paint-order="stroke fill markers" d=" M 0 0 L 131.85448200813104 0 L 131.85448200813104 131.85448200813104 L 0 131.85448200813104 L 0 0 Z" fill-opacity="0.5882352941176471"/></g><g transform="translate(12,0)"><g transform="translate(0,314.44933648778016) rotate(1.602341413058822,0,0)"><path fill="rgb(0,255,0)" stroke="none" paint-order="stroke fill markers" d=" M 0 0 L 112.33560995991819 0 L 112.33560995991819 112.33560995991819 L 0 112.33560995991819 L 0 0 Z" fill-opacity="0.5882352941176471"/></g><g transform="translate(12,0)"><g transform="translate(0,335.22034986832523) rotate(1.5093164939426544,0,0)"><path fill="rgb(0,0,255)" stroke="none" paint-order="stroke fill markers" d=" M 0 0 L 119.25928108676653 0 L 119.25928108676653 119.25928108676653 L 0 119.25928108676653 L 0 0 Z" fill-opacity="0.5882352941176471"/></g><g transform="translate(12,0)"><g transform="translate(0,407.5935109665919) rotate(1.2553731004423403,0,0)"><path fill="rgb(75,0,130)" stroke="none" paint-order="stroke fill markers" d=" M 0 0 L 143.3836681195221 0 L 143.3836681195221 143.3836681195221 L 0 143.3836681195221 L 0 0 Z" fill-opacity="0.5882352941176471"/></g><g transform="translate(12,0)"><g transform="translate(0,378.7770567719387) rotate(1.3455108706176757,0,0)"><path fill="rgb(148,0,211)" stroke="none" paint-order="stroke fill markers" d=" M 0 0 L 133.77818338797104 0 L 133.77818338797104 133.77818338797104 L 0 133.77818338797104 L 0 0 Z" fill-opacity="0.5882352941176471"/></g><g transform="translate(12,0)"><g transform="translate(0,364.61458042398675) rotate(1.3947286917617003,0,0)"><path fill="rgb(255,0,0)" stroke="none" paint-order="stroke fill markers" d=" M 0 0 L 129.05735793865372 0 L 129.05735793865372 129.05735793865372 L 0 129.05735793865372 L 0 0 Z" fill-opacity="0.5882352941176471"/></g><g transform="translate(12,0)"><g transform="translate(0,237.9853292739299) rotate(2.0725959536119922,0,0)"><path fill="rgb(255,127,0)" stroke="none" paint-order="stroke fill markers" d=" M 0 0 L 86.84760755530142 0 L 86.84760755530142 86.84760755530142 L 0 86.84760755530142 L 0 0 Z" fill-opacity="0.5882352941176471"/></g><g transform="translate(12,0)"><g transform="translate(0,185.7806978822649) rotate(2.591939560851752,0,0)"><path fill="rgb(255,255,0)" stroke="none" paint-order="stroke fill markers" d=" M 0 0 L 69.44606375807976 0 L 69.44606375807976 69.44606375807976 L 0 69.44606375807976 L 0 0 Z" fill-opacity="0.5882352941176471"/></g><g transform="translate(12,0)"><g transform="translate(0,226.86922667352684) rotate(2.164964522879474,0,0)"><path fill="rgb(0,255,0)" stroke="none" paint-order="stroke fill markers" d=" M 0 0 L 83.14224002183374 0 L 83.14224002183374 83.14224002183374 L 0 83.14224002183374 L 0 0 Z" fill-opacity="0.5882352941176471"/></g><g transform="translate(12,0)"><g transform="translate(0,244.01225197430261) rotate(2.0257362637234744,0,0)"><path fill="rgb(0,0,255)" stroke="none" paint-order="stroke fill markers" d=" M 0 0 L 88.856581788759 0 L 88.856581788759 88.856581788759 L 0 88.856581788759 L 0 0 Z" fill-opacity="0.5882352941176471"/></g><g transform="translate(12,0)"><g transform="translate(0,240.2070588566972) rotate(2.055071718688151,0,0)"><path fill="rgb(75,0,130)" stroke="none" paint-order="stroke fill markers" d=" M 0 0 L 87.58818408289052 0 L 87.58818408289052 87.58818408289052 L 0 87.58818408289052 L 0 0 Z" fill-opacity="0.5882352941176471"/></g><g transform="translate(12,0)"><g transform="translate(0,269.9399451247016) rotate(1.8461700134485566,0,0)"><path fill="rgb(148,0,211)" stroke="none" paint-order="stroke fill markers" d=" M 0 0 L 97.49914617222532 0 L 97.49914617222532 97.49914617222532 L 0 97.49914617222532 L 0 0 Z" fill-opacity="0.5882352941176471"/></g><g transform="translate(12,0)"><g transform="translate(0,348.9109951592832) rotate(1.4536899269868686,0,0)"><path fill="rgb(255,0,0)" stroke="none" paint-order="stroke fill markers" d=" M 0 0 L 123.82282951708585 0 L 123.82282951708585 123.82282951708585 L 0 123.82282951708585 L 0 0 Z" fill-opacity="0.5882352941176471"/></g><g transform="translate(12,0)"><g transform="translate(0,381.8245252267794) rotate(1.3353709490953038,0,0)"><path fill="rgb(255,127,0)" stroke="none" paint-order="stroke fill markers" d=" M 0 0 L 134.79400620625125 0 L 134.79400620625125 134.79400620625125 L 0 134.79400620625125 L 0 0 Z" fill-opacity="0.5882352941176471"/></g><g transform="translate(12,0)"><g transform="translate(0,359.3640155331741) rotate(1.4139030857930361,0,0)"><path fill="rgb(255,255,0)" stroke="none" paint-order="stroke fill markers" d=" M 0 0 L 127.30716964171616 0 L 127.30716964171616 127.30716964171616 L 0 127.30716964171616 L 0 0 Z" fill-opacity="0.5882352941176471"/></g><g transform="translate(12,0)"><g transform="translate(0,396.76878816700145) rotate(1.2877800027042952,0,0)"><path fill="rgb(0,255,0)" stroke="none" paint-order="stroke fill markers" d=" M 0 0 L 139.7754271863253 0 L 139.7754271863253 139.7754271863253 L 0 139.7754271863253 L 0 0 Z" fill-opacity="0.5882352941176471"/></g><g transform="translate(12,0)"><g transform="translate(0,370.5091469953447) rotate(1.3738128462590875,0,0)"><path fill="rgb(0,0,255)" stroke="none" paint-order="stroke fill markers" d=" M 0 0 L 131.02221346243968 0 L 131.02221346243968 131.02221346243968 L 0 131.02221346243968 L 0 0 Z" fill-opacity="0.5882352941176471"/></g><g transform="translate(12,0)"><g transform="translate(0,317.20101432242467) rotate(1.589364174079561,0,0)"><path fill="rgb(75,0,130)" stroke="none" paint-order="stroke fill markers" d=" M 0 0 L 113.25283590479968 0 L 113.25283590479968 113.25283590479968 L 0 113.25283590479968 L 0 0 Z" fill-opacity="0.5882352941176471"/></g><g transform="translate(12,0)"><g transform="translate(0,242.78447693253332) rotate(2.0351096335781,0,0)"><path fill="rgb(148,0,211)" stroke="none" paint-order="stroke fill markers" d=" M 0 0 L 88.44732344150258 0 L 88.44732344150258 88.44732344150258 L 0 88.44732344150258 L 0 0 Z" fill-opacity="0.5882352941176471"/></g><g transform="translate(12,0)"><g transform="translate(0,209.83289453089472) rotate(2.3236761417999237,0,0)"><path fill="rgb(255,0,0)" stroke="none" paint-order="stroke fill markers" d=" M 0 0 L 77.46346264095637 0 L 77.46346264095637 77.46346264095637 L 0 77.46346264095637 L 0 0 Z" fill-opacity="0.5882352941176471"/></g><g transform="translate(12,0)"><g transform="translate(0,260.8629578966053) rotate(1.9052965216337552,0,0)"><path fill="rgb(255,127,0)" stroke="none" paint-order="stroke fill markers" d=" M 0 0 L 94.47348376285989 0 L 94.47348376285989 94.47348376285989 L 0 94.47348376285989 L 0 0 Z" fill-opacity="0.5882352941176471"/></g><g transform="translate(12,0)"><g transform="translate(0,349.772079146988) rotate(1.4503279885013478,0,0)"><path fill="rgb(255,255,0)" stroke="none" paint-order="stroke fill markers" d=" M 0 0 L 124.10985751298746 0 L 124.10985751298746 124.10985751298746 L 0 124.10985751298746 L 0 0 Z" fill-opacity="0.5882352941176471"/></g><g transform="translate(12,0)"><g transform="translate(0,374.4648676418696) rotate(1.360124902269593,0,0)"><path fill="rgb(0,255,0)" stroke="none" paint-order="stroke fill markers" d=" M 0 0 L 132.34078701128132 0 L 132.34078701128132 132.34078701128132 L 0 132.34078701128132 L 0 0 Z" fill-opacity="0.5882352941176471"/></g><g transform="translate(12,0)"><g transform="translate(0,378.0239921504625) rotate(1.348040335086314,0,0)"><path fill="rgb(0,0,255)" stroke="none" paint-order="stroke fill markers" d=" M 0 0 L 133.52716184747896 0 L 133.52716184747896 133.52716184747896 L 0 133.52716184747896 L 0 0 Z" fill-opacity="0.5882352941176471"/></g><g transform="translate(12,0)"><g transform="translate(0,327.80736443810343) rotate(1.5412504648565315,0,0)"><path fill="rgb(75,0,130)" stroke="none" paint-order="stroke fill markers" d=" M 0 0 L 116.78828594335927 0 L 116.78828594335927 116.78828594335927 L 0 116.78828594335927 L 0 0 Z" fill-opacity="0.5882352941176471"/></g><g transform="translate(12,0)"><g transform="translate(0,355.08172351568646) rotate(1.4299362349648108,0,0)"><path fill="rgb(148,0,211)" stroke="none" paint-order="stroke fill markers" d=" M 0 0 L 125.87973896922028 0 L 125.87973896922028 125.87973896922028 L 0 125.87973896922028 L 0 0 Z" fill-opacity="0.5882352941176471"/></g><g transform="translate(12,0)"><g transform="translate(0,323.6986940378062) rotate(1.5595389183031132,0,0)"><path fill="rgb(255,0,0)" stroke="none" paint-order="stroke fill markers" d=" M 0 0 L 115.4187291432602 0 L 115.4187291432602 115.4187291432602 L 0 115.4187291432602 L 0 0 Z" fill-opacity="0.5882352941176471"/></g><g transform="translate(12,0)"><g transform="translate(0,271.85795515432375) rotate(1.8341428843706977,0,0)"><path fill="rgb(255,127,0)" stroke="none" paint-order="stroke fill markers" d=" M 0 0 L 98.13848284876605 0 L 98.13848284876605 98.13848284876605 L 0 98.13848284876605 L 0 0 Z" fill-opacity="0.5882352941176471"/></g><g transform="translate(12,0)"><g transform="translate(0,183.5647004274752) rotate(2.619805223269683,0,0)"><path fill="rgb(255,255,0)" stroke="none" paint-order="stroke fill markers" d=" M 0 0 L 68.70739793981653 0 L 68.70739793981653 68.70739793981653 L 0 68.70739793981653 L 0 0 Z" fill-opacity="0.5882352941176471"/></g><g transform="translate(12,0)"><g transform="translate(0,114.61847063625754) rotate(3.936549699689835,0,0)"><path fill="rgb(0,255,0)" stroke="none" paint-order="stroke fill markers" d=" M 0 0 L 45.725321342743975 0 L 45.725321342743975 45.725321342743975 L 0 45.725321342743975 L 0 0 Z" fill-opacity="0.5882352941176471"/></g><g transform="translate(12,0)"><g transform="translate(0,195.591289766779) rotate(2.4753747977912206,0,0)"><path fill="rgb(0,0,255)" stroke="none" paint-order="stroke fill markers" d=" M 0 0 L 72.7162610529178 0 L 72.7162610529178 72.7162610529178 L 0 72.7162610529178 L 0 0 Z" fill-opacity="0.5882352941176471"/></g><g transform="translate(12,0)"><g transform="translate(0,305.49308971918936) rotate(1.6460876090472145,0,0)"><path fill="rgb(75,0,130)" stroke="none" paint-order="stroke fill markers" d=" M 0 0 L 109.35019437038791 0 L 109.35019437038791 109.35019437038791 L 0 109.35019437038791 L 0 0 Z" fill-opacity="0.5882352941176471"/></g><g transform="translate(12,0)"><g transform="translate(0,391.6998562344937) rotate(1.303537524408228,0,0)"><path fill="rgb(148,0,211)" stroke="none" paint-order="stroke fill markers" d=" M 0 0 L 138.0857832088227 0 L 138.0857832088227 138.0857832088227 L 0 138.0857832088227 L 0 0 Z" fill-opacity="0.5882352941176471"/></g><g transform="translate(12,0)"><g transform="translate(0,428.7302946456707) rotate(1.1965756980664293,0,0)"><path fill="rgb(255,0,0)" stroke="none" paint-order="stroke fill markers" d=" M 0 0 L 150.42926267921504 0 L 150.42926267921504 150.42926267921504 L 0 150.42926267921504 L 0 0 Z" fill-opacity="0.5882352941176471"/></g><g transform="translate(12,0)"/></g></g></g></g></g></g></g></g></g></g></g></g></g></g></g></g></g></g></g></g></g></g></g></g></g></g></g></g></g></g></g></g></g></g></g></g></g></g></g></g></g></g></g></g></g></g></g></g></g></g></g></svg>