<svg version="1.1" xmlns="http://www.w3.org/2000/svg" xmlns:xlink="http://www.w3.org/1999/xlink" width="600" height="600" viewBox="0 0 600 600"><defs/><g transform="scale(1,1)"><g transform="scale(1,1)"><rect fill="rgb(0,0,0)" stroke="none" x="0" y="0" width="600" height="600" fill-opacity="1"/></g><g transform="translate(0,200)"><g transform="translate(0,118.33608822008347)"/><g transform="translate(0.6,0)"><g transform="translate(0,133.41888368774227)"/><g transform="translate(0.6,0)"><g transform="translate(0,209.18149869710166)"/><g transform="translate(0.6,0)"><g transform="translate(0,96.92997934677618)"/><g transform="translate(0.6,0)"><g transform="translate(0,126.39462415430204)"/><g transform="translate(0.6,0)"><g transform="translate(0,228.56377695819899)"/><g transform="translate(0.6,0)"><g transform="translate(0,179.65397103998677)"/><g transform="translate(0.6,0)"><g transform="translate(0,50.941372016282415)"/><g transform="translate(0.6,0)"><g transform="translate(0,145.41092709248113)"/><g transform="translate(0.6,0)"><g transform="translate(0,155.84384547833218)"/><g transform="translate(0.6,0)"><g transform="translate(0,192.5071339518485)"/><g transform="translate(0.6,0)"><g transform="translate(0,59.619920298707044)"/><g transform="translate(0.6,0)"><g transform="translate(0,138.77526714266125)"/><g transform="translate(0.6,0)"><g transform="translate(0,137.48544470949432)"/><g transform="translate(0.6,0)"><g transform="translate(0,112.75059043982564)"/><g transform="translate(0.6,0)"><g transform="translate(0,181.62287899906883)"/><g transform="translate(0.6,0)"><g transform="translate(0,167.91732296195065)"/><g transform="translate(0.6,0)"><g transform="translate(0,168.03465264457583)"/><g transform="translate(0.6,0)"><g transform="translate(0,114.01638956945632)"/><g transform="translate(0.6,0)"><g transform="translate(0,60.9843747030684)"/><g transform="translate(0.6,0)"><g transform="translate(0,173.24798833396042)"/><g transform="translate(0.6,0)"><g transform="translate(0,188.22625386467539)"/><g transform="translate(0.6,0)"><g transform="translate(0,127.30272585175817)"/><g transform="translate(0.6,0)"><g transform="translate(0,189.189685942068)"/><g transform="translate(0.6,0)"><g transform="translate(0,167.6835085567569)"/><g transform="translate(0.6,0)"><g transform="translate(0,138.99556267942444)"/><g transform="translate(0.6,0)"><g transform="translate(0,122.77984269512918)"/><g transform="translate(0.6,0)"><g transform="translate(0,160.5240696628109)"/><g transform="translate(0.6,0)"><g transform="translate(0,57.205781048110104)"/><g transform="translate(0.6,0)"><g transform="translate(0,99.80357294251728)"/><g transform="translate(0.6,0)"><g transform="translate(0,191.00134800669213)"/><g transform="translate(0.6,0)"><g transform="translate(0,220.24364205369216)"/><g transform="translate(0.6,0)"><g transform="translate(0,126.05920195236818)"/><g transform="translate(0.6,0)"><g transform="translate(0,147.05480469487202)"/><g transform="translate(0.6,0)"><g transform="translate(0,189.56379987019494)"/><g transform="translate(0.6,0)"><g transform="translate(0,71.51162409026068)"/><g transform="translate(0.6,0)"><g transform="translate(0,109.71930360828782)"/><g transform="translate(0.6,0)"><g transform="translate(0,75.6100453577483)"/><g transform="translate(0.6,0)"><g transform="translate(0,117.68627282457922)"/><g transform="translate(0.6,0)"><g transform="translate(0,126.76282837656353)"/><g transform="translate(0.6,0)"><g transform="translate(0,77.12252420638464)"/><g transform="translate(0.6,0)"><g transform="translate(0,132.28463255674404)"/><g transform="translate(0.6,0)"><g transform="translate(0,109.66934601434029)"/><g transform="translate(0.6,0)"><g transform="translate(0,134.36120645183493)"/><g transform="translate(0.6,0)"><g transform="translate(0,133.85100964865575)"/><g transform="translate(0.6,0)"><g transform="translate(0,36.81725778505889)"/><g transform="translate(0.6,0)"><g transform="translate(0,112.09322481205956)"/><g transform="translate(0.6,0)"><g transform="translate(0,145.30922389319826)"/><g transform="translate(0.6,0)"><g transform="translate(0,70.4803158538576)"/><g transform="translate(0.6,0)"><g transform="translate(0,177.46482344150286)"/><g transform="translate(0.6,0)"><g transform="translate(0,97.09422914595339)"/><g transform="translate(0.6,0)"><g transform="translate(0,86.97101713020946)"/><g transform="translate(0.6,0)"><g transform="translate(0,65.77372523908363)"/><g transform="translate(0.6,0)"><g transform="translate(0,74.3203056480711)"/><g transform="translate(0.6,0)"><g transform="translate(0,114.57431855393406)"/><g transform="translate(0.6,0)"><g transform="translate(0,185.0915063651191)"/><g transform="translate(0.6,0)"><g transform="translate(0,99.93595409392006)"/><g transform="translate(0.6,0)"><g transform="translate(0,114.01769746368319)"/><g transform="translate(0.6,0)"><g transform="translate(0,157.71292802937577)"/><g transform="translate(0.6,0)"><g transform="translate(0,151.64135613657766)"/><g transform="translate(0.6,0)"><g transform="translate(0,105.83762614208503)"/><g transform="translate(0.6,0)"><g transform="translate(0,202.99731231524473)"/><g transform="translate(0.6,0)"><g transform="translate(0,178.50527368079574)"/><g transform="translate(0.6,0)"><g transform="translate(0,206.43063980339832)"/><g transform="translate(0.6,0)"><g transform="translate(0,157.8084692017427)"/><g transform="translate(0.6,0)"><g transform="translate(0,215.85043809511137)"/><g transform="translate(0.6,0)"><g transform="translate(0,60.78317393861652)"/><g transform="translate(0.6,0)"><g transform="translate(0,149.50613081884538)"/><g transform="translate(0.6,0)"><g transform="translate(0,109.39689424086228)"/><g transform="translate(0.6,0)"><g transform="translate(0,171.03551071426742)"/><g transform="translate(0.6,0)"><g transform="translate(0,141.43193440729556)"/><g transform="translate(0.6,0)"><g transform="translate(0,154.220243394824)"/><g transform="translate(0.6,0)"><g transform="translate(0,191.29806130321083)"/><g transform="translate(0.6,0)"><g transform="translate(0,131.51097743766445)"/><g transform="translate(0.6,0)"><g transform="translate(0,78.51418205162548)"/><g transform="translate(0.6,0)"><g transform="translate(0,182.60514941323044)"/><g transform="translate(0.6,0)"><g transform="translate(0,56.77830143042804)"/><g transform="translate(0.6,0)"><g transform="translate(0,90.43951307450767)"/><g transform="translate(0.6,0)"><g transform="translate(0,168.9413529374588)"/><g transform="translate(0.6,0)"><g transform="translate(0,173.63777817979374)"/><g transform="translate(0.6,0)"><g transform="translate(0,94.53829198127085)"/><g transform="translate(0.6,0)"><g transform="translate(0,186.1023516319995)"/><g transform="translate(0.6,0)"><g transform="translate(0,161.28406872638047)"/><g transform="translate(0.6,0)"><g transform="translate(0,235.97169581827933)"/><g transform="translate(0.6,0)"><g transform="translate(0,149.59023161714302)"/><g transform="translate(0.6,0)"><g transform="translate(0,131.06152024202166)"/><g transform="translate(0.6,0)"><g transform="translate(0,215.48501660450685)"/><g transform="translate(0.6,0)"><g transform="translate(0,133.73733573456082)"/><g transform="translate(0.6,0)"><g transform="translate(0,151.49868938027038)"/><g transform="translate(0.6,0)"><g transform="translate(0,148.49374782825475)"/><g transform="translate(0.6,0)"><g transform="translate(0,70.60178127350463)"/><g transform="translate(0.6,0)"><g transform="translate(0,173.4801035189071)"/><g transform="translate(0.6,0)"><g transform="translate(0,197.69995853327578)"/><g transform="translate(0.6,0)"><g transform="translate(0,112.27306611634992)"/><g transform="translate(0.6,0)"><g transform="translate(0,168.75752486506445)"/><g transform="translate(0.6,0)"><g transform="translate(0,160.61178263380353)"/><g transform="translate(0.6,0)"><g transform="translate(0,105.85686582209217)"/><g transform="translate(0.6,0)"><g transform="translate(0,223.52037808192676)"/><g transform="translate(0.6,0)"><g transform="translate(0,147.28514327320184)"/><g transform="translate(0.6,0)"><g transform="translate(0,137.1085569712321)"/><g transform="translate(0.6,0)"><g transform="translate(0,76.13908117906976)"/><g transform="translate(0.6,0)"><g transform="translate(0,197.51730270984467)"/><g transform="translate(0.6,0)"><g transform="translate(0,49.10495306811784)"/><g transform="translate(0.6,0)"><g transform="translate(0,111.7667009040534)"/><g transform="translate(0.6,0)"><g transform="translate(0,84.67736245262506)"/><g transform="translate(0.6,0)"><g transform="translate(0,179.98022564638845)"/><g transform="translate(0.6,0)"><g transform="translate(0,105.92886404731543)"/><g transform="translate(0.6,0)"><g transform="translate(0,158.55849985214644)"/><g transform="translate(0.6,0)"><g transform="translate(0,165.69373855926833)"/><g transform="translate(0.6,0)"><g transform="translate(0,128.08039335981033)"/><g transform="translate(0.6,0)"><g transform="translate(0,109.36393081162088)"/><g transform="translate(0.6,0)"><g transform="translate(0,134.59891796445905)"/><g transform="translate(0.6,0)"><g transform="translate(0,180.15351880560735)"/><g transform="translate(0.6,0)"><g transform="translate(0,141.6956441871535)"/><g transform="translate(0.6,0)"><g transform="translate(0,221.61045388234217)"/><g transform="translate(0.6,0)"><g transform="translate(0,207.38339933712027)"/><g transform="translate(0.6,0)"><g transform="translate(0,90.61184933215813)"/><g transform="translate(0.6,0)"><g transform="translate(0,123.65160634340117)"/><g transform="translate(0.6,0)"><g transform="translate(0,103.5917813451852)"/><g transform="translate(0.6,0)"><g transform="translate(0,126.05946287613672)"/><g transform="translate(0.6,0)"><g transform="translate(0,58.85684206531598)"/><g transform="translate(0.6,0)"><g transform="translate(0,156.35687272059417)"/><g transform="translate(0.6,0)"><g transform="translate(0,184.1896481807953)"/><g transform="translate(0.6,0)"><g transform="translate(0,81.1691025743831)"/><g transform="translate(0.6,0)"><g transform="translate(0,235.08150835885388)"/><g transform="translate(0.6,0)"><g transform="translate(0,46.59836950046947)"/><g transform="translate(0.6,0)"><g transform="translate(0,179.80035977425308)"/><g transform="translate(0.6,0)"><g transform="translate(0,148.78439311684238)"/><g transform="translate(0.6,0)"><g transform="translate(0,118.87140877158929)"/><g transform="translate(0.6,0)"><g transform="translate(0,142.71202089747635)"/><g transform="translate(0.6,0)"><g transform="translate(0,213.3844055964537)"/><g transform="translate(0.6,0)"><g transform="translate(0,180.7548870661291)"/><g transform="translate(0.6,0)"><g transform="translate(0,107.2700773323956)"/><g transform="translate(0.6,0)"><g transform="translate(0,97.38759581944073)"/><g transform="translate(0.6,0)"><g transform="translate(0,163.51968789125576)"/><g transform="translate(0.6,0)"><g transform="translate(0,56.261537610466384)"/><g transform="translate(0.6,0)"><g transform="translate(0,209.62491051951616)"/><g transform="translate(0.6,0)"><g transform="translate(0,73.6378391044319)"/><g transform="translate(0.6,0)"><g transform="translate(0,47.27709293868288)"/><g transform="translate(0.6,0)"><g transform="translate(0,102.31792397507073)"/><g transform="translate(0.6,0)"><g transform="translate(0,212.3831572508625)"/><g transform="translate(0.6,0)"><g transform="translate(0,202.20175238274555)"/><g transform="translate(0.6,0)"><g transform="translate(0,217.85872512081067)"/><g transform="translate(0.6,0)"><g transform="translate(0,151.22357547417784)"/><g transform="translate(0.6,0)"><g transform="translate(0,122.08282789996699)"/><g transform="translate(0.6,0)"><g transform="translate(0,109.90514739861733)"/><g transform="translate(0.6,0)"><g transform="translate(0,126.27811030763013)"/><g transform="translate(0.6,0)"><g transform="translate(0,100.88392634791579)"/><g transform="translate(0.6,0)"><g transform="translate(0,96.74105395824412)"/><g transform="translate(0.6,0)"><g transform="translate(0,204.39225798330932)"/><g transform="translate(0.6,0)"><g transform="translate(0,149.96640085202958)"/><g transform="translate(0.6,0)"><g transform="translate(0,95.65003288260243)"/><g transform="translate(0.6,0)"><g transform="translate(0,78.26879596732392)"/><g transform="translate(0.6,0)"><g transform="translate(0,161.99562675738218)"/><g transform="translate(0.6,0)"><g transform="translate(0,117.15690995152374)"/><g transform="translate(0.6,0)"><g transform="translate(0,129.51805514139)"/><g transform="translate(0.6,0)"><g transform="translate(0,157.64136704886883)"/><g transform="translate(0.6,0)"><g transform="translate(0,66.18600580112033)"/><g transform="translate(0.6,0)"><g transform="translate(0,151.71467612924167)"/><g transform="translate(0.6,0)"><g transform="translate(0,231.24395752041795)"/><g transform="translate(0.6,0)"><g transform="translate(0,77.2842932432179)"/><g transform="translate(0.6,0)"><g transform="translate(0,174.27203540402792)"/><g transform="translate(0.6,0)"><g transform="translate(0,81.34778479625892)"/><g transform="translate(0.6,0)"><g transform="translate(0,199.44197094018648)"/><g transform="translate(0.6,0)"><g transform="translate(0,130.71952000229845)"/><g transform="translate(0.6,0)"><g transform="translate(0,147.69440525248098)"/><g transform="translate(0.6,0)"><g transform="translate(0,243.28965828139857)"/><g transform="translate(0.6,0)"><g transform="translate(0,189.65162711621204)"/><g transform="translate(0.6,0)"><g transform="translate(0,45.36389229732891)"/><g transform="translate(0.6,0)"><g transform="translate(0,136.33930305433384)"/><g transform="translate(0.6,0)"><g transform="translate(0,142.25759272061163)"/><g transform="translate(0.6,0)"><g transform="translate(0,87.4673747737076)"/><g transform="translate(0.6,0)"><g transform="translate(0,190.1049666526627)"/><g transform="translate(0.6,0)"><g transform="translate(0,122.36028035948873)"/><g transform="translate(0.6,0)"><g transform="translate(0,96.05715625165375)"/><g transform="translate(0.6,0)"><g transform="translate(0,171.10850415656157)"/><g transform="translate(0.6,0)"><g transform="translate(0,111.21329232347136)"/><g transform="translate(0.6,0)"><g transform="translate(0,92.53694041592927)"/><g transform="translate(0.6,0)"><g transform="translate(0,198.8746224108032)"/><g transform="translate(0.6,0)"><g transform="translate(0,151.32200228310813)"/><g transform="translate(0.6,0)"><g transform="translate(0,32.48784970725793)"/><g transform="translate(0.6,0)"><g transform="translate(0,82.79371732375971)"/><g transform="translate(0.6,0)"><g transform="translate(0,177.47671421566275)"/><g transform="translate(0.6,0)"><g transform="translate(0,154.99266811146808)"/><g transform="translate(0.6,0)"><g transform="translate(0,235.29031854828258)"/><g transform="translate(0.6,0)"><g transform="translate(0,232.7251109409568)"/><g transform="translate(0.6,0)"><g transform="translate(0,107.02281299781801)"/><g transform="translate(0.6,0)"><g transform="translate(0,63.76567687748965)"/><g transform="translate(0.6,0)"><g transform="translate(0,225.28042691635687)"/><g transform="translate(0.6,0)"><g transform="translate(0,185.13080935824144)"/><g transform="translate(0.6,0)"><g transform="translate(0,71.01887343845084)"/><g transform="translate(0.6,0)"><g transform="translate(0,219.6103304079324)"/><g transform="translate(0.6,0)"><g transform="translate(0,193.34432584658606)"/><g transform="translate(0.6,0)"><g transform="translate(0,209.81461213088025)"/><g transform="translate(0.6,0)"><g transform="translate(0,200.83964162143306)"/><g transform="translate(0.6,0)"><g transform="translate(0,222.8440488098973)"/><g transform="translate(0.6,0)"><g transform="translate(0,69.85355886261401)"/><g transform="translate(0.6,0)"><g transform="translate(0,189.7798988078929)"/><g transform="translate(0.6,0)"><g transform="translate(0,154.50627070556112)"/><g transform="translate(0.6,0)"><g transform="translate(0,51.41320465611062)"/><g transform="translate(0.6,0)"><g transform="translate(0,147.91237851281505)"/><g transform="translate(0.6,0)"><g transform="translate(0,133.47515551057845)"/><g transform="translate(0.6,0)"><g transform="translate(0,148.07971834435307)"/><g transform="translate(0.6,0)"><g transform="translate(0,163.8218622524802)"/><g transform="translate(0.6,0)"><g transform="translate(0,86.67946968723298)"/><g transform="translate(0.6,0)"><g transform="translate(0,96.7705212646353)"/><g transform="translate(0.6,0)"><g transform="translate(0,66.2507440136607)"/><g transform="translate(0.6,0)"><g transform="translate(0,164.67617649169105)"/><g transform="translate(0.6,0)"><g transform="translate(0,78.24660295367761)"/><g transform="translate(0.6,0)"><g transform="translate(0,196.05929157629606)"/><g transform="translate(0.6,0)"><g transform="translate(0,118.95303642498376)"/><g transform="translate(0.6,0)"><g transform="translate(0,107.98761914736694)"/><g transform="translate(0.6,0)"><g transform="translate(0,142.75505178750552)"/><g transform="translate(0.6,0)"><g transform="translate(0,191.21312774455444)"/><g transform="translate(0.6,0)"><g transform="translate(0,90.65049607611809)"/><g transform="translate(0.6,0)"><g transform="translate(0,118.67987809908252)"/><g transform="translate(0.6,0)"><g transform="translate(0,148.0812408779455)"/><g transform="translate(0.6,0)"><g transform="translate(0,106.34548436377762)"/><g transform="translate(0.6,0)"><g transform="translate(0,178.89412193008746)"/><g transform="translate(0.6,0)"><g transform="translate(0,116.2507407300525)"/><g transform="translate(0.6,0)"><g transform="translate(0,153.57533080037084)"/><g transform="translate(0.6,0)"><g transform="translate(0,99.56590374255768)"/><g transform="translate(0.6,0)"><g transform="translate(0,206.32140921918887)"/><g transform="translate(0.6,0)"><g transform="translate(0,227.4578226323067)"/><g transform="translate(0.6,0)"><g transform="translate(0,177.8323836684497)"/><g transform="translate(0.6,0)"><g transform="translate(0,90.30480164708224)"/><g transform="translate(0.6,0)"><g transform="translate(0,91.31181466958773)"/><g transform="translate(0.6,0)"><g transform="translate(0,109.6728733456195)"/><g transform="translate(0.6,0)"><g transform="translate(0,170.93965663346054)"/><g transform="translate(0.6,0)"><g transform="translate(0,227.179319873167)"/><g transform="translate(0.6,0)"><g transform="translate(0,207.1348548953238)"/><g transform="translate(0.6,0)"><g transform="translate(0,156.67683230406112)"/><g transform="translate(0.6,0)"><g transform="translate(0,144.61387586452625)"/><g transform="translate(0.6,0)"><g transform="translate(0,193.51325829794078)"/><g transform="translate(0.6,0)"><g transform="translate(0,151.99558386378393)"/><g transform="translate(0.6,0)"><g transform="translate(0,144.49333306730352)"/><g transform="translate(0.6,0)"><g transform="translate(0,127.96716587277433)"/><g transform="translate(0.6,0)"><g transform="translate(0,111.43339011225083)"/><g transform="translate(0.6,0)"><g transform="translate(0,107.31908261243206)"/><g transform="translate(0.6,0)"><g transform="translate(0,166.07646288121512)"/><g transform="translate(0.6,0)"><g transform="translate(0,86.85579612604573)"/><g transform="translate(0.6,0)"><g transform="translate(0,209.31607491856562)"/><g transform="translate(0.6,0)"><g transform="translate(0,191.62838931117494)"/><g transform="translate(0.6,0)"><g transform="translate(0,120.58076089006278)"/><g transform="translate(0.6,0)"><g transform="translate(0,180.68452191037701)"/><g transform="translate(0.6,0)"><g transform="translate(0,196.11123010494055)"/><g transform="translate(0.6,0)"><g transform="translate(0,105.2923347101696)"/><g transform="translate(0.6,0)"><g transform="translate(0,153.78722018554905)"/><g transform="translate(0.6,0)"><g transform="translate(0,194.7922605407621)"/><g transform="translate(0.6,0)"><g transform="translate(0,109.61607409936576)"/><g transform="translate(0.6,0)"><g transform="translate(0,100.15769739146957)"/><g transform="translate(0.6,0)"><g transform="translate(0,168.1710004029311)"/><g transform="translate(0.6,0)"><g transform="translate(0,224.2488855699835)"/><g transform="translate(0.6,0)"><g transform="translate(0,243.2267769692965)"/><g transform="translate(0.6,0)"><g transform="translate(0,118.2047535339789)"/><g transform="translate(0.6,0)"><g transform="translate(0,185.96374812196527)"/><g transform="translate(0.6,0)"><g transform="translate(0,181.2807401522822)"/><g transform="translate(0.6,0)"><g transform="translate(0,183.64238984970314)"/><g transform="translate(0.6,0)"><g transform="translate(0,153.54343257796745)"/><g transform="translate(0.6,0)"><g transform="translate(0,128.72933842300367)"/><g transform="translate(0.6,0)"><g transform="translate(0,155.40419685909455)"/><g transform="translate(0.6,0)"><g transform="translate(0,200.9550830928588)"/><g transform="translate(0.6,0)"><g transform="translate(0,145.82040187094054)"/><g transform="translate(0.6,0)"><g transform="translate(0,124.64638108647388)"/><g transform="translate(0.6,0)"><g transform="translate(0,43.182224154292996)"/><g transform="translate(0.6,0)"><g transform="translate(0,243.6025230492996)"/><g transform="translate(0.6,0)"><g transform="translate(0,132.0737827526187)"/><g transform="translate(0.6,0)"><g transform="translate(0,134.14765511472032)"/><g transform="translate(0.6,0)"><g transform="translate(0,135.4652189715805)"/><g transform="translate(0.6,0)"><g transform="translate(0,97.18708151080503)"/><g transform="translate(0.6,0)"><g transform="translate(0,116.66432868573942)"/><g transform="translate(0.6,0)"><g transform="translate(0,142.1138879489057)"/><g transform="translate(0.6,0)"><g transform="translate(0,140.78343798342792)"/><g transform="translate(0.6,0)"><g transform="translate(0,172.5249616185051)"/><g transform="translate(0.6,0)"><g transform="translate(0,125.11868177378929)"/><g transform="translate(0.6,0)"><g transform="translate(0,124.30505575647103)"/><g transform="translate(0.6,0)"><g transform="translate(0,91.38025838598946)"/><g transform="translate(0.6,0)"><g transform="translate(0,162.25274176931848)"/><g transform="translate(0.6,0)"><g transform="translate(0,140.87150944918264)"/><g transform="translate(0.6,0)"><g transform="translate(0,211.91788845980417)"/><g transform="translate(0.6,0)"><g transform="translate(0,195.2053230013683)"/><g transform="translate(0.6,0)"><g transform="translate(0,174.23312100767217)"/><g transform="translate(0.6,0)"><g transform="translate(0,155.16941267239469)"/><g transform="translate(0.6,0)"><g transform="translate(0,108.53212486271404)"/><g transform="translate(0.6,0)"><g transform="translate(0,194.53208231637942)"/><g transform="translate(0.6,0)"><g transform="translate(0,136.7427575722847)"/><g transform="translate(0.6,0)"><g transform="translate(0,78.65840868938146)"/><g transform="translate(0.6,0)"><g transform="translate(0,96.77279224641082)"/><g transform="translate(0.6,0)"><g transform="translate(0,100.36990979627966)"/><g transform="translate(0.6,0)"><g transform="translate(0,62.04995860152182)"/><g transform="translate(0.6,0)"><g transform="translate(0,152.91608505308787)"/><g transform="translate(0.6,0)"><g transform="translate(0,166.47514679333122)"/><g transform="translate(0.6,0)"><g transform="translate(0,115.45381807489058)"/><g transform="translate(0.6,0)"><g transform="translate(0,86.79187881997146)"/><g transform="translate(0.6,0)"><g transform="translate(0,122.3710024195156)"/><g transform="translate(0.6,0)"><g transform="translate(0,89.05094244704395)"/><g transform="translate(0.6,0)"><g transform="translate(0,180.6165813229309)"/><g transform="translate(0.6,0)"><g transform="translate(0,180.84685403700033)"/><g transform="translate(0.6,0)"><g transform="translate(0,172.5218518028781)"/><g transform="translate(0.6,0)"><g transform="translate(0,45.80721383727317)"/><g transform="translate(0.6,0)"><g transform="translate(0,151.13406138850596)"/><g transform="translate(0.6,0)"><g transform="translate(0,97.02735836214865)"/><g transform="translate(0.6,0)"><g transform="translate(0,132.56499954487572)"/><g transform="translate(0.6,0)"><g transform="translate(0,185.35961348973285)"/><g transform="translate(0.6,0)"><g transform="translate(0,88.50432257463002)"/><g transform="translate(0.6,0)"><g transform="translate(0,144.59602531777037)"/><g transform="translate(0.6,0)"><g transform="translate(0,145.12135855370704)"/><g transform="translate(0.6,0)"><g transform="translate(0,75.14521787021175)"/><g transform="translate(0.6,0)"><g transform="translate(0,112.07173746310268)"/><g transform="translate(0.6,0)"><g transform="translate(0,120.93809196586486)"/><g transform="translate(0.6,0)"><g transform="translate(0,107.31829924183313)"/><g transform="translate(0.6,0)"><g transform="translate(0,136.6613607892236)"/><g transform="translate(0.6,0)"><g transform="translate(0,165.89797839479752)"/><g transform="translate(0.6,0)"><g transform="translate(0,133.21639151904034)"/><g transform="translate(0.6,0)"><g transform="translate(0,98.83586505238446)"/><g transform="translate(0.6,0)"><g transform="translate(0,163.6541248345623)"/><g transform="translate(0.6,0)"><g transform="translate(0,210.46286788484926)"/><g transform="translate(0.6,0)"><g transform="translate(0,101.31148564817225)"/><g transform="translate(0.6,0)"><g transform="translate(0,197.67445692200565)"/><g transform="translate(0.6,0)"><g transform="translate(0,128.76166450915127)"/><g transform="translate(0.6,0)"><g transform="translate(0,47.88401922286647)"/><g transform="translate(0.6,0)"><g transform="translate(0,74.92227475766073)"/><g transform="translate(0.6,0)"><g transform="translate(0,182.79718591315606)"/><g transform="translate(0.6,0)"><g transform="translate(0,180.95497042853341)"/><g transform="translate(0.6,0)"><g transform="translate(0,112.36113238005808)"/><g transform="translate(0.6,0)"><g transform="translate(0,176.4109572895082)"/><g transform="translate(0.6,0)"><g transform="translate(0,165.74809580475153)"/><g transform="translate(0.6,0)"><g transform="translate(0,202.12217621673008)"/><g transform="translate(0.6,0)"><g transform="translate(0,122.63021594701772)"/><g transform="translate(0.6,0)"><g transform="translate(0,99.11774082748295)"/><g transform="translate(0.6,0)"><g transform="translate(0,73.76446367867777)"/><g transform="translate(0.6,0)"><g transform="translate(0,86.53886186849819)"/><g transform="translate(0.6,0)"><g transform="translate(0,237.92943262455552)"/><g transform="translate(0.6,0)"><g transform="translate(0,168.04560922489873)"/><g transform="translate(0.6,0)"><g transform="translate(0,129.72816974294713)"/><g transform="translate(0.6,0)"><g transform="translate(0,78.03137554215458)"/><g transform="translate(0.6,0)"><g transform="translate(0,58.187018464749954)"/><g transform="translate(0.6,0)"><g transform="translate(0,184.32732826313617)"/><g transform="translate(0.6,0)"><g transform="translate(0,107.18739836927229)"/><g transform="translate(0.6,0)"><g transform="translate(0,128.03391000408547)"/><g transform="translate(0.6,0)"><g transform="translate(0,152.3399877339475)"/><g transform="translate(0.6,0)"><g transform="translate(0,142.38580967930196)"/><g transform="translate(0.6,0)"><g transform="translate(0,155.91501474913179)"/><g transform="translate(0.6,0)"><g transform="translate(0,129.84945139267683)"/><g transform="translate(0.6,0)"><g transform="translate(0,146.34152722071997)"/><g transform="translate(0.6,0)"><g transform="translate(0,116.40065525711115)"/><g transform="translate(0.6,0)"><g transform="translate(0,102.8347891482636)"/><g transform="translate(0.6,0)"><g transform="translate(0,113.99751876289262)"/><g transform="translate(0.6,0)"><g transform="translate(0,140.68164150930764)"/><g transform="translate(0.6,0)"><g transform="translate(0,144.66000913812704)"/><g transform="translate(0.6,0)"><g transform="translate(0,209.03716074776133)"/><g transform="translate(0.6,0)"><g transform="translate(0,186.27834209067325)"/><g transform="translate(0.6,0)"><g transform="translate(0,82.14187142812936)"/><g transform="translate(0.6,0)"><g transform="translate(0,121.44434810441275)"/><g transform="translate(0.6,0)"><g transform="translate(0,72.00172140764246)"/><g transform="translate(0.6,0)"><g transform="translate(0,182.15041342009414)"/><g transform="translate(0.6,0)"><g transform="translate(0,152.21931591230202)"/><g transform="translate(0.6,0)"><g transform="translate(0,137.00283070784417)"/><g transform="translate(0.6,0)"><g transform="translate(0,204.76336010564125)"/><g transform="translate(0.6,0)"><g transform="translate(0,60.54011789430423)"/><g transform="translate(0.6,0)"><g transform="translate(0,48.23990764853237)"/><g transform="translate(0.6,0)"><g transform="translate(0,60.490356374376994)"/><g transform="translate(0.6,0)"><g transform="translate(0,131.97661121945035)"/><g transform="translate(0.6,0)"><g transform="translate(0,138.66601149443508)"/><g transform="translate(0.6,0)"><g transform="translate(0,150.73739976846502)"/><g transform="translate(0.6,0)"><g transform="translate(0,189.47478618961483)"/><g transform="translate(0.6,0)"><g transform="translate(0,128.79786462136582)"/><g transform="translate(0.6,0)"><g transform="translate(0,145.96126640621486)"/><g transform="translate(0.6,0)"><g transform="translate(0,214.0579527969046)"/><g transform="translate(0.6,0)"><g transform="translate(0,179.379709044447)"/><g transform="translate(0.6,0)"><g transform="translate(0,214.71039044025875)"/><g transform="translate(0.6,0)"><g transform="translate(0,127.1107010122644)"/><g transform="translate(0.6,0)"><g transform="translate(0,77.36158511064714)"/><g transform="translate(0.6,0)"><g transform="translate(0,142.31555466283854)"/><g transform="translate(0.6,0)"><g transform="translate(0,83.24437938924594)"/><g transform="translate(0.6,0)"><g transform="translate(0,221.4843688895766)"/><g transform="translate(0.6,0)"><g transform="translate(0,215.48701534426792)"/><g transform="translate(0.6,0)"><g transform="translate(0,76.99376530529756)"/><g transform="translate(0.6,0)"><g transform="translate(0,155.25814183591592)"/><g transform="translate(0.6,0)"><g transform="translate(0,154.2336755026451)"/><g transform="translate(0.6,0)"><g transform="translate(0,127.30427501981241)"/><g transform="translate(0.6,0)"><g transform="translate(0,85.67569241126932)"/><g transform="translate(0.6,0)"><g transform="translate(0,215.18232608989464)"/><g transform="translate(0.6,0)"><g transform="translate(0,222.06418269059014)"/><g transform="translate(0.6,0)"><g transform="translate(0,128.9086152557224)"/><g transform="translate(0.6,0)"><g transform="translate(0,173.39358615164286)"/><g transform="translate(0.6,0)"><g transform="translate(0,213.91611541887153)"/><g transform="translate(0.6,0)"><g transform="translate(0,130.11130643894296)"/><g transform="translate(0.6,0)"><g transform="translate(0,129.69641565963775)"/><g transform="translate(0.6,0)"><g transform="translate(0,173.1362128579888)"/><g transform="translate(0.6,0)"><g transform="translate(0,185.20777414214703)"/><g transform="translate(0.6,0)"><g transform="translate(0,141.8118672760313)"/><g transform="translate(0.6,0)"><g transform="translate(0,144.8313864411764)"/><g transform="translate(0.6,0)"><g transform="translate(0,37.626844243681006)"/><g transform="translate(0.6,0)"><g transform="translate(0,154.4503985322943)"/><g transform="translate(0.6,0)"><g transform="translate(0,43.585154746554984)"/><g transform="translate(0.6,0)"><g transform="translate(0,116.02118324234965)"/><g transform="translate(0.6,0)"><g transform="translate(0,84.4093262887327)"/><g transform="translate(0.6,0)"><g transform="translate(0,98.06392833785884)"/><g transform="translate(0.6,0)"><g transform="translate(0,117.7761362004873)"/><g transform="translate(0.6,0)"><g transform="translate(0,102.1492252392042)"/><g transform="translate(0.6,0)"><g transform="translate(0,142.2617140799596)"/><g transform="translate(0.6,0)"><g transform="translate(0,168.07060887571566)"/><g transform="translate(0.6,0)"><g transform="translate(0,171.9180654958729)"/><g transform="translate(0.6,0)"><g transform="translate(0,176.08815359883525)"/><g transform="translate(0.6,0)"><g transform="translate(0,102.57731686436692)"/><g transform="translate(0.6,0)"><g transform="translate(0,160.3816415203672)"/><g transform="translate(0.6,0)"><g transform="translate(0,139.1945180491603)"/><g transform="translate(0.6,0)"><g transform="translate(0,107.3202091037114)"/><g transform="translate(0.6,0)"><g transform="translate(0,114.19567160051834)"/><g transform="translate(0.6,0)"><g transform="translate(0,119.89807267792095)"/><g transform="translate(0.6,0)"><g transform="translate(0,90.32685604424557)"/><g transform="translate(0.6,0)"><g transform="translate(0,98.60953981807589)"/><g transform="translate(0.6,0)"><g transform="translate(0,143.53939991395544)"/><g transform="translate(0.6,0)"><g transform="translate(0,96.07102364038721)"/><g transform="translate(0.6,0)"><g transform="translate(0,204.177968650309)"/><g transform="translate(0.6,0)"><g transform="translate(0,154.68239290161944)"/><g transform="translate(0.6,0)"><g transform="translate(0,118.05547682766851)"/><g transform="translate(0.6,0)"><g transform="translate(0,113.01263619219613)"/><g transform="translate(0.6,0)"><g transform="translate(0,126.58901626103166)"/><g transform="translate(0.6,0)"><g transform="translate(0,106.74812422270887)"/><g transform="translate(0.6,0)"><g transform="translate(0,73.47160291204577)"/><g transform="translate(0.6,0)"><g transform="translate(0,163.11149460274936)"/><g transform="translate(0.6,0)"><g transform="translate(0,97.74043583448935)"/><g transform="translate(0.6,0)"><g transform="translate(0,119.25653077523411)"/><g transform="translate(0.6,0)"><g transform="translate(0,165.54643978283426)"/><g transform="translate(0.6,0)"><g transform="translate(0,198.7581075185239)"/><g transform="translate(0.6,0)"><g transform="translate(0,173.17112525280717)"/><g transform="translate(0.6,0)"><g transform="translate(0,113.11798170438017)"/><g transform="translate(0.6,0)"><g transform="translate(0,156.66104293243183)"/><g transform="translate(0.6,0)"><g transform="translate(0,202.14116950500838)"/><g transform="translate(0.6,0)"><g transform="translate(0,181.08853514407406)"/><g transform="translate(0.6,0)"><g transform="translate(0,101.70575797014492)"/><g transform="translate(0.6,0)"><g transform="translate(0,118.73521488905222)"/><g transform="translate(0.6,0)"><g transform="translate(0,86.95821517581147)"/><g transform="translate(0.6,0)"><g transform="translate(0,149.26140024516934)"/><g transform="translate(0.6,0)"><g transform="translate(0,179.60588333401242)"/><g transform="translate(0.6,0)"><g transform="translate(0,134.8961594540229)"/><g transform="translate(0.6,0)"><g transform="translate(0,136.61018161379707)"/><g transform="translate(0.6,0)"><g transform="translate(0,149.04525450197258)"/><g transform="translate(0.6,0)"><g transform="translate(0,93.28288097967851)"/><g transform="translate(0.6,0)"><g transform="translate(0,167.36066793195224)"/><g transform="translate(0.6,0)"><g transform="translate(0,167.8779973489946)"/><g transform="translate(0.6,0)"><g transform="translate(0,168.3815556238391)"/><g transform="translate(0.6,0)"><g transform="translate(0,150.38091665786274)"/><g transform="translate(0.6,0)"><g transform="translate(0,131.4646530709392)"/><g transform="translate(0.6,0)"><g transform="translate(0,194.16076102692062)"/><g transform="translate(0.6,0)"><g transform="translate(0,191.12122728021322)"/><g transform="translate(0.6,0)"><g transform="translate(0,193.0457249230472)"/><g transform="translate(0.6,0)"><g transform="translate(0,167.2420630430512)"/><g transform="translate(0.6,0)"><g transform="translate(0,170.29642726034564)"/><g transform="translate(0.6,0)"><g transform="translate(0,73.61557925173346)"/><g transform="translate(0.6,0)"><g transform="translate(0,142.6220917790689)"/><g transform="translate(0.6,0)"><g transform="translate(0,169.1053432766916)"/><g transform="translate(0.6,0)"><g transform="translate(0,150.52268565528775)"/><g transform="translate(0.6,0)"><g transform="translate(0,82.69257321762868)"/><g transform="translate(0.6,0)"><g transform="translate(0,100.04886079142373)"/><g transform="translate(0.6,0)"><g transform="translate(0,112.25074355128537)"/><g transform="translate(0.6,0)"><g transform="translate(0,180.12231284232354)"/><g transform="translate(0.6,0)"><g transform="translate(0,59.86588065528232)"/><g transform="translate(0.6,0)"><g transform="translate(0,145.0838372625655)"/><g transform="translate(0.6,0)"><g transform="translate(0,40.13618263234254)"/><g transform="translate(0.6,0)"><g transform="translate(0,155.14049080784886)"/><g transform="translate(0.6,0)"><g transform="translate(0,96.40506692901154)"/><g transform="translate(0.6,0)"><g transform="translate(0,138.0916971669062)"/><g transform="translate(0.6,0)"><g transform="translate(0,185.98443027517197)"/><g transform="translate(0.6,0)"><g transform="translate(0,133.84521344708298)"/><g transform="translate(0.6,0)"><g transform="translate(0,176.1453091811722)"/><g transform="translate(0.6,0)"><g transform="translate(0,77.22707037135442)"/><g transform="translate(0.6,0)"><g transform="translate(0,129.83495800115517)"/><g transform="translate(0.6,0)"><g transform="translate(0,52.38915134460462)"/><g transform="translate(0.6,0)"><g transform="translate(0,135.61449878143756)"/><g transform="translate(0.6,0)"><g transform="translate(0,155.44785086755945)"/><g transform="translate(0.6,0)"><g transform="translate(0,107.82254359426055)"/><g transform="translate(0.6,0)"><g transform="translate(0,212.1419918005251)"/><g transform="translate(0.6,0)"><g transform="translate(0,228.18399956261004)"/><g transform="translate(0.6,0)"><g transform="translate(0,108.84420921658887)"/><g transform="translate(0.6,0)"><g transform="translate(0,169.36629723596272)"/><g transform="translate(0.6,0)"><g transform="translate(0,154.47017774504673)"/><g transform="translate(0.6,0)"><g transform="translate(0,71.97465064848946)"/><g transform="translate(0.6,0)"><g transform="translate(0,166.00610730990704)"/><g transform="translate(0.6,0)"><g transform="translate(0,36.466482284925995)"/><g transform="translate(0.6,0)"><g transform="translate(0,218.46135676795348)"/><g transform="translate(0.6,0)"><g transform="translate(0,90.28278033456661)"/><g transform="translate(0.6,0)"><g transform="translate(0,125.35898472349693)"/><g transform="translate(0.6,0)"><g transform="translate(0,187.13852940022127)"/><g transform="translate(0.6,0)"><g transform="translate(0,102.61403977155936)"/><g transform="translate(0.6,0)"><g transform="translate(0,55.10403866404386)"/><g transform="translate(0.6,0)"><g transform="translate(0,193.3728907047715)"/><g transform="translate(0.6,0)"><g transform="translate(0,38.465608534252326)"/><g transform="translate(0.6,0)"><g transform="translate(0,128.41362856953444)"/><g transform="translate(0.6,0)"><g transform="translate(0,47.543405042255266)"/><g transform="translate(0.6,0)"><g transform="translate(0,165.62832213079906)"/><g transform="translate(0.6,0)"><g transform="translate(0,171.82618392657074)"/><g transform="translate(0.6,0)"><g transform="translate(0,147.66288351428898)"/><g transform="translate(0.6,0)"><g transform="translate(0,174.11587504197914)"/><g transform="translate(0.6,0)"><g transform="translate(0,246.5804867969955)"/><g transform="translate(0.6,0)"><g transform="translate(0,61.59872984786454)"/><g transform="translate(0.6,0)"><g transform="translate(0,93.42863977000819)"/><g transform="translate(0.6,0)"><g transform="translate(0,207.54096682596764)"/><g transform="translate(0.6,0)"><g transform="translate(0,127.32792690844691)"/><g transform="translate(0.6,0)"><g transform="translate(0,257.60050926332684)"/><g transform="translate(0.6,0)"><g transform="translate(0,109.97065330007916)"/><g transform="translate(0.6,0)"><g transform="translate(0,58.216371746208296)"/><g transform="translate(0.6,0)"><g transform="translate(0,156.64148698328998)"/><g transform="translate(0.6,0)"><g transform="translate(0,112.87547476924453)"/><g transform="translate(0.6,0)"><g transform="translate(0,202.1774128542435)"/><g transform="translate(0.6,0)"><g transform="translate(0,122.23559254669792)"/><g transform="translate(0.6,0)"><g transform="translate(0,110.88307399265462)"/><g transform="translate(0.6,0)"><g transform="translate(0,200.3116065634603)"/><g transform="translate(0.6,0)"><g transform="translate(0,137.75001497880857)"/><g transform="translate(0.6,0)"><g transform="translate(0,183.57014404346495)"/><g transform="translate(0.6,0)"><g transform="translate(0,70.57482931989566)"/><g transform="translate(0.6,0)"><g transform="translate(0,132.96157122098708)"/><g transform="translate(0.6,0)"><g transform="translate(0,146.7949552290388)"/><g transform="translate(0.6,0)"><g transform="translate(0,232.22609545065131)"/><g transform="translate(0.6,0)"><g transform="translate(0,94.6782967746179)"/><g transform="translate(0.6,0)"><g transform="translate(0,113.78867596352428)"/><g transform="translate(0.6,0)"><g transform="translate(0,105.14824781449923)"/><g transform="translate(0.6,0)"><g transform="translate(0,162.3113909301434)"/><g transform="translate(0.6,0)"><g transform="translate(0,78.71715087190557)"/><g transform="translate(0.6,0)"><g transform="translate(0,182.73921805759227)"/><g transform="translate(0.6,0)"><g transform="translate(0,211.2267537740936)"/><g transform="translate(0.6,0)"><g transform="translate(0,57.09066207142574)"/><g transform="translate(0.6,0)"><g transform="translate(0,130.570035786297)"/><g transform="translate(0.6,0)"><g transform="translate(0,79.67222234523003)"/><g transform="translate(0.6,0)"><g transform="translate(0,212.24804841133314)"/><g transform="translate(0.6,0)"><g transform="translate(0,174.87745877472355)"/><g transform="translate(0.6,0)"><g transform="translate(0,77.06032868357458)"/><g transform="translate(0.6,0)"><g transform="translate(0,172.24102909484972)"/><g transform="translate(0.6,0)"><g transform="translate(0,215.2292077103064)"/><g transform="translate(0.6,0)"><g transform="translate(0,100.25774867561786)"/><g transform="translate(0.6,0)"><g transform="translate(0,100.75624842474481)"/><g transform="translate(0.6,0)"><g transform="translate(0,162.64762649055822)"/><g transform="translate(0.6,0)"><g transform="translate(0,215.10787455217488)"/><g transform="translate(0.6,0)"><g transform="translate(0,135.34582495061932)"/><g transform="translate(0.6,0)"><g transform="translate(0,207.98688998751481)"/><g transform="translate(0.6,0)"><g transform="translate(0,101.26582705168008)"/><g transform="translate(0.6,0)"><g transform="translate(0,119.09487834545632)"/><g transform="translate(0.6,0)"><g transform="translate(0,170.92482900561893)"/><g transform="translate(0.6,0)"><g transform="translate(0,79.0249491226944)"/><g transform="translate(0.6,0)"><g transform="translate(0,157.9314658960726)"/><g transform="translate(0.6,0)"><g transform="translate(0,132.17340837771647)"/><g transform="translate(0.6,0)"><g transform="translate(0,72.68645450311655)"/><g transform="translate(0.6,0)"><g transform="translate(0,62.92185941176805)"/><g transform="translate(0.6,0)"><g transform="translate(0,247.99902195073565)"/><g transform="translate(0.6,0)"><g transform="translate(0,63.94919646700361)"/><g transform="translate(0.6,0)"><g transform="translate(0,172.42850382762666)"/><g transform="translate(0.6,0)"><g transform="translate(0,89.37661980694949)"/><g transform="translate(0.6,0)"><g transform="translate(0,131.72999487534517)"/><g transform="translate(0.6,0)"><g transform="translate(0,146.48789195655806)"/><g transform="translate(0.6,0)"><g transform="translate(0,65.44568938836721)"/><g transform="translate(0.6,0)"><g transform="translate(0,57.89840313352697)"/><g transform="translate(0.6,0)"><g transform="translate(0,168.87062944965925)"/><g transform="translate(0.6,0)"><g transform="translate(0,148.60195233611984)"/><g transform="translate(0.6,0)"><g transform="translate(0,137.41155919348216)"/><g transform="translate(0.6,0)"><g transform="translate(0,146.67857652255148)"/><g transform="translate(0.6,0)"><g transform="translate(0,105.3244888931291)"/><g transform="translate(0.6,0)"><g transform="translate(0,198.51004775375796)"/><g transform="translate(0.6,0)"><g transform="translate(0,191.83903123923014)"/><g transform="translate(0.6,0)"><g transform="translate(0,227.80094019721844)"/><g transform="translate(0.6,0)"><g transform="translate(0,125.31623494809199)"/><g transform="translate(0.6,0)"><g transform="translate(0,100.280485037877)"/><g transform="translate(0.6,0)"><g transform="translate(0,161.79141351879343)"/><g transform="translate(0.6,0)"><g transform="translate(0,151.55205062445168)"/><g transform="translate(0.6,0)"><g transform="translate(0,167.3158144137124)"/><g transform="translate(0.6,0)"><g transform="translate(0,155.79680461363276)"/><g transform="translate(0.6,0)"><g transform="translate(0,191.32792296301866)"/><g transform="translate(0.6,0)"><g transform="translate(0,157.80538808230213)"/><g transform="translate(0.6,0)"><g transform="translate(0,198.4970537823333)"/><g transform="translate(0.6,0)"><g transform="translate(0,188.92006423504873)"/><g transform="translate(0.6,0)"><g transform="translate(0,56.79385335523911)"/><g transform="translate(0.6,0)"><g transform="translate(0,113.34170119407501)"/><g transform="translate(0.6,0)"><g transform="translate(0,93.49464828640069)"/><g transform="translate(0.6,0)"><g transform="translate(0,141.39750690842934)"/><g transform="translate(0.6,0)"><g transform="translate(0,85.75882045497605)"/><g transform="translate(0.6,0)"><g transform="translate(0,171.49741887122997)"/><g transform="translate(0.6,0)"><g transform="translate(0,143.64382515150643)"/><g transform="translate(0.6,0)"><g transform="translate(0,75.1066781130765)"/><g transform="translate(0.6,0)"><g transform="translate(0,198.3110478286413)"/><g transform="translate(0.6,0)"><g transform="translate(0,122.28682330785176)"/><g transform="translate(0.6,0)"><g transform="translate(0,114.5769469764293)"/><g transform="translate(0.6,0)"><g transform="translate(0,101.72490366190885)"/><g transform="translate(0.6,0)"><g transform="translate(0,139.91474708841906)"/><g transform="translate(0.6,0)"><g transform="translate(0,67.46373113114069)"/><g transform="translate(0.6,0)"><g transform="translate(0,93.17672972250271)"/><g transform="translate(0.6,0)"><g transform="translate(0,40.74969330794976)"/><g transform="translate(0.6,0)"><g transform="translate(0,80.5104705537821)"/><g transform="translate(0.6,0)"><g transform="translate(0,81.00469931516773)"/><g transform="translate(0.6,0)"><g transform="translate(0,143.0629012523536)"/><g transform="translate(0.6,0)"><g transform="translate(0,103.73728460061983)"/><g transform="translate(0.6,0)"><g transform="translate(0,197.98041852165048)"/><g transform="translate(0.6,0)"><g transform="translate(0,108.9182925530494)"/><g transform="translate(0.6,0)"><g transform="translate(0,92.58088750946472)"/><g transform="translate(0.6,0)"><g transform="translate(0,91.81136521548844)"/><g transform="translate(0.6,0)"><g transform="translate(0,188.81259863918237)"/><g transform="translate(0.6,0)"><g transform="translate(0,72.52464282069957)"/><g transform="translate(0.6,0)"><g transform="translate(0,105.91263284036742)"/><g transform="translate(0.6,0)"><g transform="translate(0,97.02964565444128)"/><g transform="translate(0.6,0)"><g transform="translate(0,97.78027018445415)"/><g transform="translate(0.6,0)"><g transform="translate(0,75.0875702778874)"/><g transform="translate(0.6,0)"><g transform="translate(0,66.34246739426582)"/><g transform="translate(0.6,0)"><g transform="translate(0,93.72727391310298)"/><g transform="translate(0.6,0)"><g transform="translate(0,191.27551958677233)"/><g transform="translate(0.6,0)"><g transform="translate(0,193.1088903872063)"/><g transform="translate(0.6,0)"><g transform="translate(0,212.84907390416592)"/><g transform="translate(0.6,0)"><g transform="translate(0,87.65627986728269)"/><g transform="translate(0.6,0)"><g transform="translate(0,129.68637154083626)"/><g transform="translate(0.6,0)"><g transform="translate(0,80.19821347355989)"/><g transform="translate(0.6,0)"><g transform="translate(0,105.92465158021928)"/><g transform="translate(0.6,0)"><g transform="translate(0,175.80807721345752)"/><g transform="translate(0.6,0)"><g transform="translate(0,95.41064341769076)"/><g transform="translate(0.6,0)"><g transform="translate(0,82.99761676878158)"/><g transform="translate(0.6,0)"><g transform="translate(0,160.3625368118294)"/><g transform="translate(0.6,0)"><g transform="translate(0,128.0776923266419)"/><g transform="translate(0.6,0)"><g transform="translate(0,79.56660236090107)"/><g transform="translate(0.6,0)"><g transform="translate(0,112.67888840577956)"/><g transform="translate(0.6,0)"><g transform="translate(0,85.65886223979057)"/><g transform="translate(0.6,0)"><g transform="translate(0,134.60685521926976)"/><g transform="translate(0.6,0)"><g transform="translate(0,130.11548085574046)"/><g transform="translate(0.6,0)"><g transform="translate(0,147.20965908746717)"/><g transform="translate(0.6,0)"><g transform="translate(0,141.63602196103926)"/><g transform="translate(0.6,0)"><g transform="translate(0,67.6681650281197)"/><g transform="translate(0.6,0)"><g transform="translate(0,179.98567822675048)"/><g transform="translate(0.6,0)"><g transform="translate(0,162.89524639753068)"/><g transform="translate(0.6,0)"><g transform="translate(0,70.3751723215332)"/><g transform="translate(0.6,0)"><g transform="translate(0,72.64980796814369)"/><g transform="translate(0.6,0)"><g transform="translate(0,219.22113133138558)"/><g transform="translate(0.6,0)"><g transform="translate(0,166.21487698334934)"/><g transform="translate(0.6,0)"><g transform="translate(0,117.02699866792705)"/><g transform="translate(0.6,0)"><g transform="translate(0,77.85604006817)"/><g transform="translate(0.6,0)"><g transform="translate(0,74.45238763747186)"/><g transform="translate(0.6,0)"><g transform="translate(0,168.70372142728348)"/><g transform="translate(0.6,0)"><g transform="translate(0,183.63577204046126)"/><g transform="translate(0.6,0)"><g transform="translate(0,136.94803683142945)"/><g transform="translate(0.6,0)"><g transform="translate(0,211.60552393207576)"/><g transform="translate(0.6,0)"><g transform="translate(0,148.9182154442766)"/><g transform="translate(0.6,0)"><g transform="translate(0,176.9664467887776)"/><g transform="translate(0.6,0)"><g transform="translate(0,154.98327136954015)"/><g transform="translate(0.6,0)"><g transform="translate(0,121.75181174216887)"/><g transform="translate(0.6,0)"><g transform="translate(0,73.59143578360597)"/><g transform="translate(0.6,0)"><g transform="translate(0,56.96021648748057)"/><g transform="translate(0.6,0)"><g transform="translate(0,103.6804446075286)"/><g transform="translate(0.6,0)"><g transform="translate(0,101.13587826460707)"/><g transform="translate(0.6,0)"><g transform="translate(0,141.4445434986949)"/><g transform="translate(0.6,0)"><g transform="translate(0,96.59050166758053)"/><g transform="translate(0.6,0)"><g transform="translate(0,93.81209930762213)"/><g transform="translate(0.6,0)"><g transform="translate(0,61.10797709181862)"/><g transform="translate(0.6,0)"><g transform="translate(0,115.43681544123766)"/><g transform="translate(0.6,0)"><g transform="translate(0,167.8314597622998)"/><g transform="translate(0.6,0)"><g transform="translate(0,78.05636117181116)"/><g transform="translate(0.6,0)"><g transform="translate(0,178.6033054199286)"/><g transform="translate(0.6,0)"><g transform="translate(0,123.22625826032423)"/><g transform="translate(0.6,0)"><g transform="translate(0,91.19756114311964)"/><g transform="translate(0.6,0)"><g transform="translate(0,186.17549831682518)"/><g transform="translate(0.6,0)"><g transform="translate(0,165.11446648174845)"/><g transform="translate(0.6,0)"><g transform="translate(0,139.72943279653438)"/><g transform="translate(0.6,0)"><g transform="translate(0,72.0928837812685)"/><g transform="translate(0.6,0)"><g transform="translate(0,119.13618501770036)"/><g transform="translate(0.6,0)"><g transform="translate(0,228.03015240239517)"/><g transform="translate(0.6,0)"><g transform="translate(0,119.91611035997458)"/><g transform="translate(0.6,0)"><g transform="translate(0,158.2666892079702)"/><g transform="translate(0.6,0)"><g transform="translate(0,94.94643543792166)"/><g transform="translate(0.6,0)"><g transform="translate(0,140.3346425071736)"/><g transform="translate(0.6,0)"><g transform="translate(0,196.02596302400542)"/><g transform="translate(0.6,0)"><g transform="translate(0,177.2637080104357)"/><g transform="translate(0.6,0)"><g transform="translate(0,167.8535771922156)"/><g transform="translate(0.6,0)"><g transform="translate(0,126.59801904312681)"/><g transform="translate(0.6,0)"><g transform="translate(0,72.22897800932937)"/><g transform="translate(0.6,0)"><g transform="translate(0,150.83195092567107)"/><g transform="translate(0.6,0)"><g transform="translate(0,107.60126402629692)"/><g transform="translate(0.6,0)"><g transform="translate(0,137.7908913746771)"/><g transform="translate(0.6,0)"><g transform="translate(0,121.27902187788833)"/><g transform="translate(0.6,0)"><g transform="translate(0,186.02105103057733)"/><g transform="translate(0.6,0)"><g transform="translate(0,130.9394221708297)"/><g transform="translate(0.6,0)"><g transform="translate(0,211.12706183063176)"/><g transform="translate(0.6,0)"><g transform="translate(0,197.43665371807816)"/><g transform="translate(0.6,0)"><g transform="translate(0,94.19001788898098)"/><g transform="translate(0.6,0)"><g transform="translate(0,176.33208443393983)"/><g transform="translate(0.6,0)"><g transform="translate(0,66.01935159007733)"/><g transform="translate(0.6,0)"><g transform="translate(0,101.31268773033597)"/><g transform="translate(0.6,0)"><g transform="translate(0,134.6368758824044)"/><g transform="translate(0.6,0)"><g transform="translate(0,108.62811718288386)"/><g transform="translate(0.6,0)"><g transform="translate(0,185.10051977198242)"/><g transform="translate(0.6,0)"><g transform="translate(0,175.21872845492013)"/><g transform="translate(0.6,0)"><g transform="translate(0,183.1086924975177)"/><g transform="translate(0.6,0)"><g transform="translate(0,144.18524494997638)"/><g transform="translate(0.6,0)"><g transform="translate(0,87.86530142540855)"/><g transform="translate(0.6,0)"><g transform="translate(0,143.6004245224527)"/><g transform="translate(0.6,0)"><g transform="translate(0,224.58805490077017)"/><g transform="translate(0.6,0)"><g transform="translate(0,103.43632409833654)"/><g transform="translate(0.6,0)"><g transform="translate(0,163.805386850753)"/><g transform="translate(0.6,0)"><g transform="translate(0,96.85952970242431)"/><g transform="translate(0.6,0)"><g transform="translate(0,215.65644203620025)"/><g transform="translate(0.6,0)"><g transform="translate(0,191.35350265473065)"/><g transform="translate(0.6,0)"><g transform="translate(0,134.91378926377473)"/><g transform="translate(0.6,0)"><g transform="translate(0,199.32356277774596)"/><g transform="translate(0.6,0)"><g transform="translate(0,94.99156819794042)"/><g transform="translate(0.6,0)"><g transform="translate(0,144.00273545021412)"/><g transform="translate(0.6,0)"><g transform="translate(0,91.559320796485)"/><g transform="translate(0.6,0)"><g transform="translate(0,202.47245783877585)"/><g transform="translate(0.6,0)"><g transform="translate(0,180.41879138565622)"/><g transform="translate(0.6,0)"><g transform="translate(0,161.03136173419566)"/><g transform="translate(0.6,0)"><g transform="translate(0,89.34007215052915)"/><g transform="translate(0.6,0)"><g transform="translate(0,65.81577601030705)"/><g transform="translate(0.6,0)"><g transform="translate(0,127.77416149992386)"/><g transform="translate(0.6,0)"><g transform="translate(0,67.85908686803786)"/><g transform="translate(0.6,0)"><g transform="translate(0,148.49563099362496)"/><g transform="translate(0.6,0)"><g transform="translate(0,111.92941675277149)"/><g transform="translate(0.6,0)"><g transform="translate(0,129.66851545423273)"/><g transform="translate(0.6,0)"><g transform="translate(0,197.8744514872199)"/><g transform="translate(0.6,0)"><g transform="translate(0,89.01212544825282)"/><g transform="translate(0.6,0)"><g transform="translate(0,197.18672657856902)"/><g transform="translate(0.6,0)"><g transform="translate(0,161.431254507696)"/><g transform="translate(0.6,0)"><g transform="translate(0,146.0846452096435)"/><g transform="translate(0.6,0)"><g transform="translate(0,203.45886568223995)"/><g transform="translate(0.6,0)"><g transform="translate(0,168.77519939715577)"/><g transform="translate(0.6,0)"><g transform="translate(0,95.30595675530617)"/><g transform="translate(0.6,0)"><g transform="translate(0,63.51586266517613)"/><g transform="translate(0.6,0)"><g transform="translate(0,118.05969438391809)"/><g transform="translate(0.6,0)"><g transform="translate(0,104.22371705888956)"/><g transform="translate(0.6,0)"><g transform="translate(0,87.65997544015224)"/><g transform="translate(0.6,0)"><g transform="translate(0,90.45997543795656)"/><g transform="translate(0.6,0)"><g transform="translate(0,212.2411566891468)"/><g transform="translate(0.6,0)"><g transform="translate(0,140.97321478838742)"/><g transform="translate(0.6,0)"><g transform="translate(0,167.29578438104255)"/><g transform="translate(0.6,0)"><g transform="translate(0,148.16101550242692)"/><g transform="translate(0.6,0)"><g transform="translate(0,175.09940984976708)"/><g transform="translate(0.6,0)"><g transform="translate(0,81.56514301841806)"/><g transform="translate(0.6,0)"><g transform="translate(0,112.7880055727018)"/><g transform="translate(0.6,0)"><g transform="translate(0,97.83378851394325)"/><g transform="translate(0.6,0)"><g transform="translate(0,97.55783945709814)"/><g transform="translate(0.6,0)"><g transform="translate(0,204.1699730189665)"/><g transform="translate(0.6,0)"><g transform="translate(0,158.51051365673322)"/><g transform="translate(0.6,0)"><g transform="translate(0,166.28749805380357)"/><g transform="translate(0.6,0)"><g transform="translate(0,144.36396935670356)"/><g transform="translate(0.6,0)"><g transform="translate(0,171.12243638834187)"/><g transform="translate(0.6,0)"><g transform="translate(0,84.07957952793863)"/><g transform="translate(0.6,0)"><g transform="translate(0,194.36658644501173)"/><g transform="translate(0.6,0)"><g transform="translate(0,189.8361548496712)"/><g transform="translate(0.6,0)"><g transform="translate(0,152.79668632991462)"/><g transform="translate(0.6,0)"><g transform="translate(0,188.03620122967433)"/><g transform="translate(0.6,0)"><g transform="translate(0,110.99148452548356)"/><g transform="translate(0.6,0)"><g transform="translate(0,108.38571858210649)"/><g transform="translate(0.6,0)"><g transform="translate(0,111.43087527816122)"/><g transform="translate(0.6,0)"><g transform="translate(0,195.12617304141847)"/><g transform="translate(0.6,0)"><g transform="translate(0,169.09572146808227)"/><g transform="translate(0.6,0)"><g transform="translate(0,75.76132755473704)"/><g transform="translate(0.6,0)"><g transform="translate(0,164.3558628958851)"/><g transform="translate(0.6,0)"><g transform="translate(0,149.9970194280192)"/><g transform="translate(0.6,0)"><g transform="translate(0,206.30519588212528)"/><g transform="translate(0.6,0)"><g transform="translate(0,175.2189422208251)"/><g transform="translate(0.6,0)"><g transform="translate(0,181.44610356483182)"/><g transform="translate(0.6,0)"><g transform="translate(0,112.22021904900133)"/><g transform="translate(0.6,0)"><g transform="translate(0,112.84497075632072)"/><g transform="translate(0.6,0)"><g transform="translate(0,121.1241688283731)"/><g transform="translate(0.6,0)"><g transform="translate(0,213.1683443415508)"/><g transform="translate(0.6,0)"><g transform="translate(0,33.00927832091147)"/><g transform="translate(0.6,0)"><g transform="translate(0,152.22968109967735)"/><g transform="translate(0.6,0)"><g transform="translate(0,196.37635596983583)"/><g transform="translate(0.6,0)"><g transform="translate(0,208.8241766641006)"/><g transform="translate(0.6,0)"><g transform="translate(0,152.47116338437726)"/><g transform="translate(0.6,0)"><g transform="translate(0,134.73685238410542)"/><g transform="translate(0.6,0)"><g transform="translate(0,79.5484689603997)"/><g transform="translate(0.6,0)"><g transform="translate(0,199.53118490655447)"/><g transform="translate(0.6,0)"><g transform="translate(0,167.53406352294087)"/><g transform="translate(0.6,0)"><g transform="translate(0,186.59188574249873)"/><g transform="translate(0.6,0)"><g transform="translate(0,116.11468078332483)"/><g transform="translate(0.6,0)"><g transform="translate(0,157.6929755144551)"/><g transform="translate(0.6,0)"><g transform="translate(0,181.18643009172743)"/><g transform="translate(0.6,0)"><g transform="translate(0,199.51352529198076)"/><g transform="translate(0.6,0)"><g transform="translate(0,190.18945545474864)"/><g transform="translate(0.6,0)"><g transform="translate(0,196.18239450204075)"/><g transform="translate(0.6,0)"><g transform="translate(0,156.94441289982817)"/><g transform="translate(0.6,0)"><g transform="translate(0,145.7495422654658)"/><g transform="translate(0.6,0)"><g transform="translate(0,165.57603227018163)"/><g transform="translate(0.6,0)"><g transform="translate(0,75.52558177845363)"/><g transform="translate(0.6,0)"><g transform="translate(0,211.17015206505624)"/><g transform="translate(0.6,0)"><g transform="translate(0,115.5380294865347)"/><g transform="translate(0.6,0)"><g transform="translate(0,140.5824686376833)"/><g transform="translate(0.6,0)"><g transform="translate(0,142.31687579142525)"/><g transform="translate(0.6,0)"><g transform="translate(0,112.90522031438056)"/><g transform="translate(0.6,0)"><g transform="translate(0,201.01469076935095)"/><g transform="translate(0.6,0)"><g transform="translate(0,117.45381993718838)"/><g transform="translate(0.6,0)"><g transform="translate(0,172.7420774788085)"/><g transform="translate(0.6,0)"><g transform="translate(0,151.87657161148667)"/><g transform="translate(0.6,0)"><g transform="translate(0,59.903401580518484)"/><g transform="translate(0.6,0)"><g transform="translate(0,147.99087956064366)"/><g transform="translate(0.6,0)"><g transform="translate(0,54.105624027922985)"/><g transform="translate(0.6,0)"><g transform="translate(0,21.43033185988864)"/><g transform="translate(0.6,0)"><g transform="translate(0,92.86452890791699)"/><g transform="translate(0.6,0)"><g transform="translate(0,53.43913180290221)"/><g transform="translate(0.6,0)"><g transform="translate(0,146.71828163116874)"/><g transform="translate(0.6,0)"><g transform="translate(0,102.43892869963818)"/><g transform="translate(0.6,0)"><g transform="translate(0,162.73020916207022)"/><g transform="translate(0.6,0)"><g transform="translate(0,177.2096302854634)"/><g transform="translate(0.6,0)"><g transform="translate(0,196.84537353446373)"/><g transform="translate(0.6,0)"><g transform="translate(0,158.29662114763556)"/><g transform="translate(0.6,0)"><g transform="translate(0,170.2014129585124)"/><g transform="translate(0.6,0)"><g transform="translate(0,190.71344408426552)"/><g transform="translate(0.6,0)"><g transform="translate(0,98.20414028928299)"/><g transform="translate(0.6,0)"><g transform="translate(0,216.1385751437696)"/><g transform="translate(0.6,0)"><g transform="translate(0,115.28931474607373)"/><g transform="translate(0.6,0)"><g transform="translate(0,98.41608605028041)"/><g transform="translate(0.6,0)"><g transform="translate(0,153.06115804799106)"/><g transform="translate(0.6,0)"><g transform="translate(0,146.926411326722)"/><g transform="translate(0.6,0)"><g transform="translate(0,133.58478541015262)"/><g transform="translate(0.6,0)"><g transform="translate(0,137.39841256807927)"/><g transform="translate(0.6,0)"><g transform="translate(0,107.18412281516699)"/><g transform="translate(0.6,0)"><g transform="translate(0,196.8337259297959)"/><g transform="translate(0.6,0)"><g transform="translate(0,163.8881250726892)"/><g transform="translate(0.6,0)"><g transform="translate(0,179.83399600801172)"/><g transform="translate(0.6,0)"><g transform="translate(0,166.35660812859058)"/><g transform="translate(0.6,0)"><g transform="translate(0,234.44492112609726)"/><g transform="translate(0.6,0)"><g transform="translate(0,132.68759982283288)"/><g transform="translate(0.6,0)"><g transform="translate(0,134.43359038071654)"/><g transform="translate(0.6,0)"><g transform="translate(0,139.44987825123744)"/><g transform="translate(0.6,0)"><g transform="translate(0,203.27529990777302)"/><g transform="translate(0.6,0)"><g transform="translate(0,67.24839964693034)"/><g transform="translate(0.6,0)"><g transform="translate(0,97.04514831241352)"/><g transform="translate(0.6,0)"><g transform="translate(0,95.04182793800072)"/><g transform="translate(0.6,0)"><g transform="translate(0,189.38928737045572)"/><g transform="translate(0.6,0)"><g transform="translate(0,112.8709390836695)"/><g transform="translate(0.6,0)"><g transform="translate(0,108.329343609193)"/><g transform="translate(0.6,0)"><g transform="translate(0,198.77096871498688)"/><g transform="translate(0.6,0)"><g transform="translate(0,172.66574807922774)"/><g transform="translate(0.6,0)"><g transform="translate(0,99.41341536240965)"/><g transform="translate(0.6,0)"><g transform="translate(0,216.08477240672312)"/><g transform="translate(0.6,0)"><g transform="translate(0,84.34021123819744)"/><g transform="translate(0.6,0)"><g transform="translate(0,136.8890626970563)"/><g transform="translate(0.6,0)"><g transform="translate(0,159.03594827412087)"/><g transform="translate(0.6,0)"><g transform="translate(0,151.94636864649573)"/><g transform="translate(0.6,0)"><g transform="translate(0,191.8359905178327)"/><g transform="translate(0.6,0)"><g transform="translate(0,157.1512867845896)"/><g transform="translate(0.6,0)"><g transform="translate(0,222.55270261981545)"/><g transform="translate(0.6,0)"><g transform="translate(0,72.25639501287667)"/><g transform="translate(0.6,0)"><g transform="translate(0,126.7704861910905)"/><g transform="translate(0.6,0)"><g transform="translate(0,165.45862981712406)"/><g transform="translate(0.6,0)"><g transform="translate(0,110.58615640195283)"/><g transform="translate(0.6,0)"><g transform="translate(0,108.664356798378)"/><g transform="translate(0.6,0)"><g transform="translate(0,98.24324592353602)"/><g transform="translate(0.6,0)"><g transform="translate(0,131.0523941662595)"/><g transform="translate(0.6,0)"><g transform="translate(0,128.1436961654397)"/><g transform="translate(0.6,0)"><g transform="translate(0,183.2134463306208)"/><g transform="translate(0.6,0)"><g transform="translate(0,88.37459131754571)"/><g transform="translate(0.6,0)"><g transform="translate(0,86.72463590106872)"/><g transform="translate(0.6,0)"><g transform="translate(0,62.51174230527962)"/><g transform="translate(0.6,0)"><g transform="translate(0,175.625620365452)"/><g transform="translate(0.6,0)"><g transform="translate(0,107.69651230227943)"/><g transform="translate(0.6,0)"><g transform="translate(0,206.878534854839)"/><g transform="translate(0.6,0)"><g transform="translate(0,154.01320224224375)"/><g transform="translate(0.6,0)"><g transform="translate(0,152.5572635791428)"/><g transform="translate(0.6,0)"><g transform="translate(0,126.81367925288431)"/><g transform="translate(0.6,0)"><g transform="translate(0,100.69893853098921)"/><g transform="translate(0.6,0)"><g transform="translate(0,207.9060457475599)"/><g transform="translate(0.6,0)"><g transform="translate(0,99.04396891798947)"/><g transform="translate(0.6,0)"><g transform="translate(0,134.4385524537246)"/><g transform="translate(0.6,0)"><g transform="translate(0,182.54455229203504)"/><g transform="translate(0.6,0)"><g transform="translate(0,124.86320788687847)"/><g transform="translate(0.6,0)"><g transform="translate(0,129.54064821450345)"/><g transform="translate(0.6,0)"><g transform="translate(0,139.6232634750581)"/><g transform="translate(0.6,0)"><g transform="translate(0,156.06120964703862)"/><g transform="translate(0.6,0)"><g transform="translate(0,97.16424560569091)"/><g transform="translate(0.6,0)"><g transform="translate(0,103.00266461127714)"/><g transform="translate(0.6,0)"><g transform="translate(0,176.39523188240148)"/><g transform="translate(0.6,0)"><g transform="translate(0,227.58942569723604)"/><g transform="translate(0.6,0)"><g transform="translate(0,215.7653001522244)"/><g transform="translate(0.6,0)"><g transform="translate(0,223.4506852654514)"/><g transform="translate(0.6,0)"><g transform="translate(0,152.01162494484785)"/><g transform="translate(0.6,0)"><g transform="translate(0,148.5497008765436)"/><g transform="translate(0.6,0)"><g transform="translate(0,157.74164764143487)"/><g transform="translate(0.6,0)"><g transform="translate(0,148.95314216478985)"/><g transform="translate(0.6,0)"><g transform="translate(0,172.2319695224576)"/><g transform="translate(0.6,0)"><g transform="translate(0,65.1796436988189)"/><g transform="translate(0.6,0)"><g transform="translate(0,207.51154952107873)"/><g transform="translate(0.6,0)"><g transform="translate(0,161.18370081092854)"/><g transform="translate(0.6,0)"><g transform="translate(0,62.3298869269474)"/><g transform="translate(0.6,0)"><g transform="translate(0,118.83606121212961)"/><g transform="translate(0.6,0)"><g transform="translate(0,129.16304959518865)"/><g transform="translate(0.6,0)"><g transform="translate(0,78.4306001849308)"/><g transform="translate(0.6,0)"><g transform="translate(0,116.13056287690917)"/><g transform="translate(0.6,0)"><g transform="translate(0,78.35952431050622)"/><g transform="translate(0.6,0)"><g transform="translate(0,245.35588734872618)"/><g transform="translate(0.6,0)"><g transform="translate(0,199.4002743150915)"/><g transform="translate(0.6,0)"><g transform="translate(0,90.0531437481424)"/><g transform="translate(0.6,0)"><g transform="translate(0,195.03690541076287)"/><g transform="translate(0.6,0)"><g transform="translate(0,104.90121415530108)"/><g transform="translate(0.6,0)"><g transform="translate(0,52.077168800758784)"/><g transform="translate(0.6,0)"><g transform="translate(0,47.69062500385537)"/><g transform="translate(0.6,0)"><g transform="translate(0,100.40214123904437)"/><g transform="translate(0.6,0)"><g transform="translate(0,184.56226422437922)"/><g transform="translate(0.6,0)"><g transform="translate(0,148.042842104582)"/><g transform="translate(0.6,0)"><g transform="translate(0,165.60583441985037)"/><g transform="translate(0.6,0)"><g transform="translate(0,149.48211006302887)"/><g transform="translate(0.6,0)"><g transform="translate(0,222.94763503120615)"/><g transform="translate(0.6,0)"><g transform="translate(0,153.3662859670275)"/><g transform="translate(0.6,0)"><g transform="translate(0,176.47399225215682)"/><g transform="translate(0.6,0)"><g transform="translate(0,184.4822800549677)"/><g transform="translate(0.6,0)"><g transform="translate(0,119.45235009386583)"/><g transform="translate(0.6,0)"><g transform="translate(0,238.7978014174819)"/><g transform="translate(0.6,0)"><g transform="translate(0,52.42871235846162)"/><g transform="translate(0.6,0)"><g transform="translate(0,222.70729765019206)"/><g transform="translate(0.6,0)"><g transform="translate(0,118.35835750959431)"/><g transform="translate(0.6,0)"><g transform="translate(0,182.27675906361412)"/><g transform="translate(0.6,0)"><g transform="translate(0,149.82103980647014)"/><g transform="translate(0.6,0)"><g transform="translate(0,108.86214076054038)"/><g transform="translate(0.6,0)"><g transform="translate(0,167.4488789499741)"/><g transform="translate(0.6,0)"><g transform="translate(0,172.8357944804976)"/><g transform="translate(0.6,0)"><g transform="translate(0,102.87338030056459)"/><g transform="translate(0.6,0)"><g transform="translate(0,106.703880170897)"/><g transform="translate(0.6,0)"><g transform="translate(0,88.4809091349161)"/><g transform="translate(0.6,0)"><g transform="translate(0,142.42545582388632)"/><g transform="translate(0.6,0)"><g transform="translate(0,121.22240863469366)"/><g transform="translate(0.6,0)"><g transform="translate(0,186.8986228662426)"/><g transform="translate(0.6,0)"><g transform="translate(0,185.90919248085322)"/><g transform="translate(0.6,0)"><g transform="translate(0,225.83130187993052)"/><g transform="translate(0.6,0)"><g transform="translate(0,101.24121600472023)"/><g transform="translate(0.6,0)"><g transform="translate(0,59.05289749978278)"/><g transform="translate(0.6,0)"><g transform="translate(0,48.98610520315891)"/><g transform="translate(0.6,0)"><g transform="translate(0,57.0792400378256)"/><g transform="translate(0.6,0)"><g transform="translate(0,197.69059955121915)"/><g transform="translate(0.6,0)"><g transform="translate(0,138.45758949337457)"/><g transform="translate(0.6,0)"><g transform="translate(0,80.74099813510199)"/><g transform="translate(0.6,0)"><g transform="translate(0,95.11634443150783)"/><g transform="translate(0.6,0)"><g transform="translate(0,101.10292528941835)"/><g transform="translate(0.6,0)"><g transform="translate(0,216.2399322004252)"/><g transform="translate(0.6,0)"><g transform="translate(0,60.65839556251201)"/><g transform="translate(0.6,0)"><g transform="translate(0,127.35103577413992)"/><g transform="translate(0.6,0)"><g transform="translate(0,167.57672817342726)"/><g transform="translate(0.6,0)"><g transform="translate(0,184.16340168477282)"/><g transform="translate(0.6,0)"><g transform="translate(0,94.66943676237594)"/><g transform="translate(0.6,0)"><g transform="translate(0,117.27707257305772)"/><g transform="translate(0.6,0)"><g transform="translate(0,109.59719238121365)"/><g transform="translate(0.6,0)"><g transform="translate(0,111.28726504685325)"/><g transform="translate(0.6,0)"><g transform="translate(0,209.31782048877636)"/><g transform="translate(0.6,0)"><g transform="translate(0,221.38136016961556)"/><g transform="translate(0.6,0)"><g transform="translate(0,125.97919986033348)"/><g transform="translate(0.6,0)"><g transform="translate(0,189.72812047378855)"/><g transform="translate(0.6,0)"><g transform="translate(0,163.4632916315262)"/><g transform="translate(0.6,0)"><g transform="translate(0,128.02163345805354)"/><g transform="translate(0.6,0)"><g transform="translate(0,68.08524932038685)"/><g transform="translate(0.6,0)"><g transform="translate(0,124.88697854918384)"/><g transform="translate(0.6,0)"><g transform="translate(0,135.25949663479375)"/><g transform="translate(0.6,0)"><g transform="translate(0,81.28895035325344)"/><g transform="translate(0.6,0)"><g transform="translate(0,169.33816752092065)"/><g transform="translate(0.6,0)"><g transform="translate(0,178.12377764929744)"/><g transform="translate(0.6,0)"><g transform="translate(0,144.42259603323032)"/><g transform="translate(0.6,0)"><g transform="translate(0,234.9577898886375)"/><g transform="translate(0.6,0)"><g transform="translate(0,161.15910482784972)"/><g transform="translate(0.6,0)"><g transform="translate(0,168.72950555105228)"/><g transform="translate(0.6,0)"><g transform="translate(0,170.09702679052177)"/><g transform="translate(0.6,0)"><g transform="translate(0,114.54681333534259)"/><g transform="translate(0.6,0)"><g transform="translate(0,199.70707199858444)"/><g transform="translate(0.6,0)"><g transform="translate(0,140.36655149484216)"/><g transform="translate(0.6,0)"><g transform="translate(0,89.14083573320377)"/><g transform="translate(0.6,0)"><g transform="translate(0,142.5404859561714)"/><g transform="translate(0.6,0)"><g transform="translate(0,146.31616430507484)"/><g transform="translate(0.6,0)"><g transform="translate(0,143.13830980795797)"/><g transform="translate(0.6,0)"><g transform="translate(0,61.71824289746319)"/><g transform="translate(0.6,0)"><g transform="translate(0,192.43403869141875)"/><g transform="translate(0.6,0)"><g transform="translate(0,65.12508626756329)"/><g transform="translate(0.6,0)"><g transform="translate(0,106.7975342814678)"/><g transform="translate(0.6,0)"><g transform="translate(0,68.23202937928829)"/><g transform="translate(0.6,0)"><g transform="translate(0,107.26298158737046)"/><g transform="translate(0.6,0)"><g transform="translate(0,205.91960160029302)"/><g transform="translate(0.6,0)"><g transform="translate(0,151.7145715306171)"/><g transform="translate(0.6,0)"><g transform="translate(0,127.67652767548216)"/><g transform="translate(0.6,0)"><g transform="translate(0,152.31760546704112)"/><g transform="translate(0.6,0)"><g transform="translate(0,219.40631310733278)"/><g transform="translate(0.6,0)"><g transform="translate(0,58.914711439388384)"/><g transform="translate(0.6,0)"><g transform="translate(0,243.8293680593419)"/><g transform="translate(0.6,0)"><g transform="translate(0,125.41959267855397)"/><g transform="translate(0.6,0)"><g transform="translate(0,127.10939458289947)"/><g transform="translate(0.6,0)"><g transform="translate(0,64.22765267452894)"/><g transform="translate(0.6,0)"><g transform="translate(0,93.02092064508766)"/><g transform="translate(0.6,0)"><g transform="translate(0,102.43557007796474)"/><g transform="translate(0.6,0)"><g transform="translate(0,108.69235551874739)"/><g transform="translate(0.6,0)"><g transform="translate(0,177.63551566278767)"/><g transform="translate(0.6,0)"><g transform="translate(0,62.83571655601643)"/><g transform="translate(0.6,0)"><g transform="translate(0,70.44722720362645)"/><g transform="translate(0.6,0)"><g transform="translate(0,101.91672735208964)"/><g transform="translate(0.6,0)"><g transform="translate(0,74.51724970667443)"/><g transform="translate(0.6,0)"><g transform="translate(0,71.58154035073193)"/><g transform="translate(0.6,0)"><g transform="translate(0,147.88038416229034)"/><g transform="translate(0.6,0)"><g transform="translate(0,250.8479733399278)"/><g transform="translate(0.6,0)"><g transform="translate(0,167.96907136880617)"/><g transform="translate(0.6,0)"><g transform="translate(0,165.11174404580794)"/><g transform="translate(0.6,0)"><g transform="translate(0,43.30272307588499)"/><g transform="translate(0.6,0)"><g transform="translate(0,71.69685646579913)"/><g transform="translate(0.6,0)"><g transform="translate(0,154.61884666891547)"/><g transform="translate(0.6,0)"><g transform="translate(0,65.49075110040141)"/><g transform="translate(0.6,0)"><g transform="translate(0,181.98117827685203)"/><g transform="translate(0.6,0)"><g transform="translate(0,211.52685192272605)"/><g transform="translate(0.6,0)"><g transform="translate(0,129.5360680771231)"/><g transform="translate(0.6,0)"><g transform="translate(0,108.12459737795831)"/><g transform="translate(0.6,0)"><g transform="translate(0,172.72867322740115)"/><g transform="translate(0.6,0)"><g transform="translate(0,166.97954108523783)"/><g transform="translate(0.6,0)"><g transform="translate(0,184.0056745459613)"/><g transform="translate(0.6,0)"><g transform="translate(0,169.03423741547573)"/><g transform="translate(0.6,0)"><g transform="translate(0,115.61794081823018)"/><g transform="translate(0.6,0)"/></g></g></g></g></g></g></g></g></g></g></g></g></g></g></g></g></g></g></g></g></g></g></g></g></g></g></g></g></g></g></g></g></g></g></g></g></g></g></g></g></g></g></g></g></g></g></g></g></g></g></g></g></g></g></g></g></g></g></g></g></g></g></g></g></g></g></g></g></g></g></g></g></g></g></g></g></g></g></g></g></g></g></g></g></g></g></g></g></g></g></g></g></g></g></g></g></g></g></g></g></g></g></g></g></g></g></g></g></g></g></g></g></g></g></g></g></g></g></g></g></g></g></g></g></g></g></g></g></g></g></g></g></g></g></g></g></g></g></g></g></g></g></g></g></g></g></g></g></g></g></g></g></g></g></g></g></g></g></g></g></g></g></g></g></g></g></g></g></g></g></g></g></g></g></g></g></g></g></g></g></g></g></g></g></g></g></g></g></g></g></g></g></g></g></g></g></g></g></g></g></g></g></g></g></g></g></g></g></g></g></g></g></g></g></g></g></g></g></g></g></g></g></g></g></g></g></g></g></g></g></g></g></g></g></g></g></g></g></g></g></g></g></g></g></g></g></g></g></g></g></g></g></g></g></g></g></g></g></g></g></g></g></g></g></g></g></g></g></g></g></g></g></g></g></g></g></g></g></g></g></g></g></g></g></g></g></g></g></g></g></g></g></g></g></g></g></g></g></g></g></g></g></g></g></g></g></g></g></g></g></g></g></g></g></g></g></g></g></g></g></g></g></g></g></g></g></g></g></g></g></g></g></g></g></g></g></g></g></g></g></g></g></g></g></g></g></g></g></g></g></g></g></g></g></g></g></g></g></g></g></g></g></g></g></g></g></g></g></g></g></g></g></g></g></g></g></g></g></g></g></g></g></g></g></g></g></g></g></g></g></g></g></g></g></g></g></g></g></g></g></g></g></g></g></g></g></g></g></g></g></g></g></g></g></g></g></g></g></g></g></g></g></g></g></g></g></g></g></g></g></g></g></g></g></g></g></g></g></g></g></g></g></g></g></g></g></g></g></g></g></g></g></g></g></g></g></g></g></g></g></g></g></g></g></g></g></g></g></g></g></g></g></g></g></g></g></g></g></g></g></g></g></g></g></g></g></g></g></g></g></g></g></g></g></g></g></g></g></g></g></g></g></g></g></g></g></g></g></g></g></g></g></g></g></g></g></g></g></g></g></g></g></g></g></g></g></g></g></g></g></g></g></g></g></g></g></g></g></g></g></g></g></g></g></g></g></g></g></g></g></g></g></g></g></g></g></g></g></g></g></g></g></g></g></g></g></g></g></g></g></g></g></g></g></g></g></g></g></g></g></g></g></g></g></g></g></g></g></g></g></g></g></g></g></g></g></g></g></g></g></g></g></g></g></g></g></g></g></g></g></g></g></g></g></g></g></g></g></g></g></g></g></g></g></g></g></g></g></g></g></g></g></g></g></g></g></g></g></g></g></g></g></g></g></g></g></g></g></g></g></g></g></g></g></g></g></g></g></g></g></g></g></g></g></g></g></g></g></g></g></g></g></g></g></g></g></g></g></g></g></g></g></g></g></g></g></g></g></g></g></g></g></g></g></g></g></g></g></g></g></g></g></g></g></g></g></g></g></g></g></g></g></g></g></g></g></g></g></g></g></g></g></g></g></g></g></g></g></g></g></g></g></g></g></g></g></g></g></g></g></g></g></g></g></g></g></g></g></g></g></g></g></g></g></g></g></g></g></g></g></g></g></g></g></g></g></g></g></g></g></g></g></g></g></g></g></g></g></g></g></g></g></g></g></g></g></g></g></g></g></g></g></g></g></g></g></g></g></g></g></g></g></g></g></g></g></g></g></g></g></g></g></g></g></g></g></g></g></g></g></g></g></g></g></g></g></g></g></g></g></g></g></g></g></g></g></g></g></g></g></g></g></g></g></g></g></g></g></g></g></g></g></g></g></g></g></g></g></g></g></g></g></g></g></g></g></g></g></g></g></g></g></g></g></g></g></g></g></g></g></g></g></g></g></g></g></g></g></g></g></g></g></g></g></g></g></g></g></g></g></g></g></g></g></g></g></g></g></g></g></g></g></g></g></g></g></g></g></g></g></g></g></g></g></g></g></g></g></g></g></g></g></g></g></g></g></g></g></g></g></g></g></g></g></g></g></g></g></g></g></g></g></g></g></g></g></g></g></g></g></g></g></g></g></g></g></g></g></g></g></g></g></g></g></g></g></g></g></g></g></g></g></g></g></g></g></g></g></g></g></g></g></g></g></g></g></g></g></g></g></g></svg>