<svg version="1.1" xmlns="http://www.w3.org/2000/svg" xmlns:xlink="http://www.w3.org/1999/xlink" width="600" height="600" viewBox="0 0 600 600"><defs/><g transform="scale(1,1)"><g transform="scale(1,1)"><rect fill="rgb(0,0,0)" stroke="none" x="0" y="0" width="600" height="600" fill-opacity="1"/></g><g><g transform="translate(0,300)"><path fill="rgb(255,0,0)" stroke="none" paint-order="stroke fill markers" d=" M 0 0 L 88.4608083610667 0 L 88.4608083610667 88.4608083610667 L 0 88.4608083610667 L 0 0 Z" fill-opacity="0.5882352941176471"/></g><g transform="translate(6,0)"><g transform="translate(0,312.02230573323834)"><path fill="rgb(255,127,0)" stroke="none" paint-order="stroke fill markers" d=" M 0 0 L 100.48311409430507 0 L 100.48311409430507 100.48311409430507 L 0 100.48311409430507 L 0 0 Z" fill-opacity="0.5882352941176471"/></g><g transform="translate(6,0)"><g transform="translate(0,327.4775780160106)"><path fill="rgb(255,255,0)" stroke="none" paint-order="stroke fill markers" d=" M 0 0 L 115.93838637707735 0 L 115.93838637707735 115.93838637707735 L 0 115.93838637707735 L 0 0 Z" fill-opacity="0.5882352941176471"/></g><g transform="translate(6,0)"><g transform="translate(0,333.26507423292446)"><path fill="rgb(0,255,0)" stroke="none" paint-order="stroke fill markers" d=" M 0 0 L 121.72588259399117 0 L 121.72588259399117 121.72588259399117 L 0 121.72588259399117 L 0 0 Z" fill-opacity="0.5882352941176471"/></g><g transform="translate(6,0)"><g transform="translate(0,350.1351282669445)"><path fill="rgb(0,0,255)" stroke="none" paint-order="stroke fill markers" d=" M 0 0 L 138.5959366280112 0 L 138.5959366280112 138.5959366280112 L 0 138.5959366280112 L 0 0 Z" fill-opacity="0.5882352941176471"/></g><g transform="translate(6,0)"><g transform="translate(0,358.3625960498084)"><path fill="rgb(75,0,130)" stroke="none" paint-order="stroke fill markers" d=" M 0 0 L 146.8234044108751 0 L 146.8234044108751 146.8234044108751 L 0 146.8234044108751 L 0 0 Z" fill-opacity="0.5882352941176471"/></g><g transform="translate(6,0)"><g transform="translate(0,378.135597594399)"><path fill="rgb(148,0,211)" stroke="none" paint-order="stroke fill markers" d=" M 0 0 L 166.5964059554657 0 L 166.5964059554657 166.5964059554657 L 0 166.5964059554657 L 0 0 Z" fill-opacity="0.5882352941176471"/></g><g transform="translate(6,0)"><g transform="translate(0,375.5221403142722)"><path fill="rgb(255,0,0)" stroke="none" paint-order="stroke fill markers" d=" M 0 0 L 163.9829486753389 0 L 163.9829486753389 163.9829486753389 L 0 163.9829486753389 L 0 0 Z" fill-opacity="0.5882352941176471"/></g><g transform="translate(6,0)"><g transform="translate(0,373.35064960756324)"><path fill="rgb(255,127,0)" stroke="none" paint-order="stroke fill markers" d=" M 0 0 L 161.81145796862998 0 L 161.81145796862998 161.81145796862998 L 0 161.81145796862998 L 0 0 Z" fill-opacity="0.5882352941176471"/></g><g transform="translate(6,0)"><g transform="translate(0,390.8792833518015)"><path fill="rgb(255,255,0)" stroke="none" paint-order="stroke fill markers" d=" M 0 0 L 179.34009171286823 0 L 179.34009171286823 179.34009171286823 L 0 179.34009171286823 L 0 0 Z" fill-opacity="0.5882352941176471"/></g><g transform="translate(6,0)"><g transform="translate(0,389.23432648109707)"><path fill="rgb(0,255,0)" stroke="none" paint-order="stroke fill markers" d=" M 0 0 L 177.69513484216378 0 L 177.69513484216378 177.69513484216378 L 0 177.69513484216378 L 0 0 Z" fill-opacity="0.5882352941176471"/></g><g transform="translate(6,0)"><g transform="translate(0,398.5679386154101)"><path fill="rgb(0,0,255)" stroke="none" paint-order="stroke fill markers" d=" M 0 0 L 187.02874697647684 0 L 187.02874697647684 187.02874697647684 L 0 187.02874697647684 L 0 0 Z" fill-opacity="0.5882352941176471"/></g><g transform="translate(6,0)"><g transform="translate(0,414.48072952795656)"><path fill="rgb(75,0,130)" stroke="none" paint-order="stroke fill markers" d=" M 0 0 L 202.9415378890233 0 L 202.9415378890233 202.9415378890233 L 0 202.9415378890233 L 0 0 Z" fill-opacity="0.5882352941176471"/></g><g transform="translate(6,0)"><g transform="translate(0,415.47155982658086)"><path fill="rgb(148,0,211)" stroke="none" paint-order="stroke fill markers" d=" M 0 0 L 203.93236818764757 0 L 203.93236818764757 203.93236818764757 L 0 203.93236818764757 L 0 0 Z" fill-opacity="0.5882352941176471"/></g><g transform="translate(6,0)"><g transform="translate(0,399.34677402970385)"><path fill="rgb(255,0,0)" stroke="none" paint-order="stroke fill markers" d=" M 0 0 L 187.80758239077053 0 L 187.80758239077053 187.80758239077053 L 0 187.80758239077053 L 0 0 Z" fill-opacity="0.5882352941176471"/></g><g transform="translate(6,0)"><g transform="translate(0,383.82193558232774)"><path fill="rgb(255,127,0)" stroke="none" paint-order="stroke fill markers" d=" M 0 0 L 172.28274394339445 0 L 172.28274394339445 172.28274394339445 L 0 172.28274394339445 L 0 0 Z" fill-opacity="0.5882352941176471"/></g><g transform="translate(6,0)"><g transform="translate(0,386.4692623367416)"><path fill="rgb(255,255,0)" stroke="none" paint-order="stroke fill markers" d=" M 0 0 L 174.9300706978083 0 L 174.9300706978083 174.9300706978083 L 0 174.9300706978083 L 0 0 Z" fill-opacity="0.5882352941176471"/></g><g transform="translate(6,0)"><g transform="translate(0,400.3349180663199)"><path fill="rgb(0,255,0)" stroke="none" paint-order="stroke fill markers" d=" M 0 0 L 188.7957264273866 0 L 188.7957264273866 188.7957264273866 L 0 188.7957264273866 L 0 0 Z" fill-opacity="0.5882352941176471"/></g><g transform="translate(6,0)"><g transform="translate(0,404.84247581107377)"><path fill="rgb(0,0,255)" stroke="none" paint-order="stroke fill markers" d=" M 0 0 L 193.3032841721405 0 L 193.3032841721405 193.3032841721405 L 0 193.3032841721405 L 0 0 Z" fill-opacity="0.5882352941176471"/></g><g transform="translate(6,0)"><g transform="translate(0,392.32051367455733)"><path fill="rgb(75,0,130)" stroke="none" paint-order="stroke fill markers" d=" M 0 0 L 180.78132203562404 0 L 180.78132203562404 180.78132203562404 L 0 180.78132203562404 L 0 0 Z" fill-opacity="0.5882352941176471"/></g><g transform="translate(6,0)"><g transform="translate(0,367.2003452312199)"><path fill="rgb(148,0,211)" stroke="none" paint-order="stroke fill markers" d=" M 0 0 L 155.6611535922866 0 L 155.6611535922866 155.6611535922866 L 0 155.6611535922866 L 0 0 Z" fill-opacity="0.5882352941176471"/></g><g transform="translate(6,0)"><g transform="translate(0,371.38741060911235)"><path fill="rgb(255,0,0)" stroke="none" paint-order="stroke fill markers" d=" M 0 0 L 159.84821897017906 0 L 159.84821897017906 159.84821897017906 L 0 159.84821897017906 L 0 0 Z" fill-opacity="0.5882352941176471"/></g><g transform="translate(6,0)"><g transform="translate(0,388.1333654694266)"><path fill="rgb(255,127,0)" stroke="none" paint-order="stroke fill markers" d=" M 0 0 L 176.5941738304933 0 L 176.5941738304933 176.5941738304933 L 0 176.5941738304933 L 0 0 Z" fill-opacity="0.5882352941176471"/></g><g transform="translate(6,0)"><g transform="translate(0,419.23051621682816)"><path fill="rgb(255,255,0)" stroke="none" paint-order="stroke fill markers" d=" M 0 0 L 207.69132457789487 0 L 207.69132457789487 207.69132457789487 L 0 207.69132457789487 L 0 0 Z" fill-opacity="0.5882352941176471"/></g><g transform="translate(6,0)"><g transform="translate(0,430.86418336214103)"><path fill="rgb(0,255,0)" stroke="none" paint-order="stroke fill markers" d=" M 0 0 L 219.32499172320772 0 L 219.32499172320772 219.32499172320772 L 0 219.32499172320772 L 0 0 Z" fill-opacity="0.5882352941176471"/></g><g transform="translate(6,0)"><g transform="translate(0,422.73041039610666)"><path fill="rgb(0,0,255)" stroke="none" paint-order="stroke fill markers" d=" M 0 0 L 211.19121875717335 0 L 211.19121875717335 211.19121875717335 L 0 211.19121875717335 L 0 0 Z" fill-opacity="0.5882352941176471"/></g><g transform="translate(6,0)"><g transform="translate(0,415.4161604024239)"><path fill="rgb(75,0,130)" stroke="none" paint-order="stroke fill markers" d=" M 0 0 L 203.8769687634906 0 L 203.8769687634906 203.8769687634906 L 0 203.8769687634906 L 0 0 Z" fill-opacity="0.5882352941176471"/></g><g transform="translate(6,0)"><g transform="translate(0,404.0882658560977)"><path fill="rgb(148,0,211)" stroke="none" paint-order="stroke fill markers" d=" M 0 0 L 192.5490742171644 0 L 192.5490742171644 192.5490742171644 L 0 192.5490742171644 L 0 0 Z" fill-opacity="0.5882352941176471"/></g><g transform="translate(6,0)"><g transform="translate(0,388.286913735005)"><path fill="rgb(255,0,0)" stroke="none" paint-order="stroke fill markers" d=" M 0 0 L 176.74772209607167 0 L 176.74772209607167 176.74772209607167 L 0 176.74772209607167 L 0 0 Z" fill-opacity="0.5882352941176471"/></g><g transform="translate(6,0)"><g transform="translate(0,366.28430504672093)"><path fill="rgb(255,127,0)" stroke="none" paint-order="stroke fill markers" d=" M 0 0 L 154.74511340778764 0 L 154.74511340778764 154.74511340778764 L 0 154.74511340778764 L 0 0 Z" fill-opacity="0.5882352941176471"/></g><g transform="translate(6,0)"><g transform="translate(0,360.44468770633216)"><path fill="rgb(255,255,0)" stroke="none" paint-order="stroke fill markers" d=" M 0 0 L 148.9054960673989 0 L 148.9054960673989 148.9054960673989 L 0 148.9054960673989 L 0 0 Z" fill-opacity="0.5882352941176471"/></g><g transform="translate(6,0)"><g transform="translate(0,390.5158576471139)"><path fill="rgb(0,255,0)" stroke="none" paint-order="stroke fill markers" d=" M 0 0 L 178.97666600818056 0 L 178.97666600818056 178.97666600818056 L 0 178.97666600818056 L 0 0 Z" fill-opacity="0.5882352941176471"/></g><g transform="translate(6,0)"><g transform="translate(0,412.86601612342116)"><path fill="rgb(0,0,255)" stroke="none" paint-order="stroke fill markers" d=" M 0 0 L 201.32682448448787 0 L 201.32682448448787 201.32682448448787 L 0 201.32682448448787 L 0 0 Z" fill-opacity="0.5882352941176471"/></g><g transform="translate(6,0)"><g transform="translate(0,440.8007320085278)"><path fill="rgb(75,0,130)" stroke="none" paint-order="stroke fill markers" d=" M 0 0 L 229.2615403695945 0 L 229.2615403695945 229.2615403695945 L 0 229.2615403695945 L 0 0 Z" fill-opacity="0.5882352941176471"/></g><g transform="translate(6,0)"><g transform="translate(0,450.8622532126011)"><path fill="rgb(148,0,211)" stroke="none" paint-order="stroke fill markers" d=" M 0 0 L 239.32306157366781 0 L 239.32306157366781 239.32306157366781 L 0 239.32306157366781 L 0 0 Z" fill-opacity="0.5882352941176471"/></g><g transform="translate(6,0)"><g transform="translate(0,473.25282831650173)"><path fill="rgb(255,0,0)" stroke="none" paint-order="stroke fill markers" d=" M 0 0 L 261.71363667756845 0 L 261.71363667756845 261.71363667756845 L 0 261.71363667756845 L 0 0 Z" fill-opacity="0.5882352941176471"/></g><g transform="translate(6,0)"><g transform="translate(0,488.85036768041243)"><path fill="rgb(255,127,0)" stroke="none" paint-order="stroke fill markers" d=" M 0 0 L 277.31117604147914 0 L 277.31117604147914 277.31117604147914 L 0 277.31117604147914 L 0 0 Z" fill-opacity="0.5882352941176471"/></g><g transform="translate(6,0)"><g transform="translate(0,499.46530702257917)"><path fill="rgb(255,255,0)" stroke="none" paint-order="stroke fill markers" d=" M 0 0 L 287.9261153836459 0 L 287.9261153836459 287.9261153836459 L 0 287.9261153836459 L 0 0 Z" fill-opacity="0.5882352941176471"/></g><g transform="translate(6,0)"><g transform="translate(0,492.35874580338)"><path fill="rgb(0,255,0)" stroke="none" paint-order="stroke fill markers" d=" M 0 0 L 280.8195541644467 0 L 280.8195541644467 280.8195541644467 L 0 280.8195541644467 L 0 0 Z" fill-opacity="0.5882352941176471"/></g><g transform="translate(6,0)"><g transform="translate(0,454.26457692565054)"><path fill="rgb(0,0,255)" stroke="none" paint-order="stroke fill markers" d=" M 0 0 L 242.72538528671728 0 L 242.72538528671728 242.72538528671728 L 0 242.72538528671728 L 0 0 Z" fill-opacity="0.5882352941176471"/></g><g transform="translate(6,0)"><g transform="translate(0,459.72380075092633)"><path fill="rgb(75,0,130)" stroke="none" paint-order="stroke fill markers" d=" M 0 0 L 248.18460911199304 0 L 248.18460911199304 248.18460911199304 L 0 248.18460911199304 L 0 0 Z" fill-opacity="0.5882352941176471"/></g><g transform="translate(6,0)"><g transform="translate(0,477.6670248663465)"><path fill="rgb(148,0,211)" stroke="none" paint-order="stroke fill markers" d=" M 0 0 L 266.1278332274132 0 L 266.1278332274132 266.1278332274132 L 0 266.1278332274132 L 0 0 Z" fill-opacity="0.5882352941176471"/></g><g transform="translate(6,0)"><g transform="translate(0,507.0807644771861)"><path fill="rgb(255,0,0)" stroke="none" paint-order="stroke fill markers" d=" M 0 0 L 295.5415728382528 0 L 295.5415728382528 295.5415728382528 L 0 295.5415728382528 L 0 0 Z" fill-opacity="0.5882352941176471"/></g><g transform="translate(6,0)"><g transform="translate(0,527.0071058732415)"><path fill="rgb(255,127,0)" stroke="none" paint-order="stroke fill markers" d=" M 0 0 L 315.4679142343082 0 L 315.4679142343082 315.4679142343082 L 0 315.4679142343082 L 0 0 Z" fill-opacity="0.5882352941176471"/></g><g transform="translate(6,0)"><g transform="translate(0,543.4541361909621)"><path fill="rgb(255,255,0)" stroke="none" paint-order="stroke fill markers" d=" M 0 0 L 331.9149445520289 0 L 331.9149445520289 331.9149445520289 L 0 331.9149445520289 L 0 0 Z" fill-opacity="0.5882352941176471"/></g><g transform="translate(6,0)"><g transform="translate(0,579.469350856495)"><path fill="rgb(0,255,0)" stroke="none" paint-order="stroke fill markers" d=" M 0 0 L 367.9301592175617 0 L 367.9301592175617 367.9301592175617 L 0 367.9301592175617 L 0 0 Z" fill-opacity="0.5882352941176471"/></g><g transform="translate(6,0)"><g transform="translate(0,628.8613381496724)"><path fill="rgb(0,0,255)" stroke="none" paint-order="stroke fill markers" d=" M 0 0 L 417.3221465107391 0 L 417.3221465107391 417.3221465107391 L 0 417.3221465107391 L 0 0 Z" fill-opacity="0.5882352941176471"/></g><g transform="translate(6,0)"><g transform="translate(0,667.1031112201883)"><path fill="rgb(75,0,130)" stroke="none" paint-order="stroke fill markers" d=" M 0 0 L 455.563919581255 0 L 455.563919581255 455.563919581255 L 0 455.563919581255 L 0 0 Z" fill-opacity="0.5882352941176471"/></g><g transform="translate(6,0)"><g transform="translate(0,648.1030544015459)"><path fill="rgb(148,0,211)" stroke="none" paint-order="stroke fill markers" d=" M 0 0 L 436.5638627626126 0 L 436.5638627626126 436.5638627626126 L 0 436.5638627626126 L 0 0 Z" fill-opacity="0.5882352941176471"/></g><g transform="translate(6,0)"><g transform="translate(0,638.0055941278297)"><path fill="rgb(255,0,0)" stroke="none" paint-order="stroke fill markers" d=" M 0 0 L 426.46640248889645 0 L 426.46640248889645 426.46640248889645 L 0 426.46640248889645 L 0 0 Z" fill-opacity="0.5882352941176471"/></g><g transform="translate(6,0)"><g transform="translate(0,640.7740134229746)"><path fill="rgb(255,127,0)" stroke="none" paint-order="stroke fill markers" d=" M 0 0 L 429.23482178404134 0 L 429.23482178404134 429.23482178404134 L 0 429.23482178404134 L 0 0 Z" fill-opacity="0.5882352941176471"/></g><g transform="translate(6,0)"><g transform="translate(0,635.0543366825893)"><path fill="rgb(255,255,0)" stroke="none" paint-order="stroke fill markers" d=" M 0 0 L 423.5151450436561 0 L 423.5151450436561 423.5151450436561 L 0 423.5151450436561 L 0 0 Z" fill-opacity="0.5882352941176471"/></g><g transform="translate(6,0)"><g transform="translate(0,619.4897990619178)"><path fill="rgb(0,255,0)" stroke="none" paint-order="stroke fill markers" d=" M 0 0 L 407.9506074229845 0 L 407.9506074229845 407.9506074229845 L 0 407.9506074229845 L 0 0 Z" fill-opacity="0.5882352941176471"/></g><g transform="translate(6,0)"><g transform="translate(0,593.3297164849139)"><path fill="rgb(0,0,255)" stroke="none" paint-order="stroke fill markers" d=" M 0 0 L 381.79052484598054 0 L 381.79052484598054 381.79052484598054 L 0 381.79052484598054 L 0 0 Z" fill-opacity="0.5882352941176471"/></g><g transform="translate(6,0)"><g transform="translate(0,578.352990423198)"><path fill="rgb(75,0,130)" stroke="none" paint-order="stroke fill markers" d=" M 0 0 L 366.81379878426463 0 L 366.81379878426463 366.81379878426463 L 0 366.81379878426463 L 0 0 Z" fill-opacity="0.5882352941176471"/></g><g transform="translate(6,0)"><g transform="translate(0,560.1582186876394)"><path fill="rgb(148,0,211)" stroke="none" paint-order="stroke fill markers" d=" M 0 0 L 348.61902704870613 0 L 348.61902704870613 348.61902704870613 L 0 348.61902704870613 L 0 0 Z" fill-opacity="0.5882352941176471"/></g><g transform="translate(6,0)"><g transform="translate(0,551.3860313412562)"><path fill="rgb(255,0,0)" stroke="none" paint-order="stroke fill markers" d=" M 0 0 L 339.8468397023229 0 L 339.8468397023229 339.8468397023229 L 0 339.8468397023229 L 0 0 Z" fill-opacity="0.5882352941176471"/></g><g transform="translate(6,0)"><g transform="translate(0,518.8835944792496)"><path fill="rgb(255,127,0)" stroke="none" paint-order="stroke fill markers" d=" M 0 0 L 307.3444028403163 0 L 307.3444028403163 307.3444028403163 L 0 307.3444028403163 L 0 0 Z" fill-opacity="0.5882352941176471"/></g><g transform="translate(6,0)"><g transform="translate(0,480.24874609668905)"><path fill="rgb(255,255,0)" stroke="none" paint-order="stroke fill markers" d=" M 0 0 L 268.70955445775576 0 L 268.70955445775576 268.70955445775576 L 0 268.70955445775576 L 0 0 Z" fill-opacity="0.5882352941176471"/></g><g transform="translate(6,0)"><g transform="translate(0,438.1241922328212)"><path fill="rgb(0,255,0)" stroke="none" paint-order="stroke fill markers" d=" M 0 0 L 226.58500059388788 0 L 226.58500059388788 226.58500059388788 L 0 226.58500059388788 L 0 0 Z" fill-opacity="0.5882352941176471"/></g><g transform="translate(6,0)"><g transform="translate(0,429.85417937608054)"><path fill="rgb(0,0,255)" stroke="none" paint-order="stroke fill markers" d=" M 0 0 L 218.31498773714728 0 L 218.31498773714728 218.31498773714728 L 0 218.31498773714728 L 0 0 Z" fill-opacity="0.5882352941176471"/></g><g transform="translate(6,0)"><g transform="translate(0,451.1772420482797)"><path fill="rgb(75,0,130)" stroke="none" paint-order="stroke fill markers" d=" M 0 0 L 239.6380504093464 0 L 239.6380504093464 239.6380504093464 L 0 239.6380504093464 L 0 0 Z" fill-opacity="0.5882352941176471"/></g><g transform="translate(6,0)"><g transform="translate(0,484.7178299556296)"><path fill="rgb(148,0,211)" stroke="none" paint-order="stroke fill markers" d=" M 0 0 L 273.1786383166963 0 L 273.1786383166963 273.1786383166963 L 0 273.1786383166963 L 0 0 Z" fill-opacity="0.5882352941176471"/></g><g transform="translate(6,0)"><g transform="translate(0,493.23419393334586)"><path fill="rgb(255,0,0)" stroke="none" paint-order="stroke fill markers" d=" M 0 0 L 281.6950022944126 0 L 281.6950022944126 281.6950022944126 L 0 281.6950022944126 L 0 0 Z" fill-opacity="0.5882352941176471"/></g><g transform="translate(6,0)"><g transform="translate(0,502.87520767580753)"><path fill="rgb(255,127,0)" stroke="none" paint-order="stroke fill markers" d=" M 0 0 L 291.33601603687424 0 L 291.33601603687424 291.33601603687424 L 0 291.33601603687424 L 0 0 Z" fill-opacity="0.5882352941176471"/></g><g transform="translate(6,0)"><g transform="translate(0,508.4251651295664)"><path fill="rgb(255,255,0)" stroke="none" paint-order="stroke fill markers" d=" M 0 0 L 296.8859734906331 0 L 296.8859734906331 296.8859734906331 L 0 296.8859734906331 L 0 0 Z" fill-opacity="0.5882352941176471"/></g><g transform="translate(6,0)"><g transform="translate(0,517.0848188524028)"><path fill="rgb(0,255,0)" stroke="none" paint-order="stroke fill markers" d=" M 0 0 L 305.54562721346946 0 L 305.54562721346946 305.54562721346946 L 0 305.54562721346946 L 0 0 Z" fill-opacity="0.5882352941176471"/></g><g transform="translate(6,0)"><g transform="translate(0,530.9700356037289)"><path fill="rgb(0,0,255)" stroke="none" paint-order="stroke fill markers" d=" M 0 0 L 319.4308439647956 0 L 319.4308439647956 319.4308439647956 L 0 319.4308439647956 L 0 0 Z" fill-opacity="0.5882352941176471"/></g><g transform="translate(6,0)"><g transform="translate(0,519.8661787841331)"><path fill="rgb(75,0,130)" stroke="none" paint-order="stroke fill markers" d=" M 0 0 L 308.3269871451998 0 L 308.3269871451998 308.3269871451998 L 0 308.3269871451998 L 0 0 Z" fill-opacity="0.5882352941176471"/></g><g transform="translate(6,0)"><g transform="translate(0,523.0423436424998)"><path fill="rgb(148,0,211)" stroke="none" paint-order="stroke fill markers" d=" M 0 0 L 311.50315200356647 0 L 311.50315200356647 311.50315200356647 L 0 311.50315200356647 L 0 0 Z" fill-opacity="0.5882352941176471"/></g><g transform="translate(6,0)"><g transform="translate(0,552.8554362372738)"><path fill="rgb(255,0,0)" stroke="none" paint-order="stroke fill markers" d=" M 0 0 L 341.3162445983405 0 L 341.3162445983405 341.3162445983405 L 0 341.3162445983405 L 0 0 Z" fill-opacity="0.5882352941176471"/></g><g transform="translate(6,0)"><g transform="translate(0,564.6907333975599)"><path fill="rgb(255,127,0)" stroke="none" paint-order="stroke fill markers" d=" M 0 0 L 353.15154175862665 0 L 353.15154175862665 353.15154175862665 L 0 353.15154175862665 L 0 0 Z" fill-opacity="0.5882352941176471"/></g><g transform="translate(6,0)"><g transform="translate(0,566.0986969162628)"><path fill="rgb(255,255,0)" stroke="none" paint-order="stroke fill markers" d=" M 0 0 L 354.55950527732955 0 L 354.55950527732955 354.55950527732955 L 0 354.55950527732955 L 0 0 Z" fill-opacity="0.5882352941176471"/></g><g transform="translate(6,0)"><g transform="translate(0,578.901419771128)"><path fill="rgb(0,255,0)" stroke="none" paint-order="stroke fill markers" d=" M 0 0 L 367.3622281321947 0 L 367.3622281321947 367.3622281321947 L 0 367.3622281321947 L 0 0 Z" fill-opacity="0.5882352941176471"/></g><g transform="translate(6,0)"><g transform="translate(0,582.3084808966574)"><path fill="rgb(0,0,255)" stroke="none" paint-order="stroke fill markers" d=" M 0 0 L 370.76928925772415 0 L 370.76928925772415 370.76928925772415 L 0 370.76928925772415 L 0 0 Z" fill-opacity="0.5882352941176471"/></g><g transform="translate(6,0)"><g transform="translate(0,569.3354267130796)"><path fill="rgb(75,0,130)" stroke="none" paint-order="stroke fill markers" d=" M 0 0 L 357.7962350741464 0 L 357.7962350741464 357.7962350741464 L 0 357.7962350741464 L 0 0 Z" fill-opacity="0.5882352941176471"/></g><g transform="translate(6,0)"><g transform="translate(0,549.514004269269)"><path fill="rgb(148,0,211)" stroke="none" paint-order="stroke fill markers" d=" M 0 0 L 337.97481263033575 0 L 337.97481263033575 337.97481263033575 L 0 337.97481263033575 L 0 0 Z" fill-opacity="0.5882352941176471"/></g><g transform="translate(6,0)"><g transform="translate(0,506.83212211632434)"><path fill="rgb(255,0,0)" stroke="none" paint-order="stroke fill markers" d=" M 0 0 L 295.29293047739105 0 L 295.29293047739105 295.29293047739105 L 0 295.29293047739105 L 0 0 Z" fill-opacity="0.5882352941176471"/></g><g transform="translate(6,0)"><g transform="translate(0,482.5281487101701)"><path fill="rgb(255,127,0)" stroke="none" paint-order="stroke fill markers" d=" M 0 0 L 270.9889570712368 0 L 270.9889570712368 270.9889570712368 L 0 270.9889570712368 L 0 0 Z" fill-opacity="0.5882352941176471"/></g><g transform="translate(6,0)"><g transform="translate(0,470.4060930442762)"><path fill="rgb(255,255,0)" stroke="none" paint-order="stroke fill markers" d=" M 0 0 L 258.8669014053429 0 L 258.8669014053429 258.8669014053429 L 0 258.8669014053429 L 0 0 Z" fill-opacity="0.5882352941176471"/></g><g transform="translate(6,0)"><g transform="translate(0,474.94434007586506)"><path fill="rgb(0,255,0)" stroke="none" paint-order="stroke fill markers" d=" M 0 0 L 263.40514843693177 0 L 263.40514843693177 263.40514843693177 L 0 263.40514843693177 L 0 0 Z" fill-opacity="0.5882352941176471"/></g><g transform="translate(6,0)"><g transform="translate(0,467.62144608063363)"><path fill="rgb(0,0,255)" stroke="none" paint-order="stroke fill markers" d=" M 0 0 L 256.08225444170034 0 L 256.08225444170034 256.08225444170034 L 0 256.08225444170034 L 0 0 Z" fill-opacity="0.5882352941176471"/></g><g transform="translate(6,0)"><g transform="translate(0,462.08129414241245)"><path fill="rgb(75,0,130)" stroke="none" paint-order="stroke fill markers" d=" M 0 0 L 250.54210250347916 0 L 250.54210250347916 250.54210250347916 L 0 250.54210250347916 L 0 0 Z" fill-opacity="0.5882352941176471"/></g><g transform="translate(6,0)"><g transform="translate(0,467.1061721351218)"><path fill="rgb(148,0,211)" stroke="none" paint-order="stroke fill markers" d=" M 0 0 L 255.56698049618853 0 L 255.56698049618853 255.56698049618853 L 0 255.56698049618853 L 0 0 Z" fill-opacity="0.5882352941176471"/></g><g transform="translate(6,0)"><g transform="translate(0,507.8335930618958)"><path fill="rgb(255,0,0)" stroke="none" paint-order="stroke fill markers" d=" M 0 0 L 296.2944014229625 0 L 296.2944014229625 296.2944014229625 L 0 296.2944014229625 L 0 0 Z" fill-opacity="0.5882352941176471"/></g><g transform="translate(6,0)"><g transform="translate(0,510.38401533445415)"><path fill="rgb(255,127,0)" stroke="none" paint-order="stroke fill markers" d=" M 0 0 L 298.84482369552086 0 L 298.84482369552086 298.84482369552086 L 0 298.84482369552086 L 0 0 Z" fill-opacity="0.5882352941176471"/></g><g transform="translate(6,0)"><g transform="translate(0,487.2621502597682)"><path fill="rgb(255,255,0)" stroke="none" paint-order="stroke fill markers" d=" M 0 0 L 275.7229586208349 0 L 275.7229586208349 275.7229586208349 L 0 275.7229586208349 L 0 0 Z" fill-opacity="0.5882352941176471"/></g><g transform="translate(6,0)"><g transform="translate(0,485.45247044285134)"><path fill="rgb(0,255,0)" stroke="none" paint-order="stroke fill markers" d=" M 0 0 L 273.91327880391805 0 L 273.91327880391805 273.91327880391805 L 0 273.91327880391805 L 0 0 Z" fill-opacity="0.5882352941176471"/></g><g transform="translate(6,0)"><g transform="translate(0,483.22104679543185)"><path fill="rgb(0,0,255)" stroke="none" paint-order="stroke fill markers" d=" M 0 0 L 271.68185515649856 0 L 271.68185515649856 271.68185515649856 L 0 271.68185515649856 L 0 0 Z" fill-opacity="0.5882352941176471"/></g><g transform="translate(6,0)"><g transform="translate(0,479.42673408241683)"><path fill="rgb(75,0,130)" stroke="none" paint-order="stroke fill markers" d=" M 0 0 L 267.88754244348354 0 L 267.88754244348354 267.88754244348354 L 0 267.88754244348354 L 0 0 Z" fill-opacity="0.5882352941176471"/></g><g transform="translate(6,0)"><g transform="translate(0,512.2970260581237)"><path fill="rgb(148,0,211)" stroke="none" paint-order="stroke fill markers" d=" M 0 0 L 300.7578344191904 0 L 300.7578344191904 300.7578344191904 L 0 300.7578344191904 L 0 0 Z" fill-opacity="0.5882352941176471"/></g><g transform="translate(6,0)"><g transform="translate(0,544.7489634717745)"><path fill="rgb(255,0,0)" stroke="none" paint-order="stroke fill markers" d=" M 0 0 L 333.2097718328412 0 L 333.2097718328412 333.2097718328412 L 0 333.2097718328412 L 0 0 Z" fill-opacity="0.5882352941176471"/></g><g transform="translate(6,0)"><g transform="translate(0,585.4986247057038)"><path fill="rgb(255,127,0)" stroke="none" paint-order="stroke fill markers" d=" M 0 0 L 373.9594330667706 0 L 373.9594330667706 373.9594330667706 L 0 373.9594330667706 L 0 0 Z" fill-opacity="0.5882352941176471"/></g><g transform="translate(6,0)"><g transform="translate(0,620.0255679837073)"><path fill="rgb(255,255,0)" stroke="none" paint-order="stroke fill markers" d=" M 0 0 L 408.486376344774 0 L 408.486376344774 408.486376344774 L 0 408.486376344774 L 0 0 Z" fill-opacity="0.5882352941176471"/></g><g transform="translate(6,0)"><g transform="translate(0,631.1238069843566)"><path fill="rgb(0,255,0)" stroke="none" paint-order="stroke fill markers" d=" M 0 0 L 419.5846153454233 0 L 419.5846153454233 419.5846153454233 L 0 419.5846153454233 L 0 0 Z" fill-opacity="0.5882352941176471"/></g><g transform="translate(6,0)"><g transform="translate(0,598.7819600694905)"><path fill="rgb(0,0,255)" stroke="none" paint-order="stroke fill markers" d=" M 0 0 L 387.24276843055725 0 L 387.24276843055725 387.24276843055725 L 0 387.24276843055725 L 0 0 Z" fill-opacity="0.5882352941176471"/></g><g transform="translate(6,0)"><g transform="translate(0,554.4836805474351)"><path fill="rgb(75,0,130)" stroke="none" paint-order="stroke fill markers" d=" M 0 0 L 342.94448890850185 0 L 342.94448890850185 342.94448890850185 L 0 342.94448890850185 L 0 0 Z" fill-opacity="0.5882352941176471"/></g><g transform="translate(6,0)"><g transform="translate(0,522.8851634691449)"><path fill="rgb(148,0,211)" stroke="none" paint-order="stroke fill markers" d=" M 0 0 L 311.3459718302116 0 L 311.3459718302116 311.3459718302116 L 0 311.3459718302116 L 0 0 Z" fill-opacity="0.5882352941176471"/></g><g transform="translate(6,0)"><g transform="translate(0,508.9134839132249)"><path fill="rgb(255,0,0)" stroke="none" paint-order="stroke fill markers" d=" M 0 0 L 297.37429227429163 0 L 297.37429227429163 297.37429227429163 L 0 297.37429227429163 L 0 0 Z" fill-opacity="0.5882352941176471"/></g><g transform="translate(6,0)"><g transform="translate(0,510.2525249791805)"><path fill="rgb(255,127,0)" stroke="none" paint-order="stroke fill markers" d=" M 0 0 L 298.71333334024723 0 L 298.71333334024723 298.71333334024723 L 0 298.71333334024723 L 0 0 Z" fill-opacity="0.5882352941176471"/></g><g transform="translate(6,0)"/></g></g></g></g></g></g></g></g></g></g></g></g></g></g></g></g></g></g></g></g></g></g></g></g></g></g></g></g></g></g></g></g></g></g></g></g></g></g></g></g></g></g></g></g></g></g></g></g></g></g></g></g></g></g></g></g></g></g></g></g></g></g></g></g></g></g></g></g></g></g></g></g></g></g></g></g></g></g></g></g></g></g></g></g></g></g></g></g></g></g></g></g></g></g></g></g></g></g></g></g></g></svg>